<svg width="94" height="315" viewBox="0 0 94 315" fill="none" xmlns="http://www.w3.org/2000/svg">
<path d="M84.4235 89.6604L9.33069 89.6604L9.33069 12.337C9.33068 9.06516 10.6304 5.92731 12.9439 3.61379C15.2575 1.30027 18.3953 0.000571808 21.6671 0.000571665L72.0735 0.000569462C75.3454 0.000569319 78.4832 1.30027 80.7967 3.61379C83.1102 5.92731 84.4099 9.06515 84.4099 12.337L84.4235 89.6604Z" fill="#005387"/>
<path d="M10.541 49.3869L10.541 79.3098L15.8591 80.3843L15.8591 60.7167L11.2483 49.2645C11.2168 49.1867 11.1596 49.1221 11.0863 49.0814C11.013 49.0406 10.9279 49.0262 10.8453 49.0405C10.7626 49.0548 10.6874 49.097 10.632 49.16C10.5767 49.223 10.5446 49.3031 10.541 49.3869Z" fill="#849EA7"/>
<path d="M17.4368 87.6882L16.6479 87.6882L16.6479 60.7985L11.8466 46.0138C11.726 45.6393 11.49 45.3127 11.1724 45.0806C10.8548 44.8485 10.4719 44.7229 10.0785 44.7217L9.61602 44.7217C9.52081 44.7217 9.4528 44.7217 9.34399 44.7217L9.34399 43.9464C9.4392 43.9464 9.50721 43.9464 9.57522 43.9464L10.0921 43.9464C10.6521 43.9459 11.1977 44.1235 11.65 44.4536C12.1024 44.7837 12.438 45.2491 12.6083 45.7826L17.4504 60.744L17.4368 87.6882Z" fill="#0C3854"/>
<path d="M6.89588 54.5418L0.65288 56.0515C0.576019 56.0698 0.49605 56.0707 0.418816 56.0541C0.341583 56.0375 0.269035 56.0038 0.206467 55.9556C0.1439 55.9074 0.0928966 55.8458 0.0571786 55.7753C0.0214606 55.7049 0.00193046 55.6273 1.70435e-05 55.5483L1.69917e-05 54.365C-0.00133951 54.0942 0.0781974 53.8291 0.228435 53.6037C0.378673 53.3783 0.592768 53.203 0.843297 53.1001C0.843297 53.1001 5.72617 50.5975 7.35833 50.5975L11.0851 50.5975L11.0851 52.2704L8.36483 52.6648C8.16364 52.6955 7.97342 52.7764 7.81176 52.9C7.6501 53.0236 7.52222 53.186 7.43994 53.3721L6.89588 54.5418Z" fill="#2E2E2E"/>
<path d="M22.4556 4.62479L20.2114 34.9829L20.8779 4.54317L22.4556 4.62479Z" fill="#5DA8D8"/>
<path d="M73.5422 0.843748L20.2114 0.84375L20.2114 5.16897L73.5422 5.16897L73.5422 0.843748Z" fill="#666666"/>
<path d="M14.2815 4.58434L14.2815 39.2405L14.8664 39.2405L14.8663 4.58434L14.2815 4.58434Z" fill="#0C3854"/>
<path d="M9.38509 12.7581C9.38509 12.7581 12.459 5.18211 15.5465 5.18211L21.191 5.18211C22.4288 5.18211 24.3873 2.72028 25.6251 2.72028L46.8703 2.72028L46.8703 1.55252e-05L21.6671 1.66269e-05C18.3953 1.67699e-05 15.2575 1.29972 12.9439 3.61324C10.6304 5.92676 9.33069 9.0646 9.33069 12.3364L9.33069 12.6628L9.38509 12.7581Z" fill="#F6F6F6"/>
<path d="M83.1995 49.3869L83.1995 79.3098L77.8813 80.3843L77.8813 60.7167L82.4922 49.2645C82.5237 49.1867 82.5808 49.1221 82.6542 49.0814C82.7275 49.0406 82.8125 49.0262 82.8952 49.0405C82.9778 49.0548 83.0531 49.097 83.1084 49.16C83.1638 49.223 83.1959 49.3031 83.1995 49.3869Z" fill="#849EA7"/>
<path d="M77.0925 87.6882L76.2628 87.6882L76.2628 60.608L81.0777 45.769C81.2586 45.2421 81.597 44.7835 82.047 44.4551C82.497 44.1267 83.037 43.9444 83.5939 43.9328L84.1108 43.9328C84.1788 43.9328 84.2468 43.9328 84.342 43.9328L84.342 44.7217C84.2332 44.7217 84.1652 44.7217 84.0836 44.7217C84.002 44.7217 83.8387 44.7217 83.5939 44.7217C83.2005 44.7229 82.8176 44.8485 82.5 45.0806C82.1824 45.3127 81.9463 45.6393 81.8257 46.0138L77.0245 60.7985L77.0925 87.6882Z" fill="#0C3854"/>
<path d="M86.7899 54.5419L93.0329 56.0516C93.1099 56.0726 93.1908 56.0755 93.2691 56.06C93.3475 56.0445 93.4212 56.0111 93.4844 55.9623C93.5477 55.9135 93.5988 55.8508 93.6337 55.779C93.6686 55.7071 93.6864 55.6282 93.6857 55.5483L93.6857 54.365C93.6871 54.0942 93.6075 53.8291 93.4573 53.6037C93.3071 53.3784 93.093 53.203 92.8425 53.1001C92.8425 53.1001 87.9732 50.5975 86.341 50.5975L82.6143 50.5975L82.6143 52.2704L85.3345 52.6649C85.5333 52.6976 85.7207 52.7795 85.8798 52.903C86.039 53.0265 86.1647 53.1877 86.2458 53.3721L86.7899 54.5419Z" fill="#2E2E2E"/>
<path d="M71.2844 4.62479L73.5286 34.9829L72.8622 4.54317L71.2844 4.62479Z" fill="#5DA8D8"/>
<path d="M78.8743 4.58434L78.8743 39.2405L79.4591 39.2405L79.4591 4.58434L78.8743 4.58434Z" fill="#0C3854"/>
<path d="M84.4235 12.7581C84.4235 12.7581 81.3496 5.18211 78.2485 5.18211L72.6039 5.18211C71.3662 5.18211 69.4076 2.72028 68.1699 2.72028L46.8702 2.72028L46.8702 1.71661e-05L72.0735 1.60645e-05C75.3453 1.59215e-05 78.4831 1.29972 80.7966 3.61324C83.1101 5.92676 84.4099 9.0646 84.4099 12.3364L84.4099 12.6628L84.4235 12.7581Z" fill="#F6F6F6"/>
<path d="M46.8704 32.2899C33.269 32.2899 12.7175 34.5069 12.7039 39.6346C12.7039 43.3478 16.8659 55.0313 18.4436 59.3157C18.6206 59.7631 18.9408 60.1393 19.3542 60.3854C19.7676 60.6315 20.251 60.7336 20.7286 60.6759C25.1219 60.2134 37.295 59.0301 46.8704 59.0301C56.4457 59.0301 68.6325 60.2134 73.0257 60.6758C73.5018 60.7352 73.9841 60.6336 74.3957 60.3871C74.8074 60.1406 75.1247 59.7635 75.2971 59.3157C76.8748 55.0313 81.0505 43.3478 81.0369 39.6346C81.0233 34.5069 60.4581 32.2899 46.8704 32.2899Z" fill="#849EA7"/>
<path d="M5.12792 87.7968L5.12793 314.939L88.0959 314.939L88.0959 87.7968L5.12792 87.7968Z" fill="#717875"/>
<path d="M6.48766 90.5174L6.48767 312.219L85.3753 312.219L85.3753 90.5174L6.48766 90.5174Z" fill="#E6E6E6"/>
<path d="M54.0939 113.468C53.8562 113.421 53.619 113.373 53.3813 113.33C53.2086 113.299 53.034 113.277 52.8601 113.251C52.8849 113.425 52.9037 113.599 52.9363 113.772C52.9839 114.025 53.0406 114.275 53.0933 114.527C53.0503 114.543 53.0067 114.558 52.963 114.573C52.8594 114.418 52.75 114.267 52.6529 114.108C52.0517 113.12 51.6712 113.086 51.0732 114.086C49.8074 116.203 49.184 118.451 50.0419 120.892C50.64 122.594 50.7214 124.327 50.5129 126.092C50.4219 126.859 50.1659 127.597 49.7625 128.255C49.2231 129.148 47.8166 129.27 47.1905 128.336C47.0834 128.166 47.0254 127.97 47.0231 127.769C47.0127 124.859 47.0173 121.95 47.0153 119.039C47.0153 118.231 46.9137 117.438 46.6244 116.677C45.9417 114.885 43.9783 113.962 42.2962 114.64C41.6285 114.909 40.9119 115.587 40.6025 116.284C40.7327 116.167 40.8077 116.101 40.8806 116.033C41.6982 115.281 42.6493 114.967 43.747 115.18C44.7978 115.384 45.4935 116.035 45.8232 117.03C46.0189 117.592 46.1287 118.181 46.1489 118.777C46.1847 121.219 46.1645 123.663 46.1645 126.104C46.1645 126.145 46.1574 126.187 46.1508 126.261C45.5482 125.823 45.3124 125.223 45.2147 124.54C45.0987 123.725 45.1802 122.944 45.5267 122.188C45.6601 121.891 45.7612 121.581 45.8284 121.263C46.0453 120.258 45.2714 118.837 44.3392 118.537C44.1687 118.488 43.9857 118.507 43.8291 118.591C43.3359 118.902 43.1125 119.613 43.278 120.173C43.3503 120.415 43.4734 120.526 43.7294 120.41C43.8469 120.357 43.9785 120.343 44.1046 120.37L43.6903 120.901L44.188 121.242L44.1587 121.338C44.0513 121.362 43.9425 121.379 43.833 121.389C43.5346 121.398 43.4421 121.562 43.4636 121.839C43.4823 122.04 43.4587 122.243 43.3946 122.435C43.3472 122.296 43.2915 122.159 43.2278 122.026C43.1913 121.961 43.0942 121.862 43.0499 121.873C43.0079 121.889 42.9695 121.914 42.9373 121.945C42.905 121.977 42.8795 122.015 42.8623 122.056C42.8206 122.164 42.8285 122.29 42.805 122.406C42.7815 122.522 42.7483 122.624 42.7014 122.797C42.3327 122.393 42.5444 121.885 42.2623 121.433L41.9001 122.186C41.7575 121.838 41.794 121.534 41.9926 121.274C42.2571 120.924 42.2767 120.584 42.106 120.18C41.9783 119.897 41.9205 119.586 41.9373 119.276C41.9542 118.965 42.0454 118.663 42.2031 118.395C42.2506 118.31 42.2949 118.223 42.3334 118.135C42.4838 117.795 42.4285 117.643 42.0988 117.483C41.3998 117.14 40.9458 117.292 40.5699 117.986C40.2363 118.602 40.1308 119.275 40.0728 119.959C39.8038 123.1 39.8709 126.249 39.8559 129.396C39.8559 129.88 39.8559 130.363 39.8559 130.937C39.5764 130.6 39.3497 130.342 39.1445 130.068C39.0906 129.975 39.0659 129.869 39.0735 129.762C39.0839 126.82 39.0735 123.878 39.1237 120.937C39.1517 119.382 39.3647 117.843 39.9627 116.385C40.5067 115.059 41.4142 114.086 42.7366 113.526C43.003 113.414 43.0793 113.312 42.9262 113.028C42.6343 112.487 42.6473 111.92 42.9385 111.376C43.0411 111.185 43.1576 111.002 43.2871 110.829C43.8037 110.137 44.2043 109.42 43.9053 108.49L44.2818 108.962L44.4922 108L44.5574 108L44.7281 108.888L45.517 108.474L45.5991 108.547L45.289 109.405C45.5456 109.457 45.7776 109.504 46.0095 109.55L46.0199 109.637C45.8896 109.698 45.7593 109.767 45.629 109.816C45.4264 109.889 45.3769 109.999 45.5098 110.179C45.6297 110.341 45.7443 110.505 45.8616 110.672L45.8004 110.751C45.6153 110.641 45.416 110.549 45.2492 110.415C45.029 110.238 44.8805 110.285 44.7072 110.484C44.2981 110.956 44.2212 112.202 44.6264 112.682C44.7346 112.812 44.9854 112.888 45.1606 112.873C46.2982 112.774 47.4393 113.021 48.4335 113.583C48.6973 113.728 48.8576 113.662 48.9964 113.432C49.0724 113.313 49.1422 113.191 49.2055 113.065C49.4009 112.647 49.7266 112.393 50.1462 112.223C50.9279 111.908 51.0367 111.68 50.9592 110.828C50.9286 110.488 50.9846 110.139 51.0009 109.794L51.1136 109.79L51.4634 110.909L52.0621 109.786L52.1859 109.816L52.1859 111.158C52.29 111.135 52.3925 111.105 52.4927 111.068C52.6679 110.984 52.8308 110.873 53.0138 110.808C53.1734 110.751 53.3506 110.743 53.5207 110.718C53.4738 110.875 53.4484 111.044 53.3741 111.188C53.2803 111.369 53.1428 111.526 53.0295 111.698C52.7689 112.098 52.7878 112.181 53.1409 112.48C53.4666 112.758 53.7786 113.054 54.0965 113.342L54.0939 113.468Z" fill="#004974"/>
<path d="M44.2403 223.87L49.5822 225.654L49.5822 225.295C49.5822 223.114 49.5822 220.932 49.5822 218.75C49.5822 218.261 49.5034 218.149 49.0415 217.993C47.2943 217.402 45.5465 216.812 43.798 216.223C43.3641 216.076 43.2573 216.163 43.2573 216.666L43.2573 231.584C43.1348 231.553 43.0429 231.535 42.955 231.506C41.7374 231.098 40.5218 230.682 39.301 230.284C39.0984 230.219 39.0359 230.125 39.0359 229.917C39.0411 224.153 39.0446 218.389 39.0463 212.624C39.0521 212.234 39.1008 211.845 39.1916 211.466C39.4958 210.125 40.4293 209.491 41.7628 209.805C42.7257 210.031 43.6638 210.367 44.6051 210.678C46.4598 211.293 48.3073 211.926 50.1594 212.548C52.5196 213.34 53.8016 215.031 53.8159 217.535C53.8446 222.583 53.8283 227.633 53.8296 232.68C53.8296 232.733 53.8212 232.787 53.8133 232.875C53.6896 232.836 53.5795 232.803 53.4707 232.766C50.5122 231.777 47.5538 230.79 44.5953 229.803C44.3302 229.716 44.2305 229.604 44.2338 229.308C44.2507 227.626 44.2423 225.943 44.2423 224.26L44.2403 223.87Z" fill="#004974"/>
<path d="M44.2402 246.425L45.3476 246.783L45.3476 239.974C45.3476 239.404 45.2948 239.33 44.7672 239.153C44.3991 239.03 44.031 238.905 43.6597 238.789C43.3907 238.705 43.2812 238.781 43.2565 239.064C43.2467 239.172 43.2565 239.281 43.2565 239.389L43.2565 254.438C43.1392 254.408 43.0493 254.392 42.9633 254.363C41.7458 253.956 40.5308 253.541 39.31 253.144C39.0957 253.074 39.0338 252.975 39.0344 252.753C39.0401 246.946 39.0438 241.139 39.0455 235.331C39.0493 234.931 39.0978 234.531 39.1901 234.141C39.5074 232.773 40.435 232.122 41.7835 232.485C43.2467 232.878 44.6675 233.436 46.1072 233.92C46.1472 233.937 46.1859 233.956 46.2232 233.978C47.7215 234.76 48.5104 236.035 48.7638 237.679C48.7834 237.806 48.8081 237.931 48.8381 238.096C49.4153 237.801 49.9625 237.525 50.5077 237.244C51.468 236.75 52.4278 236.255 53.3871 235.758C53.778 235.555 53.8256 235.584 53.8256 236.03C53.8256 237.974 53.8217 239.916 53.8314 241.86C53.8314 242.088 53.7585 242.203 53.5585 242.301C52.0921 243.017 50.6328 243.743 49.1658 244.454C48.9312 244.568 48.8316 244.697 48.84 244.97C48.8583 245.849 48.8583 246.728 48.84 247.607C48.8335 247.88 48.9377 247.983 49.1768 248.063C50.6224 248.536 52.0614 249.029 53.5083 249.496C53.7572 249.577 53.8379 249.685 53.834 249.952C53.8203 251.656 53.8269 253.36 53.8269 255.064L53.8269 255.432C53.4262 255.302 53.0595 255.184 52.6946 255.062C49.9944 254.158 47.2954 253.249 44.5919 252.354C44.3255 252.266 44.2278 252.154 44.2304 251.86C44.2473 250.178 44.2388 248.495 44.2388 246.813L44.2402 246.425Z" fill="#004974"/>
<path d="M44.2408 270.039C44.6004 270.159 44.9163 270.264 45.2316 270.37C46.5306 270.808 47.8294 271.244 49.1279 271.681C49.4849 271.8 49.5788 271.736 49.5794 271.355C49.5794 268.934 49.5794 266.514 49.584 264.093C49.584 263.748 49.4309 263.542 49.1182 263.437C47.3376 262.841 45.5569 262.246 43.7763 261.651C43.3659 261.513 43.2551 261.598 43.2551 262.049C43.2551 265.067 43.2551 268.084 43.2551 271.101L43.2551 275.496C41.2813 275.235 39.5875 273.607 39.1921 271.573C39.0963 271.084 39.0468 270.587 39.0442 270.089C39.0325 266.137 39.0335 262.185 39.0474 258.232C39.0475 257.693 39.1213 257.155 39.267 256.636C39.596 255.498 40.48 254.952 41.6369 255.208C42.549 255.411 43.4382 255.724 44.3281 256.017C46.3365 256.68 48.3423 257.348 50.3416 258.037C52.4002 258.746 53.5259 260.217 53.7623 262.38C53.8051 262.789 53.8258 263.201 53.8242 263.613C53.8268 267.499 53.8229 271.384 53.8125 275.27C53.8035 275.693 53.7422 276.112 53.6301 276.52C53.3044 277.794 52.3924 278.386 51.1188 278.101C50.3012 277.919 49.5058 277.63 48.7084 277.368C47.3048 276.907 45.9044 276.435 44.5072 275.952C44.4017 275.915 44.2519 275.786 44.2512 275.699C44.2369 273.833 44.2408 271.965 44.2408 270.039Z" fill="#004974"/>
<path d="M43.2552 199.547C41.8982 199.167 40.6494 198.714 39.8481 197.503C39.2755 196.633 39.0423 195.662 39.0403 194.636C39.0338 190.587 39.0349 186.538 39.0436 182.489C39.0466 182.11 39.0934 181.732 39.183 181.364C39.4774 180.139 40.3217 179.589 41.5334 179.912C42.7451 180.236 43.9438 180.65 45.1437 181.047C47.9313 181.968 50.7091 182.908 53.496 183.824C53.7604 183.912 53.8367 184.031 53.8347 184.302C53.8223 185.996 53.8282 187.689 53.8282 189.383L53.8282 189.766L49.5788 188.363C49.571 188.515 49.5612 188.62 49.5612 188.725C49.5612 190.982 49.5651 193.24 49.554 195.5C49.554 195.776 49.64 195.887 49.9045 195.971C51.2074 196.387 52.5051 196.83 53.8132 197.268L53.8132 203.092L44.25 199.896L44.25 194.069C44.8245 194.257 45.3822 194.439 45.9782 194.633C45.9861 194.503 45.9971 194.401 45.9971 194.299C45.9971 192.019 45.9971 189.739 46.003 187.459C46.003 187.226 45.9379 187.119 45.7105 187.048C45.0812 186.853 44.4623 186.629 43.8382 186.421C43.3627 186.263 43.2558 186.34 43.2558 186.842C43.2558 190.934 43.2558 195.027 43.2558 199.12L43.2552 199.547Z" fill="#004974"/>
<path d="M44.2455 173.184C44.4311 173.249 44.5595 173.302 44.6904 173.346C47.6276 174.329 50.5656 175.31 53.5045 176.289C53.7449 176.368 53.8387 176.469 53.8361 176.74C53.8205 178.323 53.8283 179.908 53.8283 181.521C53.7156 181.493 53.625 181.476 53.5377 181.446C50.5411 180.443 47.5444 179.441 44.5477 178.44C44.3132 178.362 44.2363 178.263 44.237 178.013C44.2461 174.29 44.2461 170.566 44.237 166.843C44.237 166.591 44.3021 166.464 44.5432 166.362C45.7588 165.856 46.9646 165.327 48.1737 164.805C48.2818 164.759 48.3874 164.706 48.56 164.625C48.3906 164.56 48.2792 164.51 48.1639 164.472C45.2276 163.489 42.2905 162.509 39.3524 161.532C39.0971 161.447 39 161.336 39.0026 161.056C39.0189 159.601 39.0104 158.147 39.0104 156.691L39.0104 156.322C39.1596 156.359 39.271 156.379 39.3778 156.414C43.2127 157.697 47.0484 158.982 50.885 160.268C52.369 160.767 53.4179 161.695 53.7279 163.303C53.7905 163.644 53.8225 163.99 53.8237 164.337C53.8367 165.325 53.8387 166.313 53.8237 167.301C53.8164 167.636 53.7749 167.969 53.6999 168.296C53.5579 168.931 53.1723 169.364 52.5671 169.62C49.9109 170.743 47.2582 171.874 44.609 173.01C44.5041 173.054 44.4031 173.108 44.2455 173.184Z" fill="#004974"/>
<path d="M47.8355 278.936C48.7886 279.261 49.7391 279.573 50.6843 279.901C52.3025 280.462 53.3207 281.579 53.7188 283.253C53.7857 283.527 53.8205 283.807 53.8223 284.089C53.8276 288.507 53.8254 292.925 53.8158 297.342C53.8108 297.732 53.7574 298.12 53.6569 298.497C53.3507 299.682 52.5136 300.22 51.3351 299.917C50.2615 299.641 49.2127 299.265 48.1574 298.919C46.9274 298.517 45.7034 298.096 44.4741 297.691C44.3099 297.636 44.2343 297.57 44.235 297.377C44.2435 295.576 44.2402 293.774 44.2409 291.97C44.2409 291.918 44.2493 291.866 44.2571 291.78C45.0701 292.052 45.8656 292.32 46.6616 292.587C47.4799 292.861 48.2985 293.135 49.1176 293.407C49.487 293.531 49.5788 293.473 49.5788 293.099C49.5821 290.602 49.5788 288.105 49.5847 285.607C49.5847 285.408 49.5195 285.314 49.3339 285.257C48.8909 285.119 48.4492 284.976 48.0153 284.813C47.9235 284.778 47.8049 284.646 47.8049 284.557C47.7938 282.723 47.7984 280.889 47.801 279.054C47.8083 279.013 47.8198 278.974 47.8355 278.936Z" fill="#004974"/>
<path d="M43.2585 283.271L43.2585 297.245C40.9935 296.702 39.0977 295.644 39.0528 292.404C38.9929 288.095 39.0306 283.785 39.0417 279.476C39.0456 277.894 40.6143 276.683 42.1687 277.089C43.1458 277.345 44.095 277.713 45.0572 278.032L45.0572 283.855C44.4592 283.661 43.8807 283.474 43.2585 283.271Z" fill="#004974"/>
<path d="M43.2349 156.706C42.0324 156.302 40.8578 155.908 39.6832 155.512C39.007 155.285 39.0077 155.285 39.0077 154.564L39.0077 135.634C39.278 135.723 39.5087 135.797 39.7386 135.874C40.8324 136.243 41.9249 136.616 43.0213 136.978C43.19 137.034 43.259 137.108 43.259 137.294C43.2538 143.718 43.2519 150.143 43.2532 156.568C43.2496 156.615 43.2435 156.661 43.2349 156.706Z" fill="#004974"/>
<path d="M44.2617 144.306C45.1666 144.61 46.0448 144.905 46.9229 145.198C49.1326 145.937 51.3426 146.675 53.5527 147.413C53.711 147.466 53.8354 147.501 53.8341 147.727C53.8231 149.54 53.8283 151.351 53.827 153.164C53.8235 153.217 53.8174 153.27 53.8087 153.323L51.5006 152.552C49.1685 151.77 46.8361 150.991 44.5034 150.216C44.3367 150.16 44.2331 150.112 44.2344 149.89C44.2448 148.078 44.2409 146.266 44.2416 144.454C44.2416 144.423 44.25 144.391 44.2617 144.306Z" fill="#004974"/>
<path d="M44.2401 202.357C45.0375 202.623 45.7724 202.868 46.5072 203.113C48.84 203.895 51.1709 204.677 53.5076 205.451C53.7565 205.533 53.8373 205.642 53.8334 205.907C53.821 207.622 53.8269 209.336 53.8269 211.053L53.8269 211.38C53.6966 211.344 53.5975 211.319 53.5011 211.286C50.524 210.29 47.5462 209.295 44.5678 208.301C44.33 208.222 44.2304 208.126 44.2323 207.852C44.2486 206.149 44.2408 204.444 44.2408 202.74L44.2401 202.357Z" fill="#004974"/>
<path d="M43.2411 166.945L43.2411 177.994C42.2249 177.64 41.1832 177.408 40.3552 176.691C39.4549 175.91 39.0582 174.898 39.0406 173.728C39.0236 172.59 39.0276 171.448 39.0406 170.312C39.0517 169.25 39.4718 168.469 40.5272 168.08C41.3356 167.781 42.1167 167.408 42.9108 167.069C43.0072 167.03 43.1069 166.996 43.2411 166.945Z" fill="#004974"/>
<path d="M39.0065 200.609C40.086 200.97 41.097 201.307 42.1081 201.644C42.4253 201.75 42.7465 201.844 43.0566 201.969C43.1406 202.003 43.2449 202.125 43.2455 202.207C43.2559 204.072 43.2533 205.938 43.2533 207.85C43.0664 207.789 42.9068 207.737 42.7485 207.685C41.6123 207.305 40.4795 206.917 39.3381 206.554C39.0704 206.469 38.9987 206.34 39 206.07C39.0124 204.377 39.0065 202.683 39.0065 200.989L39.0065 200.609Z" fill="#004974"/>
</svg>
