<svg width="65" height="200" viewBox="0 0 82 242" fill="none" xmlns="http://www.w3.org/2000/svg">
<path d="M79.53 205.88H74.54C73.4355 205.88 72.54 206.775 72.54 207.88V227.1C72.54 228.204 73.4355 229.1 74.54 229.1H79.53C80.6346 229.1 81.53 228.204 81.53 227.1V207.88C81.53 206.775 80.6346 205.88 79.53 205.88Z" fill="url(#paint0_linear_222_11274)"/>
<path d="M79.53 177.93H74.54C73.4355 177.93 72.54 178.825 72.54 179.93V199.15C72.54 200.255 73.4355 201.15 74.54 201.15H79.53C80.6346 201.15 81.53 200.255 81.53 199.15V179.93C81.53 178.825 80.6346 177.93 79.53 177.93Z" fill="url(#paint1_linear_222_11274)"/>
<path d="M79.53 117.11H74.54C73.4355 117.11 72.54 118.006 72.54 119.11V138.33C72.54 139.435 73.4355 140.33 74.54 140.33H79.53C80.6346 140.33 81.53 139.435 81.53 138.33V119.11C81.53 118.006 80.6346 117.11 79.53 117.11Z" fill="url(#paint2_linear_222_11274)"/>
<path d="M79.53 89.1599H74.54C73.4355 89.1599 72.54 90.0553 72.54 91.1599V110.38C72.54 111.484 73.4355 112.38 74.54 112.38H79.53C80.6346 112.38 81.53 111.484 81.53 110.38V91.1599C81.53 90.0553 80.6346 89.1599 79.53 89.1599Z" fill="url(#paint3_linear_222_11274)"/>
<path d="M6.99 205.88H2C0.89543 205.88 0 206.775 0 207.88V227.1C0 228.204 0.89543 229.1 2 229.1H6.99C8.09457 229.1 8.99 228.204 8.99 227.1V207.88C8.99 206.775 8.09457 205.88 6.99 205.88Z" fill="url(#paint4_linear_222_11274)"/>
<path d="M6.99 177.93H2C0.89543 177.93 0 178.825 0 179.93V199.15C0 200.255 0.89543 201.15 2 201.15H6.99C8.09457 201.15 8.99 200.255 8.99 199.15V179.93C8.99 178.825 8.09457 177.93 6.99 177.93Z" fill="url(#paint5_linear_222_11274)"/>
<path d="M6.99 117.11H2C0.89543 117.11 0 118.006 0 119.11V138.33C0 139.435 0.89543 140.33 2 140.33H6.99C8.09457 140.33 8.99 139.435 8.99 138.33V119.11C8.99 118.006 8.09457 117.11 6.99 117.11Z" fill="url(#paint6_linear_222_11274)"/>
<path d="M6.99 89.1599H2C0.89543 89.1599 0 90.0553 0 91.1599V110.38C0 111.484 0.89543 112.38 2 112.38H6.99C8.09457 112.38 8.99 111.484 8.99 110.38V91.1599C8.99 90.0553 8.09457 89.1599 6.99 89.1599Z" fill="url(#paint7_linear_222_11274)"/>
<path d="M74.7701 70.53H7.3401C4.72227 70.53 2.6001 72.6522 2.6001 75.27V237C2.6001 239.618 4.72227 241.74 7.3401 241.74H74.7701C77.3879 241.74 79.5101 239.618 79.5101 237V75.27C79.5101 72.6522 77.3879 70.53 74.7701 70.53Z" fill="url(#paint8_linear_222_11274)"/>
<path d="M74.7701 75.27H7.34009V237H74.7701V75.27Z" fill="url(#paint9_linear_222_11274)"/>
<path style="mix-blend-mode:multiply" d="M13.2201 75.27H8.83008V237H13.2201V75.27Z" fill="url(#paint10_linear_222_11274)"/>
<path style="mix-blend-mode:multiply" d="M20.13 75.27H15.74V237H20.13V75.27Z" fill="url(#paint11_linear_222_11274)"/>
<path style="mix-blend-mode:multiply" d="M27.0299 75.27H22.6399V237H27.0299V75.27Z" fill="url(#paint12_linear_222_11274)"/>
<path style="mix-blend-mode:multiply" d="M33.93 75.27H29.54V237H33.93V75.27Z" fill="url(#paint13_linear_222_11274)"/>
<path style="mix-blend-mode:multiply" d="M40.8299 75.27H36.4399V237H40.8299V75.27Z" fill="url(#paint14_linear_222_11274)"/>
<path style="mix-blend-mode:multiply" d="M47.7401 75.27H43.3501V237H47.7401V75.27Z" fill="url(#paint15_linear_222_11274)"/>
<path style="mix-blend-mode:multiply" d="M54.64 75.27H50.25V237H54.64V75.27Z" fill="url(#paint16_linear_222_11274)"/>
<path style="mix-blend-mode:multiply" d="M61.5399 75.27H57.1499V237H61.5399V75.27Z" fill="url(#paint17_linear_222_11274)"/>
<path style="mix-blend-mode:multiply" d="M68.44 75.27H64.05V237H68.44V75.27Z" fill="url(#paint18_linear_222_11274)"/>
<path style="mix-blend-mode:multiply" d="M75.34 75.27H70.95V237H75.34V75.27Z" fill="url(#paint19_linear_222_11274)"/>
<path d="M9.42993 29.19V14.87C9.42993 4.67 17.6999 0 27.8999 0H54.2099C64.4099 0 72.6799 4.67 72.6799 14.87V29.19L68.5799 42.02L13.8199 42.54L9.42993 29.19Z" fill="url(#paint20_linear_222_11274)"/>
<path d="M13.84 13.15C13.9724 13.1261 14.0917 13.0553 14.1762 12.9506C14.2606 12.846 14.3046 12.7144 14.3 12.58C14.3195 11.465 14.7504 10.3965 15.51 9.58001C15.6 9.47776 15.6497 9.34622 15.6497 9.21001C15.6497 9.0738 15.6 8.94225 15.51 8.84001C15.4564 8.78874 15.3925 8.74953 15.3225 8.72502C15.2525 8.7005 15.178 8.69125 15.1042 8.69788C15.0303 8.70451 14.9587 8.72687 14.8941 8.76346C14.8296 8.80004 14.7737 8.85001 14.73 8.91001C13.791 9.91383 13.2659 11.2354 13.26 12.61C13.2496 12.6843 13.2558 12.76 13.278 12.8317C13.3003 12.9034 13.338 12.9693 13.3886 13.0246C13.4393 13.08 13.5015 13.1236 13.5709 13.1522C13.6403 13.1808 13.7151 13.1937 13.79 13.19L13.84 13.15Z" fill="#F7941E"/>
<path d="M68.2699 13.15C68.1366 13.1263 68.0162 13.0559 67.9301 12.9515C67.8439 12.8471 67.7978 12.7154 67.7999 12.58C67.7795 11.4671 67.3527 10.4001 66.5999 9.58004C66.505 9.48318 66.4469 9.3561 66.436 9.2209C66.425 9.0857 66.4618 8.95094 66.5399 8.84004C66.5944 8.78857 66.6592 8.74924 66.73 8.72465C66.8008 8.70006 66.876 8.69077 66.9506 8.69738C67.0253 8.704 67.0977 8.72637 67.1631 8.76303C67.2285 8.79969 67.2853 8.84979 67.3299 8.91004C68.2648 9.91653 68.7891 11.2364 68.7999 12.61C68.8085 12.684 68.8011 12.759 68.7782 12.8299C68.7554 12.9008 68.7175 12.966 68.6673 13.021C68.617 13.076 68.5555 13.1196 68.487 13.1487C68.4184 13.1779 68.3444 13.192 68.2699 13.19V13.15Z" fill="#F7941E"/>
<path d="M54.2099 0H27.8999C17.6999 0 9.42993 4.67 9.42993 14.87V16.28C9.42993 12.7 10.4299 10.17 12.2299 8.36C15.4899 4.19 21.2299 2.21 27.8999 2.21H54.2099C60.8299 2.21 66.6299 4.21 69.8899 8.36C71.6499 10.17 72.6799 12.7 72.6799 16.28V14.87C72.6799 4.67 64.4099 0 54.2099 0Z" fill="url(#paint21_linear_222_11274)"/>
<path d="M11.26 28.97L13.65 14.87C13.65 5.25997 23.65 4.21997 27.9 4.21997H54.21C58.49 4.21997 68.46 5.21997 68.46 14.87L70.85 28.97L65.49 37.83L16.86 38.29L11.26 28.97Z" fill="url(#paint22_radial_222_11274)"/>
<path d="M66.5201 41.74C49.7385 38.0999 32.3716 38.0999 15.5901 41.74L15.0701 41.85L14.9901 41.32C14.7055 39.1788 14.5752 37.0199 14.6001 34.86C14.6074 33.0869 14.5239 31.3146 14.3501 29.55V29.14L14.7401 29.02C23.5518 26.182 32.7527 24.7379 42.0101 24.74C50.55 24.8245 59.056 25.8303 67.3801 27.74L67.7701 27.83V28.23C67.8797 32.5987 67.6792 36.9697 67.1701 41.31L67.1001 41.85L66.5201 41.74Z" fill="black"/>
<path d="M66.6301 41.25C49.7754 37.6001 32.3348 37.6001 15.4801 41.25C14.8501 36.98 15.3101 33.64 14.8501 29.49C31.7401 24.14 47.7301 23.98 67.2301 28.23C67.3407 32.5787 67.1402 36.9298 66.6301 41.25Z" fill="url(#paint23_linear_222_11274)"/>
<path d="M12.3599 68.8601H69.6599C69.6599 68.8601 72.6599 66.7701 72.6599 65.7501C72.6599 59.1101 72.6599 53.43 72.6599 49.51C72.6599 45.92 68.5599 42.02 68.5599 42.02C68.5599 42.02 64.8999 38.56 41.0399 38.67C24.9399 38.6 17.7999 40.9901 13.7999 42.5401C11.8999 43.2701 9.41992 46.7001 9.41992 49.5401C9.41992 54.4601 9.41992 61.66 9.41992 65.7801C9.45992 68.0601 12.3599 68.8601 12.3599 68.8601Z" fill="url(#paint24_linear_222_11274)"/>
<path d="M15.28 68.8599C13.8653 64.4582 13.1895 59.8525 13.28 55.2299C13.4646 50.8163 14.1353 46.4365 15.28 42.1699C17.11 41.5499 29.09 39.3999 41.07 39.3999C53.05 39.3999 65.07 41.3399 66.87 41.9699C68.0369 46.2983 68.6914 50.7488 68.82 55.2299C68.82 64.1399 66.82 68.8599 66.82 68.8599H15.28Z" fill="url(#paint25_linear_222_11274)"/>
<path d="M70.1899 32.71C70.1899 32.71 72.9599 34.41 72.0999 36.9C71.2399 39.39 66.2599 43.23 67.3999 40.04C68.5399 36.85 69.5599 33.55 70.1899 32.71Z" fill="url(#paint26_linear_222_11274)"/>
<path d="M79.6199 38.7501C78.9199 37.8401 72.4799 35.9101 72.4799 35.9101C71.2099 35.5101 70.7799 36.5901 70.6299 37.5201L79.8599 40.2201C79.9379 39.9734 79.9569 39.7118 79.9152 39.4565C79.8735 39.2011 79.7723 38.9591 79.6199 38.7501Z" fill="url(#paint27_radial_222_11274)"/>
<path d="M70.6301 37.49C70.5693 37.8601 70.5425 38.235 70.5501 38.61L79.6201 40.79C79.7208 40.5989 79.8012 40.3978 79.8601 40.19L70.6301 37.49Z" fill="url(#paint28_linear_222_11274)"/>
<path d="M11.8899 32.71C11.8899 32.71 9.11991 34.41 9.98991 36.9C10.8599 39.39 15.8199 43.23 14.6799 40.04C13.5399 36.85 12.5199 33.55 11.8899 32.71Z" fill="url(#paint29_linear_222_11274)"/>
<path d="M2.45995 38.7501C3.15995 37.8401 9.59995 35.9101 9.59995 35.9101C10.8699 35.5101 11.3099 36.5901 11.4499 37.5201L2.22994 40.2201C2.14804 39.9745 2.12619 39.7129 2.1662 39.4571C2.20622 39.2014 2.30695 38.9589 2.45995 38.7501Z" fill="url(#paint30_radial_222_11274)"/>
<path d="M11.45 37.49C11.5108 37.8601 11.5376 38.235 11.53 38.61L2.45999 40.79C2.36023 40.5996 2.28302 40.3983 2.22998 40.19L11.45 37.49Z" fill="url(#paint31_linear_222_11274)"/>
<path style="mix-blend-mode:screen" d="M25.4799 39.49C36.1046 38.1138 46.8648 38.1508 57.4799 39.6L59.6099 26.97C47.5876 25.3818 35.4108 25.3482 23.3799 26.87L25.4799 39.49Z" fill="url(#paint32_linear_222_11274)"/>
<path d="M52.6699 2.21H29.4399L30.8599 0H51.2399L52.6699 2.21Z" fill="url(#paint33_linear_222_11274)"/>
<path style="mix-blend-mode:multiply" d="M67.17 8.64998C66.6862 8.6633 66.2163 8.48752 65.86 8.15998C64.04 6.38998 61.86 5.80998 59.4 5.15998C58.78 4.99998 58.14 4.81998 57.49 4.62998C55.98 4.17998 55.25 3.48998 55.32 2.56998C55.41 1.43998 56.86 0.619981 57.58 0.569981C58.0343 0.510462 58.4919 0.480399 58.95 0.47998C63.47 0.47998 67.28 3.41998 68.71 4.68998C69.0988 4.95967 69.3897 5.348 69.5394 5.79687C69.689 6.24573 69.6892 6.73098 69.54 7.17998C69.3331 7.63526 68.9997 8.02151 68.5795 8.29275C68.1594 8.564 67.6701 8.70882 67.17 8.70998V8.64998Z" fill="url(#paint34_linear_222_11274)"/>
<path d="M57.6799 1.20999C56.9199 1.30999 54.3699 2.93999 57.6799 3.92999C60.9899 4.91999 63.9099 5.29999 66.3399 7.64999C67.3399 8.64999 70.2899 6.96999 68.2399 5.14999C66.1899 3.32999 62.1399 0.609987 57.6799 1.20999Z" fill="url(#paint35_linear_222_11274)"/>
<path style="mix-blend-mode:screen" d="M64.05 4.48993C64.05 4.65993 63.66 4.79993 63.17 4.79993C62.68 4.79993 62.28 4.65993 62.28 4.48993C62.28 4.31993 62.68 4.17993 63.17 4.17993C63.66 4.17993 64.05 4.35993 64.05 4.48993Z" fill="url(#paint36_linear_222_11274)"/>
<path style="mix-blend-mode:screen" d="M65.3 4.84003C65.3 5.01003 64.91 5.15003 64.42 5.15003C63.93 5.15003 63.53 5.01003 63.53 4.84003C63.53 4.67003 63.93 4.53003 64.42 4.53003C64.91 4.53003 65.3 4.67003 65.3 4.84003Z" fill="url(#paint37_linear_222_11274)"/>
<path style="mix-blend-mode:screen" d="M66.1899 5.48993C66.1899 5.65993 65.7899 5.79993 65.2999 5.79993C64.8099 5.79993 64.4199 5.65993 64.4199 5.48993C64.4199 5.31993 64.8099 5.17993 65.2999 5.17993C65.7899 5.17993 66.1899 5.28993 66.1899 5.48993Z" fill="url(#paint38_linear_222_11274)"/>
<path style="mix-blend-mode:screen" d="M61.7899 4.52991C62.2814 4.52991 62.6799 4.39112 62.6799 4.21991C62.6799 4.0487 62.2814 3.90991 61.7899 3.90991C61.2984 3.90991 60.8999 4.0487 60.8999 4.21991C60.8999 4.39112 61.2984 4.52991 61.7899 4.52991Z" fill="url(#paint39_linear_222_11274)"/>
<path style="mix-blend-mode:screen" d="M61.56 3.91011C61.56 4.08011 61.16 4.22011 60.67 4.22011C60.18 4.22011 59.78 4.08011 59.78 3.91011C59.78 3.74011 60.18 3.61011 60.67 3.61011C61.16 3.61011 61.56 3.74011 61.56 3.91011Z" fill="url(#paint40_linear_222_11274)"/>
<path style="mix-blend-mode:multiply" d="M15.49 8.64998C15.9738 8.6633 16.4437 8.48752 16.8 8.15998C18.62 6.38998 20.8 5.80998 23.26 5.15998C23.88 4.99998 24.52 4.81998 25.17 4.62998C26.68 4.17998 27.41 3.48998 27.34 2.56998C27.25 1.43998 25.8 0.619981 25.08 0.569981C24.6258 0.510462 24.1682 0.480399 23.71 0.47998C19.19 0.47998 15.38 3.41998 13.95 4.68998C13.5613 4.95967 13.2703 5.348 13.1207 5.79687C12.9711 6.24573 12.9708 6.73098 13.12 7.17998C13.327 7.63526 13.6604 8.02151 14.0805 8.29275C14.5007 8.564 14.9899 8.70882 15.49 8.70998V8.64998Z" fill="url(#paint41_linear_222_11274)"/>
<path d="M24.9799 1.20999C25.7399 1.30999 28.2999 2.93999 24.9799 3.92999C21.6599 4.91999 18.7499 5.29999 16.3299 7.64999C15.2799 8.64999 12.3299 6.96999 14.4199 5.14999C16.5099 3.32999 20.5299 0.609987 24.9799 1.20999Z" fill="url(#paint42_linear_222_11274)"/>
<path style="mix-blend-mode:screen" d="M18.6101 4.48993C18.6101 4.65993 19.0001 4.79993 19.4901 4.79993C19.9801 4.79993 20.3801 4.65993 20.3801 4.48993C20.3801 4.31993 19.9801 4.17993 19.4901 4.17993C19.0001 4.17993 18.6101 4.35993 18.6101 4.48993Z" fill="url(#paint43_linear_222_11274)"/>
<path style="mix-blend-mode:screen" d="M17.3601 4.84003C17.3601 5.01003 17.7501 5.15003 18.2401 5.15003C18.7301 5.15003 19.1301 5.01003 19.1301 4.84003C19.1301 4.67003 18.7301 4.53003 18.2401 4.53003C17.7501 4.53003 17.3601 4.67003 17.3601 4.84003Z" fill="url(#paint44_linear_222_11274)"/>
<path style="mix-blend-mode:screen" d="M16.47 5.48993C16.47 5.65993 16.87 5.79993 17.36 5.79993C17.85 5.79993 18.24 5.65993 18.24 5.48993C18.24 5.31993 17.85 5.17993 17.36 5.17993C16.87 5.17993 16.47 5.28993 16.47 5.48993Z" fill="url(#paint45_linear_222_11274)"/>
<path style="mix-blend-mode:screen" d="M19.98 4.21991C19.98 4.38991 20.37 4.52991 20.86 4.52991C21.35 4.52991 21.75 4.38991 21.75 4.21991C21.75 4.04991 21.35 3.90991 20.86 3.90991C20.37 3.90991 19.98 4.04991 19.98 4.21991Z" fill="url(#paint46_linear_222_11274)"/>
<path style="mix-blend-mode:screen" d="M21.1101 3.91011C21.1101 4.08011 21.5001 4.22011 21.9901 4.22011C22.4801 4.22011 22.8801 4.08011 22.8801 3.91011C22.8801 3.74011 22.4801 3.61011 21.9901 3.61011C21.5001 3.61011 21.1101 3.74011 21.1101 3.91011Z" fill="url(#paint47_linear_222_11274)"/>
<path d="M71.45 45.6899L69.75 48.3399C70.6295 54.11 70.6295 59.9799 69.75 65.7499L72.66 62.9399C72.66 56.2999 72.66 53.4299 72.66 49.5199C72.5947 48.1601 72.1778 46.8405 71.45 45.6899Z" fill="url(#paint48_linear_222_11274)"/>
<path style="mix-blend-mode:screen" d="M72.66 62.9399C72.66 57.8499 72.66 54.9399 72.66 52.1499C71.89 52.6899 71.09 53.2699 70.31 53.8699C70.5422 57.8422 70.3511 61.828 69.74 65.7599L72.66 62.9399Z" fill="url(#paint49_linear_222_11274)"/>
<path d="M10.66 45.6899L12.36 48.3399C11.4805 54.11 11.4805 59.9799 12.36 65.7499L9.44995 62.9399C9.44995 56.2999 9.44995 53.4299 9.44995 49.5199C9.52102 48.1612 9.93748 46.8429 10.66 45.6899Z" fill="url(#paint50_linear_222_11274)"/>
<path style="mix-blend-mode:screen" d="M9.45996 62.9399C9.45996 57.8499 9.45996 54.9399 9.45996 52.1499C10.24 52.6899 11.04 53.2699 11.82 53.8699C11.5785 57.8378 11.7596 61.8202 12.36 65.7499L9.45996 62.9399Z" fill="url(#paint51_linear_222_11274)"/>
<path style="mix-blend-mode:multiply" d="M25.2299 65.28C25.2299 65.463 25.1572 65.6385 25.0278 65.7679C24.8984 65.8973 24.7229 65.97 24.5399 65.97C24.4498 65.97 24.3605 65.9521 24.2774 65.9173C24.1942 65.8825 24.1188 65.8315 24.0555 65.7673C23.9923 65.7031 23.9424 65.6269 23.9088 65.5433C23.8752 65.4596 23.8586 65.3701 23.8599 65.28V44.21C23.8586 44.1199 23.8752 44.0304 23.9088 43.9467C23.9424 43.863 23.9923 43.7869 24.0555 43.7227C24.1188 43.6585 24.1942 43.6075 24.2774 43.5727C24.3605 43.5379 24.4498 43.52 24.5399 43.52C24.7229 43.52 24.8984 43.5927 25.0278 43.7221C25.1572 43.8515 25.2299 44.027 25.2299 44.21V65.28ZM28.5399 44.21C28.5399 44.027 28.4672 43.8515 28.3378 43.7221C28.2084 43.5927 28.0329 43.52 27.8499 43.52C27.6669 43.52 27.4914 43.5927 27.362 43.7221C27.2326 43.8515 27.1599 44.027 27.1599 44.21V65.28C27.1599 65.463 27.2326 65.6385 27.362 65.7679C27.4914 65.8973 27.6669 65.97 27.8499 65.97C28.0329 65.97 28.2084 65.8973 28.3378 65.7679C28.4672 65.6385 28.5399 65.463 28.5399 65.28V44.21ZM31.8399 44.21C31.8399 44.027 31.7672 43.8515 31.6378 43.7221C31.5084 43.5927 31.3329 43.52 31.1499 43.52C30.9669 43.52 30.7914 43.5927 30.662 43.7221C30.5326 43.8515 30.4599 44.027 30.4599 44.21V65.28C30.4599 65.463 30.5326 65.6385 30.662 65.7679C30.7914 65.8973 30.9669 65.97 31.1499 65.97C31.3329 65.97 31.5084 65.8973 31.6378 65.7679C31.7672 65.6385 31.8399 65.463 31.8399 65.28V44.21ZM35.1399 44.21C35.1399 44.027 35.0672 43.8515 34.9378 43.7221C34.8084 43.5927 34.6329 43.52 34.4499 43.52C34.2669 43.52 34.0914 43.5927 33.962 43.7221C33.8326 43.8515 33.7599 44.027 33.7599 44.21V65.28C33.7599 65.463 33.8326 65.6385 33.962 65.7679C34.0914 65.8973 34.2669 65.97 34.4499 65.97C34.6329 65.97 34.8084 65.8973 34.9378 65.7679C35.0672 65.6385 35.1399 65.463 35.1399 65.28V44.21ZM38.4399 44.21C38.4399 44.027 38.3672 43.8515 38.2378 43.7221C38.1084 43.5927 37.9329 43.52 37.7499 43.52C37.6598 43.52 37.5705 43.5379 37.4874 43.5727C37.4042 43.6075 37.3288 43.6585 37.2655 43.7227C37.2023 43.7869 37.1524 43.863 37.1188 43.9467C37.0852 44.0304 37.0686 44.1199 37.0699 44.21V65.28C37.0686 65.3701 37.0852 65.4596 37.1188 65.5433C37.1524 65.6269 37.2023 65.7031 37.2655 65.7673C37.3288 65.8315 37.4042 65.8825 37.4874 65.9173C37.5705 65.9521 37.6598 65.97 37.7499 65.97C37.9329 65.97 38.1084 65.8973 38.2378 65.7679C38.3672 65.6385 38.4399 65.463 38.4399 65.28V44.21ZM41.7499 44.21C41.7499 44.027 41.6772 43.8515 41.5478 43.7221C41.4184 43.5927 41.2429 43.52 41.0599 43.52C40.8769 43.52 40.7014 43.5927 40.572 43.7221C40.4426 43.8515 40.3699 44.027 40.3699 44.21V65.28C40.3699 65.463 40.4426 65.6385 40.572 65.7679C40.7014 65.8973 40.8769 65.97 41.0599 65.97C41.2429 65.97 41.4184 65.8973 41.5478 65.7679C41.6772 65.6385 41.7499 65.463 41.7499 65.28V44.21ZM45.0499 44.21C45.054 44.1169 45.0391 44.0239 45.0063 43.9367C44.9734 43.8495 44.9232 43.7699 44.8588 43.7026C44.7943 43.6353 44.7168 43.5818 44.6311 43.5452C44.5454 43.5087 44.4531 43.4899 44.3599 43.49C44.1769 43.49 44.0014 43.5627 43.872 43.6921C43.7426 43.8215 43.6699 43.997 43.6699 44.18V65.28C43.6699 65.463 43.7426 65.6385 43.872 65.7679C44.0014 65.8973 44.1769 65.97 44.3599 65.97C44.5429 65.97 44.7184 65.8973 44.8478 65.7679C44.9772 65.6385 45.0499 65.463 45.0499 65.28V44.21ZM48.3499 44.21C48.3499 44.027 48.2772 43.8515 48.1478 43.7221C48.0184 43.5927 47.8429 43.52 47.6599 43.52C47.4769 43.52 47.3014 43.5927 47.172 43.7221C47.0426 43.8515 46.9699 44.027 46.9699 44.21V65.28C46.9699 65.463 47.0426 65.6385 47.172 65.7679C47.3014 65.8973 47.4769 65.97 47.6599 65.97C47.8429 65.97 48.0184 65.8973 48.1478 65.7679C48.2772 65.6385 48.3499 65.463 48.3499 65.28V44.21ZM51.6499 44.21C51.6513 44.1199 51.6347 44.0304 51.6011 43.9467C51.5675 43.863 51.5176 43.7869 51.4543 43.7227C51.3911 43.6585 51.3157 43.6075 51.2325 43.5727C51.1493 43.5379 51.0601 43.52 50.9699 43.52C50.7869 43.52 50.6114 43.5927 50.482 43.7221C50.3526 43.8515 50.2799 44.027 50.2799 44.21V65.28C50.2799 65.463 50.3526 65.6385 50.482 65.7679C50.6114 65.8973 50.7869 65.97 50.9699 65.97C51.0601 65.97 51.1493 65.9521 51.2325 65.9173C51.3157 65.8825 51.3911 65.8315 51.4543 65.7673C51.5176 65.7031 51.5675 65.6269 51.6011 65.5433C51.6347 65.4596 51.6513 65.3701 51.6499 65.28V44.21ZM54.9599 44.21C54.9599 44.027 54.8872 43.8515 54.7578 43.7221C54.6284 43.5927 54.4529 43.52 54.2699 43.52C54.0869 43.52 53.9114 43.5927 53.782 43.7221C53.6526 43.8515 53.5799 44.027 53.5799 44.21V65.28C53.5799 65.463 53.6526 65.6385 53.782 65.7679C53.9114 65.8973 54.0869 65.97 54.2699 65.97C54.4529 65.97 54.6284 65.8973 54.7578 65.7679C54.8872 65.6385 54.9599 65.463 54.9599 65.28V44.21ZM58.2599 44.21C58.2599 44.027 58.1872 43.8515 58.0578 43.7221C57.9284 43.5927 57.7529 43.52 57.5699 43.52C57.3869 43.52 57.2114 43.5927 57.082 43.7221C56.9526 43.8515 56.8799 44.027 56.8799 44.21V65.28C56.8799 65.463 56.9526 65.6385 57.082 65.7679C57.2114 65.8973 57.3869 65.97 57.5699 65.97C57.7529 65.97 57.9284 65.8973 58.0578 65.7679C58.1872 65.6385 58.2599 65.463 58.2599 65.28V44.21Z" fill="url(#paint52_linear_222_11274)"/>
<g style="mix-blend-mode:screen">
<path d="M67.73 10.8301C68.0784 11.6599 68.3821 12.5078 68.64 13.3701C68.88 14.1401 69.13 15.0401 69.37 16.0101C69.61 16.9801 69.82 18.0101 70.03 19.0701C70.24 20.1301 70.39 21.1601 70.51 22.1601C70.63 23.1601 70.74 24.0801 70.79 24.8801C70.8564 25.7751 70.8765 26.673 70.85 27.5701C70.5025 26.7433 70.1987 25.8988 69.94 25.0401C69.7 24.2701 69.45 23.3701 69.21 22.4001C68.97 21.4301 68.76 20.4001 68.55 19.3401C68.34 18.2801 68.19 17.2401 68.07 16.2501C67.95 15.2601 67.85 14.3301 67.8 13.5301C67.7278 12.632 67.7044 11.7307 67.73 10.8301Z" fill="#D6D6D6"/>
</g>
<g style="mix-blend-mode:screen">
<path d="M14.3 10.8301C14.3256 11.7307 14.3022 12.632 14.23 13.5301C14.18 14.3301 14.09 15.2601 13.96 16.2501C13.83 17.2401 13.65 18.2501 13.48 19.3401C13.31 20.4301 13.06 21.4301 12.82 22.4001C12.58 23.3701 12.33 24.2701 12.09 25.0401C11.8312 25.8988 11.5275 26.7433 11.18 27.5701C11.1535 26.673 11.1736 25.7751 11.24 24.8801C11.29 24.0801 11.39 23.1501 11.52 22.1601C11.65 21.1701 11.82 20.1601 12 19.0701C12.18 17.9801 12.42 16.9801 12.66 16.0101C12.9 15.0401 13.15 14.1401 13.39 13.3701C13.6478 12.5078 13.9516 11.6599 14.3 10.8301Z" fill="#D6D6D6"/>
</g>
<path d="M69.7401 68.8601H12.3601V70.5301H69.7401V68.8601Z" fill="url(#paint53_linear_222_11274)"/>
<path d="M62.9201 30.4299C54.8883 27.1256 46.2513 25.5481 37.5701 25.7999C37.5701 25.4499 37.5701 25.0899 37.5701 24.7399C46.4047 24.4967 55.1917 26.1151 63.3601 29.4899C63.1901 29.7799 63.0601 30.1099 62.9201 30.4299Z" fill="black"/>
<path d="M46.8999 25.86C46.8999 26.49 44.0999 27.01 40.6599 27.01C37.2199 27.01 34.4199 26.49 34.4199 25.86C34.4199 25.23 37.2199 24.72 40.6599 24.72C44.0999 24.72 46.8999 25.23 46.8999 25.86Z" fill="black"/>
<path d="M72.6799 61.12C72.7574 61.1213 72.8344 61.1074 72.9065 61.0789C72.9786 61.0505 73.0443 61.0081 73.1001 60.9543C73.1558 60.9004 73.2004 60.8361 73.2312 60.765C73.2621 60.6939 73.2786 60.6175 73.2799 60.54V55.73C73.2786 55.6525 73.2621 55.576 73.2312 55.5049C73.2004 55.4339 73.1558 55.3696 73.1001 55.3157C73.0443 55.2618 72.9786 55.2195 72.9065 55.191C72.8344 55.1626 72.7574 55.1487 72.6799 55.15V61.12Z" fill="#E3E3E3"/>
<path d="M9.44009 61.12C9.36261 61.1213 9.28562 61.1074 9.21353 61.0789C9.14144 61.0505 9.07566 61.0081 9.01994 60.9543C8.96423 60.9004 8.91967 60.8361 8.88881 60.765C8.85795 60.6939 8.84139 60.6175 8.84009 60.54V55.73C8.84139 55.6525 8.85795 55.576 8.88881 55.5049C8.91967 55.4339 8.96423 55.3696 9.01994 55.3157C9.07566 55.2618 9.14144 55.2195 9.21353 55.191C9.28562 55.1626 9.36261 55.1487 9.44009 55.15V61.12Z" fill="#C9C9C9"/>
<g opacity="0.9">
<path d="M46.2986 96.7306C46.1363 96.699 45.9745 96.6657 45.8123 96.6368C45.6945 96.6155 45.5754 96.6004 45.4567 96.5826C45.4736 96.7013 45.4865 96.8204 45.5087 96.9382C45.5412 97.1106 45.5798 97.2817 45.6159 97.4533C45.5865 97.464 45.5567 97.4746 45.527 97.4849C45.4563 97.3791 45.3816 97.276 45.3154 97.1675C44.9051 96.4937 44.6456 96.4701 44.2375 97.1528C43.3739 98.5969 42.9485 100.131 43.5339 101.796C43.9419 102.958 43.9975 104.14 43.8553 105.344C43.7932 105.867 43.6185 106.371 43.3432 106.82C42.9752 107.429 42.0156 107.513 41.5884 106.875C41.5153 106.759 41.4758 106.625 41.4742 106.488C41.4671 104.503 41.4702 102.518 41.4689 100.532C41.4689 99.9806 41.3995 99.4392 41.2022 98.9205C40.7364 97.6978 39.3967 97.0679 38.2491 97.5306C37.7935 97.7142 37.3046 98.1765 37.0934 98.6525C37.1823 98.5721 37.2334 98.5272 37.2832 98.4809C37.841 97.9676 38.49 97.7538 39.2389 97.8991C39.9559 98.0378 40.4306 98.4823 40.6555 99.161C40.789 99.5449 40.864 99.9468 40.8777 100.353C40.9022 102.019 40.8884 103.687 40.8884 105.353C40.8884 105.381 40.8835 105.409 40.8791 105.46C40.4679 105.161 40.307 104.751 40.2403 104.285C40.1612 103.729 40.2168 103.196 40.4532 102.68C40.5442 102.478 40.6132 102.266 40.659 102.049C40.807 101.363 40.279 100.394 39.643 100.19C39.5266 100.156 39.4018 100.169 39.2949 100.226C38.9585 100.438 38.806 100.923 38.9189 101.306C38.9682 101.471 39.0522 101.546 39.2269 101.467C39.3071 101.431 39.3969 101.421 39.4829 101.44L39.2003 101.803L39.5398 102.035L39.5198 102.1C39.4466 102.117 39.3723 102.128 39.2976 102.135C39.094 102.142 39.0309 102.253 39.0456 102.442C39.0583 102.58 39.0423 102.718 38.9985 102.849C38.9662 102.754 38.9282 102.661 38.8847 102.57C38.8598 102.526 38.7936 102.458 38.7633 102.466C38.7346 102.477 38.7085 102.493 38.6865 102.515C38.6645 102.536 38.6471 102.562 38.6353 102.591C38.6069 102.664 38.6122 102.75 38.5962 102.829C38.5802 102.908 38.5575 102.978 38.5255 103.096C38.274 102.82 38.4184 102.474 38.226 102.165L37.9788 102.679C37.8815 102.442 37.9064 102.235 38.0419 102.057C38.2224 101.818 38.2357 101.586 38.1193 101.31C38.0322 101.117 37.9927 100.905 38.0042 100.693C38.0157 100.482 38.0779 100.276 38.1855 100.093C38.218 100.034 38.2482 99.9748 38.2744 99.9148C38.3771 99.6828 38.3393 99.5797 38.1144 99.4703C37.6375 99.2361 37.3277 99.3401 37.0712 99.8135C36.8436 100.234 36.7716 100.693 36.7321 101.159C36.5485 103.303 36.5943 105.451 36.5841 107.598C36.5841 107.928 36.5841 108.258 36.5841 108.65C36.3934 108.42 36.2387 108.244 36.0987 108.057C36.0619 107.994 36.045 107.921 36.0502 107.848C36.0574 105.841 36.0502 103.833 36.0845 101.827C36.1036 100.766 36.2489 99.7161 36.657 98.7214C37.0281 97.8164 37.6473 97.1524 38.5495 96.7706C38.7313 96.6937 38.7833 96.6244 38.6789 96.4306C38.4798 96.0612 38.4886 95.675 38.6873 95.3034C38.7573 95.1732 38.8368 95.0484 38.9251 94.93C39.2776 94.458 39.551 93.9686 39.3469 93.3343L39.6038 93.6561L39.7474 93.0001L39.7919 93.0001L39.9083 93.6059L40.4466 93.3237L40.5026 93.3734L40.291 93.9588C40.4661 93.9944 40.6244 94.0264 40.7826 94.0579L40.7897 94.1171C40.7008 94.1584 40.6119 94.2059 40.523 94.2393C40.3848 94.2891 40.351 94.3637 40.4417 94.4869C40.5235 94.5975 40.6017 94.7091 40.6817 94.8229L40.6399 94.8771C40.5137 94.802 40.3777 94.7393 40.2639 94.6478C40.1137 94.5269 40.0123 94.5589 39.8941 94.6949C39.615 95.0171 39.5625 95.8674 39.839 96.1945C39.9128 96.2834 40.0839 96.3354 40.2034 96.3252C40.9796 96.2573 41.7581 96.4261 42.4365 96.8093C42.6165 96.9084 42.7259 96.863 42.8205 96.7061C42.8724 96.6253 42.9201 96.5417 42.9632 96.4559C43.0966 96.171 43.3188 95.9972 43.605 95.8816C44.1384 95.6665 44.2126 95.5109 44.1597 94.9296C44.1389 94.6975 44.1771 94.4597 44.1882 94.2242L44.2651 94.2215L44.5038 94.9851L44.9122 94.2188L44.9967 94.2388L44.9967 95.1545C45.0678 95.1389 45.1377 95.1186 45.206 95.0936C45.3256 95.0362 45.4367 94.9602 45.5616 94.9158C45.6705 94.8771 45.7914 94.8713 45.9074 94.8544C45.8754 94.9616 45.8581 95.0767 45.8074 95.1749C45.7434 95.2985 45.6496 95.406 45.5723 95.5234C45.3945 95.7963 45.4074 95.8527 45.6483 96.0568C45.8705 96.2465 46.0834 96.4483 46.3003 96.6448L46.2986 96.7306Z" fill="#004974"/>
<path d="M39.5753 172.057L43.2201 173.274L43.2201 173.03C43.2201 171.541 43.2201 170.053 43.2201 168.564C43.2201 168.23 43.1663 168.154 42.8511 168.048C41.6591 167.644 40.4665 167.241 39.2735 166.839C38.9775 166.739 38.9046 166.799 38.9046 167.142L38.9046 177.321C38.8211 177.299 38.7584 177.287 38.6984 177.267C37.8677 176.989 37.0383 176.705 36.2053 176.433C36.0671 176.389 36.0244 176.325 36.0244 176.183C36.028 172.25 36.0303 168.317 36.0315 164.384C36.0355 164.118 36.0687 163.853 36.1306 163.594C36.3382 162.679 36.9752 162.247 37.885 162.46C38.5419 162.615 39.182 162.844 39.8243 163.056C41.0897 163.476 42.3502 163.908 43.6139 164.332C45.2242 164.873 46.0989 166.026 46.1087 167.735C46.1283 171.179 46.1172 174.624 46.1181 178.068C46.1181 178.104 46.1123 178.141 46.1069 178.201C46.0225 178.175 45.9474 178.152 45.8732 178.127C43.8546 177.452 41.8361 176.778 39.8176 176.105C39.6367 176.046 39.5687 175.969 39.5709 175.768C39.5825 174.62 39.5767 173.471 39.5767 172.323L39.5753 172.057Z" fill="#004974"/>
<path d="M39.5753 187.446L40.3309 187.69L40.3309 183.044C40.3309 182.656 40.2949 182.605 39.9348 182.484C39.6837 182.4 39.4326 182.315 39.1792 182.236C38.9957 182.178 38.921 182.23 38.9041 182.423C38.8974 182.497 38.9041 182.571 38.9041 182.646L38.9041 192.913C38.8241 192.893 38.7628 192.881 38.7041 192.862C37.8734 192.584 37.0444 192.301 36.2115 192.03C36.0652 191.983 36.023 191.915 36.0234 191.764C36.0273 187.802 36.0298 183.839 36.031 179.877C36.0336 179.603 36.0667 179.331 36.1297 179.065C36.3461 178.131 36.9791 177.687 37.8991 177.935C38.8974 178.203 39.8668 178.584 40.8491 178.914C40.8764 178.926 40.9028 178.939 40.9283 178.954C41.9506 179.487 42.4888 180.357 42.6617 181.479C42.6751 181.565 42.6919 181.651 42.7124 181.763C43.1062 181.562 43.4796 181.374 43.8516 181.182C44.5067 180.845 45.1616 180.507 45.8162 180.168C46.0829 180.029 46.1153 180.049 46.1153 180.354C46.1153 181.68 46.1126 183.005 46.1193 184.331C46.1193 184.487 46.0695 184.565 45.9331 184.632C44.9326 185.121 43.9369 185.616 42.936 186.101C42.7759 186.179 42.7079 186.267 42.7137 186.453C42.7262 187.053 42.7262 187.652 42.7137 188.252C42.7093 188.438 42.7804 188.509 42.9435 188.563C43.9298 188.886 44.9117 189.223 45.8988 189.541C46.0686 189.596 46.1238 189.67 46.1211 189.852C46.1118 191.015 46.1162 192.178 46.1162 193.341L46.1162 193.591C45.8428 193.502 45.5926 193.422 45.3437 193.339C43.5013 192.722 41.6599 192.102 39.8153 191.491C39.6335 191.431 39.5668 191.355 39.5686 191.154C39.5802 190.007 39.5744 188.859 39.5744 187.71L39.5753 187.446Z" fill="#004974"/>
<path d="M39.5757 203.558C39.8211 203.64 40.0367 203.711 40.2518 203.784C41.1381 204.082 42.0242 204.38 42.9102 204.678C43.1538 204.759 43.2178 204.716 43.2182 204.456C43.2182 202.804 43.2182 201.153 43.2214 199.501C43.2214 199.265 43.1169 199.125 42.9036 199.053C41.6886 198.647 40.4737 198.24 39.2588 197.834C38.9788 197.741 38.9033 197.799 38.9033 198.106C38.9033 200.165 38.9033 202.224 38.9033 204.282L38.9033 207.281C37.5565 207.103 36.4008 205.992 36.131 204.604C36.0657 204.271 36.0319 203.932 36.0301 203.592C36.0221 200.895 36.0229 198.199 36.0324 195.502C36.0324 195.134 36.0828 194.767 36.1822 194.413C36.4066 193.636 37.0098 193.264 37.7992 193.439C38.4214 193.577 39.0282 193.791 39.6353 193.991C41.0056 194.443 42.3742 194.899 43.7383 195.369C45.1428 195.852 45.9109 196.856 46.0722 198.332C46.1014 198.611 46.1155 198.892 46.1145 199.174C46.1162 201.824 46.1136 204.476 46.1065 207.127C46.1003 207.415 46.0585 207.702 45.982 207.98C45.7598 208.849 45.1375 209.253 44.2685 209.058C43.7107 208.934 43.168 208.737 42.624 208.558C41.6663 208.244 40.7108 207.921 39.7575 207.592C39.6855 207.567 39.5833 207.479 39.5829 207.419C39.5731 206.146 39.5757 204.872 39.5757 203.558Z" fill="#004974"/>
<path d="M38.9033 155.462C37.9774 155.203 37.1254 154.894 36.5787 154.067C36.188 153.474 36.0288 152.812 36.0275 152.111C36.0231 149.349 36.0238 146.586 36.0297 143.823C36.0318 143.565 36.0637 143.307 36.1249 143.056C36.3258 142.22 36.9018 141.845 37.7285 142.065C38.5553 142.286 39.3731 142.569 40.1918 142.839C42.0937 143.468 43.989 144.11 45.8905 144.734C46.0709 144.794 46.1229 144.876 46.1216 145.06C46.1132 146.216 46.1172 147.372 46.1172 148.527L46.1172 148.789L43.2178 147.831C43.2125 147.935 43.2058 148.006 43.2058 148.078C43.2058 149.618 43.2085 151.159 43.2009 152.7C43.2009 152.889 43.2596 152.964 43.4401 153.022C44.329 153.306 45.2144 153.608 46.1069 153.907L46.1069 157.88L39.582 155.7L39.582 151.724C39.974 151.852 40.3545 151.977 40.7612 152.109C40.7665 152.02 40.7741 151.951 40.7741 151.881C40.7741 150.326 40.7741 148.77 40.7781 147.214C40.7781 147.055 40.7336 146.982 40.5785 146.934C40.1492 146.801 39.7269 146.648 39.3011 146.506C38.9766 146.398 38.9037 146.451 38.9037 146.793C38.9037 149.586 38.9037 152.378 38.9037 155.17L38.9033 155.462Z" fill="#004974"/>
<path d="M39.5789 137.475C39.7056 137.519 39.7931 137.555 39.8825 137.585C41.8865 138.256 43.8911 138.925 45.8963 139.593C46.0603 139.647 46.1243 139.716 46.1225 139.901C46.1118 140.981 46.1172 142.063 46.1172 143.163C46.0403 143.144 45.9785 143.132 45.9189 143.112C43.8743 142.427 41.8297 141.744 39.7851 141.061C39.6251 141.008 39.5727 140.94 39.5731 140.77C39.5793 138.229 39.5793 135.688 39.5731 133.148C39.5731 132.976 39.6176 132.889 39.782 132.82C40.6114 132.475 41.4342 132.114 42.2591 131.758C42.3329 131.726 42.4049 131.69 42.5227 131.635C42.4071 131.591 42.3311 131.556 42.2524 131.53C40.249 130.86 38.245 130.191 36.2404 129.524C36.0662 129.467 36 129.391 36.0017 129.2C36.0129 128.207 36.0071 127.215 36.0071 126.222L36.0071 125.97C36.1089 125.995 36.1849 126.008 36.2578 126.033C38.8743 126.908 41.4913 127.785 44.109 128.662C45.1215 129.002 45.8371 129.636 46.0487 130.733C46.0914 130.966 46.1132 131.202 46.1141 131.439C46.1229 132.112 46.1243 132.787 46.1141 133.461C46.1091 133.689 46.0808 133.917 46.0296 134.14C45.9327 134.573 45.6696 134.868 45.2567 135.043C43.4444 135.809 41.6345 136.581 39.8269 137.356C39.7554 137.386 39.6865 137.423 39.5789 137.475Z" fill="#004974"/>
<path d="M42.0284 209.628C42.6787 209.85 43.3272 210.063 43.9721 210.287C45.0762 210.669 45.7709 211.432 46.0425 212.573C46.0882 212.76 46.1119 212.952 46.1132 213.144C46.1167 216.158 46.1152 219.172 46.1087 222.187C46.1053 222.453 46.0689 222.717 46.0003 222.975C45.7914 223.783 45.2202 224.15 44.4161 223.943C43.6836 223.755 42.968 223.499 42.248 223.263C41.4088 222.988 40.5736 222.701 39.7349 222.424C39.6229 222.387 39.5713 222.342 39.5718 222.211C39.5776 220.981 39.5753 219.752 39.5758 218.521C39.5758 218.486 39.5816 218.45 39.5869 218.391C40.1416 218.577 40.6843 218.76 41.2275 218.942C41.7857 219.129 42.3443 219.316 42.9031 219.502C43.1552 219.586 43.2178 219.546 43.2178 219.291C43.2201 217.588 43.2178 215.884 43.2218 214.18C43.2218 214.044 43.1774 213.98 43.0507 213.941C42.7485 213.847 42.4471 213.75 42.1511 213.638C42.0884 213.614 42.0075 213.524 42.0075 213.463C42 212.212 42.0031 210.96 42.0049 209.709C42.0098 209.681 42.0177 209.654 42.0284 209.628Z" fill="#004974"/>
<path d="M38.9055 212.586L38.9055 222.12C37.3601 221.75 36.0666 221.028 36.036 218.817C35.9951 215.877 36.0208 212.937 36.0284 209.996C36.0311 208.917 37.1014 208.091 38.1619 208.368C38.8286 208.542 39.4762 208.794 40.1327 209.011L40.1327 212.985C39.7247 212.852 39.33 212.724 38.9055 212.586Z" fill="#004974"/>
<path d="M38.8893 126.232C38.0688 125.956 37.2674 125.687 36.4661 125.417C36.0047 125.262 36.0051 125.262 36.0051 124.77L36.0051 111.854C36.1896 111.915 36.3469 111.965 36.5038 112.018C37.2501 112.27 37.9955 112.524 38.7436 112.771C38.8587 112.809 38.9058 112.86 38.9058 112.987C38.9022 117.37 38.9009 121.754 38.9018 126.137C38.8994 126.169 38.8952 126.201 38.8893 126.232Z" fill="#004974"/>
<path d="M39.59 117.771C40.2073 117.978 40.8065 118.18 41.4057 118.38C42.9133 118.884 44.4211 119.387 45.9291 119.891C46.0371 119.927 46.122 119.951 46.1211 120.105C46.1136 121.342 46.1171 122.578 46.1162 123.814C46.1139 123.851 46.1097 123.887 46.1038 123.923L44.529 123.397C42.9378 122.864 41.3464 122.332 39.7549 121.803C39.6411 121.765 39.5704 121.732 39.5713 121.581C39.5784 120.345 39.5757 119.108 39.5762 117.872C39.5762 117.851 39.582 117.829 39.59 117.771Z" fill="#004974"/>
<path d="M39.5754 157.379C40.1195 157.561 40.6208 157.728 41.1222 157.895C42.7139 158.429 44.3042 158.962 45.8986 159.49C46.0684 159.546 46.1235 159.62 46.1208 159.801C46.1124 160.971 46.1164 162.141 46.1164 163.313L46.1164 163.536C46.0275 163.511 45.9599 163.494 45.8941 163.471C43.8629 162.792 41.8311 162.113 39.799 161.435C39.6368 161.381 39.5688 161.316 39.5701 161.129C39.5812 159.966 39.5759 158.804 39.5759 157.641L39.5754 157.379Z" fill="#004974"/>
<path d="M38.8937 133.218L38.8937 140.756C38.2003 140.515 37.4896 140.356 36.9247 139.867C36.3104 139.334 36.0397 138.644 36.0277 137.846C36.0162 137.069 36.0188 136.29 36.0277 135.515C36.0353 134.79 36.322 134.257 37.042 133.992C37.5936 133.788 38.1265 133.534 38.6684 133.302C38.7341 133.276 38.8021 133.253 38.8937 133.218Z" fill="#004974"/>
<path d="M36.0045 156.187C36.741 156.433 37.4308 156.663 38.1206 156.893C38.3371 156.965 38.5562 157.03 38.7678 157.115C38.8251 157.138 38.8962 157.221 38.8967 157.277C38.9038 158.55 38.902 159.823 38.902 161.127C38.7744 161.085 38.6655 161.05 38.5575 161.014C37.7824 160.756 37.0094 160.49 36.2307 160.243C36.048 160.185 35.9991 160.097 36 159.913C36.0085 158.757 36.0045 157.602 36.0045 156.446L36.0045 156.187Z" fill="#004974"/>
</g>
<defs>
<linearGradient id="paint0_linear_222_11274" x1="72.54" y1="217.5" x2="81.53" y2="217.5" gradientUnits="userSpaceOnUse">
<stop stop-color="#363B39"/>
<stop offset="1" stop-color="#1B1C1C"/>
</linearGradient>
<linearGradient id="paint1_linear_222_11274" x1="72.54" y1="189.54" x2="81.53" y2="189.54" gradientUnits="userSpaceOnUse">
<stop stop-color="#363B39"/>
<stop offset="1" stop-color="#1B1C1C"/>
</linearGradient>
<linearGradient id="paint2_linear_222_11274" x1="72.54" y1="128.72" x2="81.53" y2="128.72" gradientUnits="userSpaceOnUse">
<stop stop-color="#363B39"/>
<stop offset="1" stop-color="#1B1C1C"/>
</linearGradient>
<linearGradient id="paint3_linear_222_11274" x1="72.54" y1="100.77" x2="81.53" y2="100.77" gradientUnits="userSpaceOnUse">
<stop stop-color="#363B39"/>
<stop offset="1" stop-color="#1B1C1C"/>
</linearGradient>
<linearGradient id="paint4_linear_222_11274" x1="0" y1="217.5" x2="8.99" y2="217.5" gradientUnits="userSpaceOnUse">
<stop stop-color="#363B39"/>
<stop offset="1" stop-color="#1B1C1C"/>
</linearGradient>
<linearGradient id="paint5_linear_222_11274" x1="0" y1="189.54" x2="8.99" y2="189.54" gradientUnits="userSpaceOnUse">
<stop stop-color="#363B39"/>
<stop offset="1" stop-color="#1B1C1C"/>
</linearGradient>
<linearGradient id="paint6_linear_222_11274" x1="0" y1="128.72" x2="8.99" y2="128.72" gradientUnits="userSpaceOnUse">
<stop stop-color="#363B39"/>
<stop offset="1" stop-color="#1B1C1C"/>
</linearGradient>
<linearGradient id="paint7_linear_222_11274" x1="0" y1="100.77" x2="8.99" y2="100.77" gradientUnits="userSpaceOnUse">
<stop stop-color="#363B39"/>
<stop offset="1" stop-color="#1B1C1C"/>
</linearGradient>
<linearGradient id="paint8_linear_222_11274" x1="0.0100975" y1="156.13" x2="80.6101" y2="156.13" gradientUnits="userSpaceOnUse">
<stop stop-color="#DEDEDE"/>
<stop offset="0.08" stop-color="#CECECE"/>
<stop offset="0.9" stop-color="#ACAFAE"/>
<stop offset="1" stop-color="#7B7D7C"/>
</linearGradient>
<linearGradient id="paint9_linear_222_11274" x1="-16.2299" y1="98.84" x2="114.45" y2="229.53" gradientUnits="userSpaceOnUse">
<stop stop-color="#F7F7F7"/>
<stop offset="0.17" stop-color="#F2F2F2"/>
<stop offset="0.51" stop-color="#D6D6D6"/>
<stop offset="0.85" stop-color="#DFDFDF"/>
<stop offset="1" stop-color="#DBDBDB"/>
</linearGradient>
<linearGradient id="paint10_linear_222_11274" x1="8.41008" y1="156.13" x2="13.6901" y2="156.13" gradientUnits="userSpaceOnUse">
<stop stop-color="white"/>
<stop offset="0.23" stop-color="#F5F5F5"/>
<stop offset="0.61" stop-color="#DADADA"/>
<stop offset="1" stop-color="#B8B8B8"/>
</linearGradient>
<linearGradient id="paint11_linear_222_11274" x1="15.31" y1="156.13" x2="20.6" y2="156.13" gradientUnits="userSpaceOnUse">
<stop stop-color="white"/>
<stop offset="0.23" stop-color="#F5F5F5"/>
<stop offset="0.61" stop-color="#DADADA"/>
<stop offset="1" stop-color="#B8B8B8"/>
</linearGradient>
<linearGradient id="paint12_linear_222_11274" x1="22.2199" y1="156.13" x2="27.4999" y2="156.13" gradientUnits="userSpaceOnUse">
<stop stop-color="white"/>
<stop offset="0.23" stop-color="#F5F5F5"/>
<stop offset="0.61" stop-color="#DADADA"/>
<stop offset="1" stop-color="#B8B8B8"/>
</linearGradient>
<linearGradient id="paint13_linear_222_11274" x1="29.12" y1="156.13" x2="34.4" y2="156.13" gradientUnits="userSpaceOnUse">
<stop stop-color="white"/>
<stop offset="0.23" stop-color="#F5F5F5"/>
<stop offset="0.61" stop-color="#DADADA"/>
<stop offset="1" stop-color="#B8B8B8"/>
</linearGradient>
<linearGradient id="paint14_linear_222_11274" x1="36.0199" y1="156.13" x2="41.2999" y2="156.13" gradientUnits="userSpaceOnUse">
<stop stop-color="white"/>
<stop offset="0.23" stop-color="#F5F5F5"/>
<stop offset="0.61" stop-color="#DADADA"/>
<stop offset="1" stop-color="#B8B8B8"/>
</linearGradient>
<linearGradient id="paint15_linear_222_11274" x1="42.9201" y1="156.13" x2="48.2101" y2="156.13" gradientUnits="userSpaceOnUse">
<stop stop-color="white"/>
<stop offset="0.23" stop-color="#F5F5F5"/>
<stop offset="0.61" stop-color="#DADADA"/>
<stop offset="1" stop-color="#B8B8B8"/>
</linearGradient>
<linearGradient id="paint16_linear_222_11274" x1="49.83" y1="156.13" x2="55.11" y2="156.13" gradientUnits="userSpaceOnUse">
<stop stop-color="white"/>
<stop offset="0.23" stop-color="#F5F5F5"/>
<stop offset="0.61" stop-color="#DADADA"/>
<stop offset="1" stop-color="#B8B8B8"/>
</linearGradient>
<linearGradient id="paint17_linear_222_11274" x1="56.7299" y1="156.13" x2="62.0099" y2="156.13" gradientUnits="userSpaceOnUse">
<stop stop-color="white"/>
<stop offset="0.23" stop-color="#F5F5F5"/>
<stop offset="0.61" stop-color="#DADADA"/>
<stop offset="1" stop-color="#B8B8B8"/>
</linearGradient>
<linearGradient id="paint18_linear_222_11274" x1="63.63" y1="156.13" x2="68.91" y2="156.13" gradientUnits="userSpaceOnUse">
<stop stop-color="white"/>
<stop offset="0.23" stop-color="#F5F5F5"/>
<stop offset="0.61" stop-color="#DADADA"/>
<stop offset="1" stop-color="#B8B8B8"/>
</linearGradient>
<linearGradient id="paint19_linear_222_11274" x1="70.53" y1="156.13" x2="75.82" y2="156.13" gradientUnits="userSpaceOnUse">
<stop stop-color="white"/>
<stop offset="0.23" stop-color="#F5F5F5"/>
<stop offset="0.61" stop-color="#DADADA"/>
<stop offset="1" stop-color="#B8B8B8"/>
</linearGradient>
<linearGradient id="paint20_linear_222_11274" x1="9.42993" y1="21.27" x2="72.6799" y2="21.27" gradientUnits="userSpaceOnUse">
<stop stop-color="#D1D1D1"/>
<stop offset="1" stop-color="#A8ABAA"/>
</linearGradient>
<linearGradient id="paint21_linear_222_11274" x1="9.42993" y1="8.14" x2="72.6799" y2="8.14" gradientUnits="userSpaceOnUse">
<stop stop-color="#363B39"/>
<stop offset="1" stop-color="#0C0D0D"/>
</linearGradient>
<radialGradient id="paint22_radial_222_11274" cx="0" cy="0" r="1" gradientUnits="userSpaceOnUse" gradientTransform="translate(41.06 21.25) scale(24.27 24.27)">
<stop stop-color="white"/>
<stop offset="1" stop-color="#3B6D89"/>
</radialGradient>
<linearGradient id="paint23_linear_222_11274" x1="14.8501" y1="33.24" x2="67.2301" y2="33.24" gradientUnits="userSpaceOnUse">
<stop stop-color="#363B39"/>
<stop offset="1" stop-color="#0C0D0D"/>
</linearGradient>
<linearGradient id="paint24_linear_222_11274" x1="41.0599" y1="38.67" x2="41.0599" y2="62.6501" gradientUnits="userSpaceOnUse">
<stop stop-color="#D1D1D1"/>
<stop offset="1" stop-color="#A8ABAA"/>
</linearGradient>
<linearGradient id="paint25_linear_222_11274" x1="41.06" y1="39.3999" x2="41.06" y2="62.7999" gradientUnits="userSpaceOnUse">
<stop stop-color="#F7F7F7"/>
<stop offset="1" stop-color="#17597F"/>
</linearGradient>
<linearGradient id="paint26_linear_222_11274" x1="69.2056" y1="33.4373" x2="70.8853" y2="48.2448" gradientUnits="userSpaceOnUse">
<stop stop-color="#363B39"/>
<stop offset="1" stop-color="#1B1C1C"/>
</linearGradient>
<radialGradient id="paint27_radial_222_11274" cx="0" cy="0" r="1" gradientUnits="userSpaceOnUse" gradientTransform="translate(75.6459 38.0201) scale(3.6712 3.53)">
<stop stop-color="white"/>
<stop offset="1" stop-color="#D2D6D5"/>
</radialGradient>
<linearGradient id="paint28_linear_222_11274" x1="70.5501" y1="39.17" x2="79.9301" y2="39.17" gradientUnits="userSpaceOnUse">
<stop stop-color="#363B39"/>
<stop offset="1" stop-color="#1B1C1C"/>
</linearGradient>
<linearGradient id="paint29_linear_222_11274" x1="13.9567" y1="33.8699" x2="12.3619" y2="48.6455" gradientUnits="userSpaceOnUse">
<stop stop-color="#363B39"/>
<stop offset="1" stop-color="#1B1C1C"/>
</linearGradient>
<radialGradient id="paint30_radial_222_11274" cx="0" cy="0" r="1" gradientUnits="userSpaceOnUse" gradientTransform="translate(6.44034 38.0201) rotate(180) scale(3.6712 3.53)">
<stop stop-color="white"/>
<stop offset="1" stop-color="#D2D6D5"/>
</radialGradient>
<linearGradient id="paint31_linear_222_11274" x1="11.53" y1="39.17" x2="2.14998" y2="39.17" gradientUnits="userSpaceOnUse">
<stop stop-color="#363B39"/>
<stop offset="1" stop-color="#1B1C1C"/>
</linearGradient>
<linearGradient id="paint32_linear_222_11274" x1="23.3499" y1="32.71" x2="59.5799" y2="32.71" gradientUnits="userSpaceOnUse">
<stop stop-color="#3B3B3B"/>
<stop offset="1"/>
</linearGradient>
<linearGradient id="paint33_linear_222_11274" x1="29.4399" y1="1.1" x2="52.6699" y2="1.1" gradientUnits="userSpaceOnUse">
<stop stop-color="#F7F7F7"/>
<stop offset="1" stop-color="#DBDBDB"/>
</linearGradient>
<linearGradient id="paint34_linear_222_11274" x1="61.29" y1="5.70998" x2="65.32" y2="2.08998" gradientUnits="userSpaceOnUse">
<stop stop-color="white"/>
<stop offset="1" stop-color="#363B39"/>
</linearGradient>
<linearGradient id="paint35_linear_222_11274" x1="56.0199" y1="4.53999" x2="68.9599" y2="4.53999" gradientUnits="userSpaceOnUse">
<stop stop-color="#F7F7F7"/>
<stop offset="1" stop-color="#DBDBDB"/>
</linearGradient>
<linearGradient id="paint36_linear_222_11274" x1="62.97" y1="4.70993" x2="63.58" y2="4.15993" gradientUnits="userSpaceOnUse">
<stop stop-color="white"/>
<stop offset="1" stop-color="#363B39"/>
</linearGradient>
<linearGradient id="paint37_linear_222_11274" x1="64.22" y1="5.02003" x2="64.83" y2="4.47003" gradientUnits="userSpaceOnUse">
<stop stop-color="white"/>
<stop offset="1" stop-color="#363B39"/>
</linearGradient>
<linearGradient id="paint38_linear_222_11274" x1="65.0999" y1="5.63993" x2="65.7199" y2="5.07993" gradientUnits="userSpaceOnUse">
<stop stop-color="white"/>
<stop offset="1" stop-color="#363B39"/>
</linearGradient>
<linearGradient id="paint39_linear_222_11274" x1="61.5899" y1="4.39991" x2="62.2099" y2="3.84991" gradientUnits="userSpaceOnUse">
<stop stop-color="white"/>
<stop offset="1" stop-color="#363B39"/>
</linearGradient>
<linearGradient id="paint40_linear_222_11274" x1="60.47" y1="4.09011" x2="61.09" y2="3.54011" gradientUnits="userSpaceOnUse">
<stop stop-color="white"/>
<stop offset="1" stop-color="#363B39"/>
</linearGradient>
<linearGradient id="paint41_linear_222_11274" x1="21.38" y1="5.70998" x2="17.34" y2="2.08998" gradientUnits="userSpaceOnUse">
<stop stop-color="white"/>
<stop offset="1" stop-color="#363B39"/>
</linearGradient>
<linearGradient id="paint42_linear_222_11274" x1="26.6399" y1="4.53999" x2="13.6999" y2="4.53999" gradientUnits="userSpaceOnUse">
<stop stop-color="#F7F7F7"/>
<stop offset="1" stop-color="#DBDBDB"/>
</linearGradient>
<linearGradient id="paint43_linear_222_11274" x1="19.7001" y1="4.70993" x2="19.0801" y2="4.15993" gradientUnits="userSpaceOnUse">
<stop stop-color="white"/>
<stop offset="1" stop-color="#363B39"/>
</linearGradient>
<linearGradient id="paint44_linear_222_11274" x1="18.4501" y1="5.02003" x2="17.8301" y2="4.47003" gradientUnits="userSpaceOnUse">
<stop stop-color="white"/>
<stop offset="1" stop-color="#363B39"/>
</linearGradient>
<linearGradient id="paint45_linear_222_11274" x1="17.56" y1="5.63993" x2="16.94" y2="5.07993" gradientUnits="userSpaceOnUse">
<stop stop-color="white"/>
<stop offset="1" stop-color="#363B39"/>
</linearGradient>
<linearGradient id="paint46_linear_222_11274" x1="21.07" y1="4.39991" x2="20.45" y2="3.84991" gradientUnits="userSpaceOnUse">
<stop stop-color="white"/>
<stop offset="1" stop-color="#363B39"/>
</linearGradient>
<linearGradient id="paint47_linear_222_11274" x1="22.1901" y1="4.09011" x2="21.5801" y2="3.5401" gradientUnits="userSpaceOnUse">
<stop stop-color="white"/>
<stop offset="1" stop-color="#363B39"/>
</linearGradient>
<linearGradient id="paint48_linear_222_11274" x1="67.3" y1="49.3099" x2="81.5" y2="76.81" gradientUnits="userSpaceOnUse">
<stop stop-color="#363B39"/>
<stop offset="1" stop-color="#1B1C1C"/>
</linearGradient>
<linearGradient id="paint49_linear_222_11274" x1="69.12" y1="54.8999" x2="78.09" y2="72.2499" gradientUnits="userSpaceOnUse">
<stop stop-color="#3B3B3B"/>
<stop offset="1"/>
</linearGradient>
<linearGradient id="paint50_linear_222_11274" x1="14.82" y1="49.3099" x2="0.619963" y2="76.81" gradientUnits="userSpaceOnUse">
<stop stop-color="#363B39"/>
<stop offset="1" stop-color="#1B1C1C"/>
</linearGradient>
<linearGradient id="paint51_linear_222_11274" x1="4.84997" y1="54.3399" x2="14.47" y2="61.6099" gradientUnits="userSpaceOnUse">
<stop/>
<stop offset="1" stop-color="#3B3B3B"/>
</linearGradient>
<linearGradient id="paint52_linear_222_11274" x1="41.0599" y1="43.27" x2="41.0599" y2="67.9" gradientUnits="userSpaceOnUse">
<stop stop-color="white"/>
<stop offset="1" stop-color="#8F8F8F"/>
</linearGradient>
<linearGradient id="paint53_linear_222_11274" x1="12.3601" y1="69.7001" x2="69.7501" y2="69.7001" gradientUnits="userSpaceOnUse">
<stop stop-color="#363B39"/>
<stop offset="1" stop-color="#0C0D0D"/>
</linearGradient>
</defs>
</svg>
