<svg width="54" height="112" viewBox="0 0 54 112" fill="none" xmlns="http://www.w3.org/2000/svg">
<path d="M18.0053 111.318H36.3353C42.292 111.318 48.4404 104.615 48.5793 98.7345L49.4323 17.1759C49.4551 15.008 49.0426 12.8571 48.2186 10.8477C47.3946 8.83824 46.1754 7.01016 44.6317 5.4692C43.088 3.92824 41.2503 2.70498 39.225 1.87018C37.1996 1.03538 35.0268 0.605596 32.8323 0.605713H21.5132C19.3184 0.605602 17.1454 1.03535 15.1198 1.87009C13.0942 2.70484 11.2562 3.92804 9.71207 5.46894C8.16795 7.00983 6.94836 8.83784 6.12382 10.8473C5.29928 12.8567 4.88615 15.0078 4.90832 17.1759L5.76611 98.7345C5.90508 104.615 12.0487 111.318 18.0053 111.318Z" fill="#27A08F"/>
<path d="M14.5349 3.01245C14.5349 3.01245 13.6915 4.76524 12.7051 7.50752C11.5025 10.8613 10.477 14.2707 9.63248 17.7227C9.17874 19.6075 8.75954 21.4922 8.4439 23.3016C8.12825 25.1109 7.87672 26.7789 7.69916 28.2301C7.61039 28.9557 7.56106 29.6437 7.50187 30.2185C7.44269 30.7933 7.41805 31.3305 7.39339 31.7546C7.34407 32.6121 7.31446 33.0974 7.31446 33.0974H9.17382C9.17382 33.0974 9.17382 32.6262 9.17382 31.7922C9.17382 31.3729 9.17382 30.8499 9.17382 30.2892C9.17382 29.7285 9.20339 29.0547 9.25271 28.3385C9.33656 26.9249 9.46972 25.2428 9.68673 23.4617C9.90373 21.6807 10.1799 19.7771 10.5301 17.8877C11.1576 14.4188 11.9691 10.9826 12.9616 7.59233C13.7951 4.80764 14.5349 3.01245 14.5349 3.01245Z" fill="#2AA694"/>
<path d="M7.57153 93.6745H7.4399C7.23303 91.1276 7.04497 87.9195 6.87571 84.3156C6.8475 83.7103 6.8193 83.0911 6.79109 82.4532C6.53721 76.5027 6.32092 69.6489 6.18458 62.8975C6.18458 62.3109 6.16109 61.7288 6.14699 61.1468C5.94952 51.1455 6.61714 39.7287 6.73468 34.1413C6.73468 34.1413 6.73468 32.8842 6.70647 32.1997C9.59789 28.9405 14.1536 28.2839 26.495 28.2839C35.1223 28.2839 40.8957 28.568 44.0504 30.3745C45.5032 31.208 44.9249 30.3745 45.8229 31.4408C45.8229 31.9949 45.3527 93.6558 45.3527 93.6558C42.0617 101.185 36.9935 105.096 26.4762 105.296C10.2467 105.566 8.23444 95.509 7.57153 93.6745Z" fill="#2AA694"/>
<path d="M9.72144 87.2174L7.99491 94.433L7.68435 94.4707C7.55125 91.8961 7.42555 88.6529 7.31464 85.0098L9.61053 83.6401C9.6475 84.8781 9.67707 86.0783 9.72144 87.2174Z" fill="#373C3D"/>
<path d="M6.11124 63.1821H9.22891C9.34712 69.7314 9.50965 76.3587 9.72144 82.2149L6.65793 83.6399C6.4166 77.4225 6.23929 70.2389 6.11124 63.1821Z" fill="#373C3D"/>
<path d="M6.86898 31.8943C6.86898 31.8943 9.55696 52.7332 9.56264 53.1998C9.59666 56.3996 9.65339 58.525 9.72144 61.9793H6.13746C5.95599 51.852 6.77258 37.5823 6.86898 31.8943Z" fill="#373C3D"/>
<path d="M9.66845 81.2334C9.68737 82.1738 9.70251 83.1003 9.72144 84.0198L7.37139 86.047C7.35247 85.1414 7.33356 84.2149 7.31464 83.2606L9.66845 81.2334Z" fill="#2AA694"/>
<path d="M6.11124 61.9792H9.68188C9.68188 62.3793 9.68189 62.7826 9.72144 63.1826H6.14514L6.11124 61.9792Z" fill="#2AA694"/>
<path d="M7.31415 39.1145L2.05494 41.5729C1.28498 41.9318 0.684522 42.5179 0.359719 43.2275C0.0349164 43.9371 0.00670671 44.7245 0.280039 45.4506L0.612823 46.3349L5.3577 44.3584L6.24516 42.7181L6.7948 41.9133L7.31415 39.1145Z" fill="#27A08F"/>
<path d="M12.0992 94.4709C12.2074 91.1441 12.0228 60.2284 11.3735 47.5383L10.9248 47.5894C11.5613 60.2609 11.7586 91.1209 11.6504 94.4523L12.0992 94.4709Z" fill="#27A08F"/>
<path d="M39.8059 3.01245C39.8059 3.01245 40.4236 4.8068 41.1032 7.59018C41.937 10.9827 42.6175 14.4222 43.1418 17.8948C43.4301 19.7786 43.6731 21.6625 43.846 23.4663C44.019 25.2701 44.1426 26.9137 44.2085 28.3407C44.2538 29.0566 44.2579 29.7112 44.2743 30.2905C44.2908 30.8698 44.2949 31.3737 44.2743 31.7929C44.2743 32.6217 44.2743 33.0974 44.2743 33.0974H45.8229C45.8229 33.0974 45.8023 32.6264 45.7611 31.7552C45.7611 31.3266 45.7199 30.8132 45.6705 30.2198C45.6211 29.6264 45.584 28.9577 45.5016 28.2324C45.3575 26.7818 45.1639 25.0958 44.8839 23.3061C44.6038 21.5165 44.2743 19.6138 43.8872 17.73C43.1839 14.2789 42.3276 10.8711 41.3215 7.51955C40.5142 4.76443 39.8059 3.01245 39.8059 3.01245Z" fill="#2AA694"/>
<path d="M43.4161 87.2174L45.1494 94.433L45.4549 94.4707C45.591 91.8961 45.7125 88.6529 45.8229 85.0098L43.5375 83.6401C43.4897 84.8781 43.4529 86.0783 43.4161 87.2174Z" fill="#373C3D"/>
<path d="M47.0265 63.1821H43.9095C43.7911 69.7314 43.6284 76.3587 43.4163 82.2149L46.484 83.6399C46.7306 77.4225 46.9081 70.2389 47.0265 63.1821Z" fill="#373C3D"/>
<path d="M46.2593 31.8943C46.2593 31.8943 43.5805 52.7332 43.5749 53.1998C43.5352 56.3996 43.4843 58.525 43.4163 61.9793H46.9956C47.1938 51.852 46.3783 37.5823 46.2593 31.8943Z" fill="#373C3D"/>
<path d="M43.4691 81.2334C43.4691 82.1738 43.435 83.1003 43.4161 84.0198L45.7661 86.047C45.7661 85.1414 45.804 84.2149 45.8229 83.2606L43.4691 81.2334Z" fill="#2AA694"/>
<path d="M47.0265 61.9792H43.4558C43.4558 62.3793 43.4558 62.7826 43.4163 63.1826H46.9756C46.9756 62.7794 47.0152 62.3793 47.0265 61.9792Z" fill="#2AA694"/>
<path d="M47.0266 39.1145L51.4117 41.5729C52.0519 41.9331 52.551 42.5193 52.8214 43.2285C53.0918 43.9376 53.1162 44.7244 52.8902 45.4506L52.613 46.3349L48.6605 44.3584L47.9171 42.7181L47.4592 41.9133L47.0266 39.1145Z" fill="#27A08F"/>
<path d="M41.0711 94.4709L41.9647 94.443C41.7556 91.1215 42.1232 60.277 43.4161 47.5894L42.5225 47.5383C41.2296 60.2445 40.8429 91.154 41.0711 94.4709Z" fill="#27A08F"/>
<path d="M26.2911 105.302C19.8747 105.265 14.9611 104.85 10.9244 99.7975C11.3242 96.9144 11.8878 93.2676 11.8878 93.2676C15.3995 98.7852 20.13 99.0021 27.1678 99.0112C34.2057 99.0202 38.941 98.7852 42.4527 93.2676C42.4527 93.2676 43.0163 96.9144 43.4161 99.7975C39.3842 104.85 34.4659 105.265 28.0542 105.302H26.2959H26.2911Z" fill="#373C3D"/>
<path d="M11.7632 48.7415C16.8766 47.1868 22.1866 46.4055 27.5231 46.4228C37.7193 46.4228 43.0664 48.7415 43.0664 48.7415L44.6198 30.3659C44.6198 30.3659 39.6599 27.0803 27.4079 27.0803C16.1284 27.0803 9.72118 30.6193 9.72118 30.6193L11.7632 48.7415Z" fill="#373C3D"/>
<path d="M45.8229 12.7803C45.8206 13.0058 45.7498 13.2249 45.6205 13.4064C45.4913 13.5879 45.3102 13.7228 45.1028 13.7918C44.8955 13.8608 44.6724 13.8605 44.4652 13.7909C44.258 13.7214 44.0772 13.586 43.9484 13.4041C43.307 12.4462 42.7562 11.4266 42.3035 10.3594C40.4147 6.21557 39.1524 2.81434 38.6025 1.80933C41.6676 3.31438 45.8037 6.45318 45.8229 12.7803Z" fill="#373C3D"/>
<path d="M7.31446 12.7803C7.31676 13.0058 7.38754 13.2249 7.51677 13.4064C7.646 13.5879 7.82713 13.7228 8.03449 13.7918C8.24185 13.8608 8.46494 13.8605 8.67213 13.7909C8.87932 13.7214 9.06011 13.586 9.18889 13.4041C9.83032 12.4462 10.3812 11.4266 10.8338 10.3594C12.7226 6.21557 13.985 2.81434 14.5349 1.80933C11.4698 3.31438 7.33358 6.45318 7.31446 12.7803Z" fill="#373C3D"/>
<path d="M37.3991 108.668C39.1528 107.923 40.7157 106.771 41.9658 105.301L43.4161 105.774C41.8705 107.659 39.9184 109.146 37.7158 110.115L37.3991 108.668Z" fill="#EC4F4F"/>
<path d="M15.738 108.665C13.9827 107.924 12.4177 106.773 11.1658 105.301L9.72098 105.774C11.266 107.66 13.2171 109.147 15.4179 110.115L15.738 108.665Z" fill="#EC4F4F"/>
</svg>
