<svg width="70" height="125" viewBox="0 0 70 123" fill="none" xmlns="http://www.w3.org/2000/svg">
<path d="M59.934 7.13659C56.7634 2.98412 40.7518 1.77417 34.7212 1.77417C28.6906 1.77417 12.679 2.98412 9.50842 7.13659C3.34786 15.2339 5.80341 109.273 7.95564 115.652C9.55897 120.42 28.5245 122.225 34.7212 122.225C40.9179 122.225 59.8834 120.42 61.4868 115.652C63.639 109.273 66.0945 15.2339 59.934 7.13659Z" fill="#103F5C"/>
<path d="M48.6118 1.29506C44.014 0.600289 39.3697 0.227273 34.7156 0.178955C30.0663 0.227939 25.4268 0.600954 20.8337 1.29506C20.5567 1.34852 20.3125 1.50377 20.153 1.72771C19.9935 1.95165 19.9314 2.22657 19.98 2.49384C19.996 2.62388 20.0386 2.74959 20.1054 2.86373C20.1722 2.97787 20.2619 3.07818 20.3693 3.15888C20.4766 3.23958 20.5996 3.29907 20.731 3.33391C20.8624 3.36876 20.9998 3.37828 21.135 3.36192C24.7891 2.81343 28.4732 2.46838 32.1688 2.32849H37.2624C40.958 2.46838 44.642 2.81343 48.2961 3.36192H48.4539C48.7056 3.35527 48.9464 3.26178 49.1322 3.09857C49.3179 2.93535 49.4363 2.71333 49.4655 2.47317C49.508 2.20908 49.443 1.93942 49.2841 1.72008C49.1251 1.50075 48.8844 1.34856 48.6118 1.29506Z" fill="#282F3A"/>
<path d="M56.6618 9.89282C53.3685 6.40221 40.2538 4.96533 34.7069 4.96533C29.16 4.96533 16.0453 6.41673 12.752 9.89282C9.4588 13.3689 9.11712 25.6477 10.0331 30.5389C11.7924 34.6899 12.7375 41.5478 13.3918 48.2242C12.6648 49.3127 12.1995 51.4608 12.1995 53.7322C11.2036 56.8382 11.9451 63.3985 12.1995 67.4479C12.1995 67.6656 12.1995 68.3695 12.1995 68.5945C12.1995 68.5945 11.6034 82.5787 12.1995 88.7471C12.2969 90.1094 12.5406 91.4572 12.9265 92.7675C13.1373 94.6688 10.6656 102.579 10.92 104.038C11.4362 106.94 11.4071 108.486 12.1995 109.168C17.87 114.03 29.0146 114.248 34.736 114.248C40.4573 114.248 51.5802 114.052 57.2724 109.168C58.0648 108.486 58.0358 106.955 58.5519 104.038C58.8064 102.586 56.3346 94.6688 56.5454 92.7675C56.9392 91.4591 57.1831 90.1104 57.2724 88.7471C57.8685 82.5787 57.2724 68.5945 57.2724 68.5945C57.2724 68.3695 57.2724 67.6656 57.2724 67.4479C57.5269 63.3985 58.2611 56.8382 57.2724 53.7322C57.2724 51.4608 56.829 49.3127 56.0802 48.2242C56.7345 41.5478 57.6795 34.6899 59.4388 30.5389C60.3185 25.6477 59.9477 13.3907 56.6618 9.89282Z" fill="#005387"/>
<path d="M27.137 12.5906L23.325 35.7488C23.311 35.8379 23.2658 35.9193 23.1972 35.9789C23.1287 36.0385 23.0411 36.0724 22.9499 36.0748H17.9524C17.8906 36.0723 17.8303 36.0556 17.7762 36.026C17.7221 35.9965 17.6757 35.9549 17.6408 35.9045C17.6058 35.8542 17.5832 35.7965 17.5748 35.736C17.5663 35.6755 17.5723 35.6139 17.5922 35.5561L24.6232 13.4206C24.6538 13.3254 24.7176 13.244 24.8033 13.1908L26.6267 12.1682C26.6901 12.1448 26.7587 12.1384 26.8254 12.1497C26.8921 12.1611 26.9545 12.1896 27.0064 12.2326C27.0583 12.2755 27.0977 12.3313 27.1206 12.3942C27.1436 12.4571 27.1492 12.5248 27.137 12.5906Z" fill="#103F5C"/>
<path d="M43.106 12.6083L46.5988 35.749C46.6104 35.8387 46.6514 35.9209 46.7145 35.9807C46.7776 36.0405 46.8586 36.0739 46.9426 36.0748H51.5218C51.5784 36.0723 51.6337 36.0556 51.6833 36.0261C51.7328 35.9965 51.7753 35.955 51.8073 35.9046C51.8394 35.8543 51.8601 35.7967 51.8678 35.7362C51.8755 35.6758 51.8701 35.6143 51.8519 35.5565L45.4437 13.4376C45.4132 13.3439 45.3553 13.2634 45.2787 13.2081L43.6079 12.1862C43.5483 12.1532 43.4812 12.1392 43.4145 12.1459C43.3478 12.1527 43.2843 12.1799 43.2315 12.2243C43.1787 12.2687 43.1388 12.3284 43.1166 12.3965C43.0943 12.4646 43.0907 12.538 43.106 12.6083Z" fill="#103F5C"/>
<path d="M12.7848 67.1494V53.2736L8.77145 32.884C7.99966 40.1971 7.90704 54.4024 8.0614 67.1845L12.7848 67.1494Z" fill="#282F3A"/>
<path d="M7.99866 68.7798C8.17912 82.4842 8.57927 94.3057 8.57927 94.3057L12.7848 88.7363V68.7798H7.99866Z" fill="#282F3A"/>
<path d="M34.7426 22.515C34.7426 22.515 20.2929 22.3207 9.59399 30.5696L13.007 48.8382C13.007 48.8382 18.8846 43.5693 34.7211 43.5693C50.5575 43.5693 56.4351 48.8382 56.4351 48.8382L59.8481 30.5696C49.1923 22.3279 34.7426 22.515 34.7426 22.515Z" fill="#103F5C"/>
<path d="M34.7317 23.3121C34.7317 23.3121 20.7329 23.129 10.3916 30.8763L13.6833 48.04C13.6833 48.04 19.3703 43.1099 34.7102 43.1099C50.0501 43.1099 55.7371 48.04 55.7371 48.04L59.0504 30.8763C48.7306 23.129 34.7317 23.3121 34.7317 23.3121Z" fill="#282F3A"/>
<path d="M57.4554 67.1494V53.2736L60.8022 32.884C61.4458 40.1971 61.5166 54.4024 61.3943 67.1845L57.4554 67.1494Z" fill="#3A454F"/>
<path d="M61.4439 68.7798C61.2935 82.4842 60.96 94.3057 60.96 94.3057L57.4554 88.7363V68.7798H61.4439Z" fill="#3A454F"/>
<path d="M56.2129 92.7102C50.9923 94.2445 18.4498 94.2445 13.2292 92.7102C13.2292 92.7102 10.7767 99.6776 11.25 104.221C14.7853 106.526 22.2576 109.462 34.721 109.462C47.1844 109.462 54.6567 106.497 58.1921 104.221C58.6654 99.6776 56.2129 92.7102 56.2129 92.7102Z" fill="#282F3A"/>
<path d="M63.4098 38.5641L68.4964 40.0454C68.6206 40.0742 68.7492 40.0678 68.8707 40.0268C68.9922 39.9858 69.1029 39.9114 69.1929 39.8103C69.2829 39.7092 69.3494 39.5844 69.3866 39.4472C69.4238 39.3099 69.4304 39.1644 69.4059 39.0236C69.238 37.8116 68.6013 36.7976 66.6073 36.2431C64.3963 35.6332 63.4658 36.8135 63.1089 37.6531C63.0697 37.7341 63.0463 37.8236 63.0404 37.9157C63.0345 38.0078 63.0463 38.1003 63.0748 38.1867C63.1034 38.2732 63.1481 38.3517 63.2059 38.4168C63.2637 38.482 63.3333 38.5322 63.4098 38.5641Z" fill="#005387"/>
<path d="M6.80253 38.5644L1.74375 40.0459C1.61997 40.0742 1.49199 40.0675 1.37101 40.0265C1.25003 39.9854 1.13973 39.9112 1.04978 39.8103C0.959825 39.7095 0.892955 39.5851 0.855023 39.448C0.817091 39.3109 0.809255 39.1653 0.832197 39.0239C1.00616 37.8118 1.63937 36.7977 3.65732 36.2432C5.85619 35.6331 6.78166 36.8136 7.13654 37.6533C7.17493 37.7368 7.19669 37.8289 7.20028 37.9231C7.20388 38.0173 7.18921 38.1112 7.15732 38.1981C7.12544 38.2851 7.07712 38.363 7.0158 38.4263C6.95448 38.4896 6.88167 38.5368 6.80253 38.5644Z" fill="#005387"/>
<path d="M55.6842 48.04L59.0502 30.8763C48.544 23.129 34.322 23.3121 34.322 23.3121V43.0817C49.9065 43.0817 55.6842 48.04 55.6842 48.04Z" fill="#3A454F"/>
<path d="M56.1781 92.7102C55.9958 92.7598 55.8062 92.8094 55.602 92.8449H55.4197L55.055 92.9016C51.4087 93.4827 42.8763 93.7804 34.322 93.7804V108.664C46.9967 108.664 54.5956 105.829 58.1909 103.653C58.6722 99.3723 56.1781 92.7102 56.1781 92.7102Z" fill="#3A454F"/>
<path d="M34.71 122.224C37.7804 122.199 40.8461 122.091 43.8942 121.9C43.7662 121.747 43.5465 121.619 43.2671 121.535C42.9877 121.45 42.6631 121.414 42.3405 121.431C37.2583 121.527 32.1761 121.527 27.0939 121.431C26.7722 121.414 26.4483 121.45 26.1699 121.534C25.8915 121.619 25.6733 121.747 25.5475 121.9C28.5884 122.091 31.6468 122.199 34.71 122.224Z" fill="#005387"/>
<path d="M19.9122 121.136C19.9458 120.952 19.9496 120.761 19.9232 120.575C19.8969 120.389 19.8409 120.211 19.7586 120.052C19.6763 119.893 19.5693 119.755 19.4437 119.647C19.3182 119.539 19.1765 119.463 19.027 119.424C17.1584 118.877 15.307 118.239 13.4728 117.511C13.1793 117.392 12.8598 117.421 12.5836 117.592C12.3074 117.762 12.0968 118.061 11.9975 118.422C11.9834 118.512 11.9834 118.605 11.9975 118.695C14.5438 119.934 17.1859 120.85 19.8826 121.427C19.9141 121.348 19.9412 121.266 19.9638 121.181L19.9122 121.136Z" fill="#D3294F"/>
<path d="M58.2006 118.433C58.1015 118.068 57.8914 117.766 57.6158 117.594C57.3402 117.421 57.0214 117.392 56.7285 117.512C54.8933 118.249 53.0433 118.894 51.1787 119.446C50.8797 119.532 50.6199 119.762 50.4558 120.087C50.2918 120.411 50.2368 120.804 50.3028 121.179C50.3221 121.265 50.3492 121.349 50.3837 121.427C53.0748 120.843 55.7112 119.917 58.2521 118.663C58.2543 118.569 58.2418 118.475 58.2153 118.387L58.2006 118.433Z" fill="#D3294F"/>
<path d="M55.0098 5.57969C54.8176 5.86075 54.1449 5.81391 53.5203 5.47261C52.8957 5.13132 52.5273 4.62273 52.7195 4.34836C52.9117 4.07399 53.5764 4.11414 54.209 4.45543C54.8416 4.79672 55.202 5.29862 55.0098 5.57969Z" fill="white"/>
<path d="M58.9767 8.58826C58.7205 9.14991 57.8304 9.05363 56.9916 8.37163C56.1527 7.68962 55.6724 6.67865 55.9286 6.12502C56.1847 5.5714 57.0748 5.65966 57.9137 6.34166C58.7526 7.02367 59.2456 7.99452 58.9767 8.58826Z" fill="white"/>
<path d="M14.4144 5.57969C14.5424 5.86075 14.9854 5.81391 15.4071 5.47261C15.8287 5.13132 16.0689 4.62273 15.9408 4.34836C15.8127 4.07399 15.3697 4.11414 14.9481 4.45543C14.5264 4.79672 14.2863 5.29862 14.4144 5.57969Z" fill="white"/>
<path d="M10.4779 8.58826C10.7986 9.14991 11.9128 9.05363 12.963 8.37163C14.0131 7.68962 14.6144 6.67865 14.2937 6.12502C13.9731 5.5714 12.8588 5.65966 11.8086 6.34166C10.7585 7.02367 10.1573 7.99452 10.4779 8.58826Z" fill="white"/>
<path d="M43.8954 83.9217C43.964 83.5692 44.0364 83.2177 44.0992 82.8653C44.1455 82.6094 44.1784 82.3506 44.217 82.0928C43.9592 82.1295 43.7004 82.1575 43.4445 82.2057C43.0698 82.2762 42.698 82.3602 42.3253 82.4385C42.3021 82.3747 42.279 82.31 42.2567 82.2453C42.4866 82.0918 42.7106 81.9296 42.9462 81.7857C44.4101 80.8944 44.4613 80.3305 42.9781 79.444C39.8407 77.5678 36.5083 76.6437 32.8911 77.9154C30.3669 78.8019 27.7983 78.9226 25.1824 78.6136C24.0456 78.4787 22.9516 78.0992 21.9755 77.5012C20.6526 76.7016 20.4711 74.6168 21.8558 73.6889C22.1078 73.53 22.3989 73.4441 22.6968 73.4407C27.0094 73.4252 31.3219 73.432 35.6364 73.4291C36.8347 73.4291 38.0108 73.2785 39.1377 72.8497C41.7942 71.8377 43.1625 68.9273 42.1573 66.434C41.7585 65.4443 40.7542 64.3821 39.72 63.9234C39.8948 64.1165 39.9923 64.2276 40.0928 64.3357C41.2081 65.5476 41.6725 66.9574 41.3568 68.5845C41.0555 70.1421 40.0899 71.1734 38.6153 71.662C37.7812 71.9522 36.9081 72.1149 36.0255 72.1448C32.4053 72.1979 28.7832 72.168 25.164 72.168C25.1032 72.168 25.0414 72.1574 24.9313 72.1477C25.5812 71.2545 26.4706 70.9049 27.4835 70.7601C28.6915 70.5882 29.8493 70.7089 30.9694 71.2226C31.4092 71.4203 31.8689 71.5702 32.3406 71.6697C33.8306 71.9913 35.9367 70.8441 36.3809 69.4623C36.4539 69.2095 36.4255 68.9383 36.3017 68.7062C35.8401 67.9752 34.7866 67.644 33.9561 67.8893C33.5969 67.9964 33.4328 68.1789 33.6047 68.5584C33.6836 68.7327 33.7046 68.9276 33.6645 69.1146L32.8766 68.5005L32.3715 69.2382L32.2296 69.1948C32.1941 69.0356 32.169 68.8744 32.1543 68.712C32.1398 68.2697 31.8974 68.1326 31.487 68.1645C31.1883 68.1921 30.887 68.1572 30.6025 68.0621C30.8094 67.9919 31.0119 67.9094 31.2089 67.8149C31.3055 67.7608 31.4532 67.6169 31.4358 67.5513C31.4119 67.4889 31.3755 67.4321 31.3288 67.3843C31.2822 67.3365 31.2263 67.2987 31.1645 67.2732C31.0052 67.2114 30.8178 67.223 30.646 67.1882C30.4741 67.1534 30.3234 67.1042 30.0666 67.0347C30.6653 66.4881 31.4185 66.8019 32.0886 66.3838L30.9723 65.8469C31.488 65.6355 31.938 65.6895 32.3242 65.9841C32.8428 66.3761 33.3468 66.4051 33.9455 66.1521C34.3659 65.9628 34.8256 65.8771 35.286 65.9021C35.7463 65.9271 36.194 66.0622 36.5914 66.296C36.7179 66.3664 36.8473 66.4321 36.9776 66.4891C37.4817 66.7121 37.7057 66.6301 37.9433 66.1415C38.4521 65.1053 38.2262 64.4323 37.1978 63.8751C36.2843 63.3807 35.2868 63.2243 34.2738 63.1383C29.6176 62.7395 24.9497 62.839 20.2857 62.8168C19.5682 62.8168 18.8517 62.8168 18 62.8168C18.5002 62.4025 18.8826 62.0665 19.2891 61.7623C19.4264 61.6824 19.5846 61.6457 19.743 61.657C24.1028 61.6725 28.4646 61.657 32.8235 61.7314C35.1284 61.7729 37.4093 62.0887 39.5703 62.9751C41.5364 63.7814 42.979 65.1266 43.8085 67.0868C43.9756 67.4818 44.1262 67.5947 44.5472 67.3678C45.3497 66.9352 46.1888 66.9545 46.9961 67.3862C47.2788 67.5381 47.5499 67.7108 47.8072 67.9028C48.8327 68.6685 49.8959 69.2624 51.2738 68.8192L50.5747 69.3773L52 69.6892V69.7858L50.6838 70.0388L51.297 71.2081L51.1889 71.3298L49.9171 70.8702C49.8399 71.2506 49.7703 71.5944 49.7018 71.9382L49.5734 71.9536C49.4836 71.7605 49.3802 71.5674 49.3078 71.3742C49.1997 71.0739 49.0374 71.0005 48.7699 71.1975C48.5295 71.3752 48.2871 71.5451 48.0399 71.719L47.9221 71.6282C48.0853 71.3539 48.2215 71.0585 48.4204 70.8113C48.683 70.4849 48.6135 70.2647 48.318 70.0079C47.618 69.4014 45.7707 69.2875 45.06 69.8881C44.8669 70.0484 44.7539 70.4202 44.7761 70.6799C44.9236 72.3661 44.557 74.0575 43.7245 75.5313C43.5092 75.9224 43.6077 76.1599 43.9485 76.3656C44.1242 76.4784 44.3057 76.5818 44.4922 76.6756C45.1112 76.9652 45.4887 77.4481 45.7398 78.0699C46.2072 79.2287 46.5451 79.39 47.8082 79.275C48.3122 79.2297 48.8289 79.3127 49.3406 79.3368L49.3464 79.5039L47.6875 80.0224L49.3522 80.9099L49.3088 81.0933H47.3196C47.3534 81.2477 47.3976 81.3997 47.4519 81.5482C47.5764 81.8079 47.7415 82.0493 47.8381 82.3207C47.9221 82.5572 47.9347 82.8199 47.9714 83.0719C47.7386 83.0024 47.4886 82.9647 47.2751 82.8547C47.0067 82.7156 46.773 82.5119 46.5181 82.3438C45.9252 81.9576 45.8026 81.9856 45.3593 82.509C44.947 82.9918 44.5086 83.4543 44.0818 83.9255L43.8954 83.9217Z" fill="white"/>
</svg>
