<svg width="303" height="74" viewBox="0 0 303 74" fill="none" xmlns="http://www.w3.org/2000/svg">
<path d="M9.64 1.2C10.1467 1.12 10.72 1.04 11.36 0.959999C12 0.879998 12.68 0.813331 13.4 0.759999C14.12 0.706666 14.8533 0.666666 15.6 0.639998C16.3733 0.613332 17.12 0.599998 17.84 0.599998C19.0667 0.599998 20.2 0.733332 21.24 0.999998C22.3067 1.24 23.2133 1.62667 23.96 2.16C24.7333 2.69333 25.3333 3.38667 25.76 4.24C26.2133 5.06667 26.44 6.06667 26.44 7.24C26.44 8.12 26.2933 8.97333 26 9.8C25.7067 10.6 25.28 11.32 24.72 11.96C24.1867 12.6 23.5333 13.1333 22.76 13.56C22.0133 13.9867 21.16 14.2667 20.2 14.4V14.6C20.7067 14.7067 21.2133 14.9067 21.72 15.2C22.2267 15.4667 22.68 15.8267 23.08 16.28C23.48 16.7067 23.8 17.2267 24.04 17.84C24.28 18.4267 24.4 19.0933 24.4 19.84C24.4 21.5467 24.0667 23.0133 23.4 24.24C22.7333 25.44 21.84 26.4267 20.72 27.2C19.6 27.9467 18.2933 28.5067 16.8 28.88C15.3067 29.2267 13.7333 29.4 12.08 29.4C11.6533 29.4 11.0933 29.4 10.4 29.4C9.73333 29.4 9.01333 29.3733 8.24 29.32C7.46667 29.2933 6.69333 29.24 5.92 29.16C5.14667 29.08 4.44 28.96 3.8 28.8L9.64 1.2ZM9.68 24.64C9.78667 24.6933 9.97333 24.7333 10.24 24.76C10.5333 24.7867 10.84 24.8133 11.16 24.84C11.5067 24.84 11.8533 24.8533 12.2 24.88C12.5467 24.88 12.84 24.88 13.08 24.88C13.7467 24.88 14.4267 24.8 15.12 24.64C15.84 24.48 16.48 24.2133 17.04 23.84C17.6267 23.4667 18.1067 22.9867 18.48 22.4C18.8533 21.8133 19.04 21.0933 19.04 20.24C19.04 19.5733 18.8933 19.0267 18.6 18.6C18.3067 18.1733 17.92 17.84 17.44 17.6C16.96 17.3333 16.4 17.16 15.76 17.08C15.1467 16.9733 14.5067 16.92 13.84 16.92H11.28L9.68 24.64ZM12.2 12.76H13.92C14.2933 12.76 14.7333 12.76 15.24 12.76C15.7467 12.7333 16.1733 12.6933 16.52 12.64C17 12.56 17.5067 12.4267 18.04 12.24C18.6 12.0533 19.0933 11.7867 19.52 11.44C19.9733 11.0933 20.3467 10.6533 20.64 10.12C20.9333 9.58667 21.08 8.92 21.08 8.12C21.08 6.97333 20.6933 6.18667 19.92 5.76C19.1733 5.33333 18.2133 5.12 17.04 5.12C16.3467 5.12 15.7067 5.13333 15.12 5.16C14.5333 5.18667 14.08 5.22667 13.76 5.28L12.2 12.76ZM53.7744 0.999998L58.9744 0.999998L53.0544 29H47.8544L53.7744 0.999998ZM33.2144 0.999998L38.4144 0.999998L36.2944 11.04C36.641 10.9867 37.081 10.92 37.6144 10.84C38.1477 10.76 38.721 10.72 39.3344 10.72C40.6144 10.72 41.7477 10.9067 42.7344 11.28C43.7477 11.6267 44.5877 12.1333 45.2544 12.8C45.9477 13.44 46.4677 14.2133 46.8144 15.12C47.161 16 47.3344 16.9733 47.3344 18.04C47.3344 19.8 47.041 21.3867 46.4544 22.8C45.8677 24.1867 45.0144 25.3733 43.8944 26.36C42.7744 27.3467 41.401 28.1067 39.7744 28.64C38.1477 29.1467 36.2944 29.4 34.2144 29.4C33.8677 29.4 33.521 29.4 33.1744 29.4C32.8277 29.4 32.6144 29.3867 32.5344 29.36C32.0544 29.36 31.5344 29.3333 30.9744 29.28C30.4144 29.2267 29.801 29.16 29.1344 29.08C28.4944 29 27.8944 28.88 27.3344 28.72L33.2144 0.999998ZM33.4544 24.28C34.0144 24.44 34.7344 24.52 35.6144 24.52C36.4944 24.52 37.3077 24.4 38.0544 24.16C38.8277 23.92 39.4944 23.5733 40.0544 23.12C40.6144 22.64 41.0544 22.0667 41.3744 21.4C41.6944 20.7333 41.8544 19.96 41.8544 19.08C41.8544 16.76 40.441 15.6 37.6144 15.6C37.2677 15.6 36.841 15.64 36.3344 15.72C35.8277 15.7733 35.4677 15.84 35.2544 15.92L33.4544 24.28ZM64.6003 0.999998L69.8003 0.999998L80.9203 0.999998L79.8803 5.88L68.7603 5.88L67.5203 11.72C67.9736 11.64 68.5203 11.56 69.1603 11.48C69.8003 11.4 70.427 11.36 71.0403 11.36C72.507 11.36 73.747 11.56 74.7603 11.96C75.8003 12.36 76.6403 12.8933 77.2803 13.56C77.9203 14.2267 78.387 15 78.6803 15.88C79.0003 16.76 79.1603 17.6667 79.1603 18.6C79.1603 20.28 78.867 21.7867 78.2803 23.12C77.7203 24.4533 76.8803 25.5867 75.7603 26.52C74.667 27.4533 73.3203 28.1733 71.7203 28.68C70.1203 29.16 68.307 29.4 66.2803 29.4C65.8536 29.4 65.347 29.3867 64.7603 29.36C64.2003 29.36 63.5336 29.32 62.7603 29.24C61.987 29.1867 61.2403 29.12 60.5203 29.04C59.827 28.96 59.227 28.8533 58.7203 28.72L64.6003 0.999998ZM64.7603 24.68C65.027 24.76 65.4403 24.8133 66.0003 24.84C66.5603 24.8667 67.107 24.88 67.6403 24.88C68.387 24.88 69.1203 24.7733 69.8403 24.56C70.5603 24.32 71.2003 23.9867 71.7603 23.56C72.347 23.1067 72.8136 22.5467 73.1603 21.88C73.507 21.2133 73.6803 20.44 73.6803 19.56C73.6803 18.1733 73.267 17.2133 72.4403 16.68C71.6403 16.1467 70.507 15.88 69.0403 15.88C68.667 15.88 68.2136 15.92 67.6803 16C67.147 16.0533 66.7736 16.1067 66.5603 16.16L64.7603 24.68ZM87.3144 1.28C88.4344 1.06667 89.621 0.906665 90.8744 0.799998C92.1544 0.666665 93.4344 0.599998 94.7144 0.599998C96.0744 0.599998 97.3277 0.759999 98.4744 1.08C99.6477 1.37333 100.661 1.84 101.514 2.48C102.394 3.12 103.074 3.94666 103.554 4.96C104.034 5.94667 104.274 7.13333 104.274 8.52C104.274 10.6 103.914 12.3467 103.194 13.76C102.474 15.1467 101.514 16.28 100.314 17.16C99.141 18.0133 97.7944 18.6267 96.2744 19C94.7544 19.3467 93.2077 19.52 91.6344 19.52C91.501 19.52 91.2877 19.52 90.9944 19.52C90.7277 19.52 90.4344 19.52 90.1144 19.52C89.821 19.4933 89.5277 19.4667 89.2344 19.44C88.9677 19.4133 88.7677 19.3867 88.6344 19.36L86.6344 29H81.4344L87.3144 1.28ZM89.6744 14.64C89.781 14.6667 89.9277 14.6933 90.1144 14.72C90.301 14.7467 90.501 14.7733 90.7144 14.8C90.9544 14.8 91.1677 14.8 91.3544 14.8C91.5677 14.8 91.7277 14.8 91.8344 14.8C92.741 14.8 93.6077 14.7067 94.4344 14.52C95.2877 14.3067 96.0344 13.9867 96.6744 13.56C97.3144 13.1067 97.821 12.52 98.1944 11.8C98.5944 11.08 98.7944 10.2 98.7944 9.16C98.7944 8.38667 98.661 7.74667 98.3944 7.24C98.1544 6.73333 97.821 6.34667 97.3944 6.08C96.9677 5.78667 96.461 5.58667 95.8744 5.48C95.3144 5.37333 94.7144 5.32 94.0744 5.32C93.5944 5.32 93.1277 5.34667 92.6744 5.4C92.2477 5.42666 91.8877 5.46667 91.5944 5.52L89.6744 14.64ZM115.977 22.8H107.817L104.497 29H98.9769L114.537 0.799998L118.377 0.799998L122.017 29H116.777L115.977 22.8ZM110.097 18.4H115.777L115.137 12.16L115.177 7.76H114.977L113.377 12.2L110.097 18.4ZM146.13 5.88L138.37 5.88L133.45 29H128.29L133.17 5.88L125.41 5.88L126.45 0.999998L147.13 0.999998L146.13 5.88ZM150.925 0.999998L156.125 0.999998L154.005 11.04C154.325 10.9867 154.819 10.92 155.485 10.84C156.179 10.76 156.819 10.72 157.405 10.72C158.632 10.72 159.752 10.8933 160.765 11.24C161.779 11.56 162.659 12.04 163.405 12.68C164.152 13.32 164.725 14.1067 165.125 15.04C165.552 15.9733 165.765 17.0533 165.765 18.28C165.765 20.28 165.419 21.9867 164.725 23.4C164.032 24.8133 163.085 25.96 161.885 26.84C160.685 27.72 159.272 28.3733 157.645 28.8C156.019 29.2 154.285 29.4 152.445 29.4C152.099 29.4 151.645 29.3867 151.085 29.36C150.525 29.36 149.872 29.3333 149.125 29.28C148.405 29.2267 147.685 29.16 146.965 29.08C146.245 29 145.605 28.88 145.045 28.72L150.925 0.999998ZM151.165 24.28C151.459 24.3333 151.832 24.3867 152.285 24.44C152.739 24.4933 153.219 24.52 153.725 24.52C154.605 24.52 155.432 24.4267 156.205 24.24C157.005 24.0267 157.699 23.7067 158.285 23.28C158.899 22.8267 159.379 22.2667 159.725 21.6C160.099 20.9333 160.285 20.12 160.285 19.16C160.285 17.8267 159.859 16.8933 159.005 16.36C158.152 15.8267 157.019 15.5733 155.605 15.6C155.445 15.6 155.232 15.6133 154.965 15.64C154.699 15.6667 154.432 15.6933 154.165 15.72C153.925 15.7467 153.685 15.7867 153.445 15.84C153.232 15.8667 153.072 15.8933 152.965 15.92L151.165 24.28ZM26 74H22.36L22.84 69H5.76L4.12 74H0.44L2.52 64.12H5.32C5.56 63.8267 6 63.1867 6.64 62.2C7.30667 61.1867 8.04 59.76 8.84 57.92C9.64 56.0533 10.4667 53.7333 11.32 50.96C12.2 48.1867 12.9867 44.8667 13.68 41H18.36H24.44L29.64 41L24.72 64.12H28.12L26 74ZM19.56 64.12L23.4 45.88H17.56C16.44 50.68 15.28 54.5867 14.08 57.6C12.88 60.6133 11.8267 62.7867 10.92 64.12H19.56ZM37.0034 41.28C38.1234 41.0667 39.3101 40.9067 40.5634 40.8C41.8434 40.6667 43.1234 40.6 44.4034 40.6C45.7634 40.6 47.0168 40.76 48.1634 41.08C49.3368 41.3733 50.3501 41.84 51.2034 42.48C52.0834 43.12 52.7634 43.9467 53.2434 44.96C53.7234 45.9467 53.9634 47.1333 53.9634 48.52C53.9634 50.6 53.6034 52.3467 52.8834 53.76C52.1634 55.1467 51.2034 56.28 50.0034 57.16C48.8301 58.0133 47.4834 58.6267 45.9634 59C44.4434 59.3467 42.8968 59.52 41.3234 59.52C41.1901 59.52 40.9768 59.52 40.6834 59.52C40.4168 59.52 40.1234 59.52 39.8034 59.52C39.5101 59.4933 39.2168 59.4667 38.9234 59.44C38.6568 59.4133 38.4568 59.3867 38.3234 59.36L36.3234 69H31.1234L37.0034 41.28ZM39.3634 54.64C39.4701 54.6667 39.6168 54.6933 39.8034 54.72C39.9901 54.7467 40.1901 54.7733 40.4034 54.8C40.6434 54.8 40.8568 54.8 41.0434 54.8C41.2568 54.8 41.4168 54.8 41.5234 54.8C42.4301 54.8 43.2968 54.7067 44.1234 54.52C44.9768 54.3067 45.7234 53.9867 46.3634 53.56C47.0034 53.1067 47.5101 52.52 47.8834 51.8C48.2834 51.08 48.4834 50.2 48.4834 49.16C48.4834 48.3867 48.3501 47.7467 48.0834 47.24C47.8434 46.7333 47.5101 46.3467 47.0834 46.08C46.6568 45.7867 46.1501 45.5867 45.5634 45.48C45.0034 45.3733 44.4034 45.32 43.7634 45.32C43.2834 45.32 42.8168 45.3467 42.3634 45.4C41.9368 45.4267 41.5768 45.4667 41.2834 45.52L39.3634 54.64ZM64.9344 53.36L64.9744 57H65.2144L66.5344 53.24L73.0544 41H78.8544L67.6544 60.36C66.7744 61.88 65.9877 63.2 65.2944 64.32C64.601 65.44 63.9077 66.3733 63.2144 67.12C62.5477 67.84 61.8277 68.3867 61.0544 68.76C60.281 69.1067 59.3744 69.28 58.3344 69.28C56.7077 69.28 55.401 68.96 54.4144 68.32L56.6944 63.88C57.0677 64.0933 57.4144 64.24 57.7344 64.32C58.0544 64.3733 58.4144 64.4 58.8144 64.4C59.3744 64.4 59.921 64.12 60.4544 63.56C60.9877 62.9733 61.5077 62.2267 62.0144 61.32L56.4144 41H62.1344L64.9344 53.36ZM96.0903 45.88H85.8503L80.9703 69H75.7703L81.6903 41H97.1303L96.0903 45.88ZM103.8 53.36L103.84 57H104.08L105.4 53.24L111.92 41L117.72 41L106.52 60.36C105.64 61.88 104.853 63.2 104.16 64.32C103.467 65.44 102.773 66.3733 102.08 67.12C101.413 67.84 100.693 68.3867 99.92 68.76C99.1467 69.1067 98.24 69.28 97.2 69.28C95.5733 69.28 94.2667 68.96 93.28 68.32L95.56 63.88C95.9333 64.0933 96.28 64.24 96.6 64.32C96.92 64.3733 97.28 64.4 97.68 64.4C98.24 64.4 98.7867 64.12 99.32 63.56C99.8533 62.9733 100.373 62.2267 100.88 61.32L95.28 41H101L103.8 53.36ZM123.356 52.4H126.756C127.876 48.48 129.569 45.5067 131.836 43.48C134.129 41.4533 136.783 40.44 139.796 40.44C142.703 40.44 144.929 41.32 146.476 43.08C148.049 44.84 148.836 47.2533 148.836 50.32C148.836 52.9067 148.516 55.3733 147.876 57.72C147.263 60.04 146.356 62.08 145.156 63.84C143.956 65.6 142.463 67 140.676 68.04C138.889 69.0533 136.836 69.56 134.516 69.56C133.023 69.56 131.729 69.3067 130.636 68.8C129.569 68.2667 128.689 67.5467 127.996 66.64C127.303 65.7067 126.783 64.6267 126.436 63.4C126.116 62.1733 125.956 60.84 125.956 59.4C125.956 58.7067 125.996 58 126.076 57.28H122.316L119.836 69H114.636L120.556 41H125.756L123.356 52.4ZM131.236 59.04C131.236 60.7467 131.556 62.12 132.196 63.16C132.836 64.1733 133.929 64.68 135.476 64.68C136.676 64.68 137.756 64.2933 138.716 63.52C139.703 62.72 140.529 61.68 141.196 60.4C141.889 59.0933 142.423 57.6 142.796 55.92C143.169 54.2133 143.356 52.4533 143.356 50.64C143.356 48.96 143.009 47.6533 142.316 46.72C141.623 45.7867 140.556 45.32 139.116 45.32C137.943 45.32 136.876 45.7067 135.916 46.48C134.956 47.2267 134.129 48.24 133.436 49.52C132.743 50.7733 132.196 52.2267 131.796 53.88C131.423 55.5333 131.236 57.2533 131.236 59.04ZM166.296 41.28C167.416 41.0667 168.602 40.9067 169.856 40.8C171.136 40.6667 172.416 40.6 173.696 40.6C175.056 40.6 176.309 40.76 177.456 41.08C178.629 41.3733 179.642 41.84 180.496 42.48C181.376 43.12 182.056 43.9467 182.536 44.96C183.016 45.9467 183.256 47.1333 183.256 48.52C183.256 50.6 182.896 52.3467 182.176 53.76C181.456 55.1467 180.496 56.28 179.296 57.16C178.122 58.0133 176.776 58.6267 175.256 59C173.736 59.3467 172.189 59.52 170.616 59.52C170.482 59.52 170.269 59.52 169.976 59.52C169.709 59.52 169.416 59.52 169.096 59.52C168.802 59.4933 168.509 59.4667 168.216 59.44C167.949 59.4133 167.749 59.3867 167.616 59.36L165.616 69H160.416L166.296 41.28ZM168.656 54.64C168.762 54.6667 168.909 54.6933 169.096 54.72C169.282 54.7467 169.482 54.7733 169.696 54.8C169.936 54.8 170.149 54.8 170.336 54.8C170.549 54.8 170.709 54.8 170.816 54.8C171.722 54.8 172.589 54.7067 173.416 54.52C174.269 54.3067 175.016 53.9867 175.656 53.56C176.296 53.1067 176.802 52.52 177.176 51.8C177.576 51.08 177.776 50.2 177.776 49.16C177.776 48.3867 177.642 47.7467 177.376 47.24C177.136 46.7333 176.802 46.3467 176.376 46.08C175.949 45.7867 175.442 45.5867 174.856 45.48C174.296 45.3733 173.696 45.32 173.056 45.32C172.576 45.32 172.109 45.3467 171.656 45.4C171.229 45.4267 170.869 45.4667 170.576 45.52L168.656 54.64ZM189.128 41H194.328L204.888 41L203.848 45.88L193.288 45.88L191.888 52.4H201.528L200.448 57.28H190.888L189.408 64.12H200.168L199.168 69H188.408H183.208L189.128 41ZM208.965 56.64L209.885 52.32H210.805C211.045 52.32 211.325 52.32 211.645 52.32C211.965 52.2933 212.285 52.2667 212.605 52.24C212.952 52.2133 213.285 52.1867 213.605 52.16C213.925 52.1333 214.192 52.1067 214.405 52.08C214.938 52 215.472 51.88 216.005 51.72C216.538 51.5333 217.005 51.28 217.405 50.96C217.832 50.64 218.178 50.2533 218.445 49.8C218.712 49.3467 218.845 48.8 218.845 48.16C218.845 47.3067 218.512 46.64 217.845 46.16C217.205 45.6533 216.245 45.4 214.965 45.4C213.845 45.4 212.765 45.56 211.725 45.88C210.712 46.2 209.872 46.5067 209.205 46.8L208.845 42.16C209.165 42 209.592 41.8267 210.125 41.64C210.685 41.4533 211.298 41.28 211.965 41.12C212.658 40.96 213.405 40.8267 214.205 40.72C215.005 40.5867 215.805 40.52 216.605 40.52C217.725 40.52 218.752 40.6533 219.685 40.92C220.618 41.16 221.432 41.5333 222.125 42.04C222.818 42.5467 223.352 43.1867 223.725 43.96C224.125 44.7067 224.325 45.5733 224.325 46.56C224.325 48.4 223.818 50.0133 222.805 51.4C221.818 52.7867 220.338 53.7067 218.365 54.16V54.36C218.872 54.52 219.365 54.7467 219.845 55.04C220.325 55.3067 220.738 55.6667 221.085 56.12C221.458 56.5733 221.752 57.12 221.965 57.76C222.205 58.4 222.325 59.16 222.325 60.04C222.325 61.6667 222.005 63.08 221.365 64.28C220.725 65.4533 219.845 66.44 218.725 67.24C217.632 68.0133 216.338 68.6 214.845 69C213.352 69.3733 211.765 69.56 210.085 69.56C208.405 69.56 206.898 69.4133 205.565 69.12C204.258 68.8267 203.285 68.48 202.645 68.08L204.965 63.32C205.498 63.6133 206.272 63.92 207.285 64.24C208.298 64.5333 209.552 64.68 211.045 64.68C211.685 64.68 212.352 64.6 213.045 64.44C213.738 64.28 214.365 64.0267 214.925 63.68C215.485 63.3067 215.938 62.8267 216.285 62.24C216.658 61.6533 216.845 60.9333 216.845 60.08C216.845 58.8 216.378 57.92 215.445 57.44C214.538 56.96 213.232 56.6933 211.525 56.64H210.005H208.965ZM243.878 53.76L245.038 50.2H244.798L242.238 54.04L229.198 69H225.198L231.118 41H236.318L233.158 55.96L231.958 59.64H232.198L234.838 55.68L247.798 41H251.798L245.878 69H240.678L243.878 53.76ZM268.906 57.28H259.186L256.706 69H251.506L257.426 41H262.626L260.226 52.4H269.946L272.346 41H277.546L271.626 69H266.426L268.906 57.28ZM289.067 53.36L289.107 57H289.347L290.667 53.24L297.187 41H302.987L291.787 60.36C290.907 61.88 290.121 63.2 289.427 64.32C288.734 65.44 288.041 66.3733 287.347 67.12C286.681 67.84 285.961 68.3867 285.187 68.76C284.414 69.1067 283.507 69.28 282.467 69.28C280.841 69.28 279.534 68.96 278.547 68.32L280.827 63.88C281.201 64.0933 281.547 64.24 281.867 64.32C282.187 64.3733 282.547 64.4 282.947 64.4C283.507 64.4 284.054 64.12 284.587 63.56C285.121 62.9733 285.641 62.2267 286.147 61.32L280.547 41H286.267L289.067 53.36Z" fill="white"/>
</svg>
