<svg width="62" height="122" viewBox="0 0 62 122" fill="none" xmlns="http://www.w3.org/2000/svg">
<mask id="mask0_348_703" style="mask-type:luminance" maskUnits="userSpaceOnUse" x="2" y="0" width="57" height="122">
<path d="M55.9092 55.5144L56.3017 45.3678C57.9151 40.1376 58.3052 34.6067 57.442 29.2019L56.31 13.1475C56.1199 11.9783 55.3226 10.3754 54.2897 8.69803C52.6842 6.09452 50.4476 3.93825 47.7871 2.42892C45.1267 0.919591 42.1284 0.106012 39.0699 0.0635288C33.8148 -0.019098 27.4774 -0.0232293 22.0984 0.0635288C18.541 0.0963822 15.0722 1.17712 12.1256 3.17063C9.17906 5.16414 6.88552 7.98197 5.53169 11.2719C5.27411 11.8759 5.08294 12.5062 4.96156 13.1516L3.83783 29.2019C2.97462 34.6067 3.36475 40.1376 4.97809 45.3678L5.39122 55.5144L4.8748 67.4952C4.74691 72.7485 4.31792 77.9902 3.58996 83.1943C3.21814 85.826 2.90002 95.39 2.90002 95.6503C2.90002 96.0304 3.37926 104.896 3.72629 111.577C3.97004 116.121 6.52321 120.112 10.3364 122H50.9103C54.7442 120.112 57.2932 116.105 57.5411 111.577C57.9047 104.896 58.3674 96.0304 58.3674 95.6503C58.3674 95.39 58.0451 85.826 57.6774 83.1943C56.9461 77.9905 56.5157 72.7487 56.3885 67.4952L55.9092 55.5144Z" fill="white"/>
</mask>
<g mask="url(#mask0_348_703)">
<path d="M59.0535 51.7589L59.4914 40.9678C61.306 35.4278 61.747 29.5297 60.7763 23.7814L59.5038 6.72726C58.7974 2.55047 54.8189 -1.12229 50.6628 -1.43214L41.1607 -2.1386C33.8848 -2.69013 26.5776 -2.69013 19.3018 -2.1386L10.597 -1.46932C6.44505 -1.1512 2.47483 2.52568 1.76837 6.69834L0.495919 23.7773C-0.476092 29.5252 -0.036571 35.4233 1.77664 40.9637L2.22695 51.7589L1.64857 64.5082C1.50455 70.096 1.02028 75.6699 0.198462 81.1988C-0.214672 83.9916 -0.574097 86.4993 -0.574097 86.7761C-0.574097 87.1892 -0.0370253 103.818 0.371977 110.92C0.500145 113.266 1.261 115.535 2.57386 117.484C3.88672 119.433 5.70264 120.991 7.82905 121.992H53.4556C55.5796 120.988 57.3923 119.428 58.7015 117.477C60.0107 115.526 60.7676 113.257 60.892 110.911C61.3051 103.81 61.8422 87.1727 61.8422 86.7678C61.8422 86.491 61.4786 83.9833 61.0655 81.1905C60.2457 75.6613 59.7615 70.0876 59.6154 64.4999L59.0535 51.7589Z" fill="#535353"/>
<g style="mix-blend-mode:multiply">
<path d="M33.8684 -3.67554L34.3931 12.0979L49.2659 19.5922L48.0678 38.3732L49.7741 48.999L48.8321 95.584C48.8321 95.584 37.8469 110.159 37.5907 110.668C37.3346 111.176 35.0376 116.261 35.0376 116.261L35.6738 127.788L55.6034 129.82L65.6962 102.107L65.436 48.3628L61.8582 6.6652L58.5532 -3.16738L33.8684 -3.67554Z" fill="#7C7C7C"/>
</g>
<g style="mix-blend-mode:multiply">
<path d="M27.0433 -3.67554L26.8946 11.3295L12.6827 18.5263L14.0337 38.3567L12.4679 48.9825L13.3314 95.5675C13.3314 95.5675 23.4118 110.143 23.6597 110.651C23.9076 111.159 26.0063 116.245 26.0063 116.245L25.4031 127.775L7.11783 129.808L-2.1405 109.3L-1.90501 48.3628L1.37527 6.6652L4.4242 -3.16738L27.0433 -3.67554Z" fill="#7C7C7C"/>
</g>
<path d="M12.1873 41.637L11.2123 20.6994C11.1037 18.3588 11.7285 16.0426 12.9993 14.0741C14.2702 12.1056 16.1239 10.5828 18.3017 9.71829C26.1299 6.61278 34.8483 6.61278 42.6766 9.71829L43.1765 9.91659C45.41 10.8033 47.3008 12.3818 48.5721 14.4211C49.8434 16.4604 50.4283 18.8531 50.2411 21.2489L48.6381 41.7899L12.1873 41.637Z" fill="#525151"/>
<g style="mix-blend-mode:multiply">
<path d="M21.0036 1.1626H41.7099L42.9452 3.41418L35.5212 2.06323H26.6305L20.4418 3.30263L21.0036 1.1626Z" fill="#9C888B"/>
</g>
</g>
<path d="M30.8034 37.1133C23.2224 37.1133 17.7732 37.8321 14.055 38.6254C13.1894 38.805 12.3692 39.1583 11.6438 39.6637C10.9185 40.1691 10.3031 40.8162 9.83481 41.566C9.36648 42.3158 9.05492 43.1527 8.91894 44.0262C8.78296 44.8997 8.82538 45.7917 9.04364 46.6484L11.9686 57.9146C19.277 56.5801 42.6686 56.5801 49.9769 57.9146L52.7904 47.0657C53.0104 46.2087 53.0541 45.3159 52.9186 44.4415C52.7832 43.5671 52.4715 42.7293 52.0024 41.9791C51.5334 41.2288 50.9169 40.5816 50.1902 40.0768C49.4634 39.5721 48.6418 39.2202 47.7749 39.0426C42.1979 37.8251 36.5114 37.1786 30.8034 37.1133Z" fill="#2B2B2B"/>
<path opacity="0.11" d="M51.6872 45.5622C51.678 45.9554 51.624 46.3463 51.5261 46.7272L49.0101 56.4193C45.4331 55.9178 41.8268 55.6542 38.2149 55.6302H36.4922H25.4532H23.685C22.6274 55.6509 21.4871 55.6798 20.3014 55.7335C18.1779 55.8327 15.9222 56.0062 13.7657 56.2995L12.9394 56.4193L10.82 48.2517L10.3201 46.3099C10.1395 45.6303 10.1009 44.9208 10.2068 44.2256C10.3127 43.5304 10.5608 42.8645 10.9357 42.2695C11.311 41.6622 11.806 41.1377 12.3905 40.7278C12.9751 40.318 13.6369 40.0315 14.3358 39.8857C17.9032 39.1552 21.5223 38.7049 25.1599 38.5389C26.9612 38.4453 28.8437 38.3984 30.8074 38.3984C31.0099 38.3984 31.2206 38.3984 31.423 38.3984C32.5178 38.3984 33.6002 38.448 34.6702 38.5059C38.9853 38.7876 43.274 39.3841 47.5022 40.2906C47.6674 40.3278 47.8244 40.365 47.9773 40.4104C49.1919 40.7836 50.2308 41.5832 50.9023 42.662C51.4479 43.5285 51.7213 44.5387 51.6872 45.5622Z" fill="white"/>
<path opacity="0.11" d="M51.6877 45.562C42.667 44.1979 33.5035 44.059 24.4456 45.1489C19.8226 45.7025 15.1542 46.6155 10.8122 48.2722L10.3123 46.3305C10.1316 45.6509 10.0931 44.9413 10.199 44.2461C10.3049 43.5509 10.553 42.885 10.9279 42.29C11.3032 41.6827 11.7981 41.1582 12.3827 40.7484C12.9672 40.3385 13.6291 40.052 14.328 39.9062C18.9303 38.9189 24.4704 38.4231 30.8037 38.4231C36.4185 38.4921 42.0119 39.1288 47.4985 40.3235C48.1965 40.4674 48.8579 40.7518 49.4424 41.1595C50.027 41.5672 50.5224 42.0896 50.8986 42.6949C51.4393 43.5516 51.7139 44.5493 51.6877 45.562Z" fill="white"/>
<path opacity="0.11" d="M31.4232 38.4228L20.3017 55.7455C18.1781 55.8446 15.9224 56.0181 13.7659 56.3115L25.1601 38.5467C26.9614 38.4531 28.8439 38.4062 30.8076 38.4062C31.0101 38.4145 31.2167 38.4145 31.4232 38.4228Z" fill="white"/>
<path opacity="0.11" d="M47.9773 40.4351L38.215 55.6426H36.4922H25.4533H23.6851L34.6703 38.5388C38.9853 38.8206 43.2741 39.4171 47.5022 40.3236C47.6716 40.3525 47.8245 40.3897 47.9773 40.4351Z" fill="white"/>
<path d="M50.3736 60.4843L54.3934 45.0166V108.676C54.3934 110.577 50.1216 98.4472 50.1216 98.4472L50.3736 60.4843Z" fill="#2B2B2B"/>
<path opacity="0.11" d="M53.2819 103.814C52.6333 102.124 51.9062 100.141 51.2369 98.2487L51.4848 60.6122L53.2819 53.7129V103.814Z" fill="white"/>
<path d="M50.873 84.2688L53.8889 87.2641L53.4717 82.9386L51.2944 81.5256L50.873 84.2688Z" fill="#2B2B2B"/>
<path d="M11.3698 60.4843L7.34998 45.0166V108.676C7.34998 110.577 11.6218 98.4472 11.6218 98.4472L11.3698 60.4843Z" fill="#2B2B2B"/>
<path opacity="0.11" d="M8.46082 103.814C9.10944 102.124 9.83655 100.141 10.5058 98.2487L10.2538 60.6122L8.46082 53.7129V103.814Z" fill="white"/>
<path d="M10.8652 84.2688L7.84937 87.2641L8.26663 82.9386L10.4438 81.5256L10.8652 84.2688Z" fill="#2B2B2B"/>
<path d="M31.2248 99.6823H14.4681C14.2651 99.6821 14.0642 99.7231 13.8775 99.8028C13.6908 99.8825 13.5223 99.9993 13.3821 100.146C13.2418 100.293 13.1329 100.467 13.0618 100.657C12.9907 100.847 12.9589 101.049 12.9684 101.252L13.427 108.808C13.546 110.685 14.3775 112.445 15.7513 113.729C17.1251 115.013 18.9376 115.724 20.818 115.716H41.3012C43.181 115.722 44.9923 115.011 46.3657 113.727C47.7391 112.444 48.5712 110.684 48.6921 108.808L49.1466 101.252C49.159 101.049 49.1295 100.844 49.0599 100.653C48.9903 100.461 48.882 100.285 48.7418 100.137C48.6016 99.9886 48.4325 99.8706 48.2449 99.7903C48.0572 99.7099 47.8551 99.669 47.651 99.6699L31.2248 99.6823Z" fill="#2B2B2B"/>
<path opacity="0.11" d="M48.0313 101.182L47.5728 108.739C47.4708 110.332 46.7654 111.826 45.6003 112.918C44.4352 114.009 42.8979 114.616 41.3014 114.613H20.8182C20.5419 114.613 20.266 114.595 19.9919 114.56C19.0731 114.439 18.1922 114.117 17.4118 113.617C16.6314 113.117 15.9706 112.452 15.4764 111.668C14.9159 110.787 14.5902 109.777 14.5303 108.735L14.0717 101.178C14.0699 101.073 14.1083 100.971 14.1791 100.893C14.2151 100.855 14.2587 100.825 14.307 100.804C14.3554 100.783 14.4075 100.773 14.4601 100.773H47.6389C47.6917 100.774 47.7438 100.785 47.7921 100.806C47.8404 100.828 47.8839 100.859 47.9199 100.897C47.9558 100.936 47.9835 100.982 48.0013 101.031C48.019 101.081 48.0264 101.134 48.0231 101.187L48.0313 101.182Z" fill="white"/>
<path d="M52.2494 9.88362C52.2494 9.88362 50.977 8.85079 49.4153 7.65683C48.2255 6.7438 46.8621 5.73989 45.7632 5.02517C43.9165 3.81469 43.2513 1.26978 43.2513 1.26978L43.8834 1.62921L44.1809 1.79859C44.8336 2.18281 45.7012 2.73227 46.6101 3.30653C46.6804 3.3561 46.7465 3.39742 46.8167 3.43873C47.5025 3.87252 48.2048 4.31044 48.8369 4.69879L48.8824 4.73597C49.2955 5.04582 49.7086 5.32675 50.0928 5.56224C50.1589 5.59942 50.225 5.63661 50.287 5.67792C50.3128 5.69443 50.3376 5.71236 50.3614 5.73162C50.7258 5.98501 51.0408 6.30283 51.2909 6.66944C51.7023 7.32257 51.9829 8.04936 52.1172 8.80947C52.1172 8.87144 52.142 8.93341 52.1503 8.99125C52.1792 9.13998 52.1957 9.27631 52.2081 9.40438C52.2205 9.53245 52.2081 9.53245 52.2081 9.59029C52.2061 9.61504 52.2061 9.63991 52.2081 9.66466V9.73076C52.206 9.75137 52.206 9.77213 52.2081 9.79273V9.8547C52.224 9.86078 52.2382 9.87072 52.2494 9.88362Z" fill="#F6F6F6"/>
<path d="M52.2495 9.88361C51.8116 8.10713 49.8616 6.45047 48.2834 5.35979C48.0645 5.21106 47.8496 5.0582 47.6389 4.90534C46.2847 3.93974 45.027 2.84534 43.8835 1.63745L44.181 1.80684C44.8338 2.19105 45.7013 2.74052 46.6102 3.31478C46.6805 3.36436 46.7466 3.40567 46.8168 3.44698C47.5026 3.88077 48.2049 4.31869 48.837 4.70704L48.8825 4.74422C49.2268 4.99784 49.584 5.23364 49.9525 5.45068C50.068 5.51738 50.1797 5.59048 50.2871 5.66964C50.3129 5.68615 50.3377 5.70409 50.3615 5.72335C50.7259 5.97674 51.0409 6.29456 51.291 6.66116C51.7024 7.31429 51.983 8.04109 52.1173 8.8012C52.1173 8.86317 52.1421 8.92514 52.1504 8.98298C52.1793 9.13171 52.1958 9.26804 52.2082 9.39611C52.2206 9.52418 52.2082 9.52418 52.2082 9.58202C52.2062 9.60677 52.2062 9.63163 52.2082 9.65638V9.72249C52.2061 9.74309 52.2061 9.76385 52.2082 9.78445V9.84643C52.2251 9.85481 52.2394 9.86767 52.2495 9.88361Z" fill="#B3B3C5"/>
<g style="mix-blend-mode:multiply">
<path d="M52.2488 9.88349C52.2488 9.88349 50.9763 8.85065 49.4147 7.6567L47.6382 4.89696L46.6136 3.3064C46.6839 3.35597 46.75 3.39728 46.8202 3.4386C47.506 3.87239 48.2083 4.31031 48.8404 4.69866L48.8859 4.73584C49.2303 4.98945 49.5874 5.22525 49.9559 5.4423C50.0714 5.509 50.1832 5.5821 50.2905 5.66126C50.3163 5.67777 50.3411 5.6957 50.3649 5.71497C51.2959 6.50275 51.9215 7.59175 52.1331 8.79281C52.1331 8.85478 52.1579 8.91676 52.1662 8.97459C52.1951 9.12332 52.2116 9.25966 52.224 9.38773C52.2364 9.5158 52.224 9.5158 52.224 9.57364C52.224 9.63148 52.224 9.67279 52.224 9.7141C52.2219 9.73471 52.2219 9.75547 52.224 9.77608V9.83804C52.236 9.85084 52.2445 9.86648 52.2488 9.88349Z" fill="#DFDBE2"/>
</g>
<path d="M9.66333 9.88362C9.66333 9.88362 10.9358 8.85079 12.4933 7.65683C13.6873 6.7438 15.0506 5.73989 16.1454 5.02517C17.9962 3.81469 18.6614 1.26978 18.6614 1.26978L18.0252 1.62921L17.7318 1.79859C17.0791 2.18281 16.2115 2.73227 15.2985 3.30653C15.2321 3.35443 15.1632 3.39856 15.0919 3.43873C14.4061 3.87252 13.7079 4.31044 13.0717 4.69879L13.0262 4.73597C12.6131 5.04582 12.2 5.32675 11.8158 5.56224C11.7497 5.59942 11.6836 5.63661 11.6216 5.67792C11.5958 5.69443 11.571 5.71236 11.5472 5.73162C11.1828 5.98501 10.8678 6.30283 10.6177 6.66944C10.2063 7.32257 9.92568 8.04936 9.7914 8.80947C9.7914 8.87144 9.76248 8.93341 9.75422 8.99125C9.72943 9.13998 9.71291 9.27631 9.69638 9.40438C9.67986 9.53245 9.69638 9.53245 9.69638 9.59029V9.66466V9.79273C9.69428 9.81333 9.69428 9.8341 9.69638 9.8547L9.66333 9.88362Z" fill="#F6F6F6"/>
<path d="M9.66333 9.88361C10.1054 8.10713 12.0554 6.45047 13.6335 5.35979C13.8484 5.21106 14.0673 5.0582 14.278 4.90534C15.631 3.93971 16.8873 2.84531 18.0293 1.63745L17.736 1.80684C17.0832 2.19105 16.2156 2.74052 15.3026 3.31478C15.2363 3.36268 15.1673 3.40681 15.096 3.44698C14.4102 3.88077 13.712 4.31869 13.0758 4.70704L13.0304 4.74422C12.686 4.99784 12.3289 5.23364 11.9604 5.45068C11.8436 5.51544 11.7318 5.58862 11.6257 5.66964C11.6 5.68615 11.5751 5.70409 11.5514 5.72335C11.187 5.97674 10.872 6.29456 10.6218 6.66116C10.2104 7.31429 9.92982 8.04109 9.79554 8.8012C9.79554 8.86317 9.76661 8.92514 9.75835 8.98298C9.73356 9.13171 9.71704 9.26804 9.70051 9.39611C9.68399 9.52418 9.70051 9.52418 9.70051 9.58202V9.65638V9.78445C9.69841 9.80506 9.69841 9.82582 9.70051 9.84643L9.66333 9.88361Z" fill="#B3B3C5"/>
<g style="mix-blend-mode:multiply">
<path d="M9.66333 9.88349C9.66333 9.88349 10.9358 8.85065 12.4933 7.6567L14.2739 4.89696C14.6168 4.36402 14.9597 3.83521 15.2943 3.3064C15.228 3.3543 15.1591 3.39843 15.0878 3.4386C14.402 3.87239 13.7038 4.31031 13.0676 4.69866L13.0221 4.73584C12.6777 4.98945 12.3206 5.22525 11.9521 5.4423C11.8354 5.50706 11.7235 5.58024 11.6175 5.66126C11.5917 5.67777 11.5669 5.6957 11.5431 5.71497C10.6182 6.50534 9.99864 7.59403 9.7914 8.79281C9.7914 8.85478 9.76248 8.91676 9.75422 8.97459C9.72943 9.12332 9.71291 9.25966 9.69638 9.38773C9.67986 9.5158 9.69638 9.5158 9.69638 9.57364C9.69638 9.63148 9.69638 9.67279 9.69638 9.7141V9.77608C9.69428 9.79668 9.69428 9.81744 9.69638 9.83804L9.66333 9.88349Z" fill="#DFDBE2"/>
</g>
<path opacity="0.11" d="M28.8451 100.777L19.9916 114.555C19.0728 114.434 18.1919 114.112 17.4115 113.613C16.6311 113.113 15.9703 112.447 15.4761 111.663L22.4704 100.777H28.8451Z" fill="white"/>
<path opacity="0.11" d="M47.2419 100.777L38.3678 114.609H23.3876L32.27 100.777H47.2419Z" fill="white"/>
<path d="M61.5651 54.9564L54.5419 54.692L54.4716 53.8327L52.8191 54.2458L52.9637 52.4446L55.4921 51.3002L55.8639 51.2754L60.2018 52.1719C61.0735 52.4404 61.4412 54.0351 61.5651 54.9564Z" fill="#535353"/>
<g style="mix-blend-mode:multiply">
<path d="M61.5611 54.9442L54.5378 54.6798L54.4676 53.8205L52.8151 54.2336L52.9597 52.4324L55.488 51.288L55.8599 51.2632C56.0003 52.391 56.0664 54.089 56.0664 54.089L61.5611 54.9442Z" fill="#9C888B"/>
</g>
<path d="M0 54.9564L7.02328 54.692L7.09351 53.8327L8.74604 54.2458L8.60145 52.4446L6.07307 51.3002L5.70125 51.2754L1.36334 52.1719C0.491631 52.4404 0.12394 54.0351 0 54.9564Z" fill="#535353"/>
<g style="mix-blend-mode:multiply">
<path d="M0.00390625 54.9442L7.02718 54.6798L7.09741 53.8205L8.74995 54.2336L8.60536 52.4324L6.07698 51.288L5.70516 51.2632C5.56882 52.391 5.49859 54.089 5.49859 54.089L0.00390625 54.9442Z" fill="#9C888B"/>
</g>
<path d="M53.2616 118.687L51.1959 121.008H51.0843L49.9978 121.075L51.4314 118.687C51.7819 118.104 51.9957 117.448 52.0565 116.771C52.1173 116.093 52.0237 115.411 51.7825 114.774L51.2 113.217L51.4644 112.572L52.1007 111.04L53.716 113.704C54.1805 114.475 54.387 115.374 54.3052 116.27C54.2235 117.166 53.8579 118.013 53.2616 118.687Z" fill="#FD515F"/>
<g style="mix-blend-mode:multiply">
<path d="M52.2818 119.666L51.0879 121.021L50.0013 121.087L51.4308 118.687C51.7813 118.104 51.9951 117.449 52.0559 116.771C52.1167 116.093 52.0231 115.411 51.7819 114.775L51.1994 113.217L51.4638 112.573L52.7363 114.675C53.2021 115.447 53.4093 116.347 53.3275 117.245C53.2458 118.143 52.8794 118.991 52.2818 119.666Z" fill="#9C888B"/>
</g>
<path d="M8.42349 118.687L10.4892 121.008H10.6048L11.6872 121.075L10.2454 118.687C9.89571 118.103 9.68247 117.448 9.62166 116.771C9.56085 116.093 9.65403 115.411 9.89424 114.774L10.4768 113.217L10.2124 112.572L9.58026 111.04L7.96078 113.704C7.49734 114.476 7.29231 115.375 7.37553 116.271C7.45876 117.167 7.8259 118.014 8.42349 118.687Z" fill="#FD515F"/>
<g style="mix-blend-mode:multiply">
<path d="M9.3948 119.666L10.5929 121.021L11.6753 121.087L10.2459 118.687C9.89615 118.103 9.68292 117.448 9.62211 116.771C9.5613 116.093 9.65448 115.411 9.89469 114.775L10.4772 113.217L10.2128 112.573L8.94035 114.675C8.4745 115.447 8.26735 116.347 8.3491 117.245C8.43085 118.143 8.79722 118.991 9.3948 119.666Z" fill="#9C888B"/>
</g>
<path d="M38.9632 89.3485C39.0248 89.0322 39.0898 88.7167 39.1461 88.4004C39.1877 88.1708 39.2171 87.9385 39.2518 87.7071C39.0204 87.7401 38.7882 87.7652 38.5585 87.8085C38.2223 87.8718 37.8886 87.9472 37.5541 88.0174C37.5333 87.9602 37.5125 87.9021 37.4926 87.8441C37.6989 87.7063 37.8999 87.5607 38.1114 87.4316C39.4251 86.6317 39.4711 86.1256 38.14 85.33C35.3244 83.6462 32.3337 82.8169 29.0875 83.9582C26.8222 84.7538 24.517 84.8621 22.1694 84.5848C21.1492 84.4637 20.1674 84.1231 19.2914 83.5865C18.1042 82.8689 17.9413 80.9979 19.184 80.1651C19.4101 80.0225 19.6714 79.9454 19.9388 79.9424C23.809 79.9285 27.6792 79.9346 31.5512 79.932C32.6267 79.932 33.6822 79.7968 34.6935 79.412C37.0775 78.5038 38.3055 75.8919 37.4034 73.6544C37.0454 72.7661 36.1442 71.8128 35.2161 71.4012C35.3729 71.5745 35.4604 71.6742 35.5506 71.7712C36.5515 72.8588 36.9683 74.1241 36.6849 75.5843C36.4146 76.9821 35.548 77.9076 34.2247 78.3461C33.4761 78.6065 32.6926 78.7526 31.9004 78.7794C28.6516 78.8271 25.401 78.8002 22.1529 78.8002C22.0983 78.8002 22.0429 78.7907 21.9441 78.782C22.5273 77.9804 23.3254 77.6667 24.2345 77.5367C25.3186 77.3825 26.3577 77.4908 27.3629 77.9518C27.7576 78.1292 28.1701 78.2637 28.5935 78.3531C29.9307 78.6416 31.8207 77.6121 32.2194 76.372C32.2849 76.1452 32.2594 75.9018 32.1483 75.6935C31.7341 75.0374 30.7886 74.7402 30.0433 74.9603C29.7209 75.0565 29.5736 75.2203 29.7279 75.5609C29.7987 75.7172 29.8176 75.8922 29.7816 76.06L29.0745 75.5089L28.6212 76.171L28.4938 76.132C28.462 75.9891 28.4394 75.8444 28.4263 75.6987C28.4133 75.3018 28.1957 75.1787 27.8274 75.2073C27.5593 75.2321 27.289 75.2008 27.0336 75.1154C27.2193 75.0524 27.401 74.9784 27.5778 74.8936C27.6645 74.8451 27.7971 74.7159 27.7815 74.657C27.76 74.601 27.7273 74.55 27.6855 74.5071C27.6436 74.4642 27.5934 74.4303 27.538 74.4074C27.395 74.352 27.2269 74.3624 27.0726 74.3312C26.9184 74.3 26.7832 74.2558 26.5527 74.1934C27.09 73.7029 27.7659 73.9845 28.3673 73.6093L27.3655 73.1275C27.8283 72.9377 28.2321 72.9862 28.5788 73.2505C29.0441 73.6024 29.4965 73.6284 30.0338 73.4013C30.4111 73.2314 30.8236 73.1545 31.2367 73.177C31.6499 73.1994 32.0516 73.3206 32.4083 73.5304C32.5218 73.5937 32.6379 73.6526 32.7549 73.7038C33.2073 73.9039 33.4083 73.8303 33.6215 73.3918C34.0782 72.4619 33.8754 71.8579 32.9525 71.3579C32.1327 70.9142 31.2375 70.7738 30.3284 70.6967C26.1497 70.3387 21.9606 70.428 17.7749 70.4081C17.131 70.4081 16.488 70.4081 15.7236 70.4081C16.1725 70.0363 16.5157 69.7347 16.8806 69.4617C17.0037 69.39 17.1457 69.3571 17.2878 69.3673C21.2005 69.3812 25.115 69.3673 29.0268 69.434C31.0954 69.4713 33.1423 69.7547 35.0817 70.5502C36.8461 71.2738 38.1408 72.481 38.8852 74.2402C39.0352 74.5946 39.1703 74.696 39.5482 74.4924C40.2683 74.1041 41.0214 74.1215 41.7459 74.5088C41.9996 74.6452 42.2429 74.8002 42.4738 74.9725C43.3942 75.6597 44.3483 76.1926 45.5849 75.7949L44.9575 76.2958L46.2366 76.5757V76.6623L45.0554 76.8894L45.6057 77.9388L45.5087 78.048L44.3673 77.6355C44.298 77.977 44.2356 78.2855 44.1741 78.594L44.0588 78.6078C43.9782 78.4345 43.8855 78.2612 43.8205 78.0879C43.7235 77.8184 43.5779 77.7525 43.3378 77.9293C43.122 78.0887 42.9045 78.2413 42.6827 78.3973L42.5769 78.3158C42.7234 78.0697 42.8456 77.8045 43.0241 77.5827C43.2598 77.2897 43.1974 77.0922 42.9323 76.8616C42.304 76.3174 40.6462 76.2152 40.0084 76.7542C39.835 76.898 39.7336 77.2317 39.7536 77.4648C39.886 78.9781 39.557 80.496 38.8098 81.8186C38.6166 82.1696 38.705 82.3827 39.0109 82.5673C39.1685 82.6685 39.3314 82.7614 39.4988 82.8455C40.0543 83.1055 40.3931 83.5388 40.6184 84.0969C41.0379 85.1368 41.3412 85.2815 42.4747 85.1784C42.9271 85.1377 43.3907 85.2122 43.85 85.2339L43.8552 85.3838L42.3664 85.8491L43.8604 86.6455L43.8214 86.8102H42.0362C42.0665 86.9488 42.1062 87.0851 42.1549 87.2184C42.2667 87.4515 42.4149 87.6681 42.5016 87.9116C42.5769 88.124 42.5882 88.3597 42.6211 88.5859C42.4123 88.5235 42.1878 88.4897 41.9963 88.3909C41.7554 88.2661 41.5457 88.0832 41.3169 87.9324C40.7848 87.5858 40.6748 87.6109 40.277 88.0806C39.907 88.5139 39.5135 88.929 39.1305 89.3519L38.9632 89.3485Z" fill="white"/>
</svg>
