<svg width="133" height="58" viewBox="0 0 133 58" fill="none" xmlns="http://www.w3.org/2000/svg">
<path d="M130.831 37.7222C129.453 38.6778 127.778 39.1072 126.111 38.9322C124.461 38.8322 122.841 38.4123 121.201 38.1922C115.201 37.3822 109.201 39.3222 103.401 40.6522C97.4008 42.0222 92.0309 41.6522 85.9709 41.3722C84.5009 41.3122 82.6809 40.8022 81.2509 41.0622C77.7909 41.6822 74.0508 45.3022 70.9908 46.9722C68.0512 48.7172 64.7418 49.7449 61.3309 49.9722C60.4698 49.9856 59.6094 49.9187 58.7609 49.7722C57.2457 49.5052 55.8134 48.8891 54.5776 47.9727C53.3418 47.0562 52.3363 45.8646 51.6409 44.4922C50.9109 42.8722 51.2609 41.0622 50.4809 40.0322C50.0309 39.4522 49.2309 39.1322 47.6709 39.2422C46.0113 39.5167 44.39 39.9867 42.8408 40.6423C38.3408 42.0523 33.4709 41.1723 28.8909 40.0423C24.3109 38.9123 19.6709 37.5123 14.9809 37.9223C12.9009 38.1023 10.8708 38.6323 8.80084 38.8623C6.53084 39.1123 -0.309139 39.9823 0.0108609 36.1123C0.0288017 35.9363 0.0622715 35.7623 0.110867 35.5922C0.393289 34.8335 0.877325 34.1663 1.51086 33.6623C2.77155 32.6752 4.12837 31.8175 5.56085 31.1023C7.90085 29.7623 10.6609 28.8922 12.9809 27.4022C16.5109 25.1322 19.0609 21.2222 21.6109 17.9722C26.1409 12.1922 33.3009 8.58224 40.1109 12.7722C41.2009 13.4522 42.2508 14.2123 43.3408 14.8923C44.2809 15.5068 45.2872 16.0133 46.3408 16.4022C47.6424 16.8749 49.0311 17.0591 50.4109 16.9422C52.4985 16.7206 54.4916 15.9551 56.1909 14.7222C57.3497 13.9187 58.4222 12.9971 59.3909 11.9722C62.1312 9.01789 65.2244 6.41166 68.6009 4.21224C73.8609 0.922239 80.3008 -0.927751 86.3409 0.472249C93.3409 2.08225 98.8808 8.39226 103.521 13.5423C107.36 18.0155 111.969 21.7647 117.131 24.6123L117.681 24.8923C120.411 26.2423 123.311 27.2222 126.031 28.5922C127.272 29.1925 128.462 29.8914 129.591 30.6822C132.191 32.5622 134.191 35.1423 130.831 37.7222Z" fill="#B3D6FF"/>
<path d="M50.4809 40.0521C50.0309 39.4721 49.2309 39.1521 47.6709 39.2621C46.0113 39.5366 44.39 40.0066 42.8408 40.6621C38.3408 42.0721 33.4709 41.1921 28.8909 40.0621C24.3109 38.9321 19.6709 37.5321 14.9809 37.9421C12.9009 38.1221 10.8708 38.6521 8.80084 38.8821C6.53084 39.1321 -0.309139 40.0021 0.0108609 36.1321C0.0288017 35.9562 0.0622715 35.7822 0.110867 35.6121C0.271121 35.8771 0.481753 36.1082 0.730862 36.2921C1.73086 36.9721 3.45087 36.8521 4.58087 36.6821C6.34559 36.2486 8.08215 35.7076 9.78085 35.0621C16.9308 33.0621 24.5609 36.3521 31.7808 36.6121C34.7844 36.7213 37.7901 36.4627 40.7309 35.8421C42.233 35.4526 43.7598 35.1652 45.3008 34.9821C46.6708 34.8721 48.8508 34.9221 49.8408 36.0521C50.2736 36.6121 50.559 37.2717 50.6708 37.9705C50.7826 38.6694 50.7173 39.3851 50.4809 40.0521Z" fill="#B2C8D7"/>
<path d="M115.131 30.3923C112.39 31.4935 109.378 31.7273 106.501 31.0623C102.425 30.3559 98.4516 29.1501 94.6707 27.4723C89.9459 25.3152 84.7931 24.2587 79.6007 24.3823C77.5905 24.4497 75.5865 24.6434 73.6007 24.9623C70.4207 25.4623 67.2106 26.1822 64.0206 25.8022C60.8306 25.4222 57.5507 23.6523 56.4307 20.6423C56.0172 19.3826 55.8508 18.055 55.9407 16.7323C55.9407 16.0656 56.0007 15.3989 56.1207 14.7323C57.2796 13.9287 58.352 13.0071 59.3207 11.9823C62.061 9.02791 65.1542 6.42168 68.5307 4.22226C73.7907 0.932262 80.2306 -0.917744 86.2706 0.482256C93.2706 2.09226 98.8107 8.40225 103.451 13.5522C107.29 18.0255 111.899 21.7747 117.061 24.6223C118.541 27.0323 117.631 29.2323 115.131 30.3923Z" fill="#CCE0FF"/>
<path d="M96.761 8.54226C97.056 9.08054 97.2972 9.64662 97.481 10.2323C98.481 13.4323 95.601 17.3222 93.051 18.9322C90.8774 20.1242 88.365 20.5471 85.921 20.1323C83.481 19.8523 81.101 19.1323 78.651 18.9223C74.071 18.4523 69.491 19.5222 64.971 20.3722C63.251 20.6922 61.261 20.9022 59.971 19.7422C59.5427 19.298 59.2282 18.7569 59.0541 18.1649C58.8799 17.5729 58.8515 16.9476 58.971 16.3422C59.2119 15.1294 59.706 13.9811 60.421 12.9723C62.712 9.42241 65.8139 6.4679 69.471 4.35226C70.8373 3.58578 72.2462 2.898 73.691 2.29226C75.3555 1.57003 77.1017 1.0529 78.891 0.752252C85.741 -0.417748 93.281 2.13226 96.761 8.54226Z" fill="#E6F9FF"/>
<path d="M87.0811 2.05231C86.5783 1.76208 86.0406 1.53696 85.481 1.38233C82.9825 0.734688 80.3686 0.66968 77.841 1.19233C75.6627 1.64256 73.5564 2.38953 71.5811 3.41233C68.3983 5.05724 65.5737 7.31758 63.271 10.0623L63.1111 10.2523C62.0373 11.34 61.3369 12.7407 61.1111 14.2523C61.0617 14.7535 61.1152 15.2594 61.2682 15.7391C61.4213 16.2189 61.6706 16.6623 62.001 17.0423C63.001 17.7723 64.861 17.3723 65.891 16.9923C67.2457 16.42 68.4934 15.622 69.5811 14.6323C70.6714 13.6459 71.8347 12.7434 73.061 11.9323C76.911 9.63232 81.821 9.93232 85.861 7.93232C86.8164 7.51507 87.642 6.84844 88.251 6.00233C89.371 4.22233 88.4811 2.87231 87.0811 2.05231Z" fill="white"/>
<path d="M43.3007 20.8521C42.0307 23.1021 39.4607 24.3421 36.9207 24.8521C34.3807 25.3621 31.7507 25.3121 29.1907 25.7321C27.0469 26.1273 24.9372 26.689 22.8807 27.4121C20.7707 28.0921 18.6607 28.7721 16.5907 29.5821C12.4407 31.2221 8.38072 33.3921 3.93073 33.8121C3.1219 33.9008 2.30394 33.8535 1.51074 33.6721C2.77143 32.6851 4.12825 31.8274 5.56073 31.1121C7.90073 29.7721 10.6607 28.9021 12.9807 27.4121C16.5107 25.1421 19.0607 21.2321 21.6107 17.9821C26.1407 12.2021 33.3007 8.59213 40.1107 12.7821C41.2007 13.4621 42.2507 14.2221 43.3407 14.9021C43.7855 15.8321 44.013 16.8509 44.0061 17.8817C43.9991 18.9125 43.7579 19.9283 43.3007 20.8521Z" fill="#CCE0FF"/>
<path d="M38.6009 12.9222C39.2939 13.2637 39.9108 13.7418 40.4143 14.3278C40.9178 14.9138 41.2976 15.5956 41.5309 16.3321C41.6817 17.1968 41.598 18.0861 41.2884 18.9074C40.9789 19.7288 40.4549 20.4521 39.7709 21.0021C38.3868 22.0938 36.7303 22.7855 34.9809 23.0021C33.2509 23.2921 31.4909 23.3422 29.7709 23.6422C26.7626 24.2838 23.8443 25.2913 21.0809 26.6422C18.9709 27.5622 16.8609 28.4821 14.7909 29.4921C12.5427 30.7379 10.1696 31.7434 7.71087 32.4921C7.48815 32.552 7.25359 32.552 7.03088 32.4921C6.92673 32.4388 6.83457 32.3648 6.76003 32.2745C6.6855 32.1843 6.63017 32.0799 6.5974 31.9675C6.56464 31.8552 6.55512 31.7374 6.56948 31.6212C6.58384 31.5051 6.62174 31.3931 6.68087 31.2922C6.93238 30.8895 7.30279 30.575 7.74087 30.3922C10.7409 28.7822 14.1509 27.7122 16.5209 25.2521C17.3629 24.3222 18.1193 23.3181 18.7809 22.2521C20.0586 20.2178 21.5179 18.3033 23.1409 16.5321C26.1409 13.4621 30.5609 11.1522 34.9309 11.7322C36.2182 11.8944 37.4633 12.2981 38.6009 12.9222Z" fill="#E6F9FF"/>
<path d="M68.2411 26.7822C66.1477 26.4133 64.0015 26.4711 61.9311 26.9522C60.2815 27.2968 58.7024 27.919 57.2611 28.7922C55.9156 29.8655 54.7596 31.1567 53.8411 32.6122C53.1172 33.7711 52.5995 35.0466 52.3111 36.3822C51.5236 38.9639 51.6079 41.7331 52.551 44.2622C52.951 45.2622 53.461 46.5022 54.551 46.9022C55.1628 47.062 55.8053 47.0632 56.4177 46.9057C57.0301 46.7483 57.5922 46.4373 58.051 46.0022C59.0718 45.128 60.0123 44.1641 60.8611 43.1222C63.3322 40.4134 66.3077 38.2124 69.6211 36.6422C71.3811 35.8122 73.2911 35.1122 74.6211 33.6422C77.5911 30.3122 70.791 27.2522 68.2411 26.7822Z" fill="#CCE0FF"/>
<path d="M54.1907 44.3123C55.132 44.1239 55.9856 43.6322 56.6207 42.9124C58.5441 41.106 60.668 39.5257 62.9508 38.2024C64.4408 37.3724 66.0107 36.7024 67.4107 35.7324C68.8665 34.8243 69.9513 33.4276 70.4707 31.7924C70.6269 31.2324 70.6543 30.6444 70.5507 30.0724C70.4177 29.5322 70.1703 29.0268 69.8253 28.5903C69.4803 28.1539 69.0456 27.7965 68.5507 27.5424C67.5385 27.0549 66.4237 26.8182 65.3007 26.8524C62.226 26.9279 59.2703 28.0565 56.9278 30.0496C54.5852 32.0426 52.9978 34.7794 52.4307 37.8023C52.0407 39.5323 51.0607 44.5323 54.1907 44.3123Z" fill="#E6F9FF"/>
<g style="mix-blend-mode:multiply">
<path d="M52.2508 42.0322C52.256 43.0433 52.1351 44.0511 51.8908 45.0322C51.7976 44.8707 51.7141 44.7037 51.6408 44.5322C50.9108 42.9122 51.2608 41.1022 50.4808 40.0722C50.0308 39.4922 49.2308 39.1722 47.6708 39.2822C46.0112 39.5567 44.39 40.0266 42.8408 40.6822C38.3408 42.0922 33.4708 41.2122 28.8908 40.0822L27.5908 39.7522C27.8992 38.1203 28.5312 36.5666 29.4496 35.1828C30.368 33.799 31.5542 32.6131 32.9383 31.6951C34.3223 30.777 35.8762 30.1454 37.5082 29.8375C39.1403 29.5296 40.8174 29.5516 42.4408 29.9022C43.7412 30.1777 44.9876 30.6641 46.1308 31.3422C47.9905 32.4402 49.5325 34.0031 50.6055 35.8773C51.6785 37.7515 52.2455 39.8726 52.2508 42.0322Z" fill="#BFC2DD"/>
</g>
<path d="M66.7711 27.7223C67.6911 28.1523 68.3811 28.8822 67.9811 29.9622C67.4172 31.1502 66.4129 32.072 65.1811 32.5323C63.5811 33.3023 61.8611 33.8122 60.1811 34.4622C58.4916 35.0487 56.947 35.9898 55.6511 37.2223C55.2311 37.6523 54.8611 38.1423 54.4011 38.5423C54.3117 38.6375 54.203 38.7127 54.0823 38.7627C53.9616 38.8127 53.8317 38.8364 53.7011 38.8322C53.2911 38.7622 53.1311 38.2622 53.1211 37.8322C53.1273 37.0391 53.2869 36.2547 53.5911 35.5222C54.8314 32.696 56.8944 30.309 59.5111 28.6723C61.0281 27.6229 62.8487 27.1028 64.6911 27.1923C65.411 27.24 66.1161 27.4197 66.7711 27.7223Z" fill="white"/>
<path d="M130.831 37.7221C129.453 38.6777 127.779 39.1071 126.111 38.9321C124.461 38.8321 122.841 38.4121 121.201 38.1921C115.201 37.3821 109.201 39.3221 103.401 40.6521C97.401 42.0221 92.031 41.6521 85.971 41.3721C84.501 41.3121 82.681 40.8021 81.251 41.0621C77.791 41.6821 74.051 45.3021 70.991 46.9721C68.0514 48.7171 64.742 49.7448 61.3311 49.9721C62.6431 49.401 63.8986 48.708 65.0811 47.9021C69.5011 44.9021 72.941 40.0321 78.161 38.8221C81.161 38.1221 84.281 38.7721 87.341 39.0221C91.9742 39.3988 96.6365 38.8759 101.071 37.4821C105.581 36.0621 110.011 33.7121 114.721 34.0721C116.811 34.2421 118.831 34.9321 120.921 35.0721C122.535 35.1222 124.149 34.9608 125.721 34.5921C128.411 34.0421 129.911 32.5921 129.541 30.6821C132.191 32.5621 134.191 35.1421 130.831 37.7221Z" fill="#B2C8D7"/>
<path d="M35.7211 12.5622C36.4072 12.7735 37.0351 13.1407 37.5556 13.6351C38.076 14.1296 38.475 14.7378 38.7211 15.4122C38.8702 16.2891 38.7469 17.1905 38.3678 17.9951C37.9887 18.7998 37.3721 19.4689 36.6011 19.9122C35.0503 20.758 33.3541 21.3042 31.6011 21.5222C27.9794 22.1184 24.4693 23.2614 21.1911 24.9122C20.2711 25.4122 19.3911 25.9722 18.4611 26.4422C17.9711 26.6922 16.6311 27.3022 16.1611 26.7122C15.9811 26.4822 16.2311 26.2822 16.3311 26.0922C16.5409 25.7404 16.8078 25.4261 17.1211 25.1622C18.6841 23.7043 20.1664 22.162 21.5611 20.5422C22.4311 19.5422 23.1911 18.3822 24.0411 17.3222C24.6957 16.3769 25.4391 15.4963 26.2611 14.6922C28.0803 13.031 30.4383 12.0828 32.9011 12.0222C33.8653 12.0374 34.8195 12.2202 35.7211 12.5622Z" fill="white"/>
<path d="M79.5509 22.3922C79.549 22.5658 79.4957 22.735 79.3978 22.8784C79.2999 23.0218 79.1618 23.133 79.0008 23.1981C78.8399 23.2631 78.6633 23.2791 78.4932 23.244C78.3232 23.209 78.1673 23.1244 78.0453 23.0009C77.9232 22.8775 77.8404 22.7207 77.8072 22.5502C77.7741 22.3798 77.7921 22.2034 77.859 22.0432C77.9258 21.883 78.0386 21.7461 78.1831 21.6498C78.3276 21.5536 78.4974 21.5022 78.671 21.5022C78.7874 21.5022 78.9026 21.5253 79.0101 21.5701C79.1175 21.615 79.2149 21.6807 79.2968 21.7635C79.3786 21.8462 79.4432 21.9444 79.4869 22.0524C79.5305 22.1603 79.5523 22.2758 79.5509 22.3922Z" fill="#B2C8D7"/>
<path d="M47.6209 19.7821C47.6209 19.9463 47.5723 20.1068 47.4811 20.2433C47.3899 20.3797 47.2602 20.4861 47.1086 20.549C46.9569 20.6118 46.79 20.6282 46.629 20.5962C46.468 20.5642 46.3201 20.4851 46.204 20.369C46.0879 20.253 46.0089 20.1051 45.9769 19.9441C45.9449 19.7831 45.9613 19.6162 46.0241 19.4645C46.0869 19.3128 46.1933 19.1832 46.3298 19.092C46.4663 19.0008 46.6268 18.9521 46.7909 18.9521C47.0111 18.9521 47.2222 19.0396 47.3778 19.1953C47.5335 19.3509 47.6209 19.562 47.6209 19.7821Z" fill="#B2C8D7"/>
<path d="M100.971 14.8122C100.971 15.0349 100.883 15.2486 100.725 15.4061C100.567 15.5637 100.354 15.6522 100.131 15.6522C99.9082 15.6522 99.6946 15.5637 99.537 15.4061C99.3795 15.2486 99.291 15.0349 99.291 14.8122C99.291 14.5894 99.3795 14.3757 99.537 14.2182C99.6946 14.0607 99.9082 13.9722 100.131 13.9722C100.354 13.9722 100.567 14.0607 100.725 14.2182C100.883 14.3757 100.971 14.5894 100.971 14.8122Z" fill="#B2C8D7"/>
<path d="M81.4811 15.5322C81.4581 15.7456 81.3571 15.943 81.1974 16.0864C81.0377 16.2298 80.8307 16.3091 80.6161 16.3091C80.4015 16.3091 80.1945 16.2298 80.0348 16.0864C79.8751 15.943 79.7741 15.7456 79.7511 15.5322C79.738 15.4108 79.7507 15.288 79.7882 15.1718C79.8257 15.0556 79.8872 14.9486 79.9688 14.8578C80.0504 14.7669 80.1502 14.6943 80.2617 14.6445C80.3733 14.5948 80.494 14.5691 80.6161 14.5691C80.7382 14.5691 80.8589 14.5948 80.9705 14.6445C81.082 14.6943 81.1818 14.7669 81.2634 14.8578C81.345 14.9486 81.4065 15.0556 81.444 15.1718C81.4815 15.288 81.4942 15.4108 81.4811 15.5322Z" fill="#B2C8D7"/>
<path d="M80.3708 37.8522C80.3707 38.0346 80.3165 38.2128 80.215 38.3643C80.1135 38.5158 79.9692 38.6338 79.8005 38.7031C79.6318 38.7724 79.4463 38.79 79.2676 38.7537C79.0888 38.7174 78.9249 38.6288 78.7967 38.4991C78.6684 38.3694 78.5816 38.2046 78.5472 38.0255C78.5129 37.8464 78.5325 37.6611 78.6037 37.4931C78.6749 37.3252 78.7943 37.1822 78.9469 37.0824C79.0995 36.9825 79.2784 36.9302 79.4608 36.9322C79.5811 36.9322 79.7003 36.956 79.8113 37.0024C79.9224 37.0488 80.0232 37.1167 80.1078 37.2023C80.1924 37.2878 80.2592 37.3893 80.3044 37.5009C80.3495 37.6124 80.3721 37.7319 80.3708 37.8522Z" fill="#B2C8D7"/>
<path d="M40.2608 16.7222C40.2608 16.9199 40.2021 17.1133 40.0922 17.2777C39.9823 17.4422 39.8262 17.5704 39.6434 17.6461C39.4607 17.7217 39.2596 17.7415 39.0657 17.7029C38.8717 17.6644 38.6935 17.5691 38.5536 17.4293C38.4138 17.2894 38.3185 17.1112 38.28 16.9173C38.2414 16.7233 38.2612 16.5222 38.3369 16.3395C38.4126 16.1568 38.5407 16.0006 38.7052 15.8907C38.8696 15.7808 39.063 15.7222 39.2608 15.7222C39.526 15.7222 39.7803 15.8275 39.9679 16.0151C40.1554 16.2026 40.2608 16.457 40.2608 16.7222Z" fill="#B2C8D7"/>
<path d="M4.98086 35.5622C4.98086 35.7204 4.93394 35.8751 4.84604 36.0067C4.75813 36.1382 4.63318 36.2407 4.487 36.3013C4.34082 36.3619 4.17996 36.3777 4.02478 36.3468C3.86959 36.316 3.72705 36.2398 3.61517 36.1279C3.50329 36.016 3.42711 35.8734 3.39624 35.7183C3.36537 35.5631 3.38119 35.4022 3.44174 35.256C3.50229 35.1099 3.60483 34.9849 3.73639 34.897C3.86795 34.8091 4.02262 34.7622 4.18084 34.7622C4.39302 34.7622 4.59652 34.8465 4.74655 34.9965C4.89658 35.1466 4.98086 35.35 4.98086 35.5622Z" fill="#B2C8D7"/>
<path d="M120.081 35.1222C120.081 35.2923 120.03 35.4585 119.936 35.6C119.841 35.7414 119.707 35.8517 119.55 35.9167C119.393 35.9818 119.22 35.9989 119.053 35.9657C118.886 35.9325 118.733 35.8506 118.613 35.7303C118.492 35.61 118.411 35.4568 118.377 35.29C118.344 35.1232 118.361 34.9502 118.426 34.7931C118.491 34.6359 118.602 34.5016 118.743 34.4071C118.884 34.3126 119.051 34.2622 119.221 34.2622C119.449 34.2622 119.668 34.3528 119.829 34.5141C119.99 34.6754 120.081 34.8941 120.081 35.1222Z" fill="#B2C8D7"/>
<path d="M98.111 22.1922C98.5859 22.1922 98.971 21.8071 98.971 21.3322C98.971 20.8572 98.5859 20.4722 98.111 20.4722C97.636 20.4722 97.251 20.8572 97.251 21.3322C97.251 21.8071 97.636 22.1922 98.111 22.1922Z" fill="#B2C8D7"/>
<path d="M97.9609 33.0824C98.4193 33.0824 98.7909 32.7108 98.7909 32.2524C98.7909 31.794 98.4193 31.4224 97.9609 31.4224C97.5025 31.4224 97.1309 31.794 97.1309 32.2524C97.1309 32.7108 97.5025 33.0824 97.9609 33.0824Z" fill="#B2C8D7"/>
<path d="M91.3908 20.9723C91.3908 21.1483 91.3386 21.3204 91.2409 21.4667C91.1431 21.6131 91.004 21.7272 90.8414 21.7946C90.6788 21.8619 90.4999 21.8795 90.3272 21.8452C90.1546 21.8108 89.996 21.7261 89.8715 21.6016C89.747 21.4772 89.6623 21.3186 89.6279 21.1459C89.5936 20.9733 89.6112 20.7943 89.6786 20.6317C89.746 20.4691 89.86 20.3301 90.0064 20.2323C90.1527 20.1345 90.3248 20.0823 90.5008 20.0823C90.7369 20.0823 90.9633 20.176 91.1302 20.343C91.2971 20.5099 91.3908 20.7362 91.3908 20.9723Z" fill="#B2C8D7"/>
<path d="M107.841 30.5123C107.841 30.6962 107.786 30.876 107.684 31.029C107.582 31.1819 107.437 31.3011 107.267 31.3715C107.097 31.4419 106.91 31.4603 106.73 31.4244C106.549 31.3885 106.383 31.3 106.253 31.1699C106.123 31.0398 106.035 30.8741 105.999 30.6937C105.963 30.5133 105.981 30.3263 106.052 30.1564C106.122 29.9865 106.241 29.8412 106.394 29.739C106.547 29.6368 106.727 29.5823 106.911 29.5823C107.158 29.5823 107.394 29.6803 107.569 29.8547C107.743 30.0291 107.841 30.2656 107.841 30.5123Z" fill="#B2C8D7"/>
<path d="M64.6809 32.4923C64.6809 32.6644 64.6299 32.8326 64.5343 32.9757C64.4387 33.1187 64.3028 33.2302 64.1439 33.2961C63.9849 33.3619 63.8099 33.3792 63.6412 33.3456C63.4724 33.312 63.3174 33.2292 63.1957 33.1075C63.0741 32.9858 62.9912 32.8308 62.9576 32.662C62.9241 32.4933 62.9413 32.3184 63.0071 32.1594C63.073 32.0004 63.1845 31.8645 63.3276 31.769C63.4706 31.6734 63.6388 31.6223 63.8109 31.6223C63.9252 31.6223 64.0383 31.6448 64.1439 31.6885C64.2494 31.7323 64.3453 31.7963 64.4261 31.8771C64.5069 31.9579 64.571 32.0538 64.6147 32.1594C64.6584 32.2649 64.6809 32.3781 64.6809 32.4923Z" fill="#CCE0FF"/>
<path d="M97.0007 38.2123C97.0027 38.3808 96.9545 38.5462 96.8624 38.6873C96.7702 38.8283 96.6381 38.9388 96.483 39.0047C96.3279 39.0706 96.1566 39.0888 95.9911 39.0572C95.8256 39.0255 95.6732 38.9454 95.5533 38.8269C95.4334 38.7084 95.3515 38.557 95.3179 38.3918C95.2842 38.2267 95.3005 38.0553 95.3645 37.8994C95.4286 37.7435 95.5375 37.6101 95.6775 37.5163C95.8175 37.4224 95.9822 37.3723 96.1507 37.3723C96.3744 37.3723 96.5891 37.4605 96.7482 37.6177C96.9074 37.775 96.9981 37.9886 97.0007 38.2123Z" fill="#B2C8D7"/>
<path d="M23.7106 35.0023C23.7126 35.1788 23.6621 35.3518 23.5655 35.4995C23.4689 35.6472 23.3306 35.7628 23.1682 35.8317C23.0057 35.9006 22.8265 35.9196 22.6532 35.8864C22.4799 35.8532 22.3204 35.7693 22.1949 35.6452C22.0694 35.5211 21.9837 35.3626 21.9485 35.1897C21.9134 35.0168 21.9304 34.8373 21.9974 34.6741C22.0645 34.5109 22.1786 34.3713 22.3251 34.273C22.4717 34.1748 22.6442 34.1223 22.8206 34.1223C23.0549 34.1223 23.2798 34.2147 23.4464 34.3795C23.6131 34.5442 23.708 34.768 23.7106 35.0023Z" fill="#B2C8D7"/>
<path d="M68.0709 27.3722C68.0684 27.4987 68.017 27.6193 67.9275 27.7088C67.838 27.7982 67.7174 27.8496 67.5909 27.8522C67.4636 27.8522 67.3415 27.8016 67.2515 27.7116C67.1615 27.6216 67.1109 27.4995 67.1109 27.3722C67.1096 27.3088 67.1211 27.2458 67.1447 27.1869C67.1683 27.1281 67.2036 27.0746 67.2485 27.0297C67.2933 26.9849 67.3468 26.9496 67.4057 26.926C67.4645 26.9023 67.5275 26.8908 67.5909 26.8922C67.654 26.8922 67.7164 26.9046 67.7746 26.9287C67.8329 26.9529 67.8858 26.9882 67.9303 27.0328C67.9749 27.0773 68.0103 27.1303 68.0344 27.1885C68.0585 27.2467 68.0709 27.3091 68.0709 27.3722Z" fill="#B2C8D7"/>
<path d="M88.301 12.7223C88.301 12.8944 88.25 13.0626 88.1544 13.2056C88.0588 13.3487 87.9229 13.4602 87.764 13.5261C87.605 13.5919 87.4301 13.6091 87.2613 13.5756C87.0926 13.542 86.9375 13.4591 86.8159 13.3375C86.6942 13.2158 86.6113 13.0608 86.5778 12.892C86.5442 12.7233 86.5614 12.5483 86.6273 12.3893C86.6931 12.2304 86.8046 12.0945 86.9477 11.9989C87.0908 11.9033 87.259 11.8523 87.431 11.8523C87.6618 11.8523 87.8831 11.944 88.0462 12.1071C88.2094 12.2703 88.301 12.4916 88.301 12.7223Z" fill="#B2C8D7"/>
<path d="M40.6908 24.0422C40.6908 24.2063 40.6421 24.3668 40.5509 24.5033C40.4597 24.6398 40.3301 24.7462 40.1784 24.809C40.0267 24.8718 39.8599 24.8883 39.6988 24.8562C39.5378 24.8242 39.3899 24.7451 39.2739 24.6291C39.1578 24.513 39.0787 24.3651 39.0467 24.2041C39.0147 24.0431 39.0311 23.8762 39.0939 23.7245C39.1567 23.5729 39.2631 23.4433 39.3996 23.3521C39.5361 23.2608 39.6966 23.2122 39.8608 23.2122C40.0809 23.2122 40.292 23.2996 40.4477 23.4553C40.6033 23.6109 40.6908 23.822 40.6908 24.0422Z" fill="#B2C8D7"/>
<path d="M94.6407 26.4322C94.6407 26.6181 94.5856 26.7999 94.4823 26.9544C94.379 27.109 94.2322 27.2295 94.0605 27.3007C93.8887 27.3718 93.6997 27.3904 93.5174 27.3541C93.335 27.3179 93.1675 27.2284 93.036 27.0969C92.9046 26.9654 92.8151 26.7979 92.7788 26.6156C92.7425 26.4332 92.7611 26.2442 92.8323 26.0725C92.9034 25.9007 93.0239 25.7539 93.1785 25.6506C93.3331 25.5473 93.5148 25.4922 93.7007 25.4922C93.9501 25.4922 94.1891 25.5912 94.3654 25.7675C94.5417 25.9438 94.6407 26.1829 94.6407 26.4322Z" fill="#B2C8D7"/>
<path d="M72.801 21.1322C72.801 21.3107 72.7479 21.4851 72.6486 21.6333C72.5493 21.7815 72.4081 21.8968 72.243 21.9646C72.078 22.0324 71.8965 22.0497 71.7217 22.0141C71.5468 21.9786 71.3865 21.8919 71.2611 21.765C71.1356 21.6381 71.0507 21.4768 71.0171 21.3016C70.9835 21.1264 71.0027 20.9451 71.0724 20.7808C71.142 20.6165 71.259 20.4767 71.4083 20.379C71.5576 20.2813 71.7326 20.2303 71.911 20.2322C72.0287 20.2322 72.1453 20.2556 72.2539 20.3009C72.3626 20.3463 72.4611 20.4127 72.5439 20.4964C72.6266 20.5801 72.692 20.6794 72.7361 20.7886C72.7803 20.8977 72.8023 21.0145 72.801 21.1322Z" fill="#B2C8D7"/>
<path d="M47.0207 26.1823C47.0207 26.3563 46.9691 26.5265 46.8724 26.6712C46.7757 26.8159 46.6383 26.9287 46.4775 26.9953C46.3167 27.0619 46.1398 27.0793 45.9691 27.0453C45.7984 27.0114 45.6416 26.9276 45.5185 26.8045C45.3954 26.6814 45.3116 26.5246 45.2777 26.3539C45.2437 26.1832 45.2611 26.0063 45.3277 25.8455C45.3943 25.6847 45.5071 25.5473 45.6518 25.4506C45.7965 25.3539 45.9667 25.3022 46.1407 25.3022C46.3741 25.3022 46.598 25.395 46.763 25.56C46.928 25.725 47.0207 25.9489 47.0207 26.1823Z" fill="#B2C8D7"/>
<path d="M56.1007 43.3023C56.1027 43.4808 56.0516 43.6557 55.954 43.8051C55.8563 43.9544 55.7164 44.0713 55.5521 44.1409C55.3879 44.2106 55.2066 44.2298 55.0314 44.1963C54.8561 44.1627 54.6948 44.0778 54.568 43.9523C54.4411 43.8268 54.3544 43.6665 54.3188 43.4916C54.2833 43.3168 54.3005 43.1353 54.3683 42.9703C54.4361 42.8052 54.5515 42.6641 54.6997 42.5648C54.8479 42.4654 55.0223 42.4124 55.2007 42.4124C55.4377 42.4123 55.6651 42.5058 55.8336 42.6724C56.0021 42.8391 56.0981 43.0654 56.1007 43.3023Z" fill="#B2C8D7"/>
<path d="M57.7106 31.0821C57.7086 31.2577 57.6548 31.4288 57.5558 31.5739C57.4568 31.7189 57.3171 31.8314 57.1543 31.8972C56.9915 31.963 56.8129 31.9792 56.6409 31.9438C56.4689 31.9083 56.3113 31.8228 56.1878 31.6979C56.0644 31.5731 55.9806 31.4145 55.947 31.2421C55.9135 31.0698 55.9317 30.8913 55.9994 30.7293C56.067 30.5672 56.1811 30.4288 56.3272 30.3315C56.4733 30.2341 56.645 30.1821 56.8206 30.1821C56.9383 30.1821 57.0549 30.2055 57.1635 30.2508C57.2721 30.2962 57.3707 30.3626 57.4535 30.4464C57.5363 30.5301 57.6016 30.6293 57.6457 30.7385C57.6899 30.8476 57.7119 30.9644 57.7106 31.0821Z" fill="#CCE0FF"/>
<path d="M12.4309 31.1722C12.4309 31.3463 12.3793 31.5164 12.2826 31.6611C12.1859 31.8058 12.0484 31.9186 11.8876 31.9852C11.7268 32.0518 11.5499 32.0693 11.3792 32.0353C11.2085 32.0014 11.0517 31.9176 10.9286 31.7945C10.8056 31.6714 10.7218 31.5146 10.6878 31.3439C10.6539 31.1732 10.6713 30.9963 10.7379 30.8355C10.8045 30.6747 10.9173 30.5372 11.062 30.4405C11.2067 30.3438 11.3768 30.2922 11.5509 30.2922C11.7843 30.2922 12.0081 30.385 12.1731 30.55C12.3382 30.715 12.4309 30.9389 12.4309 31.1722Z" fill="#B2C8D7"/>
<path d="M52.9307 24.7223C53.4499 24.7223 53.8707 24.3014 53.8707 23.7823C53.8707 23.2631 53.4499 22.8423 52.9307 22.8423C52.4116 22.8423 51.9907 23.2631 51.9907 23.7823C51.9907 24.3014 52.4116 24.7223 52.9307 24.7223Z" fill="#B2C8D7"/>
<path d="M9.46092 36.2024C9.74811 36.2024 9.98092 35.9695 9.98092 35.6824C9.98092 35.3952 9.74811 35.1624 9.46092 35.1624C9.17373 35.1624 8.94092 35.3952 8.94092 35.6824C8.94092 35.9695 9.17373 36.2024 9.46092 36.2024Z" fill="#8B9FD1"/>
<path d="M69.2409 15.2923C69.2409 15.4143 69.1925 15.5313 69.1062 15.6176C69.0199 15.7038 68.9029 15.7523 68.7809 15.7523C68.7201 15.7537 68.6597 15.7427 68.6033 15.7201C68.5468 15.6974 68.4956 15.6636 68.4526 15.6206C68.4096 15.5776 68.3758 15.5264 68.3531 15.4699C68.3305 15.4135 68.3195 15.3531 68.3209 15.2923C68.3209 15.1703 68.3694 15.0533 68.4556 14.967C68.5419 14.8807 68.6589 14.8323 68.7809 14.8323C68.9021 14.8348 69.0176 14.8841 69.1034 14.9698C69.1891 15.0556 69.2383 15.1711 69.2409 15.2923Z" fill="#A4B0DB"/>
<path d="M74.4006 42.3323C74.6713 42.3323 74.8906 42.1129 74.8906 41.8423C74.8906 41.5717 74.6713 41.3523 74.4006 41.3523C74.13 41.3523 73.9106 41.5717 73.9106 41.8423C73.9106 42.1129 74.13 42.3323 74.4006 42.3323Z" fill="#8B9FD1"/>
<path d="M66.5611 39.0323C66.8261 39.0323 67.0411 38.8174 67.0411 38.5523C67.0411 38.2872 66.8261 38.0723 66.5611 38.0723C66.296 38.0723 66.0811 38.2872 66.0811 38.5523C66.0811 38.8174 66.296 39.0323 66.5611 39.0323Z" fill="#A4B0DB"/>
<path d="M29.0208 24.7222C29.0044 24.8338 28.9484 24.9358 28.863 25.0095C28.7777 25.0832 28.6686 25.1238 28.5558 25.1238C28.443 25.1238 28.334 25.0832 28.2486 25.0095C28.1632 24.9358 28.1072 24.8338 28.0908 24.7222C28.1072 24.6106 28.1632 24.5086 28.2486 24.4348C28.334 24.3611 28.443 24.3206 28.5558 24.3206C28.6686 24.3206 28.7777 24.3611 28.863 24.4348C28.9484 24.5086 29.0044 24.6106 29.0208 24.7222Z" fill="#A4B0DB"/>
<path d="M111.501 35.5923C111.771 35.5923 111.991 35.3729 111.991 35.1023C111.991 34.8317 111.771 34.6123 111.501 34.6123C111.23 34.6123 111.011 34.8317 111.011 35.1023C111.011 35.3729 111.23 35.5923 111.501 35.5923Z" fill="#A4B0DB"/>
<path d="M84.8208 20.1621C85.0859 20.1621 85.3008 19.9472 85.3008 19.6821C85.3008 19.4171 85.0859 19.2021 84.8208 19.2021C84.5557 19.2021 84.3408 19.4171 84.3408 19.6821C84.3408 19.9472 84.5557 20.1621 84.8208 20.1621Z" fill="#A4B0DB"/>
<path d="M79.3311 30.7022C79.5851 30.7022 79.7911 30.4963 79.7911 30.2422C79.7911 29.9882 79.5851 29.7822 79.3311 29.7822C79.077 29.7822 78.8711 29.9882 78.8711 30.2422C78.8711 30.4963 79.077 30.7022 79.3311 30.7022Z" fill="#A4B0DB"/>
<path d="M89.0309 38.4223C89.0309 38.539 88.9845 38.6509 88.902 38.7334C88.8195 38.8159 88.7076 38.8623 88.5909 38.8623C88.4742 38.8623 88.3623 38.8159 88.2798 38.7334C88.1972 38.6509 88.1509 38.539 88.1509 38.4223C88.1509 38.3056 88.1972 38.1937 88.2798 38.1112C88.3623 38.0287 88.4742 37.9823 88.5909 37.9823C88.649 37.9809 88.7069 37.9914 88.7609 38.013C88.8149 38.0346 88.8639 38.067 88.9051 38.1081C88.9462 38.1493 88.9786 38.1983 89.0002 38.2523C89.0218 38.3063 89.0323 38.3641 89.0309 38.4223Z" fill="#A4B0DB"/>
<path d="M27.0507 30.3323C27.0507 30.3888 27.0396 30.4447 27.0179 30.4969C26.9963 30.5491 26.9647 30.5965 26.9247 30.6364C26.8848 30.6763 26.8374 30.708 26.7852 30.7296C26.733 30.7512 26.6771 30.7623 26.6207 30.7623C26.5057 30.7624 26.3953 30.7174 26.313 30.637C26.2308 30.5566 26.1833 30.4473 26.1807 30.3323C26.1807 30.2156 26.227 30.1037 26.3095 30.0212C26.3921 29.9387 26.504 29.8923 26.6207 29.8923C26.7356 29.8949 26.845 29.9425 26.9254 30.0247C27.0057 30.1069 27.0507 30.2173 27.0507 30.3323Z" fill="#A4B0DB"/>
<path d="M67.4107 45.0223C67.4106 45.1197 67.3816 45.2148 67.3273 45.2956C67.2731 45.3764 67.1959 45.4391 67.1058 45.4759C67.0157 45.5127 66.9167 45.5218 66.8213 45.5021C66.726 45.4823 66.6387 45.4347 66.5706 45.3651C66.5025 45.2956 66.4567 45.2073 66.4389 45.1116C66.4211 45.0159 66.4323 44.9171 66.4709 44.8278C66.5095 44.7384 66.5739 44.6626 66.6557 44.61C66.7376 44.5574 66.8333 44.5303 66.9307 44.5323C67.0589 44.5349 67.181 44.5877 67.2707 44.6793C67.3604 44.7709 67.4107 44.8941 67.4107 45.0223Z" fill="#A4B0DB"/>
<path d="M74.741 14.2523C74.9895 14.2523 75.191 14.0508 75.191 13.8023C75.191 13.5538 74.9895 13.3523 74.741 13.3523C74.4925 13.3523 74.291 13.5538 74.291 13.8023C74.291 14.0508 74.4925 14.2523 74.741 14.2523Z" fill="#A4B0DB"/>
<path d="M57.4211 18.4823C57.4211 18.5963 57.3757 18.7057 57.2951 18.7863C57.2145 18.867 57.1051 18.9123 56.991 18.9123C56.877 18.9123 56.7676 18.867 56.687 18.7863C56.6063 18.7057 56.561 18.5963 56.561 18.4823C56.561 18.3682 56.6063 18.2588 56.687 18.1782C56.7676 18.0976 56.877 18.0522 56.991 18.0522C57.1051 18.0522 57.2145 18.0976 57.2951 18.1782C57.3757 18.2588 57.4211 18.3682 57.4211 18.4823Z" fill="#A4B0DB"/>
<path d="M53.1908 36.9222C53.1882 37.0424 53.1385 37.1569 53.0526 37.241C52.9666 37.3251 52.8511 37.3722 52.7308 37.3722C52.6114 37.3722 52.497 37.3247 52.4126 37.2404C52.3282 37.156 52.2808 37.0415 52.2808 36.9222C52.2808 36.8028 52.3282 36.6884 52.4126 36.604C52.497 36.5196 52.6114 36.4722 52.7308 36.4722C52.8511 36.4721 52.9666 36.5192 53.0526 36.6033C53.1385 36.6874 53.1882 36.8019 53.1908 36.9222Z" fill="#A4B0DB"/>
<path d="M128.071 34.8723C128.071 34.9751 128.04 35.0757 127.983 35.1612C127.926 35.2467 127.845 35.3134 127.75 35.3527C127.655 35.3921 127.55 35.4024 127.449 35.3823C127.348 35.3622 127.256 35.3127 127.183 35.24C127.11 35.1673 127.061 35.0746 127.041 34.9737C127.021 34.8729 127.031 34.7683 127.07 34.6733C127.11 34.5783 127.176 34.497 127.262 34.4399C127.347 34.3828 127.448 34.3523 127.551 34.3523C127.689 34.3523 127.821 34.4071 127.918 34.5046C128.016 34.6021 128.071 34.7344 128.071 34.8723Z" fill="#A4B0DB"/>
<path d="M60.711 25.4822C60.711 25.5989 60.6647 25.7108 60.5822 25.7934C60.4996 25.8759 60.3877 25.9222 60.271 25.9222C60.1543 25.9222 60.0424 25.8759 59.9599 25.7934C59.8774 25.7108 59.8311 25.5989 59.8311 25.4822C59.8311 25.3655 59.8774 25.2536 59.9599 25.1711C60.0424 25.0886 60.1543 25.0422 60.271 25.0422C60.3877 25.0422 60.4996 25.0886 60.5822 25.1711C60.6647 25.2536 60.711 25.3655 60.711 25.4822Z" fill="#A4B0DB"/>
<path d="M72.3208 34.6423C72.5969 34.6423 72.8208 34.4185 72.8208 34.1423C72.8208 33.8662 72.5969 33.6423 72.3208 33.6423C72.0447 33.6423 71.8208 33.8662 71.8208 34.1423C71.8208 34.4185 72.0447 34.6423 72.3208 34.6423Z" fill="#A4B0DB"/>
<path d="M50.3409 30.9322C50.3409 31.0212 50.3145 31.1082 50.2651 31.1822C50.2156 31.2562 50.1453 31.3138 50.0631 31.3479C49.9809 31.382 49.8904 31.3909 49.8031 31.3735C49.7159 31.3562 49.6357 31.3133 49.5727 31.2504C49.5098 31.1874 49.4669 31.1072 49.4496 31.02C49.4322 30.9327 49.4411 30.8422 49.4752 30.7599C49.5092 30.6777 49.5669 30.6075 49.6409 30.558C49.7149 30.5086 49.8019 30.4822 49.8909 30.4822C50.0103 30.4822 50.1247 30.5296 50.2091 30.614C50.2935 30.6984 50.3409 30.8128 50.3409 30.9322Z" fill="#A4B0DB"/>
<path d="M81.3111 9.26234C81.3111 9.35572 81.2832 9.44697 81.2311 9.52446C81.179 9.60195 81.105 9.66217 81.0186 9.69743C80.9321 9.73269 80.8371 9.74139 80.7457 9.72243C80.6542 9.70347 80.5705 9.65772 80.5052 9.59099C80.4399 9.52425 80.3959 9.43955 80.3789 9.34773C80.3619 9.25591 80.3727 9.16111 80.4098 9.07542C80.4469 8.98974 80.5087 8.91704 80.5873 8.86662C80.6659 8.8162 80.7577 8.79036 80.8511 8.79234C80.974 8.79496 81.091 8.84563 81.177 8.93349C81.263 9.02135 81.3111 9.13941 81.3111 9.26234Z" fill="#A4B0DB"/>
<path d="M64.9708 20.5521C64.9707 20.6455 64.9429 20.7368 64.8908 20.8143C64.8387 20.8918 64.7647 20.952 64.6783 20.9873C64.5918 21.0225 64.4968 21.0312 64.4053 21.0123C64.3139 20.9933 64.2302 20.9475 64.1649 20.8808C64.0995 20.814 64.0556 20.7294 64.0386 20.6376C64.0216 20.5457 64.0324 20.4509 64.0695 20.3652C64.1066 20.2796 64.1684 20.2069 64.247 20.1564C64.3256 20.106 64.4174 20.0802 64.5108 20.0821C64.6337 20.0848 64.7507 20.1355 64.8367 20.2233C64.9227 20.3112 64.9708 20.4292 64.9708 20.5521Z" fill="#A4B0DB"/>
<path d="M104.811 37.8524C104.811 37.9691 104.764 38.081 104.682 38.1635C104.599 38.246 104.487 38.2924 104.371 38.2924C104.254 38.2924 104.142 38.246 104.06 38.1635C103.977 38.081 103.931 37.9691 103.931 37.8524C103.931 37.7357 103.977 37.6237 104.06 37.5412C104.142 37.4587 104.254 37.4124 104.371 37.4124C104.487 37.4124 104.599 37.4587 104.682 37.5412C104.764 37.6237 104.811 37.7357 104.811 37.8524Z" fill="#8B9FD1"/>
<path d="M38.011 37.5023C38.0259 37.5763 38.0241 37.6527 38.0059 37.7259C37.9876 37.7992 37.9534 37.8675 37.9055 37.9259C37.8577 37.9843 37.7975 38.0314 37.7292 38.0637C37.661 38.096 37.5865 38.1128 37.511 38.1128C37.4355 38.1128 37.3609 38.096 37.2927 38.0637C37.2245 38.0314 37.1643 37.9843 37.1164 37.9259C37.0686 37.8675 37.0343 37.7992 37.0161 37.7259C36.9978 37.6527 36.9961 37.5763 37.011 37.5023C37.0342 37.3868 37.0967 37.2828 37.1878 37.2082C37.279 37.1335 37.3932 37.0928 37.511 37.0928C37.6288 37.0928 37.743 37.1335 37.8341 37.2082C37.9253 37.2828 37.9878 37.3868 38.011 37.5023Z" fill="#8B9FD1"/>
<path d="M34.3109 21.8123C34.3129 21.9135 34.2847 22.0131 34.2299 22.0983C34.175 22.1834 34.0961 22.2504 34.0031 22.2905C33.9101 22.3306 33.8073 22.3422 33.7077 22.3236C33.6081 22.3051 33.5163 22.2573 33.444 22.1864C33.3716 22.1155 33.3221 22.0247 33.3016 21.9255C33.2811 21.8263 33.2906 21.7233 33.3289 21.6295C33.3671 21.5357 33.4325 21.4555 33.5166 21.399C33.6006 21.3425 33.6996 21.3123 33.8009 21.3123C33.9344 21.3122 34.0627 21.3646 34.158 21.4581C34.2534 21.5516 34.3083 21.6787 34.3109 21.8123Z" fill="#A4B0DB"/>
<path d="M63.3111 13.4923C63.3111 13.5872 63.2829 13.6801 63.2302 13.759C63.1774 13.8379 63.1025 13.8994 63.0148 13.9358C62.9271 13.9721 62.8305 13.9816 62.7374 13.9631C62.6443 13.9446 62.5588 13.8988 62.4917 13.8317C62.4245 13.7646 62.3788 13.6791 62.3603 13.586C62.3418 13.4928 62.3513 13.3963 62.3876 13.3086C62.4239 13.2209 62.4855 13.1459 62.5644 13.0932C62.6433 13.0404 62.7362 13.0123 62.8311 13.0123C62.8945 13.011 62.9575 13.0224 63.0164 13.0461C63.0752 13.0697 63.1287 13.105 63.1735 13.1499C63.2184 13.1947 63.2537 13.2482 63.2773 13.307C63.301 13.3659 63.3124 13.4289 63.3111 13.4923Z" fill="#A4B0DB"/>
<path d="M69.3808 8.51221C69.403 8.5896 69.4068 8.67106 69.3921 8.75018C69.3773 8.82931 69.3444 8.90392 69.296 8.96817C69.2475 9.03242 69.1848 9.08456 69.1127 9.12045C69.0407 9.15635 68.9613 9.17502 68.8808 9.17502C68.8004 9.17502 68.721 9.15635 68.6489 9.12045C68.5769 9.08456 68.5142 9.03242 68.4657 8.96817C68.4172 8.90392 68.3843 8.82931 68.3696 8.75018C68.3549 8.67106 68.3587 8.5896 68.3808 8.51221C68.3587 8.43482 68.3549 8.35336 68.3696 8.27423C68.3843 8.19511 68.4172 8.12047 68.4657 8.05621C68.5142 7.99196 68.5769 7.93982 68.6489 7.90393C68.721 7.86804 68.8004 7.84937 68.8808 7.84937C68.9613 7.84937 69.0407 7.86804 69.1127 7.90393C69.1848 7.93982 69.2475 7.99196 69.296 8.05621C69.3444 8.12047 69.3773 8.19511 69.3921 8.27423C69.4068 8.35336 69.403 8.43482 69.3808 8.51221Z" fill="#A4B0DB"/>
<path d="M26.3409 18.9523C26.7109 18.9523 27.0109 18.6523 27.0109 18.2823C27.0109 17.9123 26.7109 17.6123 26.3409 17.6123C25.9709 17.6123 25.6709 17.9123 25.6709 18.2823C25.6709 18.6523 25.9709 18.9523 26.3409 18.9523Z" fill="#E6F9FF"/>
<path d="M45.6411 36.3424C45.6431 36.4895 45.6011 36.634 45.5205 36.7572C45.44 36.8804 45.3245 36.9768 45.1889 37.034C45.0533 37.0913 44.9037 37.1068 44.7592 37.0786C44.6147 37.0503 44.482 36.9796 44.3779 36.8756C44.2738 36.7715 44.2031 36.6387 44.1749 36.4942C44.1466 36.3497 44.1621 36.2001 44.2194 36.0645C44.2766 35.9289 44.373 35.8134 44.4962 35.7329C44.6194 35.6523 44.7639 35.6104 44.9111 35.6124C45.1047 35.6124 45.2903 35.6893 45.4272 35.8262C45.5641 35.9631 45.6411 36.1487 45.6411 36.3424Z" fill="white"/>
<path d="M41.9109 31.0522C41.9122 31.1515 41.8938 31.2502 41.8567 31.3423C41.8196 31.4345 41.7646 31.5183 41.6948 31.5891C41.625 31.6598 41.5419 31.7159 41.4502 31.7542C41.3586 31.7925 41.2602 31.8122 41.1609 31.8122C40.9593 31.8122 40.766 31.7322 40.6235 31.5896C40.4809 31.4471 40.4009 31.2538 40.4009 31.0522C40.4009 30.8507 40.4809 30.6574 40.6235 30.5148C40.766 30.3723 40.9593 30.2922 41.1609 30.2922C41.2602 30.2922 41.3586 30.3119 41.4502 30.3503C41.5419 30.3886 41.625 30.4447 41.6948 30.5154C41.7646 30.5861 41.8196 30.67 41.8567 30.7621C41.8938 30.8543 41.9122 30.9529 41.9109 31.0522Z" fill="white"/>
<path d="M110.981 24.8823C110.981 25.0385 110.935 25.1913 110.848 25.3212C110.761 25.4511 110.638 25.5524 110.493 25.6122C110.349 25.6719 110.19 25.6876 110.037 25.6571C109.884 25.6266 109.743 25.5514 109.632 25.4409C109.522 25.3304 109.447 25.1897 109.416 25.0364C109.386 24.8832 109.401 24.7243 109.461 24.58C109.521 24.4356 109.622 24.3122 109.752 24.2254C109.882 24.1386 110.035 24.0923 110.191 24.0923C110.4 24.0923 110.601 24.1755 110.749 24.3237C110.898 24.4718 110.981 24.6728 110.981 24.8823Z" fill="white"/>
<path d="M94.3109 10.0324C94.6864 10.0324 94.9909 9.72792 94.9909 9.35236C94.9909 8.97681 94.6864 8.67236 94.3109 8.67236C93.9353 8.67236 93.6309 8.97681 93.6309 9.35236C93.6309 9.72792 93.9353 10.0324 94.3109 10.0324Z" fill="white"/>
<path d="M35.001 29.9521C35.001 30.1005 34.957 30.2455 34.8746 30.3688C34.7922 30.4921 34.675 30.5883 34.538 30.6451C34.401 30.7018 34.2502 30.7167 34.1047 30.6877C33.9592 30.6588 33.8255 30.5873 33.7206 30.4825C33.6158 30.3776 33.5443 30.2439 33.5154 30.0984C33.4864 29.953 33.5013 29.8022 33.5581 29.6651C33.6148 29.5281 33.711 29.4109 33.8343 29.3285C33.9576 29.2461 34.1026 29.2021 34.251 29.2021C34.4491 29.2047 34.6384 29.2846 34.7784 29.4247C34.9185 29.5648 34.9984 29.754 35.001 29.9521Z" fill="white"/>
<path d="M91.5108 32.0324C91.5128 32.1712 91.4734 32.3075 91.3977 32.424C91.322 32.5404 91.2134 32.6317 91.0856 32.6862C90.9579 32.7407 90.8169 32.756 90.6805 32.7301C90.544 32.7042 90.4183 32.6384 90.3194 32.5409C90.2205 32.4434 90.1529 32.3187 90.125 32.1827C90.0972 32.0466 90.1105 31.9053 90.1632 31.7768C90.2158 31.6483 90.3055 31.5384 90.4208 31.4611C90.5362 31.3837 90.6719 31.3424 90.8108 31.3424C90.9022 31.341 90.993 31.3579 91.0779 31.392C91.1628 31.4261 91.24 31.4767 91.3052 31.5409C91.3703 31.6051 91.422 31.6816 91.4573 31.766C91.4926 31.8503 91.5108 31.9409 91.5108 32.0324Z" fill="white"/>
<path d="M105.691 20.6522C105.693 20.7851 105.655 20.9156 105.583 21.0271C105.511 21.1386 105.407 21.226 105.284 21.2783C105.162 21.3305 105.027 21.3452 104.897 21.3205C104.766 21.2958 104.646 21.2328 104.551 21.1395C104.456 21.0462 104.391 20.9269 104.365 20.7966C104.338 20.6664 104.351 20.5312 104.401 20.4082C104.452 20.2852 104.537 20.1799 104.648 20.1058C104.758 20.0318 104.888 19.9922 105.021 19.9922C105.197 19.9922 105.366 20.0614 105.491 20.1849C105.617 20.3084 105.688 20.4762 105.691 20.6522Z" fill="white"/>
<path d="M16.881 34.7223C16.881 34.8548 16.8417 34.9843 16.7681 35.0945C16.6945 35.2047 16.5898 35.2905 16.4674 35.3412C16.345 35.392 16.2103 35.4052 16.0803 35.3794C15.9503 35.3535 15.8309 35.2897 15.7372 35.196C15.6435 35.1023 15.5797 34.9829 15.5539 34.853C15.528 34.723 15.5413 34.5883 15.592 34.4659C15.6427 34.3434 15.7286 34.2388 15.8388 34.1652C15.949 34.0915 16.0785 34.0522 16.211 34.0522C16.3887 34.0522 16.5591 34.1229 16.6848 34.2485C16.8104 34.3742 16.881 34.5446 16.881 34.7223Z" fill="white"/>
<path d="M74.771 27.5822C74.771 27.7326 74.7264 27.8795 74.6429 28.0045C74.5594 28.1295 74.4407 28.2269 74.3018 28.2844C74.1629 28.3419 74.0101 28.357 73.8627 28.3277C73.7153 28.2983 73.5798 28.2259 73.4736 28.1197C73.3673 28.0134 73.2949 27.878 73.2656 27.7305C73.2363 27.5831 73.2513 27.4303 73.3088 27.2914C73.3663 27.1525 73.4638 27.0339 73.5887 26.9503C73.7137 26.8668 73.8607 26.8223 74.011 26.8223C74.2125 26.8223 74.4058 26.9023 74.5484 27.0449C74.6909 27.1874 74.771 27.3807 74.771 27.5822Z" fill="white"/>
<path d="M88.411 6.19228C88.7865 6.19228 89.091 5.88783 89.091 5.51228C89.091 5.13672 88.7865 4.83228 88.411 4.83228C88.0354 4.83228 87.731 5.13672 87.731 5.51228C87.731 5.88783 88.0354 6.19228 88.411 6.19228Z" fill="#CCE0FF"/>
<path d="M75.771 5.42236C75.771 5.62128 75.692 5.81201 75.5513 5.95267C75.4107 6.09332 75.2199 6.17236 75.021 6.17236C74.8221 6.17236 74.6313 6.09332 74.4907 5.95267C74.35 5.81201 74.271 5.62128 74.271 5.42236C74.271 5.22345 74.35 5.03268 74.4907 4.89203C74.6313 4.75138 74.8221 4.67236 75.021 4.67236C75.2199 4.67236 75.4107 4.75138 75.5513 4.89203C75.692 5.03268 75.771 5.22345 75.771 5.42236Z" fill="#CCE0FF"/>
<path d="M85.5207 27.3322C85.9515 27.3322 86.3007 26.983 86.3007 26.5522C86.3007 26.1214 85.9515 25.7722 85.5207 25.7722C85.0899 25.7722 84.7407 26.1214 84.7407 26.5522C84.7407 26.983 85.0899 27.3322 85.5207 27.3322Z" fill="white"/>
<path d="M82.7109 3.21216C82.7109 3.35852 82.6676 3.5016 82.5862 3.62329C82.5049 3.74498 82.3893 3.83983 82.2541 3.89584C82.1189 3.95185 81.9701 3.96651 81.8266 3.93796C81.683 3.9094 81.5512 3.8389 81.4477 3.73541C81.3442 3.63192 81.2737 3.50008 81.2452 3.35654C81.2166 3.21299 81.2313 3.0642 81.2873 2.92899C81.3433 2.79377 81.4381 2.67821 81.5598 2.59689C81.6815 2.51558 81.8246 2.47217 81.9709 2.47217C82.1672 2.47217 82.3554 2.55013 82.4942 2.6889C82.633 2.82768 82.7109 3.0159 82.7109 3.21216Z" fill="#CCE0FF"/>
<path d="M33.2807 14.7722C33.2807 14.9764 33.1996 15.1723 33.0552 15.3167C32.9108 15.4611 32.715 15.5422 32.5107 15.5422C32.3065 15.5422 32.1107 15.4611 31.9662 15.3167C31.8218 15.1723 31.7407 14.9764 31.7407 14.7722C31.7407 14.568 31.8218 14.3721 31.9662 14.2277C32.1107 14.0833 32.3065 14.0022 32.5107 14.0022C32.715 14.0022 32.9108 14.0833 33.0552 14.2277C33.1996 14.3721 33.2807 14.568 33.2807 14.7722Z" fill="#E6F9FF"/>
<path d="M122.531 31.2023C122.962 31.2023 123.311 30.8531 123.311 30.4223C123.311 29.9916 122.962 29.6423 122.531 29.6423C122.1 29.6423 121.751 29.9916 121.751 30.4223C121.751 30.8531 122.1 31.2023 122.531 31.2023Z" fill="white"/>
<path d="M18.9208 28.8422C18.933 28.9486 18.9227 29.0564 18.8903 29.1586C18.858 29.2608 18.8044 29.3549 18.7331 29.4349C18.6618 29.5149 18.5744 29.5789 18.4766 29.6227C18.3788 29.6665 18.2729 29.6892 18.1658 29.6892C18.0586 29.6892 17.9527 29.6665 17.8549 29.6227C17.7571 29.5789 17.6697 29.5149 17.5984 29.4349C17.5271 29.3549 17.4736 29.2608 17.4412 29.1586C17.4089 29.0564 17.3985 28.9486 17.4108 28.8422C17.4321 28.6569 17.5208 28.486 17.6601 28.3619C17.7993 28.2378 17.9793 28.1692 18.1658 28.1692C18.3523 28.1692 18.5322 28.2378 18.6714 28.3619C18.8107 28.486 18.8994 28.6569 18.9208 28.8422Z" fill="white"/>
<path d="M31.061 36.5222C31.061 36.6765 31.0152 36.8273 30.9295 36.9555C30.8438 37.0838 30.722 37.1838 30.5795 37.2428C30.4369 37.3019 30.2801 37.3173 30.1288 37.2872C29.9775 37.2571 29.8385 37.1828 29.7294 37.0737C29.6203 36.9646 29.5461 36.8257 29.516 36.6744C29.4859 36.5231 29.5013 36.3662 29.5604 36.2237C29.6194 36.0812 29.7194 35.9594 29.8476 35.8737C29.9759 35.7879 30.1267 35.7422 30.281 35.7422C30.4878 35.7422 30.6862 35.8244 30.8325 35.9706C30.9788 36.1169 31.061 36.3153 31.061 36.5222Z" fill="white"/>
<path d="M22.6108 24.0123C22.6128 24.1551 22.5723 24.2952 22.4944 24.4149C22.4165 24.5347 22.3047 24.6285 22.1734 24.6845C22.042 24.7406 21.8969 24.7563 21.7566 24.7296C21.6163 24.703 21.487 24.6352 21.3853 24.5349C21.2836 24.4346 21.2141 24.3064 21.1855 24.1664C21.1569 24.0265 21.1705 23.8812 21.2247 23.7491C21.2789 23.6169 21.3712 23.5039 21.4898 23.4243C21.6084 23.3448 21.748 23.3023 21.8908 23.3022C22.0801 23.3022 22.2617 23.3767 22.3965 23.5096C22.5312 23.6425 22.6082 23.8231 22.6108 24.0123Z" fill="#E6F9FF"/>
<path d="M61.3209 46.2322C61.3209 46.3687 61.2804 46.5021 61.2046 46.6156C61.1288 46.729 61.0211 46.8175 60.895 46.8697C60.7689 46.9219 60.6302 46.9356 60.4963 46.909C60.3625 46.8823 60.2395 46.8166 60.143 46.7201C60.0465 46.6236 59.9808 46.5007 59.9542 46.3669C59.9275 46.233 59.9412 46.0943 59.9934 45.9682C60.0457 45.8421 60.1341 45.7343 60.2476 45.6585C60.3611 45.5827 60.4945 45.5422 60.6309 45.5422C60.8139 45.5422 60.9894 45.6149 61.1188 45.7443C61.2482 45.8737 61.3209 46.0492 61.3209 46.2322Z" fill="white"/>
<path d="M85.191 33.7722C85.191 33.9166 85.1482 34.0577 85.0679 34.1778C84.9877 34.2978 84.8737 34.3914 84.7403 34.4467C84.6069 34.5019 84.4602 34.5164 84.3186 34.4882C84.1769 34.46 84.0469 34.3905 83.9448 34.2884C83.8427 34.1863 83.7731 34.0562 83.745 33.9146C83.7168 33.773 83.7313 33.6262 83.7865 33.4929C83.8418 33.3595 83.9354 33.2455 84.0554 33.1653C84.1755 33.085 84.3166 33.0422 84.461 33.0422C84.5568 33.0422 84.6517 33.0611 84.7403 33.0978C84.8289 33.1345 84.9094 33.1883 84.9772 33.256C85.0449 33.3238 85.0987 33.4043 85.1354 33.4929C85.1721 33.5814 85.191 33.6764 85.191 33.7722Z" fill="white"/>
<path d="M60.6708 38.4822C60.6728 38.6373 60.6284 38.7895 60.5435 38.9193C60.4586 39.0491 60.3368 39.1506 60.1939 39.2109C60.051 39.2712 59.8933 39.2874 59.7411 39.2577C59.5889 39.2279 59.449 39.1534 59.3393 39.0437C59.2296 38.934 59.1551 38.7941 59.1253 38.6419C59.0956 38.4897 59.1119 38.332 59.1721 38.1891C59.2324 38.0462 59.3339 37.9245 59.4637 37.8395C59.5935 37.7546 59.7457 37.7102 59.9008 37.7122C60.105 37.7122 60.3009 37.7933 60.4453 37.9377C60.5897 38.0821 60.6708 38.278 60.6708 38.4822Z" fill="white"/>
<path d="M102.331 27.0222C102.331 27.2106 102.256 27.3911 102.123 27.5243C101.99 27.6574 101.809 27.7323 101.621 27.7323C101.432 27.7323 101.252 27.6574 101.119 27.5243C100.985 27.3911 100.911 27.2106 100.911 27.0222C100.911 26.8339 100.985 26.6534 101.119 26.5202C101.252 26.3871 101.432 26.3123 101.621 26.3123C101.809 26.3123 101.99 26.3871 102.123 26.5202C102.256 26.6534 102.331 26.8339 102.331 27.0222Z" fill="white"/>
<path d="M93.721 16.5224C94.0966 16.5224 94.401 16.2179 94.401 15.8424C94.401 15.4668 94.0966 15.1624 93.721 15.1624C93.3455 15.1624 93.041 15.4668 93.041 15.8424C93.041 16.2179 93.3455 16.5224 93.721 16.5224Z" fill="white"/>
<path d="M116.341 28.7222C116.341 28.8725 116.296 29.0194 116.213 29.1444C116.129 29.2694 116.011 29.3668 115.872 29.4243C115.733 29.4818 115.58 29.4969 115.433 29.4676C115.285 29.4382 115.15 29.3659 115.043 29.2596C114.937 29.1533 114.865 29.0178 114.835 28.8704C114.806 28.723 114.821 28.5702 114.879 28.4313C114.936 28.2925 115.034 28.1738 115.159 28.0902C115.284 28.0067 115.431 27.9622 115.581 27.9622C115.782 27.9622 115.976 28.0422 116.118 28.1848C116.261 28.3273 116.341 28.5206 116.341 28.7222Z" fill="white"/>
<path d="M48.0907 40.9822C48.0893 43.1594 47.5166 45.2981 46.4298 47.1845C45.3429 49.071 43.78 50.6392 41.8973 51.7324C40.0145 52.8256 37.8778 53.4056 35.7006 53.4144C33.5235 53.4231 31.3822 52.8603 29.4907 51.7822C28.2978 51.1089 27.2291 50.2363 26.3307 49.2022C24.746 47.4085 23.7128 45.1955 23.3553 42.8288C22.9978 40.4622 23.3312 38.0427 24.3154 35.8609C25.2996 33.6791 26.8928 31.828 28.9036 30.5297C30.9144 29.2314 33.2572 28.5413 35.6507 28.5422C36.538 28.5432 37.4229 28.637 38.2907 28.8222C41.0681 29.4235 43.5557 30.9583 45.3389 33.171C47.1221 35.3836 48.0933 38.1405 48.0907 40.9822Z" fill="#B3D6FF"/>
<path d="M37.4407 36.9422C36.5589 39.0166 35.3726 40.9479 33.9208 42.6722C32.2643 44.5345 30.41 46.2111 28.3908 47.6722C27.7208 48.1822 27.0308 48.6722 26.3308 49.1622C24.3196 46.8972 23.2126 43.9712 23.2207 40.9422C23.2207 40.7822 23.2207 40.6422 23.2207 40.4822C23.3322 37.2624 24.6895 34.2116 27.0064 31.973C29.3234 29.7344 32.419 28.4828 35.6408 28.4822C36.5281 28.4831 37.4129 28.5769 38.2807 28.7622C38.9265 31.5059 38.6307 34.387 37.4407 36.9422Z" fill="#E6F9FF"/>
<path d="M48.0907 40.9822C48.0894 43.1594 47.5166 45.298 46.4298 47.1845C45.343 49.071 43.7801 50.6392 41.8973 51.7324C40.0145 52.8256 37.8778 53.4056 35.7007 53.4143C33.5235 53.4231 31.3822 52.8603 29.4907 51.7822C32.2372 50.84 34.7914 49.4105 37.0307 47.5622C39.5547 45.6258 41.5156 43.0503 42.7107 40.1022C43.3295 38.4154 43.5419 36.6065 43.3307 34.8222C42.99 33.2709 42.5354 31.7467 41.9707 30.2622C43.8341 31.3636 45.3784 32.9313 46.4515 34.8111C47.5247 36.6908 48.0896 38.8177 48.0907 40.9822Z" fill="#B2C8D7"/>
<path d="M28.831 36.0022C27.7337 37.5131 26.3254 38.7713 24.701 39.6922C24.2279 39.9978 23.737 40.2749 23.231 40.5222C23.3063 38.4191 23.9148 36.3698 24.9993 34.5664C26.0838 32.763 27.6087 31.2647 29.4309 30.2122C29.5048 30.3212 29.5652 30.4387 29.611 30.5622C29.9237 31.4655 30.0161 32.4305 29.8804 33.3767C29.7447 34.323 29.3849 35.2231 28.831 36.0022Z" fill="white"/>
<path d="M37.6811 44.1322C38.0014 44.1322 38.2611 43.8725 38.2611 43.5522C38.2611 43.2318 38.0014 42.9722 37.6811 42.9722C37.3608 42.9722 37.1011 43.2318 37.1011 43.5522C37.1011 43.8725 37.3608 44.1322 37.6811 44.1322Z" fill="#8B9FD1"/>
<path d="M35.4111 35.3123C35.7314 35.3123 35.9911 35.0527 35.9911 34.7323C35.9911 34.412 35.7314 34.1523 35.4111 34.1523C35.0907 34.1523 34.8311 34.412 34.8311 34.7323C34.8311 35.0527 35.0907 35.3123 35.4111 35.3123Z" fill="#8B9FD1"/>
<path d="M33.1906 49.5722C33.2015 49.6554 33.1946 49.74 33.1702 49.8204C33.1457 49.9007 33.1045 49.9749 33.0491 50.038C32.9937 50.1011 32.9255 50.1516 32.8491 50.1863C32.7726 50.2209 32.6896 50.2389 32.6056 50.2389C32.5217 50.2389 32.4387 50.2209 32.3622 50.1863C32.2858 50.1516 32.2175 50.1011 32.1622 50.038C32.1068 49.9749 32.0655 49.9007 32.0411 49.8204C32.0167 49.74 32.0097 49.6554 32.0206 49.5722C32.0392 49.4302 32.1088 49.2998 32.2165 49.2054C32.3241 49.1109 32.4624 49.0588 32.6056 49.0588C32.7488 49.0588 32.8871 49.1109 32.9948 49.2054C33.1024 49.2998 33.172 49.4302 33.1906 49.5722Z" fill="#8B9FD1"/>
<path d="M41.0308 32.1222C41.0282 32.2779 40.9653 32.4265 40.8552 32.5366C40.7451 32.6467 40.5965 32.7096 40.4408 32.7122C40.2861 32.7096 40.1386 32.6463 40.0301 32.5359C39.9216 32.4256 39.8608 32.277 39.8608 32.1222C39.8608 31.9684 39.9219 31.8209 40.0307 31.7121C40.1395 31.6033 40.287 31.5422 40.4408 31.5422C40.5956 31.5422 40.7442 31.603 40.8545 31.7115C40.9649 31.82 41.0282 31.9675 41.0308 32.1222Z" fill="#8B9FD1"/>
<path d="M26.4406 45.7223C26.422 45.8643 26.3524 45.9947 26.2448 46.0891C26.1371 46.1836 25.9988 46.2357 25.8556 46.2357C25.7124 46.2357 25.5741 46.1836 25.4665 46.0891C25.3588 45.9947 25.2892 45.8643 25.2706 45.7223C25.2597 45.6391 25.2667 45.5545 25.2911 45.4742C25.3155 45.3938 25.3568 45.3196 25.4122 45.2565C25.4675 45.1934 25.5358 45.1429 25.6122 45.1082C25.6887 45.0736 25.7717 45.0557 25.8556 45.0557C25.9396 45.0557 26.0226 45.0736 26.0991 45.1082C26.1755 45.1429 26.2437 45.1934 26.2991 45.2565C26.3545 45.3196 26.3957 45.3938 26.4202 45.4742C26.4446 45.5545 26.4515 45.6391 26.4406 45.7223Z" fill="#8B9FD1"/>
<path d="M27.9708 34.7223C27.9708 34.8771 27.91 35.0257 27.8015 35.136C27.6931 35.2464 27.5455 35.3097 27.3908 35.3123C27.2351 35.3097 27.0865 35.2468 26.9764 35.1367C26.8663 35.0266 26.8034 34.878 26.8008 34.7223C26.8034 34.5676 26.8667 34.4201 26.9771 34.3116C27.0875 34.2031 27.236 34.1423 27.3908 34.1423C27.5446 34.1423 27.6921 34.2034 27.8009 34.3122C27.9097 34.421 27.9708 34.5685 27.9708 34.7223Z" fill="#8B9FD1"/>
<path d="M40.1907 38.9223C40.1907 38.9955 40.169 39.067 40.1283 39.1278C40.0877 39.1887 40.0299 39.2361 39.9623 39.2641C39.8947 39.2921 39.8203 39.2994 39.7485 39.2852C39.6767 39.2709 39.6108 39.2356 39.5591 39.1839C39.5073 39.1322 39.4721 39.0662 39.4578 38.9944C39.4435 38.9227 39.4508 38.8483 39.4788 38.7807C39.5069 38.7131 39.5543 38.6553 39.6151 38.6146C39.676 38.574 39.7475 38.5522 39.8207 38.5522C39.9188 38.5522 40.0129 38.5913 40.0823 38.6606C40.1517 38.73 40.1907 38.8241 40.1907 38.9223Z" fill="#E6F9FF"/>
<path d="M28.671 32.2722C28.673 32.3462 28.6527 32.4191 28.6128 32.4815C28.573 32.5438 28.5153 32.5928 28.4473 32.622C28.3793 32.6513 28.3041 32.6594 28.2314 32.6455C28.1587 32.6315 28.0919 32.5961 28.0395 32.5437C27.9872 32.4914 27.9517 32.4246 27.9378 32.3519C27.9238 32.2792 27.932 32.204 27.9612 32.136C27.9905 32.068 28.0394 32.0103 28.1018 31.9704C28.1641 31.9305 28.237 31.9103 28.311 31.9122C28.4065 31.9122 28.4981 31.9502 28.5656 32.0177C28.6331 32.0852 28.671 32.1767 28.671 32.2722Z" fill="#E6F9FF"/>
<path d="M41.4606 47.3922C41.4898 47.4591 41.4985 47.5332 41.4857 47.6051C41.4728 47.677 41.439 47.7435 41.3884 47.7962C41.3378 47.8489 41.2728 47.8855 41.2015 47.9013C41.1302 47.9171 41.0558 47.9114 40.9877 47.885C40.9196 47.8586 40.8608 47.8126 40.8188 47.7529C40.7768 47.6931 40.7534 47.6223 40.7516 47.5493C40.7498 47.4763 40.7696 47.4043 40.8086 47.3426C40.8475 47.2808 40.9039 47.2319 40.9706 47.2022C41.0611 47.1646 41.1625 47.1634 41.2538 47.1988C41.3451 47.2342 41.4192 47.3035 41.4606 47.3922Z" fill="#E6F9FF"/>
<path d="M45.411 36.2424C45.4307 36.2862 45.4415 36.3337 45.4426 36.3818C45.4437 36.4299 45.4351 36.4778 45.4174 36.5225C45.3997 36.5673 45.3732 36.608 45.3394 36.6423C45.3057 36.6766 45.2654 36.7039 45.221 36.7224C45.132 36.7595 45.032 36.7604 44.9424 36.7249C44.8527 36.6894 44.7805 36.6203 44.741 36.5324C44.7034 36.4419 44.7022 36.3405 44.7376 36.2492C44.773 36.1579 44.8423 36.0838 44.931 36.0424C44.9755 36.0229 45.0235 36.0126 45.0721 36.0122C45.1207 36.0118 45.1688 36.0212 45.2137 36.0399C45.2585 36.0586 45.2991 36.0862 45.333 36.121C45.367 36.1558 45.3935 36.197 45.411 36.2424Z" fill="#E6F9FF"/>
<path d="M26.2706 38.2024C26.3077 38.2913 26.3087 38.3913 26.2732 38.4809C26.2377 38.5706 26.1686 38.6429 26.0806 38.6823C25.9902 38.7199 25.8888 38.7211 25.7975 38.6857C25.7062 38.6503 25.6321 38.581 25.5906 38.4923C25.571 38.4471 25.5606 38.3984 25.5601 38.3491C25.5595 38.2998 25.5689 38.2509 25.5875 38.2053C25.6061 38.1596 25.6337 38.1181 25.6686 38.0833C25.7035 38.0484 25.745 38.0209 25.7906 38.0023C25.8809 37.9658 25.9819 37.9664 26.0717 38.0038C26.1616 38.0412 26.233 38.1126 26.2706 38.2024Z" fill="#E6F9FF"/>
<path d="M30.0009 48.8223C30.0226 48.8673 30.0349 48.9163 30.0371 48.9662C30.0393 49.0162 30.0314 49.066 30.0138 49.1128C29.9962 49.1596 29.9693 49.2023 29.9347 49.2384C29.9001 49.2745 29.8586 49.3032 29.8126 49.3229C29.7666 49.3425 29.7172 49.3526 29.6672 49.3525C29.6172 49.3525 29.5677 49.3423 29.5217 49.3226C29.4758 49.303 29.4343 49.2742 29.3998 49.238C29.3653 49.2019 29.3385 49.1591 29.3209 49.1123C29.2844 49.022 29.285 48.9211 29.3224 48.8312C29.3598 48.7414 29.4312 48.6699 29.5209 48.6323C29.6099 48.5952 29.7099 48.5942 29.7996 48.6297C29.8892 48.6652 29.9615 48.7343 30.0009 48.8223Z" fill="#E6F9FF"/>
<path d="M33.991 45.4224C33.991 45.5889 33.9415 45.7517 33.8487 45.89C33.756 46.0284 33.6242 46.136 33.4701 46.1993C33.3161 46.2626 33.1467 46.2786 32.9834 46.2454C32.8202 46.2122 32.6706 46.1312 32.5535 46.0127C32.4364 45.8942 32.3572 45.7436 32.326 45.58C32.2947 45.4164 32.3128 45.2472 32.3779 45.0939C32.443 44.9406 32.5522 44.8101 32.6917 44.719C32.8311 44.6279 32.9945 44.5804 33.161 44.5823C33.2709 44.5823 33.3796 44.6041 33.481 44.6465C33.5823 44.6888 33.6743 44.7508 33.7515 44.829C33.8287 44.9071 33.8896 44.9998 33.9307 45.1017C33.9719 45.2035 33.9923 45.3125 33.991 45.4224Z" fill="white"/>
<path d="M45.8309 40.7821C45.8309 40.9483 45.7816 41.1107 45.6893 41.2488C45.597 41.3869 45.4658 41.4946 45.3123 41.5582C45.1588 41.6218 44.99 41.6384 44.827 41.606C44.6641 41.5736 44.5144 41.4936 44.3969 41.3761C44.2794 41.2586 44.1994 41.109 44.167 40.946C44.1346 40.7831 44.1513 40.6142 44.2148 40.4607C44.2784 40.3072 44.3861 40.176 44.5242 40.0837C44.6623 39.9914 44.8247 39.9421 44.9909 39.9421C45.2128 39.9447 45.425 40.0341 45.582 40.191C45.739 40.348 45.8283 40.5602 45.8309 40.7821Z" fill="white"/>
<path d="M36.7508 50.6222C36.7508 50.845 36.6623 51.0587 36.5048 51.2162C36.3472 51.3737 36.1336 51.4622 35.9108 51.4622C35.688 51.4622 35.4744 51.3737 35.3168 51.2162C35.1593 51.0587 35.0708 50.845 35.0708 50.6222C35.0708 50.3994 35.1593 50.1858 35.3168 50.0283C35.4744 49.8707 35.688 49.7822 35.9108 49.7822C36.1336 49.7822 36.3472 49.8707 36.5048 50.0283C36.6623 50.1858 36.7508 50.3994 36.7508 50.6222Z" fill="white"/>
<path d="M38.1008 32.5323C38.1137 32.6497 38.1016 32.7684 38.0655 32.8808C38.0294 32.9931 37.9701 33.0967 37.8913 33.1845C37.8125 33.2724 37.7161 33.3427 37.6083 33.3909C37.5005 33.439 37.3838 33.4639 37.2658 33.4639C37.1478 33.4639 37.031 33.439 36.9233 33.3909C36.8155 33.3427 36.7191 33.2724 36.6403 33.1845C36.5615 33.0967 36.5021 32.9931 36.466 32.8808C36.4299 32.7684 36.4179 32.6497 36.4308 32.5323C36.4179 32.415 36.4299 32.2963 36.466 32.1839C36.5021 32.0716 36.5615 31.968 36.6403 31.8802C36.7191 31.7923 36.8155 31.722 36.9233 31.6738C37.031 31.6257 37.1478 31.6008 37.2658 31.6008C37.3838 31.6008 37.5005 31.6257 37.6083 31.6738C37.7161 31.722 37.8125 31.7923 37.8913 31.8802C37.9701 31.968 38.0294 32.0716 38.0655 32.1839C38.1016 32.2963 38.1137 32.415 38.1008 32.5323Z" fill="white"/>
<path d="M27.2707 41.1321C27.7346 41.1321 28.1107 40.7561 28.1107 40.2921C28.1107 39.8282 27.7346 39.4521 27.2707 39.4521C26.8067 39.4521 26.4307 39.8282 26.4307 40.2921C26.4307 40.7561 26.8067 41.1321 27.2707 41.1321Z" fill="white"/>
<g style="mix-blend-mode:multiply">
<path d="M29.3907 48.3421C29.3893 49.3689 29.196 50.3864 28.8207 51.3421C27.8926 50.7398 27.0543 50.0092 26.3307 49.1721C24.3236 46.9047 23.2172 43.9803 23.2207 40.9521C23.2207 40.6921 23.2207 40.4421 23.2207 40.1921C24.9946 40.6836 26.5576 41.7447 27.669 43.212C28.7803 44.6794 29.3783 46.4715 29.3707 48.3121L29.3907 48.3421Z" fill="#BFC2DD"/>
</g>
<path d="M27.0406 48.9922C27.0423 50.4726 26.6545 51.9273 25.9162 53.2105C25.178 54.4936 24.1152 55.56 22.8346 56.3026C21.554 57.0453 20.1006 57.438 18.6203 57.4414C17.1399 57.4449 15.6847 57.0589 14.4006 56.3222C13.5917 55.8667 12.8677 55.2746 12.2606 54.5722C10.8914 53.0365 10.1366 51.0497 10.1406 48.9922C10.1406 46.7511 11.0309 44.6019 12.6156 43.0172C14.2003 41.4325 16.3495 40.5422 18.5906 40.5422C19.1922 40.5439 19.7921 40.6076 20.3806 40.7322C22.2664 41.1429 23.9551 42.1859 25.1665 43.6884C26.3779 45.1908 27.0392 47.0622 27.0406 48.9922Z" fill="#B3D6FF"/>
<path d="M19.8006 46.2522C19.2013 47.6602 18.3958 48.9713 17.4106 50.1423C16.2883 51.4148 15.0309 52.5616 13.6606 53.5622C13.2006 53.9122 12.7406 54.2522 12.2606 54.5622C10.8914 53.0265 10.1366 51.0398 10.1406 48.9823C10.1406 48.8723 10.1406 48.7723 10.1406 48.6723C10.2159 46.4854 11.1385 44.4135 12.7135 42.8945C14.2885 41.3754 16.3925 40.5283 18.5806 40.5322C19.1823 40.5339 19.7821 40.5976 20.3706 40.7222C20.8074 42.5773 20.6066 44.5253 19.8006 46.2522Z" fill="#E6F9FF"/>
<path d="M27.0409 48.9922C27.0425 50.4725 26.6547 51.9273 25.9165 53.2104C25.1782 54.4936 24.1155 55.56 22.8349 56.3026C21.5543 57.0452 20.1009 57.4379 18.6205 57.4414C17.1402 57.4448 15.6849 57.0588 14.4009 56.3222C16.2681 55.6831 18.0056 54.7144 19.5309 53.4622C21.2448 52.1471 22.5744 50.3963 23.3809 48.3922C23.8091 47.2471 23.9532 46.0152 23.8009 44.8022C23.575 43.7498 23.2674 42.7167 22.8809 41.7122C24.1485 42.458 25.1992 43.5221 25.9289 44.799C26.6585 46.076 27.0419 47.5214 27.0409 48.9922Z" fill="#B2C8D7"/>
<path d="M13.9509 45.6122C13.2094 46.6382 12.2541 47.4912 11.1509 48.1122C10.8289 48.3214 10.495 48.5117 10.1509 48.6821C10.2037 47.2546 10.6176 45.8638 11.3539 44.6396C12.0901 43.4155 13.1247 42.3979 14.3609 41.6821C14.4122 41.7576 14.4557 41.838 14.4909 41.9221C14.6998 42.536 14.7598 43.1907 14.6659 43.8323C14.572 44.4739 14.327 45.0839 13.9509 45.6122Z" fill="white"/>
<path d="M20.3609 50.7223C20.3459 50.8163 20.2979 50.9018 20.2255 50.9636C20.1531 51.0253 20.0611 51.0593 19.9659 51.0593C19.8707 51.0593 19.7787 51.0253 19.7063 50.9636C19.6339 50.9018 19.5859 50.8163 19.5709 50.7223C19.5618 50.6652 19.5652 50.6068 19.5808 50.5511C19.5965 50.4954 19.624 50.4437 19.6616 50.3997C19.6991 50.3557 19.7458 50.3203 19.7983 50.2961C19.8509 50.2718 19.908 50.2593 19.9659 50.2593C20.0238 50.2593 20.0809 50.2718 20.1335 50.2961C20.186 50.3203 20.2327 50.3557 20.2702 50.3997C20.3078 50.4437 20.3353 50.4954 20.351 50.5511C20.3666 50.6068 20.37 50.6652 20.3609 50.7223Z" fill="#8B9FD1"/>
<path d="M18.8307 44.7223C18.8326 44.8018 18.8109 44.8801 18.7682 44.9472C18.7254 45.0143 18.6636 45.0671 18.5908 45.0989C18.5179 45.1307 18.4372 45.1401 18.3589 45.1258C18.2807 45.1115 18.2085 45.0742 18.1515 45.0187C18.0946 44.9632 18.0555 44.8919 18.0392 44.8141C18.0229 44.7362 18.0303 44.6553 18.0602 44.5816C18.0902 44.5079 18.1414 44.4449 18.2074 44.4005C18.2734 44.356 18.3511 44.3323 18.4306 44.3323C18.535 44.3322 18.6353 44.373 18.71 44.4459C18.7847 44.5188 18.828 44.6179 18.8307 44.7223Z" fill="#8B9FD1"/>
<path d="M16.4908 55.2224C16.7117 55.2224 16.8908 55.0433 16.8908 54.8224C16.8908 54.6015 16.7117 54.4224 16.4908 54.4224C16.2699 54.4224 16.0908 54.6015 16.0908 54.8224C16.0908 55.0433 16.2699 55.2224 16.4908 55.2224Z" fill="#8B9FD1"/>
<path d="M21.8409 43.3723C22.0618 43.3723 22.2409 43.1932 22.2409 42.9723C22.2409 42.7513 22.0618 42.5723 21.8409 42.5723C21.62 42.5723 21.4409 42.7513 21.4409 42.9723C21.4409 43.1932 21.62 43.3723 21.8409 43.3723Z" fill="#8B9FD1"/>
<path d="M12.3307 52.2122C12.3398 52.2693 12.3364 52.3278 12.3207 52.3835C12.305 52.4392 12.2775 52.4908 12.24 52.5349C12.2024 52.5789 12.1557 52.6142 12.1032 52.6385C12.0507 52.6627 11.9935 52.6752 11.9356 52.6752C11.8778 52.6752 11.8206 52.6627 11.7681 52.6385C11.7155 52.6142 11.6689 52.5789 11.6313 52.5349C11.5938 52.4908 11.5662 52.4392 11.5506 52.3835C11.5349 52.3278 11.5315 52.2693 11.5406 52.2122C11.5556 52.1182 11.6037 52.0327 11.6761 51.9709C11.7484 51.9092 11.8405 51.8752 11.9356 51.8752C12.0308 51.8752 12.1229 51.9092 12.1952 51.9709C12.2676 52.0327 12.3157 52.1182 12.3307 52.2122Z" fill="#8B9FD1"/>
<path d="M13.3706 44.7222C13.3719 44.7742 13.3628 44.826 13.3438 44.8745C13.3248 44.9229 13.2963 44.9671 13.26 45.0044C13.2236 45.0417 13.1802 45.0713 13.1322 45.0915C13.0842 45.1118 13.0327 45.1222 12.9806 45.1221C12.9235 45.1313 12.865 45.1279 12.8093 45.1122C12.7536 45.0966 12.702 45.069 12.658 45.0315C12.6139 44.9939 12.5786 44.9473 12.5544 44.8947C12.5301 44.8422 12.5176 44.785 12.5176 44.7272C12.5176 44.6693 12.5301 44.6121 12.5544 44.5596C12.5786 44.507 12.6139 44.4604 12.658 44.4228C12.702 44.3853 12.7536 44.3577 12.8093 44.3421C12.865 44.3264 12.9235 44.323 12.9806 44.3321C13.0318 44.3321 13.0825 44.3422 13.1299 44.3618C13.1772 44.3814 13.2202 44.4102 13.2564 44.4464C13.2926 44.4826 13.3213 44.5256 13.3409 44.5729C13.3605 44.6202 13.3706 44.6709 13.3706 44.7222Z" fill="#8B9FD1"/>
<path d="M21.6606 47.5923C21.6582 47.6578 21.631 47.72 21.5847 47.7663C21.5383 47.8127 21.4762 47.8398 21.4106 47.8423C21.3443 47.8423 21.2807 47.816 21.2339 47.7691C21.187 47.7222 21.1606 47.6586 21.1606 47.5923C21.1606 47.526 21.187 47.4624 21.2339 47.4155C21.2807 47.3686 21.3443 47.3423 21.4106 47.3423C21.4769 47.3423 21.5405 47.3686 21.5874 47.4155C21.6343 47.4624 21.6606 47.526 21.6606 47.5923Z" fill="#E6F9FF"/>
<path d="M13.6011 43.3223C13.7391 43.3223 13.8511 43.2103 13.8511 43.0723C13.8511 42.9342 13.7391 42.8223 13.6011 42.8223C13.463 42.8223 13.3511 42.9342 13.3511 43.0723C13.3511 43.2103 13.463 43.3223 13.6011 43.3223Z" fill="#E6F9FF"/>
<path d="M22.5307 53.3422C22.5455 53.3722 22.5538 53.4049 22.5551 53.4382C22.5565 53.4716 22.5508 53.5048 22.5386 53.5359C22.5264 53.5669 22.5078 53.5951 22.4841 53.6186C22.4603 53.6421 22.4319 53.6603 22.4007 53.6722C22.3706 53.6855 22.3381 53.6926 22.3051 53.6932C22.2721 53.6938 22.2394 53.6879 22.2087 53.6758C22.178 53.6638 22.1501 53.6457 22.1264 53.6228C22.1027 53.5999 22.0838 53.5725 22.0708 53.5422C22.0489 53.4808 22.0501 53.4135 22.074 53.3528C22.0979 53.2922 22.1429 53.2422 22.2008 53.2122C22.262 53.1881 22.3301 53.1881 22.3914 53.2122C22.4526 53.2363 22.5024 53.2828 22.5307 53.3422Z" fill="#E6F9FF"/>
<path d="M25.1909 45.7722C25.2055 45.8014 25.2137 45.8334 25.215 45.8661C25.2162 45.8988 25.2106 45.9313 25.1983 45.9616C25.186 45.9919 25.1673 46.0192 25.1437 46.0417C25.12 46.0642 25.0918 46.0814 25.0609 46.0922C25.0307 46.1054 24.9982 46.1126 24.9653 46.1132C24.9323 46.1139 24.8995 46.108 24.8688 46.0959C24.8382 46.0838 24.8102 46.0658 24.7865 46.0428C24.7629 46.0199 24.744 45.9925 24.7309 45.9622C24.7072 45.9024 24.7076 45.8358 24.7318 45.7762C24.756 45.7166 24.8022 45.6686 24.8609 45.6422C24.8909 45.6275 24.9236 45.6192 24.9569 45.6179C24.9903 45.6165 25.0236 45.6221 25.0546 45.6344C25.0857 45.6466 25.1138 45.6652 25.1373 45.6889C25.1608 45.7127 25.179 45.741 25.1909 45.7722Z" fill="#E6F9FF"/>
<path d="M12.1908 47.1023C12.2041 47.1324 12.2112 47.1649 12.2118 47.1979C12.2125 47.2309 12.2066 47.2636 12.1945 47.2943C12.1824 47.325 12.1644 47.3529 12.1414 47.3766C12.1185 47.4003 12.0911 47.4192 12.0608 47.4322C12.001 47.4559 11.9344 47.4556 11.8748 47.4314C11.8152 47.4072 11.7672 47.3609 11.7408 47.3022C11.7261 47.2723 11.7179 47.2396 11.7165 47.2062C11.7152 47.1729 11.7208 47.1396 11.733 47.1085C11.7452 47.0775 11.7638 47.0493 11.7876 47.0259C11.8113 47.0024 11.8396 46.9841 11.8708 46.9722C11.9001 46.9576 11.9321 46.9494 11.9647 46.9482C11.9974 46.9469 12.0299 46.9526 12.0602 46.9649C12.0905 46.9772 12.1178 46.9958 12.1403 47.0195C12.1629 47.0432 12.1801 47.0714 12.1908 47.1023Z" fill="#E6F9FF"/>
<path d="M14.751 54.3222C14.7752 54.3834 14.7752 54.4516 14.751 54.5128C14.7269 54.574 14.6805 54.6238 14.621 54.6522C14.5598 54.6763 14.4917 54.6763 14.4304 54.6522C14.3692 54.628 14.3194 54.5816 14.291 54.5222C14.2669 54.4609 14.2669 54.3928 14.291 54.3316C14.3152 54.2703 14.3616 54.2205 14.4211 54.1922C14.4512 54.1789 14.4837 54.1718 14.5167 54.1712C14.5497 54.1706 14.5824 54.1764 14.6131 54.1885C14.6438 54.2006 14.6717 54.2187 14.6954 54.2416C14.7191 54.2645 14.738 54.2919 14.751 54.3222Z" fill="#E6F9FF"/>
<path d="M17.4608 52.0021C17.4621 52.0774 17.4483 52.1521 17.4202 52.2219C17.392 52.2916 17.3501 52.355 17.2969 52.4082C17.2437 52.4614 17.1803 52.5034 17.1105 52.5315C17.0407 52.5597 16.966 52.5735 16.8908 52.5721C16.7396 52.5721 16.5946 52.5121 16.4877 52.4052C16.3808 52.2983 16.3208 52.1533 16.3208 52.0021C16.3234 51.8518 16.3843 51.7083 16.4906 51.6019C16.5969 51.4956 16.7404 51.4347 16.8908 51.4321C17.042 51.4321 17.187 51.4922 17.2939 51.5991C17.4007 51.706 17.4608 51.851 17.4608 52.0021Z" fill="white"/>
<path d="M25.5008 48.8522C25.5022 48.9275 25.4884 49.0022 25.4602 49.072C25.432 49.1417 25.3901 49.2051 25.3369 49.2583C25.2837 49.3115 25.2203 49.3534 25.1505 49.3816C25.0808 49.4098 25.006 49.4236 24.9308 49.4222C24.7796 49.4222 24.6347 49.3622 24.5278 49.2553C24.4209 49.1484 24.3608 49.0034 24.3608 48.8522C24.3634 48.7019 24.4243 48.5584 24.5306 48.452C24.637 48.3457 24.7804 48.2848 24.9308 48.2822C25.082 48.2822 25.227 48.3423 25.3339 48.4492C25.4408 48.5561 25.5008 48.7011 25.5008 48.8522Z" fill="white"/>
<path d="M19.3309 55.5423C19.3309 55.6934 19.2709 55.8384 19.164 55.9453C19.0571 56.0522 18.9121 56.1123 18.7609 56.1123C18.6106 56.1097 18.4671 56.0488 18.3607 55.9425C18.2544 55.8361 18.1935 55.6926 18.1909 55.5423C18.1909 55.3911 18.251 55.2461 18.3579 55.1392C18.4648 55.0323 18.6098 54.9723 18.7609 54.9723C18.8362 54.9709 18.9109 54.9847 18.9807 55.0129C19.0504 55.041 19.1138 55.083 19.167 55.1362C19.2202 55.1894 19.2621 55.2528 19.2903 55.3225C19.3184 55.3923 19.3323 55.467 19.3309 55.5423Z" fill="white"/>
<path d="M20.2508 43.2522C20.2508 43.4034 20.1908 43.5484 20.0839 43.6553C19.977 43.7622 19.832 43.8222 19.6808 43.8222C19.5304 43.8197 19.387 43.7588 19.2806 43.6524C19.1743 43.5461 19.1134 43.4026 19.1108 43.2522C19.1108 43.1011 19.1709 42.9561 19.2778 42.8492C19.3847 42.7423 19.5296 42.6822 19.6808 42.6822C19.756 42.6809 19.8308 42.6947 19.9005 42.7229C19.9703 42.751 20.0337 42.793 20.0869 42.8462C20.1401 42.8994 20.182 42.9627 20.2102 43.0325C20.2384 43.1023 20.2522 43.177 20.2508 43.2522Z" fill="white"/>
<path d="M13.471 48.5221C13.471 48.6733 13.411 48.8183 13.3041 48.9252C13.1972 49.0321 13.0522 49.0921 12.901 49.0921C12.7499 49.0921 12.6049 49.0321 12.498 48.9252C12.3911 48.8183 12.3311 48.6733 12.3311 48.5221C12.3311 48.371 12.3911 48.226 12.498 48.1191C12.6049 48.0122 12.7499 47.9521 12.901 47.9521C13.0522 47.9521 13.1972 48.0122 13.3041 48.1191C13.411 48.226 13.471 48.371 13.471 48.5221Z" fill="white"/>
</svg>
