<svg width="111" height="35" viewBox="0 0 111 35" fill="none" xmlns="http://www.w3.org/2000/svg">
<path opacity="0.7" d="M73.0927 34.0005C80.2927 35.2005 95.0927 31.5005 101.593 29.5005C113.193 21.5009 48.7593 17.167 15.0927 16C11.0927 17 2.59268 19.2 0.592682 20C-1.90732 21 4.09265 22 7.59265 22C9.21239 22 15.2604 22.5873 17.0926 22.5C19.2195 22.3986 18.0554 24.1419 18.5926 24.5C21.5513 26.4724 33.2575 27.088 40.7798 27.4835L41.0927 27.5C50.5927 28 61.5927 28.5 64.0927 29C66.5927 29.5 64.0927 32.5005 73.0927 34.0005Z" fill="#CCCFE0"/>
<path d="M10.2105 18.147C10.2105 18.147 16.5375 13.0236 21.9592 11.2182C27.3808 9.41275 28.8826 6.39832 33.7024 4.89111C38.5223 3.38389 46.0529 6.70194 52.0763 7.30374C58.0998 7.90555 65.0286 1.59475 69.5448 0.374878C75.1183 -1.13234 79.9381 2.3321 84.1507 3.23752C88.3633 4.14293 93.0368 -0.682333 99.0602 5.04291C102.47 8.2959 104.785 15.6747 109.302 20.7657C114.805 26.9734 100.567 31.2403 90.4778 31.2403C60.3118 31.2403 72.2015 26.7457 69.9949 26.8758C54.3372 27.7758 58.2191 25.065 61.1738 22.6578C64.1286 20.2506 62.9196 18.4398 56.5926 19.6434C50.2655 20.847 46.3511 19.0416 37.6168 20.5488C28.8826 22.056 8.40507 22.0614 10.2105 18.147Z" fill="white"/>
<path d="M61.1736 22.6634C60.2135 23.4253 59.3227 24.2708 58.5116 25.1898C60.9731 23.6609 63.9333 21.9369 65.782 20.7712C69.241 18.6026 66.8339 13.4737 63.1688 12.8719C59.5038 12.2701 50.6991 7.75385 52.678 11.5761C54.3912 14.9321 48.4599 16.6399 45.5973 17.6917C42.7347 18.7435 39.1239 17.9953 35.963 16.9381C32.8022 15.8809 30.8396 14.0809 28.5842 11.9719C26.3288 9.86287 25.2716 16.9381 21.5036 16.9381C19.5192 16.9381 16.456 16.1465 14 15.3929C11.7717 16.8839 10.2049 18.1471 10.2049 18.1471C8.39945 22.0616 28.877 22.0615 37.6112 20.5543C46.3455 19.0471 50.2653 20.858 56.587 19.6489C62.9086 18.4399 64.1284 20.2399 61.1736 22.6634Z" fill="#E0F0FC"/>
<path d="M96.5444 3.18317C91.7029 0.597051 87.7613 4.00726 84.1505 3.23739C80.1548 2.38077 75.6169 -0.774627 70.4121 0.17958C72.9609 0.230815 75.4162 1.14867 77.3735 2.78196C80.5397 5.49278 76.9235 9.26081 81.1415 8.20359C85.3596 7.14637 89.9571 1.17717 96.5444 3.18317Z" fill="#E0F0FC"/>
<path d="M109.302 20.7822C105.311 16.2823 103.04 9.99319 100.215 6.34985C100.383 6.64262 104.753 14.1462 103.126 16.9491C101.5 19.7521 104.184 20.1154 106.439 21.769C108.695 23.4226 103.186 25.4936 92.1314 27.0659C81.7436 28.546 68.8184 29.034 74.7822 22.9563C75.14 22.7449 75.4978 22.5497 75.8665 22.3708C79.0273 20.869 86.4062 12.2811 84.2972 13.1865C82.1881 14.0919 82.7899 16.8028 76.4683 19.3618C70.8407 21.6389 66.1672 24.6316 64.8877 27.0659C65.972 27.0659 67.2082 27.028 68.6286 26.9629L69.9895 26.8924C72.1961 26.7623 60.3064 31.2568 90.4724 31.2568C100.567 31.246 114.805 26.9792 109.302 20.7822Z" fill="#E0F0FC"/>
<path d="M109.275 20.7439C109.665 22.7933 109.518 24.9945 107.648 26.0896C103.582 28.4589 98.8433 28.9143 95.5632 29.1366C92.2831 29.3589 82.3507 30.8336 77.7206 30.042C73.0905 29.2504 71.0574 28.6866 71.3935 27.5589C71.7297 26.4312 70.7158 27.2228 71.7351 25.1896C72.7544 23.1565 71.1333 25.6722 68.3358 26.03C66.59 26.2577 65.0123 26.8378 64.8984 27.0547C65.9828 27.0547 67.2189 27.0167 68.6394 26.9517L70.0002 26.8812C72.2068 26.7511 60.3171 31.2456 90.4831 31.2456C100.573 31.2456 114.81 26.9788 109.307 20.771L109.275 20.7439Z" fill="#B5D6EA"/>
<path d="M61.4177 18.0112C59.249 18.407 58.7773 16.6612 55.134 17.8865C51.5774 19.0847 47.9612 18.9708 45.9172 19.0847C43.8732 19.1985 39.4112 19.3341 36.7384 19.7895C34.0655 20.2449 30.2649 17.122 27.2288 18.5208C22.9349 20.4997 14.835 21.7196 10.129 18.3907C9.28863 22.0611 29.0722 22.0286 37.6167 20.5593C46.3509 19.0521 50.2708 20.863 56.5924 19.6539C62.914 18.4449 64.123 20.2557 61.1737 22.6684C60.303 23.3674 59.4857 24.1303 58.7285 24.9509C58.9183 24.8153 60.8972 23.3569 61.564 22.8744C62.2309 22.3918 64.161 20.6732 64.1068 19.4316C64.0526 18.1901 63.5863 17.6154 61.4177 18.0112Z" fill="#B5D6EA"/>
<path d="M66.2227 17.1723C66.4629 17.1671 66.7031 17.1792 66.9415 17.2087C68.293 17.3905 68.1577 18.4416 69.2898 19.0271C69.7991 19.2973 70.2004 19.7323 70.4273 20.2601C70.5501 20.5109 70.6251 20.7822 70.6486 21.0602C70.6486 21.1384 70.5919 21.7876 70.5938 21.7876C70.2225 21.8959 69.8443 21.9792 69.4617 22.0367C69.9171 22.1694 70.2719 22.5641 70.7968 22.5531C70.8029 22.8165 70.7524 23.0781 70.6486 23.3205L70.078 25.0844C70.0771 25.1015 70.0723 25.1182 70.0639 25.1332C70.0556 25.1481 70.0439 25.161 70.0298 25.1708C70.0157 25.1806 69.9996 25.1871 69.9826 25.1898C69.9656 25.1925 69.9482 25.1913 69.9317 25.1863L68.9715 25.1208C69.0523 25.366 69.1761 25.5951 69.3373 25.7973C68.8015 26.321 68.7539 27.2521 67.9785 27.5557C67.4517 27.7612 66.8061 27.7903 66.3818 28.2013C66.1258 28.4468 65.9813 28.8178 65.6503 28.9632C65.4601 29.0312 65.2566 29.0542 65.0559 29.0305C62.3528 28.9178 59.6515 28.725 56.9612 28.4377C54.8562 28.2122 52.8115 27.6139 50.7174 27.3466C49.931 27.243 49.183 27.3266 48.402 27.1757C47.504 27.0029 46.628 26.7538 45.741 26.541C44.854 26.3283 43.945 26.3119 43.0653 26.1373C40.5579 25.6391 38.0011 25.9555 35.4754 26.1101C34.3196 26.1792 33.2387 26.2628 32.0993 26.0846C30.9215 25.9028 29.7455 25.6882 28.5641 25.5391C27.8325 25.5391 27.2692 25.1572 26.6053 24.9717C25.6543 24.7062 24.5807 24.6789 23.6005 24.548C22.9622 24.4625 22.2581 24.508 21.6381 24.3534C21.0894 24.2152 20.6816 23.917 20.0707 23.8933C19.9994 23.8933 19.6683 21.1184 19.661 20.8674C19.6164 19.5345 20.0581 18.2305 20.9047 17.1959C20.9393 17.146 20.9875 17.1069 21.0437 17.0832C21.1035 17.0668 21.1667 17.0668 21.2266 17.0832C21.6033 17.1596 21.9874 17.2305 22.3605 17.2996C22.3605 16.7377 21.9142 16.3031 21.9106 15.7448C21.9184 15.5669 21.9523 15.3911 22.0112 15.2229L22.6312 13.1135C22.7189 12.8153 22.8652 12.4625 23.1798 12.4188C23.2978 12.421 23.4157 12.415 23.5328 12.4007C24.0613 12.2443 25.1642 10.3331 25.4879 9.8748C25.4275 9.96209 27.7209 9.75115 28.0264 9.57475C27.6057 9.0965 27.1302 8.66552 26.6748 8.20727C27.2848 7.77347 27.9457 7.41503 28.6427 7.13983C28.9079 7.03618 29.1786 6.94343 29.4474 6.85069C29.6084 6.79614 29.7711 6.74159 29.9376 6.70158C31.7665 6.27242 33.3338 7.64536 34.967 8.2C35.8613 8.49641 36.7959 8.71462 37.6792 9.05286C38.3358 9.30562 39.0399 9.49111 39.6581 9.8257C39.1241 8.69644 39.5356 7.4617 38.1822 6.74704C37.4927 6.38335 36.474 6.3979 36.1521 5.55959C35.8302 4.72127 36.5179 3.59746 36.9824 2.94463C37.7012 1.94993 38.8314 1.60442 39.9251 1.11344C40.119 1.02615 40.3494 0.947954 40.5378 1.04433C40.7262 1.14071 40.7938 1.36257 40.8835 1.54805C41.0993 1.99903 42.2204 2.29908 42.6593 2.53729L45.0369 3.82841C47.0743 4.93767 46.8658 6.37426 47.0322 8.47277C47.1529 10.0221 47.6558 12.037 48.7203 13.239C49.5359 14.1591 50.8674 14.5664 51.9812 14.9974C52.8846 15.3484 53.81 15.643 54.7245 15.9321C55.188 16.0455 55.6417 16.1951 56.0815 16.3795C57.3288 17.005 58.5249 16.7777 59.8618 16.8904C60.6775 16.9577 61.3926 17.396 62.2394 17.5051C63.5379 17.6524 64.9059 17.1978 66.2227 17.1723Z" fill="url(#paint0_linear_222_12971)"/>
<path d="M66.8317 24.6441C66.2263 24.6441 65.6191 24.6441 65.012 24.6441C63.8177 24.6332 62.6344 24.7078 61.4328 24.6878C59.4759 24.655 57.6836 24.2222 56.129 23.0602L56.065 23.0257C55.5322 23.0032 55.0016 22.9425 54.4776 22.8438C53.329 22.6184 52.3652 21.9164 51.2349 21.6691C50.1047 21.4218 48.9653 21.9819 47.7875 21.6928C46.6424 21.4062 45.5136 21.059 44.4059 20.6526C44.1846 20.6362 43.9633 20.6144 43.7438 20.5817C42.9373 20.4635 42.1454 20.1052 41.3443 20.0361C40.5432 19.967 39.7532 19.967 38.9448 19.807C38.6714 19.7795 38.4145 19.664 38.2132 19.4779C38.1053 19.3542 38.0486 19.1905 37.9353 19.0742C37.7652 18.8923 37.5073 18.8541 37.2695 18.7959C35.5248 18.3741 33.9062 16.5301 32.006 17.3703C31.3951 17.6412 30.6874 17.4794 30.0399 17.3139C28.9572 17.0375 27.8581 16.7556 26.8888 16.2028C26.4942 15.9443 26.0816 15.714 25.6543 15.5136C25.3159 15.379 24.9538 15.3118 24.6136 15.1826C23.6242 14.8062 23.2639 13.9697 22.5817 13.2478C22.3891 13.9049 22.1964 14.5607 22.0038 15.2154C21.9449 15.3835 21.911 15.5594 21.9032 15.7373C21.9277 16.0096 22.0087 16.274 22.141 16.5138C22.2964 16.8593 24.257 16.9393 24.6337 17.0248C25.316 17.1858 25.9718 17.4423 26.5815 17.7867C28.8164 18.9451 31.6384 19.5142 34.1275 19.8216C37.1854 20.1998 40.0677 21.4182 43.1128 21.8491C43.5243 21.9092 43.9395 21.9528 44.3473 22.031C45.2927 22.2154 46.1914 22.5864 46.9901 23.1221C46.8072 22.9966 45.8928 23.193 45.6623 23.2239C45.2858 23.279 44.9024 23.2667 44.5302 23.1875C43.5922 22.9982 42.6447 22.8586 41.6918 22.7693C40.6804 22.6856 39.7587 22.6402 38.7893 22.3292C37.8302 22.0199 36.9001 21.6281 36.0094 21.1581C35.8972 21.0802 35.7585 21.0495 35.6235 21.0727C35.4973 21.1145 35.426 21.2436 35.3236 21.3272C35.0548 21.5473 34.6615 21.4182 34.3195 21.3563C33.6685 21.2381 32.9918 21.4127 32.3407 21.2963C31.2653 21.1145 30.4716 20.1834 29.4401 19.8288C27.977 19.3215 26.5541 20.158 25.0855 19.9507C23.4998 19.7288 21.4899 19.296 20.281 18.0995C19.8427 18.9456 19.6274 19.8885 19.6555 20.8399C19.6555 21.0908 19.9939 23.8622 20.0652 23.8658C20.676 23.8895 21.0802 24.1877 21.6325 24.3259C22.2525 24.4805 22.9567 24.435 23.5949 24.5205C24.5752 24.6514 25.6488 24.6787 26.5998 24.9442C27.2637 25.126 27.827 25.5115 28.5585 25.5115C29.74 25.6679 30.916 25.8752 32.0938 26.0571C33.2332 26.2389 34.3141 26.1516 35.4699 26.0825C37.9956 25.9352 40.5524 25.6115 43.0598 26.1098C43.9395 26.2917 44.8466 26.2917 45.7355 26.5135C46.6243 26.7354 47.4985 26.9754 48.3965 27.1482C49.1774 27.2991 49.9255 27.2154 50.7119 27.3191C52.806 27.5937 54.8507 28.192 56.9557 28.4102C59.646 28.6975 62.3473 28.8902 65.0504 29.003C65.2511 29.0267 65.4545 29.0036 65.6448 28.9357C65.9685 28.7902 66.113 28.4193 66.3763 28.1738C66.8006 27.7628 67.4462 27.7337 67.9729 27.5282C68.7484 27.2263 68.7959 26.2935 69.3318 25.7698C69.237 25.6468 69.1548 25.5146 69.0867 25.3751C68.3545 25.0757 67.6007 24.8314 66.8317 24.6441Z" fill="#663403"/>
<path d="M69.4616 22.0236C69.8442 21.9661 70.2225 21.8828 70.5937 21.7745C70.5937 21.7745 70.6504 21.1289 70.6486 21.0471C70.6237 20.7728 70.5487 20.5054 70.4273 20.2579C70.2004 19.7301 69.7991 19.2951 69.2897 19.0249C68.1576 18.4376 68.293 17.3883 66.9414 17.2065C66.8408 17.1937 66.7384 17.1865 66.6378 17.1792C66.2135 17.5429 65.9227 18.1193 65.5259 18.514C65.0687 18.9668 64.5346 19.2868 63.7665 19.2413C63.814 19.6505 64.3773 19.525 64.498 19.7996C64.6389 20.1178 64.4852 20.1851 64.4578 20.527C64.392 21.3326 64.028 22.2036 63.6439 22.9055C63.4098 23.3311 63.13 23.742 63.0111 24.213C62.8923 24.684 62.9801 25.2477 63.3769 25.5405C63.6439 25.7424 63.9969 25.7824 64.2914 25.9333C64.5858 26.0842 64.84 26.4643 64.648 26.7389C63.56 26.7096 62.4745 26.621 61.3962 26.4734C62.3107 27.2389 63.8817 26.7952 64.701 27.6536C65.0577 28.0263 65.2022 28.5792 65.5881 28.9265L65.6356 28.9629H65.6539C65.9776 28.8174 66.1221 28.4464 66.3854 28.2009C66.8098 27.7899 67.4554 27.7608 67.9821 27.5554C68.7575 27.2535 68.8051 26.3206 69.3409 25.7969C69.1797 25.5947 69.0559 25.3657 68.9752 25.1204L69.9353 25.1859C69.9518 25.1909 69.9692 25.1921 69.9862 25.1894C70.0032 25.1867 70.0193 25.1802 70.0334 25.1704C70.0475 25.1606 70.0592 25.1477 70.0676 25.1328C70.0759 25.1178 70.0807 25.1012 70.0816 25.0841L70.6523 23.3202C70.756 23.0778 70.8065 22.8161 70.8004 22.5528C70.2718 22.5509 69.917 22.1509 69.4616 22.0236Z" fill="#AF6A10"/>
<path d="M70.5846 22.9767C70.0871 22.7403 69.4196 22.7803 68.8764 22.7421L67.2158 22.6239C66.1184 22.5457 64.9992 22.3602 63.9055 22.3875C63.8214 22.5693 63.7354 22.7348 63.6476 22.8967C63.4135 23.3222 63.1337 23.7331 63.0148 24.2041C62.8959 24.6751 62.9837 25.2388 63.3806 25.5316C63.6476 25.7335 64.0006 25.7735 64.295 25.9244C64.5895 26.0753 64.8437 26.4554 64.6517 26.73C63.5637 26.7007 62.4781 26.6121 61.3999 26.4645C62.3143 27.2301 63.8854 26.7863 64.7047 27.6447C65.0613 28.0174 65.2058 28.5703 65.5917 28.9176L65.6393 28.954H65.6576C65.9813 28.8085 66.1257 28.4375 66.3891 28.192C66.8134 27.7811 67.459 27.752 67.9857 27.5465C68.7612 27.2446 68.8087 26.3117 69.3446 25.788C69.1834 25.5858 69.0596 25.3568 68.9788 25.1115L69.939 25.177C69.9554 25.182 69.9728 25.1832 69.9898 25.1805C70.0068 25.1778 70.023 25.1713 70.0371 25.1615C70.0512 25.1517 70.0629 25.1388 70.0712 25.1239C70.0796 25.1089 70.0844 25.0923 70.0853 25.0752L70.6559 23.3113C70.687 23.2185 70.7199 23.1294 70.7474 23.0221C70.6908 23.0169 70.6356 23.0015 70.5846 22.9767Z" fill="#AF6A10"/>
<path d="M70.7968 22.5422C70.4822 22.6677 70.1841 22.8386 70.0543 23.0969C69.9351 23.362 69.8438 23.6387 69.7818 23.9225C69.7214 24.1498 69.7324 24.5807 69.6135 24.7699C69.8782 24.3734 70.11 23.9562 70.3067 23.5224C70.3429 23.4246 70.3901 23.3313 70.4475 23.2442C70.5039 23.1723 70.5683 23.107 70.6395 23.0496L70.7602 22.9423C70.7967 22.8122 70.809 22.6767 70.7968 22.5422Z" fill="#D18920"/>
<path d="M70.4273 20.2623C70.2004 19.7345 69.7991 19.2995 69.2898 19.0293C68.1577 18.442 68.293 17.3927 66.9415 17.2109C66.8409 17.1981 66.7385 17.1909 66.6379 17.1836C66.3822 17.4286 66.154 17.7005 65.9575 17.9946C66.0593 18.4245 66.1205 18.8628 66.1404 19.3039C66.27 19.616 66.377 19.9368 66.4605 20.2641C66.7 20.7478 66.9415 21.2315 67.1554 21.7279C67.395 21.7516 67.6346 21.7734 67.8724 21.7898C68.5509 21.837 69.3062 21.8134 70.014 21.9225C70.1969 21.8807 70.3981 21.8334 70.5864 21.777C70.5864 21.777 70.6431 21.1315 70.6413 21.0497C70.6185 20.7765 70.546 20.5097 70.4273 20.2623Z" fill="url(#paint1_linear_222_12971)"/>
<path d="M68.8618 25.7558C68.6149 25.7194 68.3278 25.5939 68.1101 25.8049L67.4207 26.4723C67.6035 26.836 67.7974 27.1833 67.9693 27.5433C68.0937 27.4958 68.2084 27.4262 68.3077 27.3378C68.3347 27.2294 68.3506 27.1185 68.3552 27.0069C68.3867 26.8763 68.4353 26.7503 68.4997 26.6323C68.5458 26.5211 68.6181 26.4225 68.7103 26.3447C68.8026 26.2668 68.9122 26.2121 69.0301 26.1849C69.108 26.0457 69.2032 25.9168 69.3136 25.8012C69.1654 25.7885 69.0118 25.7885 68.8618 25.7558Z" fill="#D18920"/>
<path d="M70.1804 21.5898C70.1365 20.8788 70.0103 19.895 69.3062 19.5895C69.2221 19.555 69.1324 19.5368 69.0465 19.5077C68.3149 19.2695 68.1759 18.5348 67.6053 18.1184C67.5029 18.042 66.4111 17.4546 66.3032 17.591C66.0613 17.9082 65.8018 18.2118 65.5259 18.5002C65.0687 18.953 64.5346 19.2731 63.7665 19.2276C63.814 19.6368 64.3773 19.5113 64.498 19.7859C64.6389 20.1041 64.4852 20.1714 64.4578 20.5133C64.392 21.3189 64.028 22.1899 63.6439 22.8918C63.4098 23.3174 63.13 23.7283 63.0111 24.1993C62.8923 24.6703 62.9801 25.234 63.3769 25.5268C63.6439 25.7286 63.9969 25.7687 64.2914 25.9196C64.5858 26.0705 64.84 26.4506 64.648 26.7252C63.56 26.6959 62.4745 26.6072 61.3962 26.4597C62.3107 27.2252 63.8817 26.7815 64.701 27.6399C64.8846 27.8586 65.044 28.0964 65.1766 28.3491L65.2717 28.3345C65.7412 28.2075 66.1673 27.9561 66.5043 27.6071C67.031 27.0452 68.0223 27.3671 68.421 26.6761L68.8947 25.8541C68.9206 25.8204 68.933 25.7782 68.9294 25.7359C68.9219 25.71 68.9081 25.6862 68.8892 25.6668L68.3405 24.9885C68.7714 25.1172 69.2206 25.1744 69.6701 25.1576C69.9225 24.3539 70.1743 23.5489 70.4255 22.7427C70.4053 22.8082 69.7159 22.5791 69.65 22.5518C69.4093 22.4679 69.1897 22.3333 69.0063 22.1572C69.0757 22.1335 69.1489 22.1172 69.2221 22.0972C69.3812 22.0553 69.5421 22.0444 69.7012 22.0135C69.8603 21.9826 69.9737 21.9244 70.1182 21.9062C70.1387 21.9069 70.1587 21.9005 70.1749 21.888C70.1841 21.877 70.1908 21.8642 70.1946 21.8504C70.1984 21.8366 70.1992 21.8222 70.1969 21.808C70.1895 21.7353 70.1841 21.6626 70.1804 21.5898Z" fill="url(#paint2_linear_222_12971)"/>
<path d="M70.0762 23.8293C69.1636 23.5999 68.2247 23.4904 67.2834 23.5038C68.0466 23.837 68.8333 24.1142 69.6372 24.333L69.9006 24.3948L70.0762 23.8293Z" fill="#562707"/>
<path d="M69.8091 24.6867C68.9752 24.4359 68.1106 24.3001 67.2395 24.283C67.9052 24.4648 68.5782 24.6467 69.2513 24.7485C69.4232 24.7758 69.586 24.8158 69.7487 24.854L69.8091 24.6867Z" fill="#562707"/>
<path d="M66.4421 25.9702C67.0932 26.1957 67.7498 26.4285 68.4192 26.5903L68.4503 26.5994L68.5508 26.4267C67.8701 26.1868 67.1616 26.0334 66.4421 25.9702Z" fill="#663403"/>
<path d="M67.4664 26.494C66.5886 26.1812 65.7473 25.9085 64.7834 25.8394C65.4327 26.0648 66.0893 26.2976 66.7587 26.4595C66.9909 26.5158 67.1958 26.594 67.4207 26.6558C67.6457 26.7177 67.9438 26.6668 68.1285 26.7322L67.4664 26.494Z" fill="#663403"/>
<path d="M69.1891 20.642C68.2582 20.6093 67.3712 20.6038 66.4312 20.8239C67.1206 20.8439 67.8156 20.8657 68.5051 20.8239C68.741 20.8075 68.9623 20.8239 69.1946 20.8111C69.4269 20.7984 69.6957 20.6638 69.8914 20.6711L69.1891 20.642Z" fill="#421E01"/>
<path d="M69.2953 20.3329C69.5001 20.3202 69.7122 20.3002 69.9207 20.2675C69.8369 20.0552 69.7004 19.8675 69.5239 19.7219C68.5963 19.7816 67.6804 19.9601 66.7988 20.2529C67.6279 20.3405 68.4623 20.3672 69.2953 20.3329Z" fill="#421E01"/>
<path d="M67.3859 18.332C67.242 18.147 67.0621 17.9929 66.8569 17.8788C66.6517 17.7648 66.4254 17.6931 66.1916 17.6682C65.9864 17.9616 65.7642 18.2427 65.5259 18.5102C65.0687 18.963 64.5346 19.283 63.7665 19.2375C63.814 19.6467 64.3773 19.5212 64.498 19.7958C64.6389 20.114 64.4852 20.1813 64.4578 20.5232C64.392 21.3288 64.028 22.1998 63.644 22.9018C63.4099 23.3273 63.13 23.7383 63.0112 24.2092C62.8923 24.6802 62.9801 25.2439 63.3769 25.5367C63.6439 25.7386 63.9969 25.7786 64.2914 25.9295C64.5858 26.0804 64.84 26.4605 64.648 26.7351C63.8726 26.7145 63.0989 26.6629 62.3271 26.5805C62.3486 26.6933 62.378 26.8045 62.4149 26.9133C63.227 27.0842 64.1414 27.0642 64.701 27.6407C64.8449 27.807 64.9677 27.9902 65.0668 28.1862C65.2496 28.1371 65.4272 28.0708 65.5972 27.988C67.3365 27.1461 68.0388 24.8475 68.3113 23.1036C68.474 22.0562 68.5435 20.9324 68.2436 19.9013C68.0708 19.3244 67.7787 18.7899 67.3859 18.332Z" fill="#E5AD3E"/>
<path d="M65.4199 24.4575C65.4195 24.5212 65.4359 24.5839 65.4675 24.6393C65.5055 24.6841 65.5574 24.715 65.615 24.7272C65.6726 24.7394 65.7327 24.7322 65.7857 24.7066C65.8908 24.6524 65.9803 24.5722 66.0454 24.4739C66.3362 24.0902 67.3878 22.1571 66.6617 21.8135C66.5931 21.7904 66.5197 21.785 66.4484 21.7977C66.3771 21.8104 66.3102 21.8409 66.2539 21.8862C65.4967 22.3826 65.365 23.6446 65.4199 24.4575Z" fill="#DB9D21"/>
<path opacity="0.6" d="M66.433 18.6781C66.2761 18.7685 66.1377 18.8876 66.0252 19.0291C65.2165 20.0316 64.6474 21.2037 64.3609 22.4569C64.1292 23.4653 64 24.4942 63.975 25.5283C63.9694 25.5729 63.9764 25.6182 63.9951 25.6592C64.0225 25.6962 64.0599 25.7246 64.103 25.741C64.3938 25.8505 64.6475 26.0397 64.8346 26.2866C64.8739 26.3423 64.8932 26.4095 64.8895 26.4775C64.8715 26.5347 64.8403 26.5868 64.7984 26.6298C64.7565 26.6727 64.705 26.7053 64.648 26.7248C64.4931 26.7329 64.3378 26.7286 64.1835 26.7121C64.2183 26.9376 64.2183 27.1831 64.4396 27.3122C64.5584 27.3813 64.6993 27.4158 64.8145 27.494C64.873 27.534 64.9242 27.5831 64.9846 27.6231C65.1674 27.7395 65.3138 27.6122 65.4656 27.5104C66.0935 27.062 66.5969 26.4627 66.9287 25.7683C67.2948 24.9977 67.5556 24.1818 67.7041 23.3425C67.9199 22.2987 68.0699 21.1912 67.8084 20.142C67.7206 19.7783 67.6255 19.2109 67.3713 18.9181C67.0604 18.5508 66.7348 18.5144 66.433 18.6781ZM66.936 23.8244C66.8884 24.0298 66.8354 24.2335 66.7696 24.4372C66.5409 25.1464 66.2849 26.2556 65.4564 26.5084C65.3639 26.5456 65.2619 26.5528 65.165 26.529C65.0681 26.5052 64.9813 26.4515 64.9169 26.3757C64.8708 26.2851 64.8487 26.1843 64.8529 26.0829C64.7907 24.5499 64.67 22.6405 65.61 21.3185C65.9429 20.8475 66.9707 20.1311 67.3237 21.0367C67.4737 21.4222 67.3438 21.9259 67.2524 22.3096C67.1335 22.8133 67.053 23.3225 66.936 23.8244Z" fill="#F2CD64"/>
<path opacity="0.8" d="M67.6491 23.4511C67.3089 24.6658 66.8005 26.0551 65.8568 26.9352C65.7607 27.0335 65.6422 27.1072 65.5114 27.1503C65.3805 27.1933 65.2412 27.2044 65.1051 27.1826C65.5435 27.0141 65.9173 26.7125 66.1732 26.3206C66.4267 25.931 66.6382 25.5159 66.8042 25.0822C67.3528 23.7784 68.1301 22.1563 67.5924 20.7179C67.4589 20.3633 67.1773 19.9905 66.7804 19.916C66.3415 19.8341 66.0031 20.1851 65.7361 20.4815C65.0594 21.2271 64.6881 22.2054 64.5144 23.1819C64.7412 21.909 65.1655 20.3397 66.3433 19.6032C66.429 19.5366 66.5271 19.4876 66.6319 19.4589C66.7368 19.4302 66.8463 19.4224 66.9541 19.4359C67.3419 19.5286 67.7387 20.2506 67.854 20.7561C67.9944 21.4863 67.9663 22.2386 67.7717 22.9564C67.7314 23.1292 67.6894 23.291 67.6491 23.4511Z" fill="#C69D67"/>
<path opacity="0.8" d="M67.3585 20.6291C67.1043 20.2781 66.338 20.48 66.0325 20.6564C65.7082 20.8648 65.4501 21.1606 65.2882 21.5092C64.8035 22.4476 64.6408 23.6623 64.6133 24.7279C64.5969 25.3571 64.6499 26.0008 64.9151 26.5464C64.9445 26.6279 65.0023 26.6962 65.0779 26.7391C65.1419 26.7573 65.2102 26.7534 65.2717 26.7282C65.8058 26.5609 66.1404 26.1827 66.3855 25.619C66.717 24.846 66.9314 24.0286 67.022 23.1931C66.7549 24.0896 66.4733 25.0116 65.963 25.7499C65.8436 25.965 65.6481 26.1283 65.4144 26.2081C64.831 26.33 64.9315 25.3407 64.9059 24.9352C64.8622 24.2243 64.9133 23.5107 65.0577 22.8131C65.138 22.3768 65.2855 21.9554 65.4948 21.5638C65.6897 21.191 66.0046 20.8939 66.3892 20.72C66.4931 20.6719 66.6064 20.647 66.7211 20.647C66.8358 20.647 66.9491 20.6719 67.0531 20.72C67.4737 20.9455 67.3402 21.9038 67.2908 22.3566C67.4518 21.9111 67.6493 21.0292 67.3585 20.6291Z" fill="#D89221"/>
<path d="M65.707 23.497C65.7527 23.6789 65.8899 23.8025 66.0728 23.6571C66.3051 23.488 66.4788 23.0224 66.5263 22.7478C66.5441 22.6876 66.5472 22.6241 66.5355 22.5624C66.5237 22.5008 66.4974 22.4428 66.4587 22.3932C66.252 22.1877 66.0618 22.2969 65.921 22.5151C65.7727 22.7545 65.6906 23.0286 65.6832 23.3097C65.681 23.373 65.689 23.4363 65.707 23.497Z" fill="#C48414"/>
<path opacity="0.8" d="M66.5647 21.4638C66.7165 21.4638 66.839 21.5838 66.8518 21.8584C66.8539 22.0829 66.8294 22.3069 66.7787 22.5257C66.64 23.1721 66.4181 23.7979 66.1184 24.3878C65.9977 24.6261 65.8386 24.8788 65.5789 24.9479C65.5615 24.9551 65.5429 24.9588 65.524 24.9588C65.5052 24.9588 65.4866 24.9551 65.4692 24.9479C65.4521 24.9335 65.4382 24.9157 65.4285 24.8957C65.4187 24.8756 65.4133 24.8538 65.4125 24.8315C65.3046 24.1551 65.4783 23.3677 65.6045 22.7021C65.3174 23.4568 65.0558 24.2806 65.268 25.0661C65.2861 25.1703 65.3412 25.2646 65.4234 25.3316C65.6063 25.4571 65.7325 25.2225 65.8258 25.1025C66.2535 24.56 66.5766 23.9434 66.7787 23.284C66.8939 22.9076 67.3017 21.5638 66.9158 21.2746C66.6927 21.1073 66.2666 21.3983 66.1038 21.5547C65.8378 21.8128 65.6704 22.1548 65.6301 22.5221C65.8825 22.1802 66.0343 21.4401 66.5647 21.4638Z" fill="#BC863F"/>
<path opacity="0.8" d="M68.0389 22.5002C68.0846 23.4186 67.7938 24.3187 67.4609 25.177C67.1482 25.9826 66.7751 26.7991 66.1332 27.381C65.9388 27.5652 65.729 27.7325 65.5059 27.8811C65.4521 27.917 65.3893 27.937 65.3246 27.9389C65.2598 27.9409 65.1959 27.9246 65.1401 27.892C65.1288 27.885 65.119 27.8757 65.1115 27.8647C65.1039 27.8538 65.0987 27.8414 65.0962 27.8283C65.0962 27.7883 65.1364 27.7611 65.1712 27.7411C65.6563 27.4416 66.0918 27.0692 66.4624 26.6373C67.4463 25.6062 67.8322 23.8714 68.0389 22.5002Z" fill="#C48414"/>
<path opacity="0.5" d="M66.2098 18.7437C65.5514 19.2893 65.1216 20.1367 64.7961 20.9132C64.47 21.7479 64.2369 22.6156 64.1011 23.5008C63.9975 24.1277 63.9364 24.7607 63.9182 25.3957C63.9729 25.4178 64.0241 25.4478 64.07 25.4848L64.1121 25.5175C64.1376 24.5498 64.2348 23.5852 64.4029 22.6316C64.5189 21.9513 64.7326 21.2911 65.0375 20.6713C65.2204 20.3258 65.7014 19.502 66.2226 19.0911C66.5884 18.7983 67.106 18.7655 67.384 19.2074C67.5412 19.4572 67.6979 19.7063 67.854 19.9548C67.7388 19.182 67.1005 18.0036 66.2098 18.7437Z" fill="#C48414"/>
<path opacity="0.5" d="M64.3956 21.1608C64.4954 20.8946 64.5659 20.6184 64.6059 20.337C64.5303 20.3186 64.4532 20.3064 64.3755 20.3007C63.6604 20.2428 62.9414 20.2531 62.2284 20.3316C61.6596 20.3934 61.0707 20.4971 60.5293 20.3189C60.1142 20.1825 59.7685 19.8933 59.3771 19.6969C59.0198 19.5042 58.6183 19.4068 58.2118 19.4145C57.8054 19.4221 57.4078 19.5345 57.0581 19.7406C57.3416 19.5678 58.2304 19.7824 58.4956 19.9352C58.8943 20.1643 59.1741 20.4243 59.635 20.5971C60.2594 20.7998 60.9084 20.9178 61.5645 20.948L63.8982 21.1608C64.0633 21.1817 64.2305 21.1817 64.3956 21.1608Z" fill="#663403"/>
<path d="M45.3369 10.6059C45.5508 10.4004 45.7026 10.0713 45.571 9.81489C45.6789 10.1695 43.9433 10.3604 43.508 9.74397C43.1422 9.23298 43.2684 8.52014 42.9813 7.96551C42.7984 7.60182 42.4436 7.34178 42.1052 7.09811L40.825 6.16705C40.5269 5.95066 40.2123 5.71426 40.077 5.37238C40.0293 5.24775 40.0152 5.11289 40.036 4.98116C40.0569 4.84943 40.112 4.72541 40.1959 4.62136C40.0569 4.54498 39.04 3.83214 39.1278 3.65939C39.0601 3.79032 39.1058 3.95034 39.0857 4.09582C38.9961 4.79957 37.5111 3.47936 37.3135 3.29751C37.2093 3.20114 37.0849 3.08657 36.9478 2.96655C36.4777 3.62484 35.834 4.7141 36.1504 5.53605C36.4668 6.35799 37.4909 6.36345 38.1804 6.7235C39.1753 7.24358 39.2156 8.05462 39.3802 8.89657C40.1922 9.53848 40.8012 10.4277 41.2932 11.346C41.4693 11.7293 41.6977 12.0866 41.9717 12.408C42.7417 13.2082 43.9945 13.2372 45.1064 13.2118C44.6876 12.6208 44.2615 11.8316 44.662 11.2297C44.8248 10.9714 45.1137 10.8187 45.3369 10.6059Z" fill="#74481C"/>
<path d="M45.5709 9.81434C45.5666 9.80231 45.5611 9.79074 45.5544 9.77979C45.5607 9.79094 45.5662 9.80248 45.5709 9.81434Z" fill="#74481C"/>
<path d="M40.0933 12.7443C39.316 12.3806 38.5625 11.9424 37.6682 11.9024C37.2274 11.8824 36.7684 11.9606 36.3514 11.8115C36.0917 11.7187 35.8576 11.5405 35.5832 11.5151C35.1571 11.4769 34.7913 11.8151 34.3707 11.7696C33.9953 11.6889 33.6324 11.5586 33.2917 11.3823C32.7119 11.1205 32.123 10.8786 31.5396 10.6276C30.3727 10.1239 29.2023 9.62385 28.0373 9.11468C27.8199 9.0185 27.5955 8.93887 27.3661 8.87646C27.591 9.09832 27.8105 9.32381 28.0171 9.56021C27.7117 9.74206 25.4183 9.94754 25.4786 9.86026C25.4274 9.93299 25.3561 10.0421 25.272 10.173C26.0456 10.2821 27.2197 10.4349 27.3807 10.4822C28.0598 10.6737 28.7304 10.8931 29.3925 11.1405C29.7966 11.2932 30.0655 11.5623 30.4514 11.7551C30.5593 11.8078 30.6709 11.8551 30.7842 11.9024L33.9793 13.2262C33.833 12.9644 33.6574 12.7789 33.4947 12.5389C33.4713 12.5087 33.4591 12.4714 33.4599 12.4334C33.4705 12.3998 33.4916 12.3704 33.5203 12.3497C34.325 11.6642 35.6802 12.4316 36.5343 12.6661C37.4761 12.9262 38.1803 13.6463 39.0362 13.8991C39.2431 13.941 39.4542 13.9594 39.6653 13.9536C40.2652 13.99 40.8175 14.2682 41.368 14.5083C42.5873 15.0437 43.8698 15.4237 45.1849 15.6393C45.2416 15.4484 45.0313 15.292 44.8521 15.2029C44.0949 14.8265 42.9774 14.5064 42.3703 13.9027C42.2342 13.7297 42.0817 13.5701 41.9149 13.4263C41.7308 13.3227 41.5294 13.2531 41.3205 13.2208C40.8955 13.1059 40.4841 12.9462 40.0933 12.7443Z" fill="#63390B"/>
<path d="M45.997 11.1243C46.0951 12.0984 46.4167 13.0372 46.937 13.8684C46.6932 12.547 46.4566 11.2243 46.2274 9.90049C46.1872 9.68045 46.1488 9.46224 46.1085 9.2422C46.0079 8.67484 46.0116 8.30024 46.4578 7.91109C46.6521 7.74089 46.816 7.53922 46.9425 7.31463C46.9244 6.86909 46.87 6.42574 46.7797 5.98897C46.7422 6.37478 46.6492 6.75324 46.5036 7.11278C46.454 7.2443 46.3788 7.36481 46.2823 7.46738C45.7043 8.02565 45.6184 7.07823 45.3184 6.7309C45.0756 6.46703 44.8038 6.23098 44.5082 6.02715L43.7255 5.43979C43.5339 5.31372 43.3556 5.16872 43.1933 5.007C42.8933 4.66331 43.1805 4.38326 43.2756 4.00684C43.3667 3.64448 43.3928 3.26894 43.3524 2.89758L43.2829 2.85939C43.2784 3.0208 43.2456 3.18019 43.186 3.33037C43.1386 3.45988 43.0534 3.57237 42.9413 3.65338C42.8292 3.73438 42.6953 3.78022 42.5568 3.78499C42.0813 3.76135 41.6588 3.294 41.2437 3.11397C41.1339 3.06487 41.0205 3.02669 40.9126 2.97213C40.6537 2.81797 40.42 2.62542 40.2195 2.40114C39.8553 2.05027 39.4557 1.73766 39.0271 1.46826C38.8753 1.53373 38.7271 1.60101 38.5808 1.67193C38.6949 1.83839 38.8387 1.98262 39.0051 2.09745C39.2484 2.23384 39.5318 2.2793 39.7696 2.43023C40.1354 2.65027 40.342 3.05396 40.684 3.30491C41.026 3.55586 41.4961 3.70861 41.8801 3.93592C42.4727 4.28507 42.4928 4.49237 42.48 5.16157C42.0712 5.04021 41.6527 4.95382 41.229 4.90334C41.3522 5.08818 41.5156 5.24314 41.7072 5.35677C41.8987 5.47039 42.1134 5.53978 42.3355 5.55981C42.5056 5.57436 42.6775 5.55981 42.8458 5.58163C43.3469 5.65073 44.2229 6.30902 44.5741 6.65816C45.0752 7.15824 46.0244 9.24038 45.2599 9.80047C45.3963 9.82363 45.5239 9.88301 45.6292 9.97231C45.7344 10.0616 45.8135 10.1775 45.858 10.3078C45.9425 10.5722 45.9893 10.847 45.997 11.1243Z" fill="#5E3619"/>
<path d="M40.6054 10.4311C40.5912 10.1907 40.5184 9.95725 40.3932 9.751L40.3347 9.62735C40.1262 9.15818 40.3585 8.65265 40.4938 8.19621C40.5176 8.11438 40.5651 8.01437 40.6511 8.01437C40.689 8.01987 40.7242 8.03704 40.7517 8.06346C40.9443 8.21454 41.1005 8.40653 41.2089 8.62537C41.3461 8.26168 41.1687 7.83434 40.9145 7.53429C40.6603 7.23424 40.6749 6.81963 40.7554 6.47049C40.8559 6.44139 40.9547 6.51595 41.0425 6.57232C41.1303 6.62869 41.2638 6.66507 41.3296 6.58324C41.0718 6.11953 40.5505 5.93768 40.2945 5.5067C40.0384 5.07573 40.2067 4.61929 40.759 4.74294C39.7897 4.36652 39.2008 3.40092 38.3815 2.77173C38.6193 2.96792 38.8157 3.20895 38.9594 3.48093C39.0239 3.62459 39.1004 3.76267 39.188 3.89372C39.3709 4.13194 39.8702 4.30288 39.9616 4.59019C40.0019 4.71021 39.7385 5.45396 39.6544 5.43032L39.4075 5.36123C39.4568 5.57217 39.658 5.5558 39.7623 5.69764C39.8787 5.89241 39.9598 6.10599 40.0019 6.32865C40.0439 6.53595 40.128 6.93238 39.7787 6.86328C39.663 6.83307 39.5588 6.76986 39.4788 6.68143C39.0606 6.2589 38.6703 5.81003 38.3101 5.33759C38.109 5.08306 37.8809 4.85078 37.6298 4.64475C37.4725 4.51564 36.9677 4.30833 36.8854 4.15013C37.0042 4.37878 37.1685 4.58107 37.3683 4.74476C37.4507 4.79817 37.5175 4.87217 37.5621 4.95934C37.595 5.05027 37.5438 5.17938 37.4469 5.1812C37.114 5.1812 36.6861 5.34667 36.3825 5.14664C36.3496 5.12482 36.2161 5.01935 36.0752 4.89569C36.0489 5.11435 36.0746 5.3361 36.1502 5.54307C36.4721 6.38139 37.4908 6.37047 38.1803 6.73053C39.5135 7.427 39.1331 8.64355 39.6434 9.76009C39.9616 9.98194 40.4134 10.0783 40.6054 10.4311Z" fill="#421E01"/>
<path d="M36.3167 9.71655C36.3788 9.74565 36.441 9.77475 36.4995 9.8093C36.4427 9.77101 36.3812 9.73986 36.3167 9.71655Z" fill="#4F2802"/>
<path d="M29.3942 10.1375C29.4557 10.1224 29.5205 10.1295 29.5771 10.1575C30.23 10.4066 30.786 10.8394 31.406 11.1467C31.9678 11.3904 32.5467 11.5934 33.138 11.7541C34.5005 12.1905 37.2146 13.1652 38.5405 13.7199C37.9626 12.9814 37.1392 12.4715 36.2178 12.2815C35.7326 12.1529 35.2368 12.0671 34.7364 12.0251C34.5564 12.0319 34.3769 12.001 34.2097 11.9341C34.1205 11.8807 34.0393 11.8152 33.9683 11.7396C33.5239 11.3068 31.6401 10.2284 32.3223 9.5974C32.9094 9.05186 34.1512 9.60649 34.7949 9.70651C35.2942 9.7847 35.8557 9.55739 36.3093 9.71742C35.7606 9.46647 35.1059 9.46283 34.4804 9.47556C33.9537 9.48647 33.4745 9.25917 33.0282 9.00458C32.6423 8.78637 32.3589 8.3172 31.9748 8.17536C31.7773 8.10262 31.5615 8.07898 31.3694 7.99352C31.2185 7.90185 31.0621 7.81926 30.9012 7.7462C30.7217 7.70371 30.5366 7.68899 30.3526 7.70256C29.8942 7.6952 29.4456 7.5699 29.0504 7.33887C29.3138 7.6571 29.7106 7.83167 30.0929 7.99352C30.3076 8.09722 30.5351 8.17242 30.7696 8.21718C31.289 8.29538 31.9602 8.32447 32.2217 8.89365C32.4338 9.361 32.165 9.49739 31.673 9.56103C31.2976 9.59672 30.9192 9.53403 30.5757 9.37919C30.1569 9.19734 29.782 9.30645 29.3467 9.1737C28.9133 9.03576 28.4873 8.87614 28.0701 8.69544C27.6422 8.51908 27.2268 8.31435 26.8265 8.08262C26.7734 8.11899 26.7167 8.15354 26.6655 8.18991C27.1209 8.64089 27.5964 9.07914 28.0171 9.55739C27.9586 9.58499 27.8972 9.60632 27.8342 9.62104C28.2 9.68105 28.6151 9.7847 28.8218 9.99746C28.8658 10.041 28.9 10.0934 28.9221 10.151C28.9441 10.2087 28.9536 10.2704 28.9498 10.3321C28.9388 10.5321 28.7029 10.6521 28.5017 10.6339C28.3043 10.5961 28.1122 10.5351 27.9293 10.4521C27.6471 10.3603 27.3428 10.3603 27.0606 10.4521C27.9037 10.5303 28.5237 10.9849 29.2552 11.3231C30.1057 11.7123 30.9963 12.036 31.8632 12.3906L30.2977 11.6032C29.7746 11.3395 29.3485 11.0576 29.2772 10.4303C29.2717 10.3102 29.2918 10.1739 29.3942 10.1375Z" fill="#421E01"/>
<path d="M26.331 17.3218C24.9008 16.6217 23.3646 16.1017 21.9582 15.3743C21.9266 15.4875 21.9094 15.6041 21.9069 15.7216C21.9069 16.2799 22.3605 16.7145 22.3569 17.2764L21.874 17.1855C22.6056 17.5492 23.4834 17.6564 24.2516 17.8965C25.0289 18.1361 25.819 18.3328 26.6182 18.4857C27.9752 18.7512 29.3615 18.8803 30.6948 19.213C30.4588 19.1549 30.1241 18.7621 29.8736 18.6439C29.5283 18.4954 29.174 18.3684 28.8128 18.2638C27.9652 18.0055 27.1361 17.6909 26.331 17.3218Z" fill="#421E01"/>
<path d="M66.033 28.6152L66.0308 28.6175L66.033 28.6152Z" fill="#421E01"/>
<path d="M65.5864 28.9199C65.4584 28.7988 65.3482 28.6605 65.259 28.5089L63.2856 28.2325L61.2245 27.9434C60.385 27.8252 57.5228 27.9016 56.965 27.1633C56.9135 27.082 56.8741 26.9938 56.8479 26.9014C56.5699 26.1595 55.7323 25.8103 54.9788 25.5521C55.2493 25.7023 55.4959 25.8917 55.7104 26.114C55.8153 26.2266 55.8932 26.3613 55.9385 26.508C55.9838 26.6547 55.9952 26.8097 55.9719 26.9614C55.0381 26.9948 54.1031 26.9735 53.1719 26.8978C52.1733 26.7887 51.182 26.6977 50.231 26.5686C49.9721 26.5188 49.7289 26.4084 49.5215 26.2465C49.3142 26.0846 49.1486 25.8758 49.0386 25.6376C48.9325 25.4266 48.574 24.5974 48.7203 24.3737C48.9234 24.0646 49.3787 24.2865 49.7427 24.3319C50.6571 24.4465 51.5716 24.3319 52.486 24.4119C50.7833 24.2719 49.2416 23.4682 47.5883 23.3209C45.7685 23.1608 43.9744 23.1536 42.1656 22.8117C43.4123 23.3697 44.76 23.6704 46.127 23.6955C46.9061 23.7082 48.04 25.1684 46.9079 25.5976C46.5421 25.7376 46.1178 25.6449 45.7319 25.5485C44.5463 25.2834 43.3902 24.9014 42.2808 24.4083C41.8291 24.1937 41.4286 23.8937 40.9659 23.6936C40.5031 23.4936 39.8502 23.4972 39.4332 23.2718L42.1967 24.7684C42.1867 24.8266 42.1585 24.8802 42.1162 24.9216C42.0738 24.9631 42.0195 24.9902 41.9608 24.9993C41.8439 25.0162 41.7246 25.0075 41.6115 24.9738C40.9878 24.8375 40.3733 24.7338 39.7954 24.4574C39.2705 24.2064 38.8005 23.8464 38.2262 23.7046C37.5221 23.5318 36.7978 23.35 36.2144 22.9208C35.8815 22.6735 35.6036 22.3516 35.2396 22.1479C34.5483 21.7588 33.6979 21.8734 32.9041 21.8352C30.746 21.7297 28.7123 20.415 26.5688 20.6823L31.6806 22.217C31.7885 22.2498 31.9183 22.3098 31.9183 22.4207C31.914 22.4764 31.8907 22.5289 31.8525 22.5698C30.7661 24.0246 29.0634 23.9009 27.551 23.3645L26.5506 23.0117C25.6361 22.688 24.6942 22.3462 24.0121 21.6606C23.8072 21.4551 23.6207 21.2151 23.3518 21.106C23.8511 21.741 24.4443 22.2971 25.1112 22.7553C25.5191 23.0354 25.9818 23.3009 26.1701 23.7664C25.6965 23.9282 24.9228 23.8464 24.4144 23.8828C23.309 23.9574 22.2004 23.7936 21.1645 23.4027C20.6743 23.2208 20.2903 22.8571 19.8623 22.5807C19.9501 23.2536 20.0452 23.8628 20.0745 23.8646C20.6853 23.8882 21.0895 24.1864 21.6418 24.3247C22.2618 24.4792 22.9659 24.4338 23.6042 24.5192C24.5845 24.6502 25.6581 24.6774 26.6091 24.9429C27.273 25.1248 27.8363 25.5103 28.5678 25.5103C29.7493 25.6667 30.9253 25.874 32.1031 26.0558C33.2425 26.2377 34.3233 26.1504 35.4792 26.0813C38.0049 25.934 40.5617 25.6103 43.0691 26.1086C43.9488 26.2904 44.8559 26.2904 45.7447 26.5123C46.6336 26.7341 47.5078 26.9742 48.4058 27.1469C49.1867 27.2978 49.9347 27.2142 50.7211 27.3178C52.8152 27.5924 54.8599 28.1907 56.965 28.4089C59.6553 28.6962 62.3565 28.889 65.0596 29.0017C65.2539 29.0226 65.4504 29.0015 65.6357 28.9399L65.5864 28.9199ZM32.3518 24.261C33.2388 24.2992 34.0636 24.1483 34.9122 24.5083C33.1803 24.9938 31.2545 25.1339 29.5243 24.6774C29.2006 24.592 28.9025 24.2319 28.5678 24.221C29.7913 24.2628 31.0716 24.2083 32.3518 24.261ZM38.0634 24.3319C36.9761 24.2345 35.8944 24.0822 34.8226 23.8755C34.3517 23.7802 33.8729 23.7279 33.3924 23.7191C32.8218 23.7191 32.253 23.8318 31.6842 23.7864C31.5361 23.3481 32.0665 22.9626 32.4158 22.8662C32.6971 22.8139 32.981 22.7763 33.2662 22.7535C33.577 22.6735 33.8988 22.644 34.2191 22.6662C34.6677 22.7453 35.1001 22.897 35.4993 23.1154C36.538 23.6451 37.6568 24.0026 38.8114 24.1737C38.6194 24.3683 38.3158 24.3574 38.0543 24.3337L38.0634 24.3319Z" fill="#421E01"/>
<path d="M64.6461 26.7299C64.7815 26.5335 64.69 26.2807 64.5181 26.0988L59.3424 25.5206C58.3621 25.3515 56.9154 25.3896 56.3155 24.4149C56.2436 24.2694 56.1565 24.1316 56.0558 24.004C55.9625 23.9148 55.855 23.8417 55.7376 23.7876C55.3274 23.5744 54.899 23.398 54.4574 23.2602C54.0203 23.1238 53.5704 23.0256 53.1278 22.8965C52.2812 22.644 51.4491 22.3459 50.635 22.0037C51.0593 22.5492 51.7049 22.8711 52.356 23.0947C53.0071 23.3184 53.6856 23.4803 54.3092 23.773C54.5978 23.8971 54.8679 24.0598 55.1121 24.2567C54.6915 24.8877 53.1205 24.6386 52.4932 24.5168C54.9201 24.9859 57.2391 25.8388 59.7026 26.2134C60.3409 26.3116 60.9554 26.4407 61.5663 26.5771C61.5091 26.5404 61.4541 26.5003 61.4017 26.4571C62.4773 26.6068 63.5604 26.6979 64.6461 26.7299Z" fill="#421E01"/>
<path d="M35.8723 14.8521L34.9286 14.3575C34.7091 14.2583 34.5095 14.1203 34.3397 13.9501C34.2272 13.7821 34.1006 13.6239 33.9611 13.4773C33.8199 13.3794 33.6609 13.3096 33.4929 13.2718C32.0993 12.8609 30.8081 12.0389 29.4328 11.5061C29.1877 11.4097 28.875 11.3243 28.6848 11.5061C28.6564 11.5309 28.6381 11.5652 28.6336 11.6025C28.6336 11.6752 28.714 11.717 28.7835 11.7443C29.4236 11.9844 30.0637 12.0462 30.6453 12.419C30.9462 12.6729 31.2252 12.9515 31.4793 13.2518C30.1003 13.21 29.1877 12.4572 27.9111 12.0025C27.0529 11.6991 26.1482 11.5459 25.2373 11.5498C25.9689 11.988 26.8723 12.028 27.677 12.3208C28.6774 12.6845 29.3029 13.5555 30.2064 14.0847C30.9233 14.5048 31.8524 14.1429 32.6443 14.2411C33.5563 14.3555 34.4553 14.5558 35.3291 14.8394C35.7345 14.9856 36.1472 15.1113 36.5654 15.2158L35.8723 14.8521Z" fill="#9B5F23"/>
<path d="M31.6823 15.1117C32.5108 15.0899 33.5295 15.1699 34.2848 15.5082C35.0804 15.8609 35.8924 16.0428 36.6624 16.4174C36.0729 16.3919 35.4896 16.2866 34.9286 16.1046C34.3909 15.9319 33.8898 15.9519 33.3612 15.7682C33.1639 15.69 32.9515 15.6565 32.7395 15.6704C32.5275 15.6842 32.3213 15.745 32.1359 15.8482C32.0625 15.9027 31.9773 15.9394 31.8872 15.9555C31.8371 15.9554 31.7875 15.9462 31.7408 15.9282C31.119 15.7373 30.8173 15.1354 31.6823 15.1117Z" fill="#9B5F23"/>
<path d="M24.0338 12.7929C24.4983 12.9147 24.9281 13.1566 25.4201 13.3057C26.2358 13.5657 27.1008 13.6876 27.9275 13.9203C28.4042 14.0291 28.8621 14.2074 29.2864 14.4495C29.5241 14.6005 29.7564 14.8478 29.707 15.1242C29.7619 14.815 27.4575 14.3059 27.1466 14.2731C26.1631 14.1794 25.1753 14.1382 24.1874 14.1495C24.0357 14.1604 23.8835 14.1336 23.7448 14.0713C23.5181 13.9513 23.4266 13.6785 23.3626 13.4312C23.2986 13.1839 23.2455 12.962 23.198 12.7256C23.4783 12.693 23.7624 12.7158 24.0338 12.7929Z" fill="#9B5F23"/>
<path d="M31.1738 17.1612C29.3267 16.5283 27.4594 16.0537 25.7036 15.1972L24.8916 14.8008C26.9418 15.059 29.6778 15.6227 31.1738 17.1612Z" fill="#9B5F23"/>
<path d="M31.803 8.45676C31.438 8.33402 31.0619 8.24634 30.6801 8.1949C29.8662 8.02578 29.1621 7.5748 28.3702 7.34749C28.3117 7.33112 28.255 7.31839 28.1983 7.30566C27.7795 7.49521 27.3759 7.71651 26.9912 7.96759C28.2879 8.25309 29.6888 8.09306 30.98 8.46767C31.2891 8.55677 31.6311 8.69861 31.7427 8.99866C31.7952 9.02224 31.8539 9.02843 31.9102 9.01631C31.9665 9.0042 32.0174 8.97442 32.0554 8.93137C32.2328 8.72225 32.07 8.56768 31.803 8.45676Z" fill="#B27720"/>
<path d="M36.0095 9.10716C35.6053 8.91991 35.1727 8.80012 34.7293 8.75257C34.3926 8.74048 34.0575 8.70156 33.7271 8.63618C33.4354 8.54256 33.1575 8.4111 32.9004 8.24521C32.8072 8.20089 32.7233 8.13915 32.6535 8.06337C32.5984 7.97976 32.5495 7.89223 32.5072 7.80151C32.1963 7.25597 30.6509 7.2687 30.6289 6.60132C30.3925 6.60195 30.1569 6.62941 29.9267 6.68315C29.7602 6.72316 29.5975 6.77771 29.4365 6.83227L29.2207 6.90682C29.2207 6.90682 29.2207 6.91955 29.2207 6.92683C29.2689 7.0245 29.3535 7.09955 29.4566 7.13595C29.9724 7.3869 30.5704 7.32871 31.1026 7.51419C31.3266 7.59285 31.5443 7.68829 31.7537 7.79969C32.252 8.08362 32.7238 8.41102 33.1638 8.77802C33.8149 9.27083 35.2944 9.5345 36.0095 9.10716Z" fill="#B27720"/>
<path d="M37.5932 10.8766C38.1529 10.9929 38.7235 11.1475 39.2886 11.0584C39.327 10.9129 39.1441 10.8147 38.9996 10.7747C37.8749 10.4656 36.7464 10.1619 35.5979 9.95459C35.0851 9.88792 34.5786 9.77966 34.0836 9.6309C33.7068 9.50179 33.0631 9.27812 32.7046 9.56725C32.6621 9.60665 32.6344 9.65924 32.626 9.71637C32.5254 10.2255 32.8692 10.4001 33.2039 10.6783C33.3868 10.8329 33.8915 11.533 34.1055 11.4348C33.9242 11.1045 33.7653 10.7625 33.63 10.411C33.9464 10.2692 34.3012 10.7965 34.5993 10.6183C34.6798 10.571 34.7255 10.4819 34.7822 10.4165C34.9907 10.2128 35.3309 10.2819 35.6125 10.3656C36.2234 10.5565 36.9568 10.8766 37.5932 10.8766Z" fill="#B27720"/>
<path d="M63.7666 19.2414C64.1162 19.2693 64.4672 19.2066 64.7853 19.0595H64.2604C63.5752 19.0595 62.8899 19.0322 62.2047 18.9777C60.8788 18.8649 59.6534 18.3958 58.3366 18.2121C57.9708 18.1612 57.5886 18.0921 57.3618 17.8139C57.135 17.5356 57.1679 17.1065 57.3325 16.7392C57.2009 16.7192 57.0674 16.6937 56.9357 16.6628C56.8525 16.7528 56.7851 16.8561 56.7363 16.9683C56.6156 17.2556 56.5937 17.6229 56.3285 17.7921C55.9462 18.0357 55.489 17.6466 55.072 17.4647C54.5801 17.2502 54.0168 17.3356 53.4809 17.332C52.0178 17.3211 51.6374 15.8772 50.6169 15.1025C50.8225 15.6858 50.9095 16.304 50.8729 16.921C50.7074 16.963 50.5352 16.9717 50.3663 16.9465C50.2155 16.9178 50.0674 16.8765 49.9237 16.8228C48.9257 16.4891 47.8943 16.2635 46.8475 16.15C46.8292 16.3627 47.045 16.53 47.2535 16.581C47.462 16.6319 47.687 16.6137 47.8918 16.681C48.0743 16.762 48.2482 16.8607 48.4112 16.9756C50.6662 18.2485 53.6126 17.5593 55.9462 18.4576C56.4949 18.6704 57.0436 19.0122 57.6398 18.945C57.9233 18.9122 58.1885 18.7849 58.4719 18.754C58.7679 18.7425 59.0637 18.7788 59.348 18.8613C60.0391 19.0061 60.7394 19.1033 61.4439 19.1523C62.2065 19.2105 62.9417 19.4341 63.6953 19.5414C63.8528 19.5649 64.0116 19.5801 64.1708 19.5869C63.9915 19.5305 63.794 19.4705 63.7666 19.2414Z" fill="#562707"/>
<path d="M39.2136 18.0502L39.4166 17.9775C40.0219 17.7556 40.6236 17.4883 41.2674 17.4483C42.3556 17.381 43.4621 18.0611 44.5082 18.3266L46.1871 18.7558C46.9498 18.9504 47.7216 19.1468 48.5098 19.134C47.3461 18.4835 46.0825 18.0282 44.7697 17.7866C44.3173 17.7218 43.8696 17.6282 43.4292 17.5065C42.6647 17.2628 41.9478 16.89 41.1851 16.6591C41.0296 16.5997 40.8605 16.5846 40.6968 16.6155C40.5312 16.6785 40.3837 16.7809 40.267 16.9137C39.5092 17.6224 38.5523 18.0848 37.5237 18.2393C38.087 18.3666 38.6667 18.2357 39.2136 18.0502Z" fill="#421E01"/>
<path d="M63.6971 22.8026C62.9856 22.8626 62.2559 22.9844 61.5792 22.8244C61.0561 22.6989 60.6446 22.6153 60.213 22.2934C60.2029 22.2873 60.1946 22.2785 60.1892 22.268C60.1891 22.2581 60.1914 22.2483 60.1958 22.2394C60.2003 22.2305 60.2068 22.2229 60.2149 22.217C60.4599 21.9934 60.8696 21.9752 61.0616 21.7024C60.563 21.7897 60.0673 21.8934 59.5747 22.0134C59.3059 22.0788 59.1742 22.268 58.9291 22.3334C58.6475 22.4062 58.2781 22.3189 57.9928 22.2934C57.3179 22.2298 56.6522 22.1116 55.981 22.0352C55.3628 21.9716 54.4685 21.8752 53.9692 21.4515C53.5412 21.0878 53.5028 20.4859 53.1297 20.0312C53.0072 20.1567 53.0895 20.3749 53.0072 20.5277C52.903 20.7241 52.6158 20.6986 52.3982 20.6495C50.0572 20.124 47.5333 20.1949 45.1704 20.5622C45.9861 20.835 46.9115 20.7441 47.7583 20.8005C48.9946 20.8805 50.2346 20.8823 51.4691 21.0023C51.7718 21.018 52.0708 21.0749 52.3579 21.1714C53.0163 21.4242 53.5175 21.8461 54.2161 22.0188C55.0043 22.2134 55.8292 22.3243 56.6284 22.4644C58.2086 22.7408 59.8692 23.0717 61.4786 23.0717C62.1432 23.0574 62.8077 23.1061 63.463 23.2172C63.5251 23.1099 63.5873 23.0044 63.6458 22.8972L63.6971 22.8026Z" fill="#421E01"/>
<path d="M52.3084 16.7706C52.4779 16.9224 52.6569 17.0633 52.8443 17.1925C52.8735 17.2194 52.9083 17.2394 52.9463 17.251C52.9843 17.2626 53.0245 17.2657 53.0638 17.2598C53.0836 16.9793 53.0294 16.6984 52.9065 16.4451C53.3875 16.2924 53.8941 16.5288 54.3696 16.6779C55.1327 16.9107 55.946 16.9271 56.7179 16.7252C56.065 16.4215 55.2273 16.2342 54.5232 16.0487C54.0184 15.9141 53.4826 15.8669 52.9833 15.7123C52.484 15.5577 52.1237 15.2304 51.6116 15.0922C51.5693 15.0777 51.5241 15.074 51.4799 15.0813C51.449 15.0933 51.4214 15.1126 51.3998 15.1377C51.3781 15.1627 51.3629 15.1927 51.3556 15.2249C51.2587 15.5068 51.4306 15.8068 51.6153 16.0432C51.8239 16.3059 52.0559 16.5493 52.3084 16.7706Z" fill="#B27720"/>
<path d="M60.0447 17.1232C60.3778 17.1113 60.7084 17.1846 61.0049 17.3359C61.0376 17.3527 61.0663 17.376 61.0894 17.4045C61.1124 17.4331 61.1291 17.4661 61.1384 17.5014C61.153 17.6178 61.0286 17.7015 60.9189 17.7415C60.6946 17.8236 60.4535 17.8498 60.2166 17.8178C59.8508 17.7687 59.485 17.5796 59.1193 17.636C58.4737 17.7324 57.4349 18.2906 57.5995 17.125C58.428 17.085 59.2235 17.0868 60.0447 17.1232Z" fill="#B27720"/>
<path d="M39.0929 14.4648C39.0847 14.4341 39.083 14.4021 39.0881 14.3707C39.0931 14.3394 39.1047 14.3095 39.1222 14.2829C39.1468 14.2612 39.176 14.2451 39.2077 14.236C39.2393 14.2269 39.2726 14.2249 39.3051 14.2302C40.256 14.2422 41.1901 14.4817 42.0283 14.9285C42.2274 15.0483 42.439 15.1465 42.6593 15.2213C42.8618 15.2679 43.0697 15.2874 43.2774 15.2794C43.7273 15.2794 44.1919 15.2649 44.6034 15.4522C45.3715 15.7912 46.1668 16.0655 46.9809 16.2723C47.2538 16.3526 47.5077 16.4865 47.7277 16.6661C47.9476 16.8457 48.129 17.0674 48.2612 17.318C45.9129 16.5906 43.5591 15.8838 41.1998 15.1976C40.9291 15.1194 40.5981 15.054 40.4024 15.254C40.3026 15.3995 40.2278 15.5605 40.1811 15.7304C40.108 15.8905 39.9105 16.0341 39.7623 15.9377C39.4953 15.4122 39.1643 15.0921 39.0929 14.4648Z" fill="#AA6E1F"/>
<path d="M63.6127 20.2404C62.6379 20.0931 61.4327 19.8767 60.4744 20.2113C60.2915 20.2768 60.0994 20.3931 59.9038 20.3531C59.6093 20.3058 59.5179 20.0131 59.3258 19.8331C59.1338 19.653 58.8521 19.5676 58.6821 19.3112C58.6637 19.2963 58.6505 19.276 58.6443 19.2533C58.6381 19.2306 58.6393 19.2065 58.6475 19.1844C58.6558 19.1624 58.6708 19.1434 58.6904 19.1303C58.7101 19.1171 58.7334 19.1104 58.757 19.1111C59.5764 18.9293 60.2421 19.2639 61.0121 19.4421C61.7436 19.6112 62.5538 19.5876 63.3055 19.6948C63.4659 19.7065 63.6201 19.7611 63.7517 19.8531C63.8157 19.9009 63.8602 19.97 63.8773 20.0477C63.8944 20.1255 63.883 20.2067 63.845 20.2768L63.6127 20.2404Z" fill="#AA6E1F"/>
<path d="M38.6229 9.63905L39.9964 10.1846C39.9361 10.283 39.8483 10.3617 39.7437 10.4112C39.6391 10.4606 39.5222 10.4785 39.4075 10.4628C39.1775 10.429 38.9556 10.3538 38.7527 10.241C38.2607 10.01 37.9608 10.1555 37.4579 10.1446C37.1671 10.1446 36.9915 10.1246 37.0189 9.80271C37.0939 8.99713 38.2388 9.48812 38.6229 9.63905Z" fill="#B27720"/>
<path d="M41.2455 2.78776C41.3937 2.88777 41.5016 2.9696 41.5345 2.99143C41.6062 3.04935 41.6899 3.09093 41.7796 3.11326C42.0191 3.19327 42.341 3.36421 42.5861 3.3333C42.5943 3.286 42.5931 3.23755 42.5824 3.19073C42.5718 3.14391 42.5519 3.09966 42.5239 3.06053C42.4429 2.94298 42.342 2.84024 42.2258 2.75684C41.9957 2.54001 41.723 2.37285 41.4247 2.26586C41.2858 2.22585 41.1394 2.2113 41.0041 2.16402C40.9342 2.14404 40.8698 2.10818 40.8162 2.05927C40.7626 2.01036 40.7211 1.94973 40.695 1.88216C40.6456 1.71668 40.7334 1.51847 40.6219 1.37845C40.5832 1.3407 40.5365 1.31198 40.4853 1.29437C40.434 1.27676 40.3795 1.27069 40.3256 1.27661C39.0417 1.28207 40.5615 2.3295 41.2455 2.78776Z" fill="#C68D30"/>
<path d="M39.6782 2.75849C39.7688 2.86291 39.8685 2.95906 39.9763 3.04581C40.4591 3.37132 41.0023 3.59135 41.5053 3.88048C41.5979 3.92586 41.6815 3.98746 41.7522 4.06233C41.7874 4.1007 41.8117 4.14771 41.8227 4.19852C41.8336 4.24933 41.8307 4.30212 41.8143 4.35147C41.8509 4.26236 40.45 4.16962 40.375 4.10416C40.2689 4.01869 40.1921 3.90594 40.0915 3.8132C39.8775 3.61317 39.5868 3.51497 39.36 3.33495C39.1771 3.18765 38.515 2.44571 38.9558 2.3166C39.1826 2.25478 39.4514 2.52391 39.6782 2.75849Z" fill="#C68D30"/>
<path d="M44.0217 3.66797C44.5356 3.75343 44.8648 4.04985 45.3567 4.33171C45.4525 4.37774 45.5437 4.43253 45.6292 4.49537C45.7232 4.59141 45.8026 4.70043 45.8652 4.81906C45.9804 5.0009 46.1304 5.1482 46.2401 5.32822C46.3004 5.41502 46.3403 5.51412 46.3571 5.61827C46.3739 5.72241 46.367 5.82897 46.337 5.93013C46.2118 5.9178 46.0904 5.88014 45.9803 5.81948C45.8703 5.75881 45.7738 5.67642 45.6969 5.57735C45.5452 5.37764 45.3763 5.19146 45.1921 5.0209C44.9807 4.85648 44.7179 4.77091 44.4496 4.77905C44.2265 4.77905 43.0853 5.03727 43.4071 4.39717C43.4741 4.30419 43.5305 4.20418 43.5754 4.09894C43.612 3.94983 43.5333 3.7698 43.6248 3.64433C43.7575 3.63871 43.8905 3.64663 44.0217 3.66797Z" fill="#C68D30"/>
<path d="M44.2926 6.6081C44.4465 6.7506 44.5817 6.91191 44.6949 7.08818C45.0735 7.69009 45.1412 8.75207 45.2637 9.45218C44.8285 9.45218 44.4736 9.08849 44.2816 8.70661C44.0896 8.32473 43.9981 7.88466 43.7768 7.51188C43.6344 7.27718 43.4439 7.07493 43.2176 6.91828C42.9914 6.76163 42.7345 6.65408 42.4637 6.60264C42.3498 6.5897 42.2376 6.56471 42.129 6.52809C42.0128 6.47215 41.906 6.39853 41.8126 6.30987L41.1963 5.77342C41.0865 5.67886 40.9713 5.52248 41.0591 5.40973C41.1469 5.29699 41.2713 5.34427 41.37 5.39882C41.5392 5.49995 41.7249 5.57074 41.9187 5.60794C42.1601 5.64977 42.4235 5.60794 42.6649 5.66249C43.2775 5.83947 43.8367 6.16431 44.2926 6.6081Z" fill="#C1852F"/>
<path d="M46.8804 12.0657C46.9005 12.1221 46.9225 12.1784 46.9463 12.233C46.97 12.2875 47.0322 12.3767 47.0981 12.3494C47.0432 11.211 46.6481 10.049 46.7999 8.90883C46.8219 8.72699 46.9719 8.25237 46.778 8.11053C46.4433 7.86686 46.2988 8.54878 46.2988 8.74699C46.3292 9.27963 46.397 9.80949 46.5018 10.3327C46.5683 10.9217 46.6951 11.5024 46.8804 12.0657Z" fill="#B27720"/>
<path d="M41.0737 11.6748C41.3041 11.7694 41.5675 11.7839 41.7723 11.9312C41.86 12.0009 41.9376 12.0823 42.0028 12.1731L42.7343 13.1042C42.5866 13.1095 42.4402 13.0756 42.31 13.006C41.7705 12.7786 41.1999 12.5295 40.8634 12.0513C40.8234 11.9815 40.7707 11.9199 40.7079 11.8694C40.6306 11.828 40.5473 11.7986 40.461 11.7821C40.0641 11.6585 39.8575 11.2257 39.5137 10.9911C39.1698 10.7565 38.6815 10.7311 38.3633 10.4456C38.5279 10.5929 39.1241 10.6274 39.3527 10.7074C39.6729 10.8226 39.9835 10.9624 40.2818 11.1257C40.5323 11.262 40.7317 11.4894 40.9603 11.6166C40.9966 11.6388 41.0345 11.6582 41.0737 11.6748Z" fill="#63390B"/>
<path d="M51.3319 14.7343C50.6433 14.502 49.9856 14.1875 49.3731 13.7978C49.3084 13.8764 49.2333 13.9462 49.15 14.0051C48.2447 14.6379 46.7121 13.7996 45.847 13.4432C45.6778 13.363 45.498 13.3073 45.313 13.2777C45.1045 13.2559 44.896 13.3013 44.6875 13.2922C44.1114 13.265 44.1388 12.7103 44.0712 12.263C44.0072 11.8811 43.8298 11.5356 43.7804 11.161C43.6889 10.4773 44.3126 10.5645 44.4735 10.119C44.3237 10.1578 44.1656 10.15 44.0204 10.0967C43.8752 10.0434 43.75 9.94707 43.6615 9.8208C43.5481 9.6021 43.478 9.36382 43.4548 9.11887C43.2354 7.99324 42.5276 7.32404 41.551 6.7876C42.1216 7.43861 42.886 8.35512 43.0762 9.22071C43.3413 10.2985 43.5386 11.3917 43.667 12.4939C43.6833 12.5684 43.6783 12.6459 43.6523 12.7176C43.5792 12.8758 43.3396 12.874 43.1896 12.7813C43.0397 12.6885 42.9318 12.5394 42.7781 12.4558C42.7308 12.4347 42.6861 12.4085 42.6446 12.3776C42.5964 12.3267 42.5629 12.2639 42.5477 12.1957C42.3648 11.5938 42.5642 11.0246 42.2953 10.4682C42.0265 9.91172 41.6259 9.38982 41.476 8.76245C41.3827 9.32799 42.3593 11.2046 41.9131 11.5592C41.5052 11.8848 40.7572 10.1936 40.2524 10.119C40.4992 10.3558 40.6871 10.6466 40.8011 10.9682C40.8544 11.1855 40.9407 11.3934 41.0572 11.5847C41.2163 11.792 41.4723 11.8957 41.6826 12.0521C42.2094 12.4394 42.4636 13.1431 43.0598 13.4214C43.2137 13.4849 43.3745 13.5307 43.539 13.5577C44.0828 13.669 44.6323 13.7516 45.185 13.8051C45.6842 13.856 45.8598 14.0033 46.2823 14.2488C47.1905 14.7482 48.1661 15.1157 49.1792 15.3398C49.4598 15.4307 49.7607 15.4396 50.0461 15.3653C50.3534 15.2562 50.5692 14.9761 50.8655 14.8434C51.0139 14.7818 51.1714 14.7449 51.3319 14.7343Z" fill="#421E01"/>
<path d="M51.8367 18.958C51.912 18.943 51.9885 18.9351 52.0653 18.9343H53.8795C54.0133 18.9239 54.1475 18.9458 54.2709 18.998C54.343 19.0449 54.4109 19.0978 54.4739 19.1562C54.9641 19.5526 55.6828 19.3998 56.29 19.2289C56.4546 19.1816 56.6558 19.0471 56.5881 18.8961C56.5461 18.807 56.4308 18.7852 56.3321 18.7743C55.4359 18.6743 54.5032 18.2451 53.6162 18.2451C52.7536 18.098 51.8813 18.0147 51.0064 17.996C50.5546 17.9833 50.0919 17.6832 49.6365 17.7359C49.1116 17.796 48.9635 18.1196 48.6379 18.5015C48.5803 18.5645 48.5467 18.6456 48.5431 18.7307C48.5394 18.8157 48.5658 18.8994 48.6178 18.967C48.6803 19.0219 48.7559 19.0601 48.8373 19.078C49.408 19.2503 50.005 19.3199 50.6003 19.2835C51.0301 19.258 51.4435 19.0307 51.8367 18.958Z" fill="#AA6E1F"/>
<path d="M55.4652 20.1004C56.0285 20.0895 56.5937 20.0823 57.157 20.0768C57.4636 20.0594 57.7712 20.0833 58.0714 20.1477C58.5707 20.2768 58.9858 20.6151 59.379 20.946C58.9365 20.986 58.5103 20.806 58.0769 20.7151C57.4854 20.6199 56.8838 20.6046 56.2882 20.6696C56.1022 20.6685 55.9183 20.7096 55.7505 20.7896C55.4433 20.9715 55.2458 21.2515 54.8983 21.3843C54.8031 21.4268 54.6987 21.4449 54.5947 21.437C54.415 21.3913 54.2575 21.2837 54.1503 21.1333C54.0113 20.9824 53.009 20.1568 53.6802 20.1386C54.2764 20.1241 54.8714 20.1114 55.4652 20.1004Z" fill="#AA6E1F"/>
<path d="M43.7585 18.4721L44.2359 18.5685C44.7425 18.6721 45.2509 18.7758 45.7594 18.8722C46.5763 19.0286 47.3962 19.168 48.2192 19.2904C46.5257 19.5395 44.9272 18.7722 43.2995 18.9267C41.8656 19.0558 39.9819 19.1522 38.645 18.4612C38.5773 18.4266 38.6614 18.3321 38.7346 18.3103C39.6234 18.0448 40.6513 17.7993 41.5858 17.8411C42.3686 17.8684 43.0087 18.3194 43.7585 18.4721Z" fill="#9B5F23"/>
<path d="M32.2311 20.2604C33.4875 20.1385 34.7531 20.2986 35.9968 20.5113C36.0663 20.4804 36.0644 20.3713 36.0114 20.3167C35.9524 20.2678 35.8795 20.2385 35.8029 20.2331C35.0372 20.1009 34.2697 19.97 33.5003 19.8403C32.8401 19.7294 31.6824 19.3093 31.024 19.4348C30.6143 19.513 30.5759 19.8785 30.8045 20.1622C31.0862 20.5059 31.7373 20.3149 32.1031 20.2731L32.2311 20.2604Z" fill="#915813"/>
<path d="M20.9959 18.0582C20.9888 18.139 21.0063 18.2199 21.0461 18.2906C21.0859 18.3613 21.1462 18.4185 21.2191 18.4547C21.2991 18.4761 21.3813 18.4883 21.4641 18.491C21.6711 18.5351 21.8694 18.6125 22.0512 18.7202C22.8742 19.1093 23.8216 19.1057 24.7324 19.0948C25.2213 19.0983 25.71 19.071 26.1955 19.0129C26.7734 18.9329 27.3714 18.7675 27.9311 18.9366L24.7634 18.2001L23.5363 17.9164C22.801 17.7437 21.0362 16.8562 20.9959 18.0582Z" fill="#915813"/>
<path d="M36.9952 14.9431C37.1412 14.993 37.2903 15.0337 37.4415 15.0649C38.259 15.2286 38.4455 14.6467 38.7381 14.0339C38.7249 14.3052 38.7769 14.5758 38.8899 14.8231C38.9765 15.1071 39.1161 15.3724 39.3014 15.605C39.5026 15.8287 39.7916 15.9796 39.9251 16.2488C38.9129 16.0683 37.9163 15.8105 36.944 15.4777C36.3331 15.2686 35.9344 14.6667 35.3474 14.4212C34.8845 14.2268 34.4822 13.9129 34.1824 13.512C34.5482 13.7096 34.9097 13.9066 35.2669 14.103C35.8178 14.4315 36.396 14.7126 36.9952 14.9431Z" fill="#74481C"/>
<path d="M32.1065 14.9718C32.8014 15.0505 33.4888 15.1843 34.1622 15.3719C34.7658 15.5173 35.3162 15.8283 35.907 16.0192C37.0445 16.3829 38.2736 16.2975 39.4623 16.1774L34.2793 14.9191C33.3648 14.6936 32.4156 14.4681 31.4701 14.5354C31.2075 14.5773 30.9395 14.5736 30.6782 14.5245C30.4456 14.4412 30.2313 14.314 30.0472 14.1499C29.0176 13.3534 27.8343 12.3805 26.5851 12.0823C25.8755 11.9113 25.0745 11.7568 24.2807 11.6404C24.1044 11.9032 23.8871 12.1365 23.637 12.3314C24.4033 12.8406 25.5774 13.0788 26.245 13.3043C27.5252 13.7389 29.2535 14.1717 30.2264 15.17L28.917 15.5137C29.2041 15.4392 30.9178 16.6266 31.3585 16.7521C32.4412 17.0594 33.5404 17.3176 34.6505 17.5449C33.7251 16.6357 32.315 16.4648 31.1756 15.8501C29.9576 15.1937 31.5908 14.9318 32.1065 14.9718Z" fill="#421E01"/>
<path d="M41.5912 21.3349C41.9605 21.4803 42.3161 21.658 42.6538 21.8659C41.0788 21.6601 39.536 21.2588 38.0615 20.6711C36.5289 20.0583 34.9085 20.102 33.3411 19.6346C32.3206 19.3309 30.7221 19.4528 29.8662 18.7472C29.9604 18.8242 30.0769 18.8693 30.1986 18.876C30.3204 18.8826 30.4411 18.8504 30.5432 18.784C30.6453 18.7176 30.7233 18.6206 30.766 18.507C30.8088 18.3934 30.8139 18.2692 30.7807 18.1526C30.9635 18.3344 31.0221 18.589 31.194 18.7654C31.4573 19.0363 31.8798 19.0454 32.2529 19.1073C33.2899 19.2764 36.7264 21.0821 36.624 18.7217C36.6261 18.6571 36.6075 18.5934 36.5709 18.5399C36.5255 18.4997 36.4698 18.4727 36.41 18.4617C35.9461 18.3315 35.5115 18.1142 35.1298 17.8216C35.9582 17.6998 36.6441 18.4526 37.4524 18.6672C37.7871 18.7563 38.1419 18.7508 38.4803 18.8327C38.7452 18.8973 38.9941 19.0149 39.2118 19.1782L36.9257 18.8509C36.7867 19.5491 37.1635 19.8946 37.756 20.1656C38.2307 20.3559 38.72 20.5079 39.2191 20.6202C40.023 20.8129 40.815 21.0515 41.5912 21.3349Z" fill="#421E01"/>
<path d="M63.152 20.8787C62.6143 20.8876 62.0768 20.848 61.5463 20.7605C61.0104 20.6477 60.341 20.6005 59.8381 20.3968C59.3735 20.2149 58.9602 19.8222 58.4774 19.6185C58.3682 19.569 58.2542 19.5306 58.1372 19.5039C57.9957 19.4866 57.8526 19.4866 57.7111 19.5039L54.9458 19.7203C55.832 19.8627 56.7295 19.9235 57.627 19.9022C57.8943 19.872 58.165 19.9102 58.4134 20.0131C58.5566 20.1042 58.6891 20.2109 58.8084 20.3313C59.54 20.9732 60.2606 20.7696 61.0964 21.0042C61.8444 21.2034 62.6175 21.294 63.3916 21.2733H64.1872H64.3243C64.3463 21.1915 64.3664 21.1114 64.3829 21.0314C63.9768 20.951 63.5655 20.8999 63.152 20.8787Z" fill="#421E01"/>
<path d="M63.567 18.498C63.8282 18.5919 64.1119 18.6052 64.3808 18.5362C64.7722 18.4071 65.021 17.9907 65.4142 17.8743C65.5641 17.8288 65.8202 17.7834 65.7598 17.5688C65.6995 17.3542 65.5166 17.5542 65.394 17.5597C64.9649 17.5895 64.5376 17.6411 64.1138 17.7143C63.4006 17.8252 62.6599 17.7488 61.9484 17.6779C61.8939 17.6671 61.8374 17.6721 61.7856 17.6924C61.7616 17.7103 61.7417 17.7333 61.7276 17.7596C61.7134 17.786 61.7052 17.8151 61.7036 17.845C61.7021 17.8749 61.7071 17.9047 61.7185 17.9324C61.7298 17.9601 61.7471 17.9849 61.7692 18.0052C61.8651 18.0817 61.9815 18.1285 62.1039 18.1398C62.527 18.2198 62.9452 18.3198 63.3585 18.4398L63.567 18.498Z" fill="#B27720"/>
<path d="M58.1884 23.9214C58.5191 24.0573 58.8657 24.1514 59.2199 24.2015C59.5905 24.2233 59.9624 24.1976 60.3264 24.1251C61.0964 24.0032 61.8426 23.8541 62.618 23.7414C62.7204 23.7268 62.843 23.6941 62.8686 23.5941C62.9088 23.4432 62.6857 23.3631 62.5375 23.3559C61.3359 23.2886 60.1325 23.2177 58.9328 23.174C58.6072 23.1631 57.2502 22.7867 57.0545 23.0922C56.8314 23.4486 57.9671 23.8414 58.1884 23.9214Z" fill="#9B5F23"/>
<path d="M21.0291 19.5872C22.2289 19.629 23.3737 20.1637 24.5625 20.3928C26.3307 20.7583 28.0765 21.224 29.7913 21.7876C29.9504 21.8366 30.1388 21.9239 30.1571 22.0912C28.5971 22.5731 26.9602 21.673 25.327 21.6348C24.4857 21.6148 23.7432 21.1529 22.8653 21.0893L24.0011 22.2222C24.1364 22.3549 24.2809 22.5368 24.2114 22.7113C24.0578 23.095 22.2563 22.1931 22.0643 22.053C21.4622 21.6148 20.921 21.0994 20.4548 20.5201C20.272 20.2964 20.1055 19.9745 20.2866 19.7527C20.348 19.6955 20.4207 19.6516 20.5 19.6238C20.5793 19.5959 20.6636 19.5847 20.7475 19.5908C20.8298 19.5818 20.9304 19.5836 21.0291 19.5872Z" fill="#74481C"/>
<path d="M52.2078 25.0805L52.3523 25.1023C53.0235 25.1932 53.6636 25.1987 54.3367 25.3951C54.4514 25.4191 54.5587 25.4703 54.6494 25.5442C54.6945 25.5819 54.7257 25.6334 54.7383 25.6906C54.7509 25.7478 54.7441 25.8076 54.7189 25.8606C53.4986 25.6319 52.2655 25.477 51.0264 25.3969C50.4905 25.366 49.8961 25.3532 49.4846 25.6969C49.342 24.9241 49.3603 24.6768 50.1503 24.6822C50.8782 24.6859 51.5129 24.9604 52.2078 25.0805Z" fill="#74481C"/>
<path d="M60.7799 26.9679C60.6808 26.9997 60.5753 27.0072 60.4726 26.9897C59.6115 26.9172 58.7449 26.9386 57.8884 27.0533C57.7075 27.0914 57.5207 27.0914 57.3398 27.0533C57.0398 26.9661 56.6411 26.0968 57.1569 26.1587C57.936 26.2514 58.7315 26.235 59.5052 26.3823C59.7228 26.426 61.3121 26.7387 60.7799 26.9679Z" fill="#74481C"/>
<path d="M66.2136 18.5621C66.471 18.14 66.8061 17.7698 67.2012 17.471C67.2634 17.4201 67.3244 17.3674 67.3841 17.3128C67.2398 17.2612 67.0901 17.2258 66.9379 17.2073C66.8391 17.1946 66.7404 17.1873 66.6416 17.1819C66.2594 17.622 65.921 18.1184 65.5223 18.5148C65.0651 18.9676 64.5311 19.2877 63.7629 19.2422C63.8068 19.6186 64.2878 19.5423 64.4597 19.7423C64.7539 19.6202 65.0404 19.4806 65.3175 19.324C65.7327 19.1076 65.9777 18.9749 66.2136 18.5621Z" fill="#BF8221"/>
<path d="M64.6993 27.6445C65.0029 27.9627 65.1419 28.4082 65.4455 28.7356C65.519 28.8121 65.6013 28.8799 65.6906 28.9374C65.8625 28.8286 66.008 28.6833 66.1167 28.5119C66.0436 28.4664 65.9668 28.4264 65.8936 28.3864C65.8054 28.3513 65.7265 28.2965 65.6631 28.2261C65.5996 28.1558 65.5533 28.0719 65.5278 27.9809C65.5187 27.9154 65.5278 27.8482 65.5278 27.7827C65.4675 27.2626 64.4305 26.8971 64.0208 26.7589C63.9748 26.7443 63.9297 26.7273 63.8855 26.708C63.0527 26.6643 62.2236 26.5861 61.3982 26.4734C62.3035 27.2299 63.88 26.7862 64.6993 27.6445Z" fill="#AF6A10"/>
<path d="M64.7395 27.161C65.0129 27.3503 65.216 27.6238 65.3174 27.9393C65.3905 28.1594 65.3448 28.2467 65.5478 28.374C65.6735 28.431 65.8064 28.4708 65.9429 28.4922L66.0928 28.5322C66.0928 28.5213 66.1093 28.5122 66.1166 28.5031C66.0435 28.4576 65.9666 28.4176 65.8935 28.3776C65.8053 28.3425 65.7264 28.2877 65.6629 28.2173C65.5995 28.147 65.5532 28.0631 65.5277 27.9721C65.5186 27.9066 65.5277 27.8393 65.5277 27.7739C65.482 27.3756 64.8602 27.0683 64.3901 26.8828C64.5184 26.9598 64.6359 27.0534 64.7395 27.161Z" fill="#D18920"/>
<path d="M63.3714 25.5316C63.6385 25.7334 63.9914 25.7734 64.2859 25.9244C64.5803 26.0753 64.8144 26.4335 64.6517 26.7063C64.7373 26.6974 64.8193 26.667 64.89 26.618C64.9607 26.569 65.0177 26.5031 65.0558 26.4263C65.065 26.0153 64.9168 25.8662 64.5309 25.6389C64.2054 25.4461 63.7628 25.2752 63.5872 24.9333C63.4827 24.7044 63.4683 24.4448 63.547 24.2059C63.8963 23.0276 64.6443 21.9801 64.9077 20.7508C64.9299 20.6677 64.933 20.5807 64.9168 20.4963C64.8889 20.4197 64.8453 20.3498 64.7888 20.2908C64.7157 20.2017 64.6352 20.0507 64.5383 19.938C64.5822 20.1435 64.4761 20.238 64.4523 20.5163C64.3865 21.3218 64.0225 22.1929 63.6385 22.8948C63.4044 23.3203 63.1245 23.7313 63.0057 24.2023C62.8868 24.6733 62.9837 25.2425 63.3714 25.5316Z" fill="url(#paint3_linear_222_12971)"/>
<path d="M20.0982 18.5039C19.9886 18.7673 19.8988 19.0384 19.8293 19.3149C20.3197 19.3271 20.8086 19.3733 21.2925 19.4531C22.4392 19.7095 23.5731 20.0296 24.7289 20.2133C24.5265 19.9598 24.2487 19.7765 23.9352 19.6895C23.7143 19.6378 23.4889 19.6068 23.2622 19.5968C22.8896 19.5643 22.5194 19.5085 22.1539 19.4295C21.8053 19.3553 21.4634 19.2531 21.1315 19.124C21.0218 19.084 20.5188 18.7567 20.0982 18.5039Z" fill="#421E01"/>
<path opacity="0.6" d="M68.0297 17.762C67.8562 17.5624 67.6357 17.4087 67.3878 17.3147H67.353C67.3128 17.3002 67.2689 17.2874 67.2232 17.2747L67.161 17.2583C67.0915 17.242 67.0201 17.2292 66.9415 17.2183C66.8629 17.2074 66.744 17.1983 66.6452 17.1929C66.3895 17.4379 66.1614 17.7098 65.9649 18.0039C65.8323 18.1874 65.6881 18.3623 65.5333 18.5276C65.4193 18.6397 65.2971 18.743 65.1675 18.8368C65.3098 18.793 65.4462 18.7319 65.5735 18.6549C65.75 18.5261 65.9055 18.3709 66.0344 18.1948C66.1563 18.0336 66.2935 17.8844 66.444 17.7493C66.5244 17.6686 66.6147 17.5983 66.7129 17.5402C66.8274 17.4879 66.9528 17.4636 67.0787 17.4693C67.409 17.5176 67.7298 17.6163 68.0297 17.762Z" fill="#F2CD64"/>
<defs>
<linearGradient id="paint0_linear_222_12971" x1="51.2661" y1="4.90312" x2="41.5853" y2="31.6519" gradientUnits="userSpaceOnUse">
<stop stop-color="#AF7324"/>
<stop offset="0.67" stop-color="#774707"/>
</linearGradient>
<linearGradient id="paint1_linear_222_12971" x1="68.3022" y1="17.1818" x2="68.3022" y2="21.9207" gradientUnits="userSpaceOnUse">
<stop offset="0.01" stop-color="#BF8221"/>
<stop offset="0.68" stop-color="#AF6A10"/>
</linearGradient>
<linearGradient id="paint2_linear_222_12971" x1="65.9081" y1="28.3545" x2="65.9081" y2="17.5801" gradientUnits="userSpaceOnUse">
<stop stop-color="#895A1C"/>
<stop offset="0.67" stop-color="#5D3705"/>
</linearGradient>
<linearGradient id="paint3_linear_222_12971" x1="65.824" y1="20.4017" x2="63.6713" y2="26.3487" gradientUnits="userSpaceOnUse">
<stop stop-color="#BF8221"/>
<stop offset="0.75" stop-color="#AF6A10"/>
</linearGradient>
</defs>
</svg>
