<svg xmlns="http://www.w3.org/2000/svg" width="71" height="137" viewBox="0 0 71 137" fill="none">
    <path d="M65.7562 22.0275C65.0562 16.0275 63.9462 12.8675 61.9562 10.3575C61.5338 10.4511 61.0961 10.4521 60.6732 10.3607C60.2503 10.2692 59.8522 10.0873 59.5062 9.82751L52.3462 4.58752C51.9855 4.31675 51.6828 3.97629 51.456 3.58636C51.2293 3.19644 51.0831 2.76496 51.0262 2.3175C50.6862 2.1975 50.3362 2.07751 50.0262 1.97751V8.61752H20.6062V1.95752C20.2562 2.05752 19.9062 2.17752 19.6062 2.29752C19.5493 2.74497 19.4032 3.17645 19.1764 3.56638C18.9497 3.9563 18.647 4.29673 18.2862 4.5675L11.1262 9.80753C10.7772 10.0652 10.3774 10.2457 9.95324 10.3371C9.52912 10.4285 9.09042 10.4286 8.66624 10.3375C6.66624 12.8475 5.56624 15.9675 4.87624 22.0075C3.02624 38.0075 6.15624 63.0875 6.07624 69.2675C5.66624 102.268 5.39624 122.348 7.57624 129.268C8.11725 130.678 9.14136 131.851 10.4662 132.578C10.8252 132.42 11.2141 132.341 11.6062 132.348C14.1562 132.348 15.3962 134.008 18.2262 133.528C20.0862 133.218 20.7162 134.758 20.9362 135.838C22.6062 136.108 24.2862 136.298 25.8762 136.448C26.0079 136.259 26.183 136.106 26.3867 136C26.5903 135.893 26.8166 135.838 27.0462 135.838H43.5662C43.7945 135.838 44.0194 135.893 44.2214 136C44.4235 136.106 44.5967 136.26 44.7262 136.448C45.9162 136.338 47.1562 136.198 48.4062 136.028C48.5862 134.948 49.1762 133.198 51.1562 133.528C53.9762 134.008 55.2262 132.348 57.7762 132.348C58.0891 132.331 58.4022 132.378 58.6963 132.486C58.9903 132.594 59.2592 132.762 59.4862 132.978C61.1072 132.247 62.3828 130.917 63.0462 129.268C65.2362 122.318 64.9662 102.268 64.5562 69.2675C64.4762 63.1075 67.6062 37.9575 65.7562 22.0275Z" fill="url(#paint0_linear_222_9410)"/>
    <path d="M49.9863 8.6175V1.9575C41.6063 -0.6525 28.9863 -0.6525 20.6063 1.9575V8.59751L49.9863 8.6175Z" fill="url(#paint1_linear_222_9410)"/>
    <path d="M63.9363 23.0175C62.7963 13.0175 60.5063 11.3175 54.8663 6.61752C47.2263 0.237519 23.3663 0.237519 15.7263 6.61752C10.0863 11.3175 7.78627 12.9875 6.65627 23.0175C4.91627 38.3975 7.86626 62.5575 7.78626 68.5075C7.40626 100.268 7.14626 119.598 9.20626 126.288C11.5763 133.998 35.2963 133.578 35.2963 133.578C35.2963 133.578 59.0163 133.998 61.3863 126.288C63.3863 119.598 63.1863 100.288 62.7963 68.5075C62.7263 62.5575 65.6663 38.3975 63.9363 23.0175Z" fill="url(#paint2_radial_222_9410)"/>
    <path d="M23.6063 56.1675C20.234 56.621 16.9338 57.5049 13.7863 58.7975L14.1863 60.9575C17.3371 59.5062 20.6876 58.5354 24.1263 58.0775C31.5597 57.3076 39.0528 57.3076 46.4863 58.0775C49.921 58.5386 53.2678 59.5093 56.4163 60.9575L56.8063 58.7575C53.6546 57.4668 50.3514 56.583 46.9763 56.1276C39.2035 55.3809 31.3764 55.3943 23.6063 56.1675Z" fill="url(#paint3_linear_222_9410)"/>
    <path d="M12.2562 39.6675C15.6401 38.1941 19.1648 37.0683 22.7762 36.3075C31.0294 34.6727 39.5231 34.6727 47.7762 36.3075C51.3876 37.0683 54.9124 38.1941 58.2962 39.6675C58.9042 39.8941 59.464 40.2334 59.9462 40.6675V40.6075C60.1179 39.9554 60.162 39.2763 60.0762 38.6075C59.8762 38.2375 59.2962 37.8975 58.2862 37.4575C54.905 35.9748 51.3796 34.8455 47.7662 34.0875C39.5121 32.4627 31.0204 32.4627 22.7662 34.0875C19.1529 34.8455 15.6275 35.9748 12.2462 37.4575C11.2462 37.8975 10.6562 38.2375 10.4562 38.6075C10.3705 39.2763 10.4146 39.9554 10.5862 40.6075V40.6675C11.0744 40.2312 11.6412 39.8918 12.2562 39.6675Z" fill="url(#paint4_linear_222_9410)"/>
    <path d="M23.6062 56.1674C31.3777 55.4074 39.2048 55.4074 46.9762 56.1674C50.3513 56.6228 53.6546 57.5066 56.8062 58.7974L59.9862 40.6374C59.504 40.2033 58.9442 39.864 58.3362 39.6374C54.9524 38.164 51.4276 37.0382 47.8162 36.2774C39.5631 34.6426 31.0694 34.6426 22.8162 36.2774C19.2048 37.0382 15.6801 38.164 12.2962 39.6374C11.6883 39.864 11.1285 40.2033 10.6462 40.6374L13.8262 58.7974C16.961 57.508 20.2476 56.6242 23.6062 56.1674Z" fill="url(#paint5_linear_222_9410)"/>
    <path d="M9.37623 87.6976L13.5662 89.4076L12.8462 66.7976L8.84623 40.0176C8.84623 40.0176 8.49623 46.8776 8.84623 56.7276C9.06623 62.9576 9.68623 71.5276 9.67623 77.0576C9.67623 82.3076 9.51623 85.8676 9.37623 87.6976Z" fill="url(#paint6_linear_222_9410)"/>
    <path d="M61.1862 87.6676L57.0062 89.3776L57.7262 66.7876L61.7262 40.0176C61.7262 40.0176 62.0762 46.8776 61.7262 56.7176C61.5062 62.9476 60.8862 71.5176 60.8962 77.0376C60.9162 82.2876 61.0462 85.8876 61.1862 87.6676Z" fill="url(#paint7_linear_222_9410)"/>
    <path d="M9.25624 89.7876L13.5962 91.9576L14.0762 110.858C13.6305 112.996 12.9601 115.081 12.0762 117.078C11.3502 119.062 10.4008 120.958 9.24624 122.728C9.24624 122.728 8.77624 96.8676 9.25624 89.7876Z" fill="url(#paint8_linear_222_9410)"/>
    <path d="M61.3362 89.7576L56.9962 91.9576L56.5162 110.848C56.9559 112.987 57.6265 115.073 58.5162 117.068C59.2456 119.051 60.1949 120.946 61.3462 122.718C61.3462 122.718 61.8062 96.8376 61.3362 89.7576Z" fill="url(#paint9_linear_222_9410)"/>
    <path d="M18.1863 133.578C15.3563 134.058 14.1163 132.398 11.5663 132.398C11.1741 132.391 10.7852 132.47 10.4263 132.628C13.0263 134.258 16.9363 135.268 20.8963 135.888C20.6763 134.808 20.0463 133.268 18.1863 133.578Z" fill="#D60D26"/>
    <path d="M51.1863 133.577C49.1863 133.247 48.6163 134.997 48.4363 136.077C52.4963 135.527 56.6463 134.587 59.5163 133.027C59.2892 132.811 59.0204 132.644 58.7263 132.536C58.4323 132.428 58.1192 132.38 57.8063 132.397C55.1863 132.397 53.9763 134.057 51.1863 133.577Z" fill="#D60D26"/>
    <path d="M15.3862 32.8075C15.3862 32.8075 20.2362 23.9675 20.8962 20.6875C21.3962 18.1775 20.6062 10.4275 20.6062 10.4275C20.6062 10.4275 20.0862 17.8075 19.6062 20.2075C18.8562 23.4675 15.3862 32.8075 15.3862 32.8075Z" fill="url(#paint10_linear_222_9410)"/>
    <path d="M55.2562 32.8075C55.2562 32.8075 50.4062 23.9675 49.7462 20.6875C49.2462 18.1775 50.0362 10.4275 50.0362 10.4275C50.0362 10.4275 50.5562 17.8075 51.0362 20.2075C51.7862 23.4675 55.2562 32.8075 55.2562 32.8075Z" fill="url(#paint11_linear_222_9410)"/>
    <path style="mix-blend-mode:screen" d="M58.3362 39.6674C54.9524 38.1941 51.4276 37.0683 47.8162 36.3075C45.8747 35.8949 43.9117 35.5911 41.9362 35.3975C36.6562 41.0975 30.3962 51.3974 27.8362 55.7874C34.2165 55.4185 40.6157 55.5455 46.9762 56.1674C50.3513 56.6229 53.6546 57.5067 56.8062 58.7975L59.9862 40.6375C59.5015 40.214 58.9419 39.8851 58.3362 39.6674Z" fill="url(#paint12_linear_222_9410)"/>
    <path d="M35.2963 58.2974C19.9563 57.9574 14.8063 61.9574 14.8063 61.9574C14.8063 61.9574 14.9963 119.167 16.1663 122.857C16.9563 125.367 26.6263 124.437 32.7663 124.857H37.8263C43.9663 124.397 53.6263 125.327 54.4263 122.857C55.5963 119.167 55.7763 61.9574 55.7763 61.9574C55.7763 61.9574 50.6363 57.9574 35.2963 58.2974Z" fill="url(#paint13_linear_222_9410)"/>
    <path d="M18.1862 5.77759C18.1862 5.77759 8.95623 10.4376 7.96623 20.7776C7.41656 26.0761 7.15617 31.4007 7.18623 36.7276C7.18623 36.7276 10.3162 11.3976 18.1862 5.77759Z" fill="url(#paint14_linear_222_9410)"/>
    <path d="M52.4163 5.77759C52.4163 5.77759 61.6563 10.4376 62.6363 20.7776C63.2082 26.0649 63.492 31.3794 63.4863 36.6976C63.4863 36.6976 60.3263 11.3976 52.4163 5.77759Z" fill="url(#paint15_linear_222_9410)"/>
    <path d="M61.5663 41.3975C61.5663 41.3975 63.9563 41.8774 64.0163 43.9174C64.0763 45.9574 61.6163 50.1375 61.5663 47.4975C61.4187 45.4668 61.4187 43.4281 61.5663 41.3975Z" fill="url(#paint16_linear_222_9410)"/>
    <path d="M70.2563 45.8775C70.2563 44.5775 64.0063 42.8775 63.8363 43.3675C63.6193 43.3392 63.3986 43.3664 63.1951 43.4469C62.9915 43.5273 62.8118 43.6582 62.6728 43.8272C62.5338 43.9962 62.44 44.1978 62.4004 44.4131C62.3608 44.6283 62.3766 44.8501 62.4463 45.0575C65.1461 44.7606 67.8603 45.473 70.0663 47.0575C70.202 46.8966 70.2915 46.7017 70.3249 46.4939C70.3584 46.286 70.3347 46.0729 70.2563 45.8775Z" fill="url(#paint17_linear_222_9410)"/>
    <path d="M62.2963 45.0575C62.3465 45.3473 62.4235 45.6319 62.5263 45.9075C65.0866 45.527 67.6989 46.0693 69.8963 47.4375C70.0212 47.3283 70.132 47.204 70.2263 47.0675C67.9179 45.4498 65.0965 44.7347 62.2963 45.0575Z" fill="url(#paint18_linear_222_9410)"/>
    <path d="M8.77628 41.3975C8.77628 41.3975 6.38628 41.8774 6.32628 43.9174C6.26628 45.9574 8.72628 50.1375 8.77628 47.4975C8.91856 45.4666 8.91856 43.4283 8.77628 41.3975Z" fill="url(#paint19_linear_222_9410)"/>
    <path d="M0.0762508 45.8775C0.0762508 44.5775 6.33625 42.8775 6.50625 43.3675C6.72325 43.3392 6.94391 43.3664 7.14744 43.4469C7.35098 43.5273 7.53072 43.6582 7.66974 43.8272C7.80876 43.9962 7.90249 44.1978 7.94211 44.4131C7.98174 44.6283 7.96596 44.8501 7.89625 45.0575C5.19313 44.758 2.47489 45.4705 0.266253 47.0575C0.135136 46.8941 0.0486926 46.6995 0.0153873 46.4926C-0.0179181 46.2858 0.00305392 46.0738 0.0762508 45.8775Z" fill="url(#paint20_linear_222_9410)"/>
    <path d="M8.04627 45.0575C8.00117 45.3495 7.92057 45.635 7.80627 45.9075C5.24905 45.5259 2.63956 46.0684 0.44627 47.4375C0.32135 47.3283 0.2105 47.204 0.116272 47.0675C2.42468 45.4498 5.24605 44.7347 8.04627 45.0575Z" fill="url(#paint21_linear_222_9410)"/>
    <path d="M6.10625 68.3374C5.93651 68.3374 5.77373 68.4048 5.6537 68.5248C5.53368 68.6449 5.46625 68.8076 5.46625 68.9774V74.2574C5.46625 74.4271 5.53368 74.5899 5.6537 74.71C5.77373 74.83 5.93651 74.8974 6.10625 74.8974V68.3374Z" fill="#595959"/>
    <path d="M5.78624 94.7576C5.6165 94.7576 5.45372 94.825 5.33369 94.945C5.21367 95.0651 5.14624 95.2278 5.14624 95.3976V100.668C5.14624 100.837 5.21367 101 5.33369 101.12C5.45372 101.24 5.6165 101.308 5.78624 101.308V94.7576Z" fill="#595959"/>
    <path d="M64.4863 68.3374C64.6543 68.34 64.8145 68.4086 64.9324 68.5284C65.0502 68.6481 65.1163 68.8094 65.1163 68.9774V74.2574C65.1163 74.4254 65.0502 74.5867 64.9324 74.7065C64.8145 74.8262 64.6543 74.8948 64.4863 74.8974V68.3374Z" fill="#595959"/>
    <path d="M64.8063 94.7576C64.8899 94.7576 64.9726 94.7742 65.0497 94.8065C65.1268 94.8388 65.1967 94.8861 65.2553 94.9456C65.314 95.0052 65.3602 95.0758 65.3912 95.1534C65.4223 95.231 65.4376 95.314 65.4363 95.3976V100.668C65.4376 100.751 65.4223 100.834 65.3912 100.912C65.3602 100.989 65.314 101.06 65.2553 101.12C65.1967 101.179 65.1268 101.226 65.0497 101.259C64.9726 101.291 64.8899 101.308 64.8063 101.308V94.7576Z" fill="#595959"/>
    <path d="M21.4363 30.8975C22.4363 30.8175 22.9663 30.2375 23.9963 30.1575C24.023 30.1612 24.0502 30.1584 24.0756 30.1495C24.101 30.1405 24.1239 30.1257 24.1425 30.1062C24.161 30.0866 24.1747 30.0629 24.1823 30.0371C24.1899 30.0113 24.1913 29.984 24.1863 29.9575C24.1863 29.9383 24.1824 29.9192 24.1747 29.9015C24.1671 29.8838 24.1559 29.868 24.1418 29.8548C24.1277 29.8417 24.1111 29.8316 24.0929 29.8252C24.0748 29.8187 24.0555 29.8161 24.0363 29.8175C23.0363 29.8975 22.4963 30.4775 21.4763 30.5575C21.4355 30.5574 21.3963 30.5729 21.3665 30.6008C21.3368 30.6287 21.3188 30.6668 21.3163 30.7075C21.3084 30.7279 21.3054 30.7498 21.3075 30.7715C21.3097 30.7933 21.3169 30.8142 21.3285 30.8327C21.3402 30.8511 21.356 30.8666 21.3747 30.8779C21.3934 30.8891 21.4145 30.8959 21.4363 30.8975Z" fill="#9E9E9E"/>
    <path d="M23.9962 30.4574C22.9962 30.5374 22.4563 31.1174 21.4363 31.1974C21.4152 31.1974 21.3944 31.2015 21.375 31.2096C21.3556 31.2176 21.338 31.2294 21.3231 31.2443C21.3083 31.2591 21.2965 31.2768 21.2884 31.2962C21.2804 31.3156 21.2763 31.3364 21.2763 31.3574C21.276 31.3776 21.2802 31.3976 21.2885 31.416C21.2967 31.4344 21.3089 31.4509 21.3241 31.4642C21.3393 31.4775 21.3572 31.4873 21.3765 31.4931C21.3959 31.4988 21.4163 31.5003 21.4363 31.4974C22.4363 31.4174 22.9662 30.8374 23.9962 30.7574C24.0369 30.7548 24.0751 30.7369 24.103 30.7071C24.1309 30.6774 24.1463 30.6382 24.1463 30.5974C24.1463 30.5781 24.1424 30.5591 24.1347 30.5414C24.1271 30.5237 24.1159 30.5078 24.1018 30.4947C24.0877 30.4815 24.0711 30.4714 24.0529 30.465C24.0347 30.4586 24.0155 30.456 23.9962 30.4574Z" fill="#9E9E9E"/>
    <path d="M23.9962 31.0576C22.9962 31.1376 22.4563 31.7176 21.4363 31.7976C21.3946 31.8 21.3553 31.8176 21.3258 31.8471C21.2963 31.8766 21.2786 31.916 21.2763 31.9576C21.276 31.9778 21.2802 31.9978 21.2885 32.0162C21.2967 32.0347 21.3089 32.0511 21.3241 32.0644C21.3393 32.0777 21.3572 32.0876 21.3765 32.0933C21.3959 32.099 21.4163 32.1005 21.4363 32.0976C22.4363 32.0176 22.9662 31.4476 23.9962 31.3576C24.036 31.3576 24.0742 31.3418 24.1023 31.3137C24.1305 31.2856 24.1463 31.2474 24.1463 31.2076C24.1463 31.1678 24.1305 31.1297 24.1023 31.1015C24.0742 31.0734 24.036 31.0576 23.9962 31.0576Z" fill="#9E9E9E"/>
    <path d="M49.1863 30.8975C48.1863 30.8175 47.6463 30.2376 46.6263 30.1576C46.5864 30.1529 46.5495 30.1343 46.522 30.105C46.4946 30.0757 46.4783 30.0376 46.4763 29.9975C46.4762 29.9783 46.4801 29.9592 46.4878 29.9415C46.4954 29.9239 46.5067 29.908 46.5207 29.8948C46.5348 29.8817 46.5514 29.8716 46.5696 29.8652C46.5878 29.8588 46.6071 29.8562 46.6263 29.8575C47.6263 29.9375 48.1663 30.5176 49.1863 30.5976C49.2253 30.5999 49.2621 30.6165 49.2897 30.6441C49.3173 30.6717 49.3339 30.7085 49.3363 30.7475C49.3378 30.7676 49.3349 30.7878 49.3279 30.8067C49.3209 30.8255 49.3099 30.8427 49.2956 30.8569C49.2814 30.8712 49.2643 30.8822 49.2454 30.8892C49.2265 30.8962 49.2063 30.899 49.1863 30.8975Z" fill="#9E9E9E"/>
    <path d="M46.5763 30.4574C47.5763 30.5374 48.1163 31.1174 49.1363 31.1974C49.1769 31.1999 49.2151 31.2179 49.243 31.2476C49.2709 31.2774 49.2864 31.3166 49.2863 31.3574C49.2863 31.3766 49.2824 31.3957 49.2747 31.4134C49.2671 31.4311 49.2559 31.447 49.2418 31.4601C49.2277 31.4732 49.2111 31.4833 49.1929 31.4897C49.1748 31.4962 49.1555 31.4988 49.1363 31.4974C48.1363 31.4174 47.5963 30.8374 46.5763 30.7574C46.5356 30.7548 46.4974 30.7369 46.4695 30.7071C46.4417 30.6774 46.4262 30.6382 46.4263 30.5974C46.4262 30.5781 46.4301 30.5591 46.4378 30.5414C46.4455 30.5237 46.4567 30.5078 46.4707 30.4947C46.4848 30.4815 46.5015 30.4714 46.5196 30.465C46.5378 30.4586 46.5571 30.456 46.5763 30.4574Z" fill="#9E9E9E"/>
    <path d="M46.5763 31.0576C47.5763 31.1376 48.1163 31.7176 49.1363 31.7976C49.1761 31.8023 49.2131 31.8209 49.2405 31.8502C49.268 31.8795 49.2842 31.9175 49.2863 31.9576C49.2863 31.9769 49.2824 31.9959 49.2747 32.0136C49.2671 32.0313 49.2559 32.0472 49.2418 32.0603C49.2277 32.0734 49.2111 32.0835 49.1929 32.09C49.1748 32.0964 49.1555 32.099 49.1363 32.0976C48.1363 32.0176 47.5963 31.4476 46.5763 31.3576C46.5365 31.3576 46.4983 31.3418 46.4702 31.3137C46.4421 31.2856 46.4263 31.2474 46.4263 31.2076C46.4263 31.1678 46.4421 31.1297 46.4702 31.1015C46.4983 31.0734 46.5365 31.0576 46.5763 31.0576Z" fill="#9E9E9E"/>
    <path d="M43.5662 135.887H27.0062C26.7766 135.888 26.5503 135.943 26.3467 136.049C26.143 136.156 25.9679 136.309 25.8362 136.497C31.0362 136.967 35.2962 136.887 35.2962 136.887C35.2962 136.887 39.5462 136.967 44.7262 136.497C44.5967 136.309 44.4235 136.156 44.2214 136.049C44.0194 135.943 43.7945 135.888 43.5662 135.887Z" fill="url(#paint22_linear_222_9410)"/>
    <path d="M54.8662 6.61761C57.4962 8.80761 59.3862 10.3476 60.7862 12.3676C61.1462 11.8776 61.3462 10.4876 61.9562 10.3676C60.2114 8.35792 58.2533 6.54392 56.1162 4.95761C54.5821 3.78728 52.8612 2.88456 51.0262 2.2876C51.1471 3.10516 51.3687 3.90459 51.6862 4.6676C52.8315 5.16709 53.9017 5.82338 54.8662 6.61761Z" fill="url(#paint23_radial_222_9410)"/>
    <path d="M15.7663 6.61761C13.1363 8.80761 11.2463 10.3476 9.84626 12.3676C9.47626 11.8776 9.28626 10.4876 8.66626 10.3676C10.4174 8.36047 12.3786 6.54677 14.5163 4.95761C16.0504 3.78728 17.7713 2.88456 19.6063 2.2876C19.4854 3.10516 19.2638 3.90459 18.9463 4.6676C17.801 5.16709 16.7308 5.82338 15.7663 6.61761Z" fill="url(#paint24_radial_222_9410)"/>
    <path style="mix-blend-mode:screen" d="M13.5962 91.9576L9.25625 89.7676C8.99625 93.6476 9.02625 103.158 9.09625 110.978C11.1662 108.568 12.8162 104.748 13.8062 100.128L13.5962 91.9576Z" fill="url(#paint25_linear_222_9410)"/>
    <path style="mix-blend-mode:screen" d="M9.67623 78.2676C11.1095 76.1301 12.2245 73.7957 12.9862 71.3376L12.8462 66.7976L8.84623 40.0176C8.84623 40.0176 8.49623 46.8776 8.84623 56.7276C9.06623 62.9576 9.68623 71.5276 9.67623 77.0576C9.67623 77.4776 9.67623 77.8776 9.67623 78.2676Z" fill="url(#paint26_linear_222_9410)"/>
    <path style="mix-blend-mode:screen" d="M57.1162 91.9576L61.4562 89.7676C61.7162 93.6476 61.6862 103.158 61.6162 110.968C59.5462 108.558 57.8963 104.738 56.9062 100.128L57.1162 91.9576Z" fill="url(#paint27_linear_222_9410)"/>
    <path style="mix-blend-mode:screen" d="M61.0362 78.2476C59.6015 76.1132 58.4832 73.7824 57.7162 71.3276L57.8662 66.7876L61.8662 40.0176C61.8662 40.0176 62.2162 46.8776 61.8662 56.7176C61.6462 62.9476 61.0262 71.5176 61.0362 77.0376C61.0262 77.4576 61.0262 77.8476 61.0362 78.2476Z" fill="url(#paint28_linear_222_9410)"/>
    <path d="M41.1962 18.7476H27.8362V19.3576H41.1962V18.7476Z" fill="url(#paint29_linear_222_9410)"/>
    <path d="M41.1962 20.2075H27.8362V20.8175H41.1962V20.2075Z" fill="url(#paint30_linear_222_9410)"/>
    <path d="M41.1962 21.6775H27.8362V22.2875H41.1962V21.6775Z" fill="url(#paint31_linear_222_9410)"/>
    <path d="M41.1962 23.1375H27.8362V23.7474H41.1962V23.1375Z" fill="url(#paint32_linear_222_9410)"/>
    <path d="M16.1162 121.837C15.0102 124.451 14.3348 127.227 14.1162 130.057C13.9062 131.057 18.2162 131.967 24.3962 133.297C29.1362 134.527 41.3962 134.547 46.1362 133.297C52.3262 131.987 56.5162 131.147 56.3362 129.887C56.1788 127.134 55.5496 124.428 54.4762 121.887C48.3194 124.076 41.8194 125.139 35.2862 125.027C28.7597 125.082 22.2732 124.003 16.1162 121.837Z" fill="url(#paint33_linear_222_9410)"/>
    <path style="mix-blend-mode:screen" d="M54.8463 121.867C48.6924 124.074 42.1932 125.161 35.6563 125.077C33.6563 125.077 31.7963 124.987 30.0463 124.817C24.4563 126.137 20.0463 130.937 19.0463 132.107C20.9551 132.601 22.8875 132.998 24.8363 133.297C29.5763 134.507 41.8363 134.487 46.5663 133.297C50.0896 132.562 53.5111 131.404 56.7563 129.847C56.9363 130.407 56.5963 125.957 54.8463 121.867Z" fill="url(#paint34_linear_222_9410)"/>
    <g opacity="0.9">
        <path d="M44.2458 103.001C44.3074 102.684 44.3723 102.369 44.4287 102.053C44.4703 101.823 44.4997 101.591 44.5344 101.359C44.303 101.392 44.0708 101.417 43.8411 101.461C43.5049 101.524 43.1712 101.599 42.8367 101.669C42.8159 101.612 42.7951 101.554 42.7752 101.496C42.9815 101.358 43.1825 101.213 43.394 101.084C44.7077 100.284 44.7537 99.7777 43.4226 98.9821C40.607 97.2983 37.6163 96.469 34.3701 97.6103C32.1048 98.4059 29.7996 98.5142 27.452 98.2369C26.4318 98.1158 25.45 97.7752 24.574 97.2386C23.3868 96.521 23.2239 94.65 24.4666 93.8172C24.6927 93.6746 24.954 93.5975 25.2214 93.5945C29.0916 93.5806 32.9618 93.5867 36.8338 93.5841C37.9092 93.5841 38.9648 93.4489 39.9761 93.0641C42.3601 92.1559 43.5881 89.544 42.6859 87.3065C42.328 86.4182 41.4268 85.4649 40.4986 85.0533C40.6555 85.2266 40.743 85.3263 40.8332 85.4233C41.8341 86.5109 42.2509 87.7762 41.9675 89.2364C41.6972 90.6342 40.8306 91.5597 39.5073 91.9982C38.7587 92.2586 37.9752 92.4047 37.183 92.4315C33.9342 92.4792 30.6835 92.4523 27.4355 92.4523C27.3809 92.4523 27.3255 92.4428 27.2267 92.4341C27.8099 91.6325 28.608 91.3188 29.5171 91.1888C30.6012 91.0346 31.6403 91.1429 32.6455 91.6039C33.0402 91.7813 33.4527 91.9158 33.8761 92.0052C35.2133 92.2937 37.1033 91.2642 37.502 90.0241C37.5675 89.7973 37.542 89.5539 37.4309 89.3456C37.0167 88.6895 36.0712 88.3923 35.3259 88.6124C35.0035 88.7086 34.8562 88.8724 35.0105 89.213C35.0813 89.3693 35.1001 89.5443 35.0642 89.7121L34.3571 89.161L33.9038 89.8231L33.7764 89.7841C33.7446 89.6412 33.722 89.4965 33.7088 89.3508C33.6958 88.9539 33.4783 88.8308 33.11 88.8594C32.8419 88.8842 32.5716 88.8529 32.3162 88.7675C32.5019 88.7045 32.6836 88.6305 32.8604 88.5457C32.9471 88.4972 33.0797 88.368 33.0641 88.3091C33.0426 88.2531 33.0099 88.2021 32.968 88.1592C32.9262 88.1163 32.876 88.0824 32.8206 88.0595C32.6776 88.0041 32.5095 88.0145 32.3552 87.9833C32.201 87.9521 32.0658 87.9079 31.8353 87.8455C32.3726 87.355 33.0485 87.6366 33.6499 87.2614L32.6481 86.7796C33.1109 86.5898 33.5147 86.6383 33.8614 86.9026C34.3267 87.2545 34.7791 87.2805 35.3164 87.0534C35.6937 86.8835 36.1062 86.8066 36.5193 86.8291C36.9325 86.8515 37.3342 86.9727 37.6909 87.1825C37.8044 87.2458 37.9205 87.3047 38.0375 87.3559C38.4899 87.556 38.6909 87.4824 38.9041 87.0439C39.3608 86.114 39.158 85.51 38.2351 85.01C37.4153 84.5663 36.5201 84.4259 35.611 84.3488C31.4323 83.9908 27.2431 84.0801 23.0575 84.0602C22.4136 84.0602 21.7706 84.0602 21.0062 84.0602C21.4551 83.6884 21.7983 83.3868 22.1631 83.1138C22.2863 83.0421 22.4283 83.0092 22.5704 83.0194C26.4831 83.0333 30.3976 83.0194 34.3094 83.0861C36.378 83.1234 38.4249 83.4068 40.3643 84.2023C42.1287 84.9259 43.4234 86.1331 44.1678 87.8923C44.3178 88.2467 44.4529 88.3481 44.8308 88.1445C45.5509 87.7562 46.304 87.7736 47.0285 88.1609C47.2822 88.2973 47.5255 88.4523 47.7564 88.6246C48.6767 89.3118 49.6309 89.8447 50.8675 89.447L50.2401 89.9479L51.5192 90.2278V90.3144L50.338 90.5415L50.8883 91.5909L50.7913 91.7001L49.6499 91.2876C49.5806 91.6291 49.5182 91.9376 49.4567 92.2461L49.3414 92.2599C49.2608 92.0866 49.1681 91.9133 49.1031 91.74C49.0061 91.4705 48.8605 91.4046 48.6204 91.5814C48.4046 91.7408 48.1871 91.8934 47.9653 92.0494L47.8595 91.9679C48.006 91.7218 48.1282 91.4566 48.3067 91.2347C48.5424 90.9418 48.48 90.7443 48.2149 90.5137C47.5866 89.9695 45.9288 89.8673 45.2909 90.4063C45.1176 90.5501 45.0162 90.8838 45.0362 91.1169C45.1686 92.6302 44.8396 94.1481 44.0924 95.4707C43.8992 95.8217 43.9876 96.0348 44.2935 96.2194C44.4511 96.3206 44.614 96.4135 44.7814 96.4976C45.3369 96.7576 45.6757 97.1909 45.901 97.749C46.3205 98.7889 46.6238 98.9336 47.7573 98.8305C48.2097 98.7898 48.6733 98.8643 49.1326 98.886L49.1378 99.0359L47.649 99.5012L49.143 100.298L49.104 100.462H47.3188C47.3491 100.601 47.3888 100.737 47.4375 100.87C47.5493 101.104 47.6975 101.32 47.7841 101.564C47.8595 101.776 47.8708 102.012 47.9037 102.238C47.6949 102.176 47.4704 102.142 47.2789 102.043C47.038 101.918 46.8283 101.735 46.5995 101.585C46.0674 101.238 45.9574 101.263 45.5596 101.733C45.1896 102.166 44.7961 102.581 44.4131 103.004L44.2458 103.001Z" fill="#004974"/>
    </g>
    <defs>
        <linearGradient id="paint0_linear_222_9410" x1="4.24624" y1="79.8355" x2="66.3462" y2="79.8355" gradientUnits="userSpaceOnUse">
            <stop stop-color="#777777"/>
            <stop offset="1" stop-color="#A8ABAA"/>
        </linearGradient>
        <linearGradient id="paint1_linear_222_9410" x1="20.6063" y1="4.3175" x2="49.9863" y2="4.3175" gradientUnits="userSpaceOnUse">
            <stop stop-color="#525956"/>
            <stop offset="1"/>
        </linearGradient>
        <radialGradient id="paint2_radial_222_9410" cx="0" cy="0" r="1" gradientUnits="userSpaceOnUse" gradientTransform="translate(35.2963 60.8859) scale(30.68 117.811)">
            <stop offset="0.24" stop-color="white"/>
            <stop offset="1" stop-color="#3D3D3D"/>
        </radialGradient>
        <linearGradient id="paint3_linear_222_9410" x1="13.7863" y1="58.2975" x2="56.8063" y2="58.2975" gradientUnits="userSpaceOnUse">
            <stop/>
            <stop offset="1" stop-color="#1B1C1C"/>
        </linearGradient>
        <linearGradient id="paint4_linear_222_9410" x1="10.3862" y1="36.7275" x2="60.1962" y2="36.7275" gradientUnits="userSpaceOnUse">
            <stop/>
            <stop offset="1" stop-color="#1B1C1C"/>
        </linearGradient>
        <linearGradient id="paint5_linear_222_9410" x1="10.6062" y1="46.9374" x2="59.9862" y2="46.9374" gradientUnits="userSpaceOnUse">
            <stop stop-color="#363B39"/>
            <stop offset="1" stop-color="#1B1C1C"/>
        </linearGradient>
        <linearGradient id="paint6_linear_222_9410" x1="8.69623" y1="64.7076" x2="13.5662" y2="64.7076" gradientUnits="userSpaceOnUse">
            <stop stop-color="#363B39"/>
            <stop offset="1" stop-color="#1B1C1C"/>
        </linearGradient>
        <linearGradient id="paint7_linear_222_9410" x1="57.0262" y1="64.6976" x2="61.8962" y2="64.6976" gradientUnits="userSpaceOnUse">
            <stop stop-color="#363B39"/>
            <stop offset="1" stop-color="#1B1C1C"/>
        </linearGradient>
        <linearGradient id="paint8_linear_222_9410" x1="9.04624" y1="106.268" x2="14.0762" y2="106.268" gradientUnits="userSpaceOnUse">
            <stop stop-color="#363B39"/>
            <stop offset="1" stop-color="#1B1C1C"/>
        </linearGradient>
        <linearGradient id="paint9_linear_222_9410" x1="56.5162" y1="106.228" x2="61.5462" y2="106.228" gradientUnits="userSpaceOnUse">
            <stop stop-color="#363B39"/>
            <stop offset="1" stop-color="#1B1C1C"/>
        </linearGradient>
        <linearGradient id="paint10_linear_222_9410" x1="16.2362" y1="29.7975" x2="23.1562" y2="8.08749" gradientUnits="userSpaceOnUse">
            <stop stop-color="#353535"/>
            <stop offset="1" stop-color="#3A3A3A"/>
        </linearGradient>
        <linearGradient id="paint11_linear_222_9410" x1="53.7962" y1="31.0775" x2="48.2862" y2="9.20749" gradientUnits="userSpaceOnUse">
            <stop stop-color="#353535"/>
            <stop offset="1" stop-color="#3A3A3A"/>
        </linearGradient>
        <linearGradient id="paint12_linear_222_9410" x1="35.1962" y1="41.9975" x2="49.0262" y2="51.8275" gradientUnits="userSpaceOnUse">
            <stop stop-color="#363B39"/>
            <stop offset="1"/>
        </linearGradient>
        <linearGradient id="paint13_linear_222_9410" x1="17.0863" y1="61.4874" x2="87.1363" y2="176.457" gradientUnits="userSpaceOnUse">
            <stop stop-color="white"/>
            <stop offset="1" stop-color="#232323"/>
        </linearGradient>
        <linearGradient id="paint14_linear_222_9410" x1="2.96623" y1="-6.7524" x2="16.1462" y2="31.2176" gradientUnits="userSpaceOnUse">
            <stop stop-color="#515151"/>
            <stop offset="1" stop-color="#232323"/>
        </linearGradient>
        <linearGradient id="paint15_linear_222_9410" x1="67.6763" y1="-6.74241" x2="54.4863" y2="31.2176" gradientUnits="userSpaceOnUse">
            <stop stop-color="#515151"/>
            <stop offset="1" stop-color="#232323"/>
        </linearGradient>
        <linearGradient id="paint16_linear_222_9410" x1="61.0063" y1="42.2375" x2="66.3163" y2="52.5175" gradientUnits="userSpaceOnUse">
            <stop stop-color="#363B39"/>
            <stop offset="1" stop-color="#1B1C1C"/>
        </linearGradient>
        <linearGradient id="paint17_linear_222_9410" x1="62.3463" y1="45.1575" x2="70.3363" y2="45.1575" gradientUnits="userSpaceOnUse">
            <stop stop-color="white"/>
            <stop offset="1" stop-color="#3D3D3D"/>
        </linearGradient>
        <linearGradient id="paint18_linear_222_9410" x1="62.2963" y1="46.2175" x2="70.2963" y2="46.2175" gradientUnits="userSpaceOnUse">
            <stop stop-color="#363B39"/>
            <stop offset="1" stop-color="#1B1C1C"/>
        </linearGradient>
        <linearGradient id="paint19_linear_222_9410" x1="9.32628" y1="42.2375" x2="4.01627" y2="52.5175" gradientUnits="userSpaceOnUse">
            <stop stop-color="#363B39"/>
            <stop offset="1" stop-color="#1B1C1C"/>
        </linearGradient>
        <linearGradient id="paint20_linear_222_9410" x1="7.99625" y1="45.1575" x2="-0.00374889" y2="45.1575" gradientUnits="userSpaceOnUse">
            <stop stop-color="white"/>
            <stop offset="1" stop-color="#3D3D3D"/>
        </linearGradient>
        <linearGradient id="paint21_linear_222_9410" x1="8.03627" y1="46.2175" x2="0.0462721" y2="46.2175" gradientUnits="userSpaceOnUse">
            <stop stop-color="#363B39"/>
            <stop offset="1" stop-color="#1B1C1C"/>
        </linearGradient>
        <linearGradient id="paint22_linear_222_9410" x1="25.8362" y1="136.387" x2="44.7262" y2="136.387" gradientUnits="userSpaceOnUse">
            <stop stop-color="#363B39"/>
            <stop offset="1"/>
        </linearGradient>
        <radialGradient id="paint23_radial_222_9410" cx="0" cy="0" r="1" gradientUnits="userSpaceOnUse" gradientTransform="translate(56.4962 7.34761) scale(5.25 5.25001)">
            <stop stop-color="white"/>
            <stop offset="1" stop-color="#3D3D3D"/>
        </radialGradient>
        <radialGradient id="paint24_radial_222_9410" cx="0" cy="0" r="1" gradientUnits="userSpaceOnUse" gradientTransform="translate(14.1363 7.34761) rotate(180) scale(5.25 5.25001)">
            <stop stop-color="white"/>
            <stop offset="1" stop-color="#3D3D3D"/>
        </radialGradient>
        <linearGradient id="paint25_linear_222_9410" x1="9.04625" y1="100.388" x2="13.8062" y2="100.388" gradientUnits="userSpaceOnUse">
            <stop stop-color="#363B39"/>
            <stop offset="1"/>
        </linearGradient>
        <linearGradient id="paint26_linear_222_9410" x1="8.69623" y1="59.1376" x2="12.9862" y2="59.1376" gradientUnits="userSpaceOnUse">
            <stop stop-color="#363B39"/>
            <stop offset="1"/>
        </linearGradient>
        <linearGradient id="paint27_linear_222_9410" x1="61.6662" y1="100.358" x2="56.9062" y2="100.358" gradientUnits="userSpaceOnUse">
            <stop stop-color="#363B39"/>
            <stop offset="1"/>
        </linearGradient>
        <linearGradient id="paint28_linear_222_9410" x1="62.0162" y1="59.1276" x2="57.7162" y2="59.1276" gradientUnits="userSpaceOnUse">
            <stop stop-color="#363B39"/>
            <stop offset="1"/>
        </linearGradient>
        <linearGradient id="paint29_linear_222_9410" x1="27.8362" y1="19.0576" x2="41.2062" y2="19.0576" gradientUnits="userSpaceOnUse">
            <stop stop-color="#353535"/>
            <stop offset="1" stop-color="#3A3A3A"/>
        </linearGradient>
        <linearGradient id="paint30_linear_222_9410" x1="27.8362" y1="20.5175" x2="41.2062" y2="20.5175" gradientUnits="userSpaceOnUse">
            <stop stop-color="#353535"/>
            <stop offset="1" stop-color="#3A3A3A"/>
        </linearGradient>
        <linearGradient id="paint31_linear_222_9410" x1="27.8362" y1="21.9775" x2="41.2062" y2="21.9775" gradientUnits="userSpaceOnUse">
            <stop stop-color="#353535"/>
            <stop offset="1" stop-color="#3A3A3A"/>
        </linearGradient>
        <linearGradient id="paint32_linear_222_9410" x1="27.8362" y1="23.4475" x2="41.2062" y2="23.4475" gradientUnits="userSpaceOnUse">
            <stop stop-color="#353535"/>
            <stop offset="1" stop-color="#3A3A3A"/>
        </linearGradient>
        <linearGradient id="paint33_linear_222_9410" x1="14.1062" y1="128.037" x2="56.3462" y2="128.037" gradientUnits="userSpaceOnUse">
            <stop stop-color="#363B39"/>
            <stop offset="1" stop-color="#1B1C1C"/>
        </linearGradient>
        <linearGradient id="paint34_linear_222_9410" x1="28.6163" y1="114.237" x2="37.7063" y2="128.177" gradientUnits="userSpaceOnUse">
            <stop stop-color="#5E5E5E"/>
            <stop offset="1"/>
        </linearGradient>
    </defs>
</svg>