<svg width="111" height="50" viewBox="0 0 111 50" fill="none" xmlns="http://www.w3.org/2000/svg">
<g style="mix-blend-mode:multiply" opacity="0.7">
<path d="M13.0575 12.3537L16.8811 12.6479L16.587 13.5302H14.5281L10.4104 12.0596L7.17509 10.0008L2.76327 7.35368L0.998536 3.82422L2.76327 6.47131L3.64563 7.6478L10.7045 10.589L13.0575 12.3537Z" fill="#8C8C8D"/>
<path d="M13.6458 4.1177L18.94 6.47067L19.5283 7.05892L20.4106 4.70595L15.4106 3.52946L9.82227 0L13.6458 4.1177Z" fill="#8C8C8D"/>
<path d="M98.0589 9.99986C97.5883 9.99986 95.7059 11.3724 94.8235 12.0587L94.5294 11.4705L97.7648 9.41162L102.471 10.294C101.196 10.1959 98.5295 9.99986 98.0589 9.99986Z" fill="#8C8C8D"/>
<path d="M111 50.0001C110.958 49.8615 110.911 49.7147 110.86 49.5611C110.683 48.9821 110.406 48.0005 110.118 46.765C109.733 45.1179 107.8 43.7257 106.882 43.2355L100.706 43.5294L94.8233 42.6473L88.9409 40.8826L88.3526 42.0591L93.9409 43.5294L100.412 44.1179C101.49 44.0198 104.176 43.7647 106.294 43.5294C108.282 43.3086 110.079 47.2158 110.86 49.5611C110.919 49.754 110.967 49.9021 111 50.0001Z" fill="#8C8C8D"/>
<path d="M101.588 27.9416C97.8232 29.3534 91.3917 37.9417 88.6466 42.0595H83.3524C80.1171 42.0595 58.9403 46.1773 52.1755 45.0009C45.4107 43.8244 26.5869 29.7065 24.5281 26.1771C22.4692 22.6476 15.9986 15.8828 15.7044 13.5298C15.4103 11.1769 17.4692 9.41196 18.9398 7.64723C20.4104 5.8825 14.8221 4.41207 17.4692 5.00032C20.1162 5.58856 21.5869 3.82383 23.0575 2.94147C24.234 2.23557 34.5282 4.41207 39.5283 5.58856C43.5479 4.41201 52.4696 2.00009 55.9991 1.7648C60.4109 1.47068 74.8229 7.64723 76.5876 9.41196C78.3523 11.1767 90.9996 7.64723 91.8819 7.64723C92.7643 7.64723 95.1173 8.23547 94.8232 11.7649C94.529 15.2944 106.294 26.1769 101.588 27.9416Z" fill="#948F8F"/>
<path d="M101.588 27.9416C97.8232 29.3534 98.9408 30.0007 98.0585 30.2948C97.3722 30.2948 91.2349 15.8828 88.6466 15.8828C85.4112 15.8828 81.2935 19.1182 74.5287 17.9417C71.2626 17.3736 63.7979 4.78199 52.7637 7.35329C40.9444 10.1076 28.5341 9.7669 27.4693 7.94153C25.4104 4.41207 15.9985 15.8828 15.7044 13.5298C15.4103 11.1769 17.4691 9.41196 18.9398 7.64723C20.4104 5.8825 14.8221 4.41207 17.4691 5.00032C20.1162 5.58856 21.5869 3.82383 23.0575 2.94147C24.2339 2.23557 34.5282 4.41207 39.5283 5.58856C43.5479 4.41201 52.4696 2.00009 55.9991 1.7648C60.4109 1.47068 74.8229 7.64723 76.5876 9.41196C78.3523 11.1767 90.9996 7.64723 91.8819 7.64723C92.7643 7.64723 95.1173 8.23547 94.8232 11.7649C94.529 15.2944 106.294 26.1769 101.588 27.9416Z" fill="#746B6B"/>
<path d="M92.6798 29.0758L94.6439 29.9404L94.6653 29.9411C94.7549 29.9441 95.1034 29.954 95.424 29.9453C95.6631 29.9395 95.885 29.9215 95.9762 29.8848C96.205 29.7881 97.3296 28.7546 97.3296 28.7546L93.5232 27.7331L92.6798 29.0758Z" fill="#686359"/>
<path d="M93.7406 27.8047C93.7406 27.8047 92.9384 29.2398 92.7107 29.0886C92.483 28.9374 91.6043 28.1497 91.6043 28.1497L91.6425 26.8811L94.2282 26.2056L93.7406 27.8047Z" fill="#756F65"/>
<path d="M96.4817 26.0152C96.7786 26.3386 97.6231 27.1479 97.5084 27.875L97.3966 28.6034C97.3966 28.6034 94.2678 28.3544 94.0744 27.7992C93.8809 27.244 94.3223 26.4279 94.492 26.3144C94.6491 26.209 95.9174 25.8264 96.3393 26.0114C96.3667 26.0235 96.4605 25.9922 96.4817 26.0152Z" fill="#A59D97"/>
<path d="M96.5186 26.0466C96.5186 26.0466 95.826 25.5336 94.006 25.7916C93.2424 25.8997 91.6566 26.8498 91.6566 26.8498L95.1058 26.641L96.5186 26.0466Z" fill="#918A83"/>
<path d="M96.9265 28.5334L96.9313 28.1845C96.9655 28.1453 96.9946 28.0992 97.0166 28.0493C97.0386 27.9994 97.0529 27.9469 97.0586 27.8952C97.0635 27.8349 97.0584 27.7774 97.0438 27.7262C97.0293 27.6751 97.0055 27.6314 96.9739 27.5978L96.9273 27.3936L96.9143 27.7333L96.9964 27.8019L96.9724 27.984L96.8145 28.2151L96.8223 28.5315L96.9265 28.5334Z" fill="#635C52"/>
<path d="M96.9099 28.5706L96.5586 29.0758L96.4469 29.1252L96.2568 29.4078L96.1937 29.38L95.9448 29.7018L95.8354 29.8736L95.9415 29.6324L96.1526 29.3705L96.0819 29.415L96.0068 29.4842L96.1509 29.3105L96.2467 29.3364L96.4533 29.0381L96.5336 29.018L96.7929 28.5697L96.9099 28.5706Z" fill="#675943"/>
<path d="M95.6549 30.0469C95.6729 29.8938 95.7206 29.7468 95.7959 29.6134C95.8817 29.4836 95.9853 29.3658 96.1043 29.2626L96.0693 29.051L96.1366 28.8214C96.1366 28.8214 95.8411 29.056 95.8117 29.0055C95.7824 28.9549 95.6575 29.1134 95.6575 29.1134L95.4907 29.4921L95.1449 29.734L94.7781 29.9994C94.8785 30.0076 95.2834 30.0379 95.6549 30.0469Z" fill="#675943"/>
<path d="M94.8999 26.5011L94.9596 26.721L94.9065 26.7577L94.9844 26.8943L94.9458 26.982L95.0302 27.1505L94.9153 26.9908L94.9407 26.9486L94.84 26.7707L94.9092 26.6988L94.7805 26.5798L94.8999 26.5011Z" fill="#635C52"/>
<path d="M94.7958 26.5459L94.591 26.4558L94.4888 26.3204L94.28 26.3189L93.7716 26.5967L94.271 26.3529L94.4679 26.3493L94.5482 26.5344L94.6666 26.6293L94.7958 26.5459Z" fill="#675943"/>
<path d="M94.2338 26.7998C94.2338 26.7998 94.0383 27.2438 94.0347 27.4474C94.031 27.6511 94.0833 27.9231 94.0417 27.9753C94.0001 28.0275 93.7935 28.3631 93.7577 28.4285C93.7219 28.494 93.3926 28.9817 93.3018 29.0488C93.211 29.116 93.1574 29.2324 93.0994 29.2604C93.0994 29.2604 93.3311 29.1054 93.4124 28.9788C93.4937 28.8522 93.8181 28.4622 93.8409 28.3893C93.8637 28.3163 94.0222 28.0407 94.0824 28.0324C94.1426 28.0242 94.2088 28.1184 94.2601 28.141C94.3114 28.1636 94.6504 28.3405 94.7573 28.3545C94.8642 28.3686 95.1293 28.4371 95.1293 28.4371L95.4472 28.4789C95.4472 28.4789 95.0067 28.3742 94.908 28.3307C94.8041 28.2809 94.6939 28.2453 94.5797 28.2246C94.4796 28.2073 94.1787 28.0266 94.1377 27.9595C94.0968 27.8924 94.0726 27.5953 94.0726 27.5953C94.0633 27.5077 94.0698 27.4172 94.0915 27.3288C94.1286 27.2023 94.2338 26.7998 94.2338 26.7998Z" fill="#C9C7C3"/>
<path d="M96.5247 26.0327C96.5247 26.0327 96.2393 26.114 96.1857 26.1262C96.1321 26.1384 95.748 26.2667 95.7121 26.2733C95.6763 26.28 95.1909 26.4591 95.1121 26.4469C95.0165 26.4449 94.9216 26.4527 94.8292 26.4704C94.8292 26.4704 95.1658 26.5091 95.1929 26.4825C95.2199 26.4558 95.6686 26.3096 95.6794 26.3059C95.6902 26.3023 95.9722 26.2181 96.008 26.2065C96.0437 26.1949 96.5247 26.0327 96.5247 26.0327Z" fill="#C9C7C3"/>
<path d="M94.3473 26.6045C94.3473 26.6045 94.3798 26.564 94.2898 26.5792C94.1998 26.5944 93.6683 26.6404 93.6683 26.6404C93.6683 26.6404 92.6302 26.7664 92.599 26.769L91.6565 26.8496L93.0539 26.6711L94.2247 26.5274C94.3884 26.497 94.552 26.4763 94.7149 26.4652C94.7515 26.474 94.79 26.4757 94.8291 26.4702C94.8291 26.4702 94.4173 26.4929 94.3473 26.6045Z" fill="#C9C7C3"/>
<path d="M21.6966 13.1667L24.165 14.3894L24.1921 14.3923C24.3026 14.4074 24.7378 14.4639 25.1371 14.4955C25.4351 14.5192 25.7108 14.5283 25.8237 14.499C26.1066 14.4202 27.4851 13.4082 27.4851 13.4082L22.7203 11.7732L21.6966 13.1667Z" fill="#686359"/>
<path d="M22.9906 11.8803C22.9906 11.8803 22.0222 13.3844 21.7355 13.1849C21.4488 12.9855 20.336 11.9907 20.336 11.9907L20.355 10.5747L23.5629 10.1526L22.9906 11.8803Z" fill="#756F65"/>
<path d="M26.0959 10.0968C26.5317 10.5264 27.7602 11.6202 27.6602 12.4332L27.5644 13.2482C27.5644 13.2482 23.2334 12.3534 22.9224 11.678C22.6114 11.0026 23.1544 10.151 23.3788 10.0543C23.5869 9.96369 25.3043 9.77005 25.9001 10.0652C25.943 10.0864 26.0656 10.0667 26.0959 10.0968Z" fill="#A59D97"/>
<path d="M26.4136 10.2704C26.4136 10.2704 25.5397 9.60672 23.2769 9.66054C22.3229 9.68078 20.3713 10.5412 20.3713 10.5412L24.6669 10.7534L26.4136 10.2704Z" fill="#918A83"/>
<path d="M26.716 13.636L26.7143 13.2459C26.7561 13.2064 26.7913 13.1586 26.8176 13.1056C26.8439 13.0525 26.8606 12.9955 26.8666 12.9384C26.8712 12.8715 26.8637 12.8064 26.8444 12.7473C26.8251 12.6881 26.7944 12.6361 26.7544 12.5944L26.6921 12.359L26.6834 12.7377L26.7869 12.8259L26.7614 13.0259L26.5693 13.2651L26.5865 13.6196L26.716 13.636Z" fill="#635C52"/>
<path d="M26.6968 13.6743L26.3669 13.9992L26.2436 14.0102L26.0665 14.1938L25.9866 14.1542L25.7477 14.3546L25.6474 14.4674L25.732 14.2967L25.937 14.136L25.8614 14.1537L25.784 14.1917L25.9249 14.0862L26.0428 14.1319L26.2361 13.9408L26.327 13.9448L26.5574 13.6434L26.6968 13.6743Z" fill="#675943"/>
<path d="M24.9523 14.4078C24.9973 14.2516 25.0625 14.0976 25.1447 13.9536C25.2338 13.8104 25.3338 13.677 25.4421 13.5569L25.4608 13.3495L25.5574 13.1099C25.5574 13.1099 25.2958 13.3838 25.2848 13.3376C25.2739 13.2914 25.1511 13.4663 25.1511 13.4663L24.9517 13.8689L24.6516 14.1582L24.3321 14.4723C24.4016 14.4687 24.6873 14.4461 24.9523 14.4078Z" fill="#675943"/>
<path d="M22.7947 11.085C22.7947 11.085 22.6077 11.4626 22.6258 11.6536C22.6438 11.8446 22.737 12.1117 22.6929 12.1515C22.6487 12.1914 22.4356 12.4659 22.4 12.5194C22.3643 12.573 22.02 12.9645 21.9175 13.0095C21.815 13.0546 21.7635 13.1525 21.6965 13.1668C21.6965 13.1668 21.9595 13.0683 22.0434 12.9666C22.1273 12.8649 22.4762 12.5643 22.4957 12.5004C22.5152 12.4364 22.6762 12.2098 22.748 12.2145C22.8198 12.2192 22.9101 12.3217 22.9746 12.3536C23.039 12.3855 23.4682 12.6219 23.5985 12.658C23.7289 12.6941 24.0569 12.813 24.0569 12.813L24.4454 12.9183C24.4454 12.9183 23.9019 12.7283 23.7779 12.6669C23.6469 12.5985 23.5101 12.5418 23.3701 12.4981C23.247 12.4617 22.864 12.2284 22.8068 12.1573C22.7496 12.0862 22.6879 11.8008 22.6879 11.8008C22.667 11.7161 22.6649 11.632 22.6817 11.5531C22.7109 11.4448 22.7947 11.085 22.7947 11.085Z" fill="#C9C7C3"/>
<path d="M26.4209 10.2556C26.4209 10.2556 26.0191 10.4066 25.947 10.4245C25.8749 10.4425 25.331 10.6736 25.282 10.6855C25.233 10.6973 24.5444 11.0119 24.4409 10.998C24.3129 11.0012 24.1839 11.0199 24.0562 11.0536C24.0562 11.0536 24.5008 11.0918 24.5424 11.0483C24.5841 11.0048 25.2163 10.7451 25.2311 10.7396C25.2459 10.7341 25.6419 10.5826 25.6923 10.562C25.7426 10.5414 26.4209 10.2556 26.4209 10.2556Z" fill="#C9C7C3"/>
<path d="M23.5097 11.0394C23.5097 11.0394 23.5412 11.0145 23.4375 11.0036C23.3338 10.9928 22.7139 10.8925 22.7139 10.8925C22.7139 10.8925 21.5097 10.7261 21.4724 10.7197L20.3712 10.541L21.9912 10.7571L23.3524 10.943C23.5405 10.9607 23.7301 10.9863 23.9204 11.0196C23.9651 11.0363 24.0109 11.0477 24.0562 11.0535C24.0562 11.0535 23.5737 10.9652 23.5097 11.0394Z" fill="#C9C7C3"/>
<path d="M29.0566 11.5614L30.4276 12.2406L30.4425 12.2429C30.5027 12.2527 30.741 12.2912 30.9593 12.3162C31.0854 12.3364 31.2111 12.342 31.3332 12.333C31.4859 12.2997 32.2144 11.8127 32.2144 11.8127L29.584 10.8724L29.0566 11.5614Z" fill="#686359"/>
<path d="M29.9678 11.0464C29.9678 11.0464 29.4306 11.7718 29.193 11.6281C28.9553 11.4843 28.0131 10.7933 28.0131 10.7933L27.8585 10.0037L30.1864 10.1513L29.9678 11.0464Z" fill="#756F65"/>
<path d="M31.649 9.56363C31.8701 9.84378 32.5049 10.5465 32.3655 11.1677L32.2261 11.7889C32.2261 11.7889 29.6985 11.5377 29.576 11.0603C29.4536 10.5828 29.8644 9.8905 30.0098 9.79408C30.1552 9.69765 31.1981 9.39825 31.5289 9.5621C31.5559 9.57329 31.6323 9.54661 31.649 9.56363Z" fill="#A59D97"/>
<path d="M31.9378 9.72077C31.9378 9.72077 31.3669 9.25349 29.7946 9.41409C29.1343 9.48201 27.7365 10.2508 27.7365 10.2508L30.7036 10.1881L31.9378 9.72077Z" fill="#918A83"/>
<path d="M32.2224 11.7957L32.1431 11.5617C32.173 11.5463 32.1952 11.5246 32.2084 11.4981C32.2216 11.4715 32.2253 11.4406 32.2194 11.4076C32.2109 11.3682 32.1916 11.3274 32.1626 11.2877C32.1336 11.2481 32.0955 11.2104 32.0509 11.1771L31.9482 11.024L32.0152 11.2491L32.1282 11.3234L32.1454 11.4386L32.0194 11.543L32.1055 11.7584L32.2224 11.7957Z" fill="#635C52"/>
<path d="M32.2144 11.8127L31.8852 12.1384L31.7614 12.1486L31.5842 12.3328L31.5042 12.2932L31.2647 12.4927L31.165 12.6059L31.2494 12.4356L31.4547 12.2745L31.379 12.2923L31.3016 12.33L31.4426 12.2246L31.5605 12.2704L31.7546 12.0795L31.8457 12.0831L32.0754 11.782L32.2144 11.8127Z" fill="#675943"/>
<path d="M31.1615 12.4765C31.1587 12.4158 31.1742 12.3616 31.2074 12.3166C31.2472 12.2746 31.2983 12.2397 31.3597 12.2128L31.3212 12.1216L31.3415 12.0364C31.3415 12.0364 31.1866 12.0937 31.1651 12.0698C31.1436 12.0459 31.0828 12.0938 31.0828 12.0938L31.0166 12.2275L30.8319 12.2833L30.638 12.3444C30.6985 12.3586 30.941 12.4242 31.1615 12.4765Z" fill="#675943"/>
<path d="M29.8797 9.99961C29.8797 9.99961 29.7397 10.2822 29.7533 10.4252C29.7669 10.5683 29.8327 10.7662 29.8039 10.7993C29.7751 10.8324 29.6129 11.0344 29.5833 11.0768C29.4784 11.2104 29.3574 11.333 29.2218 11.443C29.1451 11.4775 29.1066 11.5503 29.0565 11.5612C29.155 11.5256 29.2429 11.4751 29.3168 11.4117C29.3798 11.3346 29.6402 11.1098 29.6551 11.0621C29.6701 11.0144 29.7901 10.8447 29.8442 10.8483C29.8983 10.8519 29.9658 10.9288 30.0136 10.9525C30.1648 11.0379 30.3207 11.1151 30.4802 11.1837C30.5774 11.2105 30.8238 11.2997 30.8238 11.2997L31.1158 11.3796C31.1158 11.3796 30.7063 11.2386 30.6152 11.1896C30.516 11.1373 30.4123 11.0943 30.306 11.0616C30.2382 11.0509 30.1708 11.0288 30.108 10.9965C30.0451 10.9641 29.9881 10.9223 29.9404 10.8734C29.8927 10.8246 29.8552 10.7698 29.8302 10.7123C29.8053 10.6548 29.7933 10.5957 29.7951 10.5388C29.7794 10.4755 29.7777 10.4126 29.79 10.3535C29.8217 10.2696 29.8797 9.99961 29.8797 9.99961Z" fill="#C9C7C3"/>
<path d="M31.9436 9.70898C31.9436 9.70898 31.677 9.80651 31.6281 9.82159C31.5791 9.83667 31.2183 9.98778 31.1837 9.996C31.1491 10.0042 30.693 10.2134 30.6238 10.2032C30.5384 10.2057 30.4523 10.2183 30.3672 10.241C30.3672 10.241 30.6656 10.262 30.6956 10.2388C30.7257 10.2156 31.1446 10.0375 31.1551 10.0338C31.1657 10.0302 31.4258 9.92816 31.4629 9.91485L31.9436 9.70898Z" fill="#C9C7C3"/>
<path d="M29.9652 10.298C29.9652 10.298 29.991 10.2702 29.9167 10.274C29.8423 10.2778 29.4013 10.2657 29.4013 10.2657C29.4013 10.2657 28.541 10.271 28.5196 10.272L27.7363 10.2505L28.8938 10.2371L29.8667 10.2307C30.002 10.222 30.1372 10.2205 30.272 10.2262C30.3026 10.236 30.3346 10.2409 30.3669 10.2407C30.3669 10.2407 30.0213 10.2203 29.9652 10.298Z" fill="#C9C7C3"/>
<path d="M55.6287 34.0043L57.2816 34.823L57.2998 34.825C57.3738 34.8351 57.6652 34.8729 57.9326 34.8941C58.1321 34.91 58.3168 34.9161 58.3924 34.8964C58.5818 34.8437 59.5049 34.166 59.5049 34.166L56.3142 33.0711L55.6287 34.0043Z" fill="#686359"/>
<path d="M56.4949 33.1422C56.4949 33.1422 55.8464 34.1494 55.6544 34.0158C55.4624 33.8823 54.7172 33.2161 54.7172 33.2161L54.73 32.2679L56.8781 31.9853L56.4949 33.1422Z" fill="#756F65"/>
<path d="M58.5746 31.9478C58.8664 32.2354 59.6891 32.9679 59.6221 33.5123L59.558 34.0581C59.558 34.0581 56.6578 33.4589 56.4496 33.0066C56.2413 32.5543 56.6049 31.984 56.7552 31.9193C56.8945 31.8586 58.0446 31.729 58.4435 31.9266C58.4722 31.9408 58.5544 31.9276 58.5746 31.9478Z" fill="#A59D97"/>
<path d="M58.7873 32.0646C58.7873 32.0646 58.2022 31.6202 56.6869 31.6562C56.0481 31.6698 54.7412 32.2459 54.7412 32.2459L57.6177 32.388L58.7873 32.0646Z" fill="#918A83"/>
<path d="M58.9894 34.3182L58.9883 34.057C59.0163 34.0306 59.0399 33.9985 59.0575 33.963C59.0751 33.9275 59.0862 33.8893 59.0903 33.851C59.0934 33.8062 59.0883 33.7627 59.0754 33.7231C59.0625 33.6835 59.042 33.6486 59.0151 33.6207L58.9734 33.4631L58.9676 33.7166L59.0369 33.7757L59.0198 33.9097L58.8912 34.0698L58.9027 34.3072L58.9894 34.3182Z" fill="#635C52"/>
<path d="M58.9771 34.344L58.7562 34.5616L58.6736 34.5689L58.555 34.6919L58.5015 34.6653L58.3415 34.7995L58.2744 34.8751L58.331 34.7607L58.4683 34.6532L58.4177 34.665L58.3659 34.6904L58.4602 34.6198L58.5391 34.6504L58.6686 34.5224L58.7294 34.5251L58.8837 34.3233L58.9771 34.344Z" fill="#675943"/>
<path d="M57.8088 34.835C57.8389 34.7304 57.8826 34.6273 57.9376 34.5309C57.9973 34.4349 58.0642 34.3456 58.1367 34.2652L58.1493 34.1263L58.2139 33.9659C58.2139 33.9659 58.0388 34.1493 58.0315 34.1183C58.0241 34.0874 57.9419 34.2045 57.9419 34.2045L57.8084 34.4741L57.6074 34.6678L57.3935 34.8782C57.44 34.8757 57.6313 34.8606 57.8088 34.835Z" fill="#675943"/>
<path d="M56.3641 32.61C56.3641 32.61 56.2389 32.8628 56.251 32.9907C56.2631 33.1186 56.3255 33.2974 56.2959 33.3242C56.2664 33.3509 56.1237 33.5346 56.0998 33.5705C56.0759 33.6064 55.8454 33.8686 55.7768 33.8987C55.7081 33.9288 55.6736 33.9944 55.6287 34.004C55.6287 34.004 55.8049 33.9381 55.861 33.8699C55.9172 33.8018 56.1509 33.6006 56.1639 33.5577C56.177 33.5149 56.2848 33.3632 56.3329 33.3663C56.3809 33.3694 56.4414 33.4381 56.4846 33.4595C56.5277 33.4808 56.8151 33.6391 56.9024 33.6633C56.9897 33.6874 57.2093 33.7671 57.2093 33.7671L57.4695 33.8376C57.4695 33.8376 57.1055 33.7103 57.0225 33.6692C56.9348 33.6234 56.8432 33.5855 56.7494 33.5562C56.667 33.5318 56.4105 33.3756 56.3722 33.328C56.3339 33.2804 56.2926 33.0893 56.2926 33.0893C56.2786 33.0326 56.2772 32.9763 56.2884 32.9234C56.308 32.8509 56.3641 32.61 56.3641 32.61Z" fill="#C9C7C3"/>
<path d="M58.7922 32.0547C58.7922 32.0547 58.5232 32.1558 58.4749 32.1678C58.4266 32.1798 58.0624 32.3346 58.0296 32.3425C57.9968 32.3505 57.5357 32.5611 57.4664 32.5518C57.3807 32.554 57.2943 32.5664 57.2088 32.5891C57.2088 32.5891 57.5065 32.6146 57.5344 32.5855C57.5622 32.5563 57.9856 32.3825 57.9955 32.3788C58.0054 32.3751 58.2706 32.2736 58.3043 32.2599C58.338 32.2461 58.7922 32.0547 58.7922 32.0547Z" fill="#C9C7C3"/>
<path d="M56.8428 32.5797C56.8428 32.5797 56.8639 32.563 56.7945 32.5557C56.725 32.5485 56.3099 32.4814 56.3099 32.4814C56.3099 32.4814 55.5035 32.3699 55.4786 32.3656L54.7412 32.246L55.826 32.3906L56.7375 32.5151C56.8635 32.527 56.9904 32.5441 57.1178 32.5665C57.1478 32.5776 57.1785 32.5852 57.2087 32.5891C57.2087 32.5891 56.8857 32.53 56.8428 32.5797Z" fill="#C9C7C3"/>
<path d="M60.5571 32.9284L61.4752 33.3832L61.4851 33.3848C61.5255 33.3913 61.6851 33.4171 61.8312 33.4338C61.9157 33.4473 61.9998 33.4511 62.0816 33.445C62.1838 33.4228 62.6716 33.0967 62.6716 33.0967L60.9103 32.467L60.5571 32.9284Z" fill="#686359"/>
<path d="M61.1673 32.5839C61.1673 32.5839 60.8076 33.0697 60.6484 32.9734C60.4893 32.8772 59.8583 32.4145 59.8583 32.4145L59.7548 31.8857L61.3137 31.9846L61.1673 32.5839Z" fill="#756F65"/>
<path d="M62.2931 31.591C62.4411 31.7786 62.8662 32.2492 62.7729 32.6651L62.6795 33.0811C62.6795 33.0811 60.987 32.9129 60.905 32.5932C60.823 32.2735 61.0981 31.8099 61.1954 31.7453C61.2928 31.6807 61.9911 31.4802 62.2126 31.59C62.2307 31.5974 62.2819 31.5796 62.2931 31.591Z" fill="#A59D97"/>
<path d="M62.4863 31.6959C62.4863 31.6959 62.1041 31.383 61.0512 31.4905C60.6091 31.536 59.673 32.0508 59.673 32.0508L61.6599 32.0088L62.4863 31.6959Z" fill="#918A83"/>
<path d="M62.6771 33.086L62.624 32.9293C62.644 32.919 62.6589 32.9045 62.6677 32.8867C62.6765 32.8689 62.679 32.8483 62.6751 32.8261C62.6694 32.7998 62.6564 32.7724 62.637 32.7459C62.6176 32.7193 62.5921 32.6941 62.5622 32.6718L62.4935 32.5693L62.5383 32.72L62.614 32.7698L62.6255 32.8469L62.5411 32.9168L62.5988 33.0611L62.6771 33.086Z" fill="#635C52"/>
<path d="M62.6716 33.0967L62.4512 33.3148L62.3683 33.3216L62.2496 33.4449L62.1961 33.4184L62.0357 33.552L61.969 33.6278L62.0255 33.5137L62.163 33.4059L62.1123 33.4178L62.0605 33.4431L62.1548 33.3725L62.2338 33.4031L62.3638 33.2753L62.4248 33.2777L62.5786 33.0761L62.6716 33.0967Z" fill="#675943"/>
<path d="M61.9665 33.5413C61.9646 33.5006 61.975 33.4643 61.9972 33.4342C62.0239 33.4061 62.0581 33.3827 62.0992 33.3647L62.0734 33.3036L62.087 33.2465C62.087 33.2465 61.9833 33.2849 61.9689 33.2689C61.9545 33.2529 61.9138 33.285 61.9138 33.285L61.8695 33.3745L61.7458 33.4119L61.616 33.4528C61.6565 33.4623 61.8188 33.5063 61.9665 33.5413Z" fill="#675943"/>
<path d="M61.1084 31.883C61.1084 31.883 61.0147 32.0722 61.0238 32.168C61.0329 32.2638 61.077 32.3963 61.0577 32.4185C61.0384 32.4406 60.9298 32.5759 60.9099 32.6043C60.8397 32.6938 60.7587 32.7759 60.6679 32.8495C60.6165 32.8726 60.5907 32.9213 60.5572 32.9287C60.6231 32.9048 60.682 32.871 60.7315 32.8286C60.7737 32.777 60.948 32.6264 60.958 32.5944C60.968 32.5625 61.0484 32.4489 61.0847 32.4513C61.1209 32.4537 61.1661 32.5052 61.1981 32.5211C61.2993 32.5783 61.4037 32.63 61.5106 32.6758C61.5757 32.6938 61.7407 32.7536 61.7407 32.7536L61.9362 32.807C61.9362 32.807 61.662 32.7126 61.6009 32.6798C61.5345 32.6448 61.465 32.616 61.3939 32.5941C61.3485 32.587 61.3034 32.5721 61.2613 32.5505C61.2192 32.5288 61.181 32.5008 61.1491 32.4681C61.1171 32.4354 61.092 32.3987 61.0753 32.3602C61.0586 32.3217 61.0506 32.2822 61.0518 32.244C61.0413 32.2016 61.0401 32.1595 61.0484 32.12C61.0696 32.0638 61.1084 31.883 61.1084 31.883Z" fill="#C9C7C3"/>
<path d="M62.4902 31.688C62.4902 31.688 62.3117 31.7533 62.2789 31.7634C62.2462 31.7735 62.0046 31.8747 61.9814 31.8802C61.9582 31.8857 61.6528 32.0257 61.6064 32.0189C61.5492 32.0206 61.4916 32.0291 61.4346 32.0442C61.4346 32.0442 61.6345 32.0583 61.6546 32.0428C61.6747 32.0273 61.9552 31.908 61.9623 31.9055C61.9693 31.9031 62.1435 31.8348 62.1684 31.8258L62.4902 31.688Z" fill="#C9C7C3"/>
<path d="M61.1655 32.0828C61.1655 32.0828 61.1828 32.0642 61.133 32.0667C61.0833 32.0692 60.7879 32.0612 60.7879 32.0612C60.7879 32.0612 60.2118 32.0647 60.1975 32.0654L59.673 32.051L60.4481 32.042L61.0996 32.0377C61.1902 32.0319 61.2807 32.0309 61.371 32.0347C61.3915 32.0412 61.4129 32.0445 61.4346 32.0444C61.4346 32.0444 61.2031 32.0307 61.1655 32.0828Z" fill="#C9C7C3"/>
<path d="M85.7055 34.1186L82.3996 31.5338M58.6463 37.354L53.3521 40.2952L42.7638 36.1775L39.2343 37.9422M51.8815 20.0008L39.8657 13.9335L42.1755 10.883L42.7638 9.11829L42.1755 6.47119M36.199 12.4668L36.8813 20.0008L39.2343 23.2361M73.9407 20.8831L76.5878 18.5302L73.9407 15.2948L71.5877 8.23592M84.2349 20.8831L90.7056 17.6478V13.236L93.6468 12.0595M96.3331 10.883H98.5331L102.2 13.9335H103.667M95.5998 25.667L99.2665 20.0008L101.467 18.3336L105.133 19.0669L107.333 10.883" stroke="#4E3A3A" stroke-width="0.2" stroke-linejoin="round"/>
<path d="M23.7322 2.93329L22.9988 2.19995H20.0655L14.1987 7.33335L10.532 4.39998L5.3986 2.93329" stroke="#514E4E" stroke-width="0.2" stroke-linejoin="round"/>
</g>
</svg>
