<svg width="58" height="122" viewBox="0 0 58 122" fill="none" xmlns="http://www.w3.org/2000/svg">
<path d="M56.416 83.8447L56.416 40.2707C56.416 39.8402 56.0154 39.4912 55.5211 39.4912L55.1953 39.4912C54.7011 39.4912 54.3004 39.8402 54.3004 40.2707L54.3004 83.8447C54.3004 84.2752 54.7011 84.6242 55.1953 84.6242L55.5211 84.6242C56.0154 84.6242 56.416 84.2752 56.416 83.8447Z" fill="#808184"/>
<path d="M55.7109 90.2658L55.7109 33.8496L51.4797 33.8496L51.4797 90.2658L55.7109 90.2658Z" fill="#6D6E70"/>
<path d="M2.82043 83.8447L2.82043 40.2707C2.82043 39.8402 2.55334 39.4912 2.22385 39.4912L2.00662 39.4912C1.67713 39.4912 1.41003 39.8402 1.41003 40.2707L1.41003 83.8447C1.41003 84.2752 1.67713 84.6242 2.00661 84.6242L2.22385 84.6242C2.55333 84.6242 2.82043 84.2752 2.82043 83.8447Z" fill="#808184"/>
<path d="M6.34668 90.2658L6.34668 33.8496L2.11547 33.8496L2.11547 90.2658L6.34668 90.2658Z" fill="#6D6E70"/>
<path d="M43.0173 120.59L43.0173 121.442C43.0173 121.59 43.0706 121.732 43.1654 121.837C43.2602 121.941 43.3888 122 43.5228 122L50.9742 122C51.1083 122 51.2369 121.941 51.3317 121.837C51.4265 121.732 51.4797 121.59 51.4797 121.442L51.4797 120.59L43.0173 120.59Z" fill="#BE1E2D"/>
<path d="M49.3641 120.59L49.3641 122L50.9336 122C51.0785 122 51.2174 121.941 51.3198 121.836C51.4222 121.731 51.4797 121.589 51.4797 121.441L51.4797 120.59L49.3641 120.59Z" fill="#F05A28"/>
<path d="M6.34666 120.59L6.34666 121.442C6.34778 121.591 6.40203 121.733 6.49761 121.837C6.59319 121.941 6.72234 122 6.85695 122L14.303 122C14.4372 122 14.566 121.941 14.6609 121.837C14.7558 121.732 14.8091 121.59 14.8091 121.442L14.8091 120.59L6.34666 120.59Z" fill="#BE1E2D"/>
<path d="M6.34667 120.59L6.34667 121.442C6.34788 121.591 6.40631 121.733 6.50923 121.837C6.61215 121.941 6.75123 122 6.89617 122L8.46228 122L8.46228 120.594L6.34667 120.59Z" fill="#F05A28"/>
<path d="M56.3981 87.9361L53.5953 86.74L53.5953 115.653L56.3981 114.453C56.8244 114.272 57.1859 113.979 57.4392 113.611C57.6925 113.243 57.827 112.814 57.8265 112.377L57.8265 90.0125C57.8265 89.5748 57.6918 89.1464 57.4385 88.7783C57.1853 88.4101 56.8241 88.1178 56.3981 87.9361Z" fill="#58595B"/>
<path d="M3.526 86.74L1.19035 87.9361C0.835348 88.1178 0.534392 88.4101 0.323346 88.7783C0.1123 89.1464 5.78118e-05 89.5748 -7.77244e-06 90.0125L-8.75001e-06 112.377C-0.000406928 112.814 0.111648 113.243 0.322749 113.611C0.53385 113.979 0.835062 114.272 1.19035 114.453L3.526 115.653L3.526 86.74Z" fill="#58595B"/>
<path d="M56.416 120.081L56.416 115.456C56.416 114.786 55.8549 114.243 55.1626 114.243L2.66363 114.243C1.9714 114.243 1.41024 114.786 1.41024 115.456L1.41024 120.081C1.41024 120.752 1.9714 121.295 2.66363 121.295L55.1626 121.295C55.8549 121.295 56.416 120.752 56.416 120.081Z" fill="#808184"/>
<path d="M55.7109 119.418L55.7109 111.888C55.7109 111.241 55.1531 110.717 54.465 110.717L3.36148 110.717C2.67338 110.717 2.11557 111.241 2.11557 111.888L2.11557 119.418C2.11557 120.065 2.67338 120.589 3.36148 120.589L54.465 120.589C55.1531 120.589 55.7109 120.065 55.7109 119.418Z" fill="#6D6E70"/>
<path d="M52.5375 1.4104C51.9551 1.4104 51.4797 1.09351 51.4797 0.705206C51.4797 0.316897 51.9551 -7.16982e-08 52.5375 -4.6238e-08C53.12 -2.07779e-08 53.5953 0.316897 53.5953 0.705206C53.5953 1.09351 53.1233 1.4104 52.5375 1.4104Z" fill="#E6E7E8"/>
<path d="M4.9385 1.4104C4.15865 1.4104 3.52587 1.09351 3.52587 0.705206C3.52587 0.316897 4.15865 -9.56417e-08 4.9385 -6.15535e-08C5.71834 -2.74654e-08 6.34668 0.316897 6.34668 0.705206C6.34668 1.09351 5.71389 1.4104 4.9385 1.4104Z" fill="#E6E7E8"/>
<path d="M56.3981 8.22282L53.5953 7.05176L53.5953 35.2598L56.3981 34.0929C56.8241 33.9156 57.1853 33.6304 57.4385 33.2713C57.6918 32.9121 57.8265 32.4942 57.8265 32.0672L57.8265 10.2485C57.827 9.82143 57.6925 9.40325 57.4392 9.044C57.1859 8.68476 56.8245 8.39966 56.3981 8.22282Z" fill="#58595B"/>
<path d="M3.526 7.05176L1.19035 8.22282C0.835064 8.39966 0.533851 8.68476 0.32275 9.044C0.111649 9.40325 -0.000405909 9.82143 -7.76913e-06 10.2485L-8.72285e-06 32.0672C5.68236e-05 32.4942 0.112299 32.9121 0.323345 33.2713C0.534391 33.6304 0.835347 33.9156 1.19035 34.0929L3.526 35.2598L3.526 7.05176Z" fill="#58595B"/>
<path d="M56.416 6.54363L56.416 1.91855C56.416 1.24837 55.8549 0.705078 55.1626 0.705078L2.66363 0.705076C1.9714 0.705076 1.41024 1.24837 1.41024 1.91855L1.41024 6.54363C1.41024 7.21381 1.9714 7.7571 2.66363 7.7571L55.1626 7.7571C55.8549 7.7571 56.416 7.21381 56.416 6.54363Z" fill="#808184"/>
<path d="M55.7109 10.1122L55.7109 2.58142C55.7109 1.93468 55.1531 1.4104 54.465 1.4104L3.36148 1.4104C2.67338 1.4104 2.11557 1.93468 2.11557 2.58142L2.11557 10.1122C2.11557 10.7589 2.67338 11.2832 3.36148 11.2832L54.465 11.2832C55.1531 11.2832 55.7109 10.759 55.7109 10.1122Z" fill="#6D6E70"/>
<path d="M54.3003 115.185L54.3003 35.9975L53.6528 5.94452C53.6101 5.2895 53.3206 4.67523 52.8429 4.22618C52.3651 3.77712 51.7349 3.52687 51.0799 3.52612L6.04091 3.52612C5.38591 3.52686 4.75569 3.77712 4.27794 4.22617C3.80019 4.67523 3.51065 5.2895 3.46798 5.94452L2.82054 35.9975L2.82053 115.206C2.82053 115.728 2.92322 116.245 3.12272 116.728C3.32221 117.21 3.61462 117.648 3.9832 118.017C4.35179 118.386 4.78933 118.679 5.27081 118.878C5.75229 119.077 6.26826 119.18 6.78924 119.179L50.3357 119.179C50.858 119.179 51.375 119.075 51.8571 118.874C52.3392 118.673 52.777 118.378 53.1453 118.007C53.5136 117.636 53.8052 117.196 54.0034 116.711C54.2016 116.227 54.3025 115.709 54.3003 115.185Z" fill="#F1F1F2"/>
<path d="M52.89 8.4624L4.23108 8.4624L4.23108 40.9017L52.89 40.9017L52.89 8.4624Z" fill="#D0D2D3"/>
<path d="M52.1848 112.459L52.1848 86.74L5.64147 86.74L5.64147 112.459C5.64147 113.306 5.9878 114.119 6.60428 114.718C7.22077 115.317 8.05689 115.653 8.92872 115.653L48.9018 115.653C49.3333 115.653 49.7605 115.571 50.1591 115.41C50.5577 115.249 50.9198 115.014 51.2247 114.717C51.5296 114.421 51.7714 114.069 51.9361 113.681C52.1009 113.294 52.1854 112.878 52.1848 112.459Z" fill="#58595B"/>
<path d="M50.7742 111.954L50.7742 88.1501L7.05163 88.1501L7.05163 111.954C7.05163 112.748 7.35668 113.508 7.89981 114.07C8.44293 114.631 9.17971 114.947 9.94835 114.948L47.8733 114.948C48.6426 114.948 49.3805 114.632 49.9245 114.071C50.4685 113.51 50.7742 112.748 50.7742 111.954Z" fill="#6D6E70"/>
<path d="M39.9822 5.58483C40.0468 5.62732 40.1169 5.64644 40.187 5.64075L40.685 5.64075C40.8336 5.64075 40.938 5.58482 40.8899 5.52889L38.9982 3.58397C38.9355 3.53889 38.8663 3.51963 38.7974 3.52805L38.2994 3.52805C38.1467 3.52805 38.0423 3.58397 38.0945 3.63368L39.9822 5.58483Z" fill="#404041"/>
<path d="M37.8681 5.58484C37.9328 5.62732 38.0029 5.64644 38.0731 5.64075L38.5715 5.64075C38.7202 5.64075 38.8247 5.58483 38.7725 5.52892L36.8833 3.5844C36.8194 3.53826 36.7487 3.51898 36.6783 3.52849L36.1799 3.52849C36.0312 3.52849 35.9267 3.5844 35.979 3.6341L37.8681 5.58484Z" fill="#404041"/>
<path d="M35.7533 5.58479C35.8165 5.62741 35.8852 5.64655 35.9541 5.6407L36.4521 5.6407C36.6047 5.6407 36.7091 5.58478 36.6569 5.52887L34.7693 3.5844C34.7054 3.53826 34.6347 3.51898 34.5645 3.52849L34.0664 3.52849C33.9178 3.52849 33.8134 3.5844 33.8616 3.6341L35.7533 5.58479Z" fill="#404041"/>
<path d="M33.1598 5.58483C33.2083 5.62732 33.2608 5.64644 33.3134 5.64075L33.687 5.64075C33.7984 5.64075 33.8767 5.58482 33.8406 5.52889L32.4218 3.58397C32.3748 3.53889 32.3229 3.51963 32.2712 3.52805L31.8977 3.52805C31.7832 3.52805 31.7049 3.58397 31.7441 3.63368L33.1598 5.58483Z" fill="#404041"/>
<path d="M31.2918 5.58484C31.3727 5.62732 31.4603 5.64644 31.5481 5.64075L32.1711 5.64075C32.357 5.64075 32.4876 5.58483 32.4223 5.52892L30.0608 3.5844C29.9809 3.53826 29.8925 3.51898 29.8046 3.52849L29.1816 3.52849C28.9957 3.52849 28.8651 3.5844 28.9304 3.6341L31.2918 5.58484Z" fill="#404041"/>
<path d="M16.4919 5.64075L17.1141 5.64075C17.2017 5.64644 17.2892 5.62732 17.37 5.58484L19.7284 3.6341C19.7936 3.5844 19.6631 3.52849 19.4725 3.52849L18.8502 3.52849C18.7625 3.51898 18.6742 3.53826 18.5943 3.5844L16.236 5.52892C16.1707 5.58483 16.3062 5.64075 16.4919 5.64075Z" fill="#404041"/>
<path d="M19.2053 5.64075L19.5783 5.64075C19.6308 5.64644 19.6833 5.62732 19.7317 5.58483L21.1456 3.63368C21.1847 3.58397 21.1065 3.52805 20.9921 3.52805L20.6191 3.52805C20.5675 3.51963 20.5157 3.53889 20.4687 3.58397L19.0548 5.52889C19.0037 5.58482 19.0939 5.64075 19.2053 5.64075Z" fill="#404041"/>
<path d="M21.3749 5.6407L21.8733 5.6407C21.9422 5.64655 22.011 5.62741 22.0742 5.58479L23.9634 3.6341C24.0157 3.5844 23.9112 3.52849 23.7624 3.52849L23.264 3.52849C23.1937 3.51898 23.123 3.53826 23.059 3.5844L21.1699 5.52887C21.1176 5.58478 21.2221 5.6407 21.3749 5.6407Z" fill="#404041"/>
<path d="M23.4869 5.64075L23.9852 5.64075C24.0554 5.64644 24.1255 5.62732 24.1902 5.58484L26.0789 3.6341C26.1312 3.5844 26.0267 3.52849 25.874 3.52849L25.3757 3.52849C25.3054 3.51898 25.2347 3.53826 25.1707 3.5844L23.282 5.52892C23.2378 5.58483 23.3422 5.64075 23.4869 5.64075Z" fill="#404041"/>
<path d="M25.6019 5.64075L26.1003 5.64075C26.1705 5.64644 26.2407 5.62732 26.3053 5.58483L28.1945 3.63368C28.2468 3.58397 28.1423 3.52805 27.9895 3.52805L27.4911 3.52805C27.4221 3.51963 27.3529 3.53889 27.2901 3.58397L25.401 5.52889C25.3487 5.58482 25.4532 5.64075 25.6019 5.64075Z" fill="#404041"/>
<path d="M29.6182 5.64148L27.5026 5.64148L28.5625 4.93628L29.6182 5.64148Z" fill="#404041"/>
<path d="M15.514 5.64161L15.284 4.79088C15.2394 4.62803 15.1605 4.48755 15.0576 4.38772C14.9546 4.2879 14.8324 4.23336 14.7068 4.2312L6.81174 4.2312C6.52904 4.23902 6.25722 4.38377 6.04342 4.64036C5.82963 4.89694 5.68733 5.24919 5.64121 5.63601L15.514 5.64161Z" fill="#404041"/>
<path d="M14.8091 4.93653L14.8091 4.08372C14.8091 3.93583 14.7557 3.79401 14.6608 3.68944C14.5658 3.58487 14.4371 3.52612 14.3028 3.52612L6.85294 3.52612C6.71866 3.52612 6.5899 3.58487 6.49495 3.68944C6.4 3.79401 6.34666 3.93583 6.34666 4.08372L6.34666 4.93653L14.8091 4.93653Z" fill="#E6E7E8"/>
<path d="M8.46228 4.93653L8.46228 3.52612L6.89277 3.52612C6.74794 3.52612 6.60904 3.58507 6.50663 3.68998C6.40421 3.7949 6.34667 3.93721 6.34667 4.08558L6.34667 4.93653L8.46228 4.93653Z" fill="#F05A28"/>
<path d="M52.1848 5.63601C52.1354 5.24919 51.9829 4.89694 51.7539 4.64035C51.5248 4.38376 51.2336 4.23902 50.9307 4.2312L42.4717 4.2312C42.337 4.23259 42.2057 4.28682 42.0953 4.38674C41.9849 4.48667 41.9005 4.62759 41.8533 4.79089L41.6068 5.64161L52.1848 5.63601Z" fill="#404041"/>
<path d="M51.4797 4.93653L51.4797 4.08372C51.4797 3.93583 51.4264 3.79401 51.3314 3.68944C51.2365 3.58487 51.1077 3.52612 50.9734 3.52612L43.5236 3.52612C43.3893 3.52612 43.2606 3.58487 43.1656 3.68944C43.0707 3.79401 43.0173 3.93583 43.0173 4.08372L43.0173 4.93653L51.4797 4.93653Z" fill="#E6E7E8"/>
<path d="M51.4797 4.93653L51.4797 4.08372C51.4797 3.93583 51.4222 3.79401 51.3198 3.68944C51.2174 3.58487 51.0785 3.52612 50.9336 3.52612L49.3641 3.52612L49.3641 4.93184L51.4797 4.93653Z" fill="#F05A28"/>
<path d="M25.8304 37.1385L26.0925 9.21386L8.58797 9.16748L5.64167 39.4912L25.8304 37.1385Z" fill="#E6E7E8"/>
<path d="M32.0003 37.1385L31.734 9.21386L49.2385 9.16748L52.1848 39.4912L32.0003 37.1385Z" fill="#E6E7E8"/>
<path d="M29.1028 9.60271L31.2934 9.60271L31.6874 10.1563C31.7787 10.2832 31.9038 10.388 32.0516 10.4616C32.1995 10.5352 32.3654 10.5752 32.5348 10.5781L47.5766 10.5781C47.7573 10.578 47.9347 10.5355 48.091 10.4548C48.2472 10.3741 48.3767 10.2582 48.4664 10.1187L48.8223 9.56129L52.212 8.72145L52.8899 8.57833L28.5604 7.75732L4.23094 8.57833L4.76058 8.57833L8.34094 9.56129L8.69685 10.1187C8.78646 10.2582 8.91595 10.3741 9.0722 10.4548C9.22846 10.5355 9.40594 10.578 9.58665 10.5781L24.6284 10.5781C24.7978 10.5752 24.9637 10.5352 25.1116 10.4616C25.2594 10.388 25.3845 10.2832 25.4758 10.1563L25.8699 9.60271L29.1028 9.60271Z" fill="#BBBDBF"/>
<path d="M52.1848 86.9718L52.1848 40.6698C52.1848 38.8506 50.6984 37.3757 48.8648 37.3757L8.96147 37.3757C7.12788 37.3757 5.64147 38.8506 5.64147 40.6698L5.64147 86.9718C5.64147 88.7911 7.12788 90.2659 8.96147 90.2659L48.8648 90.2659C50.6984 90.2659 52.1848 88.7911 52.1848 86.9718Z" fill="#BBBDBF"/>
<path d="M45.1329 84.0468L45.1329 48.5312C45.1329 47.0439 43.9135 45.8381 42.4093 45.8381L15.4173 45.8381C13.9131 45.8381 12.6936 47.0439 12.6936 48.5312L12.6936 84.0468C12.6936 85.5341 13.9131 86.7399 15.4173 86.7399L42.4093 86.7399C43.9135 86.7399 45.1329 85.5341 45.1329 84.0468Z" fill="#E6E7E8"/>
<path d="M11.9795 70.8356L7.94426 71.2508C7.26153 71.3204 6.63035 71.6224 6.17172 72.099C5.7131 72.5756 5.4593 73.1932 5.45897 73.8334L5.45897 83.919L3.67741 83.919L3.52598 39.4912L11.9884 48.3352L11.9795 70.8356Z" fill="#F1F1F2"/>
<path d="M45.8463 70.8356L49.5452 71.2508C50.1707 71.3212 50.7488 71.6235 51.169 72.0999C51.5893 72.5763 51.8222 73.1934 51.8234 73.8334L51.8234 83.919L53.4565 83.919L53.5953 39.4912L45.8381 48.3352L45.8463 70.8356Z" fill="#F1F1F2"/>
<path d="M54.3003 42.0196L54.3003 41.2348L52.7595 41.2348L52.7595 39.4912L52.2949 39.4912L52.2949 41.3875L46.0563 48.4426L46.0563 49.0747L52.2949 42.0196L52.2949 69.2003L45.8379 68.4198L45.8379 69.1155L52.2949 69.8961L52.2949 116.358L52.7595 116.358L52.7595 69.9258L54.2725 69.9258L54.2725 69.2258L52.7595 69.2258L52.7595 42.0196L54.3003 42.0196Z" fill="#D0D2D3"/>
<path d="M54.3003 67.9681L54.3003 61.7758C54.3003 61.5387 54.1629 61.3523 54.0037 61.3523L53.1864 61.3523C53.0201 61.3523 52.8899 61.5471 52.8899 61.7758L52.8899 67.9808C52.8899 68.218 53.0201 68.4043 53.1864 68.4043L54.0037 68.4043C54.1629 68.4001 54.3003 68.2053 54.3003 67.9681Z" fill="#58595B"/>
<path d="M2.82029 42.0196L2.82029 41.2348L4.49378 41.2348L4.49378 39.4912L4.99281 39.4912L4.99281 41.3875L11.7556 48.4426L11.7556 49.0747L4.99281 42.0196L4.99281 69.2003L11.9879 68.4198L11.9879 69.1155L4.99281 69.8961L4.99281 116.358L4.49378 116.358L4.49378 69.9258L2.85471 69.9258L2.85471 69.2258L4.49378 69.2258L4.49378 42.0196L2.82029 42.0196Z" fill="#D0D2D3"/>
<path d="M2.82067 67.9681L2.82068 61.7758C2.82068 61.5387 2.95087 61.3523 3.11722 61.3523L3.93453 61.3523C4.10089 61.3523 4.23108 61.5471 4.23108 61.7758L4.23108 67.9808C4.23108 68.218 4.10089 68.4043 3.93453 68.4043L3.11722 68.4043C2.95087 68.4001 2.82067 68.2053 2.82067 67.9681Z" fill="#58595B"/>
<path d="M48.5663 87.3938L46.8153 86.8953C46.553 86.8203 46.3208 86.6775 46.1477 86.4844C45.9746 86.2914 45.8681 86.0568 45.8415 85.8096C45.8368 85.7675 45.8368 85.725 45.8415 85.6829L45.8415 73.7952C45.8411 73.7318 45.8556 73.6689 45.8839 73.6108C45.9122 73.5527 45.9538 73.5006 46.0059 73.458C46.0581 73.4154 46.1196 73.3831 46.1864 73.3633C46.2533 73.3435 46.324 73.3367 46.394 73.3432L48.8566 73.5798C49.1894 73.6121 49.4972 73.7541 49.721 73.9787C49.9448 74.2032 50.0688 74.4944 50.0692 74.7964L50.0692 86.4095C50.0693 86.573 50.0264 86.7341 49.9442 86.8798C49.8619 87.0254 49.7426 87.1514 49.596 87.2475C49.4494 87.3435 49.2796 87.4068 49.1006 87.4323C48.9217 87.4577 48.7386 87.4445 48.5663 87.3938Z" fill="#6D6E70"/>
<path d="M50.4112 67.6931L46.948 67.4475C46.6452 67.4261 46.3626 67.3039 46.1568 67.1052C45.951 66.9065 45.8372 66.646 45.8381 66.3759L45.8381 51.1281C45.8377 50.5911 45.9727 50.0608 46.2332 49.5763C46.4937 49.0918 46.8731 48.6654 47.3434 48.3285L50.6779 45.9524C50.7481 45.894 50.8365 45.8559 50.9315 45.843C51.0265 45.8301 51.1237 45.8431 51.2103 45.8802C51.2968 45.9173 51.3688 45.9768 51.4166 46.0509C51.4644 46.125 51.4859 46.2103 51.4782 46.2955L51.4782 66.8079C51.4855 66.9314 51.4623 67.0548 51.4102 67.1695C51.3581 67.2842 51.2784 67.3873 51.1768 67.4717C51.0751 67.556 50.9538 67.6196 50.8216 67.6578C50.6893 67.6961 50.5492 67.7082 50.4112 67.6931Z" fill="#6D6E70"/>
<path d="M7.75695 86.412L7.75695 74.7967C7.75641 74.4944 7.85953 74.2026 8.04635 73.9778C8.23317 73.753 8.49041 73.6112 8.76828 73.5798L10.8222 73.3432C10.8806 73.3367 10.9395 73.3435 10.9953 73.3633C11.0511 73.3831 11.1023 73.4154 11.1458 73.458C11.1893 73.5007 11.224 73.5527 11.2476 73.6109C11.2712 73.669 11.2833 73.7318 11.283 73.7953L11.283 85.6853C11.2836 85.9556 11.2044 86.2191 11.0569 86.4373C10.9094 86.6554 10.7013 86.8168 10.4629 86.8979L9.00257 87.3965C8.85939 87.4456 8.70753 87.4575 8.5593 87.4313C8.41107 87.4051 8.27063 87.3415 8.14934 87.2456C8.02806 87.1498 7.92934 87.0243 7.86117 86.8795C7.793 86.7347 7.75729 86.5745 7.75695 86.412Z" fill="#6D6E70"/>
<path d="M7.27687 67.696C7.15863 67.7067 7.03951 67.692 6.92712 67.6532C6.81473 67.6143 6.71155 67.5519 6.62416 67.4702C6.53677 67.3884 6.46709 67.289 6.41958 67.1783C6.37207 67.0676 6.34778 66.948 6.34824 66.8272L6.34824 46.3002C6.34059 46.2141 6.35897 46.1277 6.40093 46.0526C6.44289 45.9774 6.50641 45.9171 6.58299 45.8798C6.65956 45.8424 6.74553 45.8298 6.82936 45.8436C6.91319 45.8573 6.99088 45.8969 7.05201 45.9569L9.96703 48.3346C10.3782 48.6718 10.7099 49.0985 10.9376 49.5834C11.1653 50.0682 11.2833 50.5989 11.283 51.1363L11.283 66.3948C11.2838 66.6651 11.1843 66.9258 11.0044 67.1246C10.8245 67.3235 10.5774 67.4458 10.3127 67.4672L7.27687 67.696Z" fill="#6D6E70"/>
<path d="M11.283 52.8899L6.34654 49.8376L6.34654 48.6587L11.283 51.7071L11.283 52.8899Z" fill="#828282"/>
<path d="M11.283 58.5319L6.34654 55.6622L6.34654 52.1851L11.283 55.051L11.283 58.5319Z" fill="#828282"/>
<path d="M8.37452 64.8784L7.57334 64.3825L6.34654 63.6187L6.34654 62.4269L7.57334 63.1907L7.57334 60.6472L8.37452 61.1431L11.283 62.9548L11.283 64.1466L8.37452 62.3309L8.37452 64.8784Z" fill="#828282"/>
<path d="M11.283 80.3933L7.75695 77.5837L7.75695 76.1621L11.283 78.967L11.283 80.3933Z" fill="#828282"/>
<path d="M11.283 85.3295L7.75695 82.8826L7.75695 78.9827L11.283 81.4337L11.283 85.3295Z" fill="#828282"/>
<path d="M45.8381 53.5955L45.8381 52.4126L51.4797 49.3643L51.4797 50.5431L45.8381 53.5955Z" fill="#828282"/>
<path d="M45.8381 58.5319L45.8381 55.051L51.4797 52.1851L51.4797 55.6659L45.8381 58.5319Z" fill="#828282"/>
<path d="M48.783 62.3309L45.8381 63.9386L45.8381 62.7468L48.783 61.1431L49.6947 60.6472L49.6947 63.1907L51.4797 62.2229L51.4797 63.4107L49.6947 64.3825L48.783 64.8784L48.783 62.3309Z" fill="#828282"/>
<path d="M45.838 80.3933L45.838 78.9718L50.0692 76.1621L50.0692 77.5837L45.838 80.3933Z" fill="#828282"/>
<path d="M45.8415 85.3295C45.8368 85.2878 45.8368 85.2457 45.8415 85.204L45.8415 81.4386L50.0692 78.9827L50.0692 82.8945L45.8415 85.3295Z" fill="#828282"/>
<path d="M43.6096 44.4276L13.4639 44.4276C13.1399 44.4183 12.8241 44.319 12.5487 44.14C12.2733 43.961 12.0481 43.7086 11.8962 43.4087L11.1334 41.8846L9.98906 39.6052C9.90861 39.447 9.86868 39.2697 9.87316 39.0905C9.87764 38.9113 9.92639 38.7364 10.0146 38.5829C10.1029 38.4293 10.2277 38.3024 10.3767 38.2145C10.5258 38.1265 10.694 38.0806 10.8651 38.0811L46.2587 38.0811C46.3644 38.0781 46.4696 38.096 46.5689 38.1339C46.7055 38.1815 46.8306 38.2597 46.9356 38.3631C47.0405 38.4664 47.1227 38.5925 47.1765 38.7324C47.2304 38.8724 47.2545 39.0229 47.2473 39.1736C47.2401 39.3243 47.2017 39.4716 47.1348 39.6052L45.2192 43.4174C45.0642 43.7235 44.8323 43.9793 44.5487 44.1574C44.265 44.3354 43.9403 44.4288 43.6096 44.4276Z" fill="#6D6E70"/>
<path d="M42.8086 44.4276L41.6066 44.4276L45.377 38.0811L46.2465 38.0811C46.3474 38.0781 46.448 38.0959 46.543 38.1338L42.8086 44.4276Z" fill="#828282"/>
<path d="M40.1827 44.4276L35.9651 44.4276L40.2143 38.0808L44.4275 38.0808L40.1827 44.4276Z" fill="#828282"/>
<path d="M32.1609 44.4276L31.0288 44.4276L33.6552 39.7695L31.227 39.7695L31.6997 38.9361L32.18 38.0808L33.3159 38.0808L32.8356 38.9361L35.26 38.9361L34.7873 39.7695L32.1609 44.4276Z" fill="#828282"/>
<path d="M16.7017 44.4276L15.5144 44.4276L19.2675 38.0808L20.4508 38.0808L16.7017 44.4276Z" fill="#828282"/>
<path d="M13.6401 44.4276C13.3124 44.4183 12.993 44.319 12.7144 44.14C12.4358 43.961 12.2081 43.7086 12.0544 43.4086L11.2828 41.8845L13.6698 38.0808L17.6296 38.0808L13.6401 44.4276Z" fill="#828282"/>
<path d="M43.2902 89.5605L14.5854 89.5605C14.5018 89.5614 14.4193 89.5473 14.3463 89.5196C14.2734 89.4918 14.2125 89.4515 14.1699 89.4025C14.1274 89.3536 14.1046 89.2979 14.1039 89.2411C14.1033 89.1843 14.1248 89.1283 14.1662 89.079L14.5854 88.5661C14.6932 88.4398 14.8478 88.3349 15.0339 88.2619C15.22 88.1889 15.431 88.1504 15.6459 88.1501L42.1794 88.1501C42.3944 88.1501 42.6055 88.1885 42.7917 88.2615C42.9779 88.3346 43.1325 88.4396 43.2399 88.5661L43.6591 89.079C43.6989 89.1259 43.7206 89.1788 43.7223 89.2329C43.724 89.287 43.7056 89.3405 43.6689 89.3885C43.6321 89.4365 43.5781 89.4774 43.512 89.5075C43.4458 89.5375 43.3695 89.5558 43.2902 89.5605Z" fill="#6D6E70"/>
<path d="M34.8611 89.5606L33.8495 89.5606L34.9466 88.1501L35.9651 88.1501L34.8611 89.5606Z" fill="#828282"/>
<path d="M32.2224 89.5606L27.5027 89.5606L29.1298 88.1501L33.8495 88.1501L32.2224 89.5606Z" fill="#828282"/>
<path d="M23.7382 89.5606L22.5504 89.5606L22.9983 89.0705L20.4508 89.0705L20.9507 88.5263L21.2946 88.1501L22.4824 88.1501L22.1385 88.5263L24.682 88.5263L24.1901 89.0705L23.7382 89.5606Z" fill="#828282"/>
<path d="M42.0314 88.1504L15.0895 88.1504C14.08 88.1504 13.1118 87.7498 12.3979 87.0367C11.684 86.3236 11.283 85.3565 11.283 84.348L11.283 48.9354C11.283 47.927 11.684 46.9598 12.3979 46.2467C13.1118 45.5337 14.08 45.1331 15.0895 45.1331L42.0314 45.1331C43.0409 45.1331 44.0091 45.5337 44.723 46.2467C45.4368 46.9598 45.8379 47.927 45.8379 48.9354L45.8379 84.3692C45.8323 85.3739 45.4288 86.3357 44.7155 87.0442C44.0023 87.7527 43.0373 88.1504 42.0314 88.1504ZM15.0895 45.5386C14.1921 45.5386 13.3315 45.8947 12.697 46.5286C12.0624 47.1624 11.7059 48.0221 11.7059 48.9185L11.7059 84.3523C11.7059 85.2487 12.0624 86.1083 12.697 86.7422C13.3315 87.376 14.1921 87.7321 15.0895 87.7321L42.0314 87.7321C42.9287 87.7321 43.7894 87.376 44.4239 86.7422C45.0585 86.1083 45.4149 85.2487 45.4149 84.3523L45.4149 48.9354C45.4149 48.039 45.0585 47.1793 44.4239 46.5455C43.7894 45.9116 42.9287 45.5555 42.0314 45.5555L15.0895 45.5386Z" fill="#E6E7E8"/>
<path d="M44.4275 112.41L44.4275 91.394C44.4275 91.1605 44.1942 90.9712 43.9065 90.9712L42.1277 90.9712C41.8399 90.9712 41.6067 91.1605 41.6067 91.394L41.6067 112.41C41.6067 112.643 41.8399 112.832 42.1277 112.832L43.9065 112.832C44.1942 112.832 44.4275 112.643 44.4275 112.41Z" fill="#58595B"/>
<path d="M40.1962 112.41L40.1962 91.394C40.1962 91.1605 40.0795 90.9712 39.9357 90.9712L39.0463 90.9712C38.9024 90.9712 38.7858 91.1605 38.7858 91.394L38.7858 112.41C38.7858 112.643 38.9024 112.832 39.0463 112.832L39.9357 112.832C40.0795 112.832 40.1962 112.643 40.1962 112.41Z" fill="#58595B"/>
<path d="M15.514 112.41L15.514 91.394C15.514 91.1605 15.3391 90.9712 15.1233 90.9712L13.7892 90.9712C13.5734 90.9712 13.3984 91.1605 13.3984 91.394L13.3984 112.41C13.3984 112.643 13.5734 112.832 13.7892 112.832L15.1233 112.832C15.3391 112.832 15.514 112.643 15.514 112.41Z" fill="#58595B"/>
<path d="M19.0403 112.41L19.0403 91.394C19.0403 91.1605 18.8653 90.9712 18.6495 90.9712L17.3154 90.9712C17.0996 90.9712 16.9247 91.1605 16.9247 91.394L16.9247 112.41C16.9247 112.643 17.0996 112.832 17.3154 112.832L18.6495 112.832C18.8653 112.832 19.0403 112.643 19.0403 112.41Z" fill="#58595B"/>
<path d="M22.5664 112.41L22.5664 91.394C22.5664 91.1605 22.3915 90.9712 22.1756 90.9712L20.8416 90.9712C20.6257 90.9712 20.4508 91.1605 20.4508 91.394L20.4508 112.41C20.4508 112.643 20.6257 112.832 20.8416 112.832L22.1756 112.832C22.3915 112.832 22.5664 112.643 22.5664 112.41Z" fill="#58595B"/>
<path d="M26.7975 112.41L26.7975 91.394C26.7975 91.1605 26.5642 90.9712 26.2765 90.9712L24.4977 90.9712C24.2099 90.9712 23.9767 91.1605 23.9767 91.394L23.9767 112.41C23.9767 112.643 24.2099 112.832 24.4977 112.832L26.2765 112.832C26.5642 112.832 26.7975 112.643 26.7975 112.41Z" fill="#58595B"/>
<path d="M37.3756 112.41L37.3756 91.394C37.3756 91.1605 37.1423 90.9712 36.8546 90.9712L35.0758 90.9712C34.7881 90.9712 34.5548 91.1605 34.5548 91.394L34.5548 112.41C34.5548 112.643 34.7881 112.832 35.0758 112.832L36.8546 112.832C37.1423 112.832 37.3756 112.643 37.3756 112.41Z" fill="#58595B"/>
<path d="M33.8495 112.41L33.8495 91.394C33.8495 91.1605 33.6162 90.9712 33.3285 90.9712L31.5497 90.9712C31.2619 90.9712 31.0287 91.1605 31.0287 91.394L31.0287 112.41C31.0287 112.643 31.2619 112.832 31.5497 112.832L33.3285 112.832C33.6162 112.832 33.8495 112.643 33.8495 112.41Z" fill="#58595B"/>
<path d="M29.6182 112.41L29.6182 91.394C29.6182 91.1605 29.4432 90.9712 29.2274 90.9712L27.8933 90.9712C27.6775 90.9712 27.5026 91.1605 27.5026 91.394L27.5026 112.41C27.5026 112.643 27.6775 112.832 27.8933 112.832L29.2274 112.832C29.4432 112.832 29.6182 112.643 29.6182 112.41Z" fill="#58595B"/>
<path d="M49.3641 112.41L49.3641 91.394C49.3641 91.1605 49.1309 90.9712 48.8431 90.9712L47.0643 90.9712C46.7766 90.9712 46.5433 91.1605 46.5433 91.394L46.5433 112.41C46.5433 112.643 46.7766 112.832 47.0643 112.832L48.8431 112.832C49.1309 112.832 49.3641 112.643 49.3641 112.41Z" fill="#58595B"/>
<path d="M10.5778 112.41L10.5778 91.394C10.5778 91.1605 10.4028 90.9712 10.187 90.9712L8.85291 90.9712C8.6371 90.9712 8.46215 91.1605 8.46215 91.394L8.46215 112.41C8.46215 112.643 8.6371 112.832 8.85291 112.832L10.187 112.832C10.4028 112.832 10.5778 112.643 10.5778 112.41Z" fill="#58595B"/>
<path d="M16.2197 100.627L16.2197 100.856L16.2197 101.081L16.2197 105.304L18.0601 105.304C20.2396 107.708 24.123 109.306 28.5566 109.306C32.9901 109.306 36.8735 107.708 39.0531 105.304L40.9017 105.304L40.9017 100.558C40.6701 96.028 35.2358 92.3813 28.5648 92.3813C21.8939 92.3813 16.4595 96.0075 16.2279 100.558L16.2279 100.627L16.2197 100.627Z" fill="#231F20"/>
<path d="M12.1701 106.475C12.3512 106.439 12.5137 106.341 12.6291 106.199C12.7445 106.057 12.8057 105.879 12.8019 105.697L12.8019 100.59L44.3189 100.59L44.3189 105.697C44.3152 105.879 44.3763 106.057 44.4918 106.199C44.6072 106.341 44.7696 106.439 44.9508 106.475C45.0597 106.493 45.1713 106.487 45.2778 106.459C45.3844 106.43 45.4832 106.379 45.5676 106.309C45.652 106.239 45.7199 106.151 45.7666 106.053C45.8132 105.954 45.8376 105.847 45.8379 105.739L45.8379 88.4341C45.8379 88.3588 45.8075 88.2866 45.7533 88.2333C45.6992 88.1801 45.6257 88.1501 45.5492 88.1501L44.6077 88.1501C44.5311 88.1501 44.4577 88.1801 44.4035 88.2333C44.3494 88.2866 44.3189 88.3588 44.3189 88.4341L44.3189 99.1336L12.8019 99.1336L12.8019 88.4341C12.8019 88.3588 12.7715 88.2866 12.7174 88.2333C12.6632 88.1801 12.5898 88.1501 12.5132 88.1501L11.5717 88.1501C11.4951 88.1501 11.4217 88.1801 11.3676 88.2333C11.3134 88.2866 11.283 88.3588 11.283 88.4341L11.283 105.739C11.2833 105.847 11.3076 105.954 11.3543 106.053C11.401 106.151 11.4688 106.239 11.5532 106.309C11.6376 106.379 11.7365 106.43 11.843 106.459C11.9495 106.487 12.0611 106.493 12.1701 106.475Z" fill="#231F20"/>
<path d="M16.2197 105.075C16.2197 109.749 21.7449 113.537 28.5607 113.537C35.3765 113.537 40.9017 109.749 40.9017 105.075C40.9017 100.401 35.3765 96.6125 28.5607 96.6125C21.7449 96.6125 16.2197 100.401 16.2197 105.075Z" fill="#404041"/>
<path d="M21.8612 105.427C21.8612 107.959 24.8606 110.011 28.5606 110.011C32.2606 110.011 35.26 107.959 35.26 105.427C35.26 102.896 32.2606 100.844 28.5606 100.844C24.8606 100.844 21.8612 102.896 21.8612 105.427Z" fill="#808184"/>
<path d="M27.5029 105.428C27.5029 104.842 28.1354 104.37 28.9133 104.37C29.6913 104.37 30.3237 104.842 30.3237 105.428C30.3237 106.013 29.6913 106.485 28.9133 106.485C28.1354 106.485 27.5029 106.013 27.5029 105.428Z" fill="#404041"/>
<path d="M27.5026 107.899C27.5026 107.504 27.9774 107.191 28.5604 107.191C29.1434 107.191 29.6182 107.504 29.6182 107.899C29.6182 108.294 29.1434 108.601 28.5604 108.601C27.9774 108.601 27.5026 108.288 27.5026 107.899Z" fill="#404041"/>
<path d="M27.5026 102.257C27.5026 101.863 27.9774 101.549 28.5604 101.549C29.1434 101.549 29.6182 101.863 29.6182 102.257C29.6182 102.652 29.1434 102.96 28.5604 102.96C27.9774 102.96 27.5026 102.646 27.5026 102.257Z" fill="#404041"/>
<path d="M24.6819 105.075C25.0826 105.075 25.3871 105.234 25.3871 105.428C25.3871 105.621 25.0705 105.78 24.6819 105.78C24.2932 105.78 23.9767 105.621 23.9767 105.428C23.9767 105.234 24.2932 105.075 24.6819 105.075Z" fill="#404041"/>
<path d="M32.4391 105.428C32.4391 105.622 32.7548 105.78 33.1443 105.78C33.5338 105.78 33.8495 105.622 33.8495 105.428C33.8495 105.233 33.5338 105.075 33.1443 105.075C32.7548 105.075 32.4391 105.233 32.4391 105.428Z" fill="#404041"/>
<path d="M25.3871 107.191C25.3871 107.58 25.7028 107.896 26.0923 107.896C26.4818 107.896 26.7975 107.58 26.7975 107.191C26.7975 106.801 26.4818 106.485 26.0923 106.485C25.7028 106.485 25.3871 106.801 25.3871 107.191Z" fill="#404041"/>
<path d="M31.228 103.064C31.3795 102.996 31.555 102.959 31.7341 102.959C31.9133 102.959 32.0888 102.996 32.2402 103.064C32.3009 103.089 32.3512 103.126 32.3861 103.169C32.421 103.213 32.4393 103.262 32.4393 103.312C32.4393 103.362 32.421 103.411 32.3861 103.455C32.3512 103.499 32.3009 103.535 32.2402 103.561C32.0888 103.629 31.9133 103.665 31.7341 103.665C31.555 103.665 31.3795 103.629 31.228 103.561C31.1673 103.535 31.1171 103.499 31.0822 103.455C31.0473 103.411 31.0289 103.362 31.0289 103.312C31.0289 103.262 31.0473 103.213 31.0822 103.169C31.1171 103.126 31.1673 103.089 31.228 103.064Z" fill="#404041"/>
<path d="M26.5978 103.063C26.6587 103.089 26.7091 103.125 26.7441 103.169C26.7791 103.213 26.7975 103.262 26.7975 103.312C26.7975 103.362 26.7791 103.412 26.7441 103.455C26.7091 103.499 26.6587 103.535 26.5978 103.561C26.4466 103.629 26.2713 103.665 26.0923 103.665C25.9133 103.665 25.738 103.629 25.5867 103.561C25.5259 103.535 25.4755 103.499 25.4405 103.455C25.4055 103.412 25.3871 103.362 25.3871 103.312C25.3871 103.262 25.4055 103.213 25.4405 103.169C25.4755 103.125 25.5259 103.089 25.5867 103.063C25.738 102.995 25.9133 102.959 26.0923 102.959C26.2713 102.959 26.4466 102.995 26.5978 103.063Z" fill="#404041"/>
<path d="M31.0289 107.191C31.0289 107.58 31.3447 107.896 31.7341 107.896C32.1236 107.896 32.4393 107.58 32.4393 107.191C32.4393 106.801 32.1236 106.485 31.7341 106.485C31.3447 106.485 31.0289 106.801 31.0289 107.191Z" fill="#404041"/>
<path d="M37.2396 79.983C37.3011 79.6667 37.3661 79.3512 37.4225 79.0349C37.464 78.8053 37.4935 78.573 37.5282 78.3417C37.2968 78.3746 37.0645 78.3997 36.8349 78.443C36.4987 78.5063 36.165 78.5817 35.8305 78.6519C35.8097 78.5947 35.7889 78.5366 35.769 78.4786C35.9752 78.3408 36.1763 78.1952 36.3877 78.0661C37.7015 77.2662 37.7474 76.7601 36.4163 75.9646C33.6007 74.2808 30.6101 73.4514 27.3638 74.5927C25.0985 75.3883 22.7934 75.4966 20.4458 75.2193C19.4256 75.0983 18.4438 74.7577 17.5678 74.221C16.3806 73.5034 16.2176 71.6324 17.4603 70.7996C17.6865 70.6571 17.9478 70.58 18.2151 70.5769C22.0854 70.5631 25.9556 70.5691 29.8276 70.5665C30.903 70.5665 31.9585 70.4313 32.9699 70.0466C35.3539 69.1384 36.5819 66.5264 35.6797 64.2889C35.3218 63.4006 34.4206 62.4474 33.4924 62.0357C33.6493 62.209 33.7368 62.3087 33.8269 62.4058C34.8279 63.4933 35.2447 64.7586 34.9613 66.2188C34.6909 67.6166 33.8243 68.5421 32.501 68.9806C31.7525 69.2411 30.9689 69.3871 30.1768 69.4139C26.9279 69.4616 23.6773 69.4347 20.4293 69.4347C20.3747 69.4347 20.3192 69.4252 20.2205 69.4165C20.8037 68.6149 21.6018 68.3012 22.5109 68.1712C23.595 68.017 24.634 68.1253 25.6393 68.5863C26.034 68.7637 26.4465 68.8982 26.8699 68.9876C28.207 69.2762 30.0971 68.2466 30.4957 67.0065C30.5613 66.7797 30.5358 66.5363 30.4247 66.328C30.0104 65.672 29.065 65.3747 28.3197 65.5948C27.9973 65.691 27.85 65.8548 28.0043 66.1954C28.0751 66.3518 28.0939 66.5267 28.058 66.6946L27.3508 66.1434L26.8976 66.8055L26.7702 66.7665C26.7384 66.6237 26.7158 66.4789 26.7026 66.3332C26.6896 65.9363 26.4721 65.8132 26.1038 65.8418C25.8357 65.8666 25.5653 65.8354 25.31 65.75C25.4957 65.687 25.6774 65.6129 25.8542 65.5281C25.9409 65.4796 26.0735 65.3505 26.0579 65.2915C26.0364 65.2356 26.0037 65.1846 25.9618 65.1417C25.92 65.0987 25.8698 65.0648 25.8144 65.042C25.6714 64.9865 25.5032 64.9969 25.349 64.9657C25.1947 64.9345 25.0595 64.8903 24.829 64.8279C25.3663 64.3374 26.0423 64.6191 26.6437 64.2438L25.6419 63.762C26.1047 63.5722 26.5085 63.6207 26.8551 63.885C27.3205 64.2369 27.7729 64.2629 28.3102 64.0358C28.6874 63.8659 29.1 63.789 29.5131 63.8115C29.9263 63.8339 30.328 63.9552 30.6846 64.165C30.7982 64.2282 30.9143 64.2871 31.0313 64.3383C31.4836 64.5385 31.6847 64.4648 31.8979 64.0263C32.3546 63.0964 32.1518 62.4924 31.2289 61.9924C30.4091 61.5487 29.5139 61.4083 28.6048 61.3312C24.4261 60.9733 20.2369 61.0625 16.0512 61.0426C15.4074 61.0426 14.7643 61.0426 14 61.0426C14.4489 60.6708 14.7921 60.3692 15.1569 60.0963C15.2801 60.0245 15.422 59.9916 15.5642 60.0018C19.4769 60.0157 23.3913 60.0018 27.3032 60.0685C29.3717 60.1058 31.4186 60.3892 33.3581 61.1847C35.1225 61.9083 36.4172 63.1155 37.1616 64.8747C37.3115 65.2291 37.4467 65.3305 37.8246 65.1269C38.5447 64.7386 39.2978 64.756 40.0222 65.1433C40.276 65.2797 40.5193 65.4347 40.7502 65.607C41.6705 66.2942 42.6247 66.8271 43.8613 66.4294L43.2339 66.9303L44.513 67.2102V67.2968L43.3318 67.5239L43.8821 68.5733L43.785 68.6825L42.6437 68.27C42.5744 68.6115 42.512 68.92 42.4505 69.2285L42.3352 69.2424C42.2546 69.069 42.1619 68.8957 42.0969 68.7224C41.9998 68.4529 41.8542 68.387 41.6142 68.5638C41.3984 68.7233 41.1809 68.8758 40.959 69.0318L40.8533 68.9503C40.9998 68.7042 41.122 68.439 41.3005 68.2172C41.5362 67.9243 41.4738 67.7267 41.2086 67.4962C40.5803 66.9519 38.9225 66.8497 38.2847 67.3887C38.1114 67.5326 38.01 67.8662 38.0299 68.0993C38.1624 69.6126 37.8333 71.1305 37.0862 72.4531C36.893 72.8041 36.9814 73.0173 37.2873 73.2019C37.4449 73.3031 37.6078 73.3959 37.7752 73.48C38.3307 73.74 38.6695 74.1733 38.8948 74.7314C39.3142 75.7713 39.6175 75.916 40.7511 75.8129C41.2034 75.7722 41.6671 75.8467 42.1264 75.8684L42.1315 76.0183L40.6427 76.4837L42.1368 77.2801L42.0978 77.4447H40.3126C40.3429 77.5833 40.3826 77.7197 40.4313 77.8529C40.5431 78.086 40.6913 78.3027 40.7779 78.5462C40.8533 78.7585 40.8646 78.9942 40.8975 79.2204C40.6887 79.158 40.4642 79.1242 40.2727 79.0254C40.0318 78.9006 39.8221 78.7178 39.5933 78.567C39.0612 78.2203 38.9511 78.2455 38.5534 78.7152C38.1833 79.1485 37.7899 79.5636 37.4069 79.9865L37.2396 79.983Z" fill="#004974"/>
</svg>
