<svg width="65" height="148" viewBox="0 0 78 177" fill="none" xmlns="http://www.w3.org/2000/svg">
<path d="M8.08736 22.84C7.54736 20.1 8.96737 11.64 8.96737 11.64C8.96737 3.64 22.1073 0 29.3573 0H48.0874C55.3374 0 68.4774 3.65 68.4774 11.64C68.4774 11.64 69.8873 20.09 69.3573 22.84C68.8274 25.59 68.2674 40.26 68.2674 40.26H9.14736C9.14736 40.26 8.59736 25.62 8.08736 22.84Z" fill="url(#paint0_radial_222_14611)"/>
<path d="M47.8872 0H29.4772C22.3472 0 8.93719 3.54 8.93719 11.28V12.35C8.87941 11.2143 9.087 10.0808 9.54351 9.03936C10 7.99789 10.6929 7.0771 11.5672 6.35C14.6272 3.18 20.0872 1.68 26.3072 1.68H51.0872C57.3172 1.68 62.7672 3.19 65.8272 6.35C66.7015 7.0771 67.3943 7.99789 67.8509 9.03936C68.3074 10.0808 68.515 11.2143 68.4572 12.35V11.28C68.4272 3.54 55.0172 0 47.8872 0Z" fill="url(#paint1_linear_222_14611)"/>
<path d="M65.5174 12.9801C65.3824 12.9561 65.2606 12.8843 65.1743 12.7777C65.088 12.6712 65.0429 12.5371 65.0474 12.4001C65.028 11.2851 64.5971 10.2166 63.8374 9.40009C63.7422 9.303 63.6848 9.17504 63.6756 9.03934C63.6664 8.90363 63.7061 8.76911 63.7875 8.66009C63.8404 8.60828 63.9038 8.56838 63.9734 8.54305C64.043 8.51773 64.1172 8.50757 64.1911 8.51325C64.2649 8.51893 64.3367 8.54032 64.4016 8.57599C64.4665 8.61167 64.5231 8.6608 64.5675 8.72009C65.5118 9.71654 66.0534 11.0276 66.0874 12.4001C66.0944 12.4738 66.0859 12.5481 66.0624 12.6183C66.0389 12.6885 66.001 12.753 65.9511 12.8076C65.9011 12.8623 65.8403 12.9058 65.7725 12.9355C65.7047 12.9652 65.6315 12.9804 65.5574 12.9801H65.5174Z" fill="#F7941E"/>
<path d="M11.8673 12.9799C12.0023 12.956 12.1242 12.8841 12.2105 12.7776C12.2968 12.6711 12.3418 12.537 12.3373 12.3999C12.3568 11.2868 12.7838 10.2195 13.5373 9.39994C13.6323 9.30308 13.6903 9.176 13.7012 9.0408C13.7122 8.9056 13.6754 8.77084 13.5973 8.65994C13.5428 8.60936 13.4784 8.57059 13.4082 8.54606C13.3379 8.52154 13.2634 8.51179 13.1892 8.51742C13.1151 8.52305 13.0428 8.54395 12.9771 8.5788C12.9114 8.61365 12.8536 8.6617 12.8073 8.71994C11.8735 9.73106 11.3494 11.0536 11.3373 12.4299C11.3303 12.5036 11.3389 12.578 11.3624 12.6481C11.3858 12.7183 11.4238 12.7828 11.4737 12.8375C11.5236 12.8921 11.5845 12.9357 11.6523 12.9654C11.7201 12.9951 11.7933 13.0103 11.8673 13.0099V12.9799Z" fill="#F7941E"/>
<path d="M57.0875 3.83008C57.0875 3.83008 56.6975 3.45008 57.3675 3.39008C58.5153 3.35173 59.6562 3.58329 60.6983 4.06612C61.7404 4.54895 62.6546 5.26959 63.3675 6.17008C65.2375 8.82008 63.8375 8.90008 63.8375 8.90008L57.0875 3.83008Z" fill="url(#paint2_linear_222_14611)"/>
<path d="M20.3571 3.82992C20.3571 3.82992 20.7471 3.44992 20.0871 3.38992C18.9394 3.35236 17.7988 3.58428 16.7568 4.06705C15.7149 4.54982 14.8005 5.27003 14.0871 6.16992C12.2271 8.81992 13.6171 8.89992 13.6171 8.89992L20.3571 3.82992Z" fill="url(#paint3_linear_222_14611)"/>
<path d="M8.88724 21.97C8.65724 19.24 12.1873 11.2799 12.1873 11.2799C14.5373 3.77995 22.2872 3.19995 26.3072 3.19995H51.0872C55.0872 3.19995 62.8572 3.77995 65.2072 11.2799C65.2072 11.2799 68.6873 19.23 68.5073 21.97C68.3273 24.71 66.2372 32.88 66.2372 32.88L13.2372 32.4799C13.2372 32.4799 9.08724 24.8 8.88724 21.97Z" fill="url(#paint4_radial_222_14611)"/>
<path d="M56.2072 21.8201C50.7272 28.0901 26.6372 28.0901 21.2072 21.8201C18.5572 18.8201 27.7972 3.82007 27.7972 3.82007H49.6472C49.6472 3.82007 58.8472 18.7801 56.2072 21.8201Z" fill="url(#paint5_linear_222_14611)"/>
<path d="M11.8875 59.61H65.3975C65.3975 59.61 68.1975 57.52 68.2075 56.5C68.2075 49.85 68.2075 44.17 68.2075 40.26C68.0617 37.6876 67.3805 35.174 66.2075 32.88C66.2075 32.88 60.9775 29.31 38.6775 29.42C23.6775 29.35 15.1774 31.74 11.4474 33.28C9.66745 34.02 9.14746 37.45 9.14746 40.28C9.14746 45.2 9.14746 52.39 9.14746 56.52C9.16746 58.81 11.8875 59.61 11.8875 59.61Z" fill="url(#paint6_radial_222_14611)"/>
<path d="M14.6074 59.6099C13.2923 55.1892 12.6715 50.5911 12.7674 45.9799C12.9228 41.5755 13.5327 37.199 14.5875 32.9199C16.2975 32.2999 27.4875 30.1499 38.6775 30.1499C49.8675 30.1499 61.0875 32.0899 62.7775 32.6799C63.8687 37.0198 64.479 41.4665 64.5975 45.9399C64.5975 54.8499 62.7674 59.5699 62.7674 59.5699L14.6074 59.6099Z" fill="url(#paint7_linear_222_14611)"/>
<path d="M66.0873 23.99C66.0873 23.99 69.2673 24.67 69.2773 27.31C69.2873 29.95 65.8973 35.22 65.8973 31.84C65.8973 28.46 65.7373 25 66.0873 23.99Z" fill="url(#paint8_linear_222_14611)"/>
<path d="M77.0872 29.8099C76.3872 28.8999 69.9471 26.9699 69.9471 26.9699C68.6871 26.5699 68.2472 27.6499 68.0972 28.5699L77.3271 31.2799C77.4076 31.0336 77.4279 30.7715 77.3861 30.5157C77.3443 30.2599 77.2418 30.0179 77.0872 29.8099Z" fill="url(#paint9_linear_222_14611)"/>
<path d="M68.0872 28.5701C68.0326 28.9441 68.0091 29.3221 68.0172 29.7001L77.0872 31.8801C77.1929 31.6913 77.2736 31.4896 77.3272 31.2801L68.0872 28.5701Z" fill="url(#paint10_linear_222_14611)"/>
<path d="M11.3174 23.99C11.3174 23.99 8.0874 24.68 8.0874 27.31C8.0874 29.94 11.4774 35.22 11.4674 31.84C11.4574 28.46 11.6274 25 11.3174 23.99Z" fill="url(#paint11_linear_222_14611)"/>
<path d="M0.297369 29.8099C1.00737 28.8999 7.43738 26.9699 7.43738 26.9699C8.70738 26.5699 9.14739 27.6499 9.28739 28.5699L0.087378 31.2799C0.00427716 31.0357 -0.0200038 30.7752 0.0164857 30.5198C0.0529751 30.2644 0.149197 30.0212 0.297369 29.8099Z" fill="url(#paint12_linear_222_14611)"/>
<path d="M9.28738 28.5701C9.34809 28.9435 9.37486 29.3218 9.36737 29.7001L0.297363 31.8801C0.197597 31.6897 0.120427 31.4883 0.0673828 31.2801L9.28738 28.5701Z" fill="url(#paint13_linear_222_14611)"/>
<path d="M49.6073 3.77999H27.7573L29.0973 2.98999H48.2673L49.6073 3.77999Z" fill="url(#paint14_linear_222_14611)"/>
<path d="M65.4875 56.5L68.2075 53.68V53.28C68.2075 48.02 68.2075 43.52 68.2075 40.28C68.2075 40.28 68.2675 38.69 68.3775 36.46L65.4775 39.11C66.2936 44.8777 66.2969 50.7313 65.4875 56.5Z" fill="url(#paint15_linear_222_14611)"/>
<path style="mix-blend-mode:screen" d="M68.2075 53.6799C68.2075 48.5899 68.2075 45.6799 68.2075 42.8799C67.4775 43.4299 66.7375 44.0099 66.0075 44.6099C66.22 48.581 66.0425 52.5634 65.4775 56.4999L68.2075 53.6799Z" fill="url(#paint16_linear_222_14611)"/>
<path d="M11.8873 56.5C11.0667 50.7257 11.0667 44.8644 11.8873 39.09L9.00732 36.78C9.09732 38.83 9.14731 40.26 9.14731 40.26C9.14731 44.19 9.14731 49.55 9.14731 53.66L11.8873 56.5Z" fill="url(#paint17_linear_222_14611)"/>
<path style="mix-blend-mode:screen" d="M9.16748 53.6799C9.16748 48.5899 9.16748 45.6799 9.16748 42.8799C9.88748 43.4299 10.6375 44.0099 11.3675 44.6099C11.1449 48.581 11.3225 52.5644 11.8975 56.4999L9.16748 53.6799Z" fill="url(#paint18_linear_222_14611)"/>
<path d="M65.4774 59.6101H11.8774V61.2801H65.4774V59.6101Z" fill="url(#paint19_linear_222_14611)"/>
<path d="M60.5473 21.1801C52.5153 17.8766 43.8784 16.2992 35.1973 16.5501C35.1973 16.1901 35.1973 15.8401 35.1973 15.4901C44.0167 15.2389 52.7903 16.8471 60.9473 20.2101C60.8173 20.5301 60.6873 20.8501 60.5473 21.1801Z" fill="black"/>
<path d="M44.5174 16.61C44.5174 17.24 41.7274 17.75 38.2874 17.75C34.8474 17.75 32.0874 17.24 32.0874 16.61C32.0874 15.98 34.8774 15.47 38.3274 15.47C41.7774 15.47 44.5174 15.98 44.5174 16.61Z" fill="black"/>
<path d="M68.0874 51.8699C68.1631 51.8699 68.238 51.8548 68.3079 51.8256C68.3777 51.7963 68.441 51.7534 68.494 51.6994C68.5471 51.6454 68.5889 51.5814 68.6169 51.5111C68.645 51.4408 68.6587 51.3656 68.6574 51.2899V46.4799C68.6587 46.4042 68.645 46.329 68.6169 46.2587C68.5889 46.1884 68.5471 46.1244 68.494 46.0704C68.441 46.0164 68.3777 45.9735 68.3079 45.9442C68.238 45.915 68.1631 45.8999 68.0874 45.8999V51.8699Z" fill="#E3E3E3"/>
<path d="M9.14749 51.8699C9.07263 51.8686 8.99877 51.8526 8.93011 51.8227C8.86145 51.7929 8.79935 51.7498 8.74734 51.6959C8.69534 51.642 8.65447 51.5785 8.62704 51.5088C8.59961 51.4391 8.58617 51.3648 8.58749 51.2899V46.4799C8.58617 46.405 8.59961 46.3307 8.62704 46.261C8.65447 46.1913 8.69534 46.1278 8.74734 46.0739C8.79935 46.02 8.86145 45.9769 8.93011 45.9471C8.99877 45.9172 9.07263 45.9012 9.14749 45.8999V51.8699Z" fill="#C9C9C9"/>
<path d="M38.6875 29.76C30.0775 29.76 13.9575 32.3 13.9575 32.3C13.9575 32.3 12.1875 22.17 11.9575 20.3V19.89L12.3475 19.77C21.159 16.9312 30.36 15.4871 39.6175 15.49C48.1575 15.5745 56.6634 16.5803 64.9875 18.49L65.3775 18.57V18.98C65.3775 24.17 63.4575 32.33 63.4575 32.33C63.4575 32.33 47.2875 29.76 38.6875 29.76Z" fill="black"/>
<path d="M63.5375 31.84C47.354 28.2438 30.5842 28.1892 14.3775 31.68C13.7375 27.41 12.9375 24.38 12.4775 20.23C29.3675 14.88 45.3575 14.72 64.8575 18.97C64.8575 24.17 63.7775 31.89 63.5375 31.84Z" fill="url(#paint20_linear_222_14611)"/>
<path style="mix-blend-mode:screen" d="M23.0873 30.27C33.7117 28.8889 44.4726 28.9259 55.0873 30.38L57.2173 17.75C45.195 16.1618 33.0182 16.1282 20.9873 17.65L23.0873 30.27Z" fill="url(#paint21_linear_222_14611)"/>
<path d="M72.5272 61.28H4.82715C3.72258 61.28 2.82715 62.1755 2.82715 63.28V174.71C2.82715 175.815 3.72258 176.71 4.82715 176.71H72.5272C73.6317 176.71 74.5272 175.815 74.5272 174.71V63.28C74.5272 62.1755 73.6317 61.28 72.5272 61.28Z" fill="url(#paint22_linear_222_14611)"/>
<path d="M69.5271 66.28H7.82715V171.71H69.5271V66.28Z" fill="url(#paint23_linear_222_14611)"/>
<path style="mix-blend-mode:screen" d="M29.9372 90.7701C28.7472 76.3801 17.5671 72.0801 7.82715 71.1001V171.68H41.7472C47.5272 150.4 34.8571 141.58 28.0471 131.05C20.5171 119.43 32.0872 116.74 29.9372 90.7701Z" fill="url(#paint24_linear_222_14611)"/>
<path d="M47.2396 55.983C47.3011 55.6667 47.3661 55.3512 47.4225 55.0349C47.464 54.8053 47.4935 54.573 47.5282 54.3417C47.2968 54.3746 47.0645 54.3997 46.8349 54.443C46.4987 54.5063 46.165 54.5817 45.8305 54.6519C45.8097 54.5947 45.7889 54.5366 45.769 54.4786C45.9752 54.3408 46.1763 54.1952 46.3877 54.0661C47.7015 53.2662 47.7474 52.7601 46.4163 51.9646C43.6007 50.2808 40.6101 49.4514 37.3638 50.5927C35.0985 51.3883 32.7934 51.4966 30.4458 51.2193C29.4256 51.0983 28.4438 50.7577 27.5678 50.221C26.3806 49.5034 26.2176 47.6324 27.4603 46.7996C27.6865 46.6571 27.9478 46.58 28.2151 46.5769C32.0854 46.5631 35.9556 46.5691 39.8276 46.5665C40.903 46.5665 41.9585 46.4313 42.9699 46.0466C45.3539 45.1384 46.5819 42.5264 45.6797 40.2889C45.3218 39.4006 44.4206 38.4474 43.4924 38.0357C43.6493 38.209 43.7368 38.3087 43.8269 38.4058C44.8279 39.4933 45.2447 40.7586 44.9613 42.2188C44.6909 43.6166 43.8243 44.5421 42.501 44.9806C41.7525 45.2411 40.9689 45.3871 40.1768 45.4139C36.9279 45.4616 33.6773 45.4347 30.4293 45.4347C30.3747 45.4347 30.3192 45.4252 30.2205 45.4165C30.8037 44.6149 31.6018 44.3012 32.5109 44.1712C33.595 44.017 34.634 44.1253 35.6393 44.5863C36.034 44.7637 36.4465 44.8982 36.8699 44.9876C38.207 45.2762 40.0971 44.2466 40.4957 43.0065C40.5613 42.7797 40.5358 42.5363 40.4247 42.328C40.0104 41.672 39.065 41.3747 38.3197 41.5948C37.9973 41.691 37.85 41.8548 38.0043 42.1954C38.0751 42.3518 38.0939 42.5267 38.058 42.6946L37.3508 42.1434L36.8976 42.8055L36.7702 42.7665C36.7384 42.6237 36.7158 42.4789 36.7026 42.3332C36.6896 41.9363 36.4721 41.8132 36.1038 41.8418C35.8357 41.8666 35.5653 41.8354 35.31 41.75C35.4957 41.687 35.6774 41.6129 35.8542 41.5281C35.9409 41.4796 36.0735 41.3505 36.0579 41.2915C36.0364 41.2356 36.0037 41.1846 35.9618 41.1417C35.92 41.0987 35.8698 41.0648 35.8144 41.042C35.6714 40.9865 35.5032 40.9969 35.349 40.9657C35.1947 40.9345 35.0595 40.8903 34.829 40.8279C35.3663 40.3374 36.0423 40.6191 36.6437 40.2438L35.6419 39.762C36.1047 39.5722 36.5085 39.6207 36.8551 39.885C37.3205 40.2369 37.7729 40.2629 38.3102 40.0358C38.6874 39.8659 39.1 39.789 39.5131 39.8115C39.9263 39.8339 40.328 39.9552 40.6846 40.165C40.7982 40.2282 40.9143 40.2871 41.0313 40.3383C41.4836 40.5385 41.6847 40.4648 41.8979 40.0263C42.3546 39.0964 42.1518 38.4924 41.2289 37.9924C40.4091 37.5487 39.5139 37.4083 38.6048 37.3312C34.4261 36.9733 30.2369 37.0625 26.0512 37.0426C25.4074 37.0426 24.7643 37.0426 24 37.0426C24.4489 36.6708 24.7921 36.3692 25.1569 36.0963C25.2801 36.0245 25.422 35.9916 25.5642 36.0018C29.4769 36.0157 33.3913 36.0018 37.3032 36.0685C39.3717 36.1058 41.4186 36.3892 43.3581 37.1847C45.1225 37.9083 46.4172 39.1155 47.1616 40.8747C47.3115 41.2291 47.4467 41.3305 47.8246 41.1269C48.5447 40.7386 49.2978 40.756 50.0222 41.1433C50.276 41.2797 50.5193 41.4347 50.7502 41.607C51.6705 42.2942 52.6247 42.8271 53.8613 42.4294L53.2339 42.9303L54.513 43.2102V43.2968L53.3318 43.5239L53.8821 44.5733L53.785 44.6825L52.6437 44.27C52.5744 44.6115 52.512 44.92 52.4505 45.2285L52.3352 45.2424C52.2546 45.069 52.1619 44.8957 52.0969 44.7224C51.9998 44.4529 51.8542 44.387 51.6142 44.5638C51.3984 44.7233 51.1809 44.8758 50.959 45.0318L50.8533 44.9503C50.9998 44.7042 51.122 44.439 51.3005 44.2172C51.5362 43.9243 51.4738 43.7267 51.2086 43.4962C50.5803 42.9519 48.9225 42.8497 48.2847 43.3887C48.1114 43.5326 48.01 43.8662 48.0299 44.0993C48.1624 45.6126 47.8333 47.1305 47.0862 48.4531C46.893 48.8041 46.9814 49.0173 47.2873 49.2019C47.4449 49.3031 47.6078 49.3959 47.7752 49.48C48.3307 49.74 48.6695 50.1733 48.8948 50.7314C49.3142 51.7713 49.6175 51.916 50.7511 51.8129C51.2034 51.7722 51.6671 51.8467 52.1264 51.8684L52.1315 52.0183L50.6427 52.4837L52.1368 53.2801L52.0978 53.4447H50.3126C50.3429 53.5833 50.3826 53.7197 50.4313 53.8529C50.5431 54.086 50.6913 54.3027 50.7779 54.5462C50.8533 54.7585 50.8646 54.9942 50.8975 55.2204C50.6887 55.158 50.4642 55.1242 50.2727 55.0254C50.0318 54.9006 49.8221 54.7178 49.5933 54.567C49.0612 54.2203 48.9511 54.2455 48.5534 54.7152C48.1833 55.1485 47.7899 55.5636 47.4069 55.9865L47.2396 55.983Z" fill="white"/>
<defs>
<radialGradient id="paint0_radial_222_14611" cx="0" cy="0" r="1" gradientUnits="userSpaceOnUse" gradientTransform="translate(38.6774 20.13) scale(25.99 25.99)">
<stop stop-color="#252575"/>
<stop offset="1" stop-color="#042F63"/>
</radialGradient>
<linearGradient id="paint1_linear_222_14611" x1="8.93719" y1="6.17" x2="68.4272" y2="6.17" gradientUnits="userSpaceOnUse">
<stop stop-color="#363B39"/>
<stop offset="1" stop-color="#0C0D0D"/>
</linearGradient>
<linearGradient id="paint2_linear_222_14611" x1="56.9375" y1="6.14008" x2="64.2675" y2="6.14008" gradientUnits="userSpaceOnUse">
<stop stop-color="#F7F7F7"/>
<stop offset="1" stop-color="#DBDBDB"/>
</linearGradient>
<linearGradient id="paint3_linear_222_14611" x1="16.2571" y1="6.13992" x2="20.0171" y2="6.13992" gradientUnits="userSpaceOnUse">
<stop stop-color="#F7F7F7"/>
<stop offset="1" stop-color="#DBDBDB"/>
</linearGradient>
<radialGradient id="paint4_radial_222_14611" cx="0" cy="0" r="1" gradientUnits="userSpaceOnUse" gradientTransform="translate(26.4272 22.8772) scale(25.21 19.1596)">
<stop stop-color="white"/>
<stop offset="1" stop-color="#125084"/>
</radialGradient>
<linearGradient id="paint5_linear_222_14611" x1="25.6572" y1="2.91007" x2="42.1272" y2="19.6601" gradientUnits="userSpaceOnUse">
<stop stop-color="white"/>
<stop offset="1" stop-color="#125084"/>
</linearGradient>
<radialGradient id="paint6_radial_222_14611" cx="0" cy="0" r="1" gradientUnits="userSpaceOnUse" gradientTransform="translate(38.6875 44.51) scale(23.45)">
<stop stop-color="white"/>
<stop offset="1" stop-color="#125084"/>
</radialGradient>
<linearGradient id="paint7_linear_222_14611" x1="22.7074" y1="18.8199" x2="48.7074" y2="63.3199" gradientUnits="userSpaceOnUse">
<stop stop-color="white"/>
<stop offset="1" stop-color="#125084"/>
</linearGradient>
<linearGradient id="paint8_linear_222_14611" x1="65.4261" y1="23.6248" x2="72.0013" y2="37.0016" gradientUnits="userSpaceOnUse">
<stop stop-color="#363B39"/>
<stop offset="1" stop-color="#1B1C1C"/>
</linearGradient>
<linearGradient id="paint9_linear_222_14611" x1="68.7564" y1="29.0799" x2="78.0747" y2="29.0799" gradientUnits="userSpaceOnUse">
<stop stop-color="#252575"/>
<stop offset="1" stop-color="#042F63"/>
</linearGradient>
<linearGradient id="paint10_linear_222_14611" x1="67.9872" y1="30.2201" x2="77.3772" y2="30.2201" gradientUnits="userSpaceOnUse">
<stop stop-color="#363B39"/>
<stop offset="1" stop-color="#1B1C1C"/>
</linearGradient>
<linearGradient id="paint11_linear_222_14611" x1="11.9522" y1="23.809" x2="5.37702" y2="37.1858" gradientUnits="userSpaceOnUse">
<stop stop-color="#363B39"/>
<stop offset="1" stop-color="#1B1C1C"/>
</linearGradient>
<linearGradient id="paint12_linear_222_14611" x1="8.68659" y1="29.0799" x2="-0.631813" y2="29.0799" gradientUnits="userSpaceOnUse">
<stop stop-color="#252575"/>
<stop offset="1" stop-color="#042F63"/>
</linearGradient>
<linearGradient id="paint13_linear_222_14611" x1="9.36737" y1="30.2201" x2="-0.0126169" y2="30.2201" gradientUnits="userSpaceOnUse">
<stop stop-color="#363B39"/>
<stop offset="1" stop-color="#1B1C1C"/>
</linearGradient>
<linearGradient id="paint14_linear_222_14611" x1="27.7573" y1="3.38999" x2="49.6073" y2="3.38999" gradientUnits="userSpaceOnUse">
<stop stop-color="#363B39"/>
<stop offset="1" stop-color="#0C0D0D"/>
</linearGradient>
<linearGradient id="paint15_linear_222_14611" x1="63.7275" y1="40.27" x2="77.4776" y2="66.8799" gradientUnits="userSpaceOnUse">
<stop stop-color="#363B39"/>
<stop offset="1" stop-color="#1B1C1C"/>
</linearGradient>
<linearGradient id="paint16_linear_222_14611" x1="64.7475" y1="45.6099" x2="73.7776" y2="63.1098" gradientUnits="userSpaceOnUse">
<stop stop-color="#3B3B3B"/>
<stop offset="1"/>
</linearGradient>
<linearGradient id="paint17_linear_222_14611" x1="6.94734" y1="39.47" x2="22.6574" y2="69.8699" gradientUnits="userSpaceOnUse">
<stop stop-color="#363B39"/>
<stop offset="1" stop-color="#1B1C1C"/>
</linearGradient>
<linearGradient id="paint18_linear_222_14611" x1="4.54746" y1="45.1799" x2="14.0175" y2="52.3399" gradientUnits="userSpaceOnUse">
<stop/>
<stop offset="1" stop-color="#3B3B3B"/>
</linearGradient>
<linearGradient id="paint19_linear_222_14611" x1="11.8774" y1="60.4501" x2="65.4774" y2="60.4501" gradientUnits="userSpaceOnUse">
<stop stop-color="#363B39"/>
<stop offset="1" stop-color="#0C0D0D"/>
</linearGradient>
<linearGradient id="paint20_linear_222_14611" x1="12.4775" y1="23.91" x2="64.8575" y2="23.91" gradientUnits="userSpaceOnUse">
<stop stop-color="#363B39"/>
<stop offset="1" stop-color="#0C0D0D"/>
</linearGradient>
<linearGradient id="paint21_linear_222_14611" x1="20.9773" y1="23.45" x2="57.2073" y2="23.45" gradientUnits="userSpaceOnUse">
<stop stop-color="#3B3B3B"/>
<stop offset="1"/>
</linearGradient>
<linearGradient id="paint22_linear_222_14611" x1="2.82715" y1="118.99" x2="74.5372" y2="118.99" gradientUnits="userSpaceOnUse">
<stop stop-color="#252575"/>
<stop offset="0.05" stop-color="#194584"/>
<stop offset="0.89" stop-color="#164F8E"/>
<stop offset="1" stop-color="#005387"/>
</linearGradient>
<linearGradient id="paint23_linear_222_14611" x1="7.82715" y1="118.99" x2="69.5372" y2="118.99" gradientUnits="userSpaceOnUse">
<stop stop-color="#2E61AA"/>
<stop offset="1" stop-color="#125084"/>
</linearGradient>
<linearGradient id="paint24_linear_222_14611" x1="8.79715" y1="121.41" x2="44.9172" y2="121.41" gradientUnits="userSpaceOnUse">
<stop stop-color="#787878"/>
<stop offset="1"/>
</linearGradient>
</defs>
</svg>
