<svg width="130" height="30" viewBox="0 0 130 30" fill="none" xmlns="http://www.w3.org/2000/svg">
<path d="M6.72 0.999998C7.28 0.919999 7.89333 0.853333 8.56 0.799998C9.22667 0.746666 9.84 0.706666 10.4 0.68C10.9867 0.653332 11.4933 0.639998 11.92 0.639998C12.16 0.639998 12.4933 0.639998 12.92 0.639998C13.3733 0.613332 13.8667 0.599998 14.4 0.599998C16.0267 0.599998 17.5067 0.813332 18.84 1.24C20.1733 1.64 21.3067 2.26667 22.24 3.12C23.2 3.97333 23.9333 5.06667 24.44 6.4C24.9733 7.73333 25.24 9.32 25.24 11.16C25.24 12.3333 25.1333 13.6 24.92 14.96C24.7333 16.2933 24.4 17.64 23.92 19C23.44 20.36 22.7733 21.6667 21.92 22.92C21.0933 24.1733 20.04 25.28 18.76 26.24C17.5067 27.2 15.9867 27.9733 14.2 28.56C12.44 29.1467 10.3867 29.44 8.04 29.44C7.64 29.44 7.24 29.4267 6.84 29.4C6.44 29.4 6.16 29.4 6 29.4C5.46667 29.3733 4.86667 29.3333 4.2 29.28C3.56 29.2533 2.90667 29.2133 2.24 29.16C1.6 29.1333 1.12 29.0933 0.8 29.04L6.72 0.999998ZM6.96 24.44C7.06667 24.4667 7.22667 24.4933 7.44 24.52C7.68 24.52 7.93333 24.5333 8.2 24.56C8.46667 24.56 8.72 24.56 8.96 24.56C9.2 24.56 9.38667 24.56 9.52 24.56C11.3867 24.56 12.9733 24.1467 14.28 23.32C15.5867 22.4667 16.64 21.4133 17.44 20.16C18.2667 18.88 18.8533 17.5067 19.2 16.04C19.5733 14.5467 19.76 13.16 19.76 11.88C19.76 9.74667 19.3067 8.14667 18.4 7.08C17.52 6.01333 16.04 5.48 13.96 5.48C13.4267 5.48 12.8667 5.49333 12.28 5.52C11.6933 5.54667 11.24 5.58667 10.92 5.64L6.96 24.44ZM32.2847 1.28C33.5647 1.04 34.858 0.866666 36.1647 0.759999C37.4714 0.653332 38.6447 0.599998 39.6847 0.599998C40.9114 0.599998 42.0714 0.746665 43.1647 1.04C44.258 1.33333 45.2047 1.78667 46.0047 2.4C46.8047 2.98667 47.4314 3.76 47.8847 4.72C48.3647 5.65333 48.6047 6.76 48.6047 8.04C48.6047 9.50667 48.378 10.7867 47.9247 11.88C47.498 12.9467 46.9247 13.8533 46.2047 14.6C45.4847 15.32 44.658 15.8933 43.7247 16.32C42.818 16.72 41.8847 16.9867 40.9247 17.12L42.4847 18.36L46.3647 29H40.6047L36.7647 18.04L34.0047 17.52L31.6047 29H26.4047L32.2847 1.28ZM34.8047 13.8H36.9247C37.698 13.8 38.458 13.7333 39.2047 13.6C39.9514 13.44 40.6047 13.1733 41.1647 12.8C41.7514 12.4 42.218 11.88 42.5647 11.24C42.938 10.6 43.1247 9.78667 43.1247 8.8C43.1247 7.89333 42.818 7.12 42.2047 6.48C41.5914 5.81333 40.6047 5.48 39.2447 5.48C38.7114 5.48 38.2047 5.50667 37.7247 5.56C37.2714 5.58667 36.8847 5.62667 36.5647 5.68L34.8047 13.8ZM57.0841 0.999998L62.2441 0.999998L56.3241 29H51.1641L57.0841 0.999998ZM73.2169 17.4L72.9369 22.16H73.0969L74.8569 17.4L83.4969 0.999998L89.3369 0.999998L73.5369 29.2H69.7769L65.7369 0.999998L71.4169 0.999998L73.2169 17.4ZM92.3809 0.999998L97.5809 0.999998L108.141 0.999998L107.101 5.88L96.5409 5.88L95.1409 12.4L104.781 12.4L103.701 17.28L94.1409 17.28L92.6609 24.12L103.421 24.12L102.421 29H91.6609H86.4609L92.3809 0.999998ZM113.258 1.28C114.538 1.04 115.831 0.866666 117.138 0.759999C118.445 0.653332 119.618 0.599998 120.658 0.599998C121.885 0.599998 123.045 0.746665 124.138 1.04C125.231 1.33333 126.178 1.78667 126.978 2.4C127.778 2.98667 128.405 3.76 128.858 4.72C129.338 5.65333 129.578 6.76 129.578 8.04C129.578 9.50667 129.351 10.7867 128.898 11.88C128.471 12.9467 127.898 13.8533 127.178 14.6C126.458 15.32 125.631 15.8933 124.698 16.32C123.791 16.72 122.858 16.9867 121.898 17.12L123.458 18.36L127.338 29H121.578L117.738 18.04L114.978 17.52L112.578 29L107.378 29L113.258 1.28ZM115.778 13.8H117.898C118.671 13.8 119.431 13.7333 120.178 13.6C120.925 13.44 121.578 13.1733 122.138 12.8C122.725 12.4 123.191 11.88 123.538 11.24C123.911 10.6 124.098 9.78667 124.098 8.8C124.098 7.89333 123.791 7.12 123.178 6.48C122.565 5.81333 121.578 5.48 120.218 5.48C119.685 5.48 119.178 5.50667 118.698 5.56C118.245 5.58667 117.858 5.62667 117.538 5.68L115.778 13.8Z" fill="white"/>
</svg>
