<svg width="54" height="107" viewBox="0 0 54 107" fill="none" xmlns="http://www.w3.org/2000/svg">
<mask id="mask0_29_1670" style="mask-type:luminance" maskUnits="userSpaceOnUse" x="2" y="0" width="49" height="107">
<path d="M48.848 48.5028L49.1909 39.6378C50.6005 35.0682 50.9413 30.2358 50.1871 25.5136L49.1981 11.4869C49.0321 10.4654 48.3354 9.06493 47.433 7.59946C46.0303 5.32477 44.0762 3.44084 41.7517 2.12214C39.4273 0.803445 36.8077 0.0926226 34.1355 0.055505C29.5441 -0.0166859 24.0071 -0.0202954 19.3075 0.055505C16.1994 0.084209 13.1687 1.02845 10.5943 2.77018C8.01992 4.5119 6.01605 6.97383 4.83321 9.8482C4.60817 10.376 4.44115 10.9267 4.33509 11.4905L3.3533 25.5136C2.59911 30.2358 2.93996 35.0682 4.34954 39.6378L4.71049 48.5028L4.2593 58.9705C4.14755 63.5603 3.77275 68.1399 3.13673 72.6868C2.81187 74.986 2.53394 83.3421 2.53394 83.5695C2.53394 83.9016 2.95264 91.6477 3.25584 97.4843C3.46881 101.455 5.69951 104.942 9.03111 106.591H44.4804C47.8301 104.942 50.0572 101.44 50.2738 97.4843C50.5914 91.6477 50.9957 83.9016 50.9957 83.5695C50.9957 83.3421 50.7141 74.986 50.3929 72.6868C49.7539 68.1401 49.3778 63.5604 49.2667 58.9705L48.848 48.5028Z" fill="white"/>
</mask>
<g mask="url(#mask0_29_1670)">
<path d="M51.5948 45.2217L51.9775 35.7936C53.5629 30.9533 53.9481 25.8001 53.1 20.7779L51.9883 5.87769C51.3711 2.22844 47.8951 -0.980444 44.2639 -1.25116L35.9619 -1.86839C29.605 -2.35026 23.2207 -2.35026 16.8638 -1.86839L9.2585 -1.28364C5.6309 -1.00571 2.16213 2.20678 1.5449 5.85242L0.433162 20.7743C-0.416082 25.7962 -0.0320736 30.9494 1.55212 35.79L1.94556 45.2217L1.44023 56.3608C1.3144 61.2428 0.891296 66.1127 0.173274 70.9433C-0.18768 73.3834 -0.501709 75.5744 -0.501709 75.8162C-0.501709 76.1772 -0.0324706 90.7056 0.324874 96.9104C0.436854 98.9607 1.10162 100.942 2.24866 102.646C3.3957 104.349 4.98226 105.71 6.8401 106.584H46.7039C48.5597 105.707 50.1434 104.344 51.2873 102.639C52.4311 100.935 53.0925 98.9529 53.2011 96.9032C53.562 90.6984 54.0313 76.1627 54.0313 75.809C54.0313 75.5672 53.7136 73.3762 53.3527 70.9361C52.6365 66.1053 52.2134 61.2355 52.0857 56.3536L51.5948 45.2217Z" fill="#474747"/>
<g style="mix-blend-mode:multiply">
<path d="M29.5911 -3.21112L30.0495 10.5701L43.0438 17.1178L41.9971 33.5268L43.4878 42.8106L42.6648 83.5118C42.6648 83.5118 33.0671 96.2462 32.8433 96.6902C32.6195 97.1342 30.6126 101.578 30.6126 101.578L31.1684 111.648L48.5809 113.424L57.399 89.2112L57.1716 42.2547L54.0457 5.82357L51.1581 -2.76715L29.5911 -3.21112Z" fill="#A6B8BD"/>
</g>
<g style="mix-blend-mode:multiply">
<path d="M23.6281 -3.21112L23.4981 9.89874L11.0813 16.1866L12.2616 33.5124L10.8936 42.7961L11.648 83.4973C11.648 83.4973 20.4553 96.2318 20.6719 96.6758C20.8884 97.1198 22.7221 101.563 22.7221 101.563L22.1951 111.637L6.21924 113.413L-1.86975 95.4955L-1.664 42.2547L1.20197 5.82357L3.86582 -2.76715L23.6281 -3.21112Z" fill="#A6B8BD"/>
</g>
<path d="M10.6482 36.3783L9.79633 18.0852C9.70148 16.0402 10.2473 14.0166 11.3577 12.2967C12.468 10.5768 14.0876 9.24636 15.9903 8.49101C22.8298 5.77774 30.4471 5.77774 37.2866 8.49101L37.7234 8.66427C39.6748 9.43895 41.3268 10.8182 42.4375 12.5998C43.5483 14.3815 44.0593 16.4721 43.8957 18.5652L42.4952 36.5119L10.6482 36.3783Z" fill="#525151"/>
<g style="mix-blend-mode:multiply">
<path d="M18.351 1.01569H36.442L37.5213 2.98289L31.0349 1.80257H23.2672L17.8601 2.88543L18.351 1.01569Z" fill="#9C888B"/>
</g>
</g>
<path d="M26.9128 32.4259C20.2893 32.4259 15.5283 33.054 12.2797 33.747C11.5235 33.904 10.8069 34.2126 10.1732 34.6542C9.53944 35.0957 9.00178 35.6611 8.5926 36.3162C8.18342 36.9713 7.91121 37.7025 7.79241 38.4657C7.6736 39.2289 7.71066 40.0083 7.90135 40.7567L10.4569 50.6C16.8422 49.4341 37.2794 49.4341 43.6647 50.6L46.1228 41.1213C46.3151 40.3725 46.3532 39.5925 46.2348 38.8285C46.1165 38.0646 45.8442 37.3326 45.4344 36.6771C45.0246 36.0216 44.4859 35.4562 43.851 35.0152C43.2161 34.5741 42.4982 34.2667 41.7408 34.1116C36.8682 33.0478 31.8999 32.483 26.9128 32.4259Z" fill="#2D2D2D"/>
<path opacity="0.11" d="M45.1589 39.8075C45.1509 40.151 45.1037 40.4925 45.0182 40.8254L42.82 49.2934C39.6948 48.8551 36.5439 48.6248 33.3882 48.6039H31.883H22.2383H20.6935C19.7694 48.622 18.7732 48.6472 17.7372 48.6942C15.8819 48.7808 13.9111 48.9324 12.0269 49.1887L11.305 49.2934L9.45334 42.1573L9.01658 40.4608C8.85873 39.867 8.82501 39.2471 8.91755 38.6397C9.01009 38.0323 9.22689 37.4505 9.5544 36.9307C9.88228 36.4001 10.3148 35.9418 10.8255 35.5837C11.3362 35.2256 11.9145 34.9753 12.5251 34.848C15.6419 34.2097 18.8039 33.8163 21.9821 33.6712C23.5558 33.5894 25.2006 33.5485 26.9163 33.5485C27.0932 33.5485 27.2773 33.5485 27.4541 33.5485C28.4107 33.5485 29.3564 33.5918 30.2912 33.6424C34.0613 33.8885 37.8083 34.4097 41.5025 35.2017C41.6469 35.2342 41.784 35.2667 41.9176 35.3064C42.9788 35.6324 43.8864 36.3311 44.4731 37.2736C44.9499 38.0307 45.1887 38.9133 45.1589 39.8075Z" fill="white"/>
<path opacity="0.11" d="M45.159 39.8074C37.2777 38.6156 29.2714 38.4942 21.3576 39.4465C17.3185 39.9301 13.2398 40.7279 9.44613 42.1753L9.00938 40.4788C8.85152 39.885 8.81781 39.2651 8.91035 38.6577C9.00289 38.0503 9.21968 37.4685 9.5472 36.9487C9.87508 36.4181 10.3076 35.9598 10.8183 35.6017C11.329 35.2436 11.9073 34.9933 12.5179 34.866C16.5389 34.0033 21.3793 33.5701 26.9127 33.5701C31.8183 33.6304 36.7052 34.1867 41.4989 35.2305C42.1087 35.3562 42.6866 35.6047 43.1973 35.9609C43.708 36.3171 44.1409 36.7735 44.4695 37.3024C44.942 38.0509 45.1819 38.9226 45.159 39.8074Z" fill="white"/>
<path opacity="0.11" d="M27.4542 33.5701L17.7373 48.7049C15.882 48.7916 13.9112 48.9432 12.027 49.1994L21.9821 33.6784C23.5559 33.5966 25.2006 33.5557 26.9163 33.5557C27.0932 33.5629 27.2737 33.5629 27.4542 33.5701Z" fill="white"/>
<path opacity="0.11" d="M41.9176 35.328L33.3882 48.6147H31.8831H22.2384H20.6935L30.2913 33.6712C34.0613 33.9174 37.8084 34.4385 41.5025 35.2305C41.6505 35.2558 41.784 35.2883 41.9176 35.328Z" fill="white"/>
<path d="M44.0112 52.8451L47.5233 39.3309V94.9504C47.5233 96.6108 43.791 86.0132 43.791 86.0132L44.0112 52.8451Z" fill="#2D2D2D"/>
<path opacity="0.11" d="M46.5522 90.702C45.9855 89.2257 45.3502 87.4931 44.7655 85.84L44.9821 52.957L46.5522 46.9291V90.702Z" fill="white"/>
<path d="M44.4479 73.6253L47.0828 76.2422L46.7183 72.463L44.816 71.2285L44.4479 73.6253Z" fill="#2D2D2D"/>
<path d="M9.93348 52.8451L6.42139 39.3309V94.9504C6.42139 96.6108 10.1537 86.0132 10.1537 86.0132L9.93348 52.8451Z" fill="#2D2D2D"/>
<path opacity="0.11" d="M7.39233 90.702C7.95903 89.2257 8.59431 87.4931 9.17906 85.84L8.95887 52.957L7.39233 46.9291V90.702Z" fill="white"/>
<path d="M9.49312 73.6253L6.85815 76.2422L7.22272 72.463L9.12495 71.2285L9.49312 73.6253Z" fill="#2D2D2D"/>
<path d="M27.2809 87.0925H12.6406C12.4632 87.0923 12.2877 87.1281 12.1246 87.1978C11.9614 87.2674 11.8142 87.3695 11.6917 87.4977C11.5692 87.626 11.474 87.7777 11.4119 87.9438C11.3497 88.11 11.322 88.287 11.3303 88.4641L11.731 95.066C11.8349 96.7056 12.5614 98.2436 13.7617 99.3654C14.962 100.487 16.5455 101.108 18.1884 101.101H36.0845C37.727 101.106 39.3095 100.485 40.5095 99.3634C41.7094 98.242 42.4363 96.705 42.542 95.066L42.9391 88.4641C42.9499 88.2861 42.9242 88.1078 42.8633 87.9402C42.8025 87.7726 42.7079 87.6192 42.5854 87.4896C42.463 87.3601 42.3152 87.257 42.1513 87.1868C41.9873 87.1166 41.8107 87.0809 41.6324 87.0817L27.2809 87.0925Z" fill="#2D2D2D"/>
<path opacity="0.11" d="M41.9646 88.4026L41.5639 95.0045C41.4748 96.3965 40.8586 97.7022 39.8406 98.6558C38.8226 99.6094 37.4795 100.139 36.0846 100.137H18.1885C17.9471 100.137 17.706 100.121 17.4666 100.09C16.6638 99.9846 15.8942 99.7034 15.2124 99.2667C14.5305 98.83 13.9532 98.2486 13.5214 97.5637C13.0317 96.7939 12.7471 95.9117 12.6948 95.0009L12.2941 88.399C12.2925 88.3071 12.3261 88.218 12.388 88.15C12.4194 88.1165 12.4575 88.0899 12.4997 88.0719C12.542 88.0539 12.5875 88.0448 12.6334 88.0453H41.6217C41.6678 88.0457 41.7134 88.0555 41.7556 88.0741C41.7978 88.0927 41.8358 88.1197 41.8672 88.1535C41.8986 88.1873 41.9228 88.2271 41.9383 88.2706C41.9538 88.314 41.9603 88.3602 41.9574 88.4063L41.9646 88.4026Z" fill="white"/>
<path d="M12.6154 52.5202C12.6154 52.5202 29.8618 50.535 41.2282 53.3685C41.3221 53.3937 40.0876 83.8222 40.0876 83.8222C40.0815 84.1507 39.9505 84.4646 39.7211 84.7C39.4918 84.9354 39.1814 85.0745 38.8531 85.0891L35.7345 85.2732L33.3486 58.7395L14.3552 54.2095C13.9132 54.1764 13.4969 53.9891 13.1789 53.6804C12.8609 53.3716 12.6615 52.961 12.6154 52.5202Z" fill="#525151"/>
<path d="M45.6499 8.6354C45.6499 8.6354 44.5382 7.73301 43.1738 6.68985C42.1342 5.89215 40.9431 5.01503 39.9829 4.39058C38.3695 3.33298 37.7883 1.1095 37.7883 1.1095L38.3406 1.42353L38.6005 1.57152C39.1708 1.90721 39.9288 2.38728 40.7229 2.88901C40.7843 2.93232 40.842 2.96841 40.9034 3.00451C41.5026 3.38351 42.1162 3.76612 42.6684 4.10542L42.7081 4.1379C43.0691 4.40862 43.43 4.65407 43.7657 4.85981C43.8235 4.8923 43.8812 4.92479 43.9354 4.96089C43.9579 4.97531 43.9796 4.99097 44.0004 5.00781C44.3187 5.22919 44.594 5.50687 44.8125 5.82717C45.1719 6.39781 45.4171 7.03281 45.5344 7.69692C45.5344 7.75106 45.5561 7.8052 45.5633 7.85574C45.5886 7.98568 45.603 8.10479 45.6138 8.21669C45.6247 8.32859 45.6138 8.32859 45.6138 8.37912C45.6121 8.40074 45.6121 8.42247 45.6138 8.44409V8.50185C45.612 8.51985 45.612 8.53799 45.6138 8.55599V8.61013C45.6278 8.61545 45.6402 8.62412 45.6499 8.6354Z" fill="#F6F6F6"/>
<path d="M45.6499 8.63538C45.2673 7.08327 43.5636 5.63585 42.1847 4.68293C41.9934 4.55298 41.8057 4.41943 41.6217 4.28588C40.4384 3.44223 39.3396 2.48606 38.3406 1.43073L38.6005 1.57872C39.1708 1.91441 39.9288 2.39448 40.7229 2.8962C40.7842 2.93952 40.842 2.97561 40.9034 3.01171C41.5025 3.39071 42.1162 3.77332 42.6684 4.11262L42.7081 4.1451C43.009 4.36669 43.321 4.57271 43.643 4.76234C43.7439 4.82061 43.8416 4.88448 43.9354 4.95364C43.9579 4.96807 43.9796 4.98374 44.0003 5.00057C44.3187 5.22195 44.5939 5.49963 44.8125 5.81993C45.1719 6.39057 45.4171 7.02557 45.5344 7.68968C45.5344 7.74382 45.5561 7.79797 45.5633 7.8485C45.5885 7.97844 45.603 8.09756 45.6138 8.20945C45.6246 8.32135 45.6138 8.32135 45.6138 8.37188C45.6121 8.39351 45.6121 8.41523 45.6138 8.43685V8.49461C45.612 8.51261 45.612 8.53074 45.6138 8.54875V8.60289C45.6286 8.61022 45.6411 8.62145 45.6499 8.63538Z" fill="#B3B3C5"/>
<g style="mix-blend-mode:multiply">
<path d="M45.6499 8.63537C45.6499 8.63537 44.5381 7.73298 43.1737 6.68983L41.6216 4.27865L40.7264 2.88898C40.7878 2.93229 40.8456 2.96838 40.9069 3.00448C41.5061 3.38348 42.1197 3.76609 42.672 4.10539L42.7117 4.13788C43.0126 4.35946 43.3246 4.56548 43.6466 4.75511C43.7475 4.81338 43.8451 4.87725 43.9389 4.94642C43.9614 4.96084 43.9831 4.97651 44.0039 4.99334C44.8173 5.68163 45.3639 6.63308 45.5488 7.68245C45.5488 7.73659 45.5704 7.79074 45.5777 7.84127C45.6029 7.97122 45.6174 8.09033 45.6282 8.20223C45.639 8.31412 45.6282 8.31412 45.6282 8.36465C45.6282 8.41519 45.6282 8.45128 45.6282 8.48738C45.6264 8.50538 45.6264 8.52352 45.6282 8.54152V8.59567C45.6387 8.60685 45.6461 8.62051 45.6499 8.63537Z" fill="#DFDBE2"/>
</g>
<path d="M8.44275 8.6354C8.44275 8.6354 9.55449 7.73301 10.9153 6.68985C11.9584 5.89215 13.1496 5.01503 14.1061 4.39058C15.7232 3.33298 16.3043 1.1095 16.3043 1.1095L15.7485 1.42353L15.4922 1.57152C14.9219 1.90721 14.1639 2.38728 13.3662 2.88901C13.3082 2.93085 13.248 2.96941 13.1857 3.00451C12.5865 3.38351 11.9765 3.76612 11.4206 4.10542L11.3809 4.1379C11.02 4.40862 10.659 4.65407 10.3233 4.85981C10.2656 4.8923 10.2078 4.92479 10.1537 4.96089C10.1312 4.97531 10.1095 4.99097 10.0887 5.00781C9.77034 5.22919 9.49511 5.50687 9.27655 5.82717C8.91714 6.39781 8.67197 7.03281 8.55464 7.69692C8.55464 7.75106 8.52938 7.8052 8.52216 7.85574C8.5005 7.98568 8.48606 8.10479 8.47163 8.21669C8.45719 8.32859 8.47163 8.32859 8.47163 8.37912V8.44409V8.55599C8.46979 8.57399 8.46979 8.59213 8.47163 8.61013L8.44275 8.6354Z" fill="#F6F6F6"/>
<path d="M8.44275 8.63538C8.82897 7.08327 10.5327 5.63585 11.9115 4.68293C12.0992 4.55298 12.2905 4.41943 12.4746 4.28588C13.6567 3.44221 14.7543 2.48603 15.7521 1.43073L15.4958 1.57872C14.9255 1.91441 14.1675 2.39448 13.3698 2.8962C13.3118 2.93805 13.2516 2.97661 13.1893 3.01171C12.5901 3.39071 11.9801 3.77332 11.4242 4.11262L11.3845 4.1451C11.0837 4.36669 10.7716 4.57271 10.4497 4.76234C10.3477 4.81892 10.25 4.88286 10.1573 4.95364C10.1348 4.96807 10.1131 4.98374 10.0923 5.00057C9.77396 5.22195 9.49872 5.49963 9.28017 5.81993C8.92075 6.39057 8.67558 7.02557 8.55826 7.68968C8.55826 7.74382 8.53299 7.79797 8.52577 7.8485C8.50411 7.97844 8.48967 8.09756 8.47523 8.20945C8.4608 8.32135 8.47523 8.32135 8.47523 8.37188V8.43685V8.54875C8.4734 8.56675 8.4734 8.58489 8.47523 8.60289L8.44275 8.63538Z" fill="#B3B3C5"/>
<g style="mix-blend-mode:multiply">
<path d="M8.44275 8.63537C8.44275 8.63537 9.55449 7.73298 10.9153 6.68983L12.471 4.27865C12.7706 3.81302 13.0702 3.351 13.3626 2.88898C13.3046 2.93083 13.2444 2.96939 13.1821 3.00448C12.5829 3.38348 11.9729 3.76609 11.417 4.10539L11.3773 4.13788C11.0764 4.35946 10.7644 4.56548 10.4424 4.75511C10.3405 4.81169 10.2427 4.87563 10.1501 4.94642C10.1276 4.96084 10.1059 4.97651 10.0851 4.99334C9.27706 5.68389 8.73571 6.63508 8.55464 7.68245C8.55464 7.73659 8.52938 7.79074 8.52216 7.84127C8.5005 7.97122 8.48606 8.09033 8.47163 8.20223C8.45719 8.31412 8.47163 8.31412 8.47163 8.36465C8.47163 8.41519 8.47163 8.45128 8.47163 8.48738V8.54152C8.46979 8.55953 8.46979 8.57766 8.47163 8.59567L8.44275 8.63537Z" fill="#DFDBE2"/>
</g>
<path opacity="0.11" d="M25.2018 88.049L17.4666 100.087C16.6638 99.9811 15.8942 99.6999 15.2124 99.2632C14.5305 98.8265 13.9532 98.2451 13.5214 97.5602L19.6323 88.049H25.2018Z" fill="white"/>
<path opacity="0.11" d="M41.2751 88.049L33.5218 100.134H20.4336L28.1941 88.049H41.2751Z" fill="white"/>
<path d="M53.7895 48.0155L47.6533 47.7845L47.5919 47.0337L46.1481 47.3947L46.2744 45.8209L48.4834 44.8211L48.8083 44.7994L52.5983 45.5827C53.3599 45.8173 53.6812 47.2106 53.7895 48.0155Z" fill="#474747"/>
<g style="mix-blend-mode:multiply">
<path d="M53.7858 48.0047L47.6496 47.7737L47.5882 47.0229L46.1444 47.3838L46.2707 45.8101L48.4798 44.8102L48.8046 44.7886C48.9274 45.774 48.9851 47.2575 48.9851 47.2575L53.7858 48.0047Z" fill="#9C888B"/>
</g>
<path d="M0 48.0155L6.13622 47.7845L6.19759 47.0337L7.6414 47.3947L7.51507 45.8209L5.30603 44.8211L4.98117 44.7994L1.19115 45.5827C0.429537 45.8173 0.108286 47.2106 0 48.0155Z" fill="#474747"/>
<g style="mix-blend-mode:multiply">
<path d="M0.00354004 48.0047L6.13976 47.7737L6.20113 47.0229L7.64494 47.3838L7.51861 45.8101L5.30957 44.8102L4.98471 44.7886C4.8656 45.774 4.80423 47.2575 4.80423 47.2575L0.00354004 48.0047Z" fill="#9C888B"/>
</g>
<path d="M46.5343 103.696L44.7295 105.725H44.6321L43.6827 105.783L44.9353 103.696C45.2415 103.187 45.4283 102.615 45.4814 102.022C45.5346 101.43 45.4527 100.834 45.2421 100.278L44.7331 98.9173L44.9641 98.3542L45.52 97.0151L46.9313 99.3432C47.3372 100.017 47.5175 100.802 47.4461 101.585C47.3747 102.368 47.0553 103.108 46.5343 103.696Z" fill="#FD515F"/>
<g style="mix-blend-mode:multiply">
<path d="M45.6787 104.552L44.6356 105.736L43.6863 105.793L44.9352 103.696C45.2415 103.187 45.4282 102.615 45.4813 102.022C45.5345 101.43 45.4527 100.834 45.242 100.278L44.733 98.9173L44.964 98.3542L46.0758 100.191C46.4828 100.866 46.6638 101.652 46.5924 102.437C46.5209 103.221 46.2008 103.962 45.6787 104.552Z" fill="#9C888B"/>
</g>
<path d="M7.35989 103.696L9.16466 105.725H9.26572L10.2114 105.783L8.9517 103.696C8.64616 103.187 8.45986 102.614 8.40673 102.022C8.3536 101.43 8.43501 100.834 8.64488 100.278L9.15383 98.9173L8.92282 98.3542L8.37056 97.0151L6.95562 99.3432C6.55072 100.017 6.37158 100.803 6.44429 101.586C6.51701 102.369 6.83777 103.108 7.35989 103.696Z" fill="#FD515F"/>
<g style="mix-blend-mode:multiply">
<path d="M8.20816 104.552L9.25492 105.736L10.2006 105.793L8.95172 103.696C8.64619 103.187 8.45989 102.614 8.40675 102.022C8.35362 101.43 8.43504 100.834 8.64491 100.278L9.15386 98.9173L8.92285 98.3542L7.81111 100.191C7.40409 100.866 7.22311 101.652 7.29453 102.437C7.36595 103.221 7.68605 103.962 8.20816 104.552Z" fill="#9C888B"/>
</g>
</svg>
