<svg width="57" height="100" viewBox="0 0 57 100" fill="none" xmlns="http://www.w3.org/2000/svg">
<path d="M48.8528 5.66802C46.2699 2.28528 33.2263 1.29962 28.3136 1.29962C23.4009 1.29962 10.3573 2.28528 7.77448 5.66802C2.75589 12.2644 4.75627 88.8717 6.50954 94.0683C7.81566 97.9526 23.2656 99.4223 28.3136 99.4223C33.3616 99.4223 48.8116 97.9526 50.1177 94.0683C51.871 88.8717 53.8713 12.2644 48.8528 5.66802Z" fill="#103874"/>
<path d="M39.6295 0.909214C35.884 0.343232 32.1006 0.0393611 28.3092 0C24.5217 0.0399042 20.7423 0.343773 17.0006 0.909214C16.775 0.952761 16.576 1.07923 16.4461 1.26167C16.3161 1.4441 16.2656 1.66805 16.3051 1.88578C16.3181 1.99171 16.3529 2.09412 16.4073 2.1871C16.4617 2.28008 16.5348 2.3618 16.6222 2.42754C16.7097 2.49328 16.8099 2.54174 16.9169 2.57013C17.024 2.59852 17.1359 2.60627 17.2461 2.59294C20.2228 2.14613 23.224 1.86504 26.2345 1.75108H30.3839C33.3944 1.86504 36.3956 2.14613 39.3723 2.59294H39.5009C39.7059 2.58753 39.9021 2.51137 40.0534 2.37841C40.2048 2.24545 40.3011 2.06458 40.325 1.86894C40.3596 1.65381 40.3066 1.43413 40.1772 1.25545C40.0477 1.07677 39.8516 0.952793 39.6295 0.909214Z" fill="#282F3A"/>
<path d="M46.1871 7.91301C43.5044 5.06946 32.8207 3.89893 28.302 3.89893C23.7833 3.89893 13.0996 5.08128 10.4169 7.91301C7.73411 10.7447 7.45576 20.7475 8.20196 24.732C9.63514 28.1135 10.405 33.7001 10.938 39.139C10.3458 40.0257 9.96678 41.7756 9.96678 43.626C9.15544 46.1562 9.75951 51.5004 9.96678 54.7992C9.96678 54.9766 9.96678 55.55 9.96678 55.7333C9.96678 55.7333 9.48116 67.1252 9.96678 72.1502C10.0461 73.26 10.2447 74.358 10.559 75.4253C10.7308 76.9742 8.71719 83.4181 8.92447 84.6063C9.34495 86.971 9.32126 88.2302 9.96678 88.7859C14.5861 92.7468 23.6649 92.9242 28.3257 92.9242C32.9865 92.9242 42.0475 92.7645 46.6846 88.7859C47.3301 88.2302 47.3064 86.9828 47.7269 84.6063C47.9342 83.424 45.9206 76.9742 46.0924 75.4253C46.4131 74.3595 46.6118 73.2608 46.6846 72.1502C47.1702 67.1252 46.6846 55.7333 46.6846 55.7333C46.6846 55.55 46.6846 54.9766 46.6846 54.7992C46.8919 51.5004 47.49 46.1562 46.6846 43.626C46.6846 41.7756 46.3233 40.0257 45.7134 39.139C46.2464 33.7001 47.0162 28.1135 48.4494 24.732C49.166 20.7475 48.864 10.7625 46.1871 7.91301Z" fill="#234D9F"/>
<path d="M22.1352 10.1109L19.0299 28.9763C19.0185 29.0489 18.9817 29.1152 18.9258 29.1638C18.87 29.2123 18.7986 29.2399 18.7243 29.2419H14.6532C14.6028 29.2398 14.5537 29.2262 14.5096 29.2022C14.4656 29.1781 14.4278 29.1442 14.3993 29.1032C14.3708 29.0621 14.3524 29.0151 14.3456 28.9659C14.3387 28.9166 14.3435 28.8664 14.3597 28.8193L20.0874 10.787C20.1124 10.7095 20.1644 10.6432 20.2341 10.5999L21.7196 9.76677C21.7712 9.74772 21.827 9.74254 21.8814 9.75176C21.9357 9.76098 21.9866 9.78427 22.0289 9.81925C22.0711 9.85423 22.1032 9.89965 22.1219 9.95088C22.1406 10.0021 22.1452 10.0573 22.1352 10.1109Z" fill="#103874"/>
<path d="M35.1443 10.1253L37.9897 28.9765C37.9991 29.0495 38.0325 29.1165 38.0839 29.1652C38.1353 29.2139 38.2013 29.2411 38.2697 29.2419H42.0001C42.0462 29.2398 42.0912 29.2262 42.1316 29.2022C42.172 29.1781 42.2066 29.1442 42.2327 29.1033C42.2588 29.0623 42.2757 29.0153 42.282 28.9661C42.2882 28.9168 42.2838 28.8667 42.269 28.8196L37.0487 10.8009C37.0238 10.7246 36.9767 10.659 36.9143 10.6139L35.5532 9.78146C35.5047 9.75454 35.45 9.74317 35.3957 9.74866C35.3413 9.75416 35.2896 9.7763 35.2466 9.81248C35.2036 9.84865 35.1711 9.89734 35.1529 9.95277C35.1348 10.0082 35.1318 10.0681 35.1443 10.1253Z" fill="#103874"/>
<path d="M10.4436 54.5562V43.2526L7.17422 26.6426C6.54549 32.6 6.47004 44.1722 6.59579 54.5848L10.4436 54.5562Z" fill="#282F3A"/>
<path d="M6.54468 55.8845C6.69169 67.0485 7.01766 76.6787 7.01766 76.6787L10.4436 72.1417V55.8845H6.54468Z" fill="#282F3A"/>
<path d="M28.3311 18.1953C28.3311 18.1953 16.5599 18.0369 7.84424 24.7568L10.6246 39.639C10.6246 39.639 15.4127 35.3467 28.3135 35.3467C41.2144 35.3467 46.0025 39.639 46.0025 39.639L48.7829 24.7568C40.1023 18.0428 28.3311 18.1953 28.3311 18.1953Z" fill="#103874"/>
<path d="M28.3224 18.8451C28.3224 18.8451 16.9185 18.6959 8.49414 25.0071L11.1757 38.9892C11.1757 38.9892 15.8085 34.973 28.3049 34.973C40.8012 34.973 45.434 38.9892 45.434 38.9892L48.1331 25.0071C39.7263 18.6959 28.3224 18.8451 28.3224 18.8451Z" fill="#282F3A"/>
<path d="M46.8335 54.5562V43.2526L49.5598 26.6426C50.0841 32.6 50.1418 44.1722 50.0422 54.5848L46.8335 54.5562Z" fill="#3A454F"/>
<path d="M50.0826 55.8845C49.9601 67.0485 49.6884 76.6787 49.6884 76.6787L46.8335 72.1417V55.8845H50.0826Z" fill="#3A454F"/>
<path d="M45.8215 75.3791C41.5687 76.629 15.0585 76.629 10.8057 75.3791C10.8057 75.3791 8.80776 81.055 9.19332 84.7563C12.0733 86.6342 18.1605 89.0253 28.3136 89.0253C38.4667 89.0253 44.5538 86.61 47.4339 84.7563C47.8194 81.055 45.8215 75.3791 45.8215 75.3791Z" fill="#282F3A"/>
<path d="M51.6843 31.2698L55.828 32.4765C55.9292 32.5 56.0339 32.4948 56.1329 32.4614C56.2319 32.428 56.3221 32.3674 56.3954 32.285C56.4687 32.2026 56.5229 32.101 56.5532 31.9892C56.5835 31.8774 56.5889 31.7589 56.569 31.6441C56.4322 30.6568 55.9135 29.8308 54.2891 29.3791C52.488 28.8822 51.7299 29.8437 51.4392 30.5277C51.4072 30.5937 51.3882 30.6666 51.3834 30.7416C51.3786 30.8167 51.3882 30.892 51.4114 30.9624C51.4347 31.0329 51.4711 31.0968 51.5182 31.1499C51.5653 31.2029 51.622 31.2438 51.6843 31.2698Z" fill="#234D9F"/>
<path d="M5.57039 31.2701L1.44935 32.477C1.34851 32.5 1.24426 32.4946 1.1457 32.4611C1.04714 32.4276 0.957294 32.3672 0.884015 32.285C0.810736 32.2029 0.756261 32.1015 0.725361 31.9898C0.69446 31.8782 0.688077 31.7596 0.706766 31.6444C0.84848 30.657 1.36432 29.8309 3.0082 29.3791C4.79947 28.8822 5.55339 29.8438 5.84248 30.5279C5.87376 30.5959 5.89149 30.6709 5.89441 30.7476C5.89734 30.8243 5.88539 30.9008 5.85942 30.9717C5.83344 31.0425 5.79408 31.106 5.74413 31.1576C5.69417 31.2092 5.63486 31.2476 5.57039 31.2701Z" fill="#234D9F"/>
<path d="M45.3909 38.9892L48.133 25.0071C39.5743 18.6959 27.9886 18.8451 27.9886 18.8451V34.95C40.6842 34.95 45.3909 38.9892 45.3909 38.9892Z" fill="#3A454F"/>
<path d="M45.7933 75.3791C45.6448 75.4195 45.4903 75.4599 45.324 75.4888H45.1755L44.8784 75.535C41.908 76.0084 34.9572 76.2509 27.9886 76.2509V88.3755C38.3138 88.3755 44.5042 86.066 47.433 84.2935C47.8251 80.8063 45.7933 75.3791 45.7933 75.3791Z" fill="#3A454F"/>
<path d="M28.3047 99.4223C30.806 99.4021 33.3034 99.314 35.7865 99.1583C35.6822 99.0338 35.5033 98.9295 35.2757 98.8608C35.048 98.792 34.7836 98.7623 34.5208 98.7759C30.3807 98.8548 26.2406 98.8548 22.1005 98.7759C21.8384 98.762 21.5745 98.7916 21.3477 98.8605C21.1209 98.9293 20.9432 99.0337 20.8407 99.1583C23.3179 99.3138 25.8094 99.4019 28.3047 99.4223Z" fill="#234D9F"/>
<path d="M16.2498 98.5351C16.2772 98.385 16.2803 98.2297 16.2588 98.0781C16.2374 97.9265 16.1918 97.7817 16.1248 97.652C16.0577 97.5223 15.9705 97.4103 15.8682 97.3225C15.7659 97.2346 15.6506 97.1726 15.5288 97.1401C14.0065 96.6949 12.4983 96.1755 11.0041 95.5819C10.765 95.4853 10.5047 95.5091 10.2798 95.648C10.0548 95.7869 9.88321 96.0298 9.80234 96.3239C9.79082 96.3974 9.79082 96.473 9.80234 96.5465C11.8766 97.5563 14.0289 98.3021 16.2258 98.7725C16.2514 98.7076 16.2735 98.6407 16.2919 98.5722L16.2498 98.5351Z" fill="#D3294F"/>
<path d="M47.4411 96.3332C47.3604 96.0356 47.1892 95.7899 46.9647 95.6494C46.7402 95.5089 46.4805 95.4849 46.2419 95.5826C44.7469 96.1831 43.2399 96.7085 41.7208 97.1588C41.4773 97.2287 41.2656 97.4162 41.132 97.6805C40.9984 97.9447 40.9535 98.2644 41.0073 98.5699C41.023 98.6404 41.0452 98.7083 41.0733 98.7725C43.2655 98.2967 45.4132 97.5422 47.4831 96.5208C47.4849 96.444 47.4747 96.3676 47.4531 96.2956L47.4411 96.3332Z" fill="#D3294F"/>
<path d="M44.8419 4.39931C44.6853 4.62828 44.1374 4.59012 43.6285 4.31209C43.1197 4.03406 42.8196 3.61975 42.9762 3.39624C43.1327 3.17272 43.6742 3.20543 44.1895 3.48346C44.7049 3.76149 44.9985 4.17035 44.8419 4.39931Z" fill="white"/>
<path d="M48.0731 6.85037C47.8644 7.3079 47.1393 7.22947 46.4559 6.67389C45.7726 6.1183 45.3813 5.29474 45.59 4.84373C45.7986 4.39273 46.5238 4.46463 47.2071 5.02021C47.8905 5.57579 48.2922 6.36668 48.0731 6.85037Z" fill="white"/>
<path d="M11.7712 4.39931C11.8756 4.62828 12.2365 4.59012 12.5799 4.31209C12.9234 4.03406 13.1191 3.61975 13.0147 3.39624C12.9104 3.17272 12.5495 3.20543 12.206 3.48346C11.8625 3.76149 11.6669 4.17035 11.7712 4.39931Z" fill="white"/>
<path d="M8.56446 6.85037C8.82567 7.3079 9.7334 7.22947 10.5889 6.67389C11.4444 6.1183 11.9341 5.29474 11.6729 4.84373C11.4117 4.39273 10.504 4.46463 9.6485 5.02021C8.79302 5.57579 8.30324 6.36668 8.56446 6.85037Z" fill="white"/>
</svg>
