<svg width="108" height="179" viewBox="0 0 108 179" fill="none" xmlns="http://www.w3.org/2000/svg">
<path opacity="0.75" d="M18.0009 117.953C18.2204 118.254 18.4868 118.519 18.79 118.736C19.137 118.853 19.5723 118.985 20.0543 119.119C23.3796 120.05 26.7866 120.658 30.228 120.934C31.514 121.038 32.8976 121.136 34.1364 121.191L34.1364 121.219C34.5176 121.239 34.9771 121.242 35.4883 121.234C36.0001 121.242 36.4596 121.239 36.8408 121.219L36.8408 121.191C38.0796 121.136 39.4632 121.038 40.7492 120.934C44.1906 120.658 47.5976 120.05 50.9229 119.119C51.4049 118.983 51.8402 118.853 52.1872 118.736C52.4904 118.519 52.7568 118.254 52.9763 117.953L52.9863 117.938C53.0978 117.783 53.1921 117.615 53.2673 117.439C52.8876 113.633 52.5078 109.827 52.1281 106.022C52.0356 105.037 51.6088 104.115 50.9192 103.409C50.7664 103.254 50.6028 103.111 50.4298 102.98C50.3918 102.951 50.3533 102.923 50.3154 102.896C49.5721 102.376 48.6862 102.1 47.78 102.107L23.1997 102.107C22.2935 102.1 21.4076 102.376 20.6643 102.896C20.6264 102.923 20.5878 102.951 20.5499 102.98C20.3769 103.111 20.2133 103.254 20.0605 103.409C19.3709 104.115 18.9441 105.037 18.8516 106.022C18.4714 109.827 18.0917 113.633 17.7123 117.439C17.7874 117.615 17.8816 117.783 17.9934 117.938L18.0009 117.953Z" fill="#5A6A82"/>
<path opacity="0.15" d="M15.9743 125.327L19.1097 124.905C20.1781 124.762 21.2483 124.632 22.3204 124.516L53.1095 101.576C52.0859 101.131 50.9367 100.682 49.6712 100.257L15.8761 125.28L15.9743 125.327Z" fill="white"/>
<path opacity="0.15" d="M15.1972 114.932L37.8417 98.0598C37.5581 98.0473 37.272 98.0367 36.9835 98.0298C36.3405 98.014 35.7083 98.0126 35.0868 98.0254L15.0628 112.853C15.1076 113.546 15.1524 114.239 15.1972 114.932Z" fill="white"/>
<path opacity="0.15" d="M40.3246 124.027L56.6573 112.027L57.3544 103.717C57.0434 103.536 56.6859 103.335 56.2866 103.119L28.9066 123.977C33.856 123.702 35.3796 123.719 40.3246 124.027Z" fill="white"/>
<path opacity="0.85" d="M44.4788 65.658L43.0485 63.5467C42.9656 63.4241 42.8557 63.3223 42.7272 63.2494C42.5987 63.1765 42.4552 63.1343 42.3078 63.1262C41.0716 63.0596 39.81 63.0057 38.5232 62.9646C37.7653 62.9409 37.016 62.9228 36.2751 62.9103L36.3504 62.8897C36.065 62.8897 35.777 62.8947 35.4885 62.8984C35.1999 62.9022 34.9126 62.8916 34.6272 62.8897L34.7025 62.9103C33.9612 62.9236 33.2118 62.9417 32.4544 62.9646C31.1692 63.0062 29.9077 63.06 28.6697 63.1262C28.5224 63.1343 28.3788 63.1765 28.2504 63.2494C28.1219 63.3223 28.0119 63.4241 27.9291 63.5467L26.4988 65.658L44.4788 65.658Z" fill="#4A5564"/>
<path opacity="0.85" d="M35.4872 46.6424C39.0592 46.5663 44.3936 46.877 50.3597 48.8778C53.2475 49.8446 56.021 51.1261 58.6305 52.6993C58.6877 52.3561 58.743 52.013 58.7928 51.6817C58.8798 51.1008 58.6 50.5249 58.0696 50.193C55.4289 48.5432 52.6038 47.2109 49.6526 46.2237C43.9694 44.3177 38.8888 44.0213 35.486 44.0943C32.0838 44.0213 27.0032 44.3177 21.32 46.2237C18.3688 47.2109 15.5437 48.5432 12.903 50.193C12.3726 50.5249 12.0946 51.1008 12.1798 51.6817C12.2296 52.0155 12.2849 52.3561 12.3421 52.6992C14.9516 51.1261 17.7251 49.8446 20.6129 48.8778C26.5815 46.877 31.9159 46.5663 35.4872 46.6424Z" fill="#4A5564"/>
<g opacity="0.75">
<path d="M58.0707 50.1913C55.43 48.5415 52.6049 47.2092 49.6537 46.222C43.9705 44.316 38.8899 44.0196 35.4871 44.0926C32.0849 44.0196 27.0043 44.316 21.321 46.222C18.3699 47.2092 15.5448 48.5415 12.9041 50.1913C12.3737 50.5232 12.0957 51.0991 12.1809 51.68C12.4947 53.7772 12.9234 55.8554 13.465 57.9053C14.1622 60.5457 15.2324 63.45 16.2012 65.7927C16.6142 66.791 17.7913 67.3463 18.925 67.073C22.0828 66.3124 25.4981 65.429 29.4345 65.2443C30.9661 65.1719 32.448 65.1401 33.8795 65.1382L33.8795 65.1857C34.4077 65.169 34.9442 65.1568 35.489 65.1489C36.0337 65.1568 36.5704 65.169 37.0989 65.1857L37.0989 65.1382C38.5292 65.1382 40.0124 65.1719 41.544 65.2443C45.4823 65.4315 48.8975 66.3124 52.0535 67.073C53.1871 67.3463 54.3644 66.7941 54.7773 65.7927C55.7443 63.45 56.8145 60.5457 57.5135 57.9053C58.0551 55.8554 58.4838 53.7772 58.7976 51.68C58.8809 51.0997 58.598 50.5232 58.0707 50.1913Z" fill="#5A6A82"/>
</g>
<path opacity="0.15" d="M58.5621 57.8483L45.0602 67.9618C48.6685 68.4528 52.2488 69.1317 55.7868 69.9957L58.5621 57.8483Z" fill="white"/>
<path opacity="0.15" d="M60.5072 50.5317L60.5072 47.0466L32.6701 67.7353C34.1597 67.7586 35.7033 67.8166 37.3011 67.9094L60.4699 50.6946L60.5072 50.5317Z" fill="white"/>
<path opacity="0.15" d="M31.9457 37.1218L11.4709 52.4699L12.1761 55.7012L36.282 37.4956C34.8815 37.3227 33.4357 37.1955 31.9457 37.1218Z" fill="white"/>
<path opacity="0.15" d="M41.4665 37.6799L6.6142 63.6138L7.32561 66.7296C10.841 65.8705 9.777 69.4592 14.2009 68.9096L51.4667 40.5218C48.2203 39.2897 44.8747 38.3389 41.4665 37.6799Z" fill="white"/>
<path d="M65.6315 107.578L65.2099 106.455C65.0905 106.137 65.0227 105.802 65.009 105.462L64.5563 94.1849L65.2739 38.6491C65.2763 38.4759 65.2896 38.3029 65.3137 38.1313L65.7491 35.0935C65.7965 34.7588 65.8173 34.4208 65.8112 34.0828L65.5208 19.6493C65.511 19.1582 65.3309 18.6858 65.0115 18.3135L64.713 17.966C64.5484 17.7743 64.4579 17.5297 64.4581 17.2766L64.4581 15.0929C64.4577 14.6861 64.4161 14.2803 64.3337 13.8819C64.2522 13.4845 64.1471 13.0603 64.0159 12.6154L64.0097 12.5948C63.6824 11.4954 63.0432 10.5153 62.1702 9.77414C60.7828 8.59683 59.2929 7.40329 57.6928 6.20602C55.1305 4.28863 52.4714 2.50502 49.7261 0.862257C49.5342 0.747405 49.3124 0.693007 49.0893 0.70613C48.8662 0.719267 48.6521 0.799284 48.4749 0.935866L48.4326 0.968321C48.3296 1.0478 48.2108 1.10431 48.0843 1.134C47.9577 1.16369 47.8263 1.16592 47.6988 1.14052L44.5 0.502882C42.8207 0.168379 41.1128 -4.79436e-05 39.4007 1.29414e-05L31.5683 1.22541e-05C29.8563 -4.89312e-05 28.1483 0.168377 26.4691 0.50288L23.2702 1.14051C23.1427 1.16592 23.0113 1.16369 22.8848 1.134C22.7582 1.10431 22.6394 1.0478 22.5364 0.968319L22.4941 0.935864C22.3169 0.799282 22.1029 0.719265 21.8798 0.706127C21.6567 0.693005 21.4348 0.747402 21.2429 0.862255C18.4976 2.50502 15.8385 4.28863 13.2762 6.20602C11.6787 7.40142 10.1887 8.59683 8.80196 9.77413C7.92857 10.5151 7.28914 11.4952 6.96185 12.5948L6.95563 12.6154C6.82317 13.0603 6.71933 13.4845 6.63787 13.8819C6.55547 14.2803 6.5138 14.6861 6.51349 15.0929L6.51349 17.2766C6.5136 17.5297 6.42312 17.7743 6.25852 17.966L5.96004 18.3135C5.64064 18.6858 5.46055 19.1582 5.45074 19.6493L5.16033 34.0828C5.15426 34.4208 5.17506 34.7588 5.22252 35.0935L5.65782 38.1313C5.68196 38.3029 5.69523 38.4759 5.6976 38.6491L6.41523 94.1849L5.96252 105.462C5.94883 105.802 5.88102 106.137 5.76166 106.455L5.34002 107.578C5.21699 107.907 5.15648 108.256 5.16157 108.608L5.39786 123.572C5.40009 123.731 5.42544 123.888 5.47311 124.039L5.84622 125.227C5.8654 125.288 5.87874 125.351 5.88603 125.415L6.113 127.372C6.73569 130.555 8.15603 133.527 10.2401 136.007C12.3242 138.488 15.0035 140.395 18.0254 141.549L18.11 141.569C21.8558 142.46 25.6927 142.908 29.5423 142.903L41.4311 142.903C45.2807 142.908 49.1176 142.459 52.8634 141.568L52.948 141.548C55.9698 140.394 58.649 138.487 60.7331 136.007C62.8172 133.527 64.2376 130.555 64.8604 127.372L65.0861 125.414C65.0934 125.35 65.1068 125.288 65.1259 125.227L65.5009 124.036C65.5486 123.885 65.5739 123.728 65.5761 123.57L65.8118 108.608C65.8167 108.256 65.7555 107.907 65.6315 107.578ZM53.4778 119.954C53.4722 120.037 53.4623 120.119 53.4492 120.204C53.403 120.49 53.3117 120.768 53.1787 121.026C53.1408 121.1 53.0991 121.172 53.0543 121.243C53.0319 121.277 53.0083 121.312 52.9841 121.346L52.9741 121.36C52.9057 121.455 52.8367 121.542 52.767 121.622C52.6974 121.702 52.6277 121.773 52.5599 121.839C52.4429 121.951 52.3182 122.056 52.1868 122.151C52.1004 122.18 52.0077 122.213 51.9107 122.242C51.6191 122.336 51.2839 122.435 50.9226 122.538C50.3007 122.716 49.6747 122.881 49.0446 123.034C48.6254 123.136 48.2052 123.233 47.784 123.325C47.5734 123.371 47.3624 123.416 47.151 123.459C46.7285 123.546 46.3051 123.627 45.8805 123.703C45.2437 123.818 44.6051 123.92 43.9646 124.011C43.5371 124.072 43.1095 124.127 42.6816 124.179C42.2538 124.23 41.8245 124.275 41.3938 124.315C41.179 124.335 40.9641 124.354 40.7489 124.372L40.2626 124.411C39.7726 124.45 39.2732 124.487 38.777 124.521C38.4461 124.543 38.1166 124.564 37.7926 124.583C37.4686 124.602 37.1502 124.618 36.8405 124.633L36.8405 124.661C36.6023 124.673 36.3337 124.68 36.0402 124.68C35.9232 124.68 35.802 124.68 35.6776 124.68L35.4879 124.68L35.3014 124.68C35.177 124.68 35.0557 124.68 34.9388 124.68C34.6453 124.68 34.3792 124.673 34.1385 124.661L34.1385 124.633C33.8276 124.618 33.5098 124.602 33.1864 124.583C32.863 124.564 32.5328 124.544 32.202 124.521C31.7045 124.487 31.207 124.45 30.7164 124.411L30.2301 124.372C30.0149 124.354 29.8 124.335 29.5852 124.315C29.1557 124.274 28.7264 124.228 28.2974 124.179C27.8683 124.129 27.4406 124.073 27.0144 124.011C26.3739 123.92 25.7353 123.818 25.0985 123.703C24.6735 123.627 24.2501 123.546 23.828 123.459C23.6166 123.417 23.4056 123.373 23.1949 123.325C22.7742 123.233 22.354 123.136 21.9344 123.034C21.3055 122.881 20.6795 122.716 20.0564 122.538C19.6951 122.435 19.3599 122.336 19.0683 122.242C18.9713 122.211 18.8786 122.18 18.7922 122.151C18.6608 122.056 18.5361 121.951 18.4191 121.839C18.3513 121.777 18.2816 121.701 18.212 121.622C18.1423 121.543 18.0733 121.455 18.0049 121.36L17.9949 121.346C17.9707 121.312 17.9471 121.277 17.9247 121.243C17.8799 121.172 17.8382 121.1 17.8003 121.026C17.6673 120.768 17.576 120.49 17.5298 120.204C17.5167 120.122 17.5068 120.04 17.5012 119.954C17.4956 119.869 17.4925 119.788 17.4931 119.705C17.4937 119.621 17.4987 119.537 17.5074 119.455C17.956 114.913 18.4045 110.37 18.8531 105.827C18.8777 105.58 18.922 105.336 18.9856 105.096C19.0332 104.918 19.0918 104.742 19.1609 104.571C19.3681 104.055 19.6743 103.585 20.062 103.187C20.1752 103.071 20.2943 102.962 20.4189 102.859C20.4619 102.824 20.506 102.788 20.5514 102.753C20.5968 102.718 20.6279 102.696 20.6658 102.668C21.0324 102.405 21.439 102.204 21.8698 102.071C22.3011 101.938 22.7499 101.871 23.2012 101.871L47.7778 101.871C48.2291 101.871 48.6779 101.938 49.1092 102.071C49.54 102.204 49.9466 102.405 50.3132 102.668C50.3511 102.696 50.3896 102.724 50.4276 102.753C50.4655 102.782 50.5171 102.824 50.56 102.859C50.6847 102.962 50.8038 103.071 50.917 103.187C51.3053 103.584 51.6121 104.054 51.8199 104.57C51.889 104.742 51.9476 104.917 51.9953 105.096C52.0588 105.335 52.1032 105.58 52.1278 105.826C52.5763 110.369 53.0249 114.912 53.4734 119.454C53.4822 119.538 53.4865 119.622 53.4877 119.704C53.489 119.786 53.484 119.871 53.4778 119.954ZM58.7941 51.6819C58.4803 53.7791 58.0516 55.8574 57.51 57.9073C56.8129 60.5476 55.7426 63.4519 54.7738 65.7947C54.3609 66.7929 53.1837 67.3482 52.05 67.075C48.8922 66.3144 45.4769 65.431 41.5405 65.2463C40.0089 65.1739 38.527 65.1421 37.0955 65.1402L37.0955 65.1876C36.5677 65.171 36.031 65.1587 35.4855 65.1508C34.9411 65.1587 34.4047 65.171 33.8761 65.1876L33.8761 65.1402C32.4458 65.1402 30.9627 65.1739 29.431 65.2463C25.4928 65.4334 22.0775 66.3144 18.9215 67.075C17.7879 67.3482 16.6107 66.7961 16.1978 65.7947C15.2308 63.4519 14.1605 60.5476 13.4616 57.9073C12.9199 55.8574 12.4912 53.7791 12.1774 51.6819C12.0904 51.1011 12.3702 50.5252 12.9006 50.1933C15.5413 48.5435 18.3664 47.2112 21.3176 46.224C27.0008 44.318 32.0814 44.0216 35.4836 44.0946C38.8864 44.0216 43.967 44.318 49.6502 46.224C52.6014 47.2112 55.4265 48.5435 58.0672 50.1933C58.5982 50.5252 58.8812 51.1017 58.7941 51.6819Z" fill="#E3E3E3"/>
<path d="M61.6721 47.8331C61.6721 46.4486 61.8083 43.0328 61.3612 42.0002L58.8116 52.2703C58.3632 54.3117 57.8166 56.4748 57.1437 58.7359C56.3502 61.4074 55.4858 63.8737 54.6028 66.126C54.061 66.7141 53.3198 67.0779 52.5245 67.1461L45.8781 65.7255C42.4149 65.5739 38.9517 65.3037 35.4886 65.1521L25.0997 65.7255L17.7773 67.1461C17.2536 66.9466 16.7845 66.6254 16.4084 66.2088C16.0324 65.7923 15.7601 65.2922 15.6138 64.7497C14.4621 60.6872 13.3101 56.6254 12.1575 52.5642L9.34174 43.2717C8.89524 44.3043 9.64147 47.2722 9.30442 48.6142C8.5159 51.7575 9.4232 56.4224 9.62033 58.4676L10.6676 95.2406C11.5896 104.091 13.8477 112.749 17.3644 120.918L17.6641 121.017L17.5957 120.773L17.6927 119.202C17.5233 118.791 17.4592 118.344 17.5062 117.902C17.9535 113.503 18.4012 109.105 18.8494 104.708C18.9477 103.749 22.2908 102.108 23.1975 102.108L47.7778 102.108C48.6845 102.108 52.0276 103.749 52.1259 104.708C52.5612 108.977 52.9965 113.247 53.4318 117.516L53.4704 117.516L53.4704 117.887C53.4707 117.891 53.4707 117.895 53.4704 117.9C53.4902 118.093 53.4891 118.288 53.4673 118.482L53.4579 120.966L53.6097 120.916C57.1265 112.748 59.385 104.09 60.3078 95.2406L61.3562 58.4651C61.5534 56.4224 61.6721 51.1229 61.6721 47.8331Z" fill="#EDEDED"/>
<path d="M17.6179 120.097L16.7958 120.859L16.7958 124.176L16.9836 127.794L17.1254 131.389L17.3704 134.559L19.1054 135.351L53.4857 135.502L53.6157 134.299L53.9428 128.466L54.1455 124.533L54.2916 121.3L53.9913 120.554L53.6611 120.2L52.7668 121.492L51.3061 122.589L41.1579 124.334L33.6172 124.604L25.4546 123.763L19.0662 122.368L17.9954 121.617L17.6179 120.097Z" fill="#EFEFEF"/>
<path d="M22.9916 102.221L21.5377 102.641C23.2343 95.7106 24.4445 88.6689 25.1594 81.5683C25.6967 76.2152 26.2819 70.7747 26.2496 65.3873L27.0735 65.3792C27.1065 70.8103 27.0082 76.3013 26.466 81.6999C25.7502 88.8337 24.6992 95.2499 22.9916 102.221Z" fill="#EFEFEF"/>
<path d="M47.96 102.121L49.4375 102.641C47.7409 95.7106 46.5307 88.6689 45.8158 81.5683C45.2785 76.2152 44.6933 70.7747 44.7256 65.3873L43.9017 65.3792C43.8687 70.8103 43.967 76.3013 44.5092 81.6999C45.225 88.8337 46.2523 95.1476 47.96 102.121Z" fill="#EFEFEF"/>
<path d="M18.9929 138.313L17.7883 136.134C17.3673 135.371 17.1255 134.52 17.0812 133.649C16.9693 131.387 16.8424 128.813 16.7392 126.701C16.677 125.472 16.5732 123.288 16.4961 121.695C16.4805 121.353 16.5435 121.012 16.6802 120.698C16.8169 120.384 17.0237 120.106 17.2846 119.885L17.376 119.809L17.6179 120.097L17.5259 120.174C17.3094 120.358 17.1378 120.589 17.0243 120.849C16.9107 121.11 16.8583 121.393 16.8711 121.677C16.9482 123.269 17.0545 125.454 17.1142 126.682C17.2174 128.794 17.3443 131.368 17.4562 133.63C17.4974 134.444 17.7226 135.238 18.1148 135.951L19.3193 138.13L18.9929 138.313Z" fill="#C9CBDF"/>
<path d="M51.9821 138.313L53.1879 136.134C53.6089 135.371 53.8507 134.52 53.8949 133.649C54.0069 131.387 54.1337 128.813 54.237 126.701C54.2992 125.472 54.403 123.288 54.4801 121.695C54.4957 121.353 54.4327 121.012 54.296 120.698C54.1592 120.384 53.9525 120.106 53.6916 119.885L53.6002 119.809L53.3583 120.097L53.4503 120.174C53.6669 120.358 53.8385 120.589 53.9521 120.849C54.0656 121.11 54.118 121.393 54.1051 121.677C54.028 123.27 53.9217 125.455 53.8614 126.683C53.7588 128.795 53.6319 131.368 53.5199 133.631C53.4777 134.444 53.2515 135.238 52.8583 135.951L51.6537 138.13L51.9821 138.313Z" fill="#C9CBDF"/>
<path d="M6.06695 102.959L5.96623 105.462C5.96052 105.589 5.94702 105.716 5.92581 105.842C6.68884 110.388 7.43381 115.969 7.87098 122.335C8.1558 126.485 8.40143 130.307 8.61099 133.752C10.6075 136.989 13.5234 139.553 16.9838 141.115C14.8962 135.755 12.8508 129.865 10.9822 123.473C8.84916 116.176 7.25843 109.292 6.06695 102.959Z" fill="#EFEFEF"/>
<path opacity="0.75" d="M17.5036 119.454C17.4949 119.537 17.4906 119.621 17.4893 119.703C17.4893 119.62 17.4949 119.536 17.5036 119.454Z" fill="#5A6A82"/>
<path opacity="0.75" d="M53.4714 119.454C53.0233 114.911 52.5747 110.369 52.1257 105.826C52.5743 110.368 53.0228 114.911 53.4714 119.454Z" fill="#5A6A82"/>
<path d="M63.3891 50.1862L62.5658 51.9089L61.6715 54.2479L61.9408 54.7713L62.0776 75.6441L61.4937 92.9401L61.7654 93.0449L63.0906 93.7936L64.3891 94.0481L64.5576 94.0481L65.1453 48.5734L64.2697 49.1268L63.3891 50.1862Z" fill="#E6E6E6"/>
<path d="M7.58613 50.1862L8.40948 51.9089L9.3031 54.2479L9.03383 54.7713L8.89764 75.6441L9.48157 92.9401L9.20981 93.0449L7.88462 93.7936L6.58617 94.0481L6.41702 94.0481L5.82937 48.5734L6.70557 49.1268L7.58613 50.1862Z" fill="#E6E6E6"/>
<path opacity="0.75" d="M32.2001 124.518C31.7026 124.485 31.2051 124.448 30.7144 124.409C31.2045 124.448 31.7038 124.485 32.2001 124.518Z" fill="#5A6A82"/>
<path d="M9.30313 53.6827L9.39331 42.1935L8.44746 43.1032C8.2209 43.321 8.04056 43.5825 7.91724 43.8719C7.79392 44.1614 7.73016 44.4729 7.72983 44.7877L7.72983 50.5607L9.30313 53.6827Z" fill="#C9CBDF"/>
<path d="M61.6722 53.6828L61.5832 42.1935L62.5291 43.1032C62.7556 43.321 62.936 43.5825 63.0593 43.8719C63.1826 44.1614 63.2464 44.4729 63.2467 44.7877L63.2467 50.5607L61.6722 53.6828Z" fill="#C9CBDF"/>
<path opacity="0.75" d="M40.2606 124.409C39.7706 124.448 39.2712 124.485 38.775 124.518C39.2712 124.483 39.7706 124.447 40.2606 124.409Z" fill="#5A6A82"/>
<path d="M9.48222 54.7189C9.46788 54.6659 9.43506 54.6199 9.38973 54.5891C9.3444 54.5584 9.28956 54.5451 9.23523 54.5515C9.18091 54.5579 9.1307 54.5837 9.09374 54.6242C9.05677 54.6646 9.03552 54.717 9.03386 54.7719C8.85393 61.5034 8.80851 68.461 8.89764 75.6447C8.97517 81.336 9.141 86.8825 9.39513 92.2843C9.589 95.1241 9.9654 97.9483 10.522 100.739C10.8124 102.196 11.2545 103.578 11.6743 104.882C11.7037 104.973 11.7629 105.052 11.8423 105.105C11.9217 105.158 12.0165 105.182 12.1116 105.174C12.2066 105.167 12.2963 105.127 12.366 105.062C12.4357 104.996 12.4814 104.909 12.4958 104.815C12.9404 101.803 13.6592 95.9666 13.857 91.968C14.1741 85.5623 14.2164 79.4898 14.0653 73.7842C14.0238 72.2563 13.8015 70.7387 13.4031 69.2634C12.0951 64.4148 10.7881 59.5666 9.48222 54.7189Z" fill="#5A6A82"/>
<path d="M62.1179 93.5042L60.6167 92.436L60.8337 92.1291L62.3349 93.1966C62.9387 93.6276 63.6616 93.8586 64.4026 93.8573L64.5605 93.8573L64.5562 94.1817L64.5562 94.2341L64.4007 94.2341C63.5826 94.2353 62.7845 93.9801 62.1179 93.5042Z" fill="#C9CBDF"/>
<path d="M53.4717 117.515L53.433 117.515L53.4704 117.885L53.4717 117.515Z" fill="#DE3743"/>
<path opacity="0.85" d="M14.0633 73.7839C14.0218 72.2559 13.7995 70.7383 13.401 69.263C12.0943 64.4153 10.7884 59.5671 9.4833 54.7185C9.46896 54.6655 9.43614 54.6195 9.39081 54.5888C9.34548 54.5581 9.29064 54.5447 9.23632 54.5511C9.18199 54.5576 9.13178 54.5833 9.09482 54.6238C9.05785 54.6643 9.03661 54.7167 9.03494 54.7715C9.01919 55.3539 9.00486 55.9362 8.99201 56.5185C10.1362 60.7669 11.2807 65.0146 12.4253 69.2618C12.8237 70.7371 13.0461 72.2547 13.0876 73.7826C13.2387 79.4851 13.1964 85.5607 12.8793 91.9664C12.6877 95.8414 12.0087 101.442 11.5597 104.526C11.5978 104.645 11.6358 104.763 11.6735 104.881C11.7029 104.972 11.7621 105.05 11.8415 105.103C11.9209 105.156 12.0157 105.181 12.1108 105.173C12.2058 105.165 12.2955 105.125 12.3652 105.06C12.4349 104.995 12.4806 104.908 12.495 104.813C12.9396 101.801 13.6585 95.965 13.8562 91.9664C14.1721 85.562 14.2144 79.4889 14.0633 73.7839Z" fill="#4A5564"/>
<path opacity="0.15" d="M10.9411 74.4635C10.9041 73.1059 10.7064 71.7576 10.3522 70.4468C9.85474 68.6037 9.3583 66.7607 8.86288 64.9177C8.83801 68.437 8.84959 72.014 8.89768 75.6489C8.97521 81.3402 9.14104 86.8867 9.39517 92.2885C9.51954 94.1053 9.72914 96.0737 10.0612 98.1644C10.3591 95.685 10.6482 92.8369 10.7577 90.6227C11.0375 84.9289 11.0755 79.5302 10.9411 74.4635Z" fill="white"/>
<path d="M8.85709 93.5042L10.3583 92.436L10.1412 92.1291L8.64008 93.1966C8.03632 93.6276 7.3134 93.8586 6.57238 93.8573L6.41443 93.8573L6.41877 94.1817L6.41877 94.2341L6.57423 94.2341C7.3924 94.2353 8.19051 93.9801 8.85709 93.5042Z" fill="#C9CBDF"/>
<path d="M7.91628 51.0529C8.05557 51.3561 8.19114 51.6674 8.31924 51.9781C8.76254 53.0516 9.13643 54.1525 9.4386 55.2742L9.80115 55.1756C9.49512 54.0384 9.11623 52.9222 8.66686 51.834C8.53689 51.522 8.39947 51.2032 8.2583 50.8981C7.84061 49.9912 7.18283 49.2167 6.35664 48.6589L5.82745 48.2989L5.83304 48.7581L6.14397 48.9709C6.91344 49.4891 7.52646 50.2093 7.91628 51.0529Z" fill="#C9CBDF"/>
<path d="M63.0595 51.0529C62.9202 51.3561 62.7846 51.6674 62.6565 51.9781C62.2132 53.0516 61.8393 54.1525 61.5371 55.2742L61.1746 55.1756C61.4806 54.0384 61.8595 52.9222 62.3089 51.834C62.4388 51.522 62.5763 51.2032 62.7175 50.8981C63.1352 49.9912 63.7929 49.2167 64.6191 48.6589L65.1483 48.2989L65.1427 48.7581L64.8318 48.9709C64.0623 49.4892 63.4493 50.2093 63.0595 51.0529Z" fill="#C9CBDF"/>
<path d="M10.7359 17.1665C9.55903 16.8654 9.09388 16.0033 9.03913 15.5202C8.05441 37.8096 6.36599 84.7489 7.49007 94.1911C8.61415 103.633 14.1409 118.078 16.7637 124.12V120.256C14.6093 115.01 10.0614 102.186 9.10597 92.8563C8.1505 83.5264 9.79446 38.509 10.7359 17.1665Z" fill="#275285"/>
<path d="M60.2313 17.1668C61.4081 16.8658 61.8733 16.0037 61.928 15.5205C62.9128 37.8099 64.6012 84.7492 63.4771 94.1915C62.353 103.634 56.8263 118.078 54.2034 124.12V120.256C56.3579 115.01 60.9057 102.186 61.8612 92.8566C62.8167 83.5268 61.1727 38.5093 60.2313 17.1668Z" fill="#275285"/>
<path d="M9.32789 90.7988C9.34986 91.295 9.37161 91.7901 9.39317 92.2843C9.58704 95.1241 9.96344 97.9483 10.52 100.739C10.8104 102.196 11.2525 103.578 11.6723 104.882C11.7017 104.973 11.7609 105.052 11.8403 105.105C11.9197 105.158 12.0146 105.182 12.1096 105.174C12.2046 105.167 12.2943 105.127 12.364 105.062C12.4337 104.996 12.4794 104.909 12.4938 104.815C12.9054 102.027 13.5509 96.8201 13.7997 92.8895L9.32789 90.7988Z" fill="#EFEFEF"/>
<path d="M13.9597 92.4485L13.6314 93.1828L9.3486 91.2799L9.20993 90.3384L13.9597 92.4485Z" fill="#C9CBDF"/>
<path d="M12.0717 105.365C11.9426 105.366 11.8167 105.325 11.7126 105.249C11.6086 105.172 11.5319 105.064 11.494 104.94C11.0904 103.686 10.6327 102.264 10.3361 100.777C9.77833 97.9777 9.40091 95.1453 9.20618 92.2974C8.95246 86.7727 8.7858 81.1725 8.70869 75.6478C8.61417 68.7225 8.66017 61.6948 8.84548 54.7669C8.84853 54.667 8.88724 54.5715 8.95455 54.4977C9.02186 54.424 9.11332 54.377 9.21228 54.3652C9.31124 54.3534 9.41111 54.3776 9.49376 54.4335C9.57641 54.4894 9.63634 54.5731 9.66262 54.6696L13.5804 69.2147C13.9829 70.7042 14.2075 72.2365 14.2495 73.7792C14.4099 79.8211 14.3397 85.9454 14.0412 91.9773C13.8422 95.9928 13.1171 101.871 12.6774 104.842C12.6591 104.98 12.594 105.107 12.4931 105.201C12.3923 105.296 12.2619 105.353 12.124 105.363C12.1066 105.364 12.0891 105.365 12.0717 105.365ZM9.26524 54.7376L9.25716 54.7376C9.25221 54.7375 9.24727 54.7384 9.24271 54.7404C9.23815 54.7423 9.23404 54.7452 9.23069 54.7489C9.22733 54.7525 9.2248 54.7569 9.22325 54.7616C9.2217 54.7663 9.22119 54.7713 9.22173 54.7763C9.03517 61.7016 8.99099 68.7193 9.08551 75.6416C9.16076 81.1625 9.32804 86.759 9.583 92.2749C9.776 95.1052 10.1505 97.9201 10.7042 100.702C10.9971 102.169 11.4505 103.579 11.8509 104.824C11.8673 104.874 11.9002 104.918 11.9443 104.947C11.9884 104.977 12.0411 104.99 12.094 104.986C12.1468 104.982 12.1967 104.96 12.2355 104.924C12.2744 104.888 12.2999 104.839 12.308 104.787C12.7433 101.823 13.4697 95.9597 13.6674 91.958C13.9659 85.9342 14.0362 79.8211 13.8757 73.7886C13.8343 72.2756 13.614 70.7729 13.2197 69.312L9.30192 54.7675C9.30083 54.7588 9.29643 54.7508 9.28959 54.7452C9.28276 54.7396 9.27402 54.7369 9.26524 54.7376Z" fill="#C9CBDF"/>
<path d="M10.155 93.4588C10.1687 93.7707 10.1817 94.0827 10.196 94.3946C10.318 96.1831 10.555 97.9619 10.9056 99.7197C11.089 100.637 11.367 101.507 11.6313 102.329C11.6499 102.386 11.6872 102.435 11.7372 102.469C11.7871 102.502 11.8468 102.518 11.9067 102.513C11.9665 102.508 12.023 102.483 12.0669 102.442C12.1108 102.401 12.1396 102.346 12.1487 102.286C12.408 100.531 12.8147 97.2515 12.9727 94.7758L10.155 93.4588Z" fill="#5A6A82"/>
<path opacity="0.85" d="M12.5803 94.5945C12.3744 97.2673 11.9851 100.448 11.7009 102.444C11.7365 102.477 11.7805 102.501 11.8282 102.511C11.8759 102.521 11.9255 102.518 11.9717 102.502C12.0178 102.486 12.0587 102.458 12.0899 102.42C12.1211 102.382 12.1414 102.337 12.1487 102.289C12.408 100.533 12.8147 97.2536 12.9727 94.778L12.5803 94.5945Z" fill="#4A5564"/>
<path d="M61.493 54.7221C61.5073 54.6691 61.5402 54.6231 61.5855 54.5924C61.6308 54.5616 61.6857 54.5483 61.74 54.5547C61.7943 54.5611 61.8445 54.5869 61.8815 54.6274C61.9184 54.6678 61.9397 54.7203 61.9414 54.7751C62.1209 61.5067 62.1663 68.4643 62.0776 75.6479C61.9996 81.3392 61.8338 86.8857 61.5801 92.2875C61.3862 95.1273 61.0098 97.9516 60.4533 100.743C60.1628 102.199 59.7207 103.581 59.3009 104.885C59.2715 104.976 59.2123 105.055 59.1329 105.108C59.0536 105.161 58.9587 105.186 58.8637 105.178C58.7686 105.17 58.679 105.13 58.6092 105.065C58.5395 105 58.4938 104.913 58.4795 104.818C58.0348 101.806 57.316 95.9698 57.1182 91.9712C56.8011 85.5655 56.7588 79.4931 56.9099 73.7874C56.9514 72.2595 57.1737 70.7419 57.5722 69.2666C58.8781 64.418 60.185 59.5699 61.493 54.7221Z" fill="#5A6A82"/>
<path opacity="0.85" d="M56.9117 73.7839C56.9533 72.2559 57.1756 70.7383 57.574 69.263C58.8807 64.4153 60.1867 59.5671 61.4917 54.7185C61.5061 54.6655 61.5389 54.6195 61.5842 54.5888C61.6296 54.5581 61.6844 54.5447 61.7387 54.5511C61.7931 54.5576 61.8433 54.5833 61.8802 54.6238C61.9172 54.6643 61.9385 54.7167 61.9401 54.7715C61.9551 55.3539 61.9694 55.9362 61.983 56.5185C60.8388 60.7669 59.6944 65.0146 58.5497 69.2618C58.1513 70.7371 57.9289 72.2547 57.8874 73.7826C57.7363 79.4851 57.7786 85.5607 58.0958 91.9664C58.2873 95.8414 58.9664 101.442 59.4154 104.526C59.3776 104.645 59.3397 104.763 59.3016 104.881C59.2721 104.972 59.2129 105.05 59.1335 105.103C59.0542 105.156 58.9593 105.181 58.8642 105.173C58.7692 105.165 58.6796 105.125 58.6099 105.06C58.5401 104.995 58.4944 104.908 58.4801 104.813C58.0354 101.801 57.3166 95.965 57.1188 91.9664C56.8029 85.562 56.7606 79.4889 56.9117 73.7839Z" fill="#4A5564"/>
<path opacity="0.15" d="M60.034 74.4635C60.0711 73.1059 60.2688 71.7576 60.6229 70.4468C61.1204 68.6037 61.6169 66.7607 62.1123 64.9177C62.1371 68.437 62.1256 72.014 62.0775 75.6489C61.9995 81.3402 61.8337 86.8867 61.58 92.2885C61.4556 94.1053 61.246 96.0737 60.914 98.1644C60.6161 95.685 60.3269 92.8369 60.2175 90.6227C59.9376 84.9289 59.8997 79.5302 60.034 74.4635Z" fill="white"/>
<path d="M61.6453 90.802C61.6237 91.2982 61.602 91.7934 61.58 92.2875C61.3861 95.1273 61.0097 97.9516 60.4532 100.743C60.1627 102.199 59.7206 103.581 59.3008 104.885C59.2714 104.976 59.2122 105.055 59.1328 105.108C59.0535 105.161 58.9586 105.186 58.8636 105.178C58.7685 105.17 58.6789 105.13 58.6091 105.065C58.5394 105 58.4937 104.913 58.4794 104.818C58.0677 102.03 57.4222 96.8233 57.1734 92.8927L61.6453 90.802Z" fill="#EFEFEF"/>
<path d="M57.0156 92.4485L57.3433 93.1828L61.6267 91.2799L61.7654 90.3384L57.0156 92.4485Z" fill="#C9CBDF"/>
<path d="M58.847 105.364C58.7091 105.355 58.5787 105.298 58.4779 105.203C58.377 105.108 58.3119 104.981 58.2936 104.844C57.8539 101.872 57.1288 95.9944 56.9298 91.9789C56.6313 85.9458 56.561 79.8227 56.7215 73.7808C56.7635 72.2381 56.9881 70.7059 57.3906 69.2163L61.3084 54.6712C61.3346 54.5747 61.3946 54.491 61.4772 54.4351C61.5599 54.3792 61.6597 54.355 61.7587 54.3668C61.8577 54.3786 61.9491 54.4256 62.0164 54.4993C62.0837 54.5731 62.1225 54.6686 62.1255 54.7685C62.3121 61.6939 62.3568 68.7216 62.2623 75.6494C62.1864 81.1741 62.0198 86.7743 61.7648 92.299C61.5701 95.1469 61.1927 97.9793 60.6349 100.779C60.3383 102.266 59.8806 103.688 59.477 104.942C59.4391 105.066 59.3624 105.174 59.2583 105.25C59.1542 105.327 59.0283 105.368 58.8992 105.367C58.8818 105.367 58.8644 105.366 58.847 105.364ZM61.6715 54.7698L57.7538 69.3143C57.3594 70.7752 57.1392 72.2779 57.0977 73.7908C56.9373 79.8234 57.0076 85.9364 57.3061 91.9602C57.5038 95.962 58.2277 101.825 58.6654 104.789C58.6736 104.842 58.6991 104.89 58.738 104.926C58.7768 104.962 58.8266 104.984 58.8795 104.988C58.9323 104.993 58.9851 104.979 59.0291 104.949C59.0732 104.92 59.1061 104.876 59.1225 104.826C59.5224 103.582 59.9763 102.171 60.2692 100.704C60.825 97.9224 61.2016 95.1076 61.3967 92.2772C61.6498 86.7612 61.817 81.1648 61.8942 75.6438C61.9887 68.7216 61.9427 61.7014 61.758 54.7785C61.7585 54.7736 61.758 54.7686 61.7564 54.7638C61.7549 54.7591 61.7523 54.7548 61.749 54.7511C61.7456 54.7474 61.7415 54.7445 61.737 54.7426C61.7324 54.7407 61.7275 54.7397 61.7225 54.7398L61.7144 54.7398C61.7098 54.7389 61.705 54.739 61.7004 54.7401C61.6958 54.7411 61.6915 54.7431 61.6877 54.7459C61.6839 54.7487 61.6807 54.7523 61.6784 54.7564C61.676 54.7605 61.6745 54.7651 61.674 54.7698L61.6715 54.7698Z" fill="#C9CBDF"/>
<path d="M60.819 93.4588C60.8053 93.7707 60.7922 94.0827 60.7779 94.3946C60.656 96.1831 60.419 97.9619 60.0684 99.7197C59.8818 100.637 59.607 101.507 59.3427 102.329C59.3241 102.386 59.2868 102.435 59.2368 102.469C59.1868 102.502 59.1271 102.518 59.0673 102.513C59.0074 102.508 58.951 102.483 58.9071 102.442C58.8632 102.401 58.8343 102.346 58.8253 102.286C58.566 100.531 58.1593 97.2515 58.0013 94.7758L60.819 93.4588Z" fill="#5A6A82"/>
<path opacity="0.85" d="M58.3935 94.5945C58.5993 97.2673 58.9886 100.448 59.2728 102.444C59.2373 102.477 59.1933 102.501 59.1456 102.511C59.0978 102.521 59.0482 102.518 59.0021 102.502C58.956 102.486 58.9151 102.458 58.8839 102.42C58.8527 102.382 58.8323 102.337 58.8251 102.289C58.5658 100.533 58.1591 97.2536 58.0011 94.778L58.3935 94.5945Z" fill="#4A5564"/>
<path d="M19.9886 103.81L19.1572 103.951C19.4017 97.4787 19.2964 90.9974 18.8419 84.5361C18.4235 78.6219 17.7074 72.7326 16.6965 66.8908L17.5292 66.7454C19.6481 78.9788 20.4725 91.4026 19.9886 103.81Z" fill="#E3E3E3"/>
<path d="M50.9866 103.812L51.8199 104.571C51.5755 97.8926 51.6807 91.2059 52.1352 84.5386C52.5537 78.6243 53.2697 72.7351 54.2806 66.8933L53.448 66.7479C51.3291 78.9813 50.5047 91.4051 50.9885 103.812L50.9866 103.812Z" fill="#E3E3E3"/>
<path d="M34.7925 99.8335L36.1818 99.8335C36.3013 99.8335 36.3982 99.7363 36.3982 99.6164L36.3982 95.5067C36.3982 95.3868 36.3013 95.2896 36.1818 95.2896L34.7925 95.2896C34.673 95.2896 34.5761 95.3868 34.5761 95.5067L34.5761 99.6164C34.5761 99.7363 34.673 99.8335 34.7925 99.8335Z" fill="#E3E3E3"/>
<path d="M35.1229 101.029L35.8523 101.029C35.9276 101.029 35.9885 100.968 35.9885 100.892L35.9885 97.0327C35.9885 96.9572 35.9276 96.896 35.8523 96.896L35.1229 96.896C35.0477 96.896 34.9867 96.9572 34.9867 97.0327L34.9867 100.892C34.9867 100.968 35.0477 101.029 35.1229 101.029Z" fill="#E3E3E3"/>
<path d="M6.02718 86.1427L6.02718 83.3126C6.02714 83.0482 6.07999 82.7865 6.18265 82.543C6.2853 82.2996 6.43566 82.0792 6.62478 81.8951L7.52649 81.0173C7.67215 81.168 7.75221 81.3705 7.74906 81.5804C7.74591 81.7903 7.65981 81.9903 7.50969 82.1366L7.17389 82.4635C7.06079 82.5739 6.97089 82.7059 6.90948 82.8518C6.84807 82.9976 6.81639 83.1543 6.81632 83.3126L6.81632 86.1433C6.81589 86.2987 6.84617 86.4527 6.90541 86.5963C6.96465 86.7399 7.05167 86.8703 7.16144 86.98L7.66331 88.2396L7.48234 88.4212L6.60365 87.5396C6.42076 87.3562 6.2757 87.1384 6.17679 86.8987C6.07787 86.659 6.02703 86.4021 6.02718 86.1427Z" fill="#E0E0E0"/>
<path d="M7.74036 86.0032L6.02714 86.0032L6.02714 86.6546C6.02706 87.5274 6.30459 88.3774 6.81937 89.081L7.74036 90.3394L7.74036 86.0032Z" fill="#E0E0E0"/>
<path d="M7.34617 56.1022L7.21123 56.1247C6.3467 56.2663 5.51249 56.5545 4.74431 56.9769L1.78733 58.6035C1.39502 58.8178 1.04971 59.1092 0.771947 59.4602C0.49418 59.8113 0.289637 60.2148 0.170489 60.6467C0.170489 60.6542 0.166129 60.6611 0.164264 60.6686C0.0389663 61.1395 -0.0151223 61.6266 0.00381759 62.1135C0.00585082 62.1716 0.0202208 62.2286 0.0459643 62.2806C0.0717068 62.3327 0.108228 62.3786 0.15309 62.4153C0.19795 62.4521 0.250118 62.4788 0.306096 62.4937C0.362073 62.5085 0.420577 62.5112 0.477685 62.5016L0.491987 62.5016C1.12802 62.3944 1.7469 62.2022 2.3321 61.9301L7.52775 59.5156L8.27399 57.9671C8.4034 57.5921 8.42982 57.1891 8.35048 56.8004L8.35048 56.7891C8.30399 56.5666 8.17346 56.3708 7.98623 56.2428C7.79899 56.1147 7.56961 56.0643 7.34617 56.1022Z" fill="#E3E3E3"/>
<path d="M0.160407 62.1079L0.146743 62.1079C0.0988403 62.1167 0.0497465 62.1167 0.00184396 62.1079L0.00184396 62.1135C0.00387624 62.1716 0.0182472 62.2286 0.0439897 62.2806C0.0697327 62.3327 0.106254 62.3786 0.151115 62.4153C0.195977 62.4521 0.248144 62.4788 0.304121 62.4937C0.360099 62.5085 0.418602 62.5112 0.475711 62.5016L0.490013 62.5016C1.12605 62.3944 1.7449 62.2022 2.3301 61.9301L7.45363 59.5487L7.72974 58.888L2.00113 61.5383C1.41562 61.8097 0.796553 62.0013 0.160407 62.1079Z" fill="#5A6A82"/>
<path d="M0.146752 62.1078L0.160416 62.1078C0.468011 62.0559 0.771938 61.984 1.07022 61.8926L1.31897 58.9171C0.76159 59.3554 0.359192 59.9617 0.171013 60.6466C0.171013 60.6541 0.166654 60.661 0.164789 60.6685C0.0397991 61.1375 -0.0142891 61.6227 0.00434303 62.1078C0.0514367 62.1163 0.0996585 62.1163 0.146752 62.1078Z" fill="#EDEDED"/>
<path d="M8.3473 56.7961L8.3473 56.7849C8.30067 56.5636 8.17087 56.3689 7.9849 56.2411C7.79893 56.1133 7.57107 56.0622 7.34858 56.0986L7.21364 56.121C6.83958 56.1826 6.47062 56.272 6.10984 56.3887C6.36143 56.7425 6.56004 57.1314 6.69936 57.5429C6.94461 58.2775 6.99749 59.0629 6.85294 59.8239L7.52828 59.512L8.27451 57.9634C8.40279 57.5879 8.42795 57.1847 8.3473 56.7961Z" fill="#C9CBDF"/>
<path d="M6.63462 59.926L6.62406 60.4588C6.62333 60.4954 6.63267 60.5316 6.65108 60.5632C6.66949 60.5948 6.69624 60.6207 6.72839 60.6381C6.76053 60.6554 6.79685 60.6635 6.8333 60.6615C6.86975 60.6595 6.90493 60.6475 6.93499 60.6267L7.152 60.4769C7.28677 60.3838 7.38019 60.2417 7.41256 60.0807L7.52576 59.5124L6.63462 59.926Z" fill="#E0E0E0"/>
<path opacity="0.85" d="M53.2651 117.439C53.1898 117.615 53.0955 117.782 52.984 117.938L52.974 117.952C52.7546 118.254 52.4881 118.518 52.1849 118.735C51.8379 118.852 51.4026 118.985 50.9206 119.119C47.5953 120.05 44.1884 120.657 40.747 120.933C39.4609 121.037 38.0773 121.135 36.8385 121.191L36.8385 121.218C36.4573 121.238 35.9978 121.242 35.486 121.234C34.9748 121.242 34.5153 121.238 34.1341 121.218L34.1341 121.191C32.8953 121.135 31.5117 121.037 30.2257 120.933C26.7843 120.657 23.3773 120.05 20.052 119.119C19.57 118.983 19.1347 118.852 18.7877 118.735C18.4845 118.518 18.2181 118.254 17.9986 117.952L17.9887 117.938C17.8769 117.782 17.7826 117.615 17.7076 117.439C17.6388 118.129 17.5699 118.819 17.5011 119.508C17.4305 120.171 17.6039 120.837 17.9887 121.38L17.9986 121.394C18.2181 121.696 18.4845 121.96 18.7877 122.177C19.1347 122.295 19.57 122.427 20.052 122.561C23.3774 123.492 26.7843 124.099 30.2257 124.375C31.5117 124.479 32.8953 124.577 34.1341 124.632L34.1341 124.66C34.5153 124.68 34.9748 124.684 35.486 124.676C35.9978 124.684 36.4573 124.68 36.8385 124.66L36.8385 124.632C38.0773 124.577 39.4609 124.479 40.747 124.375C44.1883 124.099 47.5952 123.492 50.9206 122.561C51.4026 122.425 51.8379 122.295 52.1849 122.177C52.4881 121.96 52.7546 121.696 52.974 121.394L52.984 121.38C53.3687 120.837 53.5421 120.171 53.4715 119.508C53.4031 118.818 53.3343 118.128 53.2651 117.439Z" fill="#4A5564"/>
<path d="M35.9662 125.057C35.8145 125.057 35.6553 125.057 35.488 125.053C34.9488 125.062 34.4874 125.056 34.1161 125.037L33.7493 125.018L33.7493 124.992C32.7294 124.941 31.5367 124.859 30.1972 124.751C26.7318 124.472 23.3012 123.86 19.9526 122.923C19.4327 122.777 19.0011 122.646 18.6697 122.534L18.6168 122.516L18.5714 122.484C18.2353 122.243 17.9401 121.95 17.6971 121.616L17.6847 121.598C17.2474 120.981 17.0499 120.225 17.1293 119.472L18.475 105.985C18.577 104.915 19.0414 103.912 19.7909 103.144C19.9565 102.977 20.1335 102.822 20.3207 102.68C20.3618 102.649 20.4028 102.618 20.4451 102.589C21.2513 102.022 22.2138 101.723 23.1981 101.731L47.7778 101.731C48.762 101.723 49.7241 102.023 50.5302 102.589C50.5719 102.618 50.6129 102.652 50.6546 102.68C50.8418 102.822 51.0189 102.977 51.1844 103.144C51.9339 103.912 52.3983 104.915 52.5003 105.985L53.846 119.472C53.9254 120.226 53.7275 120.982 53.2894 121.6L53.2776 121.616C53.0348 121.951 52.7398 122.244 52.4039 122.484L52.3585 122.516L52.3056 122.534C51.9742 122.646 51.5426 122.777 51.0227 122.923C47.6741 123.86 44.2435 124.472 40.7782 124.751C39.4387 124.859 38.2459 124.938 37.2261 124.992L37.2261 125.018L36.8592 125.037C36.603 125.05 36.3039 125.057 35.9662 125.057ZM35.488 124.299L35.4936 124.299C35.8511 124.305 36.172 124.305 36.4531 124.299L36.4531 124.274L36.8225 124.257C37.9114 124.209 39.2216 124.122 40.7179 124.001C44.135 123.726 47.5179 123.123 50.82 122.199C51.2988 122.064 51.6993 121.943 52.0115 121.84C52.2638 121.653 52.4861 121.428 52.6707 121.173L52.6788 121.162C53.0105 120.694 53.16 120.12 53.0991 119.548L51.7528 106.061C51.6683 105.163 51.2794 104.321 50.6509 103.677C50.5106 103.535 50.3603 103.403 50.2013 103.282C50.1664 103.256 50.1316 103.23 50.0961 103.205C49.4171 102.729 48.6068 102.478 47.7785 102.486L23.1981 102.486C22.3698 102.478 21.5594 102.729 20.8804 103.205C20.845 103.23 20.8101 103.256 20.7747 103.282C20.616 103.403 20.4659 103.535 20.3257 103.677C19.6972 104.321 19.3083 105.163 19.2238 106.061L17.8774 119.546C17.816 120.116 17.9649 120.69 18.296 121.158L18.3059 121.172C18.4904 121.426 18.7125 121.65 18.9645 121.837C19.2754 121.941 19.6771 122.062 20.1559 122.197C23.4583 123.12 26.8414 123.724 30.2587 123.998C31.7543 124.123 33.0652 124.206 34.1535 124.255L34.5228 124.272L34.5228 124.297C34.8039 124.303 35.1248 124.304 35.4824 124.297L35.488 124.299Z" fill="#C9CBDF"/>
<path d="M7.41079 127.808L8.65451 132.44L9.01831 132.347L7.77459 127.701L7.76523 127.673C7.64023 127.379 7.47421 127.103 7.27212 126.856L5.79455 125.041L5.853 125.229C5.87218 125.29 5.88552 125.352 5.89281 125.416L5.93884 125.815L6.97734 127.095C7.15395 127.311 7.29983 127.551 7.41079 127.808Z" fill="#C9CBDF"/>
<path d="M8.61102 131.578L8.61102 133.751C9.08862 134.526 9.62127 135.266 10.2048 135.964C12.0503 138.17 14.367 139.93 16.9832 141.115L8.61102 131.578Z" fill="#B02C35"/>
<path opacity="0.1" d="M8.61099 132.607C10.4219 135.471 12.8537 137.889 15.7251 139.68L8.61099 131.577L8.61099 132.607Z" fill="white"/>
<path d="M17.0894 141.019C17.1109 141.043 17.1236 141.074 17.1251 141.106C17.1266 141.138 17.1169 141.17 17.0977 141.196C17.0785 141.222 17.0509 141.241 17.0196 141.249C16.9883 141.257 16.9552 141.254 16.9258 141.241C14.2917 140.045 11.9581 138.272 10.0966 136.052C9.69234 135.568 9.07108 134.673 8.72532 134.166C8.55903 133.922 8.47017 133.633 8.47039 133.338L8.47039 131.201L17.0894 141.019ZM8.75208 133.278C8.75179 133.566 8.83545 133.848 8.99274 134.089C9.39753 134.71 9.83837 135.305 10.313 135.874C11.999 137.884 14.0799 139.525 16.4259 140.693L8.75208 131.953L8.75208 133.278Z" fill="#C9CBDF"/>
<path d="M64.9082 102.959L65.0089 105.462C65.0146 105.589 65.0281 105.716 65.0493 105.842C64.2863 110.388 63.5413 115.969 63.1041 122.335C62.8193 126.485 62.5737 130.307 62.3641 133.752C60.3676 136.989 57.4517 139.553 53.9913 141.115C56.0789 135.755 58.1242 129.865 59.9929 123.473C62.1266 116.176 63.7167 109.292 64.9082 102.959Z" fill="#EFEFEF"/>
<path d="M64.948 86.1427L64.948 83.3126C64.948 83.0482 64.8952 82.7865 64.7925 82.543C64.6899 82.2996 64.5395 82.0792 64.3504 81.8951L63.4487 81.0173C63.303 81.168 63.223 81.3705 63.2261 81.5804C63.2293 81.7903 63.3154 81.9903 63.4655 82.1366L63.8013 82.4635C63.9144 82.5739 64.0043 82.7059 64.0657 82.8518C64.1271 82.9976 64.1588 83.1543 64.1589 83.3126L64.1589 86.1433C64.1593 86.2987 64.129 86.4527 64.0698 86.5963C64.0105 86.7399 63.9235 86.8703 63.8137 86.98L63.3119 88.2396L63.4928 88.4212L64.3715 87.5377C64.7404 87.1678 64.9478 86.666 64.948 86.1427Z" fill="#E0E0E0"/>
<path d="M63.2348 86.0032L64.948 86.0032L64.948 86.6546C64.9481 87.5274 64.6705 88.3774 64.1558 89.081L63.2348 90.3394L63.2348 86.0032Z" fill="#E0E0E0"/>
<path d="M63.6289 56.1022L63.7639 56.1247C64.6284 56.2663 65.4626 56.5545 66.2308 56.9769L69.1878 58.6035C69.5801 58.8178 69.9254 59.1092 70.2032 59.4602C70.4809 59.8113 70.6855 60.2148 70.8046 60.6467C70.8046 60.6542 70.809 60.6611 70.8108 60.6686C70.9361 61.1395 70.9902 61.6266 70.9713 62.1136C70.9693 62.1716 70.9549 62.2286 70.9291 62.2806C70.9034 62.3327 70.8669 62.3786 70.822 62.4153C70.7772 62.4521 70.725 62.4788 70.669 62.4937C70.613 62.5085 70.5545 62.5112 70.4974 62.5016L70.4831 62.5016C69.8471 62.3944 69.2282 62.2022 68.643 61.9301L63.4474 59.5156L62.7011 57.9671C62.5717 57.5921 62.5453 57.1891 62.6246 56.8004L62.6246 56.7891C62.6711 56.5666 62.8017 56.3708 62.9889 56.2428C63.1761 56.1147 63.4055 56.0643 63.6289 56.1022Z" fill="#E3E3E3"/>
<path d="M70.8147 62.1079L70.8284 62.1079C70.8763 62.1167 70.9254 62.1167 70.9733 62.1079L70.9733 62.1136C70.9712 62.1716 70.9569 62.2286 70.9311 62.2806C70.9054 62.3327 70.8689 62.3786 70.824 62.4153C70.7791 62.4521 70.727 62.4788 70.671 62.4937C70.615 62.5085 70.5565 62.5112 70.4994 62.5016L70.4851 62.5016C69.8491 62.3944 69.2302 62.2022 68.645 61.9301L63.5215 59.5487L63.2454 58.888L68.974 61.5383C69.5595 61.8097 70.1786 62.0013 70.8147 62.1079Z" fill="#5A6A82"/>
<path d="M70.8284 62.1078L70.8147 62.1078C70.5071 62.0559 70.2032 61.984 69.9049 61.8926L69.6562 58.9171C70.2135 59.3554 70.6159 59.9617 70.8041 60.6466C70.8041 60.6541 70.8085 60.661 70.8103 60.6685C70.9353 61.1375 70.9894 61.6227 70.9708 62.1078C70.9237 62.1163 70.8755 62.1163 70.8284 62.1078Z" fill="#EDEDED"/>
<path d="M62.6277 56.7961L62.6277 56.7849C62.6743 56.5636 62.8041 56.3689 62.9901 56.2411C63.176 56.1133 63.4039 56.0622 63.6264 56.0986L63.7613 56.121C64.1354 56.1826 64.5043 56.272 64.8651 56.3887C64.6135 56.7425 64.4149 57.1314 64.2756 57.5429C64.0303 58.2775 63.9775 59.0629 64.122 59.8239L63.4467 59.512L62.7004 57.9634C62.5722 57.5879 62.547 57.1847 62.6277 56.7961Z" fill="#C9CBDF"/>
<path d="M64.3403 59.9259L64.3509 60.4587C64.3516 60.4953 64.3423 60.5314 64.3239 60.563C64.3055 60.5947 64.2787 60.6206 64.2466 60.6379C64.2144 60.6553 64.1782 60.6634 64.1417 60.6614C64.1053 60.6594 64.07 60.6473 64.04 60.6265L63.823 60.4768C63.6882 60.3836 63.5948 60.2416 63.5624 60.0806L63.4492 59.5122L64.3403 59.9259Z" fill="#E0E0E0"/>
<path d="M63.5643 127.808L62.3206 132.44L61.9568 132.347L63.2005 127.701L63.2099 127.673C63.3349 127.379 63.5009 127.103 63.703 126.856L65.1805 125.041L65.1221 125.229C65.1029 125.29 65.0896 125.352 65.0823 125.416L65.0363 125.815L63.9978 127.095C63.8209 127.311 63.675 127.551 63.5643 127.808Z" fill="#C9CBDF"/>
<path d="M60.7622 25.9857C60.4569 21.0569 60.0471 16.0656 59.5434 11.1486C52.2019 7.56808 44.1579 5.67254 35.9953 5.59958C35.8261 5.59958 35.657 5.59958 35.4872 5.59958C35.3174 5.59958 35.1489 5.59958 34.9798 5.59958C26.8172 5.67254 18.7732 7.56808 11.4317 11.1486C10.928 16.0644 10.5182 21.055 10.2129 25.9857C9.77755 32.9953 9.54122 40.1116 9.50764 47.1362C9.50573 47.6922 9.65632 48.2381 9.94294 48.714C10.2228 49.1807 10.4833 49.5981 10.8832 50.1858L12.9161 50.1858C15.5538 48.539 18.3752 47.2088 21.3224 46.2228C27.0056 44.3167 32.0862 44.0204 35.4885 44.0934C38.8913 44.0204 43.9719 44.3167 49.6551 46.2228C52.6023 47.2088 55.4238 48.539 58.0615 50.1858L60.0906 50.1858C60.4905 49.5981 60.751 49.1807 61.0309 48.714C61.3175 48.2381 61.4681 47.6922 61.4662 47.1362C61.4338 40.1116 61.1969 32.9953 60.7622 25.9857Z" fill="#EFEFEF"/>
<path d="M62.3643 131.578L62.3643 133.751C61.8867 134.526 61.354 135.266 60.7704 135.964C58.9249 138.17 56.6082 139.93 53.9921 141.115L62.3643 131.578Z" fill="#B02C35"/>
<path opacity="0.1" d="M62.3643 132.607C60.5533 135.471 58.1216 137.889 55.2502 139.68L62.3643 131.577L62.3643 132.607Z" fill="white"/>
<path d="M62.5045 131.201L62.5045 133.338C62.5047 133.633 62.4159 133.922 62.2496 134.166C61.9038 134.673 61.2826 135.568 60.8784 136.052C59.0168 138.272 56.6832 140.045 54.0491 141.241C54.0197 141.254 53.9866 141.257 53.9553 141.249C53.924 141.241 53.8964 141.222 53.8772 141.196C53.858 141.17 53.8483 141.138 53.8498 141.106C53.8513 141.074 53.864 141.043 53.8855 141.018L62.5045 131.201ZM62.2228 131.95L54.549 140.69C56.895 139.522 58.9759 137.882 60.6619 135.871C61.1365 135.303 61.5774 134.707 61.9822 134.087C62.1395 133.846 62.2231 133.564 62.2228 133.276L62.2228 131.95Z" fill="#C9CBDF"/>
<path d="M60.9714 25.9756C60.6661 21.0399 60.2544 16.043 59.7488 11.1229L59.7376 11.0124L59.6381 10.9631C52.2714 7.35235 44.1928 5.44041 35.9943 5.36732C35.8257 5.36732 35.6566 5.36732 35.4874 5.36732C35.3183 5.36732 35.1498 5.36732 34.9813 5.36732C26.7825 5.44031 18.7038 7.35225 11.3368 10.9631L11.2373 11.0124L11.2261 11.1229C10.7205 16.043 10.3089 21.0399 10.0035 25.9756C9.57195 32.9396 9.33626 40.0097 9.30268 46.9894C9.30034 47.6149 9.4692 48.2291 9.79085 48.765C10.0912 49.2641 11.5489 51.2407 11.9997 51.8983L12.3299 51.6699C11.8853 51.0211 10.4314 49.0495 10.1347 48.5572C9.85079 48.0849 9.70173 47.5434 9.70379 46.9919C9.73737 40.0197 9.97244 32.954 10.4034 26.0005C10.7069 21.1072 11.1136 16.154 11.6135 11.2763C18.8993 7.72269 26.8823 5.84141 34.9831 5.76912C35.151 5.76912 35.3189 5.76912 35.4868 5.76912C35.6547 5.76912 35.8233 5.76912 35.9912 5.76912C44.0919 5.84141 52.075 7.72269 59.3608 11.2763C59.8582 16.1547 60.2675 21.1079 60.5709 26.0005C61.0019 32.9571 61.2369 40.0197 61.2705 46.9919C61.2726 47.5434 61.1235 48.0849 60.8396 48.5573C60.5429 49.052 59.2389 51.031 58.7936 51.6768L59.1245 51.9051C59.5747 51.2475 60.8831 49.2629 61.1834 48.7619C61.5051 48.226 61.6739 47.6118 61.6716 46.9863C61.6386 40.0097 61.403 32.9396 60.9714 25.9756Z" fill="#C9CBDF"/>
<path d="M21.9748 4.56148L23.3747 2.94805C23.4742 2.8338 23.5269 2.68592 23.522 2.53424C23.5172 2.38256 23.4552 2.23837 23.3486 2.13074L23.3392 2.12138C23.2466 2.02949 23.1265 1.97065 22.9973 1.95385C22.8681 1.93706 22.737 1.96325 22.6241 2.02842C21.5507 2.64172 18.4334 4.4498 16.5665 5.80492C16.3551 5.9584 16.1486 6.11188 15.9447 6.26536C17.6559 5.45412 19.4802 4.90863 21.3549 4.64757L21.9748 4.56148Z" fill="#C9CBDF"/>
<path d="M17.8076 5.26669C17.6515 5.32471 17.4967 5.38397 17.3381 5.44387C17.0927 5.53829 16.8512 5.64227 16.6136 5.75582C16.8508 5.6431 17.0922 5.53912 17.3381 5.44387C17.4929 5.38397 17.6515 5.32471 17.8076 5.26669Z" fill="#B3B3B3"/>
<path d="M21.9489 4.39079L21.986 4.34817L21.9489 4.39079Z" fill="#BFBFBF"/>
<path d="M9.61037 14.5323L6.50415 17.4609C6.47073 17.6471 6.3883 17.8209 6.26537 17.9644L5.96685 18.3119C5.84963 18.4492 5.75019 18.6007 5.67086 18.763L9.8678 14.8068L9.61037 14.5323Z" fill="#C9CBDF"/>
<path d="M18.2705 5.09629C17.9664 5.20547 17.6486 5.32152 17.3377 5.44193C16.3555 5.82057 15.4363 6.34648 14.6114 7.0017C13.0954 8.20356 11.6453 9.48696 10.2677 10.8462C9.6623 11.4416 9.2764 12.2256 9.17322 13.0698C9.03516 14.2109 8.98231 15.6578 9.42694 16.2399C9.61306 16.4825 9.83714 16.6932 10.0905 16.8638C10.2699 16.9854 10.4875 17.0368 10.7021 17.0086C10.9168 16.9803 11.1138 16.8742 11.2558 16.7103L21.9855 4.34387C21.9718 4.34387 21.9544 4.3476 21.9339 4.34885C20.6842 4.42755 19.4514 4.67907 18.2705 5.09629Z" fill="#BFBFBF"/>
<path d="M18.4296 6.14776C17.023 7.26393 12.8708 10.8027 11.8024 11.8565C11.2865 12.3648 10.9576 13.0337 10.8696 13.7538C10.7521 14.7277 10.7073 15.9624 11.0867 16.4591C11.1419 16.5318 11.2016 16.6012 11.2651 16.6668L20.0427 6.55393C19.5639 6.65313 19.1342 5.58937 18.4296 6.14776Z" fill="#D9D9D9"/>
<path d="M21.9343 4.35599C20.6846 4.43334 19.4516 4.68382 18.2703 5.10031C18.0371 5.18329 17.7977 5.2719 17.5577 5.36236L19.1049 7.67082L21.986 4.35037C21.9704 4.35287 21.9549 4.35475 21.9343 4.35599Z" fill="#F19E30"/>
<path opacity="0.35" d="M20.7616 4.48173L11.5232 15.1299C11.3848 15.2899 11.1928 15.3935 10.9835 15.421C10.7742 15.4486 10.562 15.3984 10.3871 15.2797C10.1397 15.1127 9.92106 14.9064 9.73973 14.6689C9.36661 14.1822 9.35293 13.0779 9.44061 12.0716C9.3058 12.3902 9.21622 12.7262 9.17447 13.0698C9.03641 14.2109 8.98356 15.6578 9.42819 16.2399C9.61431 16.4824 9.83839 16.6931 10.0917 16.8638C10.2711 16.9853 10.4887 17.0368 10.7034 17.0086C10.918 16.9803 11.115 16.8742 11.2571 16.7103L21.9867 4.34385C21.973 4.34385 21.9556 4.34759 21.9351 4.34883C21.5415 4.38003 21.1503 4.42371 20.7616 4.48173Z" fill="#C9CBDF"/>
<path d="M10.586 17.1617C10.3816 17.162 10.1819 17.1007 10.0126 16.9858C9.74627 16.8057 9.51083 16.5834 9.31553 16.3276C8.83234 15.6943 8.89516 14.1982 9.03383 13.0552C9.14149 12.1791 9.54173 11.3654 10.1693 10.7467C11.5503 9.3842 13.0034 8.09729 14.5224 6.8916C15.3582 6.22702 16.2898 5.69375 17.2853 5.31C17.577 5.19708 17.8923 5.08103 18.2181 4.96311C19.4118 4.54295 20.6575 4.28996 21.9201 4.2113L21.9617 4.20757L22.3348 4.1564L11.3584 16.8061C11.2624 16.9173 11.1438 17.0065 11.0106 17.0679C10.8773 17.1292 10.7326 17.1612 10.586 17.1617ZM21.6552 4.51702C20.5174 4.6108 19.3964 4.85068 18.3195 5.23077C17.993 5.34744 17.6802 5.46348 17.3904 5.57454C16.4217 5.94883 15.5149 6.46796 14.7009 7.11434C13.1894 8.31381 11.7433 9.59404 10.369 10.9495C9.78719 11.523 9.41575 12.2769 9.31492 13.0889C9.12836 14.6318 9.20918 15.7211 9.54125 16.156C9.71815 16.3873 9.93109 16.5885 10.1718 16.7518C10.3228 16.8539 10.5058 16.897 10.6864 16.8731C10.8669 16.8492 11.0324 16.7599 11.1519 16.6221L21.6552 4.51702Z" fill="#C9CBDF"/>
<path d="M49.0002 4.56149L47.6004 2.94806C47.5008 2.8338 47.4482 2.68593 47.453 2.53425C47.4579 2.38257 47.5199 2.23837 47.6265 2.13075L47.6358 2.12138C47.7285 2.0295 47.8486 1.97065 47.9778 1.95386C48.107 1.93706 48.2381 1.96325 48.351 2.02842C49.4243 2.64172 52.5417 4.4498 54.4085 5.80493C54.62 5.95841 54.8264 6.11188 55.0304 6.26536C53.3191 5.45412 51.4949 4.90863 49.6202 4.64758L49.0002 4.56149Z" fill="#C9CBDF"/>
<path d="M53.1675 5.26668C53.3235 5.3247 53.4784 5.38396 53.637 5.44386C53.8828 5.53828 54.1243 5.64226 54.3615 5.75581C54.1247 5.64309 53.8832 5.53911 53.637 5.44386C53.4809 5.38396 53.3235 5.3247 53.1675 5.26668Z" fill="#B3B3B3"/>
<path d="M49.0266 4.39079L48.9895 4.34818L49.0266 4.39079Z" fill="#BFBFBF"/>
<path d="M61.3647 14.5323L64.4709 17.4609C64.5043 17.6471 64.5868 17.8209 64.7097 17.9644L65.0082 18.3119C65.1254 18.4492 65.2249 18.6007 65.3042 18.763L61.1073 14.8068L61.3647 14.5323Z" fill="#C9CBDF"/>
<path d="M52.7047 5.09629C53.0088 5.20547 53.3266 5.32152 53.6375 5.44194C54.6196 5.82058 55.5388 6.34648 56.3638 7.0017C57.8798 8.20357 59.3298 9.48696 60.7075 10.8462C61.3129 11.4416 61.6988 12.2256 61.802 13.0698C61.94 14.2109 61.9929 15.6578 61.5482 16.2399C61.3621 16.4825 61.138 16.6932 60.8847 16.8638C60.7053 16.9854 60.4877 17.0369 60.2731 17.0086C60.0584 16.9803 59.8614 16.8742 59.7193 16.7103L48.9897 4.34387C49.0034 4.34387 49.0208 4.3476 49.0413 4.34885C50.2909 4.42755 51.5237 4.67908 52.7047 5.09629Z" fill="#BFBFBF"/>
<path d="M52.5454 6.14777C53.9521 7.26394 58.1043 10.8027 59.1726 11.8565C59.6886 12.3648 60.0175 13.0337 60.1054 13.7538C60.223 14.7277 60.2677 15.9624 59.8884 16.4591C59.8331 16.5318 59.7735 16.6012 59.7099 16.6668L50.9342 6.55393C51.4111 6.65313 51.8409 5.58937 52.5454 6.14777Z" fill="#D9D9D9"/>
<path d="M35.8168 35.5143C35.7073 35.5143 35.5973 35.5143 35.4872 35.5143C35.3771 35.5143 35.2677 35.5143 35.1582 35.5143C29.8629 35.5615 24.6446 36.7912 19.8822 39.1142C19.6614 41.2698 19.4686 43.4479 19.3057 45.6216C19.3977 45.5898 19.4879 45.5592 19.5805 45.5268C25.9621 43.3861 31.6671 43.0536 35.4872 43.1353C39.3079 43.0536 45.0129 43.3849 51.3945 45.5268C51.4871 45.558 51.5773 45.5892 51.6693 45.6216C51.5064 43.4479 51.3136 41.2698 51.0928 39.1142C46.3304 36.7912 41.1121 35.5615 35.8168 35.5143Z" fill="#E3E3E3"/>
<path d="M49.0406 4.356C50.2903 4.43334 51.5233 4.68382 52.7046 5.10031C52.9378 5.18329 53.1772 5.2719 53.4172 5.36237L51.87 7.67082L48.989 4.35038C49.0026 4.35287 49.0213 4.35475 49.0406 4.356Z" fill="#F19E30"/>
<path opacity="0.35" d="M50.2134 4.48174L59.4525 15.1299C59.5909 15.2899 59.7829 15.3935 59.9922 15.421C60.2016 15.4486 60.4137 15.3984 60.5886 15.2797C60.836 15.1127 61.0546 14.9064 61.236 14.6689C61.6091 14.1822 61.6228 13.0779 61.5351 12.0716C61.6699 12.3902 61.7595 12.7262 61.8012 13.0698C61.9393 14.2109 61.9922 15.6578 61.5475 16.2399C61.3614 16.4825 61.1373 16.6932 60.884 16.8638C60.7045 16.9853 60.487 17.0369 60.2723 17.0086C60.0576 16.9803 59.8607 16.8742 59.7186 16.7103L48.989 4.34386C49.0027 4.34386 49.0201 4.34759 49.0406 4.34884C49.4336 4.38003 49.8248 4.42371 50.2134 4.48174Z" fill="#C9CBDF"/>
<path d="M59.6129 16.8093L48.6364 4.15956L49.0095 4.21071L49.0512 4.21445C50.3137 4.29312 51.5594 4.54611 52.7531 4.96626C53.0815 5.08418 53.3967 5.20023 53.6859 5.31316C54.6814 5.6969 55.613 6.23018 56.4489 6.89475C57.9678 8.10045 59.4209 9.38736 60.8019 10.7499C61.4295 11.3685 61.8298 12.1822 61.9374 13.0583C62.0761 14.2013 62.1389 15.6975 61.6557 16.3307C61.4604 16.5866 61.225 16.8089 60.9586 16.9889C60.7507 17.1295 60.4988 17.189 60.2502 17.1561C60.0016 17.1232 59.7736 17.0003 59.6092 16.8105L59.6129 16.8093ZM59.825 16.6221C59.9444 16.76 60.11 16.8492 60.2905 16.8731C60.471 16.897 60.654 16.8539 60.805 16.7519C61.0458 16.5885 61.2587 16.3873 61.4356 16.156C61.7676 15.7193 61.8479 14.6318 61.6619 13.0889C61.5603 12.2765 61.1877 11.5225 60.6048 10.9495C59.2304 9.59408 57.7844 8.31384 56.2729 7.11437C55.4588 6.468 54.5521 5.94886 53.5833 5.57457C53.2935 5.46352 52.9807 5.34747 52.6542 5.2308C51.5774 4.85071 50.4563 4.61084 49.3186 4.51706L59.825 16.6221Z" fill="#C9CBDF"/>
<path d="M35.0216 43.8034C47.521 43.6668 56.2582 49.3668 59.1212 51.4151C59.1362 50.26 59.1515 49.1054 59.1672 47.9511C55.9485 45.8461 47.4358 40.8916 35.4873 40.891C23.5202 40.891 14.9982 45.8592 11.7893 47.9592L11.7893 50.4168C11.8097 50.7412 11.8304 51.0657 11.8515 51.3901C14.765 49.3094 23.0899 43.9375 35.0216 43.8034Z" fill="#E0E0E0"/>
<path d="M18.3356 67.521C17.2548 67.521 16.2536 66.9108 15.8525 65.9382C15.1728 64.291 13.9117 61.0717 13.102 58.0033C12.5574 55.9399 12.1258 53.8482 11.8092 51.7374C11.6991 51.0018 12.043 50.2875 12.7059 49.8732C15.3716 48.2082 18.2231 46.8634 21.2018 45.8665C25.7638 44.336 30.5708 43.6135 35.4879 43.7171C40.4049 43.6135 45.2113 44.336 49.7733 45.8665C52.7519 46.8634 55.6035 48.2082 58.2692 49.8732C58.9321 50.2875 59.276 51.0018 59.1659 51.7374C58.8491 53.8481 58.4175 55.9399 57.873 58.0033C57.0646 61.0692 55.8022 64.2904 55.1225 65.9382C54.6387 67.1124 53.28 67.7581 51.9635 67.4405L51.3174 67.2846C48.2895 66.5508 45.1609 65.7928 41.523 65.6218C40.2003 65.5594 38.8453 65.5245 37.4896 65.5176L37.4896 65.5763L37.0823 65.5632C36.5804 65.5476 36.0425 65.5351 35.4847 65.527C34.9251 65.5351 34.3884 65.5476 33.8866 65.5632L33.4792 65.5763L33.4823 65.5176C32.1267 65.5245 30.7716 65.5594 29.4489 65.6218C25.8135 65.7928 22.6824 66.5508 19.6546 67.2846L19.0085 67.4405C18.7881 67.4936 18.5623 67.5207 18.3356 67.521ZM34.56 44.4608C30.1008 44.452 25.6695 45.1684 21.4387 46.5821C18.516 47.5601 15.7179 48.8793 13.102 50.5127C12.6972 50.766 12.4864 51.1921 12.551 51.6257C12.8635 53.7091 13.2893 55.7738 13.8265 57.8105C14.625 60.834 15.8724 64.0196 16.5453 65.6499C16.8892 66.4847 17.8736 66.9395 18.8343 66.7106L19.4799 66.5546C22.3995 65.8471 25.7091 65.0453 29.416 64.87C30.878 64.8014 32.3798 64.7658 33.8785 64.764L34.2733 64.764L34.2733 64.8002C34.6614 64.7895 35.0662 64.7814 35.4822 64.7752L35.4941 64.7752C35.9101 64.7814 36.3149 64.7895 36.703 64.8002L36.703 64.764L37.0978 64.764C38.5965 64.764 40.0983 64.8014 41.5603 64.87C45.2673 65.0441 48.5768 65.8458 51.4965 66.5546L52.142 66.7106C53.1027 66.942 54.0872 66.4872 54.4311 65.6499C55.1039 64.0196 56.3514 60.8334 57.1492 57.8105C57.6867 55.7738 58.1127 53.7092 58.4253 51.6257C58.4875 51.189 58.2791 50.766 57.8743 50.5127C55.2585 48.8793 52.4604 47.5601 49.5376 46.5821C45.0552 45.0785 40.334 44.3691 35.4978 44.472L35.4822 44.472C35.1734 44.4641 34.866 44.4604 34.56 44.4608Z" fill="#C9CBDF"/>
<path d="M35.478 1.49882C34.1345 1.49882 33.0453 1.91559 33.0453 2.4297C33.0453 2.9438 34.1345 3.36056 35.478 3.36056C36.8216 3.36056 37.9108 2.9438 37.9108 2.4297C37.9108 1.91559 36.8216 1.49882 35.478 1.49882Z" fill="#C9CBDF"/>
<path d="M35.4779 1.69348C34.2528 1.69348 33.2597 2.06666 33.2597 2.52702C33.2597 2.98737 34.2528 3.36056 35.4779 3.36056C36.7029 3.36056 37.696 2.98737 37.696 2.52702C37.696 2.06666 36.7029 1.69348 35.4779 1.69348Z" fill="#5E5E5E"/>
<path d="M35.4778 1.8126C34.3325 1.8126 33.4039 2.14752 33.4039 2.56066C33.4039 2.97381 34.3325 3.30873 35.4778 3.30873C36.6232 3.30873 37.5518 2.97381 37.5518 2.56066C37.5518 2.14752 36.6232 1.8126 35.4778 1.8126Z" fill="#A0A0A0"/>
<path d="M15.3425 137.683C28.7307 140.725 42.6273 140.725 56.0155 137.683L56.0155 136.266C56.0155 135.778 55.822 135.309 55.4776 134.964C55.1332 134.618 54.6662 134.424 54.1791 134.424L17.1783 134.424C16.6914 134.424 16.2244 134.618 15.8802 134.964C15.5359 135.309 15.3425 135.778 15.3425 136.266L15.3425 137.683Z" fill="#A0A0A0"/>
<path d="M13.8438 139.73C28.2187 142.995 43.1393 142.995 57.5142 139.73L57.5142 136.229L13.8438 136.229L13.8438 139.73Z" fill="#757575"/>
<path d="M57.5142 136.231L57.5142 140.978C43.1393 144.244 28.2187 144.244 13.8438 140.978L13.8438 136.231L57.5142 136.231Z" fill="#E0E0E0"/>
<path d="M13.8438 139.73L13.8438 140.978C28.2187 144.244 43.1393 144.244 57.5142 140.978L57.5142 139.73C43.1393 142.996 28.2187 142.996 13.8438 139.73Z" fill="#C2C2C2"/>
<path d="M14.3173 137.214L14.3173 134.668C14.3173 134.603 14.2915 134.54 14.2457 134.494C14.1998 134.448 14.1377 134.422 14.0729 134.422C14.0365 134.422 14.0007 134.43 13.9679 134.446C13.935 134.462 13.9061 134.485 13.8832 134.513C13.5518 134.922 13.3708 135.434 13.3708 135.961L13.3708 142.267C13.3709 142.393 13.4209 142.514 13.5096 142.603C13.5983 142.692 13.7186 142.742 13.844 142.742C13.9694 142.742 14.0897 142.692 14.1784 142.603C14.2672 142.514 14.3171 142.393 14.3173 142.267L14.3173 137.214Z" fill="#E3E3E3"/>
<path d="M56.6599 137.214L56.6599 134.668C56.6599 134.603 56.6856 134.54 56.7314 134.494C56.7773 134.448 56.8394 134.422 56.9042 134.422C56.9406 134.422 56.9765 134.43 57.0094 134.446C57.0422 134.462 57.0711 134.484 57.0939 134.513C57.4253 134.922 57.6063 135.434 57.6063 135.961L57.6063 142.267C57.6063 142.33 57.5941 142.391 57.5703 142.449C57.5465 142.507 57.5116 142.559 57.4677 142.603C57.4237 142.647 57.3716 142.682 57.3142 142.706C57.2567 142.729 57.1952 142.742 57.1331 142.742C57.0077 142.742 56.8874 142.692 56.7987 142.603C56.71 142.514 56.66 142.393 56.6599 142.267L56.6599 137.214Z" fill="#E3E3E3"/>
<path d="M53.5922 85.9622C53.5751 86.1219 53.4998 86.2698 53.3806 86.3771C53.2614 86.4845 53.1068 86.5438 52.9467 86.5436L39.9019 86.5349L39.9019 87.4589L31.0714 87.4589L31.0714 81.5249L53.1668 81.5249C53.3118 81.525 53.4551 81.5556 53.5875 81.6148C53.72 81.6741 53.8385 81.7606 53.9354 81.8687C53.9056 82.2892 53.775 84.1079 53.64 85.4917C53.6232 85.6558 53.6083 85.8137 53.5922 85.9622Z" fill="#8C2A32"/>
<path d="M31.0733 87.4589L39.9019 87.4589L39.9019 81.5256L31.0733 81.5256L31.0733 87.4589Z" fill="#E0E0E0"/>
<path d="M52.9466 86.5434L39.9018 86.5346L39.9018 85.4915L53.64 85.4915C53.6245 85.6555 53.6083 85.8134 53.5921 85.9619C53.5751 86.1217 53.4997 86.2695 53.3806 86.3768C53.2614 86.4842 53.1068 86.5435 52.9466 86.5434Z" fill="#B33640"/>
<path d="M17.9907 86.5203L31.0747 86.5296L31.0747 86.8054L17.1823 86.8054L17.1823 85.4952L17.3433 85.4952L17.3825 85.9619C17.3959 86.1144 17.4658 86.2564 17.5784 86.3597C17.691 86.4631 17.8381 86.5204 17.9907 86.5203Z" fill="#359EE6"/>
<path d="M31.0733 86.5275L31.0733 85.4905L39.9019 85.4905L39.9019 86.5337L31.0733 86.5275Z" fill="#FAFAFA"/>
<path d="M39.9019 86.5349L39.9019 86.8051L39.9019 87.4589L31.0733 87.4589L31.0733 86.8051L31.0733 86.5287L39.9019 86.5349Z" fill="#B3B3B3"/>
<path d="M43.6678 83.9426L48.1632 83.9426C48.1893 83.9426 48.2144 83.9323 48.2329 83.9138C48.2514 83.8953 48.2619 83.8703 48.2621 83.8441C48.2621 83.8178 48.2517 83.7925 48.2331 83.7739C48.2146 83.7553 48.1894 83.7449 48.1632 83.7449L43.6678 83.7449C43.6417 83.745 43.6166 83.7556 43.5982 83.7741C43.5798 83.7927 43.5695 83.8179 43.5695 83.8441C43.5695 83.8702 43.5799 83.8953 43.5983 83.9138C43.6167 83.9323 43.6417 83.9426 43.6678 83.9426Z" fill="#B33640"/>
<path d="M33.203 83.9426L36.0338 83.9426C36.068 83.9426 36.0959 83.8983 36.0959 83.8441C36.0959 83.7892 36.068 83.7449 36.0338 83.7449L33.203 83.7449C33.1688 83.7449 33.1409 83.7892 33.1409 83.8441C33.1409 83.8983 33.1688 83.9426 33.203 83.9426Z" fill="#FAFAFA"/>
<path d="M43.0217 83.9426L43.9016 83.9426C43.9277 83.9426 43.9527 83.9323 43.9711 83.9138C43.9895 83.8953 43.9999 83.8702 43.9999 83.8441C43.9999 83.8179 43.9895 83.7927 43.9711 83.7741C43.9527 83.7556 43.9277 83.745 43.9016 83.7449L43.0217 83.7449C42.9955 83.7449 42.9703 83.7553 42.9518 83.7739C42.9332 83.7925 42.9228 83.8178 42.9228 83.8441C42.923 83.8703 42.9335 83.8953 42.952 83.9138C42.9705 83.9323 42.9956 83.9426 43.0217 83.9426Z" fill="#8C2A32"/>
<path d="M49.1703 83.9426L50.4376 83.9426C50.4637 83.9426 50.4888 83.9323 50.5073 83.9138C50.5258 83.8953 50.5363 83.8703 50.5365 83.8441C50.5365 83.8178 50.5261 83.7925 50.5076 83.7739C50.489 83.7553 50.4639 83.7449 50.4376 83.7449L49.1703 83.7449C49.1573 83.7449 49.1444 83.7474 49.1324 83.7524C49.1205 83.7574 49.1095 83.7647 49.1004 83.7739C49.0912 83.7831 49.0839 83.7941 49.0789 83.8061C49.0739 83.8181 49.0714 83.831 49.0714 83.8441C49.0716 83.8703 49.082 83.8953 49.1006 83.9138C49.1191 83.9323 49.1442 83.9426 49.1703 83.9426Z" fill="#B33640"/>
<path d="M17.342 85.4921L17.041 81.8678C17.1379 81.76 17.2563 81.6738 17.3885 81.6148C17.5207 81.5558 17.6637 81.5253 17.8084 81.5253L31.0734 81.5253L31.0734 85.4921L17.342 85.4921Z" fill="#2C82BD"/>
<path d="M17.3812 85.9564L17.342 85.4897L31.0734 85.4897L31.0734 86.5273L17.9894 86.5179C17.8363 86.518 17.6887 86.4602 17.5761 86.3562C17.4634 86.2522 17.3938 86.1095 17.3812 85.9564Z" fill="#359EE6"/>
<path d="M17.3812 85.9584C17.3938 86.1115 17.4634 86.2542 17.5761 86.3583C17.6887 86.4623 17.8363 86.52 17.9894 86.5199L31.0734 86.5293L31.0734 87.4589L17.8084 87.4589C17.5335 87.4589 17.2698 87.3493 17.0754 87.1543C16.881 86.9592 16.7718 86.6947 16.7718 86.4189L16.7718 82.565C16.7719 82.307 16.8679 82.0583 17.041 81.8675L17.342 85.4917L17.3812 85.9584Z" fill="#21608C"/>
<path d="M54.2035 86.4189C54.2035 86.5554 54.1767 86.6907 54.1246 86.8169C54.0725 86.9431 53.9961 87.0577 53.8998 87.1543C53.8036 87.2509 53.6893 87.3275 53.5636 87.3797C53.4378 87.432 53.303 87.4589 53.1669 87.4589L39.9019 87.4589L39.9019 86.5349L52.9467 86.5436C53.1069 86.5438 53.2614 86.4845 53.3806 86.3771C53.4998 86.2698 53.5751 86.1219 53.5922 85.9622C53.6084 85.8137 53.6245 85.6558 53.6401 85.4917C53.775 84.1079 53.9056 82.2892 53.9355 81.8687C54.108 82.0593 54.2035 82.3075 54.2035 82.565L54.2035 86.4189Z" fill="#732328"/>
<path d="M25.1811 83.7449L20.6857 83.7449C20.6596 83.745 20.6346 83.7556 20.6162 83.7741C20.5978 83.7927 20.5874 83.8179 20.5874 83.8441C20.5874 83.8702 20.5978 83.8953 20.6162 83.9138C20.6346 83.9323 20.6596 83.9426 20.6857 83.9426L25.1811 83.9426C25.2072 83.9426 25.2323 83.9323 25.2508 83.9138C25.2694 83.8953 25.2799 83.8703 25.28 83.8441C25.28 83.8178 25.2696 83.7925 25.2511 83.7739C25.2325 83.7553 25.2074 83.7449 25.1811 83.7449Z" fill="#359EE6"/>
<path d="M27.1592 83.7449L26.2793 83.7449C26.253 83.7449 26.2279 83.7553 26.2093 83.7739C26.1908 83.7925 26.1804 83.8178 26.1804 83.8441C26.1806 83.8703 26.191 83.8953 26.2096 83.9138C26.2281 83.9323 26.2531 83.9426 26.2793 83.9426L27.1592 83.9426C27.1852 83.9426 27.2102 83.9323 27.2287 83.9138C27.2471 83.8953 27.2574 83.8702 27.2574 83.8441C27.2574 83.8179 27.2471 83.7927 27.2287 83.7741C27.2103 83.7556 27.1853 83.745 27.1592 83.7449Z" fill="#359EE6"/>
<path d="M78.933 87.5028C78.933 87.6443 78.989 87.78 79.0887 87.88C79.1884 87.9801 79.3236 88.0363 79.4646 88.0363L81.4092 88.0363C81.5502 88.0363 81.6855 87.9801 81.7852 87.88C81.8849 87.78 81.9409 87.6443 81.9409 87.5028L78.933 87.5028Z" fill="#BFBFBF"/>
<path d="M13.2761 55.3486C13.2761 55.2786 13.2624 55.2092 13.2356 55.1445C13.2089 55.0798 13.1698 55.021 13.1204 54.9714C13.071 54.9219 13.0124 54.8826 12.9479 54.8558C12.8834 54.829 12.8143 54.8152 12.7444 54.8152L10.7999 54.8152C10.6589 54.8152 10.5236 54.8714 10.4239 54.9714C10.3242 55.0715 10.2682 55.2071 10.2682 55.3486L13.2761 55.3486Z" fill="#BFBFBF"/>
<path d="M10.3347 55.028L13.2432 55.028C13.2869 55.028 13.3288 55.0455 13.3597 55.0765C13.3906 55.1075 13.408 55.1495 13.408 55.1934L13.408 56.1186C13.408 56.5488 13.2376 56.9615 12.9344 57.2657C12.6312 57.5699 12.2199 57.7408 11.7911 57.7408C11.3623 57.7408 10.9511 57.5699 10.6478 57.2657C10.3446 56.9615 10.1743 56.5488 10.1743 56.1186L10.1743 55.1934C10.1743 55.1503 10.191 55.1089 10.221 55.078C10.2509 55.0471 10.2918 55.0292 10.3347 55.028Z" fill="#B6B6B6"/>
<path d="M60.6541 55.3486C60.6541 55.2071 60.598 55.0715 60.4983 54.9714C60.3986 54.8714 60.2634 54.8152 60.1223 54.8152L58.1778 54.8152C58.0368 54.8152 57.9015 54.8714 57.8018 54.9714C57.7021 55.0715 57.6461 55.2071 57.6461 55.3486L60.6541 55.3486Z" fill="#BFBFBF"/>
<path d="M57.7125 55.028L60.6209 55.028C60.6647 55.028 60.7066 55.0455 60.7375 55.0765C60.7684 55.1075 60.7858 55.1495 60.7858 55.1934L60.7858 56.1186C60.7858 56.5489 60.6154 56.9615 60.3122 57.2657C60.009 57.5699 59.5977 57.7408 59.1689 57.7408C58.7401 57.7408 58.3289 57.5699 58.0256 57.2657C57.7224 56.9615 57.5521 56.5489 57.5521 56.1186L57.5521 55.1934C57.5521 55.1503 57.5688 55.1089 57.5988 55.078C57.6287 55.0471 57.6695 55.0292 57.7125 55.028Z" fill="#B6B6B6"/>
<path d="M20.2511 26.1499L22.0108 26.1499C22.061 26.4623 22.1535 26.739 22.2884 26.9801C22.4233 27.2246 22.5911 27.4318 22.7919 27.6016C22.9926 27.7713 23.2216 27.8987 23.4788 27.9836C23.7329 28.0719 24.0074 28.116 24.3022 28.116C24.8261 28.116 25.2903 27.9734 25.6949 27.6881C26.0996 27.4063 26.4164 26.992 26.6454 26.4453C26.8744 25.902 26.9889 25.2381 26.9889 24.4537C26.9889 23.6558 26.8744 22.9834 26.6454 22.4367C26.4133 21.8934 26.0965 21.4825 25.6949 21.2041C25.2903 20.929 24.8276 20.7915 24.3069 20.7915C24.0183 20.7915 23.7486 20.8322 23.4976 20.9137C23.2436 20.9986 23.0161 21.1226 22.8154 21.2856C22.6115 21.4485 22.4405 21.6489 22.3025 21.8866C22.1614 22.1243 22.0641 22.3959 22.0108 22.7016L20.2511 22.6914C20.3169 22.1956 20.4597 21.7304 20.6792 21.2957C20.8957 20.8611 21.1796 20.4774 21.5309 20.1446C21.8822 19.8152 22.2931 19.5571 22.7636 19.3704C23.2341 19.187 23.7564 19.0953 24.3305 19.0953C25.1774 19.0953 25.9333 19.3076 26.5983 19.732C27.2633 20.1565 27.7872 20.7694 28.1699 21.5708C28.5526 22.3722 28.7439 23.3332 28.7439 24.4537C28.7439 25.5777 28.551 26.5387 28.1652 27.3367C27.7793 28.1381 27.2539 28.751 26.5889 29.1755C25.9239 29.5999 25.1711 29.8122 24.3305 29.8122C23.7941 29.8122 23.2953 29.7307 22.8342 29.5677C22.3731 29.4047 21.9622 29.1653 21.6015 28.8495C21.2407 28.5371 20.9443 28.1534 20.7122 27.6983C20.4769 27.2467 20.3232 26.7306 20.2511 26.1499Z" fill="#275285"/>
<path d="M30.5873 29.6698L30.5873 19.2382L32.3188 19.2382L32.3188 28.101L36.5346 28.101L36.5346 19.2382L38.2661 19.2382L38.2661 29.6698L30.5873 29.6698Z" fill="#275285"/>
<path d="M49.3619 16.722L49.3619 20.7816L48.7173 20.7816C48.5009 20.9683 48.2986 21.2315 48.1104 21.5711C47.9222 21.9106 47.7622 22.3758 47.6304 22.9667C47.4987 23.5575 47.4077 24.3216 47.3575 25.2588L47.1035 29.6698L40.9444 29.6698L40.9444 20.7816L39.8716 20.7816L39.8716 16.7322L41.5467 16.7322L41.5467 19.2382L47.6869 19.2382L47.6869 16.722L49.3619 16.722ZM46.6847 20.7816L42.6194 20.7816L42.6194 28.0857L45.5319 28.0857L45.6825 25.2588C45.7233 24.5491 45.7892 23.9141 45.8801 23.3538C45.9711 22.7935 46.0856 22.2994 46.2236 21.8716C46.3616 21.4471 46.5153 21.0838 46.6847 20.7816Z" fill="#275285"/>
<path d="M41.7062 130.167L40.837 130.167C40.8122 130.012 40.7665 129.876 40.6999 129.757C40.6333 129.636 40.5504 129.533 40.4512 129.45C40.352 129.366 40.2389 129.303 40.1119 129.261C39.9864 129.217 39.8508 129.195 39.7052 129.195C39.4465 129.195 39.2172 129.266 39.0173 129.407C38.8174 129.546 38.661 129.751 38.5479 130.021C38.4348 130.289 38.3782 130.617 38.3782 131.004C38.3782 131.399 38.4348 131.731 38.5479 132.001C38.6625 132.269 38.819 132.472 39.0173 132.609C39.2172 132.745 39.4457 132.813 39.7029 132.813C39.8454 132.813 39.9787 132.793 40.1026 132.753C40.2281 132.711 40.3404 132.65 40.4396 132.569C40.5403 132.489 40.6247 132.39 40.6929 132.272C40.7626 132.155 40.8106 132.021 40.837 131.87L41.7062 131.875C41.6736 132.12 41.6031 132.349 41.4947 132.564C41.3878 132.779 41.2476 132.968 41.074 133.133C40.9005 133.295 40.6975 133.423 40.4651 133.515C40.2327 133.606 39.9748 133.651 39.6913 133.651C39.2729 133.651 38.8996 133.546 38.5711 133.337C38.2426 133.127 37.9839 132.824 37.7949 132.428C37.6059 132.032 37.5114 131.558 37.5114 131.004C37.5114 130.449 37.6066 129.975 37.7972 129.58C37.9878 129.185 38.2473 128.882 38.5757 128.672C38.9042 128.463 39.276 128.358 39.6913 128.358C39.9562 128.358 40.2025 128.398 40.4303 128.478C40.658 128.559 40.861 128.677 41.0392 128.833C41.2173 128.988 41.3638 129.177 41.4784 129.402C41.5946 129.625 41.6705 129.88 41.7062 130.167Z" fill="#275285"/>
<path d="M36.6009 128.427L36.6009 133.58L35.7456 133.58L35.7456 129.202L33.6633 129.202L33.6633 133.58L32.8081 133.58L32.8081 128.427L36.6009 128.427Z" fill="#275285"/>
<path d="M27.3275 134.822L27.3275 132.817L27.6459 132.817C27.7528 132.725 27.8527 132.595 27.9457 132.427C28.0387 132.26 28.1177 132.03 28.1827 131.738C28.2478 131.446 28.2927 131.069 28.3175 130.606L28.443 128.427L31.4851 128.427L31.4851 132.817L32.015 132.817L32.015 134.817L31.1877 134.817L31.1877 133.58L28.1549 133.58L28.1549 134.822L27.3275 134.822ZM28.6499 132.817L30.6578 132.817L30.6578 129.21L29.2192 129.21L29.1449 130.606C29.1247 130.956 29.0922 131.27 29.0473 131.547C29.0023 131.823 28.9458 132.068 28.8776 132.279C28.8094 132.489 28.7335 132.668 28.6499 132.817Z" fill="#275285"/>
<path d="M61.0519 176.679C67.4787 176.679 71.4375 175.212 74.5169 175.212C76.6471 175.212 79.9515 175.475 79.1999 173.815C78.4483 172.156 47.3315 139.869 44.325 136.703C41.3186 133.536 27.9398 130.064 25.234 136.703C23.0693 142.013 36.4581 157.321 43.4231 164.312C46.6215 168.434 54.6251 176.679 61.0519 176.679Z" fill="url(#paint0_linear_211_18540)"/>
<path d="M86.9836 97.1329L107.063 92L107.37 93.219L86.7029 98.6955L86.9836 97.1329Z" fill="white"/>
<path d="M100.255 93.7062L104.517 92.6513L104.831 93.9267L100.511 95.0638L100.255 93.7062Z" fill="#1D1D1D"/>
<path d="M92.8472 95.623L97.1244 94.5423L97.4234 95.8435L93.1035 96.9805L92.8472 95.623Z" fill="#1D1D1D"/>
<path d="M83.7435 101.406L84.4387 99.5621C84.4345 98.6648 85.6445 96.7295 86.438 96.4342C86.8002 96.2257 88.5283 96.0142 89.0691 96.4346C89.61 96.8549 88.0344 97.0194 86.8002 97.8883C86.8002 98.3523 86.6665 98.3534 86.997 98.1301C87.3275 97.9067 89.3293 97.3239 89.4774 98.0456C89.6256 98.7673 89.7969 99.0586 88.9127 99.7796C88.7133 100.982 86.6665 101.647 86.6038 102.443C86.5412 103.239 83.7435 101.406 83.7435 101.406Z" fill="black"/>
<path d="M71.0595 172.678C70.9057 174.03 71.0595 175.301 71.6293 175.456C72.1991 175.611 73.6007 175.347 75.2987 176.029C76.5807 176.538 80.7515 175.994 80.9965 175.456C81.7201 173.932 81.5663 172.918 79.7658 172.838C77.9653 172.758 76.6776 170.547 76.0052 169.642C75.3329 168.737 73.5666 169.882 73.5666 169.882L71.7376 170.387L71.0595 172.678Z" fill="black"/>
<path d="M76.518 131.435C77.9367 134.362 77.7373 152.125 77.9766 156.879C78.045 158.38 79.5663 172.288 78.4097 172.58C76.5013 172.777 74.577 172.762 72.672 172.534C72.672 172.534 71.9768 163.638 70.6322 149.232C70.1421 144.014 69.9028 131.561 69.9028 131.561L76.518 131.435Z" fill="#171F4C"/>
<path d="M74.5865 172.915C72.8258 166.488 72.6264 149.791 71.9712 145.18L69.6066 159.672C69.3673 167.863 70.6721 173.236 70.6721 173.236C71.9835 173.238 73.2928 173.131 74.5865 172.915Z" fill="#11103D"/>
<path d="M73.7775 159.563C73.0596 160.8 72.9855 165.165 72.6949 166.253C72.4043 167.342 73.7091 166.826 73.5667 168.218C73.4242 169.61 72.5525 168.871 72.9969 170.326C73.4413 171.781 75.1678 171.85 75.3843 171.85C75.6008 171.85 70.9742 172.216 72.3473 172.577C73.7205 172.938 77.048 173.012 77.5494 172.216C78.0508 171.42 75.6008 161.677 75.6008 161.677L73.7775 159.563Z" fill="#171F4C"/>
<path d="M61.7039 170.622L66.6212 170.473C66.6212 170.473 66.7636 174.059 69.7549 174.254C70.8375 174.322 72.205 176.659 70.8945 177.307C69.584 177.954 66.0115 178.641 64.7238 177.501C63.4361 176.361 62.9461 176.825 61.9774 176.356C61.0088 175.886 61.4988 172.988 61.4988 171.687L61.7039 170.622Z" fill="black"/>
<path d="M64.0571 131.277C63.2366 133.081 61.6241 134.685 61.9945 139.021C62.3649 143.357 62.5643 151.537 61.8008 155.695C58.5245 173.527 62.3706 172.954 62.3706 172.954C64.8021 173.365 67.2759 173.463 69.7321 173.246C69.7321 173.246 70.5241 159.39 70.6894 156.933C70.8546 154.475 71.8916 145.242 72.3075 142.996C73.0767 138.826 74.6265 133.304 74.3303 131.655C74.1308 130.526 64.0571 131.277 64.0571 131.277Z" fill="#11103D"/>
<path d="M72.8885 143.473C72.1136 146.675 71.0595 160.657 70.9627 162.376C70.8658 164.094 69.4186 163.246 69.8231 165.48C70.1293 167.727 70.2247 169.997 70.108 172.262C70.0111 172.835 69.9143 173.236 69.4357 173.333C68.6116 173.301 67.798 173.137 67.0255 172.846C66.4557 172.652 65.9657 170.716 66.8318 170.326C67.6978 169.937 68.1821 168.482 67.3104 168.098C66.4386 167.714 65.1908 166.546 65.9657 165.967C66.7406 165.388 68.279 160.634 68.1821 159.093C68.0284 157.36 68.1926 155.612 68.6665 153.938C69.2248 151.813 72.8885 143.473 72.8885 143.473Z" fill="#171F4C"/>
<path d="M80.8541 133.367C80.8323 133.363 80.8115 133.354 80.7932 133.342C80.7748 133.329 80.7592 133.313 80.7474 133.294C80.7356 133.275 80.7279 133.254 80.7247 133.232C80.7214 133.21 80.7228 133.188 80.7287 133.166C80.8275 132.821 80.8886 132.465 80.911 132.106C80.911 131.574 80.7344 131.081 79.8114 130.846C79.7109 130.82 79.6075 130.806 79.5037 130.806C78.649 130.806 78.3641 131.952 78.2445 132.41C78.2386 132.432 78.2284 132.452 78.2145 132.47C78.2006 132.487 78.1832 132.502 78.1635 132.513C78.1438 132.524 78.1221 132.53 78.0998 132.532C78.0775 132.534 78.055 132.532 78.0336 132.525C78.0127 132.519 77.9932 132.509 77.9763 132.495C77.9594 132.481 77.9455 132.464 77.9353 132.445C77.9252 132.426 77.9191 132.404 77.9174 132.383C77.9157 132.361 77.9184 132.339 77.9254 132.318C78.0507 131.912 78.3014 130.497 79.5037 130.468C79.6344 130.47 79.7645 130.487 79.8911 130.52C80.2733 130.566 80.6243 130.754 80.8744 131.048C81.1246 131.342 81.2557 131.72 81.2415 132.106C81.2235 132.494 81.1604 132.879 81.0535 133.252C81.0446 133.289 81.0234 133.323 80.9935 133.347C80.9635 133.37 80.9265 133.384 80.8882 133.384H80.8541V133.367Z" fill="black"/>
<path d="M80.592 133.142C80.592 132.855 80.7857 132.219 80.9794 131.314C80.9794 131.217 80.9794 130.862 80.9794 130.742C81.2529 129.057 81.9196 126.503 81.686 126.503C81.4523 126.503 80.9395 128.834 80.421 130.512C80.421 130.593 80.1532 130.971 80.1362 131.051C79.857 132.07 79.7031 132.655 79.7031 132.655L80.592 133.142Z" fill="black"/>
<path d="M77.8627 140.468C77.7886 140.8 76.5237 140.136 76.5237 140.136C76.3492 140.088 76.1981 139.978 76.0993 139.826C76.0005 139.674 75.9609 139.49 75.9881 139.311L77.5607 132.225C77.6348 131.887 77.8684 131.83 78.2616 131.824C78.2616 131.824 79.5721 131.79 79.498 132.122L77.8627 140.468Z" fill="#24272B"/>
<path d="M79.6176 140.003C79.5784 140.226 79.4567 140.425 79.2769 140.561C79.0972 140.698 78.8727 140.76 78.649 140.736L77.5094 140.559C77.3894 140.539 77.2748 140.494 77.1728 140.427C77.0709 140.36 76.9837 140.273 76.9168 140.171C76.85 140.069 76.8048 139.954 76.7842 139.833C76.7636 139.713 76.768 139.589 76.7972 139.47L78.3071 132.534C78.3269 132.419 78.3723 132.311 78.4396 132.217C78.507 132.123 78.5947 132.046 78.6961 131.991C78.7976 131.935 78.9101 131.904 79.0253 131.899C79.1404 131.894 79.2553 131.915 79.3612 131.961L80.4267 132.396C80.6356 132.495 80.8053 132.662 80.9086 132.87C81.0119 133.078 81.0428 133.314 80.9965 133.542L79.6176 140.003Z" fill="black"/>
<path d="M64.3418 106.437C64.6096 107.068 65.0141 108.19 65.9543 108.774C66.8944 109.359 67.2021 108.683 67.2021 108.368C67.2021 108.053 65.0312 105.023 65.0312 105.023L64.3418 106.437Z" fill="#300901"/>
<path d="M72.4154 112.175C72.4154 112.175 74.1703 118.746 75.0592 118.597C75.5319 118.517 80.3106 114.905 83.4637 111.007C86.2399 107.575 87.4613 103.831 87.488 103.343C87.5563 101.854 83.4637 100.995 83.4637 100.995C83.4637 100.995 77.3805 109.167 73.874 111.007C73.4695 111.356 73.3043 112.032 72.8997 111.964L72.4154 112.175Z" fill="#11103D"/>
<path d="M71.4187 107.372L71.6238 108.105C71.6238 108.105 71.487 111.542 72.1936 111.714C73.5382 112 72.1423 116.869 71.1736 117.03C67.1852 117.763 64.661 112.338 65.4758 112.046C66.6838 111.605 66.1482 107.326 66.1482 107.326L71.4187 107.372Z" fill="#EABFB7"/>
<g style="mix-blend-mode:multiply">
<path d="M72.1478 109.322C72.3301 108.812 67.6237 106.252 66.0283 107.357C66.4158 108.995 66.3075 111 65.9941 111.229L66.3303 113.389C66.9343 113.171 68.3587 114.225 68.5696 113.962C69.9199 112.295 71.6635 110.634 72.1478 109.322Z" fill="url(#paint1_linear_211_18540)"/>
</g>
<path d="M65.1852 104.755C65.0313 102.79 65.4131 101.043 68.2164 100.791C71.7092 100.482 71.7205 101.175 72.5239 104.142C73.1564 106.468 73.7718 109.618 71.4528 110.254C68.6722 111.016 66.809 109.859 65.8404 107.447C65.4302 107.631 64.9117 106.766 64.8205 106.17C64.7009 105.397 64.6838 104.864 65.1852 104.755Z" fill="#EABFB7"/>
<path d="M65.2419 104.814C64.7348 104.923 64.7576 105.45 64.8773 106.224C64.9684 106.796 65.4812 107.69 65.8915 107.507C66.8658 109.912 68.313 110.995 71.4525 110.256C68.9911 111.018 66.6322 104.929 66.8943 102.93L68.3814 100.845H68.2903C65.4698 101.103 65.0881 102.855 65.2419 104.814Z" fill="#D8A89E"/>
<path d="M70.7175 113.563C71.4125 113.054 71.9149 112.323 72.1419 111.49C72.1419 111.49 72.2673 111.243 74.7458 112.005C75.4467 112.217 76.6375 116.244 76.854 118.398C76.968 119.48 77.6859 128.336 76.7572 129.625C76.1304 130.489 72.7231 129.848 69.6007 129.315C69.5152 125.363 70.8599 117.859 71.0252 115.694C71.0366 115.534 70.2446 113.872 70.7175 113.563Z" fill="#142163"/>
<path d="M70.8892 112.342C68.2967 112.342 65.6581 111.067 65.6581 111.067C64.0364 111.781 62.4934 112.865 61.0542 113.902C60.2053 114.475 59.305 114.956 59.2252 115.924C59.1455 116.892 62.9858 120.306 63.3732 121.961C63.943 124.459 61.8633 127.397 63.6296 128.755C64.4786 129.408 71.3787 130.107 73.3843 130.078C73.823 121.377 72.2447 117.419 71.9256 116.491C71.4128 115.025 71.2538 112.342 70.8892 112.342Z" fill="#11103D"/>
<path d="M70.9514 101.472C70.6551 101.902 69.5384 101.965 68.6153 101.999C67.6923 102.033 66.7464 103.362 66.5527 103.786C66.4757 104.366 66.3596 104.94 66.2051 105.504C66.1026 105.653 65.5841 104.754 65.0314 105.035C64.7921 105.155 64.6097 106.81 64.6097 106.81C64.6097 106.81 62.9004 105.814 63.6753 103.167C63.9602 102.188 65.1339 100.544 66.2222 100.126C66.7179 99.9368 68.0284 99.2953 68.5014 100.023C68.7521 100.355 70.9514 101.472 70.9514 101.472Z" fill="#300901"/>
<path d="M68.1021 100.159C68.5408 99.8723 70.5065 100.416 71.1447 100.921C71.7828 101.425 71.9253 101.997 72.0563 103.034C72.1874 104.071 71.7145 103.034 70.7971 102.347C69.8798 101.659 68.2331 102.255 68.2331 102.255L68.1021 100.159Z" fill="#300901"/>
<path d="M72.524 111.171C72.8857 112.243 71.8209 113.546 71.5547 114.347C70.5177 115.613 73.1394 121.733 73.1394 121.733C73.1394 121.733 74.3758 132.41 74.8943 133.453C75.4128 134.495 75.3616 134.392 76.3188 134.089C77.276 133.785 78.3928 133.647 78.3928 132.605C78.3928 130.514 76.6834 117.483 76.6834 117.26C76.2036 114.994 75.2414 112.86 73.863 111.004C73.6807 110.735 72.524 111.171 72.524 111.171Z" fill="#D4EA57"/>
<path d="M63.702 112.073C65.6791 112.239 67.4952 114.641 71.3549 115.075C73.4845 117.68 74.7802 134.323 74.7802 134.323C74.7802 134.323 73.5096 135.726 62.9117 135.056C62.114 135.004 62.8205 126.028 62.5983 125.358C62.3761 124.688 64.2165 119.155 63.1339 116.457C62.1481 114.005 60.0286 114.601 60.0286 114.601L63.702 112.073Z" fill="#A6C924"/>
<path d="M71.7542 110.27L73.1392 111.328C73.1392 111.328 73.7617 116.174 73.1392 116.414C72.5167 116.654 70.5231 112.206 70.5231 112.206C70.5231 112.206 71.7542 110.723 71.7542 110.27Z" fill="#11103D"/>
<path d="M62.6779 112.784C63.0141 113.122 67.1849 113.89 69.6862 121.989C71.0138 126.285 70.9112 128.765 70.9112 128.765H69.3557C68.9954 125.027 67.9706 121.383 66.3302 118.008C64.5069 114.205 61.4358 113.632 61.4358 113.632L62.6779 112.784Z" fill="#919DA8"/>
<path d="M62.2395 127.041C66.1653 128.805 73.7149 127.654 74.6151 127.654C74.6151 128.599 74.9513 131.623 74.9513 131.623C74.9513 131.623 64.8719 133.216 62.6497 131.114C62.0913 130.587 62.2395 127.041 62.2395 127.041Z" fill="#919DA8"/>
<path d="M64.4045 144.046C64.4302 143.635 64.4302 143.224 64.4045 142.814C64.2221 141.835 63.3276 140.191 63.2649 139.578C63.2307 139.148 62.6951 132.704 62.4444 131.513C62.1937 130.321 63.6694 122.101 63.2421 120.629C62.8148 119.157 58.5813 118.624 58.5813 118.624C58.5813 121.202 58.0115 127.159 58.154 131.799C58.1882 132.807 60.302 139.744 60.3248 140.093C60.3704 140.803 60.3248 142.997 60.7579 144.063C61.0655 144.767 61.4131 144.882 61.6752 144.452C61.8632 144.979 62.4786 144.922 62.5413 144.527C62.6666 144.807 62.7578 144.813 63.1623 144.744C63.4643 144.687 63.5099 144.212 63.5099 144.212C63.5099 144.212 63.5099 144.177 63.5555 144.326C63.7321 144.767 64.4557 144.979 64.4045 144.046Z" fill="#EABFB7"/>
<path d="M62.3077 115.46C61.3561 114.601 60.0285 114.206 59.0884 115.564C58.1483 116.921 54.6389 128.05 59.5054 138.852C59.8821 139.492 63.0617 139.885 64.0912 138.288C64.62 136.207 62.9682 129.123 62.9682 126.923C63.3043 121.951 63.8974 116.921 62.3077 115.46Z" fill="#11103D"/>
<path d="M72.9111 111.224C74.6323 114.077 75.6247 117.314 75.7999 120.647C76.1874 126.117 76.1361 127.91 76.1361 127.91L77.6346 127.532C77.6346 127.532 77.1503 121.374 76.3925 117.743C75.8968 115.377 74.3014 111.505 73.4125 111.001C73.1675 110.875 72.9111 111.224 72.9111 111.224Z" fill="#C0C7CC"/>
<path d="M74.2733 127.584C74.8944 127.469 77.9142 126.862 77.9142 126.862L78.1592 130.087C78.1592 130.087 75.0311 131.553 74.7405 131.553C74.45 131.553 74.2733 127.584 74.2733 127.584Z" fill="#C0C7CC"/>
<g opacity="0.9">
<path d="M58.5698 120.331C59.2422 118.813 61.9885 118.561 62.6608 120.542L62.0911 123.722L60.5071 124.472L58.8319 123.527L58.5698 120.331Z" fill="#B57575"/>
<path d="M58.8148 120.453C59.3846 119.165 61.7777 119.062 62.2962 120.631L61.7891 123.329L60.4444 123.965L59.037 123.151L58.8148 120.453Z" fill="#020202"/>
<path d="M61.5157 122.43C61.4758 122.751 60.9801 123.003 60.416 122.975C59.8462 122.975 59.3847 122.722 59.3505 122.402L59.2422 121.313C59.1967 120.901 59.7265 120.529 60.4388 120.523C61.1567 120.523 61.7094 120.878 61.6524 121.308L61.5157 122.43Z" fill="#A5A6AC"/>
<g opacity="0.7">
<path d="M59.6522 121.793L60.1593 121.776L60.1821 121.438L60.7918 121.461L60.8431 121.81L61.2818 121.891L61.259 122.372L59.675 122.326L59.6522 121.793Z" fill="#A5A6AC"/>
<path d="M60.1876 121.389H60.7574C60.7574 121.389 60.8144 121.298 60.7574 121.252C60.6833 121.16 60.5971 121.079 60.501 121.011H60.3757C60.2842 121.07 60.2 121.139 60.125 121.218C60.1193 121.298 60.1876 121.389 60.1876 121.389Z" fill="#A5A6AC"/>
<path d="M61.1849 121.712L61.1906 122.026L61.0026 122.009L61.0254 121.689L61.1849 121.712Z" fill="#A5A6AC"/>
<path d="M59.9542 121.655L59.9656 121.975L59.7719 121.952L59.7946 121.632L59.9542 121.655Z" fill="#A5A6AC"/>
</g>
<path opacity="0.69" d="M59.2365 120.812C59.3872 120.626 59.5806 120.48 59.8 120.386C60.0193 120.293 60.2581 120.254 60.4957 120.273C60.9705 120.291 61.424 120.476 61.7777 120.795C61.8575 120.795 61.9999 120.606 61.9543 120.497C61.7558 120.3 61.5183 120.147 61.2571 120.048C60.996 119.95 60.7172 119.907 60.4387 119.924C59.829 119.924 59.0655 120.377 59.1225 120.588C59.1795 120.8 59.2365 120.812 59.2365 120.812Z" fill="white"/>
</g>
<path d="M75.8285 111.568C75.9057 111.706 75.9544 111.858 75.9718 112.015C75.9891 112.172 75.9748 112.331 75.9295 112.483C75.8843 112.634 75.8092 112.775 75.7086 112.896C75.608 113.017 75.4841 113.117 75.3442 113.189L75.0707 113.304C74.6149 113.562 73.3956 113.59 73.1164 112.937L72.3928 111.603C72.2961 111.44 72.263 111.246 72.2998 111.06C72.3367 110.874 72.4408 110.708 72.5922 110.595L74.0622 110.343C74.518 110.085 74.8656 109.827 75.1448 110.343L75.8285 111.568Z" fill="#24272B"/>
<path d="M75.7544 111.264C75.8902 111.524 75.9304 111.824 75.8679 112.111C75.8054 112.398 75.6441 112.654 75.4125 112.833L75.0536 112.965C74.7525 113.111 74.4102 113.147 74.0857 113.066C73.7612 112.986 73.4748 112.794 73.2758 112.524L72.4895 111.229C72.2047 110.714 72.5693 110.473 73.1562 110.284C73.1562 110.284 74.8655 109.677 75.1504 110.187L75.7544 111.264Z" fill="black"/>
<path d="M74.4042 113.311C74.6658 113.47 74.917 113.646 75.1563 113.838L75.3101 114.015L75.6862 113.866C75.6011 113.555 75.6011 113.227 75.6862 112.916C75.783 112.675 74.4042 113.311 74.4042 113.311Z" fill="#24272B"/>
<path d="M74.3302 112.95C74.5917 113.107 74.8429 113.281 75.0823 113.471L75.2361 113.649L75.6749 113.494C75.5584 113.193 75.5385 112.862 75.6179 112.549C75.6977 112.314 74.3302 112.95 74.3302 112.95Z" fill="black"/>
<path d="M75.3101 114.014C75.2702 113.848 75.1847 113.602 75.2588 113.596C75.3329 113.59 75.6748 113.441 75.6748 113.493C75.6748 113.544 75.7887 113.785 75.7203 113.836C75.5878 113.905 75.4507 113.964 75.3101 114.014Z" fill="black"/>
<path d="M75.162 110.875C75.1693 110.886 75.1743 110.897 75.1768 110.91C75.1793 110.922 75.1792 110.935 75.1765 110.947C75.1738 110.96 75.1686 110.972 75.1612 110.982C75.1538 110.992 75.1444 111.001 75.1335 111.007L73.2761 111.58C73.2448 111.583 73.2132 111.577 73.1857 111.561C73.1582 111.546 73.136 111.522 73.1222 111.494C73.1142 111.483 73.1086 111.471 73.106 111.457C73.1034 111.444 73.1037 111.43 73.107 111.417C73.1102 111.404 73.1164 111.392 73.1249 111.381C73.1335 111.371 73.1442 111.362 73.1564 111.356L75.031 110.818C75.0766 110.818 75.1335 110.818 75.162 110.898V110.875Z" fill="#24272B"/>
<path d="M75.3841 111.34C75.3927 111.348 75.3996 111.357 75.4043 111.368C75.409 111.379 75.4114 111.391 75.4114 111.403C75.4114 111.414 75.409 111.426 75.4043 111.437C75.3996 111.448 75.3927 111.457 75.3841 111.466L73.5892 112.038C73.5599 112.044 73.5294 112.04 73.5027 112.026C73.4759 112.013 73.4543 111.991 73.4411 111.964C73.4069 111.901 73.4411 111.844 73.4411 111.826L75.2587 111.254C75.2847 111.251 75.3108 111.257 75.3332 111.271C75.3557 111.284 75.3735 111.304 75.3841 111.328V111.34Z" fill="#24272B"/>
<path d="M75.6006 111.809C75.6006 111.861 75.6006 111.918 75.5664 111.93L73.8285 112.531C73.8006 112.536 73.772 112.532 73.7464 112.52C73.7209 112.507 73.6999 112.487 73.6861 112.462C73.6576 112.405 73.6861 112.342 73.7203 112.331L75.4809 111.758C75.5063 111.755 75.5318 111.761 75.5535 111.774C75.5752 111.788 75.5918 111.808 75.6006 111.832V111.809Z" fill="#24272B"/>
<path d="M78.2046 132.783C78.2046 131.838 79.196 130.257 79.1903 129.031C79.1903 128.957 79.1903 128.877 79.1903 128.808C79.0365 127.399 77.4126 120.754 77.4069 118.881C77.4035 118.822 77.4035 118.763 77.4069 118.704C77.4069 118.584 77.4069 118.475 77.4069 118.366C77.414 117.887 77.3124 117.413 77.1101 116.979C76.9077 116.545 76.6098 116.163 76.2389 115.863C75.4697 115.135 75.9654 114.717 75.1962 113.463L75.5209 113.262C76.3414 114.654 75.9027 115.101 76.4896 115.553C76.9016 115.891 77.2325 116.317 77.4574 116.802C77.6824 117.286 77.7956 117.814 77.7887 118.349C77.7887 118.463 77.7887 118.589 77.7887 118.715C77.7856 118.765 77.7856 118.815 77.7887 118.864C77.7887 120.623 79.4068 127.29 79.5664 128.745C79.5721 128.835 79.5721 128.925 79.5664 129.014C79.5664 130.389 78.5636 132.044 78.5807 132.766C78.5738 132.821 78.5813 132.877 78.6022 132.928C78.6232 132.979 78.657 133.024 78.7003 133.058L78.4781 133.373C78.3862 133.303 78.3131 133.21 78.2654 133.104C78.2177 132.998 78.1968 132.882 78.2046 132.766V132.783Z" fill="black"/>
<path d="M59.8521 139.049L59.9831 140.636C59.9831 140.636 60.3136 144.45 60.9061 144.777C61.0036 144.874 61.1193 144.95 61.2465 145.001C61.3737 145.052 61.5099 145.077 61.6469 145.075C61.6857 145.141 61.7382 145.198 61.8007 145.242C61.8632 145.286 61.9343 145.316 62.0093 145.33C62.0843 145.344 62.1614 145.342 62.2355 145.323C62.3095 145.305 62.3789 145.271 62.4389 145.224C62.9118 145.602 63.4018 145.424 63.5271 145.075C63.5892 145.143 63.6655 145.197 63.7506 145.232C63.8356 145.267 63.9274 145.283 64.0193 145.279C64.1112 145.275 64.201 145.25 64.2824 145.207C64.3638 145.164 64.4347 145.103 64.4901 145.029C64.7465 144.645 65.0086 144.531 64.6667 143.19C64.3248 141.85 63.4759 140.756 63.5271 139.96C63.5784 139.163 63.5784 138.763 63.5784 138.763C63.5784 138.763 61.0087 139.908 59.8521 139.049Z" fill="black"/>
<path d="M64.7751 107.496C62.9454 107.57 61.5066 104.906 61.9701 103.778C62.471 102.068 64.174 98.9529 65.7768 98.7513C67.3796 98.5498 65.9395 99.3998 67.0791 99.2289C66.478 97.5197 72.0373 98.4691 72.0373 99.2294C72.2883 99.9567 72.6873 101.559 72.3884 102.068C72.2421 102.301 69.8186 101.737 68.3814 102.369C66.1446 103.353 64.7751 107.496 64.7751 107.496Z" fill="black"/>
<path d="M71.0862 98.4514C72.6089 98.5319 72.4219 101.067 71.9878 102.173C69.9843 102.013 68.2813 102.238 67.8806 102.674C66.7786 101.669 66.0774 99.7603 66.1776 99.2576C66.2778 98.7549 69.1829 98.3509 71.0862 98.4514Z" fill="#232323"/>
<ellipse cx="0.400732" cy="0.502679" rx="0.400732" ry="0.502679" transform="matrix(0.990588 -0.136877 0.135899 0.990723 69.3185 99.4136)" fill="#9C8F60"/>
<ellipse cx="0.249302" cy="0.311628" rx="0.249302" ry="0.311628" transform="matrix(0.990588 -0.136877 0.135899 0.990723 69.5128 99.5797)" fill="#8F382D"/>
<path d="M81.8422 109.112C81.3181 108.21 79.6273 107.045 78.8474 106.576L79.204 106.191C79.5784 106.41 80.5694 106.989 81.4679 107.515C82.3663 108.041 83.1803 110.011 83.4923 110.981L82.8888 111.708C82.7328 111.238 82.3663 110.013 81.8422 109.112Z" fill="#D9D9D9"/>
<path d="M82.6846 107.608C82.1606 106.707 80.5802 105.992 79.8003 105.522L80.1198 105.123C80.4942 105.343 81.8589 105.657 82.4975 106.481C83.1526 107.327 84.1461 108.706 84.4581 109.677L83.8546 110.518C83.6986 110.048 83.2087 108.51 82.6846 107.608Z" fill="#D9D9D9"/>
<path d="M61.3292 129.968C60.4282 130.059 58.1505 129.931 57.1243 129.855L57.2142 130.483C57.6186 130.55 58.615 130.702 59.3659 130.779C60.1167 130.855 62.3418 130.487 63.3604 130.294L63.2064 129.253C62.9561 129.454 62.2303 129.878 61.3292 129.968Z" fill="#7E838A"/>
<path d="M57.3411 131.461C58.2164 131.585 60.3223 131.758 61.7426 131.461C63.1227 131.172 63.4621 130.989 63.4632 130.928L63.4625 130.923C63.463 130.924 63.4633 130.926 63.4632 130.928L63.6104 131.925C63.0001 132.117 61.5096 132.489 60.4295 132.445C59.3495 132.4 57.9881 132.284 57.4641 132.234L57.3411 131.461Z" fill="#7E838A"/>
<path d="M66.2307 110.001C66.2307 110.001 63.6021 111.447 62.7037 112.386C61.8053 113.324 70.6561 118.082 70.6561 116.646C70.6561 115.21 70.6561 112.137 70.6561 112.137C69.6584 112.019 68.7999 112.171 67.9276 111.67C67.0554 111.169 66.8386 110.805 66.2307 110.001Z" fill="#142163"/>
<ellipse cx="1.01256" cy="1.17426" rx="1.01256" ry="1.17426" transform="matrix(0.981385 -0.19205 0.190704 0.981648 73.7531 116.49)" fill="#9C8F60"/>
<ellipse cx="0.72514" cy="0.840935" rx="0.72514" ry="0.840935" transform="matrix(0.981385 -0.19205 0.190704 0.981648 74.0988 116.768)" fill="#8F382D"/>
<path d="M74.9098 117.188L74.3889 117.305L74.9098 117.427C74.9098 117.427 74.9866 117.598 75.0403 117.682C75.0941 117.766 75.1761 117.427 75.1761 117.427L75.6483 117.188H75.1761C75.1761 117.188 75.146 116.995 75.1761 116.89C75.0845 116.851 75.0952 117.155 75.0403 117.154C74.9721 117.153 75.0142 116.811 74.8729 116.89C74.9624 117.019 74.9098 117.188 74.9098 117.188Z" fill="#9C8F60"/>
<path d="M86.7347 98.9269C86.7811 98.8692 86.8973 98.824 87.0623 98.7892C86.9328 98.7013 86.9628 98.539 87.0246 98.3396C87.1187 98.036 90.1573 97.2011 90.4934 97.6464C90.7623 98.0027 90.4787 98.5386 90.3033 98.762C90.3417 99.3636 89.9081 99.761 89.698 99.8576C89.698 99.9846 89.6424 100.201 89.4641 100.381C89.4192 100.607 89.1859 101.126 88.6111 101.392C87.8927 101.725 86.8438 101.221 86.5122 100.869C86.2469 100.588 86.8031 100.396 87.0595 100.443C86.7381 100.335 86.4298 100.224 86.4191 100.079C86.3782 99.5286 86.793 99.5584 87.2257 99.6262C86.7698 99.5002 86.5048 99.2118 86.7347 98.9269Z" fill="#232222"/>
<defs>
<linearGradient id="paint0_linear_211_18540" x1="68.3766" y1="173.212" x2="38.8059" y2="143.749" gradientUnits="userSpaceOnUse">
<stop stop-color="#B7D7E4"/>
<stop offset="1" stop-color="#CEDFF0" stop-opacity="0"/>
</linearGradient>
<linearGradient id="paint1_linear_211_18540" x1="67.2477" y1="112.805" x2="69.6107" y2="107.148" gradientUnits="userSpaceOnUse">
<stop stop-color="white"/>
<stop offset="0.64" stop-color="#C6C0B9"/>
</linearGradient>
</defs>
</svg>
