<svg width="500" height="178" viewBox="0 0 500 178" fill="none" xmlns="http://www.w3.org/2000/svg">
    <g clip-path="url(#clip0_1_88223)">
        <path opacity="0.75" d="M17.9649 117.953C18.184 118.254 18.4499 118.519 18.7525 118.736C19.0988 118.853 19.5332 118.985 20.0142 119.119C23.3329 120.05 26.7331 120.658 30.1676 120.934C31.451 121.038 32.8319 121.136 34.0682 121.191L34.0682 121.219C34.4487 121.239 34.9073 121.242 35.4174 121.234C35.9282 121.242 36.3868 121.239 36.7673 121.219L36.7673 121.191C38.0036 121.136 39.3844 121.038 40.6679 120.934C44.1024 120.658 47.5026 120.05 50.8213 119.119C51.3023 118.983 51.7367 118.853 52.083 118.736C52.3856 118.519 52.6515 118.254 52.8706 117.953L52.8805 117.938C52.9918 117.783 53.0859 117.615 53.161 117.439C52.782 113.633 52.403 109.827 52.024 106.022C51.9317 105.037 51.5058 104.115 50.8175 103.409C50.665 103.254 50.5018 103.111 50.3291 102.98C50.2912 102.951 50.2528 102.923 50.2149 102.896C49.4731 102.376 48.589 102.1 47.6846 102.107L23.1533 102.107C22.249 102.1 21.3648 102.376 20.6231 102.896C20.5852 102.923 20.5467 102.951 20.5089 102.98C20.3362 103.111 20.1729 103.254 20.0204 103.409C19.3322 104.115 18.9062 105.037 18.814 106.022C18.4345 109.827 18.0555 113.633 17.677 117.439C17.7518 117.615 17.8459 117.783 17.9575 117.938L17.9649 117.953Z" fill="#5A6A82"/>
        <path opacity="0.15" d="M15.9424 125.327L19.0715 124.905C20.1378 124.762 21.2059 124.632 22.2758 124.516L53.0034 101.576C51.9819 101.131 50.835 100.681 49.572 100.257L15.8443 125.28L15.9424 125.327Z" fill="white"/>
        <path opacity="0.15" d="M15.1667 114.932L37.7661 98.0597C37.4831 98.0472 37.1976 98.0366 36.9096 98.0298C36.2679 98.0139 35.6369 98.0125 35.0167 98.0254L15.0327 112.853C15.0774 113.546 15.1221 114.239 15.1667 114.932Z" fill="white"/>
        <path opacity="0.15" d="M40.2441 124.027L56.5441 112.027L57.2398 103.717C56.9295 103.536 56.5726 103.335 56.1742 103.119L28.8488 123.977C33.7884 123.702 35.3089 123.719 40.2441 124.027Z" fill="white"/>
        <path opacity="0.85" d="M44.3899 65.658L42.9625 63.5467C42.8798 63.4241 42.7701 63.3223 42.6419 63.2494C42.5136 63.1765 42.3704 63.1343 42.2233 63.1261C40.9895 63.0596 39.7305 63.0057 38.4462 62.9646C37.6899 62.9409 36.942 62.9228 36.2026 62.9103L36.2778 62.8897C35.9929 62.8897 35.7055 62.8947 35.4176 62.8984C35.1296 62.9022 34.8429 62.8916 34.558 62.8897L34.6331 62.9103C33.8933 62.9236 33.1455 62.9417 32.3895 62.9646C31.1069 63.0062 29.8479 63.06 28.6125 63.1261C28.4654 63.1343 28.3221 63.1765 28.1939 63.2494C28.0657 63.3223 27.9559 63.4241 27.8733 63.5467L26.4459 65.658L44.3899 65.658Z" fill="#4A5564"/>
        <path opacity="0.85" d="M35.4164 46.6423C38.9812 46.5662 44.3049 46.8769 50.2592 48.8778C53.1412 49.8446 55.9091 51.1261 58.5134 52.6992C58.5705 52.3561 58.6257 52.0129 58.6754 51.6816C58.7623 51.1008 58.483 50.5249 57.9536 50.193C55.3182 48.5432 52.4987 47.2109 49.5535 46.2237C43.8816 44.3177 38.8112 44.0213 35.4151 44.0943C32.0197 44.0213 26.9492 44.3177 21.2774 46.2237C18.3321 47.2109 15.5127 48.5432 12.8772 50.193C12.3479 50.5249 12.0704 51.1008 12.1555 51.6816C12.2051 52.0154 12.2603 52.3561 12.3174 52.6992C14.9217 51.126 17.6897 49.8446 20.5717 48.8778C26.5284 46.8769 31.8521 46.5662 35.4164 46.6423Z" fill="#4A5564"/>
        <g opacity="0.75">
            <path d="M57.9547 50.1914C55.3192 48.5415 52.4998 47.2093 49.5546 46.2221C43.8827 44.316 38.8122 44.0197 35.4162 44.0927C32.0208 44.0197 26.9503 44.316 21.2784 46.2221C18.3332 47.2093 15.5137 48.5415 12.8783 50.1914C12.3489 50.5233 12.0715 51.0992 12.1565 51.68C12.4697 53.7772 12.8976 55.8555 13.4381 57.9053C14.1338 60.5457 15.2019 63.45 16.1688 65.7928C16.5809 66.791 17.7558 67.3463 18.8872 67.073C22.0387 66.3125 25.4471 65.429 29.3757 65.2444C30.9042 65.172 32.3832 65.1402 33.8119 65.1383L33.8119 65.1857C34.339 65.1691 34.8744 65.1568 35.4181 65.1489C35.9617 65.1568 36.4973 65.1691 37.0248 65.1857L37.0248 65.1383C38.4522 65.1383 39.9324 65.172 41.461 65.2444C45.3914 65.4315 48.7999 66.3125 51.9495 67.073C53.0809 67.3463 54.2558 66.7941 54.6679 65.7928C55.6329 63.45 56.701 60.5457 57.3986 57.9053C57.9392 55.8555 58.367 53.7772 58.6802 51.68C58.7633 51.0998 58.481 50.5233 57.9547 50.1914Z" fill="#5A6A82"/>
        </g>
        <path opacity="0.15" d="M58.4452 57.8483L44.9703 67.9618C48.5713 68.4528 52.1445 69.1317 55.6754 69.9957L58.4452 57.8483Z" fill="white"/>
        <path opacity="0.15" d="M60.3863 50.5318L60.3863 47.0466L32.6048 67.7353C34.0914 67.7586 35.632 67.8167 37.2266 67.9094L60.3491 50.6946L60.3863 50.5318Z" fill="white"/>
        <path opacity="0.15" d="M31.8819 37.1219L11.4479 52.47L12.1517 55.7012L36.2095 37.4956C34.8119 37.3228 33.3689 37.1955 31.8819 37.1219Z" fill="white"/>
        <path opacity="0.15" d="M41.3836 37.68L6.60088 63.6139L7.31087 66.7297C10.8192 65.8705 9.75737 69.4592 14.1725 68.9096L51.3638 40.5218C48.1239 39.2897 44.785 38.3389 41.3836 37.68Z" fill="white"/>
        <path d="M65.5004 107.578L65.0797 106.455C64.9605 106.137 64.8929 105.802 64.8792 105.462L64.4274 94.1849L65.1436 38.6491C65.146 38.4758 65.1592 38.3029 65.1833 38.1313L65.6178 35.0935C65.6651 34.7588 65.6859 34.4208 65.6798 34.0828L65.39 19.6493C65.3802 19.1582 65.2004 18.6858 64.8817 18.3135L64.5838 17.966C64.4195 17.7743 64.3292 17.5296 64.3293 17.2766L64.3293 15.0929C64.329 14.6861 64.2874 14.2803 64.2052 13.8819C64.1239 13.4845 64.019 13.0602 63.8881 12.6154L63.8819 12.5948C63.5552 11.4954 62.9173 10.5153 62.0461 9.77413C60.6615 8.59681 59.1745 7.40328 57.5776 6.206C55.0204 4.28861 52.3666 2.505 49.6268 0.862249C49.4353 0.747386 49.2139 0.692993 48.9912 0.70612C48.7686 0.719246 48.555 0.79927 48.3781 0.935854L48.3359 0.968303C48.2331 1.04779 48.1146 1.10429 47.9883 1.13399C47.862 1.16368 47.7308 1.1659 47.6036 1.14051L44.4111 0.50287C42.7352 0.16837 41.0307 -6.34237e-05 39.322 -2.78165e-06L31.5053 -3.46888e-06C29.7966 -6.44114e-05 28.0921 0.168369 26.4162 0.502869L23.2237 1.1405C23.0965 1.1659 22.9653 1.16368 22.839 1.13398C22.7127 1.10429 22.5942 1.04779 22.4914 0.9683L22.4492 0.935851C22.2723 0.799268 22.0587 0.719244 21.8361 0.706117C21.6135 0.692991 21.392 0.747383 21.2005 0.862247C18.4606 2.505 15.8069 4.28861 13.2497 6.206C11.6553 7.4014 10.1683 8.59681 8.78434 9.77412C7.91268 10.5151 7.27454 11.4952 6.9479 12.5948L6.94169 12.6154C6.8095 13.0602 6.70586 13.4845 6.62456 13.8819C6.54233 14.2803 6.50074 14.6861 6.50043 15.0929L6.50043 17.2766C6.50055 17.5296 6.41024 17.7743 6.24597 17.966L5.94808 18.3135C5.62932 18.6858 5.44959 19.1582 5.4398 19.6493L5.14997 34.0828C5.14392 34.4208 5.16468 34.7588 5.21204 35.0935L5.64647 38.1313C5.67057 38.3029 5.68381 38.4758 5.68617 38.6491L6.40237 94.1849L5.95057 105.462C5.9369 105.802 5.86922 106.137 5.75011 106.455L5.32931 107.578C5.20652 107.907 5.14613 108.256 5.15121 108.608L5.38703 123.572C5.38926 123.731 5.41456 123.888 5.46213 124.039L5.8345 125.227C5.85363 125.288 5.86695 125.351 5.87423 125.415L6.10075 127.372C6.72219 130.555 8.13969 133.527 10.2196 136.007C12.2996 138.488 14.9735 140.395 17.9894 141.549L18.0738 141.569C21.8121 142.46 25.6413 142.908 29.4833 142.903L41.3483 142.903C45.1903 142.907 49.0195 142.459 52.7578 141.568L52.8423 141.548C55.8581 140.394 58.5319 138.487 60.6118 136.007C62.6918 133.527 64.1093 130.555 64.7309 127.372L64.9562 125.414C64.9634 125.35 64.9768 125.288 64.9959 125.227L65.3701 124.036C65.4177 123.885 65.443 123.728 65.4452 123.57L65.6804 108.608C65.6852 108.256 65.6242 107.907 65.5004 107.578ZM53.371 119.954C53.3654 120.037 53.3555 120.119 53.3425 120.204C53.2964 120.49 53.2053 120.768 53.0725 121.026C53.0346 121.1 52.9931 121.172 52.9484 121.242C52.926 121.277 52.9025 121.312 52.8783 121.346L52.8683 121.36C52.8 121.455 52.7312 121.542 52.6616 121.622C52.5921 121.702 52.5226 121.773 52.455 121.839C52.3381 121.951 52.2137 122.056 52.0826 122.151C51.9963 122.18 51.9039 122.213 51.807 122.242C51.516 122.336 51.1814 122.435 50.8209 122.538C50.2002 122.716 49.5755 122.881 48.9466 123.034C48.5283 123.136 48.109 123.233 47.6886 123.325C47.4784 123.371 47.2678 123.416 47.0568 123.459C46.6352 123.546 46.2126 123.627 45.7889 123.703C45.1534 123.818 44.516 123.92 43.8768 124.011C43.4502 124.072 43.0234 124.127 42.5964 124.179C42.1694 124.23 41.741 124.275 41.3111 124.315C41.0968 124.335 40.8823 124.354 40.6675 124.372L40.1822 124.411C39.6931 124.45 39.1948 124.487 38.6995 124.521C38.3693 124.543 38.0404 124.564 37.7171 124.583C37.3937 124.602 37.076 124.618 36.7669 124.633L36.7669 124.661C36.5292 124.673 36.2611 124.68 35.9682 124.68C35.8515 124.68 35.7305 124.68 35.6063 124.68L35.4171 124.68L35.2309 124.68C35.1067 124.68 34.9857 124.68 34.869 124.68C34.5761 124.68 34.3105 124.673 34.0703 124.661L34.0703 124.633C33.76 124.618 33.4428 124.602 33.1201 124.583C32.7974 124.564 32.4678 124.544 32.1377 124.521C31.6412 124.487 31.1447 124.45 30.655 124.411L30.1697 124.372C29.9549 124.354 29.7404 124.335 29.5261 124.315C29.0975 124.274 28.669 124.228 28.2408 124.179C27.8126 124.129 27.3858 124.073 26.9605 124.011C26.3212 123.92 25.6838 123.818 25.0483 123.703C24.6242 123.627 24.2016 123.546 23.7804 123.459C23.5694 123.417 23.3588 123.373 23.1486 123.325C22.7286 123.233 22.3093 123.136 21.8906 123.034C21.2629 122.881 20.6382 122.716 20.0163 122.538C19.6558 122.435 19.3212 122.336 19.0302 122.242C18.9333 122.211 18.8409 122.18 18.7546 122.151C18.6235 122.056 18.4991 121.951 18.3822 121.839C18.3146 121.777 18.2451 121.701 18.1756 121.622C18.1061 121.543 18.0372 121.455 17.9689 121.36L17.959 121.346C17.9347 121.312 17.9112 121.277 17.8888 121.242C17.8441 121.172 17.8026 121.1 17.7647 121.026C17.632 120.768 17.5408 120.49 17.4947 120.204C17.4817 120.122 17.4718 120.04 17.4662 119.954C17.4606 119.869 17.4575 119.788 17.4581 119.705C17.4587 119.621 17.4637 119.537 17.4724 119.455C17.9201 114.913 18.3678 110.37 18.8154 105.827C18.84 105.58 18.8842 105.336 18.9476 105.096C18.9952 104.918 19.0536 104.742 19.1226 104.571C19.3294 104.055 19.6349 103.585 20.0219 103.187C20.1348 103.071 20.2537 102.962 20.3781 102.859C20.421 102.824 20.465 102.788 20.5104 102.753C20.5557 102.718 20.5867 102.696 20.6245 102.668C20.9904 102.405 21.3961 102.204 21.8261 102.071C22.2565 101.938 22.7045 101.871 23.1548 101.871L47.6824 101.871C48.1328 101.871 48.5807 101.938 49.0112 102.071C49.4411 102.204 49.8468 102.405 50.2127 102.668C50.2505 102.696 50.289 102.724 50.3269 102.753C50.3647 102.782 50.4162 102.824 50.4591 102.859C50.5835 102.962 50.7024 103.071 50.8153 103.187C51.2029 103.584 51.509 104.054 51.7164 104.57C51.7854 104.742 51.8439 104.917 51.8914 105.096C51.9549 105.335 51.9991 105.58 52.0237 105.826C52.4713 110.369 52.919 114.912 53.3667 119.454C53.3753 119.538 53.3797 119.622 53.3809 119.704C53.3822 119.786 53.3772 119.871 53.371 119.954ZM58.6767 51.6819C58.3635 53.7791 57.9357 55.8574 57.3951 57.9073C56.6994 60.5476 55.6313 63.4519 54.6644 65.7947C54.2523 66.7929 53.0775 67.3482 51.9461 67.0749C48.7946 66.3144 45.3861 65.4309 41.4576 65.2463C39.929 65.1739 38.45 65.1421 37.0214 65.1402L37.0214 65.1876C36.4947 65.171 35.9591 65.1587 35.4146 65.1508C34.8713 65.1587 34.3359 65.171 33.8084 65.1876L33.8084 65.1402C32.381 65.1402 30.9008 65.1739 29.3722 65.2463C25.4418 65.4334 22.0334 66.3144 18.8837 67.0749C17.7523 67.3482 16.5775 66.796 16.1654 65.7947C15.2003 63.4519 14.1322 60.5476 13.4346 57.9072C12.8941 55.8574 12.4662 53.7791 12.1531 51.6819C12.0662 51.1011 12.3454 50.5252 12.8748 50.1933C15.5103 48.5434 18.3297 47.2112 21.275 46.224C26.9468 44.3179 32.0173 44.0216 35.4127 44.0946C38.8087 44.0216 43.8792 44.3179 49.5511 46.224C52.4963 47.2112 55.3158 48.5435 57.9512 50.1933C58.4812 50.5252 58.7636 51.1017 58.6767 51.6819Z" fill="#E3E3E3"/>
        <path d="M61.549 47.8331C61.549 46.4487 61.6849 43.0328 61.2387 42.0002L58.6942 52.2703C58.2467 54.3118 57.7011 56.4748 57.0296 58.7359C56.2377 61.4074 55.3751 63.8738 54.4938 66.1261C53.953 66.7141 53.2133 67.0779 52.4197 67.1461L45.7865 65.7255C42.3302 65.5739 38.874 65.3037 35.4177 65.1521L25.0496 65.7255L17.7418 67.1461C17.2191 66.9466 16.751 66.6254 16.3757 66.2089C16.0004 65.7923 15.7286 65.2923 15.5826 64.7497C14.4333 60.6872 13.2835 56.6254 12.1333 52.5642L9.32307 43.2717C8.87746 44.3043 9.6222 47.2722 9.28582 48.6142C8.49887 51.7575 9.40436 56.4224 9.6011 58.4676L10.6462 95.2406C11.5664 104.091 13.82 112.749 17.3297 120.918L17.6288 121.017L17.5606 120.773L17.6574 119.202C17.4883 118.791 17.4243 118.344 17.4712 117.902C17.9176 113.503 18.3645 109.105 18.8118 104.708C18.9098 103.749 22.2463 102.108 23.1511 102.108L47.6825 102.108C48.5873 102.108 51.9238 103.749 52.0218 104.708C52.4563 108.977 52.8907 113.247 53.3251 117.516L53.3636 117.516L53.3636 117.887C53.3639 117.891 53.3639 117.895 53.3636 117.9C53.3834 118.093 53.3824 118.288 53.3605 118.482L53.3512 120.966L53.5026 120.916C57.0124 112.748 59.2664 104.09 60.1874 95.2406L61.2337 58.4651C61.4305 56.4224 61.549 51.123 61.549 47.8331Z" fill="#EDEDED"/>
        <path d="M17.5826 120.097L16.7622 120.859L16.7622 124.176L16.9496 127.794L17.0911 131.389L17.3356 134.559L19.0672 135.35L53.3788 135.502L53.5086 134.299L53.835 128.466L54.0373 124.533L54.1832 121.3L53.8834 120.554L53.5539 120.2L52.6614 121.492L51.2036 122.588L41.0756 124.334L33.55 124.604L25.4037 123.763L19.0281 122.368L17.9593 121.617L17.5826 120.097Z" fill="#EFEFEF"/>
        <path d="M22.9456 102.221L21.4946 102.641C23.1878 95.7105 24.3956 88.6689 25.1091 81.5683C25.6453 76.2152 26.2294 70.7747 26.1971 65.3873L27.0194 65.3792C27.0523 70.8103 26.9543 76.3013 26.4131 81.6999C25.6987 88.8337 24.6499 95.2499 22.9456 102.221Z" fill="#EFEFEF"/>
        <path d="M47.8641 102.121L49.3387 102.641C47.6455 95.7105 46.4377 88.6689 45.7242 81.5683C45.188 76.2152 44.604 70.7747 44.6363 65.3873L43.8139 65.3792C43.781 70.8103 43.8791 76.3013 44.4203 81.6999C45.1346 88.8337 46.1599 95.1476 47.8641 102.121Z" fill="#EFEFEF"/>
        <path d="M18.9549 138.313L17.7527 136.134C17.3326 135.371 17.0912 134.52 17.0471 133.649C16.9354 131.386 16.8088 128.813 16.7057 126.701C16.6437 125.472 16.5401 123.288 16.4631 121.695C16.4475 121.353 16.5104 121.012 16.6469 120.698C16.7833 120.384 16.9897 120.106 17.25 119.885L17.3413 119.809L17.5827 120.097L17.4908 120.174C17.2748 120.358 17.1035 120.589 16.9902 120.849C16.8769 121.11 16.8246 121.393 16.8373 121.677C16.9143 123.269 17.0204 125.454 17.08 126.682C17.183 128.794 17.3096 131.368 17.4213 133.63C17.4624 134.444 17.6871 135.238 18.0786 135.951L19.2807 138.13L18.9549 138.313Z" fill="#C9CBDF"/>
        <path d="M51.8783 138.313L53.0817 136.134C53.5018 135.371 53.7432 134.52 53.7873 133.649C53.899 131.386 54.0256 128.813 54.1287 126.701C54.1907 125.472 54.2944 123.288 54.3713 121.695C54.3869 121.353 54.324 121.012 54.1875 120.698C54.0511 120.384 53.8447 120.106 53.5844 119.885L53.4931 119.809L53.2517 120.097L53.3436 120.174C53.5597 120.358 53.731 120.589 53.8443 120.849C53.9576 121.11 54.0099 121.393 53.9971 121.677C53.9201 123.27 53.814 125.455 53.7538 126.683C53.6514 128.795 53.5248 131.368 53.4131 133.631C53.371 134.444 53.1452 135.238 52.7528 135.951L51.5506 138.13L51.8783 138.313Z" fill="#C9CBDF"/>
        <path d="M6.05478 102.959L5.95427 105.462C5.94857 105.589 5.9351 105.716 5.91393 105.842C6.67543 110.388 7.41893 115.969 7.85522 122.335C8.13947 126.485 8.38461 130.307 8.59375 133.752C10.5863 136.989 13.4963 139.553 16.9498 141.115C14.8664 135.755 12.8251 129.865 10.9602 123.473C8.83145 116.176 7.2439 109.292 6.05478 102.959Z" fill="#EFEFEF"/>
        <path opacity="0.75" d="M17.4686 119.454C17.4599 119.537 17.4556 119.621 17.4543 119.703C17.4543 119.62 17.4599 119.536 17.4686 119.454Z" fill="#5A6A82"/>
        <path opacity="0.75" d="M53.3647 119.454C52.9174 114.911 52.4697 110.369 52.0216 105.826C52.4693 110.368 52.917 114.911 53.3647 119.454Z" fill="#5A6A82"/>
        <path d="M63.2626 50.1862L62.4408 51.9088L61.5484 54.2479L61.8171 54.7713L61.9537 75.6441L61.3709 92.94L61.6421 93.0449L62.9646 93.7935L64.2605 94.0481L64.4287 94.0481L65.0152 48.5734L64.1414 49.1268L63.2626 50.1862Z" fill="#E6E6E6"/>
        <path d="M7.57089 50.1862L8.39259 51.9088L9.28442 54.2479L9.01569 54.7713L8.87977 75.6441L9.46254 92.94L9.19132 93.0449L7.86878 93.7935L6.57292 94.0481L6.40411 94.0481L5.81763 48.5734L6.69208 49.1268L7.57089 50.1862Z" fill="#E6E6E6"/>
        <path opacity="0.75" d="M32.1357 124.518C31.6392 124.485 31.1427 124.448 30.6531 124.409C31.1421 124.448 31.6405 124.485 32.1357 124.518Z" fill="#5A6A82"/>
        <path d="M9.28455 53.6827L9.37455 42.1935L8.43059 43.1032C8.20448 43.321 8.0245 43.5824 7.90142 43.8719C7.77835 44.1614 7.71472 44.4729 7.71439 44.7877L7.71439 50.5607L9.28455 53.6827Z" fill="#C9CBDF"/>
        <path d="M61.549 53.6827L61.4602 42.1935L62.4042 43.1032C62.6303 43.321 62.8103 43.5824 62.9333 43.8719C63.0564 44.1614 63.12 44.4729 63.1204 44.7877L63.1204 50.5607L61.549 53.6827Z" fill="#C9CBDF"/>
        <path opacity="0.75" d="M40.1802 124.409C39.6912 124.448 39.1928 124.485 38.6975 124.518C39.1928 124.483 39.6912 124.447 40.1802 124.409Z" fill="#5A6A82"/>
        <path d="M9.46327 54.7189C9.44896 54.6659 9.4162 54.6199 9.37096 54.5892C9.32572 54.5584 9.27099 54.5451 9.21678 54.5515C9.16256 54.5579 9.11245 54.5837 9.07556 54.6242C9.03867 54.6646 9.01746 54.7171 9.0158 54.7719C8.83623 61.5034 8.7909 68.461 8.87986 75.6447C8.95723 81.336 9.12272 86.8825 9.37635 92.2843C9.56984 95.1241 9.94548 97.9483 10.5009 100.739C10.7908 102.196 11.232 103.578 11.651 104.882C11.6803 104.973 11.7394 105.052 11.8186 105.105C11.8978 105.158 11.9925 105.182 12.0874 105.174C12.1822 105.167 12.2717 105.127 12.3413 105.062C12.4109 104.996 12.4565 104.909 12.4708 104.815C12.9145 101.803 13.632 95.9666 13.8293 91.968C14.1458 85.5623 14.188 79.4898 14.0372 73.7842C13.9958 72.2563 13.7739 70.7387 13.3763 69.2634C12.0709 64.4148 10.7666 59.5666 9.46327 54.7189Z" fill="#5A6A82"/>
        <path d="M61.9939 93.5042L60.4957 92.436L60.7123 92.1291L62.2105 93.1966C62.813 93.6276 63.5345 93.8586 64.274 93.8573L64.4317 93.8573L64.4273 94.1817L64.4273 94.2341L64.2722 94.2341C63.4556 94.2353 62.6591 93.9801 61.9939 93.5042Z" fill="#C9CBDF"/>
        <path d="M53.3649 117.515L53.3263 117.515L53.3637 117.885L53.3649 117.515Z" fill="#DE3743"/>
        <path opacity="0.85" d="M14.0352 73.7839C13.9938 72.2559 13.7719 70.7384 13.3742 69.2631C12.0701 64.4153 10.7668 59.5671 9.46433 54.7185C9.45002 54.6656 9.41726 54.6195 9.37202 54.5888C9.32678 54.5581 9.27206 54.5447 9.21784 54.5512C9.16362 54.5576 9.11351 54.5834 9.07662 54.6238C9.03973 54.6643 9.01853 54.7167 9.01686 54.7716C9.00114 55.3539 8.98684 55.9362 8.97401 56.5185C10.116 60.7669 11.2581 65.0147 12.4005 69.2618C12.7981 70.7371 13.02 72.2547 13.0614 73.7826C13.2123 79.4851 13.1701 85.5607 12.8535 91.9664C12.6624 95.8415 11.9846 101.442 11.5366 104.526C11.5746 104.645 11.6125 104.763 11.6501 104.881C11.6795 104.972 11.7386 105.05 11.8178 105.103C11.897 105.156 11.9917 105.181 12.0866 105.173C12.1814 105.165 12.2709 105.125 12.3405 105.06C12.4101 104.995 12.4557 104.908 12.47 104.813C12.9137 101.801 13.6312 95.965 13.8285 91.9664C14.1438 85.562 14.186 79.4889 14.0352 73.7839Z" fill="#4A5564"/>
        <path opacity="0.15" d="M10.9192 74.4635C10.8822 73.1059 10.6849 71.7575 10.3315 70.4468C9.83496 68.6037 9.33951 66.7607 8.84508 64.9177C8.82026 68.4369 8.83182 72.014 8.87981 75.6489C8.95718 81.3402 9.12268 86.8867 9.37631 92.2885C9.50043 94.1053 9.70961 96.0737 10.041 98.1644C10.3383 95.685 10.6269 92.8369 10.7361 90.6226C11.0154 84.9289 11.0532 79.5302 10.9192 74.4635Z" fill="white"/>
        <path d="M8.83932 93.5042L10.3375 92.436L10.1209 92.1291L8.62274 93.1966C8.02019 93.6276 7.29872 93.8586 6.55917 93.8573L6.40153 93.8573L6.40587 94.1817L6.40587 94.2341L6.56102 94.2341C7.37756 94.2353 8.17407 93.9801 8.83932 93.5042Z" fill="#C9CBDF"/>
        <path d="M7.90045 51.0528C8.03947 51.356 8.17476 51.6674 8.30261 51.9781C8.74502 53.0515 9.11816 54.1525 9.41973 55.2742L9.78156 55.1756C9.47614 54.0384 9.098 52.9222 8.64953 51.8339C8.51982 51.522 8.38267 51.2032 8.24179 50.8981C7.82493 49.9912 7.16846 49.2166 6.34392 48.6589L5.81579 48.2989L5.82136 48.7581L6.13168 48.9708C6.89962 49.4891 7.51141 50.2092 7.90045 51.0528Z" fill="#C9CBDF"/>
        <path d="M62.9335 51.0528C62.7945 51.356 62.6592 51.6674 62.5313 51.9781C62.0889 53.0515 61.7158 54.1525 61.4142 55.2742L61.0524 55.1756C61.3578 54.0384 61.7359 52.9222 62.1844 51.8339C62.3141 51.522 62.4513 51.2032 62.5922 50.8981C63.009 49.9912 63.6655 49.2166 64.49 48.6589L65.0182 48.2989L65.0126 48.7581L64.7023 48.9708C63.9343 49.4891 63.3226 50.2092 62.9335 51.0528Z" fill="#C9CBDF"/>
        <path d="M10.7358 17.1664C9.55897 16.8654 9.09382 16.0033 9.03906 15.5201C8.05434 37.8095 6.36593 84.7488 7.49001 94.1911C8.61409 103.633 14.1408 118.078 16.7637 124.12V120.256C14.6092 115.01 10.0614 102.186 9.1059 92.8562C8.15043 83.5264 9.79439 38.5089 10.7358 17.1664Z" fill="#275285"/>
        <path d="M60.2312 17.1668C61.4081 16.8658 61.8732 16.0036 61.928 15.5205C62.9127 37.8099 64.6011 84.7492 63.477 94.1914C62.3529 103.634 56.8262 118.078 54.2034 124.12V120.256C56.3578 115.01 60.9057 102.186 61.8611 92.8566C62.8166 83.5267 61.1726 38.5093 60.2312 17.1668Z" fill="#275285"/>
        <path d="M9.3092 90.7988C9.33113 91.295 9.35284 91.7902 9.37436 92.2843C9.56784 95.1241 9.94348 97.9483 10.4989 100.739C10.7888 102.196 11.23 103.578 11.6489 104.882C11.6783 104.973 11.7374 105.052 11.8166 105.105C11.8958 105.158 11.9905 105.182 12.0854 105.174C12.1802 105.167 12.2697 105.127 12.3393 105.062C12.4089 104.996 12.4545 104.909 12.4688 104.815C12.8796 102.027 13.5238 96.8201 13.7721 92.8895L9.3092 90.7988Z" fill="#EFEFEF"/>
        <path d="M13.9318 92.4485L13.6041 93.1829L9.32986 91.2799L9.19146 90.3385L13.9318 92.4485Z" fill="#C9CBDF"/>
        <path d="M12.0475 105.365C11.9187 105.366 11.7931 105.325 11.6892 105.249C11.5853 105.172 11.5088 105.064 11.471 104.94C11.0682 103.686 10.6114 102.264 10.3154 100.777C9.75873 97.9777 9.38207 95.1453 9.18773 92.2974C8.93451 86.7727 8.76819 81.1725 8.69123 75.6478C8.5969 68.7224 8.6428 61.6948 8.82775 54.7669C8.83079 54.667 8.86942 54.5714 8.9366 54.4977C9.00378 54.424 9.09506 54.377 9.19382 54.3652C9.29258 54.3534 9.39225 54.3776 9.47474 54.4335C9.55722 54.4894 9.61702 54.5731 9.64325 54.6696L13.5532 69.2147C13.9549 70.7042 14.179 72.2365 14.2209 73.7792C14.3811 79.8211 14.311 85.9454 14.0131 91.9773C13.8145 95.9928 13.0908 101.871 12.652 104.842C12.6337 104.98 12.5688 105.107 12.4681 105.201C12.3675 105.296 12.2373 105.353 12.0997 105.363C12.0824 105.364 12.0649 105.365 12.0475 105.365ZM9.24667 54.7376L9.23861 54.7376C9.23366 54.7375 9.22874 54.7384 9.22418 54.7403C9.21963 54.7423 9.21553 54.7452 9.21218 54.7489C9.20883 54.7525 9.20631 54.7569 9.20476 54.7616C9.20321 54.7663 9.20271 54.7713 9.20324 54.7763C9.01706 61.7016 8.97297 68.7193 9.0673 75.6416C9.14239 81.1625 9.30934 86.759 9.5638 92.2749C9.75641 95.1052 10.1302 97.92 10.6828 100.702C10.9751 102.169 11.4275 103.579 11.8272 104.824C11.8436 104.874 11.8764 104.918 11.9204 104.947C11.9644 104.977 12.017 104.99 12.0697 104.986C12.1225 104.982 12.1723 104.96 12.211 104.924C12.2498 104.888 12.2753 104.839 12.2834 104.787C12.7178 101.823 13.4427 95.9597 13.64 91.958C13.9379 85.9341 14.0081 79.8211 13.848 73.7886C13.8066 72.2756 13.5868 70.7729 13.1932 69.312L9.28328 54.7675C9.28219 54.7587 9.27779 54.7507 9.27097 54.7452C9.26415 54.7396 9.25543 54.7369 9.24667 54.7376Z" fill="#C9CBDF"/>
        <path d="M10.1346 93.4588C10.1483 93.7708 10.1613 94.0827 10.1756 94.3947C10.2973 96.1832 10.5338 97.9619 10.8837 99.7197C11.0668 100.637 11.3442 101.507 11.608 102.329C11.6265 102.386 11.6637 102.435 11.7136 102.469C11.7635 102.502 11.8231 102.518 11.8828 102.513C11.9425 102.508 11.9989 102.483 12.0427 102.442C12.0865 102.401 12.1153 102.346 12.1243 102.286C12.3831 100.531 12.789 97.2515 12.9466 94.7759L10.1346 93.4588Z" fill="#5A6A82"/>
        <path opacity="0.85" d="M12.555 94.5945C12.3496 97.2673 11.9611 100.448 11.6775 102.444C11.7129 102.477 11.7568 102.501 11.8045 102.511C11.8521 102.521 11.9016 102.518 11.9477 102.502C11.9937 102.486 12.0345 102.458 12.0656 102.42C12.0968 102.382 12.1171 102.337 12.1243 102.289C12.3831 100.533 12.789 97.2536 12.9466 94.7779L12.555 94.5945Z" fill="#4A5564"/>
        <path d="M61.3702 54.7221C61.3845 54.6691 61.4172 54.6231 61.4625 54.5923C61.5077 54.5616 61.5624 54.5482 61.6167 54.5547C61.6709 54.5611 61.721 54.5869 61.7579 54.6273C61.7948 54.6678 61.816 54.7202 61.8176 54.7751C61.9968 61.5066 62.0421 68.4642 61.9536 75.6479C61.8758 81.3392 61.7103 86.8857 61.4571 92.2875C61.2636 95.1272 60.888 97.9515 60.3325 100.743C60.0427 102.199 59.6014 103.581 59.1825 104.885C59.1531 104.976 59.094 105.055 59.0148 105.108C58.9356 105.161 58.8409 105.185 58.7461 105.178C58.6512 105.17 58.5617 105.13 58.4922 105.065C58.4226 105 58.3769 104.913 58.3626 104.818C57.9189 101.806 57.2015 95.9698 57.0041 91.9711C56.6876 85.5655 56.6454 79.493 56.7962 73.7874C56.8376 72.2594 57.0595 70.7419 57.4572 69.2666C58.7605 64.418 60.0648 59.5698 61.3702 54.7221Z" fill="#5A6A82"/>
        <path opacity="0.85" d="M56.7981 73.7839C56.8395 72.2559 57.0614 70.7384 57.4591 69.2631C58.7632 64.4153 60.0665 59.5671 61.369 54.7185C61.3833 54.6656 61.416 54.6195 61.4613 54.5888C61.5065 54.5581 61.5613 54.5447 61.6155 54.5512C61.6697 54.5576 61.7198 54.5834 61.7567 54.6238C61.7936 54.6643 61.8148 54.7167 61.8165 54.7716C61.8314 55.3539 61.8456 55.9362 61.8593 56.5185C60.7174 60.7669 59.5752 65.0147 58.4328 69.2618C58.0352 70.7371 57.8133 72.2547 57.7719 73.7826C57.621 79.4851 57.6633 85.5607 57.9798 91.9664C58.1709 95.8415 58.8487 101.442 59.2967 104.526C59.2591 104.645 59.2212 104.763 59.1832 104.881C59.1538 104.972 59.0947 105.05 59.0155 105.103C58.9363 105.156 58.8416 105.181 58.7467 105.173C58.6519 105.165 58.5624 105.125 58.4928 105.06C58.4233 104.995 58.3776 104.908 58.3633 104.813C57.9196 101.801 57.2021 95.965 57.0048 91.9664C56.6895 85.562 56.6473 79.4889 56.7981 73.7839Z" fill="#4A5564"/>
        <path opacity="0.15" d="M59.9141 74.4635C59.9511 73.1059 60.1484 71.7575 60.5019 70.4468C60.9984 68.6037 61.4938 66.7607 61.9882 64.9177C62.0131 68.4369 62.0015 72.014 61.9535 75.6489C61.8757 81.3402 61.7102 86.8867 61.457 92.2885C61.3329 94.1053 61.1237 96.0737 60.7923 98.1644C60.495 95.685 60.2064 92.8369 60.0972 90.6226C59.8179 84.9289 59.7801 79.5302 59.9141 74.4635Z" fill="white"/>
        <path d="M61.5221 90.8019C61.5006 91.2982 61.4789 91.7933 61.457 92.2875C61.2635 95.1272 60.8879 97.9515 60.3324 100.743C60.0426 102.199 59.6013 103.581 59.1824 104.885C59.153 104.976 59.0939 105.055 59.0147 105.108C58.9355 105.161 58.8408 105.185 58.746 105.178C58.6511 105.17 58.5617 105.13 58.4921 105.065C58.4225 105 58.3768 104.913 58.3626 104.818C57.9517 102.03 57.3075 96.8233 57.0592 92.8927L61.5221 90.8019Z" fill="#EFEFEF"/>
        <path d="M56.9018 92.4485L57.2288 93.1829L61.5037 91.2799L61.6421 90.3385L56.9018 92.4485Z" fill="#C9CBDF"/>
        <path d="M58.7295 105.364C58.5918 105.355 58.4617 105.298 58.361 105.203C58.2604 105.108 58.1954 104.981 58.1771 104.844C57.7383 101.872 57.0147 95.9944 56.8161 91.9789C56.5182 85.9457 56.4481 79.8227 56.6082 73.7808C56.6501 72.2381 56.8743 70.7058 57.276 69.2163L61.1859 54.6712C61.2121 54.5747 61.2719 54.4909 61.3544 54.4351C61.4369 54.3792 61.5366 54.355 61.6353 54.3668C61.7341 54.3785 61.8254 54.4256 61.8926 54.4993C61.9597 54.573 61.9984 54.6685 62.0014 54.7685C62.1876 61.6938 62.2323 68.7215 62.1379 75.6494C62.0622 81.1741 61.8959 86.7743 61.6414 92.299C61.4471 95.1469 61.0704 97.9792 60.5138 100.778C60.2177 102.266 59.7609 103.688 59.3582 104.942C59.3203 105.066 59.2438 105.174 59.1399 105.25C59.0361 105.327 58.9104 105.368 58.7816 105.367C58.7642 105.367 58.7468 105.366 58.7295 105.364ZM61.5483 54.7697L57.6384 69.3142C57.2448 70.7751 57.025 72.2778 56.9837 73.7908C56.8235 79.8233 56.8937 85.9364 57.1916 91.9602C57.3889 95.9619 58.1113 101.825 58.5483 104.789C58.5564 104.841 58.5819 104.89 58.6206 104.926C58.6594 104.962 58.7091 104.984 58.7619 104.988C58.8146 104.993 58.8672 104.979 58.9112 104.949C58.9552 104.92 58.9881 104.876 59.0044 104.826C59.4035 103.582 59.8565 102.171 60.1488 100.704C60.7035 97.9224 61.0794 95.1075 61.274 92.2771C61.5266 86.7612 61.6936 81.1647 61.7705 75.6438C61.8649 68.7215 61.8189 61.7013 61.6346 54.7785C61.6351 54.7735 61.6346 54.7685 61.6331 54.7638C61.6315 54.7591 61.629 54.7547 61.6256 54.7511C61.6223 54.7474 61.6182 54.7445 61.6136 54.7426C61.6091 54.7406 61.6042 54.7397 61.5992 54.7398L61.5912 54.7398C61.5865 54.7389 61.5818 54.739 61.5772 54.74C61.5726 54.7411 61.5683 54.7431 61.5645 54.7459C61.5607 54.7487 61.5575 54.7523 61.5552 54.7564C61.5528 54.7605 61.5513 54.765 61.5508 54.7697L61.5483 54.7697Z" fill="#C9CBDF"/>
        <path d="M60.6975 93.4588C60.6838 93.7708 60.6708 94.0827 60.6565 94.3947C60.5348 96.1832 60.2983 97.9619 59.9484 99.7197C59.7622 100.637 59.4879 101.507 59.2241 102.329C59.2056 102.386 59.1683 102.435 59.1184 102.469C59.0686 102.502 59.009 102.518 58.9493 102.513C58.8895 102.508 58.8332 102.483 58.7894 102.442C58.7456 102.401 58.7168 102.346 58.7077 102.286C58.4489 100.531 58.0431 97.2515 57.8854 94.7759L60.6975 93.4588Z" fill="#5A6A82"/>
        <path opacity="0.85" d="M58.2768 94.5945C58.4823 97.2673 58.8708 100.448 59.1544 102.444C59.119 102.477 59.075 102.501 59.0274 102.511C58.9798 102.521 58.9303 102.518 58.8842 102.502C58.8382 102.486 58.7974 102.458 58.7663 102.42C58.7351 102.382 58.7148 102.337 58.7076 102.289C58.4488 100.533 58.0429 97.2536 57.8852 94.7779L58.2768 94.5945Z" fill="#4A5564"/>
        <path d="M19.9486 103.81L19.1189 103.951C19.3629 97.4787 19.2578 90.9974 18.8042 84.5361C18.3866 78.6218 17.672 72.7325 16.6631 66.8907L17.4941 66.7454C19.6088 78.9788 20.4315 91.4026 19.9486 103.81Z" fill="#E3E3E3"/>
        <path d="M50.8848 103.812L51.7164 104.571C51.4724 97.8926 51.5774 91.206 52.0311 84.5387C52.4487 78.6244 53.1633 72.7351 54.1722 66.8933L53.3412 66.748C51.2265 78.9813 50.4038 91.4051 50.8866 103.812L50.8848 103.812Z" fill="#E3E3E3"/>
        <path d="M34.723 99.8335L36.1095 99.8335C36.2288 99.8335 36.3255 99.7363 36.3255 99.6164L36.3255 95.5067C36.3255 95.3868 36.2288 95.2896 36.1095 95.2896L34.723 95.2896C34.6038 95.2896 34.5071 95.3868 34.5071 95.5067L34.5071 99.6164C34.5071 99.7363 34.6038 99.8335 34.723 99.8335Z" fill="#E3E3E3"/>
        <path d="M35.0527 101.029L35.7806 101.029C35.8557 101.029 35.9166 100.968 35.9166 100.892L35.9166 97.0327C35.9166 96.9572 35.8557 96.896 35.7806 96.896L35.0527 96.896C34.9776 96.896 34.9167 96.9572 34.9167 97.0327L34.9167 100.892C34.9167 100.968 34.9776 101.029 35.0527 101.029Z" fill="#E3E3E3"/>
        <path d="M6.01511 86.1426L6.01511 83.3126C6.01507 83.0482 6.06782 82.7865 6.17027 82.543C6.27272 82.2995 6.42278 82.0792 6.61152 81.8951L7.51142 81.0172C7.6568 81.1679 7.73669 81.3705 7.73355 81.5804C7.73041 81.7903 7.64449 81.9903 7.49467 82.1365L7.15954 82.4635C7.04666 82.5739 6.95694 82.7059 6.89565 82.8517C6.83436 82.9976 6.80274 83.1543 6.80268 83.3126L6.80268 86.1433C6.80225 86.2987 6.83247 86.4526 6.89159 86.5962C6.95071 86.7399 7.03755 86.8703 7.14711 86.9799L7.64797 88.2396L7.46736 88.4211L6.59043 87.5396C6.4079 87.3562 6.26314 87.1384 6.16442 86.8987C6.0657 86.659 6.01496 86.4021 6.01511 86.1426Z" fill="#E0E0E0"/>
        <path d="M7.7248 86.0032L6.015 86.0032L6.015 86.6546C6.01492 87.5273 6.2919 88.3774 6.80565 89.0809L7.7248 90.3394L7.7248 86.0032Z" fill="#E0E0E0"/>
        <path d="M7.3314 56.1022L7.19673 56.1246C6.33392 56.2663 5.50137 56.5545 4.73473 56.9769L1.78365 58.6034C1.39213 58.8178 1.04751 59.1092 0.770294 59.4602C0.493083 59.8112 0.288947 60.2147 0.170037 60.6467C0.170037 60.6542 0.165686 60.661 0.163825 60.6685C0.0387775 61.1394 -0.0152031 61.6265 0.00369918 62.1135C0.00572755 62.1716 0.0200694 62.2285 0.0457608 62.2806C0.0714523 62.3326 0.107901 62.3785 0.152673 62.4153C0.197444 62.452 0.249508 62.4787 0.305373 62.4936C0.361239 62.5085 0.419626 62.5112 0.47662 62.5016L0.490893 62.5016C1.12566 62.3943 1.7433 62.2021 2.32733 61.9301L7.51262 59.5155L8.25736 57.967C8.38651 57.592 8.41288 57.189 8.3337 56.8003L8.3337 56.7891C8.2873 56.5666 8.15703 56.3708 7.97017 56.2427C7.78332 56.1146 7.55439 56.0643 7.3314 56.1022Z" fill="#E3E3E3"/>
        <path d="M0.16005 62.1079L0.146414 62.1079C0.0986068 62.1166 0.0496109 62.1166 0.00180399 62.1079L0.00180399 62.1135C0.00383237 62.1716 0.0181742 62.2285 0.0438656 62.2806C0.0695571 62.3326 0.106006 62.3785 0.150777 62.4153C0.195549 62.452 0.247613 62.4787 0.303478 62.4936C0.359344 62.5085 0.417731 62.5112 0.474725 62.5016L0.488998 62.5016C1.12376 62.3943 1.74138 62.2021 2.32541 61.9301L7.43872 59.5486L7.71427 58.8879L1.9971 61.5382C1.41276 61.8096 0.794927 62.0012 0.16005 62.1079Z" fill="#5A6A82"/>
        <path d="M0.146376 62.1078L0.160013 62.1078C0.466994 62.0559 0.770314 61.984 1.06801 61.8925L1.31625 58.9171C0.759987 59.3554 0.358392 59.9616 0.170589 60.6466C0.170589 60.6541 0.166238 60.6609 0.164376 60.6684C0.0396362 61.1374 -0.0143439 61.6226 0.00425105 62.1078C0.0512507 62.1163 0.0993762 62.1163 0.146376 62.1078Z" fill="#EDEDED"/>
        <path d="M8.33062 56.7962L8.33062 56.7849C8.28408 56.5637 8.15454 56.3689 7.96894 56.2411C7.78334 56.1133 7.55594 56.0623 7.3339 56.0986L7.19923 56.1211C6.82591 56.1826 6.45768 56.2721 6.09762 56.3887C6.34872 56.7426 6.54693 57.1314 6.68597 57.543C6.93074 58.2775 6.98351 59.063 6.83925 59.824L7.51324 59.512L8.25798 57.9635C8.386 57.588 8.41111 57.1848 8.33062 56.7962Z" fill="#C9CBDF"/>
        <path d="M6.62137 59.926L6.61083 60.4589C6.6101 60.4955 6.61942 60.5316 6.6378 60.5632C6.65617 60.5948 6.68287 60.6208 6.71495 60.6381C6.74703 60.6555 6.78327 60.6636 6.81965 60.6616C6.85603 60.6596 6.89114 60.6475 6.92114 60.6267L7.13772 60.477C7.27221 60.3838 7.36545 60.2417 7.39775 60.0808L7.51073 59.5124L6.62137 59.926Z" fill="#E0E0E0"/>
        <path opacity="0.85" d="M53.1587 117.439C53.0836 117.615 52.9895 117.782 52.8782 117.938L52.8682 117.952C52.6492 118.254 52.3833 118.518 52.0807 118.735C51.7344 118.853 51.2999 118.985 50.8189 119.119C47.5002 120.05 44.1001 120.657 40.6656 120.933C39.3821 121.037 38.0012 121.135 36.7649 121.191L36.7649 121.218C36.3845 121.238 35.9259 121.242 35.4151 121.234C34.9049 121.242 34.4463 121.238 34.0659 121.218L34.0659 121.191C32.8296 121.135 31.4487 121.037 30.1653 120.933C26.7307 120.657 23.3306 120.05 20.0119 119.119C19.5309 118.983 19.0965 118.853 18.7502 118.735C18.4476 118.518 18.1816 118.254 17.9626 117.952L17.9527 117.938C17.8411 117.782 17.747 117.615 17.6722 117.439C17.6035 118.129 17.5348 118.819 17.4661 119.508C17.3957 120.171 17.5687 120.837 17.9527 121.38L17.9626 121.394C18.1816 121.696 18.4476 121.96 18.7502 122.177C19.0965 122.295 19.5309 122.427 20.0119 122.561C23.3307 123.492 26.7308 124.099 30.1653 124.375C31.4487 124.48 32.8296 124.577 34.0659 124.632L34.0659 124.66C34.4463 124.68 34.9049 124.684 35.4151 124.676C35.9259 124.684 36.3845 124.68 36.7649 124.66L36.7649 124.632C38.0012 124.577 39.3821 124.48 40.6656 124.375C44.1 124.099 47.5002 123.492 50.8189 122.561C51.2999 122.425 51.7344 122.295 52.0807 122.177C52.3833 121.96 52.6492 121.696 52.8682 121.394L52.8782 121.38C53.2621 120.837 53.4352 120.171 53.3647 119.508C53.2965 118.818 53.2278 118.128 53.1587 117.439Z" fill="#4A5564"/>
        <path d="M35.8943 125.057C35.7429 125.057 35.584 125.057 35.417 125.053C34.879 125.062 34.4185 125.056 34.0479 125.037L33.6818 125.018L33.6818 124.992C32.664 124.941 31.4736 124.859 30.1368 124.751C26.6784 124.472 23.2546 123.86 19.9126 122.923C19.3938 122.777 18.9631 122.646 18.6323 122.534L18.5796 122.516L18.5342 122.484C18.1988 122.243 17.9042 121.95 17.6616 121.616L17.6493 121.598C17.2129 120.981 17.0158 120.225 17.095 119.472L18.4381 105.985C18.5398 104.915 19.0033 103.912 19.7513 103.144C19.9165 102.977 20.0932 102.822 20.2801 102.68C20.321 102.649 20.362 102.618 20.4042 102.589C21.2088 102.023 22.1693 101.723 23.1517 101.731L47.6824 101.731C48.6645 101.723 49.6248 102.023 50.4292 102.589C50.4708 102.618 50.5118 102.652 50.5534 102.68C50.7402 102.822 50.9169 102.977 51.0821 103.144C51.8301 103.912 52.2936 104.915 52.3954 105.985L53.7384 119.472C53.8177 120.226 53.6201 120.982 53.1829 121.6L53.1711 121.616C52.9288 121.951 52.6344 122.244 52.2992 122.484L52.2539 122.516L52.2011 122.534C51.8703 122.646 51.4396 122.777 50.9208 122.923C47.5788 123.86 44.1551 124.472 40.6967 124.751C39.3598 124.859 38.1695 124.938 37.1517 124.992L37.1517 125.018L36.7855 125.037C36.5298 125.05 36.2313 125.057 35.8943 125.057ZM35.417 124.299L35.4226 124.299C35.7795 124.305 36.0997 124.305 36.3802 124.299L36.3802 124.274L36.7489 124.257C37.8356 124.209 39.1433 124.122 40.6365 124.001C44.0468 123.726 47.4229 123.123 50.7184 122.199C51.1963 122.064 51.596 121.943 51.9076 121.84C52.1594 121.653 52.3812 121.428 52.5654 121.173L52.5735 121.162C52.9046 120.694 53.0538 120.12 52.993 119.548L51.6494 106.061C51.5651 105.163 51.1769 104.322 50.5497 103.677C50.4097 103.535 50.2597 103.403 50.101 103.282C50.0662 103.256 50.0314 103.23 49.996 103.205C49.3184 102.729 48.5097 102.478 47.683 102.486L23.1517 102.486C22.325 102.478 21.5163 102.729 20.8386 103.205C20.8033 103.23 20.7685 103.256 20.7331 103.282C20.5747 103.403 20.4249 103.535 20.285 103.677C19.6578 104.322 19.2696 105.163 19.1853 106.061L17.8417 119.546C17.7804 120.116 17.9289 120.69 18.2593 121.158L18.2692 121.172C18.4534 121.426 18.6751 121.65 18.9265 121.837C19.2368 121.941 19.6377 122.062 20.1156 122.197C23.4113 123.12 26.7877 123.724 30.1982 123.998C31.6908 124.123 32.9991 124.206 34.0852 124.255L34.4538 124.272L34.4538 124.297C34.7344 124.303 35.0546 124.304 35.4114 124.297L35.417 124.299Z" fill="#C9CBDF"/>
        <path d="M7.39589 127.808L8.63714 132.44L9.00021 132.347L7.75896 127.7L7.74963 127.673C7.62487 127.379 7.45919 127.103 7.2575 126.856L5.78288 125.041L5.84122 125.229C5.86036 125.29 5.87367 125.352 5.88095 125.416L5.92689 125.815L6.96331 127.095C7.13957 127.311 7.28516 127.551 7.39589 127.808Z" fill="#C9CBDF"/>
        <path d="M8.59374 131.578L8.59374 133.751C9.07038 134.526 9.60196 135.266 10.1844 135.964C12.0262 138.17 14.3383 139.93 16.9492 141.115L8.59374 131.578Z" fill="#B02C35"/>
        <path opacity="0.1" d="M8.59372 132.607C10.4011 135.471 12.8279 137.889 15.6936 139.68L8.59372 131.577L8.59372 132.607Z" fill="white"/>
        <path d="M17.0552 141.018C17.0767 141.043 17.0893 141.074 17.0909 141.106C17.0924 141.138 17.0827 141.17 17.0636 141.196C17.0444 141.222 17.0169 141.241 16.9856 141.249C16.9544 141.257 16.9213 141.254 16.892 141.241C14.2631 140.045 11.9342 138.272 10.0764 136.052C9.67295 135.568 9.05293 134.673 8.70787 134.165C8.5419 133.922 8.45322 133.633 8.45343 133.338L8.45343 131.201L17.0552 141.018ZM8.73456 133.278C8.73428 133.566 8.81777 133.848 8.97475 134.089C9.37873 134.71 9.81869 135.305 10.2923 135.874C11.9751 137.884 14.0518 139.525 16.393 140.693L8.73456 131.952L8.73456 133.278Z" fill="#C9CBDF"/>
        <path d="M64.7786 102.959L64.8791 105.462C64.8848 105.589 64.8983 105.716 64.9194 105.842C64.1579 110.388 63.4144 115.969 62.9781 122.335C62.6939 126.485 62.4487 130.307 62.2396 133.752C60.2471 136.989 57.337 139.553 53.8835 141.115C55.967 135.755 58.0082 129.865 59.8732 123.473C62.0025 116.176 63.5895 109.292 64.7786 102.959Z" fill="#EFEFEF"/>
        <path d="M64.8183 86.1426L64.8183 83.3126C64.8183 83.0482 64.7656 82.7865 64.6631 82.543C64.5607 82.2995 64.4106 82.0792 64.2219 81.8951L63.322 81.0172C63.1766 81.1679 63.0967 81.3705 63.0999 81.5804C63.103 81.7903 63.1889 81.9903 63.3387 82.1365L63.6739 82.4635C63.7867 82.5739 63.8765 82.7059 63.9378 82.8517C63.999 82.9976 64.0307 83.1543 64.0307 83.3126L64.0307 86.1433C64.0312 86.2987 64.0009 86.4526 63.9418 86.5962C63.8827 86.7399 63.7959 86.8703 63.6863 86.9799L63.1854 88.2396L63.366 88.4211L64.243 87.5377C64.6112 87.1677 64.8181 86.6659 64.8183 86.1426Z" fill="#E0E0E0"/>
        <path d="M63.1085 86.0032L64.8183 86.0032L64.8183 86.6546C64.8184 87.5273 64.5414 88.3774 64.0276 89.0809L63.1085 90.3394L63.1085 86.0032Z" fill="#E0E0E0"/>
        <path d="M63.5019 56.1022L63.6366 56.1246C64.4994 56.2663 65.3319 56.5545 66.0986 56.9769L69.0496 58.6034C69.4412 58.8178 69.7858 59.1092 70.063 59.4602C70.3402 59.8112 70.5443 60.2147 70.6632 60.6467C70.6632 60.6542 70.6676 60.661 70.6695 60.6685C70.7945 61.1394 70.8485 61.6265 70.8296 62.1135C70.8276 62.1716 70.8132 62.2285 70.7875 62.2806C70.7618 62.3326 70.7254 62.3785 70.6806 62.4153C70.6358 62.452 70.5838 62.4787 70.5279 62.4936C70.472 62.5085 70.4137 62.5112 70.3567 62.5016L70.3424 62.5016C69.7076 62.3943 69.09 62.2021 68.506 61.9301L63.3207 59.5155L62.5759 57.967C62.4468 57.592 62.4204 57.189 62.4996 56.8003L62.4996 56.7891C62.546 56.5666 62.6763 56.3708 62.8631 56.2427C63.05 56.1146 63.2789 56.0643 63.5019 56.1022Z" fill="#E3E3E3"/>
        <path d="M70.6733 62.1079L70.687 62.1079C70.7348 62.1166 70.7838 62.1166 70.8316 62.1079L70.8316 62.1135C70.8296 62.1716 70.8152 62.2285 70.7895 62.2806C70.7638 62.3326 70.7274 62.3785 70.6826 62.4153C70.6378 62.452 70.5858 62.4787 70.5299 62.4936C70.474 62.5085 70.4157 62.5112 70.3587 62.5016L70.3444 62.5016C69.7096 62.3943 69.092 62.2021 68.508 61.9301L63.3947 59.5486L63.1191 58.8879L68.8363 61.5382C69.4206 61.8096 70.0385 62.0012 70.6733 62.1079Z" fill="#5A6A82"/>
        <path d="M70.687 62.1078L70.6733 62.1078C70.3664 62.0559 70.063 61.984 69.7653 61.8925L69.5171 58.9171C70.0734 59.3554 70.475 59.9616 70.6628 60.6466C70.6628 60.6541 70.6671 60.6609 70.669 60.6684C70.7937 61.1374 70.8477 61.6226 70.8291 62.1078C70.7821 62.1163 70.734 62.1163 70.687 62.1078Z" fill="#EDEDED"/>
        <path d="M62.5026 56.796L62.5026 56.7848C62.5492 56.5635 62.6787 56.3688 62.8643 56.241C63.0499 56.1132 63.2773 56.0622 63.4994 56.0985L63.634 56.121C64.0073 56.1825 64.3756 56.272 64.7356 56.3886C64.4845 56.7424 64.2863 57.1313 64.1473 57.5429C63.9025 58.2774 63.8497 59.0629 63.994 59.8239L63.32 59.5119L62.5753 57.9634C62.4472 57.5879 62.4221 57.1846 62.5026 56.796Z" fill="#C9CBDF"/>
        <path d="M64.2119 59.9258L64.2225 60.4586C64.2232 60.4952 64.2139 60.5313 64.1955 60.563C64.1771 60.5946 64.1504 60.6205 64.1183 60.6379C64.0862 60.6552 64.05 60.6633 64.0137 60.6613C63.9773 60.6593 63.9421 60.6472 63.9121 60.6265L63.6956 60.4767C63.5611 60.3835 63.4678 60.2415 63.4355 60.0805L63.3226 59.5122L64.2119 59.9258Z" fill="#E0E0E0"/>
        <path d="M63.4374 127.808L62.1962 132.44L61.8331 132.347L63.0743 127.7L63.0837 127.673C63.2084 127.379 63.3741 127.103 63.5758 126.856L65.0504 125.041L64.9921 125.229C64.9729 125.29 64.9596 125.352 64.9523 125.416L64.9064 125.815L63.87 127.095C63.6935 127.311 63.5479 127.551 63.4374 127.808Z" fill="#C9CBDF"/>
        <path d="M60.6409 25.9857C60.3362 21.0568 59.9272 16.0656 59.4245 11.1486C52.0977 7.56806 44.0697 5.67252 35.9234 5.59956C35.7546 5.59956 35.5858 5.59956 35.4163 5.59956C35.2469 5.59956 35.0787 5.59956 34.9099 5.59956C26.7636 5.67252 18.7356 7.56806 11.4088 11.1486C10.9061 16.0643 10.4972 21.055 10.1924 25.9857C9.75799 32.9953 9.52214 40.1116 9.48862 47.1361C9.48672 47.6922 9.63701 48.2381 9.92306 48.714C10.2023 49.1807 10.4624 49.5981 10.8614 50.1858L12.8903 50.1858C15.5227 48.5389 18.3385 47.2088 21.2798 46.2227C26.9517 44.3167 32.0222 44.0204 35.4176 44.0933C38.8136 44.0204 43.8841 44.3167 49.556 46.2227C52.4973 47.2088 55.3131 48.5389 57.9455 50.1858L59.9706 50.1858C60.3697 49.5981 60.6297 49.1807 60.909 48.714C61.1951 48.2381 61.3453 47.6922 61.3434 47.1361C61.3112 40.1116 61.0747 32.9953 60.6409 25.9857Z" fill="#EFEFEF"/>
        <path d="M62.2397 131.578L62.2397 133.751C61.7631 134.526 61.2315 135.266 60.6491 135.964C58.8073 138.17 56.4952 139.93 53.8843 141.115L62.2397 131.578Z" fill="#B02C35"/>
        <path opacity="0.1" d="M62.2397 132.607C60.4324 135.471 58.0055 137.889 55.1398 139.68L62.2397 131.577L62.2397 132.607Z" fill="white"/>
        <path d="M62.3797 131.201L62.3797 133.338C62.3799 133.633 62.2913 133.922 62.1253 134.165C61.7802 134.673 61.1602 135.568 60.7568 136.052C58.899 138.272 56.5701 140.045 53.9412 141.241C53.9119 141.254 53.8788 141.257 53.8475 141.249C53.8163 141.241 53.7888 141.222 53.7696 141.196C53.7504 141.17 53.7408 141.138 53.7423 141.106C53.7438 141.074 53.7564 141.043 53.7779 141.018L62.3797 131.201ZM62.0986 131.95L54.4401 140.69C56.7814 139.522 58.8581 137.882 60.5408 135.871C61.0145 135.303 61.4544 134.707 61.8584 134.087C62.0154 133.846 62.0989 133.564 62.0986 133.276L62.0986 131.95Z" fill="#C9CBDF"/>
        <path d="M60.8496 25.9756C60.5449 21.0399 60.134 16.043 59.6295 11.1229L59.6183 11.0124L59.519 10.9632C52.1669 7.35236 44.1046 5.44042 35.9223 5.36734C35.7542 5.36734 35.5854 5.36734 35.4165 5.36734C35.2477 5.36734 35.0796 5.36734 34.9114 5.36734C26.729 5.44033 18.6664 7.35227 11.3141 10.9632L11.2148 11.0124L11.2036 11.1229C10.6991 16.043 10.2882 21.0399 9.98348 25.9756C9.55277 32.9396 9.31755 40.0097 9.28404 46.9894C9.2817 47.6149 9.45022 48.2291 9.77123 48.765C10.071 49.2641 11.5257 51.2407 11.9757 51.8983L12.3052 51.6699C11.8615 51.0211 10.4105 49.0495 10.1144 48.5573C9.83106 48.085 9.68229 47.5434 9.68435 46.9919C9.71786 40.0197 9.95246 32.954 10.3826 26.0005C10.6854 21.1072 11.0913 16.1541 11.5903 11.2764C18.8615 7.7227 26.8286 5.84143 34.9132 5.76913C35.0808 5.76913 35.2484 5.76913 35.4159 5.76913C35.5835 5.76913 35.7517 5.76913 35.9193 5.76913C44.0039 5.84143 51.971 7.7227 59.2422 11.2764C59.7387 16.1547 60.1471 21.1079 60.45 26.0005C60.88 32.9571 61.1146 40.0197 61.1482 46.9919C61.1502 47.5434 61.0014 48.085 60.7181 48.5573C60.422 49.052 59.1206 51.0311 58.6762 51.6768L59.0064 51.9052C59.4557 51.2476 60.7615 49.2629 61.0612 48.7619C61.3823 48.226 61.5508 47.6118 61.5484 46.9863C61.5155 40.0097 61.2803 32.9396 60.8496 25.9756Z" fill="#C9CBDF"/>
        <path d="M21.9309 4.5615L23.3279 2.94807C23.4273 2.83382 23.4798 2.68594 23.475 2.53426C23.4701 2.38258 23.4083 2.23839 23.3019 2.13077L23.2925 2.1214C23.2001 2.02951 23.0802 1.97067 22.9513 1.95388C22.8223 1.93708 22.6915 1.96327 22.5788 2.02844C21.5076 2.64174 18.3965 4.44982 16.5334 5.80494C16.3223 5.95843 16.1163 6.1119 15.9127 6.26538C17.6206 5.45414 19.4412 4.90865 21.3121 4.6476L21.9309 4.5615Z" fill="#C9CBDF"/>
        <path d="M17.772 5.26673C17.6163 5.32475 17.4617 5.38401 17.3034 5.44391C17.0585 5.53832 16.8175 5.64231 16.5804 5.75586C16.8171 5.64314 17.0581 5.53916 17.3034 5.44391C17.458 5.38401 17.6163 5.32475 17.772 5.26673Z" fill="#B3B3B3"/>
        <path d="M21.905 4.39075L21.942 4.34813L21.905 4.39075Z" fill="#BFBFBF"/>
        <path d="M9.59114 14.5324L6.49112 17.461C6.45777 17.6472 6.3755 17.821 6.25282 17.9645L5.9549 18.312C5.83791 18.4492 5.73867 18.6008 5.6595 18.7631L9.84806 14.8069L9.59114 14.5324Z" fill="#C9CBDF"/>
        <path d="M18.2339 5.09625C17.9304 5.20544 17.6133 5.32149 17.303 5.4419C16.3228 5.82054 15.4055 6.34644 14.5822 7.00167C13.0692 8.20353 11.622 9.48692 10.2471 10.8462C9.64295 11.4416 9.25781 12.2256 9.15484 13.0698C9.01706 14.2109 8.96431 15.6577 9.40805 16.2399C9.5938 16.4824 9.81743 16.6931 10.0703 16.8638C10.2493 16.9853 10.4665 17.0368 10.6807 17.0085C10.8949 16.9803 11.0915 16.8742 11.2333 16.7103L21.9415 4.34383C21.9279 4.34383 21.9105 4.34757 21.89 4.34881C20.6429 4.42752 19.4126 4.67904 18.2339 5.09625Z" fill="#BFBFBF"/>
        <path d="M18.3928 6.1478C16.9889 7.26397 12.845 10.8028 11.7788 11.8565C11.2639 12.3649 10.9357 13.0337 10.8479 13.7538C10.7306 14.7278 10.6859 15.9625 11.0645 16.4591C11.1196 16.5319 11.1791 16.6013 11.2426 16.6669L20.0026 6.55396C19.5248 6.65317 19.0959 5.5894 18.3928 6.1478Z" fill="#D9D9D9"/>
        <path d="M21.8905 4.35595C20.6433 4.4333 19.4127 4.68378 18.2338 5.10027C18.0011 5.18325 17.7622 5.27186 17.5226 5.36232L19.0667 7.67078L21.942 4.35033C21.9265 4.35283 21.911 4.3547 21.8905 4.35595Z" fill="#F19E30"/>
        <path opacity="0.35" d="M20.7201 4.4817L11.5001 15.1299C11.362 15.2899 11.1704 15.3934 10.9614 15.421C10.7525 15.4486 10.5408 15.3983 10.3663 15.2797C10.1194 15.1126 9.90114 14.9063 9.72018 14.6688C9.3478 14.1822 9.33415 13.0779 9.42165 12.0715C9.28711 12.3901 9.19771 12.7262 9.15604 13.0698C9.01826 14.2109 8.96551 15.6577 9.40926 16.2398C9.59501 16.4824 9.81864 16.6931 10.0715 16.8637C10.2505 16.9853 10.4677 17.0368 10.6819 17.0085C10.8961 16.9803 11.0927 16.8742 11.2345 16.7103L21.9427 4.34382C21.929 4.34382 21.9117 4.34755 21.8912 4.3488C21.4984 4.38 21.108 4.42368 20.7201 4.4817Z" fill="#C9CBDF"/>
        <path d="M10.5648 17.1617C10.3608 17.162 10.1614 17.1007 9.99253 16.9858C9.7267 16.8057 9.49174 16.5834 9.29682 16.3276C8.8146 15.6943 8.87729 14.1982 9.01569 13.0552C9.12313 12.1791 9.52257 11.3654 10.1489 10.7467C11.5271 9.38421 12.9774 8.09731 14.4933 6.89161C15.3274 6.22704 16.2572 5.69376 17.2507 5.31002C17.5418 5.19709 17.8564 5.08104 18.1816 4.96312C19.3729 4.54296 20.6162 4.28997 21.8762 4.21131L21.9178 4.20758L22.2901 4.15641L11.3356 16.8061C11.2398 16.9173 11.1214 17.0065 10.9885 17.0679C10.8555 17.1292 10.711 17.1612 10.5648 17.1617ZM21.6118 4.51703C20.4764 4.61082 19.3575 4.85069 18.2828 5.23078C17.957 5.34745 17.6448 5.4635 17.3556 5.57455C16.3888 5.94884 15.4838 6.46798 14.6714 7.11435C13.1629 8.31382 11.7197 9.59405 10.3481 10.9495C9.76755 11.523 9.39685 12.2769 9.29621 13.0889C9.11003 14.6318 9.19069 15.7211 9.5221 16.156C9.69865 16.3873 9.91115 16.5885 10.1514 16.7518C10.3021 16.8539 10.4848 16.897 10.6649 16.8731C10.8451 16.8492 11.0103 16.7599 11.1295 16.6221L21.6118 4.51703Z" fill="#C9CBDF"/>
        <path d="M48.9024 4.5615L47.5053 2.94807C47.406 2.83382 47.3534 2.68594 47.3583 2.53426C47.3631 2.38258 47.425 2.23839 47.5314 2.13077L47.5407 2.1214C47.6332 2.02951 47.7531 1.97067 47.882 1.95387C48.0109 1.93708 48.1418 1.96327 48.2544 2.02844C49.3256 2.64174 52.4368 4.44982 54.2999 5.80495C54.5109 5.95843 54.717 6.1119 54.9205 6.26538C53.2127 5.45414 51.3921 4.90865 49.5211 4.64759L48.9024 4.5615Z" fill="#C9CBDF"/>
        <path d="M53.0613 5.26673C53.2171 5.32475 53.3716 5.38401 53.5299 5.44391C53.7752 5.53832 54.0162 5.64231 54.2529 5.75586C54.0166 5.64314 53.7756 5.53916 53.5299 5.44391C53.3741 5.38401 53.2171 5.32475 53.0613 5.26673Z" fill="#B3B3B3"/>
        <path d="M48.9286 4.39075L48.8916 4.34813L48.9286 4.39075Z" fill="#BFBFBF"/>
        <path d="M61.2422 14.5322L64.3421 17.4609C64.3755 17.647 64.4578 17.8209 64.5805 17.9643L64.8784 18.3119C64.9954 18.4491 65.0946 18.6007 65.1738 18.7629L60.9852 14.8068L61.2422 14.5322Z" fill="#C9CBDF"/>
        <path d="M52.5995 5.09625C52.903 5.20544 53.2201 5.32149 53.5304 5.4419C54.5106 5.82054 55.4279 6.34644 56.2512 7.00167C57.7642 8.20353 59.2114 9.48692 60.5862 10.8462C61.1904 11.4416 61.5756 12.2256 61.6785 13.0698C61.8163 14.2109 61.8691 15.6578 61.4253 16.2399C61.2396 16.4824 61.016 16.6931 60.7631 16.8638C60.5841 16.9853 60.3669 17.0368 60.1527 17.0085C59.9384 16.9803 59.7419 16.8742 59.6001 16.7103L48.8919 4.34383C48.9055 4.34383 48.9229 4.34757 48.9434 4.34881C50.1905 4.42752 51.4208 4.67904 52.5995 5.09625Z" fill="#BFBFBF"/>
        <path d="M52.4405 6.1478C53.8444 7.26397 57.9883 10.8028 59.0545 11.8565C59.5694 12.3649 59.8976 13.0337 59.9854 13.7538C60.1027 14.7278 60.1474 15.9625 59.7688 16.4591C59.7136 16.5319 59.6542 16.6013 59.5907 16.6669L50.8325 6.55396C51.3085 6.65316 51.7374 5.5894 52.4405 6.1478Z" fill="#D9D9D9"/>
        <path d="M35.7452 35.5143C35.636 35.5143 35.5262 35.5143 35.4163 35.5143C35.3065 35.5143 35.1972 35.5143 35.088 35.5143C29.8033 35.5615 24.5954 36.7912 19.8424 39.1142C19.6221 41.2698 19.4297 43.4479 19.2671 45.6216C19.359 45.5898 19.4489 45.5592 19.5414 45.5268C25.9102 43.3861 31.6038 43.0536 35.4163 43.1353C39.2294 43.0536 44.923 43.3849 51.2918 45.5268C51.3843 45.5579 51.4743 45.5891 51.5661 45.6216C51.4035 43.4479 51.2111 41.2698 50.9908 39.1142C46.2379 36.7912 41.03 35.5615 35.7452 35.5143Z" fill="#E3E3E3"/>
        <path d="M48.9427 4.35595C50.1899 4.4333 51.4205 4.68378 52.5994 5.10027C52.8321 5.18325 53.071 5.27186 53.3106 5.36232L51.7665 7.67078L48.8912 4.35033C48.9048 4.35283 48.9234 4.3547 48.9427 4.35595Z" fill="#F19E30"/>
        <path opacity="0.35" d="M50.1132 4.4817L59.3337 15.1299C59.4719 15.2899 59.6635 15.3934 59.8724 15.421C60.0813 15.4486 60.293 15.3983 60.4676 15.2797C60.7145 15.1126 60.9327 14.9063 61.1137 14.6688C61.486 14.1822 61.4997 13.0779 61.4122 12.0715C61.5467 12.3901 61.6361 12.7262 61.6778 13.0698C61.8156 14.2109 61.8684 15.6577 61.4246 16.2398C61.2389 16.4824 61.0152 16.6931 60.7624 16.8637C60.5833 16.9853 60.3662 17.0368 60.1519 17.0085C59.9377 16.9803 59.7412 16.8742 59.5994 16.7103L48.8911 4.34382C48.9048 4.34382 48.9222 4.34755 48.9427 4.3488C49.3349 4.38 49.7253 4.42368 50.1132 4.4817Z" fill="#C9CBDF"/>
        <path d="M59.4939 16.8092L48.5393 4.15952L48.9117 4.21067L48.9533 4.21442C50.2133 4.29308 51.4565 4.54607 52.6478 4.96623C52.9755 5.08415 53.2902 5.2002 53.5787 5.31312C54.5723 5.69687 55.502 6.23015 56.3362 6.89472C57.8521 8.10042 59.3023 9.38732 60.6805 10.7498C61.3069 11.3685 61.7064 12.1822 61.8138 13.0583C61.9522 14.2013 62.0149 15.6974 61.5326 16.3307C61.3377 16.5865 61.1028 16.8088 60.8369 16.9889C60.6294 17.1295 60.378 17.1889 60.1299 17.1561C59.8819 17.1232 59.6543 17.0003 59.4902 16.8105L59.4939 16.8092ZM59.7055 16.6221C59.8248 16.7599 59.99 16.8492 60.1702 16.8731C60.3503 16.897 60.5329 16.8539 60.6836 16.7518C60.9239 16.5885 61.1364 16.3873 61.3129 16.156C61.6443 15.7192 61.7244 14.6318 61.5389 13.0889C61.4374 12.2765 61.0655 11.5225 60.4838 10.9495C59.1122 9.59404 57.669 8.31381 56.1605 7.11434C55.3481 6.46796 54.4432 5.94883 53.4763 5.57454C53.1871 5.46348 52.875 5.34744 52.5491 5.23076C51.4744 4.85068 50.3556 4.6108 49.2201 4.51702L59.7055 16.6221Z" fill="#C9CBDF"/>
        <path d="M34.9515 43.8034C47.426 43.6667 56.1458 49.3668 59.0031 51.415C59.018 50.26 59.0333 49.1053 59.049 47.9511C55.8367 45.846 47.341 40.8916 35.4164 40.891C23.4731 40.891 14.9681 45.8591 11.7657 47.9592L11.7657 50.4168C11.786 50.7412 11.8067 51.0656 11.8278 51.3901C14.7354 49.3093 23.0437 43.9375 34.9515 43.8034Z" fill="#E0E0E0"/>
        <path d="M18.2989 67.521C17.2203 67.521 16.2211 66.9108 15.8208 65.9382C15.1425 64.2911 13.8839 61.0717 13.0758 58.0033C12.5323 55.9399 12.1016 53.8482 11.7855 51.7374C11.6757 51.0018 12.0189 50.2875 12.6805 49.8732C15.3408 48.2082 18.1867 46.8634 21.1594 45.8665C25.7123 44.336 30.5097 43.6135 35.417 43.7171C40.3242 43.6135 45.121 44.336 49.6739 45.8665C52.6466 46.8634 55.4924 48.2082 58.1528 49.8732C58.8144 50.2875 59.1576 51.0018 59.0477 51.7374C58.7315 53.8481 58.3008 55.9399 57.7575 58.0033C56.9506 61.0692 55.6908 64.2904 55.0124 65.9382C54.5296 67.1124 53.1736 67.7581 51.8597 67.4405L51.2149 67.2846C48.1931 66.5508 45.0707 65.7928 41.4401 65.6218C40.12 65.5595 38.7677 65.5245 37.4147 65.5176L37.4147 65.5763L37.0082 65.5632C36.5074 65.5476 35.9705 65.5351 35.4138 65.527C34.8553 65.5351 34.3197 65.5476 33.8189 65.5632L33.4123 65.5763L33.4154 65.5176C32.0625 65.5245 30.7101 65.5595 29.3901 65.6218C25.7619 65.7928 22.6371 66.5508 19.6153 67.2846L18.9705 67.4405C18.7505 67.4936 18.5251 67.5207 18.2989 67.521ZM34.491 44.4608C30.0406 44.452 25.6182 45.1684 21.3959 46.5821C18.4789 47.5601 15.6864 48.8793 13.0758 50.5127C12.6718 50.766 12.4614 51.1921 12.5259 51.6257C12.8377 53.7091 13.2627 55.7738 13.7988 57.8105C14.5957 60.834 15.8407 64.0196 16.5122 65.6499C16.8554 66.4847 17.8378 66.9395 18.7967 66.7106L19.4409 66.5546C22.3547 65.8471 25.6577 65.0454 29.3572 64.87C30.8163 64.8014 32.3151 64.7658 33.8108 64.764L34.2049 64.764L34.2049 64.8002C34.5921 64.7895 34.9962 64.7814 35.4113 64.7752L35.4232 64.7752C35.8384 64.7814 36.2424 64.7895 36.6297 64.8002L36.6297 64.764L37.0237 64.764C38.5194 64.764 40.0182 64.8014 41.4773 64.87C45.1768 65.0441 48.4798 65.8458 51.3936 66.5546L52.0378 66.7106C52.9967 66.942 53.9791 66.4872 54.3223 65.6499C54.9939 64.0197 56.2388 60.8334 57.0351 57.8105C57.5715 55.7738 57.9967 53.7092 58.3086 51.6258C58.3707 51.189 58.1627 50.766 57.7587 50.5127C55.1481 48.8793 52.3556 47.5601 49.4386 46.5821C44.9652 45.0785 40.2534 44.3691 35.4269 44.472L35.4113 44.472C35.1031 44.4641 34.7963 44.4604 34.491 44.4608Z" fill="#C9CBDF"/>
        <path d="M35.4072 1.49885C34.0663 1.49885 32.9793 1.91563 32.9793 2.42973C32.9793 2.94384 34.0663 3.3606 35.4072 3.3606C36.7481 3.3606 37.8351 2.94384 37.8351 2.42973C37.8351 1.91563 36.7481 1.49885 35.4072 1.49885Z" fill="#C9CBDF"/>
        <path d="M35.407 1.69352C34.1844 1.69352 33.1933 2.0667 33.1933 2.52705C33.1933 2.9874 34.1844 3.3606 35.407 3.3606C36.6296 3.3606 37.6208 2.9874 37.6208 2.52705C37.6208 2.0667 36.6296 1.69352 35.407 1.69352Z" fill="#5E5E5E"/>
        <path d="M35.407 1.81259C34.2639 1.81259 33.3372 2.14751 33.3372 2.56065C33.3372 2.9738 34.2639 3.30872 35.407 3.30872C36.5501 3.30872 37.4768 2.9738 37.4768 2.56065C37.4768 2.14751 36.5501 1.81259 35.407 1.81259Z" fill="#A0A0A0"/>
        <path d="M15.3119 137.683C28.6733 140.725 42.5422 140.725 55.9037 137.683L55.9037 136.266C55.9037 135.778 55.7106 135.309 55.3669 134.964C55.0232 134.618 54.557 134.424 54.071 134.424L17.144 134.424C16.658 134.424 16.192 134.618 15.8484 134.964C15.5049 135.309 15.3119 135.778 15.3119 136.266L15.3119 137.683Z" fill="#A0A0A0"/>
        <path d="M13.8162 139.73C28.1623 142.995 43.0532 142.995 57.3993 139.73L57.3993 136.229L13.8162 136.229L13.8162 139.73Z" fill="#757575"/>
        <path d="M57.3993 136.231L57.3993 140.978C43.0532 144.244 28.1623 144.244 13.8162 140.978L13.8162 136.231L57.3993 136.231Z" fill="#E0E0E0"/>
        <path d="M13.8162 139.73L13.8162 140.978C28.1623 144.244 43.0532 144.244 57.3993 140.978L57.3993 139.73C43.0532 142.996 28.1623 142.996 13.8162 139.73Z" fill="#C2C2C2"/>
        <path d="M14.2886 137.214L14.2886 134.668C14.2886 134.603 14.2629 134.54 14.2172 134.494C14.1714 134.448 14.1094 134.422 14.0447 134.422C14.0085 134.422 13.9727 134.431 13.9399 134.446C13.9072 134.462 13.8783 134.485 13.8554 134.513C13.5247 134.922 13.3441 135.434 13.344 135.961L13.344 142.267C13.3442 142.393 13.394 142.514 13.4826 142.603C13.5711 142.692 13.6912 142.742 13.8163 142.742C13.9415 142.742 14.0615 142.692 14.1501 142.603C14.2386 142.514 14.2885 142.393 14.2886 142.267L14.2886 137.214Z" fill="#E3E3E3"/>
        <path d="M56.5466 137.214L56.5467 134.668C56.5467 134.603 56.5723 134.54 56.6181 134.494C56.6638 134.448 56.7258 134.422 56.7905 134.422C56.8268 134.422 56.8627 134.43 56.8954 134.446C56.9282 134.462 56.9571 134.484 56.9798 134.513C57.3106 134.922 57.4912 135.434 57.4912 135.961L57.4912 142.267C57.4912 142.33 57.479 142.391 57.4553 142.449C57.4315 142.507 57.3967 142.559 57.3529 142.603C57.309 142.647 57.2569 142.682 57.1996 142.706C57.1423 142.729 57.0809 142.742 57.0189 142.742C56.8938 142.742 56.7738 142.692 56.6852 142.603C56.5966 142.514 56.5468 142.393 56.5466 142.267L56.5466 137.214Z" fill="#E3E3E3"/>
        <path d="M53.4851 85.9621C53.4681 86.1219 53.3929 86.2697 53.2739 86.3771C53.155 86.4844 53.0007 86.5437 52.8409 86.5436L39.8221 86.5349L39.8221 87.4589L31.0093 87.4589L31.0093 81.5249L53.0606 81.5249C53.2053 81.5249 53.3483 81.5556 53.4805 81.6148C53.6126 81.674 53.7309 81.7605 53.8277 81.8687C53.7979 82.2892 53.6676 84.1079 53.5329 85.4917C53.5161 85.6558 53.5012 85.8136 53.4851 85.9621Z" fill="#8C2A32"/>
        <path d="M31.0112 87.4589L39.8222 87.4589L39.8222 81.5255L31.0112 81.5255L31.0112 87.4589Z" fill="#E0E0E0"/>
        <path d="M52.8409 86.5433L39.8221 86.5346L39.8221 85.4914L53.5329 85.4914C53.5173 85.6555 53.5012 85.8134 53.4851 85.9618C53.4681 86.1216 53.3928 86.2694 53.2739 86.3768C53.155 86.4842 53.0007 86.5435 52.8409 86.5433Z" fill="#B33640"/>
        <path d="M17.9547 86.5203L31.0126 86.5297L31.0126 86.8054L17.1479 86.8054L17.1479 85.4952L17.3086 85.4952L17.3477 85.9619C17.3611 86.1144 17.4308 86.2564 17.5432 86.3598C17.6556 86.4631 17.8024 86.5204 17.9547 86.5203Z" fill="#359EE6"/>
        <path d="M31.0112 86.5275L31.0112 85.4905L39.8222 85.4905L39.8222 86.5337L31.0112 86.5275Z" fill="#FAFAFA"/>
        <path d="M39.8222 86.5349L39.8222 86.805L39.8222 87.4589L31.0112 87.4589L31.0112 86.805L31.0112 86.5286L39.8222 86.5349Z" fill="#B3B3B3"/>
        <path d="M43.5805 83.9426L48.067 83.9426C48.093 83.9426 48.118 83.9323 48.1365 83.9138C48.155 83.8953 48.1655 83.8703 48.1656 83.8441C48.1656 83.8177 48.1552 83.7925 48.1367 83.7739C48.1182 83.7553 48.0931 83.7448 48.067 83.7448L43.5805 83.7448C43.5544 83.745 43.5295 83.7555 43.5111 83.7741C43.4927 83.7927 43.4824 83.8179 43.4824 83.8441C43.4824 83.8702 43.4928 83.8953 43.5111 83.9138C43.5295 83.9322 43.5545 83.9426 43.5805 83.9426Z" fill="#B33640"/>
        <path d="M33.1367 83.9426L35.9618 83.9426C35.9959 83.9426 36.0239 83.8983 36.0239 83.8441C36.0239 83.7891 35.9959 83.7448 35.9618 83.7448L33.1367 83.7448C33.1026 83.7448 33.0747 83.7891 33.0747 83.8441C33.0747 83.8983 33.1026 83.9426 33.1367 83.9426Z" fill="#FAFAFA"/>
        <path d="M42.9357 83.9426L43.8139 83.9426C43.8399 83.9426 43.8648 83.9322 43.8832 83.9138C43.9016 83.8953 43.9119 83.8702 43.9119 83.8441C43.9119 83.8179 43.9016 83.7927 43.8832 83.7741C43.8649 83.7555 43.8399 83.745 43.8139 83.7448L42.9357 83.7448C42.9095 83.7448 42.8844 83.7553 42.8659 83.7739C42.8474 83.7925 42.837 83.8177 42.837 83.8441C42.8372 83.8703 42.8477 83.8953 42.8661 83.9138C42.8846 83.9323 42.9096 83.9426 42.9357 83.9426Z" fill="#8C2A32"/>
        <path d="M49.072 83.9426L50.3368 83.9426C50.3629 83.9426 50.3879 83.9323 50.4064 83.9138C50.4249 83.8953 50.4353 83.8703 50.4355 83.8441C50.4355 83.8177 50.4251 83.7925 50.4066 83.7739C50.3881 83.7553 50.363 83.7448 50.3368 83.7448L49.072 83.7448C49.0591 83.7448 49.0462 83.7474 49.0343 83.7524C49.0223 83.7574 49.0114 83.7647 49.0022 83.7739C48.9931 83.7831 48.9858 83.7941 48.9808 83.8061C48.9759 83.8181 48.9733 83.831 48.9733 83.8441C48.9735 83.8703 48.984 83.8953 49.0024 83.9138C49.0209 83.9323 49.046 83.9426 49.072 83.9426Z" fill="#B33640"/>
        <path d="M17.3073 85.4921L17.0069 81.8678C17.1036 81.76 17.2218 81.6738 17.3537 81.6148C17.4856 81.5558 17.6284 81.5253 17.7728 81.5253L31.0112 81.5253L31.0112 85.4921L17.3073 85.4921Z" fill="#2C82BD"/>
        <path d="M17.3464 85.9564L17.3073 85.4897L31.0112 85.4897L31.0112 86.5272L17.9534 86.5179C17.8006 86.5179 17.6533 86.4602 17.5409 86.3562C17.4284 86.2522 17.359 86.1094 17.3464 85.9564Z" fill="#359EE6"/>
        <path d="M17.3464 85.9584C17.359 86.1115 17.4284 86.2542 17.5409 86.3582C17.6533 86.4622 17.8006 86.5199 17.9534 86.5199L31.0112 86.5292L31.0112 87.4589L17.7728 87.4589C17.4984 87.4589 17.2352 87.3493 17.0412 87.1542C16.8472 86.9592 16.7382 86.6947 16.7382 86.4188L16.7382 82.5649C16.7383 82.3069 16.8341 82.0582 17.0069 81.8674L17.3073 85.4917L17.3464 85.9584Z" fill="#21608C"/>
        <path d="M54.0952 86.4188C54.0952 86.5554 54.0685 86.6906 54.0165 86.8168C53.9645 86.943 53.8883 87.0577 53.7922 87.1542C53.6961 87.2508 53.5821 87.3274 53.4566 87.3797C53.3311 87.432 53.1965 87.4589 53.0607 87.4589L39.8222 87.4589L39.8222 86.5349L52.841 86.5436C53.0008 86.5437 53.1551 86.4844 53.274 86.3771C53.393 86.2697 53.4682 86.1219 53.4852 85.9621C53.5013 85.8136 53.5174 85.6558 53.533 85.4917C53.6676 84.1079 53.798 82.2892 53.8278 81.8687C53.9999 82.0593 54.0953 82.3075 54.0952 82.5649L54.0952 86.4188Z" fill="#732328"/>
        <path d="M25.1309 83.7448L20.6444 83.7448C20.6183 83.745 20.5934 83.7555 20.575 83.7741C20.5566 83.7927 20.5463 83.8179 20.5463 83.8441C20.5463 83.8702 20.5567 83.8953 20.575 83.9138C20.5934 83.9322 20.6184 83.9426 20.6444 83.9426L25.1309 83.9426C25.1569 83.9426 25.1819 83.9323 25.2004 83.9138C25.2189 83.8953 25.2294 83.8703 25.2296 83.8441C25.2296 83.8177 25.2191 83.7925 25.2006 83.7739C25.1821 83.7553 25.157 83.7448 25.1309 83.7448Z" fill="#359EE6"/>
        <path d="M27.1049 83.7448L26.2268 83.7448C26.2006 83.7448 26.1755 83.7553 26.157 83.7739C26.1385 83.7925 26.1281 83.8177 26.1281 83.8441C26.1283 83.8703 26.1387 83.8953 26.1572 83.9138C26.1757 83.9323 26.2007 83.9426 26.2268 83.9426L27.1049 83.9426C27.1309 83.9426 27.1559 83.9322 27.1743 83.9138C27.1927 83.8953 27.203 83.8702 27.203 83.8441C27.203 83.8179 27.1927 83.7927 27.1743 83.7741C27.1559 83.7555 27.131 83.745 27.1049 83.7448Z" fill="#359EE6"/>
        <path d="M78.7754 87.5028C78.7754 87.6443 78.8313 87.78 78.9308 87.88C79.0303 87.9801 79.1652 88.0363 79.306 88.0363L81.2467 88.0363C81.3874 88.0363 81.5224 87.9801 81.6219 87.88C81.7214 87.78 81.7773 87.6443 81.7773 87.5028L78.7754 87.5028Z" fill="#BFBFBF"/>
        <path d="M13.2495 55.3486C13.2495 55.2786 13.2358 55.2092 13.2091 55.1445C13.1825 55.0798 13.1434 55.021 13.0941 54.9714C13.0448 54.9219 12.9863 54.8826 12.922 54.8558C12.8576 54.829 12.7886 54.8152 12.7189 54.8152L10.7782 54.8152C10.6375 54.8152 10.5025 54.8714 10.403 54.9714C10.3035 55.0715 10.2476 55.2072 10.2476 55.3486L13.2495 55.3486Z" fill="#BFBFBF"/>
        <path d="M10.314 55.028L13.2167 55.028C13.2603 55.028 13.3021 55.0454 13.333 55.0764C13.3638 55.1074 13.3811 55.1495 13.3811 55.1933L13.3811 56.1186C13.3811 56.5488 13.2111 56.9614 12.9085 57.2656C12.6059 57.5698 12.1955 57.7407 11.7675 57.7407C11.3396 57.7407 10.9291 57.5698 10.6265 57.2656C10.3239 56.9614 10.1539 56.5488 10.1539 56.1186L10.1539 55.1933C10.1539 55.1502 10.1706 55.1088 10.2005 55.0779C10.2304 55.047 10.2712 55.0291 10.314 55.028Z" fill="#B6B6B6"/>
        <path d="M60.5329 55.3486C60.5329 55.2072 60.477 55.0715 60.3775 54.9714C60.278 54.8714 60.143 54.8152 60.0023 54.8152L58.0616 54.8152C57.9209 54.8152 57.7859 54.8714 57.6864 54.9714C57.5869 55.0715 57.531 55.2072 57.531 55.3486L60.5329 55.3486Z" fill="#BFBFBF"/>
        <path d="M57.5972 55.028L60.4999 55.028C60.5435 55.028 60.5853 55.0454 60.6162 55.0764C60.647 55.1074 60.6644 55.1495 60.6644 55.1933L60.6644 56.1186C60.6644 56.5488 60.4943 56.9614 60.1917 57.2656C59.8891 57.5698 59.4787 57.7407 59.0507 57.7407C58.6228 57.7407 58.2123 57.5698 57.9097 57.2656C57.6071 56.9614 57.4371 56.5488 57.4371 56.1186L57.4371 55.1933C57.4371 55.1502 57.4538 55.1088 57.4837 55.0779C57.5136 55.047 57.5544 55.0291 57.5972 55.028Z" fill="#B6B6B6"/>
        <path d="M20.2511 26.1499L22.0109 26.1499C22.0611 26.4623 22.1536 26.739 22.2885 26.9801C22.4234 27.2246 22.5912 27.4317 22.7919 27.6015C22.9927 27.7713 23.2217 27.8987 23.4789 27.9835C23.733 28.0718 24.0074 28.116 24.3023 28.116C24.8261 28.116 25.2904 27.9734 25.695 27.6881C26.0997 27.4063 26.4165 26.992 26.6455 26.4453C26.8745 25.902 26.9889 25.2381 26.9889 24.4537C26.9889 23.6557 26.8745 22.9834 26.6455 22.4367C26.4133 21.8934 26.0965 21.4825 25.695 21.204C25.2904 20.929 24.8277 20.7915 24.307 20.7915C24.0184 20.7915 23.7487 20.8322 23.4977 20.9137C23.2436 20.9986 23.0162 21.1225 22.8155 21.2855C22.6116 21.4485 22.4406 21.6489 22.3026 21.8866C22.1614 22.1243 22.0642 22.3959 22.0109 22.7015L20.2511 22.6914C20.317 22.1956 20.4597 21.7304 20.6793 21.2957C20.8958 20.8611 21.1796 20.4774 21.531 20.1446C21.8823 19.8152 22.2932 19.5571 22.7637 19.3704C23.2342 19.187 23.7565 19.0953 24.3305 19.0953C25.1775 19.0953 25.9334 19.3075 26.5984 19.732C27.2634 20.1565 27.7873 20.7694 28.1699 21.5708C28.5526 22.3722 28.744 23.3331 28.744 24.4537C28.744 25.5777 28.5511 26.5387 28.1652 27.3367C27.7794 28.1381 27.254 28.751 26.589 29.1754C25.924 29.5999 25.1712 29.8121 24.3305 29.8121C23.7941 29.8121 23.2954 29.7306 22.8343 29.5676C22.3732 29.4046 21.9623 29.1653 21.6015 28.8495C21.2408 28.537 20.9444 28.1533 20.7123 27.6983C20.477 27.2467 20.3233 26.7305 20.2511 26.1499Z" fill="#275285"/>
        <path d="M30.5873 29.6698L30.5873 19.2382L32.3188 19.2382L32.3188 28.101L36.5346 28.101L36.5346 19.2382L38.2661 19.2382L38.2661 29.6698L30.5873 29.6698Z" fill="#275285"/>
        <path d="M49.3619 16.722L49.3619 20.7816L48.7173 20.7816C48.5009 20.9683 48.2986 21.2315 48.1104 21.5711C47.9222 21.9106 47.7622 22.3758 47.6304 22.9667C47.4987 23.5575 47.4077 24.3216 47.3575 25.2588L47.1035 29.6698L40.9444 29.6698L40.9444 20.7816L39.8716 20.7816L39.8716 16.7322L41.5467 16.7322L41.5467 19.2382L47.6869 19.2382L47.6869 16.722L49.3619 16.722ZM46.6847 20.7816L42.6194 20.7816L42.6194 28.0857L45.5319 28.0857L45.6825 25.2588C45.7233 24.5491 45.7892 23.9141 45.8801 23.3538C45.9711 22.7935 46.0856 22.2994 46.2236 21.8716C46.3616 21.4471 46.5153 21.0838 46.6847 20.7816Z" fill="#275285"/>
        <path d="M41.7061 130.167L40.8369 130.167C40.8121 130.012 40.7664 129.876 40.6998 129.756C40.6332 129.636 40.5503 129.533 40.4511 129.45C40.352 129.366 40.2389 129.303 40.1118 129.261C39.9863 129.217 39.8508 129.195 39.7051 129.195C39.4464 129.195 39.2171 129.266 39.0172 129.407C38.8174 129.546 38.6609 129.751 38.5478 130.021C38.4347 130.289 38.3781 130.617 38.3781 131.004C38.3781 131.398 38.4347 131.731 38.5478 132.001C38.6624 132.269 38.8189 132.472 39.0172 132.609C39.2171 132.745 39.4456 132.813 39.7028 132.813C39.8453 132.813 39.9786 132.793 40.1025 132.753C40.228 132.711 40.3404 132.65 40.4395 132.569C40.5402 132.489 40.6247 132.39 40.6928 132.272C40.7625 132.155 40.8106 132.021 40.8369 131.87L41.7061 131.875C41.6735 132.12 41.6031 132.349 41.4946 132.564C41.3877 132.779 41.2475 132.968 41.074 133.133C40.9004 133.295 40.6975 133.423 40.4651 133.515C40.2327 133.606 39.9747 133.651 39.6912 133.651C39.2729 133.651 38.8995 133.546 38.571 133.336C38.2426 133.127 37.9838 132.824 37.7948 132.428C37.6058 132.032 37.5113 131.558 37.5113 131.004C37.5113 130.449 37.6066 129.975 37.7971 129.58C37.9877 129.185 38.2472 128.882 38.5757 128.672C38.9041 128.462 39.276 128.358 39.6912 128.358C39.9561 128.358 40.2025 128.398 40.4302 128.478C40.658 128.559 40.8609 128.677 41.0391 128.833C41.2173 128.987 41.3637 129.177 41.4783 129.402C41.5945 129.625 41.6705 129.88 41.7061 130.167Z" fill="#275285"/>
        <path d="M36.6008 128.427L36.6008 133.58L35.7456 133.58L35.7456 129.202L33.6633 129.202L33.6633 133.58L32.8081 133.58L32.8081 128.427L36.6008 128.427Z" fill="#275285"/>
        <path d="M27.3275 134.822L27.3275 132.817L27.6459 132.817C27.7528 132.725 27.8527 132.595 27.9457 132.427C28.0387 132.26 28.1177 132.03 28.1828 131.738C28.2478 131.446 28.2928 131.069 28.3175 130.606L28.443 128.427L31.4851 128.427L31.4851 132.817L32.015 132.817L32.015 134.817L31.1877 134.817L31.1877 133.58L28.1549 133.58L28.1549 134.822L27.3275 134.822ZM28.6499 132.817L30.6578 132.817L30.6578 129.21L29.2193 129.21L29.1449 130.606C29.1247 130.956 29.0922 131.27 29.0473 131.547C29.0023 131.823 28.9458 132.068 28.8776 132.279C28.8095 132.489 28.7335 132.668 28.6499 132.817Z" fill="#275285"/>
        <path d="M61.0519 176.679C67.4787 176.679 71.4375 175.212 74.5169 175.212C76.6471 175.212 79.9515 175.475 79.1999 173.815C78.4483 172.156 47.3315 139.869 44.325 136.703C41.3186 133.536 27.9398 130.064 25.234 136.703C23.0693 142.013 36.4581 157.321 43.4231 164.312C46.6215 168.434 54.6251 176.679 61.0519 176.679Z" fill="url(#paint0_linear_1_88223)"/>
        <path d="M86.9836 97.1329L107.063 91.9999L107.37 93.219L86.7029 98.6954L86.9836 97.1329Z" fill="white"/>
        <path d="M100.254 93.7063L104.517 92.6514L104.831 93.9268L100.511 95.0638L100.254 93.7063Z" fill="#1D1D1D"/>
        <path d="M92.8471 95.623L97.1243 94.5424L97.4233 95.8435L93.1035 96.9806L92.8471 95.623Z" fill="#1D1D1D"/>
        <path d="M83.5763 101.407L84.27 99.5621C84.2659 98.6649 85.4734 96.7295 86.2654 96.4342C86.6268 96.2257 88.3515 96.0142 88.8913 96.4346C89.4311 96.855 87.8586 97.0195 86.6268 97.8884C86.6268 98.3523 86.4934 98.3535 86.8233 98.1301C87.1531 97.9067 89.1509 97.3239 89.2987 98.0456C89.4466 98.7673 89.6176 99.0586 88.7352 99.7796C88.5361 100.982 86.4934 101.647 86.4309 102.443C86.3683 103.239 83.5763 101.407 83.5763 101.407Z" fill="black"/>
        <path d="M70.9176 172.678C70.7641 174.03 70.9176 175.301 71.4863 175.456C72.0549 175.611 73.4538 175.347 75.1484 176.029C76.4278 176.539 80.5903 175.994 80.8348 175.456C81.557 173.932 81.4034 172.918 79.6065 172.838C77.8096 172.758 76.5245 170.547 75.8535 169.642C75.1825 168.737 73.4197 169.883 73.4197 169.883L71.5943 170.387L70.9176 172.678Z" fill="black"/>
        <path d="M76.3651 131.435C77.7811 134.362 77.582 152.125 77.8209 156.879C77.8891 158.38 79.4074 172.288 78.253 172.58C76.3484 172.777 74.428 172.762 72.5268 172.534C72.5268 172.534 71.8331 163.638 70.4911 149.232C70.002 144.014 69.7632 131.561 69.7632 131.561L76.3651 131.435Z" fill="#171F4C"/>
        <path d="M74.4376 172.915C72.6805 166.488 72.4814 149.791 71.8275 145.18L69.4676 159.672C69.2288 167.863 70.531 173.236 70.531 173.236C71.8397 173.238 73.1464 173.131 74.4376 172.915Z" fill="#11103D"/>
        <path d="M73.6302 159.563C72.9137 160.8 72.8398 165.165 72.5498 166.253C72.2598 167.342 73.562 166.826 73.4198 168.218C73.2777 169.61 72.4076 168.871 72.8512 170.326C73.2947 171.781 75.0177 171.85 75.2338 171.85C75.4499 171.85 70.8325 172.216 72.2029 172.577C73.5734 172.938 76.8942 173.013 77.3946 172.216C77.8951 171.42 75.4499 161.677 75.4499 161.677L73.6302 159.563Z" fill="#171F4C"/>
        <path d="M61.5807 170.622L66.4881 170.473C66.4881 170.473 66.6302 174.059 69.6156 174.254C70.696 174.322 72.0608 176.659 70.7529 177.307C69.445 177.954 65.8796 178.641 64.5945 177.501C63.3093 176.361 62.8203 176.825 61.8536 176.356C60.8869 175.886 61.376 172.988 61.376 171.687L61.5807 170.622Z" fill="black"/>
        <path d="M63.9291 131.277C63.1103 133.081 61.501 134.685 61.8706 139.021C62.2403 143.357 62.4393 151.537 61.6773 155.695C58.4076 173.527 62.246 172.954 62.246 172.954C64.6727 173.365 67.1415 173.463 69.5928 173.246C69.5928 173.246 70.3832 159.39 70.5482 156.933C70.7131 154.475 71.748 145.242 72.1631 142.996C72.9308 138.826 74.4775 133.304 74.1818 131.655C73.9828 130.526 63.9291 131.277 63.9291 131.277Z" fill="#11103D"/>
        <path d="M72.743 143.473C71.9696 146.675 70.9176 160.657 70.8209 162.376C70.7243 164.094 69.2799 163.246 69.6837 165.48C69.9893 167.727 70.0845 169.998 69.968 172.262C69.8713 172.835 69.7746 173.236 69.297 173.333C68.4746 173.301 67.6625 173.137 66.8916 172.846C66.323 172.652 65.8339 170.716 66.6983 170.326C67.5626 169.937 68.046 168.482 67.1759 168.098C66.3059 167.714 65.0606 166.546 65.8339 165.967C66.6073 165.389 68.1426 160.634 68.046 159.093C67.8926 157.36 68.0564 155.612 68.5293 153.938C69.0866 151.813 72.743 143.473 72.743 143.473Z" fill="#171F4C"/>
        <path d="M80.6926 133.367C80.6708 133.363 80.6501 133.354 80.6318 133.342C80.6134 133.329 80.5979 133.313 80.5861 133.294C80.5744 133.275 80.5666 133.254 80.5634 133.232C80.5602 133.21 80.5616 133.188 80.5675 133.166C80.6661 132.821 80.7271 132.465 80.7494 132.106C80.7494 131.574 80.5731 131.081 79.6519 130.846C79.5517 130.82 79.4485 130.806 79.3449 130.806C78.4919 130.806 78.2076 131.952 78.0882 132.41C78.0823 132.432 78.0722 132.452 78.0583 132.47C78.0444 132.487 78.0271 132.502 78.0074 132.513C77.9877 132.524 77.9661 132.53 77.9438 132.532C77.9215 132.534 77.899 132.532 77.8778 132.525C77.8569 132.519 77.8374 132.509 77.8206 132.495C77.8037 132.481 77.7898 132.464 77.7796 132.445C77.7695 132.426 77.7634 132.404 77.7617 132.383C77.76 132.361 77.7627 132.339 77.7697 132.318C77.8948 131.912 78.145 130.497 79.3449 130.468C79.4754 130.47 79.6052 130.487 79.7316 130.52C80.1129 130.566 80.4632 130.754 80.7129 131.048C80.9626 131.342 81.0934 131.72 81.0792 132.106C81.0613 132.494 80.9983 132.879 80.8916 133.252C80.8827 133.289 80.8616 133.323 80.8317 133.347C80.8018 133.371 80.7648 133.384 80.7267 133.384H80.6926V133.367Z" fill="black"/>
        <path d="M80.431 133.142C80.431 132.855 80.6244 132.219 80.8177 131.314C80.8177 131.217 80.8177 130.862 80.8177 130.742C81.0906 129.058 81.756 126.503 81.5228 126.503C81.2897 126.503 80.7779 128.834 80.2604 130.512C80.2604 130.593 79.9932 130.971 79.9761 131.051C79.6975 132.07 79.5439 132.655 79.5439 132.655L80.431 133.142Z" fill="black"/>
        <path d="M77.7072 140.468C77.6333 140.8 76.3709 140.136 76.3709 140.136C76.1967 140.088 76.0459 139.978 75.9473 139.826C75.8487 139.674 75.8092 139.49 75.8363 139.311L77.4058 132.225C77.4797 131.887 77.7129 131.83 78.1052 131.824C78.1052 131.824 79.4131 131.79 79.3392 132.122L77.7072 140.468Z" fill="#24272B"/>
        <path d="M79.4586 140.003C79.4196 140.226 79.2981 140.425 79.1187 140.561C78.9393 140.698 78.7153 140.76 78.4919 140.736L77.3546 140.559C77.2349 140.539 77.1205 140.494 77.0188 140.427C76.917 140.36 76.83 140.273 76.7633 140.171C76.6965 140.069 76.6515 139.954 76.6309 139.833C76.6104 139.713 76.6148 139.589 76.6438 139.47L78.1508 132.534C78.1706 132.42 78.2158 132.311 78.283 132.217C78.3503 132.123 78.4378 132.046 78.539 131.991C78.6402 131.936 78.7525 131.904 78.8675 131.899C78.9824 131.894 79.0971 131.915 79.2027 131.961L80.2661 132.396C80.4746 132.495 80.6439 132.662 80.7471 132.87C80.8502 133.078 80.881 133.314 80.8348 133.542L79.4586 140.003Z" fill="black"/>
        <path d="M64.2133 106.437C64.4806 107.067 64.8843 108.19 65.8226 108.774C66.7609 109.359 67.0679 108.683 67.0679 108.368C67.0679 108.053 64.9014 105.023 64.9014 105.023L64.2133 106.437Z" fill="#300901"/>
        <path d="M72.2708 112.175C72.2708 112.175 74.0222 118.746 74.9093 118.597C75.381 118.517 80.1503 114.905 83.297 111.007C86.0677 107.575 87.2866 103.831 87.3132 103.343C87.3815 101.854 83.297 100.995 83.297 100.995C83.297 100.995 77.226 109.167 73.7265 111.007C73.3228 111.356 73.1579 112.032 72.7541 111.964L72.2708 112.175Z" fill="#11103D"/>
        <path d="M71.276 107.372L71.4807 108.105C71.4807 108.105 71.3442 111.542 72.0494 111.714C73.3914 112.001 71.9982 116.869 71.0315 117.03C67.051 117.763 64.5319 112.338 65.345 112.046C66.5506 111.605 66.016 107.326 66.016 107.326L71.276 107.372Z" fill="#EABFB7"/>
        <g style="mix-blend-mode:multiply">
            <path d="M72.0037 109.322C72.1857 108.812 67.4887 106.252 65.8965 107.357C66.2832 108.995 66.1751 111 65.8624 111.229L66.1979 113.389C66.8006 113.171 68.2222 114.225 68.4326 113.962C69.7803 112.295 71.5204 110.634 72.0037 109.322Z" fill="url(#paint1_linear_1_88223)"/>
        </g>
        <path d="M65.0549 104.755C64.9014 102.79 65.2824 101.043 68.0801 100.791C71.5659 100.482 71.5773 101.175 72.3791 104.142C73.0103 106.468 73.6244 109.618 71.31 110.254C68.535 111.016 66.6756 109.859 65.7089 107.447C65.2994 107.631 64.782 106.766 64.691 106.17C64.5716 105.397 64.5545 104.864 65.0549 104.755Z" fill="#EABFB7"/>
        <path d="M65.1116 104.814C64.6056 104.923 64.6283 105.45 64.7477 106.223C64.8387 106.796 65.3505 107.69 65.7599 107.507C66.7323 109.912 68.1766 110.995 71.3099 110.256C68.8533 111.018 66.4991 104.929 66.7607 102.93L68.2449 100.845H68.1539C65.3391 101.103 64.9581 102.855 65.1116 104.814Z" fill="#D8A89E"/>
        <path d="M70.5763 113.563C71.27 113.054 71.7713 112.323 71.9979 111.49C71.9979 111.49 72.123 111.243 74.5966 112.005C75.2961 112.217 76.4845 116.244 76.7006 118.398C76.8143 119.48 77.5308 128.336 76.6039 129.625C75.9784 130.489 72.5779 129.848 69.4618 129.315C69.3765 125.363 70.7185 117.859 70.8834 115.694C70.8948 115.534 70.1043 113.872 70.5763 113.563Z" fill="#142163"/>
        <path d="M70.7476 112.342C68.1603 112.342 65.527 111.067 65.527 111.067C63.9085 111.782 62.3686 112.865 60.9323 113.902C60.085 114.475 59.1866 114.956 59.107 115.924C59.0273 116.892 62.86 120.306 63.2467 121.961C63.8153 124.459 61.7398 127.397 63.5026 128.755C64.3499 129.408 71.2361 130.107 73.2378 130.078C73.6756 121.377 72.1005 117.419 71.782 116.491C71.2703 115.025 71.1116 112.342 70.7476 112.342Z" fill="#11103D"/>
        <path d="M70.8097 101.472C70.514 101.902 69.3995 101.965 68.4783 101.999C67.5571 102.033 66.6131 103.362 66.4198 103.786C66.3429 104.366 66.227 104.94 66.0729 105.504C65.9706 105.653 65.4531 104.754 64.9015 105.035C64.6627 105.155 64.4807 106.81 64.4807 106.81C64.4807 106.81 62.7748 105.814 63.5482 103.167C63.8325 102.188 65.0039 100.544 66.09 100.126C66.5847 99.9368 67.8926 99.2953 68.3646 100.023C68.6148 100.355 70.8097 101.472 70.8097 101.472Z" fill="#300901"/>
        <path d="M67.9661 100.159C68.404 99.8723 70.3658 100.416 71.0026 100.921C71.6395 101.425 71.7817 101.997 71.9125 103.034C72.0433 104.071 71.5713 103.034 70.6558 102.347C69.7403 101.659 68.0969 102.255 68.0969 102.255L67.9661 100.159Z" fill="#300901"/>
        <path d="M72.3792 111.171C72.7401 112.243 71.6774 113.546 71.4118 114.347C70.3768 115.613 72.9933 121.733 72.9933 121.733C72.9933 121.733 74.2273 132.41 74.7447 133.453C75.2622 134.495 75.211 134.392 76.1663 134.089C77.1217 133.785 78.2362 133.647 78.2362 132.605C78.2362 130.514 76.5303 117.483 76.5303 117.26C76.0514 114.994 75.0911 112.86 73.7155 111.004C73.5335 110.735 72.3792 111.171 72.3792 111.171Z" fill="#D4EA57"/>
        <path d="M63.5748 112.073C65.548 112.239 67.3604 114.641 71.2125 115.075C73.3377 117.68 74.6309 134.323 74.6309 134.323C74.6309 134.323 73.3628 135.726 62.786 135.056C61.9899 135.004 62.6951 126.029 62.4733 125.358C62.2515 124.688 64.0882 119.155 63.0078 116.457C62.0241 114.005 59.9087 114.601 59.9087 114.601L63.5748 112.073Z" fill="#A6C924"/>
        <path d="M71.6109 110.27L72.9931 111.328C72.9931 111.328 73.6144 116.174 72.9931 116.414C72.3719 116.654 70.3822 112.206 70.3822 112.206C70.3822 112.206 71.6109 110.723 71.6109 110.27Z" fill="#11103D"/>
        <path d="M62.5527 112.784C62.8882 113.122 67.0507 113.89 69.547 121.989C70.872 126.285 70.7696 128.765 70.7696 128.765H69.2172C68.8576 125.027 67.8349 121.383 66.1977 118.008C64.3781 114.205 61.3131 113.632 61.3131 113.632L62.5527 112.784Z" fill="#919DA8"/>
        <path d="M62.1151 127.041C66.0331 128.805 73.5676 127.654 74.4661 127.654C74.4661 128.599 74.8016 131.623 74.8016 131.623C74.8016 131.623 64.7423 133.216 62.5246 131.114C61.9673 130.587 62.1151 127.041 62.1151 127.041Z" fill="#919DA8"/>
        <path d="M64.2758 144.046C64.3015 143.635 64.3015 143.224 64.2758 142.814C64.0939 141.835 63.2011 140.191 63.1385 139.578C63.1044 139.148 62.5699 132.704 62.3197 131.513C62.0695 130.321 63.5423 122.101 63.1158 120.629C62.6893 119.157 58.4643 118.625 58.4643 118.625C58.4643 121.202 57.8956 127.159 58.0378 131.799C58.0719 132.807 60.1816 139.744 60.2043 140.093C60.2498 140.804 60.2043 142.997 60.6365 144.063C60.9436 144.767 61.2904 144.882 61.552 144.452C61.7397 144.979 62.3538 144.922 62.4164 144.527C62.5415 144.807 62.6324 144.813 63.0362 144.744C63.3376 144.687 63.3831 144.212 63.3831 144.212C63.3831 144.212 63.3831 144.177 63.4286 144.326C63.6048 144.767 64.327 144.979 64.2758 144.046Z" fill="#EABFB7"/>
        <path d="M62.1833 115.461C61.2336 114.601 59.9087 114.206 58.9704 115.564C58.0322 116.921 54.5298 128.05 59.3866 138.852C59.7626 139.492 62.9358 139.885 63.9632 138.288C64.491 136.207 62.8424 129.123 62.8424 126.923C63.1779 121.951 63.7698 116.921 62.1833 115.461Z" fill="#11103D"/>
        <path d="M72.7655 111.224C74.4833 114.077 75.4737 117.314 75.6485 120.647C76.0352 126.117 75.9841 127.91 75.9841 127.91L77.4796 127.532C77.4796 127.532 76.9962 121.374 76.2399 117.743C75.7452 115.377 74.153 111.505 73.2659 111.001C73.0214 110.875 72.7655 111.224 72.7655 111.224Z" fill="#C0C7CC"/>
        <path d="M74.125 127.584C74.7448 127.469 77.7586 126.862 77.7586 126.862L78.0031 130.087C78.0031 130.087 74.8813 131.553 74.5912 131.553C74.3012 131.553 74.125 127.584 74.125 127.584Z" fill="#C0C7CC"/>
        <g opacity="0.9">
            <path d="M58.4529 120.331C59.1239 118.813 61.8647 118.561 62.5357 120.542L61.9671 123.722L60.3863 124.472L58.7145 123.527L58.4529 120.331Z" fill="#B57575"/>
            <path d="M58.6974 120.453C59.2661 119.165 61.6544 119.062 62.1718 120.631L61.6657 123.329L60.3238 123.965L58.9192 123.151L58.6974 120.453Z" fill="#020202"/>
            <path d="M61.3929 122.43C61.3531 122.751 60.8583 123.003 60.2954 122.975C59.7267 122.975 59.2661 122.723 59.232 122.402L59.124 121.313C59.0785 120.901 59.6073 120.529 60.3181 120.523C61.0346 120.523 61.5862 120.878 61.5293 121.308L61.3929 122.43Z" fill="#A5A6AC"/>
            <g opacity="0.7">
                <path d="M59.5331 121.793L60.0392 121.776L60.062 121.438L60.6704 121.461L60.7216 121.81L61.1595 121.891L61.1367 122.372L59.5559 122.326L59.5331 121.793Z" fill="#A5A6AC"/>
                <path d="M60.0676 121.39H60.6362C60.6362 121.39 60.6931 121.298 60.6362 121.252C60.5623 121.16 60.4762 121.079 60.3803 121.011H60.2552C60.1639 121.07 60.0799 121.139 60.005 121.218C59.9993 121.298 60.0676 121.39 60.0676 121.39Z" fill="#A5A6AC"/>
                <path d="M61.0631 121.712L61.0688 122.026L60.8808 122.009L60.9036 121.689L61.0631 121.712Z" fill="#A5A6AC"/>
                <path d="M59.8351 121.655L59.8465 121.975L59.6527 121.952L59.6755 121.632L59.8351 121.655Z" fill="#A5A6AC"/>
            </g>
            <path opacity="0.69" d="M59.1182 120.812C59.2686 120.626 59.4616 120.48 59.6806 120.386C59.8995 120.293 60.1378 120.254 60.3749 120.273C60.8487 120.291 61.3014 120.476 61.6544 120.795C61.734 120.795 61.8761 120.606 61.8306 120.497C61.6325 120.3 61.3954 120.147 61.1348 120.048C60.8742 119.95 60.5959 119.907 60.318 119.924C59.7096 119.924 58.9476 120.376 59.0045 120.588C59.0613 120.8 59.1182 120.812 59.1182 120.812Z" fill="white"/>
        </g>
        <path d="M75.6771 111.568C75.7542 111.706 75.8028 111.858 75.8201 112.015C75.8374 112.172 75.8231 112.331 75.778 112.483C75.7328 112.634 75.6578 112.774 75.5575 112.896C75.4571 113.017 75.3334 113.117 75.1938 113.189L74.9209 113.304C74.4659 113.562 73.249 113.59 72.9704 112.937L72.2482 111.603C72.1518 111.44 72.1187 111.246 72.1555 111.06C72.1922 110.874 72.2962 110.708 72.4473 110.595L73.9144 110.343C74.3693 110.085 74.7161 109.827 74.9948 110.343L75.6771 111.568Z" fill="#24272B"/>
        <path d="M75.6032 111.264C75.7387 111.524 75.7788 111.824 75.7164 112.111C75.654 112.398 75.4931 112.654 75.262 112.833L74.9037 112.965C74.6033 113.111 74.2617 113.147 73.9378 113.066C73.6139 112.986 73.3281 112.794 73.1296 112.524L72.3448 111.229C72.0605 110.714 72.4244 110.473 73.0101 110.284C73.0101 110.284 74.7161 109.677 75.0004 110.187L75.6032 111.264Z" fill="black"/>
        <path d="M74.2556 113.311C74.5167 113.47 74.7674 113.646 75.0062 113.838L75.1598 114.015L75.535 113.866C75.4501 113.555 75.4501 113.227 75.535 112.916C75.6317 112.675 74.2556 113.311 74.2556 113.311Z" fill="#24272B"/>
        <path d="M74.1818 112.95C74.4427 113.107 74.6934 113.281 74.9324 113.471L75.0859 113.649L75.5238 113.494C75.4076 113.193 75.3877 112.862 75.4669 112.549C75.5465 112.314 74.1818 112.95 74.1818 112.95Z" fill="black"/>
        <path d="M75.1597 114.014C75.1199 113.848 75.0346 113.602 75.1085 113.596C75.1824 113.59 75.5236 113.441 75.5236 113.493C75.5236 113.544 75.6374 113.785 75.5691 113.836C75.4368 113.905 75.3001 113.964 75.1597 114.014Z" fill="black"/>
        <path d="M75.0119 110.875C75.0191 110.886 75.0241 110.897 75.0266 110.91C75.0291 110.922 75.029 110.935 75.0263 110.947C75.0237 110.96 75.0185 110.971 75.0111 110.982C75.0037 110.992 74.9943 111.001 74.9835 111.007L73.1297 111.58C73.0984 111.583 73.067 111.577 73.0395 111.561C73.0121 111.546 72.9899 111.522 72.9761 111.494C72.9681 111.483 72.9626 111.47 72.96 111.457C72.9573 111.444 72.9577 111.43 72.9609 111.417C72.9642 111.404 72.9703 111.392 72.9788 111.381C72.9874 111.371 72.9981 111.362 73.0103 111.356L74.8811 110.818C74.9266 110.818 74.9835 110.818 75.0119 110.898V110.875Z" fill="#24272B"/>
        <path d="M75.2335 111.34C75.2421 111.348 75.249 111.357 75.2537 111.368C75.2584 111.379 75.2608 111.391 75.2608 111.403C75.2608 111.414 75.2584 111.426 75.2537 111.437C75.249 111.448 75.2421 111.458 75.2335 111.466L73.4423 112.038C73.4129 112.044 73.3826 112.04 73.3559 112.026C73.3292 112.013 73.3076 111.991 73.2944 111.964C73.2603 111.901 73.2944 111.844 73.2944 111.826L75.1084 111.254C75.1343 111.251 75.1603 111.257 75.1828 111.271C75.2052 111.284 75.2229 111.304 75.2335 111.328V111.34Z" fill="#24272B"/>
        <path d="M75.4496 111.809C75.4496 111.861 75.4496 111.918 75.4155 111.93L73.6812 112.531C73.6533 112.536 73.6247 112.532 73.5992 112.519C73.5738 112.507 73.5527 112.487 73.539 112.462C73.5106 112.405 73.539 112.342 73.5731 112.331L75.3302 111.758C75.3555 111.755 75.3811 111.761 75.4027 111.774C75.4244 111.788 75.4409 111.808 75.4496 111.832V111.809Z" fill="#24272B"/>
        <path d="M78.0484 132.783C78.0484 131.838 79.0379 130.257 79.0322 129.032C79.0322 128.957 79.0322 128.877 79.0322 128.808C78.8787 127.399 77.258 120.754 77.2523 118.881C77.249 118.822 77.249 118.763 77.2523 118.704C77.2523 118.584 77.2523 118.475 77.2523 118.366C77.2594 117.887 77.158 117.413 76.9561 116.979C76.7541 116.545 76.4568 116.163 76.0866 115.863C75.319 115.135 75.8137 114.717 75.046 113.463L75.3701 113.262C76.189 114.654 75.7511 115.101 76.3368 115.553C76.748 115.891 77.0782 116.318 77.3027 116.802C77.5272 117.286 77.6403 117.814 77.6333 118.349C77.6333 118.463 77.6333 118.589 77.6333 118.715C77.6303 118.765 77.6303 118.815 77.6333 118.864C77.6333 120.623 79.2483 127.29 79.4075 128.745C79.4132 128.835 79.4132 128.925 79.4075 129.014C79.4075 130.389 78.4067 132.044 78.4238 132.766C78.4169 132.821 78.4244 132.877 78.4453 132.928C78.4662 132.979 78.4999 133.024 78.5432 133.058L78.3214 133.373C78.2297 133.303 78.1568 133.21 78.1091 133.104C78.0615 132.998 78.0407 132.882 78.0484 132.766V132.783Z" fill="black"/>
        <path d="M59.7325 139.049L59.8633 140.636C59.8633 140.636 60.1931 144.451 60.7845 144.777C60.8817 144.874 60.9972 144.95 61.1242 145.001C61.2512 145.052 61.387 145.078 61.5237 145.075C61.5625 145.141 61.6148 145.198 61.6772 145.242C61.7396 145.286 61.8106 145.316 61.8854 145.33C61.9603 145.344 62.0372 145.342 62.1112 145.324C62.1851 145.305 62.2543 145.271 62.3141 145.224C62.7861 145.602 63.2752 145.424 63.4003 145.075C63.4622 145.143 63.5384 145.197 63.6232 145.232C63.7081 145.267 63.7997 145.283 63.8914 145.279C63.9832 145.275 64.0728 145.25 64.154 145.207C64.2352 145.164 64.306 145.103 64.3613 145.029C64.6172 144.645 64.8787 144.531 64.5375 143.19C64.1964 141.85 63.3491 140.756 63.4003 139.96C63.4514 139.164 63.4514 138.763 63.4514 138.763C63.4514 138.763 60.8869 139.908 59.7325 139.049Z" fill="black"/>
        <path d="M64.6457 107.496C62.8197 107.57 61.3838 104.906 61.8464 103.778C62.3462 102.068 64.0458 98.9529 65.6454 98.7514C67.2451 98.5498 65.8079 99.3999 66.9451 99.2289C66.3453 97.5197 71.8935 98.4691 71.8935 99.2294C72.1439 99.9567 72.5421 101.559 72.2439 102.068C72.0978 102.301 69.6792 101.737 68.2448 102.369C66.0126 103.353 64.6457 107.496 64.6457 107.496Z" fill="black"/>
        <path d="M71.0861 98.4515C72.6088 98.5319 72.4218 101.067 71.9877 102.173C69.9842 102.013 68.2812 102.239 67.8805 102.674C66.7785 101.669 66.0773 99.7604 66.1775 99.2576C66.2777 98.7549 69.1828 98.3509 71.0861 98.4515Z" fill="#232323"/>
        <ellipse cx="0.400732" cy="0.502679" rx="0.400732" ry="0.502679" transform="matrix(0.990588 -0.136877 0.135899 0.990723 69.3185 99.4137)" fill="#9C8F60"/>
        <ellipse cx="0.249302" cy="0.311628" rx="0.249302" ry="0.311628" transform="matrix(0.990588 -0.136877 0.135899 0.990723 69.5128 99.5797)" fill="#8F382D"/>
        <path d="M81.8421 109.112C81.318 108.21 79.6272 107.045 78.8473 106.576L79.2039 106.191C79.5783 106.41 80.5693 106.989 81.4678 107.515C82.3662 108.041 83.1803 110.011 83.4922 110.981L82.8887 111.708C82.7327 111.238 82.3662 110.013 81.8421 109.112Z" fill="#D9D9D9"/>
        <path d="M82.6846 107.608C82.1605 106.707 80.5801 105.992 79.8002 105.522L80.1198 105.123C80.4941 105.343 81.8588 105.657 82.4974 106.481C83.1525 107.327 84.1461 108.706 84.458 109.677L83.8545 110.518C83.6985 110.048 83.2087 108.51 82.6846 107.608Z" fill="#D9D9D9"/>
        <path d="M61.3292 129.968C60.4281 130.059 58.1504 129.931 57.1242 129.855L57.2141 130.483C57.6185 130.55 58.6149 130.702 59.3658 130.779C60.1167 130.855 62.3417 130.487 63.3604 130.294L63.2064 129.253C62.9561 129.454 62.2302 129.878 61.3292 129.968Z" fill="#7E838A"/>
        <path d="M57.341 131.461C58.2164 131.585 60.3222 131.758 61.7425 131.461C63.1226 131.172 63.462 130.989 63.4632 130.928L63.4624 130.923C63.463 130.924 63.4632 130.926 63.4632 130.928L63.6104 131.925C63.0001 132.117 61.5095 132.489 60.4295 132.445C59.3494 132.4 57.9881 132.284 57.4641 132.234L57.341 131.461Z" fill="#7E838A"/>
        <path d="M66.0984 110.001C66.0984 110.001 63.4751 111.447 62.5785 112.386C61.6819 113.324 70.515 118.082 70.515 116.646C70.515 115.21 70.515 112.137 70.515 112.137C69.5194 112.019 68.6625 112.171 67.792 111.67C66.9215 111.169 66.7052 110.805 66.0984 110.001Z" fill="#142163"/>
        <ellipse cx="1.01256" cy="1.17426" rx="1.01256" ry="1.17426" transform="matrix(0.981385 -0.19205 0.190704 0.981648 73.753 116.49)" fill="#9C8F60"/>
        <ellipse cx="0.72514" cy="0.840935" rx="0.72514" ry="0.840935" transform="matrix(0.981385 -0.19205 0.190704 0.981648 74.0987 116.768)" fill="#8F382D"/>
        <path d="M74.9097 117.188L74.3888 117.305L74.9097 117.427C74.9097 117.427 74.9864 117.598 75.0402 117.682C75.094 117.766 75.176 117.427 75.176 117.427L75.6482 117.188H75.176C75.176 117.188 75.1459 116.995 75.176 116.89C75.0844 116.851 75.095 117.155 75.0402 117.154C74.972 117.153 75.014 116.811 74.8728 116.89C74.9623 117.019 74.9097 117.188 74.9097 117.188Z" fill="#9C8F60"/>
        <path d="M86.7346 98.9268C86.781 98.8692 86.8972 98.824 87.0622 98.7891C86.9328 98.7012 86.9627 98.539 87.0245 98.3396C87.1186 98.036 90.1572 97.2011 90.4934 97.6464C90.7623 98.0026 90.4786 98.5386 90.3032 98.762C90.3417 99.3635 89.908 99.761 89.6979 99.8576C89.6979 99.9846 89.6424 100.201 89.464 100.381C89.4191 100.607 89.1858 101.126 88.6111 101.392C87.8926 101.725 86.8437 101.221 86.5121 100.869C86.2468 100.588 86.803 100.396 87.0595 100.443C86.738 100.335 86.4297 100.224 86.419 100.079C86.3781 99.5286 86.7929 99.5584 87.2256 99.6261C86.7697 99.5002 86.5047 99.2118 86.7346 98.9268Z" fill="#232222"/>
    </g>
    <defs>
        <linearGradient id="paint0_linear_1_88223" x1="68.3766" y1="173.212" x2="38.8059" y2="143.749" gradientUnits="userSpaceOnUse">
            <stop stop-color="#5B6570"/>
            <stop offset="1" stop-color="#9BA3AA" stop-opacity="0"/>
        </linearGradient>
        <linearGradient id="paint1_linear_1_88223" x1="67.1134" y1="112.805" x2="69.4797" y2="107.152" gradientUnits="userSpaceOnUse">
            <stop stop-color="white"/>
            <stop offset="0.64" stop-color="#C6C0B9"/>
        </linearGradient>
        <clipPath id="clip0_1_88223">
            <rect width="500" height="178" fill="white"/>
        </clipPath>
    </defs>
</svg>
