<svg width="484" height="208" viewBox="0 0 484 208" fill="none" xmlns="http://www.w3.org/2000/svg">
<path d="M110.315 204.311L473.948 182.749L478.028 102.913L357.691 113.402L359.73 76.6892L0.466826 102.913L10.8038 162.917L127.797 162.917L110.315 204.311Z" fill="#074989"/>
<path d="M26.6346 160.445L347.218 138.908L357.061 70.6674L11.7949 106.619L26.6346 160.445Z" fill="white"/>
<path d="M123.426 195.278L455.883 185.372L481.176 103.787L136.085 144.882L123.426 195.278Z" fill="white"/>
<path d="M63.979 126.571L64.7425 123.388L64.5333 123.405L62.5695 126.929L52.2464 140.87L48.761 141.148L51.974 116.339L56.5051 115.978L54.791 129.233L54.001 132.522L54.2102 132.506L56.2354 128.872L66.5082 115.18L69.9936 114.902L66.7806 139.711L62.2496 140.072L63.979 126.571Z" fill="#074989"/>
<path d="M87.7413 137.023C86.2642 138.146 84.3986 138.797 82.1447 138.977C80.6112 139.099 79.2547 138.95 78.0754 138.53C76.896 138.11 75.8868 137.477 75.0478 136.632C74.232 135.785 73.59 134.772 73.1219 133.593C72.6538 132.415 72.3641 131.128 72.253 129.734C72.0343 126.992 72.2315 124.627 72.8445 122.637C73.4557 120.624 74.3396 118.952 75.4961 117.62C76.6508 116.265 78.0066 115.233 79.5636 114.525C81.1438 113.814 82.782 113.391 84.4783 113.256C85.8027 113.15 86.938 113.165 87.8842 113.3C88.8517 113.41 89.6128 113.571 90.1676 113.784L88.7124 117.969C88.2273 117.751 87.6549 117.609 86.995 117.545C86.3332 117.457 85.5028 117.454 84.5037 117.533C83.3186 117.628 82.2343 117.96 81.2509 118.529C80.2674 119.099 79.44 119.866 78.7687 120.832C78.0974 121.797 77.5929 122.948 77.2552 124.284C76.9407 125.619 76.8492 127.111 76.9807 128.761C77.1382 130.736 77.7494 132.242 78.8142 133.28C79.9023 134.316 81.2712 134.768 82.921 134.636C83.9666 134.553 84.818 134.38 85.4752 134.117C86.1538 133.829 86.7821 133.498 87.3603 133.125L87.7413 137.023Z" fill="#074989"/>
<path d="M106.365 116.281L98.2789 116.926L95.6331 137.411L91.102 137.772L94.315 112.963L98.8461 112.601L106.932 111.957L111.463 111.595L108.25 136.405L103.719 136.766L106.365 116.281Z" fill="#074989"/>
<path d="M134.268 109.777L138.799 109.416L135.586 134.225L131.055 134.586L134.268 109.777ZM116.353 111.205L120.884 110.844L119.734 119.74C120.032 119.669 120.411 119.581 120.87 119.474C121.329 119.367 121.826 119.292 122.361 119.25C123.476 119.161 124.477 119.245 125.362 119.502C126.269 119.733 127.036 120.116 127.664 120.651C128.312 121.16 128.819 121.798 129.184 122.564C129.547 123.307 129.766 124.143 129.84 125.072C129.962 126.606 129.817 128.009 129.404 129.281C128.989 130.53 128.328 131.623 127.421 132.561C126.513 133.499 125.369 134.256 123.989 134.834C122.607 135.388 121.01 135.738 119.197 135.882C118.895 135.907 118.593 135.931 118.291 135.955C117.989 135.979 117.802 135.982 117.731 135.964C117.312 135.998 116.857 136.011 116.366 136.003C115.874 135.995 115.335 135.98 114.748 135.957C114.185 135.931 113.654 135.868 113.155 135.768L116.353 111.205ZM118.179 131.474C118.678 131.574 119.311 131.594 120.078 131.533C120.845 131.472 121.545 131.311 122.179 131.05C122.836 130.787 123.393 130.439 123.85 130.005C124.304 129.547 124.648 129.017 124.88 128.414C125.113 127.811 125.198 127.126 125.137 126.359C124.976 124.338 123.664 123.425 121.201 123.622C120.899 123.646 120.53 123.71 120.094 123.815C119.656 123.897 119.347 123.98 119.167 124.064L118.179 131.474Z" fill="#074989"/>
<path d="M159.62 112.035L152.858 112.574L150.177 133.061L145.681 133.42L148.327 112.935L141.565 113.474L142.132 109.15L160.152 107.713L159.62 112.035Z" fill="#074989"/>
<path d="M170.021 126.042L162.91 126.609L160.448 132.242L155.638 132.626L167.237 106.973L170.583 106.706L175.714 131.025L171.148 131.389L170.021 126.042ZM164.591 122.617L169.541 122.222L168.549 116.83L168.279 112.993L168.104 113.007L167.019 116.987L164.591 122.617Z" fill="#074989"/>
<path d="M193.861 116.214L194.625 113.032L194.415 113.048L192.452 116.572L182.129 130.514L178.643 130.792L181.856 105.982L186.387 105.621L184.673 118.876L183.883 122.166L184.092 122.149L186.118 118.515L196.39 104.824L199.876 104.546L196.663 129.355L192.132 129.716L193.861 116.214ZM189.389 99.2786C189.394 99.9329 189.586 100.432 189.964 100.776C190.366 101.118 190.892 101.263 191.542 101.211C193.053 101.091 193.986 100.327 194.341 98.9188L198.362 99.1945C197.987 100.651 197.2 101.778 196.001 102.575C194.825 103.37 193.296 103.843 191.414 103.993C190.507 104.065 189.709 104.023 189.018 103.868C188.326 103.689 187.744 103.432 187.273 103.095C186.802 102.759 186.431 102.356 186.16 101.886C185.91 101.392 185.75 100.855 185.68 100.276L189.389 99.2786Z" fill="#074989"/>
<path d="M225.427 116.784L216.957 117.459L215.61 127.844L211.079 128.205L214.292 103.396L218.823 103.035L217.524 113.135L225.994 112.46L227.293 102.359L231.824 101.998L228.611 126.807L224.08 127.169L225.427 116.784Z" fill="#074989"/>
<path d="M234.123 117.178C233.95 115.017 234.079 112.961 234.508 111.009C234.958 109.032 235.673 107.292 236.652 105.787C237.629 104.26 238.852 103.028 240.321 102.092C241.811 101.132 243.508 100.575 245.414 100.424C246.669 100.323 247.81 100.419 248.839 100.712C249.891 101.002 250.797 101.514 251.557 102.249C252.339 102.958 252.974 103.889 253.464 105.043C253.953 106.197 254.263 107.587 254.393 109.213C254.567 111.397 254.429 113.478 253.978 115.455C253.551 117.429 252.85 119.192 251.875 120.743C250.921 122.269 249.722 123.511 248.278 124.468C246.858 125.423 245.241 125.972 243.429 126.117C240.687 126.336 238.52 125.702 236.928 124.215C235.335 122.705 234.4 120.36 234.123 117.178ZM238.886 116.658C239.02 118.331 239.44 119.642 240.147 120.591C240.877 121.538 241.974 121.954 243.438 121.837C244.507 121.752 245.446 121.361 246.256 120.665C247.087 119.944 247.774 119.024 248.316 117.905C248.856 116.763 249.234 115.482 249.448 114.062C249.685 112.64 249.744 111.174 249.623 109.664C249.477 107.828 249.01 106.521 248.223 105.741C247.436 104.962 246.415 104.623 245.16 104.723C244.115 104.806 243.175 105.185 242.34 105.86C241.528 106.533 240.839 107.418 240.272 108.515C239.726 109.588 239.322 110.836 239.062 112.259C238.823 113.658 238.764 115.124 238.886 116.658Z" fill="#074989"/>
<path d="M259.811 99.942C260.247 99.8371 260.741 99.7275 261.293 99.6133C261.845 99.4992 262.433 99.3938 263.057 99.2973C263.68 99.2008 264.317 99.115 264.965 99.0399C265.637 98.963 266.287 98.8995 266.914 98.8494C267.983 98.7642 268.98 98.8016 269.905 98.9617C270.851 99.0968 271.668 99.3707 272.356 99.7835C273.066 100.195 273.637 100.757 274.068 101.471C274.521 102.16 274.788 103.015 274.869 104.038C274.931 104.804 274.862 105.558 274.664 106.299C274.464 107.016 274.142 107.673 273.699 108.27C273.278 108.865 272.746 109.375 272.102 109.8C271.481 110.224 270.757 110.527 269.93 110.71L269.944 110.884C270.392 110.942 270.848 111.081 271.31 111.302C271.77 111.499 272.19 111.781 272.57 112.148C272.948 112.492 273.263 112.923 273.515 113.441C273.765 113.935 273.915 114.508 273.967 115.159C274.086 116.646 273.897 117.947 273.402 119.062C272.904 120.154 272.194 121.076 271.272 121.827C270.348 122.556 269.248 123.135 267.973 123.564C266.696 123.969 265.337 124.23 263.896 124.345C263.525 124.374 263.037 124.413 262.433 124.461C261.852 124.508 261.222 124.534 260.545 124.542C259.869 124.572 259.192 124.579 258.512 124.563C257.833 124.548 257.209 124.492 256.64 124.397L259.811 99.942ZM261.474 120.364C261.571 120.403 261.737 120.425 261.971 120.429C262.228 120.432 262.497 120.434 262.778 120.435C263.08 120.411 263.383 120.399 263.687 120.398C263.989 120.374 264.245 120.353 264.454 120.337C265.035 120.29 265.622 120.173 266.215 119.986C266.831 119.796 267.37 119.52 267.832 119.155C268.317 118.789 268.702 118.338 268.987 117.8C269.271 117.263 269.384 116.623 269.325 115.879C269.278 115.299 269.113 114.832 268.827 114.481C268.542 114.13 268.182 113.866 267.747 113.69C267.31 113.491 266.81 113.379 266.247 113.354C265.705 113.304 265.144 113.302 264.563 113.348L262.332 113.526L261.474 120.364ZM262.845 109.837L264.344 109.717C264.669 109.692 265.052 109.661 265.494 109.626C265.933 109.567 266.302 109.503 266.601 109.432C267.013 109.329 267.446 109.178 267.897 108.978C268.372 108.777 268.784 108.51 269.131 108.178C269.502 107.845 269.797 107.435 270.016 106.95C270.234 106.465 270.316 105.874 270.26 105.177C270.18 104.178 269.789 103.519 269.085 103.201C268.405 102.881 267.554 102.762 266.531 102.844C265.927 102.892 265.371 102.948 264.861 103.012C264.352 103.076 263.96 103.142 263.685 103.211L262.845 109.837Z" fill="#074989"/>
<path d="M286.356 108.488L286.644 111.657L286.853 111.641L287.742 108.273L292.573 97.1543L297.626 96.7513L289.212 114.399C288.551 115.785 287.957 116.989 287.431 118.013C286.905 119.038 286.366 119.899 285.813 120.598C285.282 121.271 284.693 121.798 284.045 122.177C283.395 122.533 282.617 122.747 281.711 122.819C280.294 122.932 279.133 122.744 278.229 122.255L279.907 118.228C280.247 118.388 280.559 118.491 280.844 118.539C281.126 118.563 281.442 118.561 281.79 118.533C282.278 118.494 282.735 118.212 283.161 117.687C283.585 117.139 283.986 116.452 284.365 115.627L278.073 98.3104L283.057 97.913L286.356 108.488Z" fill="#074989"/>
<path d="M303.329 106.293L306.292 106.057C306.996 102.563 308.264 99.855 310.099 97.9315C311.956 96.0062 314.198 94.9389 316.823 94.7296C319.356 94.5276 321.358 95.1397 322.828 96.5658C324.321 97.9901 325.174 100.038 325.387 102.71C325.567 104.964 325.459 107.136 325.065 109.225C324.691 111.289 324.043 113.13 323.12 114.747C322.196 116.364 320.992 117.687 319.508 118.718C318.022 119.725 316.267 120.309 314.246 120.47C312.945 120.574 311.8 120.443 310.812 120.078C309.846 119.687 309.029 119.121 308.362 118.379C307.693 117.614 307.165 116.709 306.777 115.664C306.413 114.617 306.181 113.467 306.081 112.212C306.033 111.608 306.019 110.989 306.039 110.356L302.762 110.618L301.416 121.002L296.885 121.364L300.098 96.5543L304.629 96.193L303.329 106.293ZM310.657 111.531C310.776 113.019 311.15 114.193 311.78 115.055C312.408 115.893 313.396 116.259 314.743 116.151C315.789 116.068 316.703 115.656 317.486 114.915C318.29 114.15 318.938 113.186 319.43 112.025C319.944 110.838 320.305 109.499 320.513 108.01C320.72 106.497 320.76 104.95 320.634 103.37C320.517 101.906 320.125 100.792 319.456 100.027C318.787 99.2615 317.825 98.929 316.57 99.029C315.548 99.1105 314.645 99.5216 313.862 100.262C313.078 100.979 312.428 101.92 311.913 103.083C311.395 104.224 311.02 105.528 310.786 106.996C310.576 108.463 310.533 109.975 310.657 111.531Z" fill="#074989"/>
<path d="M179.585 154.905L174.695 155.132C174.262 157.368 173.842 159.406 173.438 161.245C173.056 163.083 172.654 164.735 172.232 166.201C171.833 167.666 171.392 168.97 170.908 170.113C170.424 171.255 169.887 172.26 169.297 173.128C168.904 173.706 168.483 174.18 168.033 174.551C167.607 174.921 167.166 175.221 166.71 175.452C166.276 175.659 165.851 175.807 165.435 175.896C165.02 176.009 164.627 176.074 164.254 176.091C163.183 176.141 162.337 176.017 161.717 175.719L162.888 171.534C163.007 171.575 163.125 171.605 163.242 171.623C163.383 171.639 163.512 171.645 163.628 171.64C164.025 171.645 164.416 171.533 164.803 171.305C165.212 171.076 165.581 170.721 165.908 170.239C166.304 169.708 166.712 168.942 167.132 167.942C167.553 166.943 167.972 165.663 168.39 164.104C168.831 162.543 169.27 160.691 169.707 158.548C170.168 156.403 170.636 153.896 171.11 151.027L175.406 150.828L180.26 150.604L184.801 150.394L180.763 175.082L176.258 175.291L179.585 154.905Z" fill="#074989"/>
<path d="M189.748 150.165L194.288 149.954L203.509 149.528L202.798 153.831L193.578 154.258L192.619 160.007L201.036 159.618L200.29 163.922L191.943 164.309L190.927 170.341L200.322 169.906L199.646 174.208L190.251 174.643L185.71 174.853L189.748 150.165Z" fill="#074989"/>
<path d="M223.787 152.859L217.011 153.173L213.65 173.56L209.144 173.768L212.471 153.383L205.695 153.697L206.406 149.394L224.463 148.558L223.787 152.859Z" fill="#074989"/>
<path d="M238.494 162.154L230.007 162.547L228.315 172.881L223.774 173.091L227.812 148.403L232.353 148.193L230.718 158.244L239.205 157.851L240.84 147.8L245.38 147.59L241.343 172.278L236.802 172.488L238.494 162.154Z" fill="#074989"/>
<path d="M253.212 157.203L256.181 157.065C257 153.597 258.358 150.932 260.256 149.071C262.176 147.209 264.452 146.217 267.083 146.095C269.622 145.978 271.601 146.656 273.023 148.13C274.468 149.603 275.252 151.679 275.376 154.357C275.481 156.615 275.301 158.782 274.837 160.857C274.395 162.908 273.686 164.726 272.709 166.311C271.733 167.896 270.485 169.179 268.967 170.159C267.448 171.116 265.676 171.642 263.65 171.736C262.346 171.796 261.206 171.627 260.231 171.229C259.278 170.806 258.481 170.213 257.839 169.449C257.196 168.662 256.698 167.74 256.346 166.683C256.017 165.625 255.823 164.467 255.765 163.21C255.737 162.605 255.743 161.986 255.784 161.354L252.501 161.506L250.809 171.84L246.268 172.05L250.306 147.362L254.847 147.151L253.212 157.203ZM260.361 162.682C260.43 164.172 260.765 165.359 261.366 166.241C261.965 167.1 262.94 167.498 264.291 167.436C265.339 167.387 266.266 167.006 267.073 166.292C267.902 165.553 268.582 164.612 269.113 163.467C269.665 162.298 270.071 160.973 270.329 159.491C270.586 157.985 270.678 156.441 270.604 154.858C270.536 153.391 270.181 152.264 269.538 151.477C268.895 150.69 267.944 150.325 266.687 150.384C265.662 150.431 264.747 150.812 263.94 151.526C263.132 152.217 262.451 153.135 261.897 154.281C261.342 155.403 260.924 156.694 260.641 158.154C260.382 159.613 260.289 161.122 260.361 162.682Z" fill="#074989"/>
<path d="M284.097 155.773L287.065 155.636C287.885 152.168 289.243 149.503 291.141 147.642C293.061 145.779 295.337 144.787 297.968 144.665C300.506 144.548 302.486 145.226 303.908 146.701C305.353 148.174 306.137 150.249 306.261 152.927C306.366 155.186 306.186 157.353 305.722 159.428C305.28 161.478 304.571 163.296 303.594 164.881C302.618 166.467 301.37 167.749 299.852 168.73C298.333 169.687 296.561 170.212 294.535 170.306C293.231 170.366 292.091 170.197 291.116 169.799C290.163 169.377 289.366 168.783 288.724 168.02C288.08 167.233 287.583 166.311 287.23 165.254C286.901 164.196 286.708 163.038 286.65 161.78C286.622 161.175 286.628 160.556 286.669 159.924L283.386 160.076L281.694 170.41L277.153 170.62L281.191 145.932L285.731 145.722L284.097 155.773ZM291.246 161.253C291.315 162.743 291.649 163.929 292.25 164.811C292.85 165.67 293.825 166.069 295.176 166.006C296.224 165.958 297.151 165.576 297.958 164.862C298.787 164.124 299.467 163.182 299.997 162.038C300.55 160.869 300.955 159.543 301.213 158.061C301.47 156.556 301.562 155.011 301.489 153.428C301.421 151.961 301.066 150.834 300.423 150.047C299.779 149.26 298.829 148.896 297.572 148.954C296.547 149.001 295.631 149.382 294.824 150.096C294.016 150.787 293.335 151.705 292.782 152.851C292.227 153.973 291.808 155.265 291.526 156.724C291.267 158.183 291.173 159.693 291.246 161.253Z" fill="#074989"/>
<path d="M321.141 144.328C322.111 144.096 323.14 143.909 324.231 143.765C325.343 143.597 326.458 143.487 327.575 143.435C328.763 143.38 329.864 143.469 330.878 143.702C331.914 143.911 332.818 144.277 333.589 144.802C334.383 145.325 335.011 146.019 335.471 146.885C335.93 147.727 336.187 148.753 336.243 149.964C336.327 151.781 336.084 153.32 335.512 154.583C334.939 155.823 334.147 156.852 333.135 157.669C332.145 158.461 330.993 159.051 329.681 159.439C328.368 159.803 327.025 160.017 325.651 160.08C325.534 160.086 325.348 160.094 325.092 160.106C324.859 160.117 324.603 160.129 324.323 160.142C324.066 160.13 323.809 160.119 323.552 160.107C323.318 160.095 323.142 160.08 323.025 160.062L321.668 168.56L317.127 168.77L321.141 144.328ZM323.742 155.898C323.836 155.917 323.965 155.935 324.129 155.95C324.294 155.966 324.469 155.981 324.657 155.996C324.866 155.986 325.052 155.978 325.215 155.97C325.402 155.961 325.541 155.955 325.635 155.951C326.426 155.914 327.179 155.798 327.894 155.601C328.63 155.38 329.269 155.071 329.811 154.672C330.351 154.251 330.77 153.718 331.067 153.074C331.387 152.429 331.526 151.653 331.484 150.745C331.453 150.069 331.31 149.516 331.057 149.084C330.827 148.652 330.52 148.327 330.137 148.112C329.753 147.873 329.302 147.719 328.786 147.649C328.292 147.579 327.766 147.557 327.207 147.582C326.788 147.602 326.382 147.644 325.988 147.709C325.617 147.749 325.304 147.799 325.05 147.857L323.742 155.898Z" fill="#074989"/>
<path d="M341.067 143.161L345.607 142.95L354.828 142.524L354.117 146.827L344.896 147.254L343.938 153.003L352.355 152.614L351.609 156.919L343.262 157.305L342.246 163.337L351.641 162.902L350.965 167.204L341.57 167.639L337.029 167.849L341.067 143.161Z" fill="#074989"/>
<path d="M359.02 156.016L359.649 152.206L360.452 152.169C360.662 152.159 360.907 152.148 361.186 152.135C361.464 152.099 361.743 152.063 362.021 152.026C362.323 151.989 362.613 151.952 362.891 151.916C363.169 151.88 363.401 151.846 363.586 151.814C364.049 151.723 364.51 151.596 364.969 151.435C365.427 151.25 365.824 151.01 366.161 150.715C366.52 150.418 366.807 150.066 367.022 149.66C367.236 149.253 367.331 148.77 367.305 148.212C367.27 147.466 366.952 146.898 366.351 146.506C365.771 146.089 364.923 145.907 363.805 145.958C362.827 146.004 361.891 146.187 360.996 146.508C360.124 146.829 359.403 147.131 358.832 147.414L358.33 143.377C358.603 143.224 358.969 143.055 359.427 142.871C359.909 142.685 360.437 142.509 361.013 142.342C361.612 142.175 362.258 142.028 362.952 141.903C363.646 141.754 364.341 141.663 365.04 141.631C366.018 141.586 366.92 141.661 367.746 141.856C368.57 142.028 369.296 142.321 369.921 142.735C370.547 143.15 371.039 143.687 371.396 144.347C371.776 144.983 371.985 145.731 372.025 146.593C372.099 148.2 371.722 149.629 370.894 150.881C370.088 152.131 368.833 152.994 367.128 153.47L367.136 153.645C367.585 153.764 368.025 153.942 368.456 154.179C368.886 154.392 369.261 154.69 369.582 155.072C369.927 155.452 370.205 155.918 370.417 156.468C370.652 157.017 370.788 157.676 370.824 158.444C370.889 159.865 370.667 161.112 370.157 162.185C369.645 163.236 368.917 164.133 367.971 164.877C367.048 165.596 365.942 166.161 364.654 166.57C363.365 166.957 361.988 167.184 360.521 167.252C359.054 167.32 357.732 167.253 356.556 167.05C355.403 166.847 354.539 166.584 353.964 166.26L355.798 162.01C356.275 162.245 356.963 162.481 357.861 162.72C358.757 162.935 359.858 163.012 361.162 162.952C361.72 162.926 362.299 162.829 362.898 162.661C363.497 162.494 364.034 162.247 364.509 161.922C364.983 161.573 365.359 161.136 365.638 160.609C365.941 160.082 366.075 159.446 366.04 158.701C365.988 157.583 365.545 156.834 364.711 156.452C363.9 156.07 362.748 155.89 361.256 155.912L359.929 155.973L359.02 156.016Z" fill="#074989"/>
<path d="M389.39 152.09L390.259 148.934L390.049 148.944L387.969 152.4L377.187 165.99L373.695 166.152L377.732 141.464L382.273 141.253L380.118 154.444L379.219 157.706L379.429 157.696L381.574 154.132L392.297 140.789L395.79 140.628L391.752 165.316L387.212 165.526L389.39 152.09Z" fill="#074989"/>
<path d="M411.386 154.152L402.899 154.545L401.207 164.879L396.666 165.089L400.704 140.4L405.245 140.19L403.61 150.241L412.097 149.849L413.732 139.797L418.272 139.587L414.235 164.276L409.694 164.486L411.386 154.152Z" fill="#074989"/>
<path d="M428.832 149.914L429.014 153.091L429.223 153.081L430.224 149.745L435.423 138.793L440.487 138.559L431.49 155.916C430.783 157.279 430.149 158.464 429.589 159.47C429.029 160.476 428.461 161.319 427.886 161.999C427.333 162.654 426.726 163.161 426.066 163.518C425.405 163.852 424.62 164.04 423.712 164.082C422.292 164.148 421.138 163.921 420.251 163.402L422.062 159.433C422.397 159.604 422.705 159.718 422.988 159.775C423.269 159.809 423.585 159.818 423.934 159.801C424.423 159.779 424.889 159.512 425.332 159.002C425.774 158.468 426.198 157.795 426.604 156.983L420.893 139.466L425.887 139.235L428.832 149.914Z" fill="#074989"/>
<g filter="url(#filter0_d_137_28348)">
<circle cx="389.509" cy="81.1187" r="43.7648" fill="#074989"/>
</g>
<path d="M24.6738 166.155L14.1616 123.892L20.1686 174.951L123.255 160.647L121.11 191.969L130.334 155.928L24.6738 166.155Z" fill="white"/>
<path d="M458.874 188.435L466.54 157.733L465.772 196.903L402.473 188.435L458.874 188.435Z" fill="white"/>
<path d="M206.403 76.8019L108.566 93.8724L199.972 84.0899L206.403 76.8019Z" fill="white"/>
<path d="M208.557 83.5949L215.174 75.8825L208.74 77.112L202.695 84.2763L208.557 83.5949Z" fill="white"/>
<path d="M156.193 80.054L126.772 89.1374L176.564 80.6267L156.193 80.054Z" fill="white"/>
<path d="M320.709 191.782L188.985 195.858L287.671 196.931L320.709 191.782Z" fill="white"/>
<path d="M411.571 92.8835L418.412 86.0134L411.571 79.1429L412.673 78.036C414.58 76.1207 414.58 73.0045 412.674 71.0892C411.75 70.1617 410.521 69.6508 409.215 69.6508C407.909 69.6508 406.68 70.1617 405.757 71.0892L404.654 72.1962L397.813 65.3257L395.795 67.3535V70.5581C399.366 71.4127 402.029 74.6439 402.029 78.4879C402.029 82.3324 399.366 85.5636 395.795 86.4178V96.3548H389.873L388.692 97.5405L397.813 106.701L404.654 99.8302L405.604 100.785C407.511 102.7 410.614 102.7 412.521 100.785C414.428 98.8694 414.428 95.7533 412.521 93.838L411.571 92.8835Z" fill="white"/>
<path d="M392.435 93.2975V83.632H393.763C396.43 83.632 398.599 81.4401 398.599 78.7454C398.599 76.0511 396.43 73.8592 393.763 73.8592H392.435V64.1937H382.87V62.6366C382.87 59.9419 380.701 57.75 378.034 57.75C375.368 57.75 373.199 59.9419 373.199 62.6366V64.1937H363.634V73.8592H364.962C367.302 73.8592 369.258 75.5466 369.703 77.7804C369.896 78.0528 370.01 78.3855 370.01 78.7454C370.01 79.1053 369.896 79.438 369.703 79.7108C369.258 81.9442 367.302 83.632 364.962 83.632H363.634V93.2975H373.199V91.74C373.199 89.0457 375.368 86.8539 378.034 86.8539C380.701 86.8539 382.87 89.0457 382.87 91.74V93.2975H392.435Z" fill="white"/>
<defs>
<filter id="filter0_d_137_28348" x="318.93" y="0.539688" width="161.158" height="161.158" filterUnits="userSpaceOnUse" color-interpolation-filters="sRGB">
<feFlood flood-opacity="0" result="BackgroundImageFix"/>
<feColorMatrix in="SourceAlpha" type="matrix" values="0 0 0 0 0 0 0 0 0 0 0 0 0 0 0 0 0 0 127 0" result="hardAlpha"/>
<feOffset dx="10"/>
<feGaussianBlur stdDeviation="18.4071"/>
<feComposite in2="hardAlpha" operator="out"/>
<feColorMatrix type="matrix" values="0 0 0 0 0.845833 0 0 0 0 0.924103 0 0 0 0 1 0 0 0 0.5 0"/>
<feBlend mode="normal" in2="BackgroundImageFix" result="effect1_dropShadow_137_28348"/>
<feBlend mode="normal" in="SourceGraphic" in2="effect1_dropShadow_137_28348" result="shape"/>
</filter>
</defs>
</svg>
