<svg width="393" height="135" viewBox="0 0 393 135" fill="none" xmlns="http://www.w3.org/2000/svg">
<g style="mix-blend-mode:multiply">
<path fill-rule="evenodd" clip-rule="evenodd" d="M212.246 33.7042C164.456 31.9416 171.663 -0.242081 145.102 10.6175C124.29 19.1109 82.9489 -5.97781 72.4286 1.87666C61.7409 9.8487 -41.2326 56.0343 20.4959 107.68C32.678 117.878 57.1595 85.9891 107.354 84.1338C119.585 83.6824 145.102 140.123 298.265 133.651C341.91 137.766 368.539 113.921 370.765 103.151C375.903 78.2608 260.036 35.4668 212.246 33.7042Z" fill="#BACBEB"/>
<path d="M249.621 62.6821C252.97 70.4966 261.632 93.7736 245.435 89.1955C229.237 84.6175 197.99 98.9637 213.339 107.336C228.689 115.709 298.461 107.336 306.136 107.336C313.811 107.336 317.888 99.0381 310.323 89.1955C302.757 79.353 281.788 84.2974 276.134 66.3284C270.48 48.3595 245.435 52.914 249.621 62.6821Z" fill="#7B91BA"/>
<path fill-rule="evenodd" clip-rule="evenodd" d="M205.341 64.3113C195.043 46.8661 191.907 38.2466 172.624 31.3393C161.992 27.5396 114.188 28.4881 95.2852 15.7388C76.3822 2.98951 42.6913 26.7375 43.489 48.1761C44.1296 65.3635 80.2561 64.0468 95.7801 65.9909C125.349 69.6886 126.197 49.4272 163.734 72.5323C201.27 95.6373 215.638 81.7564 205.341 64.3113Z" fill="#9AB9E8"/>
<path fill-rule="evenodd" clip-rule="evenodd" d="M370.506 35.3168C353.083 24.9817 372.352 16.7884 352.125 20.015C340.978 21.8014 321.831 34.1798 324.24 41.3496C326.649 48.5194 333.162 54.4587 366.989 66.425C400.816 78.3914 387.93 45.652 370.506 35.3168Z" fill="#BACBEB"/>
<path fill-rule="evenodd" clip-rule="evenodd" d="M181.692 43.6076C162.735 29.5215 135.389 33.7496 113.614 27.1496C91.4273 20.4389 68.4324 33.2837 89.1329 35.7321C102.672 37.3339 120.597 38.0348 133.369 43.5399C142.561 47.503 162.422 68.7206 179.797 66.3286C197.173 63.9367 183.896 51.2926 181.692 43.6076Z" fill="#7B91BA"/>
</g>
</svg>
